<?xml version="1.0" encoding="utf-8"?>
<!-- Generator: Adobe Illustrator 18.1.1, SVG Export Plug-In . SVG Version: 6.00 Build 0)  -->
<svg version="1.1" id="Capa_1" xmlns="http://www.w3.org/2000/svg" xmlns:xlink="http://www.w3.org/1999/xlink" x="0px" y="0px"
	 viewBox="0 0 200 200" enable-background="new 0 0 200 200" xml:space="preserve">
<g>
	<path fill="#1D1D1B" d="M103.1,75.9h-0.2c-16.6-1.2-32.8,13.8-34.8,29.8c-2.2,17.8,10,33.8,27.8,35.6c18.6,1.8,39.4-8.8,40.8-28.8
		C138.1,93.7,121.9,76.5,103.1,75.9z M93.3,137.7c-16-3-25.6-19.8-21.4-35.4c4-15,17-20.8,30.6-24.6l0.2,0.2
		c14.8,5.4,30,13.6,30.4,31.6C133.5,129.9,111.7,141.1,93.3,137.7z"/>
	<path fill="#1D1D1B" d="M144.9,93.1c7.4-7.6,10.6-20.6,1.6-28.4c-4.8-4.2-10.2-3.6-14.8-0.8c0-0.2-0.2-0.2-0.4-0.4
		c-5.2-4.2-12.2-5.8-18.8-5.8c1.6-1.8,2.2-4.4,1.2-6.8c-1-2-3-3.4-5.2-2.8c-0.8,0.2-1.6,0.6-2.2,1.2c-0.4-0.6-1.2-1-1.8-1.2
		c-1.8-0.6-4,0.4-5.2,1.8c-1.4,1.4-1.8,3.4-1.2,5.4c0.6,1.2,1.6,2.4,2.8,2.6c-9.8,0.2-20,0-26,8.6c-8.2-5.6-20.2-4.6-25.2,6
		c-2.6,5.6-2.2,12.6,1.8,17.4c2.8,3.4,8.6,6.4,12.6,3.6c-1.2,2.8-2.2,6-2.8,9c-2.4,14.8,3.6,28.8,14.2,37.4c-3,2.8-7.8,10.2-2.2,12
		c2.2,0.8,4.6-0.6,6.2-1.8c1.4-1,3.4-3.2,3.4-5.2c4,2,8.4,3.4,13,4c9.4,1.2,20-0.6,29.2-5c2.2,3.4,7.8,8.2,11.2,4.2
		c2.8-3.4,0-7.2-3.2-9.2c7.6-5.8,13-14,13.8-24c0.6-7.2-1-14.8-4.4-21.8C143.1,93.5,144.1,93.7,144.9,93.1z M146.3,69.5
		c5.2,7.2,0.8,15.6-3.8,21.8c-0.2,0.4-0.2,0.6-0.2,1c-3.8-7.6-9.8-14.4-16.8-18.6C130.5,66.9,139.7,60.1,146.3,69.5z M100.3,51.7
		c0.4-0.8,1.2-1.2,2-1.6c0.4-0.2,2.8-0.6,2.6,0.6c0,0.2,0,0.4,0,0.6c0,0.2,0,0.4,0,0.6c0,0.4,0.6,0.6,0.8,0.2c0-0.2,0.2-0.2,0.2-0.4
		c0.2,0,0.4-0.2,0.6-0.4c0-0.2,0.2-0.4,0.2-0.6c1.4-1.4,4-0.4,4.6,1.8c0.4,1.2,0,2.4-0.6,3.4c-0.2,0.2-0.6,0.8-1,1.4
		c-2.4,0.4-4.8,0.4-7.4,0.4c0,0,0,0,0.2,0c0.8-0.2,0.6-1.2,0-1.6C100.5,55.3,99.3,53.5,100.3,51.7z M59.5,90.5
		c-3.2-1-5.6-3.8-6.8-6.8c-1.4-4-0.6-8.6,2-12.2c2.6-3.8,7.2-6,12-5.8c6,0.2,9.2,4.6,13.2,8.4c0.6,0.6,1.6-0.2,1.2-1
		c-1.2-2.4-3-4.6-5-6.2c5.6-5.8,12-7,20.2-7c4.2,0,8,0.2,12-0.8c0.6,0.4,1.4,0.2,2.2-0.2c7,0.8,12.6,3.4,19,6c-2.4,2-4.6,4.4-6,7
		c-5.4-2.8-11.4-4.2-17.6-3.6c-1,0-1,1.2-0.4,1.6c-16.4-3.4-33.4,6.6-40.8,21.4C62.5,90.9,61.9,91.3,59.5,90.5z M78.9,146.3
		c-1,1.2-2.2,2.4-3.8,2.6c-3.4,0.6,0.2-5.6,1.8-8.2c1.2,1,2.4,1.8,3.8,2.6C80.1,144.1,79.7,145.3,78.9,146.3z M134.3,145.5
		c-1.6,2.6-5.6-1.2-7.2-3.2c1.4-0.8,2.8-1.6,4-2.4C132.9,141.1,135.7,143.1,134.3,145.5z M144.3,113.1c-1.4,22-27,34.6-46.8,32.6
		c-20.6-2-35.8-20.2-33.6-41c2.2-21.8,22.4-32.6,42.4-32.8c0.8,0,1.2-1.4,0.2-1.6h-0.2C126.7,72.7,145.9,90.9,144.3,113.1z"/>
	<path fill="#1D1D1B" d="M103.7,82.1c-1.2,0.4-2.2,1.4-2.6,2.6c-1.4-1-3.2,0.4-2.4,2c0.4,0.8,1,1.6,1.6,2.2c0.2,0.6,0.4,1,0.8,1.4
		c1.8,1.4,4.2,0.6,4.2-1.8v-0.6c0-0.2,0.2-0.4,0.2-0.6c0.4-0.8,1-1.2,1-2C107.1,83.3,105.7,81.7,103.7,82.1z"/>
	<path fill="#1D1D1B" d="M77.3,103.7c-0.4,0.8-0.6,1.6-1,2.6c-0.2-0.2-0.6-0.4-0.8-0.6c-0.6-0.4-1.4-0.2-2,0.2
		c-0.6,0.6-0.6,1.2-0.2,2c0.2,0.6,0.6,1.2,1,1.6c0.2,0.2,0.4,0.4,0.6,0.6c0,0.2,0.6,0.8,0.4,0.2c0.6,2,3.2,2.4,4.4,0.6
		c0.6-0.8,0.8-1.8,1.2-2.8c0.4-0.8,0.8-1.6,1-2.6C82.9,102.9,78.5,100.9,77.3,103.7z"/>
	<path fill="#1D1D1B" d="M104.5,127.9c-0.8,0.8-1.2,1.8-1.6,2.8v0.2c-0.4-0.4-1-0.8-1.4-1.4c-1.2-1.2-2.8,0.4-2.2,1.8
		c0.6,1.4,1.6,2.4,2.6,3.4c0.2,0.2,0.4,0.6,0.6,0.8c1,1,2.8,0.8,3.4-0.4c0.4-0.8,0.8-1.8,1.2-2.6c0.4-1,1-2,1-3
		C108.3,127.5,105.9,126.5,104.5,127.9z"/>
	<path fill="#1D1D1B" d="M130.1,106.9c-1-0.4-2.6-0.2-3.2,1c-0.2,0.6-0.4,1.2-0.6,1.8c-0.2-0.2-0.4-0.4-0.6-0.6
		c-1.4-1.2-3.8,0.4-2.8,2.2c0.4,0.6,0.8,1.2,1.4,1.8c0.2,0.2,0.4,0.6,0.8,0.8c0.2,0.2,0.6,0.8,0.4,0.2c0.2,1,1.4,1.8,2.4,1.8
		c1.2,0,2-0.8,2.4-1.8c0.4-1.4,1-2.6,1.4-4C131.9,108.5,131.3,107.3,130.1,106.9z"/>
	<path fill="#1D1D1B" d="M103.7,107.7C103.7,107.7,103.5,107.7,103.7,107.7c-0.2,0-0.2-0.2-0.4-0.2c-3-2.6-6.2-5.4-9-8.4
		c-1-1.2-2.8,0.6-1.8,1.8c2.8,3,6,5.6,9.2,8.2c-3.2,2.6-6.4,5.2-9.4,8s-6.8,6-8.6,10c-0.4,1.2,0.6,2.8,1.8,1.8
		c3.2-2.4,5.6-6.2,8.4-9.2c2.8-3.2,5.8-6.2,8.8-9.2c0.2,0.2,0.4,0.2,0.6,0.2C105.5,110.7,105.5,107.7,103.7,107.7z"/>
</g>
</svg>
