<?xml version="1.0" encoding="utf-8"?>
<!-- Generator: Adobe Illustrator 18.1.1, SVG Export Plug-In . SVG Version: 6.00 Build 0)  -->
<svg version="1.1" id="Capa_1" xmlns="http://www.w3.org/2000/svg" xmlns:xlink="http://www.w3.org/1999/xlink" x="0px" y="0px"
	 viewBox="0 0 200 200" enable-background="new 0 0 200 200" xml:space="preserve">
<g>
	<path fill="#1D1D1B" d="M98.9,79.1c-0.2-3.2-4.6-3.2-5-0.2c-2.8-7.8-9.8-14-18-15.2c-11.4-1.8-22.4,5.8-26.8,16
		c-8.2,18.8,2.8,37.8,18.6,49.2c0,1.6,0.6,3.2,1.8,4.2c0.8,0.8,2-0.2,1.6-1.2c-0.2-0.4-0.2-0.6-0.4-1c1.4,0.8,2.8,1.6,4.2,2.4
		c0,1.8,1,3.8,2.6,4.8c0.8,0.6,1.8-0.6,1-1.4c-0.6-0.6-0.8-1.2-1-2c1.8,0.8,3.4,1.4,5.2,2c0.2,2,1.2,3.6,3,4.6
		c0.8,0.4,1.2-0.6,0.6-1c-0.8-0.6-1.4-1.8-1.4-2.8c1.4,0.4,2.8,0.8,4.2,1c1,0.2,2-1.4,0.8-2c-1.4-0.6-2.6-1.2-4-1.8
		c0.8-0.8,1.8-1,3-1.2s1.6-1.8,0.2-2.2c-2.2-0.6-4.4,0.4-5.6,2.2c-1.8-0.8-3.4-1.6-5-2.6c1-1,2.4-1,3.8-1c0.6,0,1-0.8,0.6-1.2
		c-2-1.6-5-0.8-6.8,1c-1.6-0.8-3-1.8-4.6-2.8c1.2-1.2,2.8-1.4,4.4-1c1.2,0.2,2-1.4,0.8-2c-2.4-1.6-6-1-7.8,1.4
		c-9-6.6-16.2-15-18.4-27c-2.2-12.6,3.4-26.8,16.8-30.4c12.4-3.4,21.8,6,24.6,17.2c0-0.2-0.2-0.2-0.2-0.4c-0.2-1.2-1.4-1.4-2.4-1.2
		c-0.2-0.2-0.6-0.6-0.8-0.8c-1.4-1.4-4.2,0.4-3,2.4c2.6,3.8,5.6,7,9.6,9.6c1.8,1.2,4.2-0.4,4.2-2.4C99.1,87.7,99.1,83.5,98.9,79.1z"
		/>
	<path fill="#1D1D1B" d="M149.9,68.7c-8-11.4-20.4-12.4-30.4-7c-2.6-1.4-5.6-0.6-7.8,1.4c-0.4,0.4,0,0.8,0.6,0.6
		c1.4-0.8,3-1,4.6-0.6c-1.8,1.2-3.4,2.6-4.8,4c-2-0.8-4.2-0.2-5.8,1.4c-0.8,0.8,0.2,2.2,1.2,1.6c0.8-0.6,1.8-0.8,2.8-0.8
		c-1.2,1.6-2.4,3.4-3.2,5.2c-2.2-0.2-4.2,0.8-5,3.4c-0.2,0.6,0.6,1.2,1.2,0.6c0.8-1,2-1.4,3-1.8c-0.8,2.4-1.4,5-1.6,7.8
		c0,1.2,1.8,1.4,2,0.2c0.6-2.6,1.4-5.2,2.4-7.8c1,0.6,1.8,1.6,2.2,3c0.2,0.8,1.2,0.6,1.2-0.2c0.2-2.2-1-3.8-2.6-4.8
		c0.8-1.8,2-3.4,3.2-4.8c0.6,0.8,0.8,1.8,1,2.8c0.2,0.8,1.4,0.8,1.6,0c0.4-1.6-0.2-3.2-1.2-4.4c1.4-1.6,3.2-3,5-4
		c1,1.4,1,2.8,1.2,4.4c0.2,1,1.6,1.2,2.2,0.2c1-2,0.4-4.2-0.8-5.8c1.6-0.6,3.4-1.2,5.2-1.4c16-2,25,13,20.8,27.2
		c-5.6,18-20.4,29.6-33.6,41.6c0.4-0.6,0.6-1.2,1-1.8c1.4-2.2-2-5-3.8-2.8c-2.6,2.8-5,6-6.4,9.8c-0.8,1.8,1.2,4.4,3.2,4.2
		c3.8-0.4,7.6-0.6,11.4-1.4c3.4-0.6,2.8-6.2-0.8-6.2c10-7,18.6-17.2,24.8-27C150.9,95.1,158.3,80.5,149.9,68.7z"/>
</g>
</svg>
