<?xml version="1.0" encoding="utf-8"?>
<!-- Generator: Adobe Illustrator 18.1.1, SVG Export Plug-In . SVG Version: 6.00 Build 0)  -->
<svg version="1.1" id="Capa_1" xmlns="http://www.w3.org/2000/svg" xmlns:xlink="http://www.w3.org/1999/xlink" x="0px" y="0px"
	 viewBox="0 0 200 200" enable-background="new 0 0 200 200" xml:space="preserve">
<g>
	<path fill="#1D1D1B" d="M150.4,71.4c0.2-0.6,0-1.4-1-1.6c-17.8-5.4-33.2-16.4-51.4-20.4c-13.2-2.8-27.4-2.8-39.8,2.8
		c1.4-1,2.4-2.8,2.8-4.2c0.6-3.4-2.2-6.4-5.4-7c-3.4-0.6-6.6,1.6-7.6,4.6c-0.6,1.8-0.4,6,2.2,6c0.4,35,2,69.6,0.6,104.6
		c0,0.4,0.2,0.8,0.4,1c0,0.6,0.2,1.2,1,1.4c14,4.8,9.4-28.6,9.4-34.4c0-8.6,0-17.6-0.4-26.6c19.8-3.4,39.4,4,59.4-1
		c12.6-3.2,28.6-9.4,31.6-23.8C152.2,71.6,151.2,71,150.4,71.4z M53.4,156c1.4-34.8,2.2-70.4-2-105c0-0.2,0-0.6-0.2-0.6
		c-0.2-0.2-0.4-0.2-0.8-0.2c-2-0.4,0-4.4,0.8-5.2c1.4-1.4,3.2-1.8,5-1s2.8,2.8,1.8,4.8c-0.8,1.6-2.4,1.6-3.8,2.4
		c-0.6,0.4-0.6,1.2-0.2,1.6V53c0.4,16.8,3.6,33.4,4.4,50.2c0.4,7.8,0.6,15.4,0.6,23.2C59,129.8,60,156.8,53.4,156z M102,95.4
		c-13.8,0.4-27.6-3.8-41,0.6c-0.6-14-1.8-28-5.2-41c16.6-5.2,32.8-5.2,49.6,0.2c14.8,4.6,28,15,43.4,17.4c0.2,0,0.6,0,0.8,0
		C143.2,89.6,118,94.8,102,95.4z"/>
	<path fill="#1D1D1B" d="M105,62.6c-4.8-6-11.6-3.4-15.4,1.6c-1.6-2.4-3.8-4-6.8-4.6c-4-0.6-7.8,1.2-9.4,5c-4,9.4,7,18.8,15.8,19
		c0.4,0.2,1,0.4,1.8,0C97.6,81,112.2,71.4,105,62.6z"/>
</g>
</svg>
