<?xml version="1.0" encoding="utf-8"?>
<!-- Generator: Adobe Illustrator 18.1.1, SVG Export Plug-In . SVG Version: 6.00 Build 0)  -->
<svg version="1.1" id="Capa_1" xmlns="http://www.w3.org/2000/svg" xmlns:xlink="http://www.w3.org/1999/xlink" x="0px" y="0px"
	 viewBox="0 0 200 200" enable-background="new 0 0 200 200" xml:space="preserve">
<g>
	<path fill="#1D1D1B" d="M146.7,122.5c0.2,0,0.4-0.4,0.4-0.6c-1.6-12.6-4.2-26.2-12.6-36.2c-8.4-10-21.6-14.2-34.4-14.4
		c1-1.4,0.6-3.6-0.2-4.8c-1-1.8-3-2.8-5.2-2.6c-4.4,0.4-6.6,4.8-5.6,8.6c-23,4.8-41.8,25.2-38.4,50c0,0.2,0.2,0.4,0.4,0.4
		c0,0.4,0.2,0.6,0.6,0.8c16,2.6,32.2,4.2,48.4,5c15,0.8,31.8,1.8,46.2-3.8C147.7,124.5,147.7,123.1,146.7,122.5z M94.7,66.7
		c1.2-0.2,2.2,0,3,1.2c0.6,1.2,0,2,0.2,3.2c0,0.2,0,0.2,0.2,0.4c-2,0-4,0.2-5.8,0.6C91.5,69.7,92.1,67.3,94.7,66.7z M145.7,122.3
		c-31.2,5.4-61.8,2-93.2,0c-0.4-27.2,21-48.8,48.6-47.6c13.6,0.6,26.2,6,33.6,17.8c5.6,8.8,8,19.6,11,29.6V122.3L145.7,122.3z"/>
	<path fill="#1D1D1B" d="M148.1,113.7c-1.8,0-1.8,2.6,0,2.6c6.2-0.8,7.8,2.4,4.8,10c-2.8,1.6-5.8,2.8-9,3.6
		c-4.2,1.2-8.6,1.8-12.8,2.2c-7.6,0.6-15.2,0.4-22.8,0.2c-15.8-0.4-31.6-2-47.2-1.4c-0.2-0.4-0.4-0.6-0.8-0.6
		c-3.8-1.4-8.2-1.4-12.2-2.8c-3-1-7-3-4.2-6.6c0.8-1,4.2-4.2,5.6-3.4c0.4,0.2,0.8-0.2,0.4-0.6c-1.6-1.8-4.6-0.4-6.2,0.4
		c-2.8,1.4-4.8,4.2-4.2,7.4c0.6,3.6,4,4.6,7,5.6c3.4,1.2,7.8,2.6,11.6,2.4c14,2.4,28.4,2.6,42.6,3c13.6,0.4,27.8,1.4,41-1.6
		c5.8-1.4,19.2-4.6,19-12.8C160.5,115.1,152.9,113.9,148.1,113.7z"/>
	<path fill="#1D1D1B" d="M109.3,88.1c-2.6-2.4-6.8-2.2-9.6-0.2c-2.4,1.6-3.8,4.2-4.6,7c-3.4-5.2-11.6-7.6-14.8-0.8
		c-4.2,9.4,8.8,17.8,16.4,18.2c0.2,0,0.2,0,0.4,0c0.6,0.2,1.2,0,1.8-0.6c3.8-4,8.6-8.6,11.2-13.4C111.9,94.9,112.1,90.7,109.3,88.1z
		 M107.1,95.3c-0.8,2.6-3.2,4.8-5,6.8c-2,2.2-4,4.4-5.8,6.8c-0.2,0.4-0.4,0.6-0.4,1c-4.8-1.8-9.8-5-11.6-10c-1.6-4.2,1.6-8,5.8-5.6
		c2.8,1.4,3,4.4,4.4,6.8c0.6,1.2,2.4,0.6,2.4-0.6c0-0.6,0-1.2-0.2-1.8c1-2.2,1.8-4.6,3.4-6.4C103.1,88.9,108.9,89.9,107.1,95.3z"/>
</g>
</svg>
