<?xml version="1.0" encoding="utf-8"?>
<!-- Generator: Adobe Illustrator 18.1.1, SVG Export Plug-In . SVG Version: 6.00 Build 0)  -->
<svg version="1.1" id="Capa_1" xmlns="http://www.w3.org/2000/svg" xmlns:xlink="http://www.w3.org/1999/xlink" x="0px" y="0px"
	 viewBox="0 0 200 200" enable-background="new 0 0 200 200" xml:space="preserve">
<g>
	<path fill="#1D1D1B" d="M139,100.9c-2-0.2-3.6,0.6-5,1.8c0-1.2-0.2-2.4-0.6-3.2c-1.4-2.4-3.8-1.8-5.8-0.2c-0.2-1.8-0.8-3.6-2.2-5
		c-1.2-1-2.8-1.4-4.4-1.2c6.2-9,9.8-21,6-30c2.2-0.2,4-1,4.6-3.4c0.6-1.8-0.4-3.8-2.2-4.8c-1.2-0.6-2.2-0.6-3.2-0.4
		c0.6-3,0-5.8-3-7.2c-1.6-0.6-3.2-0.2-4.4,0.8c-2.2-2.8-5.2-4.8-8.2-2.4c-2,1.6-2.4,3.4-2,5.2c-15-2-27.8,7.6-34.6,20.4
		c-1.2-0.4-2.6-0.6-4-0.8c-2-0.2-4-0.4-5.8-0.8c-1.6-0.2-1.8,1.8-1.2,2.8c1.4,1.6,3,3.6,5,5c-2.2-0.2-4.6,0.2-6.8,0.4
		c-1.4,0.2-2,2-0.8,2.8c2.6,1.8,5.6,3.2,8.6,3.8c-0.2,0.8-0.2,1.4-0.4,2.2c-3.2,20.4,4.2,43.8,26.6,48.4c3.4,0.6,6.8,0.8,10.4,0.6
		c-0.4,6.4,0.4,12.8,2.8,18.8c0.6,1.4,2.8,1,2.4-0.6c-1.2-6.2-2.6-12-3.2-18.2c15.2-2,30.4-12.2,34.2-27c0.2,0,0.4-0.2,0.6-0.4
		C145.2,105.3,142.6,101.1,139,100.9z M69.6,73.7c1,0,2.2,0.2,3.2,0.2c-0.4,1-0.8,2-1.2,2.8c-0.8-0.8-1.6-1.4-2.4-2.2
		c-0.4-0.4-0.8-0.8-1-1C68.6,73.5,69.2,73.7,69.6,73.7z M69.8,82.3c-1.2-0.6-2.4-1-3.6-1.6c1.4,0,2.8-0.2,4-0.4
		C70.2,80.9,70,81.7,69.8,82.3z M139.8,106.5c-7.2,13.2-17.4,24.2-32.6,25.8c-0.4-0.2-0.8-0.2-1,0.2c-1.4,0.2-2.8,0.2-4.2,0.2
		c-20.2-0.6-30.8-18-30.4-36.4c0.2-17.8,9-36.4,28-40.4c4.2-1,8.4-0.8,12.2,0.4c-2.2,0.8-4.2,2.4-5.8,4.6c-1,1.4,0,3.8,1.6,4
		c2,0.4,3.8,0.2,5.4-0.4c0,2.6,0.8,4.6,3.8,4.8c3.6,0.2,4.4-3.4,4.4-6.6c0.2,0,0.2,0,0.4,0c2.2,2.8,3.4,6.4,3.6,10.8
		c0.2,9-5,17-10.2,24c-0.6,1,0.8,2,1.6,1.2c0.2-0.2,0.2-0.2,0.4-0.4c0.4,0.4,1.4,0.2,1.6-0.4c1-3,4.6-2.8,6-0.2
		c1.4,2.6-0.4,4.6-1.6,6.8c-0.6,1,0.6,2.2,1.6,1.6c1.2-0.8,2.2-2,2.6-3.2c0.4-0.6,1-1,1.6-1.4c0.6-0.4,1.2-0.8,2-0.4
		c1,0.4,0.8,1,0.6,2c-0.2,1.2-0.6,2.4-1.2,3.4s-1.4,1.6-1.6,2.6c-0.2,0.8,0.4,1.2,1.2,1.2c0.6,0,1-0.4,1.6-0.8c0.2,0,0.4,0,0.6-0.2
		c1.4-1.8,4-6.2,7-4.8c1,0.4,1,1.2,1,2C140,106.5,140,106.5,139.8,106.5z"/>
	<path fill="#1D1D1B" d="M125,152.3c-1.4-2.8-3.2-5.4-4.2-8.4c-1.2-3-1.6-6.2-2-9.2c-0.2-1.4-2-1.4-2,0c-0.8,6.6,1.2,14.8,6.4,19
		C124.2,154.5,125.4,153.5,125,152.3z"/>
	<path fill="#1D1D1B" d="M68.4,54.9c-0.6-1.8-2.6-2.2-4-1c-0.8,0.8-1.2,1.8-1.4,2.8c-1-0.8-1.8-1.4-2.8-2.2c-2-1.6-5,1.4-3.4,3.4
		c1.6,2.2,3.6,4.2,6,5c1.4,1,3.6,0.8,4.2-1.2C67.8,59.7,69.2,56.9,68.4,54.9z"/>
	<path fill="#1D1D1B" d="M97.2,69.3c-3.4-1.6-7.8,1.4-7,5.2c0.2,1.2,2.2,1,2-0.2c-0.2-1.8,2.4-3.4,3.8-2.2c1.6,1.4,0.8,3.4,0.2,5
		c-0.4,1,0.6,2.6,1.8,1.8C101.2,76.5,100.6,70.9,97.2,69.3z"/>
	<path fill="#1D1D1B" d="M110.8,104.9c-1-0.6-2.2,0.6-1.6,1.6c1.2,1.8,3.6,5.2-0.4,4.8c-2.6-0.2-4.8-1.6-6.2-3.6
		c-0.2-0.4-0.8-0.4-1-0.4c-0.2-0.2-0.4-0.2-0.6-0.4c-1-0.4-1.8,0.4-1.4,1.4c0.8,1.4,4.6,6,0.8,6.6c-2.6,0.4-3.6-3.8-4.2-5.4
		c-0.4-1.4-2.6-1.6-2.8,0c-0.4,2.4-2.2,6.8-5.4,3.8c-2.4-2.2-1.2-6-0.4-8.8c0.4-1.2-1.4-1.6-1.8-0.4c-1.6,4.2-3,10.6,2.6,12.6
		c3,1.2,5.2-0.6,6.6-2.8c1.6,2.8,4.2,5.2,7.6,3.4c2-1,2.6-2.8,2.4-4.6c2.2,1.4,4.8,2.2,7,1.4c1.8-0.6,2.8-2.4,2.8-4.4
		C114.4,107.5,112.6,105.9,110.8,104.9z"/>
</g>
</svg>
