<?xml version="1.0" encoding="utf-8"?>
<!-- Generator: Adobe Illustrator 18.1.1, SVG Export Plug-In . SVG Version: 6.00 Build 0)  -->
<svg version="1.1" id="Capa_1" xmlns="http://www.w3.org/2000/svg" xmlns:xlink="http://www.w3.org/1999/xlink" x="0px" y="0px"
	 viewBox="0 0 200 200" enable-background="new 0 0 200 200" xml:space="preserve">
<g>
	<path fill="#1D1D1B" d="M155.5,117.8c-1.6-2.8-4-3.8-6.4-3.6c-0.2-1-1-2-2-2.6c-0.8-0.4-1.8-0.4-2.8-0.4c0-1.2,0-2.2-0.6-3.4
		c-1.2-2-3-2.4-4.6-2c9.8-14.4,16.6-39.2-3-46.6c-9.4-3.6-16.6-0.4-21.8,5.8v-0.2c-0.6-1.4-2.4-2-3.8-2.6c-1.6-0.6-3.2-0.8-4.8-0.6
		c-1,0-2,1.2-1.2,2c1.8,2.4,3.6,5,5.8,7.2l0,0c-4.4,8-7,18.2-7.8,26.4c0-4-0.2-7.8-0.8-11.6c-0.6-4.6-2.4-9.4-4.8-13.8
		c1-1.4,1.6-3.2,2.2-4.8c0.6-2,1-4,1.4-6c0.2-0.8-1-1.6-1.8-1.4c-2.8,1.2-5.2,2.6-7.2,4.8c-6-6-14-9.4-23.2-5.8
		c-18.2,7-14.6,29-8,43.4c-2.2-0.8-5-0.2-6.4,1.8s-1.6,4-1,6c-1.6,0-3.4,0.8-4.4,2.2c-0.8,1.2-1,2.4-0.8,3.6
		c-1.4,0.2-2.8,0.8-3.6,2.2c-0.6,0.8-0.8,2.4-0.6,3.8c-0.2,0.2-0.4,0.6-0.4,1c2.2,12.2,12.2,19.2,23.2,19.6c-0.8,4.4-1,8.8-1,13.4
		c0,1,1.8,1.4,1.8,0.2c0.6-4.6,1.2-9,1.2-13.6c1.4,0,2.8-0.2,4.4-0.4c0,0,0,0,0,0.2c0.2,3.8,0.6,7.8,1.2,11.4c0.2,1.2,2.2,1,2.2-0.2
		c-0.2-3.8-0.8-7.6-1.6-11.4v-0.2c2.2-0.6,4.2-1.2,6.2-2.4c11.4-6,17.8-17.6,20.2-30.2c1,13.6,8.4,27.6,20,32.8
		c-0.8,4.6,0.2,10.4,2,14.4c0.4,1,2,0.4,1.8-0.6c-0.2-2.4-0.6-4.8-1-7.2c-0.2-2-0.4-3.8-0.6-5.8c2.2,0.8,4.4,1.2,7,1.2
		c-0.4,4,0.2,8,2.2,11.4c0.6,1.2,2.4,0.4,2.2-0.8c-1-3.6-2-7-2.4-10.6c2.8-0.2,6-0.8,9.2-2C149.3,139.4,161.1,127.6,155.5,117.8z
		 M97.1,63.6c-0.2,1-0.6,2-0.8,3c-0.4,1-0.8,1.8-1,2.8c-0.8-1.2-1.6-2.2-2.6-3.2C94.1,65.2,95.5,64.2,97.1,63.6z M86.3,132.6
		c-13.6,12.8-32.6,9.2-40-7c0.2,0,0.4,0,0.6,0c0.4,0,0.8-0.6,0.8-1c0-1.6-1.6-2.6-1-4.2c0.4-0.8,1-1.4,2-1.8c0.8,1.2,2,2.2,3.6,2.2
		c1,0,1.4-1.6,0.6-2c-0.4-0.2-0.6-0.4-1-0.6c0.2-0.2,0-0.6-0.2-0.8c-0.2-0.2-0.6-0.4-1-0.6c-0.4-0.8-0.6-1.8,0-2.8
		c0.6-1.2,2-1.6,3.4-1.4c0.8,1.2,2,2,3.6,2.6c1.2,0.4,1.8-1.4,0.8-2c-2-1.4-4-3.8-3-6.6c1-2.8,4.6-3.6,6.2-1c0,0.2,0.2,0.2,0.2,0.2
		s0,0,0,0.2c0.6,1.2,3,0.4,2.4-1c-5.2-12.6-13.2-37.2,6-43c18.2-5.6,27.8,16,28.6,30C99.9,106,96.9,122.6,86.3,132.6z M108.3,64.6
		c0.4,0,0.8,0.2,1,0.4c1.2,0.4,2.2,1.4,3.4,1.6c0,0,0,0,0.2,0c-0.6,0.8-1.2,1.6-1.6,2.4C110.3,67.6,109.3,66,108.3,64.6z
		 M148.1,133.4c-0.2,0.4-0.2,0.8,0.2,1c-2.2,2.2-5.4,4.2-8.4,5.2c-7.2,2.4-14.8,1.2-21.2-2.6c-13.8-8.4-16.2-24-15-38.8l0,0
		c2.4-16.6,10.8-42,30-36.2c22.6,7,8,35.6-1.2,47.6c-1,1.2,1,2.8,2.2,1.6c0.8-0.8,1.6-1.8,2.4-2.8c2-1,4.4-1.4,5,1.4
		c0.4,2.8-2,4.4-3.4,6.6c-0.6,1,0.6,2.2,1.6,1.6c0.2-0.2,0.4-0.4,0.6-0.6c0.2,0,0.6-0.2,0.6-0.6l0,0c1-1,1.8-2.2,2.4-3.4
		c0.6-0.2,1-0.2,1.8-0.2c0.6,0.2,1,0.6,1.2,1.2c-1.6,0.8-3,2.4-3.8,4.6c-0.2,0.8,0.8,1.2,1.4,0.6c2.2,0.2,4.2,0.6,5.6,1.2
		c1.2,1.4,1.8,3,1.8,4.8C151.7,129.2,149.7,131,148.1,133.4z"/>
	<path fill="#1D1D1B" d="M124.9,71.6c-3.2-0.6-6.2,3-5.2,6c0.4,1,1.8,0.8,1.8-0.2c-0.2-1.6,1.2-3.8,3.2-3.2c1.6,0.6,1.8,2.4,1.8,3.8
		c-0.2,1,1.4,1.2,1.8,0.6C130.1,75.8,127.7,72,124.9,71.6z"/>
	<path fill="#1D1D1B" d="M74.9,70.2c-3.4,1.8-1.6,6.2,0.6,8c0.8,0.6,1.8-0.2,1.4-1c-0.6-1-2.6-3.8-0.8-4.8c1.8-1,3,2.4,3.4,3.4
		c0.4,0.6,1.6,0.4,1.6-0.4C80.9,72.6,78.3,68.4,74.9,70.2z"/>
	<path fill="#1D1D1B" d="M77.9,100c-1.2,0.4-0.8,1.8,0.2,2c3.2,0.4,7.2,0.4,8.2,4.2c0.4,1.2,0.2,2.8-1,3.6c-1,0.6-2.6,0.6-3.4-0.6
		c-0.6-1-2-0.2-1.8,0.8c-0.6-0.2-1.2-0.2-1.8,0c-0.8,0.2-1.2,1.6-0.2,2c1.6,0.8,3.8,1.4,3.6,3.8c-0.4,2-3,2.8-4,0.8
		c-0.2-0.8-0.6-1.6-1-2.2c-0.6-0.8-2-0.6-2,0.6c0.2,1.6,0.8,3,0.4,4.6c-0.4,2.2-2.4,3.4-4.2,1.8c-2.8-2.6-0.6-6.8,0.6-9.4
		c0.4-0.8-0.6-1.4-1.2-0.6c-1.6,2.4-3.4,5-3,8c0.2,2.2,1.6,4.2,3.8,5c3.8,1.4,6.2-1.8,6.6-5.2c1.8,1,4.6,0.4,5.8-1.6
		c1-1.6,0.8-3.6-0.2-5c2.6,0.4,5.8-1.6,6-4.6C90.1,101.8,82.9,98.4,77.9,100z"/>
	<path fill="#1D1D1B" d="M130.5,118.8c-1-0.8-2.2,0.2-1.6,1.2c0.6,1.2-0.2,3.6-1.6,3.8c-1,0.2-1.8-0.8-2-1.8c0-0.4,0-1,0-1.4
		c0-0.2,0.2-0.4,0.2-0.6c0.4-0.6-0.2-1.4-0.8-1.4c-0.2-0.2-0.2-0.4-0.4-0.6c-0.6-0.8-1.6-0.4-1.6,0.4c-0.2,1.8,0.8,6.4-2,6.4
		c-1.4,0-2.6-1.4-3-2.6c-0.6-2.2,0.4-4.4,1.2-6.4c0.2-0.4-0.2-0.8-0.4-0.8c0-0.4,0-0.8,0-1.4c-0.2-1-1.8-1-2,0
		c-0.4,1.4-0.8,5.6-3.2,3.8c-2.6-1.8-0.4-5.2,1-6.8c0.4-0.6-0.2-1.6-0.8-1c-1.8,1.4-3.4,3-3.6,5.4c-0.2,2,0.6,4,2.4,5
		c1.4,0.8,2.8,0.8,3.8,0.2c-0.2,1-0.2,2,0,3.2c0.6,2,2.4,3.8,4.4,4s3.2-0.6,4.2-2c0.8,0.8,1.8,1.4,3,1.4
		C131.1,126.6,133.5,121.4,130.5,118.8z"/>
	<path fill="#1D1D1B" d="M104.5,44.6c-0.6-1-1.8-1.4-3-1.2c-1.8,0.4-2.6,2-3,3.6c-0.6-0.6-1-1.2-1.6-1.6c-2.4-2.6-6.2,1.2-3.8,3.8
		c1.6,1.8,3.6,5.4,6.2,5.6c0.2,0,0.2,0.2,0.4,0.2c0.8,0.4,1.6-0.2,2-1c1.2-0.8,1.6-2.4,2.2-3.6C104.5,48.4,105.7,46.4,104.5,44.6z"
		/>
</g>
</svg>
