<?xml version="1.0" encoding="utf-8"?>
<!-- Generator: Adobe Illustrator 18.1.1, SVG Export Plug-In . SVG Version: 6.00 Build 0)  -->
<svg version="1.1" id="Capa_1" xmlns="http://www.w3.org/2000/svg" xmlns:xlink="http://www.w3.org/1999/xlink" x="0px" y="0px"
	 viewBox="0 0 200 200" enable-background="new 0 0 200 200" xml:space="preserve">
<g>
	<path fill="#1D1D1B" d="M144,70.1c-2.6-0.2-5.4,0-8,0.4c0.8-1.4,1.4-2.8,2-4c0.8-1.4,2.2-3.4,1.2-5c-1-1.4-2.4-0.8-3.6-0.2
		c-1.8,0.8-3.4,1.6-5.2,2.6c-6-11-16.2-18.8-29.8-13c-16.4,7-21.6,33-15.6,49.4c-2-2.4-5-4-8.2-3.2c-2.8,0.6-4.2,3-4.4,5.4
		c-1-0.6-2.2-1-3.6-0.8c-2,0.2-3.4,1.6-3.8,3.6c0,0.2,0,0.4,0,0.6c-1.4-1.2-3-2-4.8-2c-3.4,0-6.8,3.4-4.8,6.8
		c5.2,18.2,23.4,29.8,41.8,27.8c0,3.8,0.2,8-3.6,9.8c-1.2,0.6-0.4,2.4,1,2.2c5.8-1.2,5.2-7.4,4.8-12.2c1-0.2,2-0.4,3-0.6
		c1.6-0.4,3.2-1,4.8-1.4c1.8,4.6,1.6,8.6-0.2,13.2c-0.6,1.4,1.6,2.2,2.4,1c3-4.4,2.8-10.6-0.2-15c16.8-7.4,25-24.6,26.6-42.6
		c1.4,1.2,2.8,2.2,4.4,2.8c1.2,0.6,3,0,2.8-1.6c-0.4-3.4-0.8-7-1.8-10.4c-0.4-1.2-2-1.8-3-0.8c-0.8,0.8-1.6,1.8-2.4,2.6
		c0-0.2,0-0.4,0-0.6c0-1.6-0.2-3.2-0.4-4.8c1.8-0.2,3.6-1.6,5-2.8c1.8-1.4,3.2-3,4.6-4.6C145.8,71.3,144.8,70.1,144,70.1z
		 M131.8,87.9c-2-1.8-4.4-3.4-6.6-4.8c-1.4-0.8-3.4,0.6-2.8,2.2c1.4,3.8,3.6,7.2,6.2,10.2c0.6,0.8,2,0.8,2.8,0.2
		c-0.2,1-0.2,2-0.4,2.8c-3,17.4-14.4,32.4-32.2,35.4c-0.4-0.2-1-0.2-1.2,0.2c-0.6,0-1.2,0.2-1.6,0.2c-18,1.6-32.6-10-39.6-25.6
		c0.4-3.2,4.8-3.4,7-1.4c1.8,1.6,2.4,4,3.8,6.2c0.6,1,2.2,0.4,2-0.8c-0.2-1.4-0.8-3-1.8-4.4c-0.4-2.4-0.4-5,2.6-4.4s3.2,4.2,4,6.6
		c0.4,1,2,1,2-0.2c0-1.8-0.6-4-1.6-5.6c0.2-2.6,1.4-5.6,4.6-4.8c4.2,0.8,4.4,5.2,6.6,8c0.8,0.8,2.2,0.2,2.2-1c0-0.4,0-0.8-0.2-1.4
		c1,1.4,3,0,2.4-1.6c-6.6-14.4-4.6-45.4,14.6-50.4c11.8-3,19,3,23,12c-0.4,0.4-0.2,1,0.4,1C130.6,73.1,131.8,80.9,131.8,87.9
		L131.8,87.9z M131.2,65.3c0.8-0.4,1.4-0.6,2.2-1c0.8-0.2,1.6-0.6,2.2-0.8c0.6-0.2,1-0.4,1.6-0.6c-0.2,0.2-0.4,0.4-0.6,0.6
		c-0.8,2.2-2.4,4-3.6,6.2C132.4,68.1,131.8,66.7,131.2,65.3z M138.6,74.5c-1.2,0.8-2.4,1.4-3.6,2.2c-0.2-1.2-0.6-2.4-0.8-3.6
		c0-0.2,0.2-0.2,0.2-0.4c2.2-0.2,4.4-0.2,6.6,0C140.2,73.3,139.4,73.9,138.6,74.5z"/>
	<path fill="#1D1D1B" d="M116.2,65.3c-1.4-1.6-3.6-2.2-5.6-1.6c-1.8,0.6-3.2,2.4-3,4.4s1.4,3.6,3.4,3.6c0.8,0,1.2-1.2,0.4-1.6
		c-2-1-1.4-3.8,0.8-3.8c2.8-0.2,3.6,3,3.6,5.2c0,1,1.4,1.2,1.6,0.2C118,69.3,117.8,67.1,116.2,65.3z"/>
	<path fill="#1D1D1B" d="M108.6,104.7c-1.2,0.6-0.6,2.2,0.4,2.6c2.4,0.8,6,0.2,6.8,3.4c0.2,1,0.2,2.2-0.6,3c-1.4,1.2-3.8,0.4-5.4,0
		c-0.4,0-0.6,0-0.8,0.2c-0.6-0.2-1-0.2-1.6-0.2s-1,0.8-0.6,1.2c1.2,1,4.8,3,2.8,4.8c-2.4,2-4.6-1.2-4.6-3.4c-0.2-1.4-2.2-1.4-2.2,0
		c0,0.2,0,0.2,0,0.4l-0.2,0.2c-0.8,2-2.4,7.2-5.4,4.2c-2.8-2.8,0-7,1.8-9.6c0.4-0.6-0.6-1.4-1.2-0.8c-3.2,3.6-6.8,9.8-1.4,13.4
		c3.4,2.2,6.2-0.2,7.6-3.2c1.6,2.2,4.4,3.2,7.2,1.4c1.8-1.2,2.6-3.6,1.4-5.4l0,0c1.2,0.2,2.6,0.2,3.8-0.6c1.8-1,2.6-3,2.6-5
		C118.8,106.5,112.8,102.7,108.6,104.7z"/>
</g>
</svg>
