<?xml version="1.0" encoding="utf-8"?>
<!-- Generator: Adobe Illustrator 18.1.1, SVG Export Plug-In . SVG Version: 6.00 Build 0)  -->
<svg version="1.1" id="Capa_1" xmlns="http://www.w3.org/2000/svg" xmlns:xlink="http://www.w3.org/1999/xlink" x="0px" y="0px"
	 viewBox="0 0 200 200" enable-background="new 0 0 200 200" xml:space="preserve">
<g>
	<path fill="#1D1D1B" d="M135.3,68.1c-1.4-0.8-2.8-1.2-4.2-1.4c1.2-0.8,2-1.8,2.8-2.8c1.2-2.2,1-4.8-1.2-6.4
		c-1.8-1.4-4.2-1.4-6.2-0.6c-1.2,0.6-2,1.4-2.8,2.2c0-1,0-2-0.2-2.8c-0.4-2-1.4-5-3.8-5.4s-4.4,2.2-5.2,4.2
		c-0.4,0.8-0.6,1.8-0.6,2.6c-2.8-3.4-7.4-5.4-11.2-2.6c-1.8,1.4-2.8,4-1.8,6.2c0.2,0.6,0.6,1,1,1.4c-1.2,1-2.2,2.4-3,4
		c-0.6-1.2-1.4-2.4-2.4-3.6c2.6-3,2.8-11-1.6-11.8c-4.6-0.8-8.4,3.8-9.6,7.8c-0.6-4.2-3-8.4-8-7.8c-2.4,0.2-4,2-4.4,4.2
		c-0.2,0.8,0,1.8,0.2,2.6c-4.4-2.8-10.4-4.4-12,1c-1,3.2,1.4,6.8,4.4,9c-2.6,1.2-4.8,3.4-5.4,6.4c-0.4,2.4,0.6,5,3.2,5.6
		c1.6,0.4,3.6,0.2,5.6-0.4c-3,3.8-4.6,9.6,0.6,12.2c2.6,1.4,5.8,0.8,8.2-0.8c1.8-1.2,4-3.8,4.6-6.2c1,0.2,2,0.2,3.2,0.2
		c-3.6,3-6.2,7.6-4.4,12c1.4,3.6,5.8,3.8,8.8,2.6c0.8-0.2,1.6-0.6,2.4-1.2c4,7.2,5.2,16.6,5.4,26c-3-1.2-7.6-1.6-8.4,2.4
		c-0.4,2,1.4,2.8,3.2,3c0.2,0,0.4,0,0.6,0.2c-0.2,0.2-0.6,0.4-0.8,0.6c-1.2,1-3,2.2-2,4c1.4,2.6,5.2,1.2,7.4-0.4
		c-0.2,5-0.2,10-0.2,14.2c0,0.8,1,0.8,1.2,0c0.6-5,0.8-10.2,0.8-15.2c1.2,0.2,2.4,0.4,3.6,0.4c-0.2,5,0,10,1.4,14.8
		c0.2,0.8,1.6,0.8,1.6-0.2c-0.6-19.4,4.8-35.2,11.8-52.6c2.2-0.2,4-1.4,4.8-4.2c0.4-1.8,0-3.2-0.6-4.6c0.4,0.2,0.8,0.4,1,0.6
		c2.4,1.2,5.2,1.2,7.4-0.2c2.2-1.4,3-4.2,2.2-6.6c-0.2-1-0.8-2-1.4-2.8c0.6,0,1.2-0.2,2-0.2c2.2-0.4,6-1.4,6.6-4
		C140.1,71.5,137.1,69.1,135.3,68.1z M92.5,54.5c3-1,3,2.6,2.8,4.6c-0.2,0.8-0.6,1.6-0.8,2.6c-2-1.6-5-3.2-7.4-2.4
		C88.1,56.9,90.1,55.3,92.5,54.5z M78.5,73.9c-1.8,1.2-3,3.2-3,5.4c0,2.4,1.2,4,3.2,5c-1.8,2.4-3.2,5.6-6.6,5.2
		c-2.4-0.2-3-2.8-2.6-4.8c0.6-2.2,2.2-4,3.2-5.8c0.2-0.4,0.2-0.8,0-1c0.4-0.8,0.2-2-1-1.8c-1.8,0.2-3.6,0.8-5.4,1
		c-0.8,0.2-2.2,0.4-2.8-0.4c-0.4-0.6,0-1.6,0.2-2c0.8-2,2.8-3.6,4.8-4.4c1.8,0.6,3.6,0.8,5.2,0c0.8-0.4,0.6-1.6,0-2
		c-1.6-1-3.6-1.2-5.2-2.2c-1.4-0.8-4-2.8-4-4.6c-0.2-3.8,6.6-0.6,10,1.2c0.4,0.6,1,1.2,1.8,1.6c0.6,0.2,1.4,0,1.4-0.8l0,0
		c0.2-0.2,0.2-0.6,0-1c-0.2-0.2-0.2-0.4-0.4-0.6c-1-3-3.2-7.4,1.2-7.4c4.2,0,4.8,5.2,5.6,8.4c-0.2,1.6,0.2,3.4,0.6,5
		c-1-1-2.4-1.4-3.8-1.2c-1.8,0.2-3.4,1.4-3.8,3.2C76.7,71.5,77.3,72.9,78.5,73.9z M83.7,72.3c-1.2,0-2.2,0.2-3.4,0.6
		c0,0-0.2,0-0.2,0.2c0,0,0,0,0-0.2c-1.2-1.4-0.2-3.4,1.4-3.6c0.8,0,1.6,0.4,2,1.2C83.7,71.1,83.7,71.7,83.7,72.3z M91.7,127.9
		c-0.6-1,1.6-1.6,2.4-1.8c1.2,0,2.4,0.4,3.4,0.8c0,0.2,0,0.2,0,0.4c-0.6,0.4-1.4,0.8-2,1.4C94.7,128.7,92.1,128.7,91.7,127.9z
		 M93.9,133.5c1-0.8,2-1.6,3-2.6c0.2,0,0.6,0,0.8,0c0,0.4,0,0.6,0,1l0,0c-1,0.6-2,1.2-3,1.4C94.3,133.5,94.1,133.5,93.9,133.5z
		 M102.9,132.5c-1.2,0.2-2.4,0.2-3.6,0c0-0.6,0-1.2,0-1.8c0.2,0,0.4,0,0.8-0.2s0.6-0.4,0.6-0.8c0.8,0,1.8,0,2.8,0.2
		C103.1,130.9,102.9,131.7,102.9,132.5z M104.1,124.5c-1.4,0-2.8,0.2-4.2,0.4c-0.6,0-0.4,1,0.2,1c1.2,0,2.6,0,3.8,0.2
		c-0.2,1-0.4,1.8-0.6,2.8c-1,0-2.2,0.2-3.2,0.2l0,0c-0.2,0-0.2-0.2-0.4-0.2c-0.2,0-0.4,0-0.6,0l0.2-0.2c0.4-0.4,0.2-1.2-0.2-1.6
		c0.2-0.4,0.4-0.8-0.2-1.2c0,0,0,0-0.2,0c-0.2-3.6-0.6-7.2-1-11c-0.8-5.8-1.2-11.8-4.4-16.6c1-0.8,2-1.6,2.8-2.8
		c-0.8,2.4-1,5,0.2,7.2c1.4,2.6,4.4,4.6,7.4,3.8c6-1.6,5.8-8.6,3.6-13.4c2.2,1.2,5,2.4,7.6,2.8C110.7,104.9,106.3,114.5,104.1,124.5
		z M119.1,90.7c-0.6,5.8-11,0.4-13.4-0.6c0,0,0,0-0.2,0c-0.8-0.6-2.2,0.4-2,1.6c1.2,3.4,4.6,8.2,0.8,11.4c-2.2,2-4.6,0-5.6-2.2
		c-1-2.4-0.2-5.4,0.6-7.8c0.2-0.8-0.8-1.6-1.4-1.2c-0.2-0.6-1-1-1.6-0.6c-2.4,1.8-9.4,9.2-11.8,4.6c-2.2-4,2.6-8.8,6.4-11
		c0.8-0.2,1.6-0.4,2.2-0.8c1.2-0.6,0.6-2.4-0.6-2.4c-2.6,0-13.8,1.6-13.4-3c0.4-4.4,7.2-3.4,11.2-2.8c1,0.6,2.2,1.2,3.2,1.4
		c1.2,0.2,2.8-1.4,1.4-2.4c-2-1.4-4-2.6-5.4-4.6c-1-1.4-2.8-4.6-2.2-6.6c1-3,5.6,1,6.8,2.2c1.8,1.8,2.6,4,3.6,6.2
		c0.4,0.8,1.8,0.4,1.8-0.4c0-0.2,0-0.2,0-0.4c2.2-2.6,2.6-8.2,7.4-7.4c3.4,0.6,3,5.4,1.2,8.4c-0.8,0.8-1.6,1.4-2,2.2
		c0,0-0.2,0-0.2,0.2c-0.6,0.2-0.6,1.4,0.2,1.4c0.4,0.4,0.8,0.6,1.2,0.2c2.8-1.8,8.2-6.8,11.6-4.6c4.2,2.8-4.6,11.4-8.2,9.6
		c-1-0.4-1.6,0.4-1.6,1h-0.2c-1,0.2-1,1.6,0,2C112.3,85.5,119.7,85.3,119.1,90.7z M118.3,83.9c-0.6-0.4-1.2-0.6-1.8-1
		c0.4-0.2,0.8-0.4,1.2-0.6C117.7,82.7,117.9,83.3,118.3,83.9z M135.9,73.5c-0.4,0.8-4.2,1.4-5,1.6c-1.6,0.2-2.8-0.4-4.4-1
		c-1-0.4-2,0.8-1.8,1.8c0,0.4,0.2,0.6,0.4,0.8c0.2,0,0.2,0.2,0.4,0.2c0.2,0.2,0.4,0.4,0.8,0.6c1.2,1,2.4,2.2,2.8,3.8
		c0.4,1.8-0.2,3.6-2.2,3.8c-3.4,0.2-4.6-3-6.8-4.8c2.4-2.2,4.2-4.8,3.2-8.2c-1.4-5.2-6.8-4.4-11.4-2.2c0.6-2.8,0.2-5.8-1.8-7.4
		c-1.8-1.4-4.2-1.6-6.2-0.8c-0.8-0.8-1-1.8-0.6-2.8c0.8-1.6,2.8-2,4.4-1.4c3.2,1,4.2,4,6.4,6c0.6,0.6,1.6,0.2,1.6-0.6
		c0.2-0.2,0.4-0.6,0.4-1c-0.2-1.4-0.4-2.8,0-4c0.4-1,1.4-3.8,3-3.2c1,0.4,1.4,3.6,1.2,4.4c0,1.6-0.8,2.8-1,4.2
		c0.2,0.6,0.8,1.2,1.6,1.2c0.4,0.6,1.2,0.8,1.8,0.2c1.6-2.4,4.2-6.6,7.6-5c5.2,2.2-4.2,6.4-5.2,7.6c-0.8,0.8,0,2.4,1.2,2
		c0,0,0,0,0.2,0c0.2,0.2,0.6,0.4,1,0.2c1.8-0.4,3.6,0,5.2,0.6C133.5,70.3,136.5,72.1,135.9,73.5z"/>
	<path fill="#1D1D1B" d="M103.5,78.3c-1.4-1.2-3.6-1.2-5-0.2c-0.2-0.2-0.6-0.4-1,0c-2,1.8-3.8,5-1.8,7.6c2,2.4,6,2,8,0
		C105.7,83.7,105.9,80.3,103.5,78.3z M101.7,84.1c-1.2,1-3.6,1.6-4.6,0c-0.6-1-0.2-2.4,0.4-3.6c0.2,0.2,0.6,0.2,1,0
		c1-1.2,2.8-1.6,3.8-0.2C103.3,81.5,102.9,83.1,101.7,84.1z"/>
</g>
</svg>
