<?xml version="1.0" encoding="utf-8"?>
<!-- Generator: Adobe Illustrator 18.1.1, SVG Export Plug-In . SVG Version: 6.00 Build 0)  -->
<svg version="1.1" id="Capa_1" xmlns="http://www.w3.org/2000/svg" xmlns:xlink="http://www.w3.org/1999/xlink" x="0px" y="0px"
	 viewBox="0 0 200 200" enable-background="new 0 0 200 200" xml:space="preserve">
<g>
	<path fill="#1D1D1B" d="M120.6,81.5c0.6-0.4,1-0.8,1.4-1.4c1.6-2.4,0.6-5.4-1.6-6.6c1.8-1.4,3.2-3.2,1.4-5.4c-1.8-2-4.2-1-6,0.4
		c0.8-2.6,0.4-5.6-2.4-6.6c-0.2,0-0.4-0.2-0.6-0.2c0.2-0.4,0.2-0.8,0.2-1c0.2-1.6-0.2-3.2-1.6-4c-1.6-1.2-3.6-0.8-5,0.4
		c-0.4-1.6-1.6-3-3-3.4c-2.2-0.6-4.4,0.8-5.2,2.8c-1.4-1.2-3.4-1.6-5.2,0c-0.8,0.6-1.2,1.8-1,2.8c-0.6-0.2-1.4-0.2-2.2,0
		c-1.6,0.6-2,1.8-2,3.4c-1.6-1.2-3.6-1.6-5.2,0c-2,2.2-0.8,4.4,1.2,5.8c-1.6,1-2.6,3-2,5c0.2,0.6,0.6,1.2,1,1.6
		c-2.6,0.4-5.2,2.2-5,5.4c0.2,1.6,1.2,2.8,2.4,3.4c-1.2,1.4-1.8,3.2-0.2,4.8c1,0.8,2,1,3,0.6c0,0.8,0.4,1.6,0.8,2.2
		c1,1,2.4,1,3.4,0.6c0.2,0.8,0.6,1.6,1.4,2.2c1.2,0.8,3.6,1,3.8-0.8c0-0.2,0-0.4-0.2-0.6c0.2,0,0.4,0,0.6,0
		c-0.6,1.6-0.8,3.2,0.8,4.4c1.8,1.2,3.4,0.2,4.6-1.4c0.2,1.6,2,3.2,4,3c2.6-0.4,3.4-2.6,3-4.6c0.4,0,0.8,0.2,1.2,0.2
		c0.6,2.4,4,3.4,6.2,2.2c1.6-1,2.2-2.4,2.2-4.2c0.8,0.2,1.6,0,2.2-0.2c1.8-1,2-2.8,1.4-4.4c1.4,0,2.8-0.8,3.4-2.4
		C122.6,84.1,122,82.5,120.6,81.5z M95.4,58.3c1.2-0.6,2.6,0.4,3.2,1.6c0.4,1.2,2.4,0.6,2-0.6c-0.6-2,1.4-4.8,3.4-3
		c1.2,1.2,0.6,2.4,0.6,3.8c0,0.6,0.6,0.8,1,0.6c0.2-0.2,0.6-0.4,0.6-0.6c0.4,0,0.6-0.2,0.8-0.6c0.2-1.6,2.6-2.6,3.8-1.2
		c0.6,0.6,0.8,1.6,0.6,2.6c-0.2,0.8-0.8,1.2-1.2,1.8c-0.6,0.4-1.2,1.2-1.4,2c-1.2-0.8-2.8-1-4.2-0.2c-1.8,0.8-2.6,2.6-2.4,4.2
		c-0.2-0.2-0.6-0.4-0.8-0.4h-0.2c1.2-2,0.6-5-1.4-6.4c-1.2-0.8-2.4-1-3.6-0.6c0,0,0-0.2-0.2-0.2C94.8,60.3,94.2,58.9,95.4,58.3z
		 M100,79.9c1.2,1.6,4,2.8,3.2,5.2c-1.2,3.6-6.2,1-5.4-2.4v-0.2l0,0l0,0c0-0.8-1.2-1.2-1.6-0.4c-1.8,2.8-5,0.6-3.2-2.2
		c0.4-0.6-0.4-1.4-1-1c-0.2-0.2-0.4-0.2-0.8-0.2c-1,0.2-2.6-0.2-2.8-1.4c-0.2-1.4,1.4-2.4,2.6-1.8c1,0.6,2-0.8,1.2-1.6
		c-1-0.8,0.2-2.2,1.2-2.2s1.8,0.6,2.4,1.4c0.2,0.4,0.4,0.8,0.6,1c0.6,0.8,1.6,0,1.6-0.8c-0.2-1.6,0.8-4.6,3-3.2c1.2,0.8,1.4,3,0.2,4
		c-1,0.6-0.4,2.2,0.8,1.8c1.4-0.2,4.6-1.6,4.4,1.2c-0.2,2.8-3.8,2-5.4,1.2c-0.4-0.2-0.8,0.2-0.8,0.6C100,79.1,99.8,79.5,100,79.9z
		 M86,63.5c0.8,0.2,1.6,0.6,2.2,1.2c0.2,0.6,0.4,1.2,0.6,1.8c0.2,0.4,0.8,0.6,1,0.4c0.4,0.4,1.2-0.2,0.8-0.8
		c-0.2-0.2-0.4-0.4-0.4-0.6c-0.2-0.8-0.4-2-0.2-2.6c0-0.2,0-0.4,0.2-0.4c0.8,0,1.6,0.2,2.6,0.2c0.2,0.2,0.4,0.6,0.4,1.2
		c-0.2,0.6-0.2,1.4,0.2,2.4c0.4,1,2,1,2-0.2c-0.2-2.4,2-4.4,4-2.4c2,2,0.4,3.6-1,5.2c-1,0.4-1.8,1.4-2.2,2.4c-1.2-1-2.8-1.6-4.4-0.6
		c-1.2,0.6-1.8,2-1.8,3.2c-0.8,0-1.6,0.4-2.2,0.8c-1,0-2.2-0.2-2.8-0.8c-1.4-1.4,0-3.4,1.8-3.2c1,0,1-1.4,0.2-1.6s-2-0.6-2.6-1.4
		C83.4,65.9,83.6,63.3,86,63.5z M88,88.5c-0.2,1-1.4,2.4-2.4,1.4c-0.8-0.8-0.2-2,0.4-2.8c0.2-0.2,0.2-0.6,0-0.8c0-0.4,0.2-0.6,0.2-1
		c0-0.6-0.8-0.8-1.2-0.4c-1,1-0.6,1.4-2.4,1.2c-1.6,0.2-1.8-0.2-0.4-1.2c0.4-0.4,1-0.8,1.6-1c1.2-0.8,0.2-2.4-1-1.8
		c-2.8,1.2-2.2-2.8-1.2-3.8s2.4-1.4,3.6-1.8l0,0c0.4,0,0.8,0,1.2,0c0,0.2,0,0.2,0,0.4c0,2.2,2,4,4,3.8c-0.6,1.6-0.2,3.6,1.4,4.6l0,0
		c-1,0.6-1.8,1.6-2.2,2.4C89.2,87.5,88.2,87.5,88,88.5z M91.8,92.9c-0.6,0.4-1.4,0.8-2,0c-0.4-0.6-0.4-1.4-0.2-2.2v-0.2
		c0.2,0.4,0.2,0.8,0.6,1C90.6,92.3,91.2,92.7,91.8,92.9L91.8,92.9z M109.6,91.7c-0.2,0.6-0.8,0.8-1.2,1c-0.4-0.2-0.8-0.2-1.2,0
		c-1.2-0.2-2.4-0.6-3.2-1c-1-0.4-2.2,0.8-1.2,1.6c3.2,3-3.4,5.4-2.4,1c0-0.4-0.4-0.8-0.8-0.6v-0.2c0-0.4-0.6-0.8-0.8-0.4
		c-0.4,0.4-0.6,1-0.8,1.4c-0.6,1.6-2,1.8-4,0.8c-0.4-0.8,0-1.8,0.4-2.6c0.8-0.4,1.4-1,1.8-2c0.2-0.8-1-1.2-1.4-0.6c-1.4,2-3,0-3-1.4
		c0-1.2,0.8-2.2,1.6-3c1,0.2,2.2-0.2,3-0.8c1,2.8,3.8,4.8,6.8,2.8c2.8-1.8,2.4-5.2,0.4-7.4c1.4,0.2,2.8-0.2,3.6-1
		c-0.4,0.4-0.4,1-0.6,1.6c-0.4,0.6-1,1-1.2,1.6c-0.4,0.8,0.2,1.6,1,1.4c0.4,0,0.6-0.2,0.8-0.2c0.6,1,1.8,1.8,3,2
		c0.2,0.4,0.4,0.8,0,1.4s-1.2,0.6-1.8,0.6c-0.4-0.2-0.8-0.2-1.2-0.2H107c-0.2,0-0.4,0-0.4,0c-0.4,0-1,0-1.4,0.2c-0.6,0.2-0.4,1,0,1
		C106.6,88.9,110.8,89.3,109.6,91.7z M119.4,85.7c-0.8,0.6-1.8,0.4-2.6,0c-1.2-0.4-1.8,1.4-0.8,2c1.2,0.6,1.8,2.8,0.2,3.4
		c-0.6,0.2-1.2-0.2-1.4-0.6c-0.2-0.4-0.2-0.8-0.6-1.2c-0.2-0.4-0.8-0.2-1,0c-0.4,0-0.6,0.2-0.8,0.6c-0.4,1,0,1.8,0.6,2.2
		c-0.2,1-0.6,2-1.4,2.4c-0.6,0.2-1.2,0.2-1.6,0c0.8-0.4,1.4-1.2,1.6-2.2c0.4-1.2,0-2.2-0.6-3c0.6-0.2,1-0.6,1.4-1
		c0.4-0.6,0.6-1.6,0.4-2.4c2-0.6,3-2.2,3.4-3.8c0.6,0.4,1.4,0.6,2.2,0.6c0.2,0.4,0.4,0.6,0.8,0.6C120.6,83.1,120.4,85.1,119.4,85.7z
		 M117.6,80.1c-0.8-0.6-1.4-1.2-1.6-2c0-0.2-0.2-0.2-0.4-0.4c0,0,0,0,0-0.2c-0.4-0.8-1.8-0.2-1.6,0.6c0,0.2,0,0.4,0.2,0.6v0.2
		c0.2,1.6-0.2,3.4-2,3.8s-2.2-1.2-2-2.6l0,0c0-1-1.4-1.8-2.2-1c0.2-0.4,0.4-1,0.6-1.6c0.4-3-2.2-4-4.6-4c0.2-0.8,0.2-1.6,0-2.4
		c0.2-0.2,0.4-0.4,0.4-0.8c-1-3,3-5,4.6-2.2c0.6,1.2,2.2,0.4,2-0.8l0,0v-0.2l0,0c-1-2.4,2.6-3.8,3.6-1.2c0.8,1.6-0.2,3-1.2,4.4
		c-0.6,0.8,0.6,1.6,1.4,1c0,0,0,0,0.2-0.2c0.2,0.2,0.6,0.2,0.8,0c0.6-0.4,2.2-2.2,3-2c0.4,1.2,0.8,2.2,1.2,3.4
		c-0.6,0.4-1.4,0.8-2.2,0.8c-1,0.2-0.8,2,0.2,2c1.6-0.2,3.4,0.6,3.6,2.6C120.8,80.1,119.6,80.7,117.6,80.1z"/>
	<path fill="#1D1D1B" d="M130.6,80.9c-1.8-4,3.6-8.4,2.2-13c-1-3.2-3.2-4.2-6.2-5.2c-1.2-0.4-3-0.4-3.4-2.2c0,0,0.6-2,0.6-2.2
		c0-1-0.2-2-1-2.8c-1.8-2-5.8-2-9-2c0-0.4-0.2-0.6-0.6-0.8c-4.8-2-6.8-9.6-12.8-5.2c-2.8,2-4,2.4-7.8,2c-0.8-0.2-1.8-0.6-2.8-0.4
		c-3.6,0.6-5.4,8.4-9,7.2c-0.2,0-0.2,0-0.4,0c-2.2-0.8-5,0.2-6.2,2.4c-0.8,1.6-0.4,3,0,4.6c0.6,2.4,1,4.6,0.8,7
		c-0.2,0-0.2,0.2-0.4,0.2c-2.8,5.2-13,11.6-3.8,16.4c2.8,1.4,3,3,3.6,6c0.2,1.2,0.2,2.2,0.8,3.2c3,4.2,9.2,0.6,13.2,3
		c0,0.2,0,0.2,0.2,0.4c2.2,4.6,5,8.4,10.4,6.8c5-1.4,4.4-3.6,10.6-1.8c2.4,0.8,3.4,1.6,5.8,1c-4.4,9-7.4,18.8-9,28.6
		c-3.8-1.6-8.4-1.8-12.4-1c0-13.2-5.4-26-15.4-35c-0.2-0.2-0.6,0.2-0.4,0.4c7.6,9.6,12,20,12.8,31c-0.8-0.8-1.6-1.6-2.8-2.2
		c-1.6-0.8-4.4-2-5.2,0.4c-0.8,2,0.8,3.8,2.2,5c0.2,0,0.2,0.2,0.4,0.2c-2.2,0.4-4,1.6-4.8,4.2c-0.2,0.8,0.4,1.6,1.2,1.6
		c3,0.2,6.2,0,9-1.6c0,0,0,0,0.2,0c-0.2,3.8-0.8,7.6-1.8,11.6c-0.2,0.6,0.2,1,0.6,1c0.2,0.4,0.6,0.6,1,0.4c1.2-0.6,2.2-1.4,3.4-2.2
		c0.2,1.4,0.6,3,1.2,4.4c0.2,0.4,0.6,0.6,1,0.4c2.6-1,5-3.2,4.8-6.2c0-0.6-1-1-1.2-0.4c-0.8,1.8-1.6,3.4-3.4,4.4
		c-0.6-1.4-0.8-2.8-0.8-4.4c0-0.8-0.8-1-1.4-0.6c-0.8,0.8-1.8,1.6-2.8,2.2c1.6-4.6,2.4-9.2,2.4-14l0,0c4.4-0.6,8.2,0.2,12.2,1.6
		c0,0.6-0.2,1.2-0.2,1.6l-0.2-0.2c-3.6-1.4-7.6-1.2-11.4-0.6c-0.6,0-0.2,0.8,0.2,0.8c3.8-0.6,7.2,0,10.8,0.8c0.2,0,0.2,0,0.4,0
		c-0.6,4.4-0.8,8.8-0.8,13.2c-0.4-0.4-0.6-0.6-0.8-1c-0.8-1-1.4-2.2-2-3.4c-0.2-0.6-1.2-0.4-1.2,0.4c0.4,2.4,1.6,5.8,4,6.8
		c0.8,0.4,1.8-0.4,1.2-1.2l-0.2-0.2c2-18.4,6.6-34.2,13.8-50.6c0.2-0.2,0.4-0.4,0.4-0.8c0.4-0.6,0.4-1.2,0.6-1.8
		c0.8-1.8,1.8-3.8,2.6-5.6c0.8-0.4,1.8-0.2,3.4-1.2c4.2-2.4,3.6-6.8,3.2-11C130.8,81.9,130.8,81.5,130.6,80.9z M85.4,129.7
		c0-0.6-0.2-0.4,0.4-0.6c0.4-0.2,0.8,0,1.4,0.2c0.8,0.2,1.4,0.6,2,1.2c1,0.6,1.6,1.4,2.4,2.4c0,0.4,0,0.6,0,1
		c-0.4-0.2-1-0.2-1.4-0.4s-1-0.4-1.4-0.6C87.4,132.3,85.6,131.1,85.4,129.7z M84.6,136.9c1-1,2.8-1.4,4.4-1.4c0.4,0.2,1,0.4,1.4,0.6
		C88.4,136.5,86.4,136.7,84.6,136.9z M127,76.1c-0.8,2.4-0.8,4.2,0.6,5.8c0,1.2,0,2.2-0.2,3.6c-1.4,7-2.2,3.8-5.6,5.8
		c-0.8,0.4-1.6,1-2.2,1.8c-3.4,4.6,2,4-5,7c-5.4,2.4-3.4,0.8-7.4,0.4c-0.8,0-1.6,0.2-2.6,0.4c-1.8,0.4-3.2,2-4.8,2.6
		c-5.4,1.4-6.4-1.8-8.8-4.4c-1-2.2-2.8-3.4-5.4-4c-2.4-0.4-4.6,0.4-6.4-1.4c-1.6-1.6-0.8-3.6-1.8-5.6c-1.4-2.6-4.6-2.2-5.8-4
		c-1.2-1.6,0.6-5.8,1.6-7.2c0.6-0.8,1.6-1.4,2.2-2.4c0.4-0.6,0.6-1,0.8-1.4c0.4,0,0.6-0.2,0.8-0.6c0.8-2.4,1.2-5,0.8-7.6
		c-0.2-1.8-1-3,0-4.6c1-1.2,1.8-1.2,3-1.6c1.8,0.8,3.2,0.4,5-1c2.6-2.2,1.4-4.6,6.8-4.6c1.2,0,2.2,1.2,3.8,1.2
		c3.4-0.2,5.8-5.8,9.4-4c2,1,2.8,3.2,4.6,4.4c0,0.4,0,1,0.6,1.2c2,0.6,4.8,0.4,6.6,1.2c2.6,1.2,1.4,2,1.4,4c0,2.2,0.4,3.8,2.6,4.8
		c0.4,0.2,1,0.2,1.6,0.4c1.8,0.8,5.6,2,6.2,4.2C130,71.9,127.4,74.7,127,76.1z"/>
</g>
</svg>
