<?xml version="1.0" encoding="utf-8"?>
<!-- Generator: Adobe Illustrator 18.1.1, SVG Export Plug-In . SVG Version: 6.00 Build 0)  -->
<svg version="1.1" id="Capa_1" xmlns="http://www.w3.org/2000/svg" xmlns:xlink="http://www.w3.org/1999/xlink" x="0px" y="0px"
	 viewBox="0 0 200 200" enable-background="new 0 0 200 200" xml:space="preserve">
<g>
	<path fill="#1D1D1B" d="M155.5,101.3c3-1.2,5.4-3.8,5.8-7.4c0.4-4.6-3.2-6.8-7-7.8c3.2-4.4,4.2-10.2-2.4-12.6
		c-6.6-2.2-13.8,3.2-18.2,8.4c0-1-0.2-1.8-0.2-2.6c-0.6-6-2-9.6-8.6-10.6c-12.6-2-26.8-0.4-39.6-0.4c-7.2,0-16.4-1.2-18.6,7.4
		c-0.2,0.8,0,1.2,0.4,1.6c0,1.2-0.2,2.4-0.2,3.8c-4.6-6.4-13.2-13.6-20.6-10.2c-6.8,3-3.6,11.6,1.2,16.2c-3,0-5.8,1.6-6.4,5.2
		c-0.6,2.8,0.6,5.2,2.6,6.6c-3.4,2-6.2,5.2-4.6,9.4c1,2.4,3.2,3.8,5.6,4c-2.6,1.8-5,4.2-5,7.6c0,3.8,3.2,6.4,6.8,7
		c6.8,1.2,15.2-4.2,20-10.2c0,0.2,0,0.4,0,0.4c1,6.6,3.4,7.6,10,8.4c13.4,1.4,27.2-0.8,40.4-2c6-0.6,12.4,0,15.4-4.8
		c2.6,6.8,10.6,16.6,17.8,12.6c5.4-3,4.8-10,1.6-15c3.8-0.2,7.4-1.8,8.4-6.2C160.7,106.3,158.7,103.1,155.5,101.3z M65.9,90.9
		c-3.2-1.2-5.8-3.2-7.8-6c-0.6-0.8-1.8,0-1.2,0.8c2.2,3.4,5.2,6,9,7.2c-0.2,2-0.2,4.2-0.4,6.2c-3.8,0.4-7.6,1.2-11.4,1.8
		c-0.6,0-0.4,1.2,0.2,1c3.8-0.4,7.4-0.8,11.2-1.2c0,1.6,0,3.2,0,4.6c-5,1.6-9.6,5-12.6,9.4c-0.4,0.6,0.4,1.2,0.8,0.6
		c3.6-3.6,7.4-6.4,11.8-8.2c0,1.6,0,3,0.2,4.6c-2.8,3-5.6,6-9.4,8.2c-3,1.8-5.6,3-9,2.6c-2.4,0.6-3.4-0.4-3-2.8
		c-1-1.4-1-2.6,0.2-3.6c0.8-1.2,2-2.4,3-3.4c0.2-0.2,0.2-0.6,0.2-0.8c0.6-0.2,1-0.6,1.6-1c1-0.8-0.2-2.4-1.2-2.2
		c-2.4,0.4-7.2,0.2-5.2-4.4c0.8-2,4-3,5.8-3.8c2-0.8,1.8-3.6-0.6-3.6c-2.4-0.2-4.6-3-3.2-5.4c1.2-1.8,3.4-2,5.4-2.2
		c0.6,0.4,1.4,0.6,2,0.8c1.6,0.4,2.6-1.8,1.2-2.8c-2.8-1.8-5-4-6.4-7.2c-0.8-1.8-0.8-4.8,1.2-6.2c1-0.6,3.6,0.2,4.6,0.4
		c5.6,1.6,10.2,5.8,13.4,10.6C66.3,87.1,66.1,89.1,65.9,90.9z M130.1,102.9c-0.2,6.8,1,10-5.2,13.8c-7.4,4.6-17.4,4.2-26,5
		c-6.6,0.6-14.6,2-21.2,0.8c-7.2-1.4-8.4-4.4-8.2-10.4c0-3.8,0-7.4,0-11.2c0-7.6,0-15.2-0.6-23c0.4-0.2,0.8-0.6,1-1.2
		c2.4-6.6,23.4-4,28.8-4c7.2,0,16.4-1.4,23.4,0.2c6,1.2,6.8,2.2,7.2,8.2c0.2,3.6,0.4,7.2,0.6,10.8
		C130.3,95.5,130.3,99.3,130.1,102.9z M154.3,111.7c-2.2,1.6-5.8,0.8-8.4,0.4c-2-0.2-2.8,3-1,3.8c3,1.4,4.4,4.4,4.4,7.4
		c0.2,5.8-6.2,4-9,1.2s-4.8-6-7.2-9c0,0,0,0-0.2,0c0.2-0.8,0.4-1.4,0.4-2.2c1.4,1.6,2.6,3.2,3.8,5c0.4,0.4,1.2,0.2,1-0.4
		c-1-2.4-2.6-4.4-4.6-6c0.4-2.2,0.6-4.4,0.6-6.6c3.2,1.4,6.4,2,9.8,2c1,0,1-1.6,0-1.6c-3.4-0.2-6.6-0.8-9.8-2c0-2.2,0-4.6,0-6.8
		c0,0,0,0,0.2,0c3.6,0,7.4-0.2,10.8-1.2c1-0.2,0.6-1.8-0.4-1.6c-3.4,0.4-7,1.2-10.4,1.4h-0.2c0-2-0.2-4-0.4-6
		c3.8-0.2,8.2-1.4,10.8-4.2c0.8-0.8-0.2-2-1.2-1.6c-1.6,1-3,2-4.6,2.8s-3.4,1.2-5,1.6c0-1-0.2-2.2-0.2-3.2c2.8-3.2,6.2-6,10.2-7.4
		c2.2-0.8,6.4-2,8.2,0.4c2.6,3.2-1,6.2-3.2,8.2c-1.4,1.2-0.2,3.2,1.4,3.4c1.2,0,2.4,0.4,3.6,0.6c2.6,0.4,3.2,1.6,2.2,3.8
		c-0.4,3.8-2.8,4.2-6.4,4.2c-2.2,0-2.8,3.4-0.6,3.8c0.4,0,1,0.2,1.4,0.2C154.7,103.7,159.1,108.5,154.3,111.7z"/>
	<path fill="#1D1D1B" d="M113.5,82.1c-3.6-2.8-7.8,1-10.2,3.8c-1.6,1.8-2.6,3.8-3.4,5.8c-4.4-5.4-10.8-10.4-14.8-4.2
		c-2.2,3.6,1.2,8,3.4,10.6c3.2,3.4,7.2,5.6,11.8,6.2c0.2,0,0.4,0,0.6,0c1,1,2.4,1.2,3.8,0.4C110.3,101.1,122.1,88.5,113.5,82.1z"/>
</g>
</svg>
