<?xml version="1.0" encoding="utf-8"?>
<!-- Generator: Adobe Illustrator 18.1.1, SVG Export Plug-In . SVG Version: 6.00 Build 0)  -->
<svg version="1.1" id="Capa_1" xmlns="http://www.w3.org/2000/svg" xmlns:xlink="http://www.w3.org/1999/xlink" x="0px" y="0px"
	 viewBox="0 0 200 200" enable-background="new 0 0 200 200" xml:space="preserve">
<g>
	<path fill="#1D1D1B" d="M138.9,108.2c1.8-19.2-15.8-33.4-33.8-35.6c5.2-4,13-12,8-16.8c-5.6-5.2-10.8,1.4-13.6,7.6
		c-3.4-6.4-9.2-13.8-13.8-7.6c-4.8,6.6,2.8,13.8,9.2,16.8c-20.2,2.8-35.2,21-34.2,41.4c-6.2-0.8-12.4,3.4-16.2,8.2
		c-2.8,3.8-7.4,12.2-3.4,16.4c0.4,0.4,1.2,0,1.2-0.4c4.8,0.2,9.6,0.6,14.4,0.4c-0.8,3.2-0.4,6.6,1.6,9.6c5,7.4,15.2,8,21.8,2.8
		c3-2.4,5.2-5.8,6-9.2c3.6,0.4,7,0.2,10.6,0.4c3.4,0,7,0.6,10.4,0.4c0,1.6,0.4,3.4,1,4.8c4,9.8,16,12.4,25,8.4
		c6.6-3,9.2-7.8,9.2-12.6c2.4,0,4.8-0.2,7.2-0.2c2.6,0,5.4,0.2,8-0.4c1.2-0.4,1.4-1.6,1-2.4c0.4-0.2,0.6-0.4,0.8-0.8
		C164.1,125.6,153.9,108.6,138.9,108.2z M78.3,148c-4.6,3.8-11.2,4-15.6-0.4s-3.4-11,0.8-15c0.2,0,0.6,0,0.8-0.2
		c4.2-3,9.2-3.8,13.8-1.2C85.1,135.4,83.9,143.4,78.3,148z M130.1,152c-6.6,2.4-14.8,0.4-17.4-6.6c-1.8-4.8,0-9.6,3.2-13.2
		c0.2,0.2,0.6,0.2,1,0c5.8-2,12-3.2,17,1.6c2.2,2.2,4.2,5.4,4.2,8.6C138.1,147.4,134.3,150.4,130.1,152z M156.5,138.6
		c0,0.2,0,0.4,0,0.6c-4.4-0.8-10,0.2-14.4,1c-2.2-10.2-15.2-19.2-26-11.2c-4.6,1.8-7.6,5.8-8.4,10.4c-6.4-1.6-14.6-1-21,1
		c0.4-3.4-0.4-6.8-3.2-9.6c-5.4-5.4-15.8-6.6-20.6,0v0.2c-2.4,1.2-4,3-5,5.4c-5-0.4-10.4,0.2-15.4,0.4c-0.6-4.8,3-10.6,6-13.8
		c3.8-4.4,8.4-5.4,14-6.4c1-0.2,1.2-1.6,0.4-2.2v-0.2c0.8-18.8,14-37,33.8-38.4c20.2-1.4,37.4,12.4,39.4,32.8l0,0
		c-0.8,0.8-0.8,2.2,0.6,2.4c6,1.2,11.8,3,15.8,7.8C156.7,124.6,157.7,131.8,156.5,138.6z"/>
	<path fill="#1D1D1B" d="M71.9,136.6c-0.6,0.8-1.2,1.6-1.8,2.4c0,0,0,0-0.2-0.2c-0.4-0.6-1-1-1.4-1.6c-2.6-2.4-6.4,1.4-3.8,3.8
		c1.4,1.8,3.6,4.8,6.4,4.2c1.2-0.4,2-1.2,2.8-2.2s1.8-2,2.4-3.2C77.9,137.4,74.1,134.4,71.9,136.6z"/>
	<path fill="#1D1D1B" d="M125.3,137.6c-0.2,0.2-0.2,0.6-0.4,0.8l-0.2-0.2c-0.4-0.6-1-1.4-1.8-1.4c-1.2-0.2-2,0-3,0.8
		c-0.8,0.6-1,2-0.8,3c0.8,2.8,2.8,5.2,5.4,6.8c1.2,0.8,3.4,0.4,4-1c1-0.6,1.6-1.6,1.4-3.2l0,0c0.4-1,0.6-2,0.8-3.2
		C131.5,136.6,127.3,134.6,125.3,137.6z"/>
	<path fill="#1D1D1B" d="M96.7,87.4c0-0.6,0-1,0-1.6c0-1-1.6-1.2-1.8-0.2c-0.2,0.6-0.2,1-0.2,1.6c-11.2,0.2-25.4,9-25.4,21
		c-0.4,0.6-0.6,1.6,0.2,2.4c5.6,5.6,16.4,6.4,23,2c1,0.6,2.4,0,2.6-1.4c0.6-7.2,1.4-14.4,1.6-21.6C97.3,89,97.3,88,96.7,87.4z
		 M91.9,110.2c-3.2,0.6-6.4,1.2-9.8,0.8c-3.8-0.4-6.8-2-10-3.6c1.2-5.4,4.8-9.4,9.6-12.2c4-2.2,8.4-3,12.4-4.6
		C93.1,97.2,92.5,103.8,91.9,110.2z"/>
	<path fill="#1D1D1B" d="M107.3,85.8c-0.4,0-0.6,0-1,0.2c-0.4-0.6-1.8-0.8-1.8,0.2c-1.4,8.6-2,17.4-2.6,26c0,1.2,1,2,2,2
		c7.6,0.4,15.2,0,22.8-0.6c1-0.2,1.8-0.8,2-1.6c0.8,0.4,2-0.2,1.8-1.4C128.7,98.8,118.7,87.8,107.3,85.8z M105.9,110
		c0-6.8,0.4-13.8,0.4-20.6c9.6,4.4,16.4,10.2,20.8,19.8c-0.2,0-0.2,0-0.4,0C119.7,110,112.9,110,105.9,110z"/>
	<path fill="#1D1D1B" d="M82.9,69.6c-2,0-3.8,0.4-5.8,1c-1,0.4-0.8,1.8,0.2,1.8c2,0,3.8-0.4,5.8-1.2C83.9,71,83.9,69.6,82.9,69.6z"
		/>
	<path fill="#1D1D1B" d="M79.1,62c-1.2,0.2-2.4,0.2-3.4,0c-1.2-0.2-2,1.2-0.8,2c1.6,0.8,3.2,0.8,4.8,0.2
		C80.9,63.6,80.5,61.6,79.1,62z"/>
	<path fill="#1D1D1B" d="M84.3,53.8c-0.8-1.6-1.6-3-2.6-4.2c-0.8-1-2.2,0.2-1.6,1.2c0.8,1.6,1.8,2.8,2.8,4.2
		C83.5,56,84.9,54.8,84.3,53.8z"/>
	<path fill="#1D1D1B" d="M93.1,43c-0.4-0.8-1.6-1-1.8,0c-0.4,1.6-0.2,3,0.2,4.6c0.2,1.2,2,0.8,2-0.2C93.3,45.8,93.5,44.4,93.1,43z"
		/>
	<path fill="#1D1D1B" d="M102.9,44c-0.6,1.6-0.8,3.2-0.8,4.8c-0.2,1,1.6,1.2,1.8,0.2c0.4-1.6,0.8-3.2,0.8-4.8
		C104.7,43.2,103.1,43,102.9,44z"/>
	<path fill="#1D1D1B" d="M114.1,43.4c-1,1-1.6,2.2-2.2,3.2c-0.8,1.2,1,2.6,2,1.4c0.8-1,1.8-2,2.4-3.2
		C116.7,43.6,115.1,42.2,114.1,43.4z"/>
	<path fill="#1D1D1B" d="M125.1,51.2c-1.6,0-3.2,0.6-4.8,1c-1.4,0.4-0.8,2.6,0.6,2.2c1.6-0.4,3.4-0.6,4.8-1.4
		C126.5,52.6,126.1,51.2,125.1,51.2z"/>
	<path fill="#1D1D1B" d="M125.9,62.8c-1.8-1.4-4-1.8-6-2.4c-1.6-0.4-2.2,2-0.6,2.6c2,0.8,3.8,1.8,6,1.8
		C125.9,64.6,126.7,63.4,125.9,62.8z"/>
</g>
</svg>
