<?xml version="1.0" encoding="utf-8"?>
<!-- Generator: Adobe Illustrator 18.1.1, SVG Export Plug-In . SVG Version: 6.00 Build 0)  -->
<svg version="1.1" id="Capa_1" xmlns="http://www.w3.org/2000/svg" xmlns:xlink="http://www.w3.org/1999/xlink" x="0px" y="0px"
	 viewBox="0 0 200 200" enable-background="new 0 0 200 200" xml:space="preserve">
<g>
	<path fill="#1D1D1B" d="M144.8,68.4c-0.2-6,0.8-14.8-5.2-18.4c-6.6-3.6-20.2-2.8-27.4-2.8c-7.6,0-20-1.2-27,2.6
		C79.6,53,81.6,61,81.8,66.2c0,0.2,0,0.2,0,0.4c-5.8-0.4-17-1.8-21.4,2c-4.8,4.2-3.2,15.6-3.6,21.2c-0.8,11.4-1.2,22.8-1.4,34.2
		c-0.2,6.6-2.8,18.8,1.2,24.6c3.6,5.2,12.2,4.4,17.4,4.2c11-0.2,22.2,0.4,33-0.6c6.2-0.6,7.4-2,8-8.2c0.8-12,0-24.4,0-36.6
		c0-1.2-0.4-2-1-2.6c3-1.8,6.2-4.6,6.6-7.8c6,0.6,18.2,2.2,22.2-2.6C147.2,89.2,145,74.8,144.8,68.4z M99,92.2
		c-1.4,4.6-3.6,8-7,11.6c-2.2,2.2-0.6,5.6,2.4,5.8c2.4,0.2,5,0.2,7.4-0.2c-0.8,6-1,12-1.2,18c-9-0.6-18-0.2-27,0.4
		c-0.6-7.2-0.8-14.4-0.8-21.6c0-3-0.8-8.2,0.2-11c2.2-5.4,5.8-4.6,10-5.2c0.2,0.6,0.4,1.2,0.8,1.6C87.4,95.8,94,93.8,99,92.2z
		 M108,140.2c-1.2,4.8-2.4,4-6.2,4.8c-6.6,1.4-15.2,0.2-22,0.4c-5.8,0.2-16,2.4-17.2-4.6c-1.2-6.4,0.2-14.4,0.2-21
		c0.2-7,0.4-14,0.8-21c0.4-5.8-0.8-15.4,1.4-21c2.6-6.2,11-5.4,17-6c0,1.8,0.2,3.6,0.2,5.2c-2,0-4.2,0.6-5.6,1.4
		c-1,0.6-1.4,1.8-1,2.8c0.4,1.2,1.6,1.6,2.8,1.4c1-0.2,1.8-0.2,2.8-0.2c0.4,0,0.8,0,1.2,0c0,1.4,0,3,0.2,4.6
		c-5-0.8-11.2-1.8-12.4,4.2c-2.4,12-0.8,26,0,38c0,1,0.8,2,1.8,1.8c10.2-0.8,20.4-0.4,30.6-0.2c1,0,2-0.8,2-2
		c-0.2-6.8-0.2-13.6-1-20.4c1.6-0.2,3-0.6,4.6-1.2c0,7.6,0,15,0,22.6C108,133.6,108.8,137.4,108,140.2z M137.8,86.8
		c-2.8,6-12.2,4-17.6,3.8c-1.8,0-3,1.2-3.2,2.6c-0.6,0.2-1,0.6-1.2,1c-3.4,5-8.8,8.2-14.6,9c1.8-3.4,2.8-7.2,2.8-11
		c0-1.2-0.8-2-1.6-2.2c-0.2-0.2-0.4-0.4-0.8-0.6c-5.4-0.4-11.8,1-13.6-4.8c-1.4-4.4-0.4-11.6-0.4-16.4c0-2.2-1-7-0.2-9.2
		c1.2-4,4.2-4.2,8.4-5c5.4-0.8,11.2-0.6,16.6-0.6c5.8,0.2,14-0.4,19.4,1.6c3.8,1.4,5,1.4,6.2,6.2c0.8,2.8,0.4,6.2,0.4,9.2
		C138.4,74.6,139.8,82.8,137.8,86.8z"/>
	<path fill="#1D1D1B" d="M89.6,137.4c-0.6-2.4-3.8-4.2-5.8-2.2c-0.2,0.2-0.4,0.4-0.4,0.6c-0.4,0.2-0.8,0.6-1.2,1
		c-1.6,2.6,0.8,5.4,3.4,5.6C88.4,142.4,90.4,140,89.6,137.4z"/>
	<path fill="#1D1D1B" d="M122.6,62.6c-5-2.4-8.8,2.4-11,7.2c-4-4.8-10-10-14-4.6c-5.4,7.2,8.8,14.2,13.8,15.2c0.4,0,0.8,0,1,0
		c1,0.6,2.4,0.8,3.8-0.4C119.6,77,130.2,66.2,122.6,62.6z"/>
</g>
</svg>
