<?xml version="1.0" encoding="utf-8"?>
<!-- Generator: Adobe Illustrator 18.1.1, SVG Export Plug-In . SVG Version: 6.00 Build 0)  -->
<svg version="1.1" id="Capa_1" xmlns="http://www.w3.org/2000/svg" xmlns:xlink="http://www.w3.org/1999/xlink" x="0px" y="0px"
	 viewBox="0 0 200 200" enable-background="new 0 0 200 200" xml:space="preserve">
<g>
	<path fill="#1D1D1B" d="M158.7,142.9c-1.6,0-3.2,0.6-4.8,1.4c-7.6-10.4-15.4-20.8-22.8-31.4c7.2-3.6,6.8-13.2,4.6-20.6
		c-4.6-16-11.4-32.6-20.2-46.6c-0.4-0.6-0.8-0.6-1.2-0.6c-0.2,0-0.2-0.2-0.4-0.2c-7-0.8-15.2,5-19.6,9.8c0,0,0,0,0,0.2l0,0
		c-0.2,0-0.2,0-0.2,0c-0.6,0-1.2,0.4-1,1c0,0.2,0.2,0.6,0.2,0.8c-5.2-4-13-5.8-19.2-6c0,0,0,0-0.2,0c-0.2-0.6-1-0.8-1.2-0.2
		c-5,11.4-8.6,23.4-12.4,35.2c-2.8,8.6-7.2,17.6-3.2,26.2c0.2,0.4,0.6,0.4,0.8,0.2c1,2,2.6,3.8,4.2,5.2c-6,9.2-10.8,19.4-16,29.2
		c-2-1-5-2.4-6.6-1c-0.2,0.2-0.4,0.6-0.2,0.8c0.6,1.8,3.6,2.6,5.2,3.8c1,0.8,2,1.8,3,2.8c0.8,1,1.4,2,2.8,2.2
		c1.4,0.2,2.2-0.4,2.4-1.8c0.2-2-1.8-3.8-3.8-5c5.8-9,11.6-19.2,14.8-29.6c3.6,2.2,8,2.6,12,0.2c0.2-0.2,0.4-0.2,0.4-0.4
		c5.6-3.4,8.8-9.6,11.8-15.4c4.6-9,8.2-18.4,10.6-28.2c3,8.8,6.6,17.6,10.6,25.8c4,8,10.2,17.4,20.4,12.8
		c6.4,11.2,13.6,22.2,21.8,32.2c-1.4,1.2-2.6,2.4-3.6,3.8c-1.2,1.6,1.4,3.4,2.8,2c1.2-1.2,2.6-2,4.2-2.8c1.6-0.8,3.2-1,4.6-1.6
		C161.5,146.5,161.5,142.7,158.7,142.9z M105.1,50.1c2.8-1.2,5.8-1.8,8.6-3c0,0.2,0.2,0.2,0.2,0.4c-3.2,4.6-10,6.2-15.8,7
		C100.1,52.7,102.5,51.1,105.1,50.1z M94.1,60.5c0.2,0.8,0.4,1.6,0.6,2.4c-3.6-1.2-7.4-1.8-10.8-3.6c-3.6-1.8-6.6-4.4-9.2-7.4
		c3.8,0.6,7.4,1.6,11,3.2C88.7,56.7,91.3,58.9,94.1,60.5z M96.7,71.5c-3.8,15-9.4,34.4-21.2,45.4c-0.2,0-0.4-0.2-0.8,0
		c-3.8,0.6-7.2,1.2-10.8-0.8c-3-1.6-5-4-6.2-7c-0.8-10,4.4-20.6,7.4-29.8c2.8-8.8,6-17.4,8.4-26.2c4.4,6.4,13.4,13.4,21.6,11.6
		c0.6,2.2,1.2,4.2,1.8,6.4C96.9,70.9,96.7,71.1,96.7,71.5z M127.7,111.9c-13.4,2-20.2-21.2-23.6-29.8c-3-7.2-5.4-14.4-7.8-21.8
		c0-0.2,0-0.6-0.2-0.8l0,0c-0.4-1-0.6-2-1-3c5.2,0.4,17.2-0.8,20.2-6.2C122.5,64.9,144.1,104.7,127.7,111.9z"/>
	<path fill="#1D1D1B" d="M122.3,71.9c-0.4-0.6-1.2-0.4-1.6,0c-2.2,0.8-4,2.8-6,3.8c-2.6,1.6-5.4,2.6-8.2,3.2
		c-0.6,0.2-0.8,0.4-0.8,0.8c-0.2,0.2-0.2,0.4-0.2,0.6c2,6.8,10.8,34.8,22.4,26c0.2-0.2,0.2-0.2,0.2-0.4
		C136.5,98.7,126.3,79.1,122.3,71.9z M125.5,105.7c-9.4,0.4-15.2-16.4-18.2-24.4l0,0c3.2-0.4,6.2-1.4,9-3c1.6-1,3.8-2.4,5-4
		C124.7,82.5,133.1,99.5,125.5,105.7z"/>
	<path fill="#1D1D1B" d="M90.5,81.5c-6.4-2.2-12.2-4.4-18.2-7.8c-0.2,0-0.2-0.2-0.4-0.2c0,0,0,0,0-0.2c0.2-0.4-0.6-0.8-0.8-0.4
		c-3.6,7-20.4,38.4-4.2,40.6c8.4,7.6,22.8-24,23.4-29.6c0-0.2,0-0.2,0-0.2C91.5,83.3,91.7,81.9,90.5,81.5z M69.9,111.7
		c-0.2-0.2-0.4-0.4-0.6-0.4c-12.2-3.6-1.2-26,2.2-36l0,0c4.8,3.8,11,6.8,17.2,8.2l0,0C85.7,88.1,78.1,110.7,69.9,111.7z"/>
	<path fill="#1D1D1B" d="M74.3,84.9c-0.2,0.2-1.2,0.8-1.4,0.4c-0.2-0.2,0-1,0.4-0.8c0.6,0.2,1.6-0.6,0.8-1.2c-1.6-1.4-4,0.6-3.4,2.4
		c0.8,2.2,3.8,1.8,4.8,0.2C76.3,85.1,75.1,84.1,74.3,84.9z"/>
	<path fill="#1D1D1B" d="M77.5,83.9c-1.4,0-1.4,2,0,2c1,0,2,0.8,2,2c-0.2,1.2-1.2,1.4-2,2s-0.6,1.6,0.2,2c2.2,0.8,4.2-2,4.2-4
		C81.9,85.5,79.7,83.7,77.5,83.9z"/>
	<path fill="#1D1D1B" d="M73.9,94.1c-0.4,0.4-1.2,0-1.4-0.4c-0.6-1,0.4-2.4,1-3.2c0.4-0.6-0.6-1.4-1-0.8c-1.4,1.4-2.8,3.6-1.4,5.6
		c1,1.4,3.2,1.6,4.4,0.2C75.7,94.7,74.7,93.5,73.9,94.1z"/>
	<path fill="#1D1D1B" d="M115.3,83.5c-0.2,0.4-1.2,1.6-1.8,1.2c-0.4-0.2-0.4-1,0-1.2s0.2-0.8-0.2-0.8c-1.8,0-2.2,2.4-1,3.6
		c1.8,2,4.8,0,4.8-2.2C116.9,83.1,115.7,82.9,115.3,83.5z"/>
	<path fill="#1D1D1B" d="M120.1,80.7c-1-0.6-2.4-0.4-2.6,0.8c-0.2,1,0.2,1.8,1.2,2c0.2,0,0.4,0,0.6-0.2c0,0.2,0,0.4,0,0.6
		c0,0.6-0.4,1.2-0.8,1.8c-0.4,0.6,0.2,1.4,0.8,1.2C121.7,86.1,122.1,82.1,120.1,80.7z"/>
	<path fill="#1D1D1B" d="M120.7,90.1c-0.6,0.4-1.4,2.2-2.4,1.8c-0.4-0.2-1-1.2-0.4-1.4c0.8-0.4,0.6-1.6-0.4-1.4
		c-2.2,0.2-2.2,3.4-1,4.6c2,2,6.2,0,6.2-2.8C122.7,89.9,121.5,89.5,120.7,90.1z"/>
</g>
</svg>
