<?xml version="1.0" encoding="utf-8"?>
<!-- Generator: Adobe Illustrator 18.1.1, SVG Export Plug-In . SVG Version: 6.00 Build 0)  -->
<svg version="1.1" id="Capa_1" xmlns="http://www.w3.org/2000/svg" xmlns:xlink="http://www.w3.org/1999/xlink" x="0px" y="0px"
	 viewBox="0 0 200 200" enable-background="new 0 0 200 200" xml:space="preserve">
<g>
	<path fill="#1D1D1B" d="M102.3,62c-0.4,0-0.8,0.2-1,0.6c-19.6-2.8-36.8,12.6-39.2,32c-2.6,20.4,12,40,32.4,43
		c19.6,3,40.2-10.6,43.2-30.6C140.9,86.6,125.1,60,102.3,62z M133.7,109.8c-4.6,17.2-24.2,28-41.2,24c-16.8-3.8-28.6-19.2-28-36.4
		c0.8-20,17.6-33.6,36.8-33.8c0.2,0.2,0.4,0.4,1,0.4C123.7,64.8,139.1,89.8,133.7,109.8z"/>
	<path fill="#1D1D1B" d="M102.3,71.6c-0.4,0-0.6,0-0.8,0.2c-33.6-5-38,53.4-4.2,59C134.9,137,136.1,73,102.3,71.6z M93.3,126
		c-11.2-4.2-17.6-15.6-16.8-27.4c0.4-6,3-12.8,7-17.2c4.8-5.2,10.8-6.6,17.4-7.2c0.2,0.4,0.6,0.6,1.2,0.8
		c15.4,1.4,22,19.6,20.8,33.2C121.9,122.4,106.9,131.2,93.3,126z"/>
</g>
</svg>
