<?xml version="1.0" encoding="utf-8"?>
<!-- Generator: Adobe Illustrator 18.1.1, SVG Export Plug-In . SVG Version: 6.00 Build 0)  -->
<svg version="1.1" id="Capa_1" xmlns="http://www.w3.org/2000/svg" xmlns:xlink="http://www.w3.org/1999/xlink" x="0px" y="0px"
	 viewBox="0 0 200 200" enable-background="new 0 0 200 200" xml:space="preserve">
<g>
	<path fill="#1D1D1B" d="M152.2,96.4c-1.2-10.8-13.8-13.6-22-9c3-11.2-2-23.6-13.2-28.2c-9-3.8-20.4-0.2-24.6,8.6
		c-2.2-2.6-5.8-4.2-9.2-3.2c-3.2,1-5.4,4.2-5,7.4C72,69.2,64,71,59.8,76.4c-3.2,4.2-4,12-0.4,16.4c-8.6,3.2-14.4,13-10.4,22
		c3.4,7.6,12.6,9.6,19.2,5.6c-2.6,8.4,2.2,17.2,10.6,20.4c8.8,3.2,19.6-0.6,24.2-8.6c4.8,9.2,16.6,12.6,26,8
		c7.8-3.8,14.4-15.2,6.8-21.8C146.8,119.2,153.2,106.2,152.2,96.4z M133.2,118.6c7.2,8.4-1.8,18.2-10.4,19.8
		c-4.2,0.8-8.6,0-12.4-2.2c-0.4-0.2-7.4-5-6.2-6.6c0.2-0.2,0-0.4-0.2-0.6c-0.4-0.8-1.6-1.2-2.2-0.6c-5,5.6-10.2,10.8-18.4,9.4
		c-9.8-1.4-14.8-10.2-12.6-19.6V118c0.4-0.4,0.6-0.6,1-1c0.6-0.8-0.6-1.6-1.2-1.2c-7,3.8-17,5.6-19.2-5C50,103.2,55.4,98,61,94
		c0.2,0.2,0.4,0.4,0.8,0.4c0.8,0.4,1.8-0.4,1.4-1.4c0-0.2-0.2-0.4-0.2-0.4c0.2-0.4,0-0.8-0.6-0.8c-2.6-4.6-3.6-9.4,0-14
		c4-5.2,10.6-5.4,16.6-4.2c0,0.2,0.2,0.2,0.2,0.4c0.8,1.2,2.6,0.4,2.2-1c-0.8-2.8,1.4-5.6,4.2-5.8c2.4-0.2,4.4,1.2,6,3
		c0,0,0,0,0,0.2c-0.2,0.8,0.6,1.4,1.2,1c0.6,0.6,2-0.2,1.6-1c0-0.2-0.2-0.4-0.4-0.6c4.8-7.4,13.6-11.2,22-7.6
		c10.6,4.6,14.2,16.4,12,27c-0.2,0.8,0.6,1.2,1.2,1c0.2,0,0.6,0,1,0c8.6-3.6,19.8-1.6,18.4,10c-0.8,7.4-4.8,16-13.4,15.6
		c-0.6,0-1,0.6-1.2,1.2C133.2,117,132.8,118,133.2,118.6z"/>
	<path fill="#1D1D1B" d="M114.8,88.4c-6-8.4-15,0-19.4,6.8C89.8,90.6,79.8,85,77.8,95c-1.8,9.2,10,16.4,18,16.8
		c0.8,0.6,1.8,1,2.8,0.8C106.4,111.2,120.8,97,114.8,88.4z"/>
</g>
</svg>
