<?xml version="1.0" encoding="utf-8"?>
<!-- Generator: Adobe Illustrator 18.1.1, SVG Export Plug-In . SVG Version: 6.00 Build 0)  -->
<svg version="1.1" id="Capa_1" xmlns="http://www.w3.org/2000/svg" xmlns:xlink="http://www.w3.org/1999/xlink" x="0px" y="0px"
	 viewBox="0 0 200 200" enable-background="new 0 0 200 200" xml:space="preserve">
<g>
	<path fill="#1D1D1B" d="M151.3,56.7c-5.4-6.4-18.6-5-24.4,1c0.6-3-1-6.4-4-7.8c-4-1.8-8.2,0-10.4,3.4c-1-4-3.4-8.2-8-8.6
		c-3-0.2-7.4,2.2-8.6,5.4c-2.2-3-7.2-3-10.6-1.6c-3,1.4-5.4,4.8-5,8c-1.8-1.6-4.2-2.2-6.6-1.2s-4.2,3.4-4.4,6
		c-5.4-3.2-12.8-3.8-18,0.4c-4.6,3.6-4.2,10.8,0.4,14c-4,2.2-7.2,6.6-4.2,11.2c2.6,4,7.6,3,11.4,0.6c-1.2,5.8,0,12.4,6.8,14
		c6.2,1.4,12-2.8,14.4-8.4c1.2,2.8,3.6,5.2,6.8,5.6c3.2,0.6,7-1,9-3.6c1.2,5.2,10.8,6.8,15.4,6.2c5.8-0.8,11.6-6,11.2-11.6
		c5.6,2.4,12.6,2.8,16.8-2.6c2.2-3,2.2-7.4,0-10.2C148.7,78.1,158.3,65.3,151.3,56.7z M147.7,69.1c-2.4,4-6.4,5.4-10.6,4.8
		c-0.6,0-1,0.4-1.2,0.8c-0.4-0.2-0.8-0.2-1.2-0.4c-1-0.2-2,1.4-0.8,1.8c4.6,2,4.4,7.6,0.6,10.2c-4,2.8-8.8,1.6-13,0.2
		c-0.2-0.4-0.6-1-0.8-1.4c-0.8-1-2.6-0.4-2.2,0.8c1.6,4.8-0.8,9.6-5.6,11.4c-2,0.8-4.4,0.8-6.6,0.6c-2.6-0.2-9.8-1.4-8.4-6.2
		c0.4-1-1-1.6-1.6-1.2c-0.4-0.4-1.2-0.4-1.6,0.2c-1.8,2.6-3.6,5.2-7.2,5.2c-3.4,0-6-2.8-6.6-6.2c0-0.2,0.2-0.4,0.2-0.8
		c0.2-1.2-1.4-2.2-2.2-0.8c-2.6,4.6-5.4,10.4-11.8,9.8c-6.6-0.6-6.8-7.8-5.8-13c0.2-0.2,0.4-0.4,0.6-0.6c0.6-0.8-0.2-2.2-1.2-1.6
		c-0.2,0.2-0.4,0.2-0.6,0.4c-0.2,0-0.2,0.2-0.4,0.2c-2.8,1.8-7.6,4.6-9.8,1.4s1-6.6,3.6-8.6h0.2c1,0.4,1.8-1,1-1.8
		c-2-1.8-3.8-3.4-3.8-6.2c0-3.2,2.4-4.8,5.2-5.8c4.4-1.4,9.4-0.8,13.6,1.2c0,0.2,0.2,0.4,0.2,0.6c0.4,0.6,1.6,0.4,1.4-0.4
		c0.4-0.4,0.4-0.8,0-1.2l0,0c0-2,0.6-4,2.8-5.2c2.6-1.2,5.8,0.2,7,2.6c0.2,0.4,1,0.4,1.2,0c0.6,0.2,1.4-0.6,1-1.2
		c-4.8-7.6,9.2-13.2,12.2-6.2c0,0.2,0.2,0.2,0.2,0.2v0.2c0.4,1,1.8,1.4,2.4,0.4c1.2-2.8,2.4-6,6-5.8c4,0.2,5.8,4.8,6.8,8
		c0,0,0,0.2,0.2,0.2c-0.2,1,1.2,1.6,1.8,0.6c1.4-3,4.2-5.6,7.8-5c3.8,0.6,5.6,5.2,2.8,8c-0.8,0.8,0.4,2,1.2,1.2l0,0
		c0.2,0.6,1.2,1.2,1.8,0.4c4.4-4.6,12.8-8,19.2-4.8C150.3,59.3,150.1,65.3,147.7,69.1z"/>
	<path fill="#1D1D1B" d="M82.5,104.3c-1.2-0.6-2.8-0.2-3.8,0.8c-0.4,0.4-0.8,1-1,1.4c-2.2-1-5,1.8-3.4,3.8c0.8,1.2,1.8,2.4,2.6,3.4
		c0.6,0.8,1.8,1,2.8,1c1.2-0.2,1.8-0.8,2.4-1.6c1.2-1.6,2.2-3.8,2.4-5.6C84.7,106.1,83.5,104.9,82.5,104.3z"/>
	<path fill="#1D1D1B" d="M132.7,98.7c-1.4-0.8-3.8-0.4-4.6,1.2c0,0.2-0.2,0.4-0.2,0.6c-0.8-0.4-1.4-1-2.4-1.2
		c-2.6-0.8-4,2.4-2.4,4.2c0.8,0.8,2.6,2,2.8,3c0.6,2.6,4.8,3.4,6,0.8c0.6-1.4,1.4-2.6,2-4C134.7,101.5,134.5,99.7,132.7,98.7z"/>
	<path fill="#1D1D1B" d="M114.1,112.7c-0.8-1-2-1.8-3.4-1.4s-2.2,1.6-2.8,2.8c-0.6-0.4-1.2-1-1.8-1.4c-2-1.2-3.8,1.2-3,3
		c0.8,1.6,2,3,3.2,4.6c0.4,1.4,1.4,2.4,2.8,2.6c1.8,0.2,3-0.8,3.6-2.4C113.7,118.3,115.7,114.9,114.1,112.7z"/>
	<path fill="#1D1D1B" d="M89.7,125.1c-0.8,0.6-1.2,1.6-1.6,2.4c-0.2-0.2-0.4-0.4-0.8-0.6c-1.8-1.6-4.8,0.4-3.4,2.6
		c0.4,0.6,0.8,1.4,1.2,2c0.2,0.2,0.4,0.6,0.6,0.8c0,0.2,0.6,1.2,0.4,0.6c0.2,1.4,1,2.8,2.4,3.2s3-0.2,3.6-1.4c0.6-1,1-2.2,1.6-3.2
		c0.6-1.2,1.4-2.6,1.4-4C94.9,124.3,91.7,123.5,89.7,125.1z"/>
	<path fill="#1D1D1B" d="M129.3,128.5c-2-0.6-3.6,0.6-4.2,2.4l0,0c0-0.2-0.2-0.2-0.2-0.4c-0.8-1.2-2.2-1.8-3.4-1.2
		c-1.2,0.4-2.2,2-1.6,3.2c1,2.4,2.4,5,4.4,6.8s4.8,1,5.6-1.4c0.6-1.8,1.4-3.4,1.8-5.2C132.3,130.9,130.9,128.9,129.3,128.5z"/>
	<path fill="#1D1D1B" d="M108.9,142.7c-1.8-0.6-3.4,0.6-4.2,2.4c0,0.2-0.2,0.4-0.2,0.6c-0.4-0.6-0.8-1-1.2-1.6
		c-1.4-1.8-4.2,0.2-3.8,2.2c0.4,1.2,1,2.6,1.6,3.6s1.4,2,1.8,3c0.8,3,5.6,3.4,6.4,0c0.4-2,1-4,1.8-6
		C111.9,145.1,110.5,143.3,108.9,142.7z"/>
</g>
</svg>
