<?xml version="1.0" encoding="utf-8"?>
<!-- Generator: Adobe Illustrator 18.1.1, SVG Export Plug-In . SVG Version: 6.00 Build 0)  -->
<svg version="1.1" id="Capa_1" xmlns="http://www.w3.org/2000/svg" xmlns:xlink="http://www.w3.org/1999/xlink" x="0px" y="0px"
	 viewBox="0 0 200 200" enable-background="new 0 0 200 200" xml:space="preserve">
<g>
	<path fill="#1D1D1B" d="M131,99.1c0.6-1.4,1-3,1.4-4.4c3,2.6,7,3.8,10.8,0.8c5-3.8,6.2-12.2,5.8-18c-0.2-5.2-1.6-12.6-7-14.6
		c-3.4-1.2-6.8,0-9.4,2c-6.4-6.6-21.2-5.6-29.4-5.8c-13.6,0-27.4,2-40.2,6.8c-0.6,0.2-0.8,0.6-0.6,1.2c-0.2,0-0.4-0.2-0.6-0.2
		c-0.6-0.2-1.2,0.4-1,1c-0.2,0-0.4,0.2-0.4,0.4c-2.4,11.6-1.8,25,5.6,34.6c-10.4,2.4-19.4,12-14.2,23.2c7.4,15.4,33.2,15,47.4,14.8
		c15.6-0.2,39.2-3.6,48-18.6C154.6,109.9,144.4,98.1,131,99.1z M132.2,74.9c0.8-0.6,2-1,3-0.8c1.8,0.4,3,2.2,3.2,4
		c0.2,1.6,0.4,4.2-1.4,5c-1.4,0.6-2.6-0.6-4-0.8C132.8,79.9,132.6,77.5,132.2,74.9z M143.2,70.9c1.2,2.2,1.2,5.4,1.2,7.8
		c0,6.8-2,16.4-11.4,11.8c0.2-1.6,0.2-3.4,0.2-5.2c1.6,1,4,1,5.4,0.4c2.8-1.4,3.2-5.4,2.4-8.2c-0.6-2.6-2.6-5.2-5.4-5.4
		c-1.4-0.2-2.8,0.2-3.8,1c-0.2-0.8-0.4-1.6-0.4-2.4C135.2,66.9,139.4,64.1,143.2,70.9z M95.6,62.5c9.2-0.4,25.2-1.6,33.6,4.2
		c-0.2,0-0.4,0-0.4,0.2c-0.2-0.4-0.6-0.6-1.2-0.4c-22.2,7-41.6,8.2-63.8,1.2C74.4,65.1,84.8,63.1,95.6,62.5z M128.6,68.5L128.6,68.5
		c0,0.4,0,0.8,0.2,1.2c-0.2,0.4,0,0.8,0.2,1c1,8.8,2.2,18-0.8,26.6c-4.2,12.2-16.2,17.6-28.2,17.4c-9.8-0.2-19.8-3.4-27.4-9.6
		c-11.6-9.6-10-22.6-11-36.2C81.6,78.9,108.8,79.7,128.6,68.5z M100,122.1c-4.2,0.2-8.6-0.2-12.8-1c-1-0.2-2.2-0.4-3.2-0.6
		c-4.8-0.4-7.4-3.4-8.2-9c7.2,4.2,15.8,6.4,24,6.4c8.4,0,17.2-2.2,23.6-7.6C129,117.9,103,122.1,100,122.1z M144.6,121.1
		c-3.6,6-11.2,9.6-17.4,12c-9.4,3.6-19.6,4.8-29.8,4.8c-9.8,0-20.8-0.6-30-3.6c-8.4-2.8-17.8-10.4-12.4-20.6c2.4-4.6,7.2-7.4,12-9.2
		c0.4,0.4,0.6,0.8,1,1.2c1.6,1.6,3.4,3,5.4,4.4c-2.2,1.6-2.8,4.6-1,7.6c4,7,19.4,7.2,26.2,7.2c7.8,0,21.2-1.2,26.8-7.6
		c2.4-2.8,3.4-6.6-0.2-8.4c0.8-0.8,1.6-1.6,2.2-2.6c1.2-1.8,2.4-3.6,3.2-5.4C141,101.5,151.6,109.7,144.6,121.1z"/>
	<path fill="#1D1D1B" d="M97.4,87.9c-0.8,1.6-1.6,3-2.6,4.2c-1-1-2-2-2.8-2.6c-3.4-2.8-8,1.6-5,5c2.2,2.4,4.4,5,7.2,6.6
		c1.4,0.6,2.8,0,3.4-1c3.2-1.4,5-6.2,6.2-9.2C105.4,86.9,99.2,84.3,97.4,87.9z"/>
</g>
</svg>
