<?xml version="1.0" encoding="utf-8"?>
<!-- Generator: Adobe Illustrator 18.1.1, SVG Export Plug-In . SVG Version: 6.00 Build 0)  -->
<svg version="1.1" id="Capa_1" xmlns="http://www.w3.org/2000/svg" xmlns:xlink="http://www.w3.org/1999/xlink" x="0px" y="0px"
	 viewBox="0 0 200 200" enable-background="new 0 0 200 200" xml:space="preserve">
<g>
	<path fill="#1D1D1B" d="M150.6,78.3c-1.8-1.4-3.8-1-5.8,0c-0.2-0.2-0.2-0.6-0.4-0.8c-1-2-3.4-3-5.4-2c-4.4,2.4,0.2,9.6,2.8,11.6
		c0,0,0.2,0,0.2,0.2c-0.8,2.4-1.8,4.6-3.4,6.8c-0.4,0.6-1,1.2-1.6,1.8c-2.8-2.2-6-3.8-9.6-4.8c5.4-3.6,5.8-11.8,2.8-17.4
		c-2.4-4.6-6.4-7.4-11-8.8c2.6-5,6.8-8.8,11.8-12.2c0,0.2,0.2,0.4,0.4,0.6c3.2,3.6,10.4,4.2,11.8-1.6c0.6-2.2-0.8-4.4-2.8-5.2
		c-0.8-0.2-1.8-0.4-2.6-0.4c1-2.8,1-5.8-2.2-6.4c-4.6-1-6.8,6.4-5.6,9.8c0,0.2,0.4,0.6,0.6,0.6c-6,2.4-10.6,7.8-13.2,14
		c-1.2-0.2-2.4-0.4-3.6-0.6c0.2-0.6,0.2-1.2-0.2-1.8c-5.4-6-5.4-13.8,0.2-19.6c0.8-0.8,0.4-2.8-1-2.6c-19.6,2.6-34.6,19-32.6,39.2
		c0.2,1,1.6,1.2,1.6,0c0.2-17,10.8-31.4,27.2-35.2c-4,6.4-3.4,14.2,1.8,20.2c-1.2,0-2.4,0.2-3.4,0.4c-1.2,0.2-0.8,2,0.2,2
		c2.8,0.2,5.8,0.4,8.6,1.2c-0.4,1.6-0.8,3.2-1,4.8c-0.2,0.8,1.2,1,1.4,0.2c0.4-1.6,0.8-3,1.4-4.4c2.8,1,5.4,2.4,7.6,4.8
		c5,5.6,4,12.4-0.4,17.6c-4-1-8.2-1.6-11.8-1.6c-1.2,0-1.2,1.8,0,2c6.4,0.8,15.8,2.6,21.6,7.2c-1.6,1.2-3.4,2.4-5.2,3.2
		c-0.6,0.4-0.2,1.4,0.6,1.2c2-0.6,4.2-1.8,6-3.2c2.6,2.6,4.2,6,3.8,10.4c-1,13-20.2,13.6-29.2,14.4c-4.2,0.4-8.2,0.4-12.4,0.4
		c-0.4-0.6-1.2-0.6-1.6,0c-3.8,0-7.6,0-11.4-0.2s-8,0-11.8-0.4c-1,0-1.8,0-2.8-0.2c-0.2-0.6-0.8-0.6-1.2-0.2
		c-5.4-1.4-7.6-6.2-6.4-14.2c2.4-3.4,5.4-5.4,9.2-5.8c0.4,0,0.4-0.8-0.2-0.8c-2.2-0.2-4.2,0-6,0.8c0-0.2,0-0.2,0-0.4
		c-1-4.6,0-8.4,2.2-11.6c3.4,3,7.4,5.2,11.8,6.8c1.2,0.4,1.6-1.2,0.8-2c-3.4-2.6-6.8-5-9.8-7.8c1.8-1.6,4-3,6.6-4
		c6.8-2.8,13.2-2.2,20.2-1c1,0.2,2-1.4,0.8-2c-8.4-3.8-21.8-1.8-29.6,4.8c-0.6-0.6-1-1.2-1.4-1.8c-3-4-3.8-8.6-5.8-13
		c1.2-1.2,2.4-2.8,3-4.2c1.2-2.2,1.6-5.2-0.4-7c-2.2-1.8-5-1-6.8,1c-0.6,0.8-1.2,1.6-1.6,2.6c-0.8-0.6-1.8-1-2.6-1.4
		c-2.6-0.8-5.6,0.6-6,3.6c-0.4,5.2,6.2,7.4,10.6,7c0,4.8,3,10,6,13.6c0.8,1,1.6,1.8,2.4,2.6C64,92.9,63,97.7,65,103.3
		c0,0.2,0.2,0.4,0.4,0.6c-5.6,3.2-8,10.8-3.6,17c2,3,5,4.4,8.2,5.2c1,6,2.2,12,4,18c1.2,3.6,2.2,9.8,5.2,12.6c5,5,17.2,3.6,23.4,3.6
		c7.2,0,15.6,1.4,20.4-4.8c6.8-9,10.4-22.2,12.8-33.2c0,0,0,0,0-0.2c4.2-2.2,7.4-5.8,8-11.4c0.6-5.8-1.2-10.2-4.6-13.4
		c2.8-2.6,5-5.8,6-9.4c0.2,0,0.2,0,0.4,0c2-0.6,4.8-2,6-3.6C152.6,82.3,152.4,79.7,150.6,78.3z M77.2,144.7
		c-2.8-5.6-4-12.4-5.6-18.4c2,0.2,4,0.4,6,0.4c1.2,9.2,4,18.6,7.6,27.2C82.2,152.1,79.4,149.3,77.2,144.7z M87.2,154.7
		c-2.6-9.2-5-18.6-7.6-27.8c2.6,0.2,5.2,0.2,7.6,0.2c-0.4,9.4,2.2,20,5,29C90.4,155.7,88.8,155.3,87.2,154.7z M93.6,156.1
		L93.6,156.1c-1.6-9.6-2.4-19.8-4.8-29.2c2.6,0,5,0,7.6,0.2c0,9.6,1,19.8,2.6,29.2C97.2,156.5,95.4,156.3,93.6,156.1z M107,127.3
		c-1,9.4-0.6,19.4-0.8,29.2c-0.8,0-1.6,0-2.2,0c-1.4,0-2.6,0-3.8,0c0.4-9.6-0.2-19.8-1.4-29.4c2.8,0,5.6,0,8.2-0.2
		C107,127.1,107,127.1,107,127.3z M107.8,156.3c1-9.6,2.2-19.6,1.4-29.2c0-0.2,0-0.4-0.2-0.4c1.2,0,2.4,0,3.4-0.2
		c2-0.2,4.2-0.4,6.6-0.6c-2.6,10-5.8,20-8,30.2C110,156.3,108.8,156.3,107.8,156.3z M124.4,144.1c-1.2,2.4-3.2,7.4-5.2,9.2
		c-1.6,1.6-4.2,2.2-6.8,2.6c4.4-9.6,7.2-20.2,9.8-30.4c3.2-0.4,6.6-1.2,9.6-2.2C130,130.5,127.6,137.5,124.4,144.1z"/>
</g>
</svg>
