<?xml version="1.0" encoding="utf-8"?>
<!-- Generator: Adobe Illustrator 18.1.1, SVG Export Plug-In . SVG Version: 6.00 Build 0)  -->
<svg version="1.1" id="Capa_1" xmlns="http://www.w3.org/2000/svg" xmlns:xlink="http://www.w3.org/1999/xlink" x="0px" y="0px"
	 viewBox="0 0 200 200" enable-background="new 0 0 200 200" xml:space="preserve">
<g>
	<path fill="#1D1D1B" d="M147.5,101.7c-4.4-2.2-11.2-2.2-15,1c-0.8,0.8,0,2,1,1.8c3.4-0.6,6.4-2,10-1.2c3.8,1,6.8,3.8,7.4,7.6
		c0.6,3.4-0.8,7-4.2,8c-3.2,1-7-0.4-8.2-3.6c-0.2-0.8-1.2-0.8-1.6-0.2c0-0.2,0-0.6-0.2-0.8c-0.2-0.8-1.6-1-2-0.2
		c-2,4.6-4.6,8.6-10.4,8.2c-1,0-2-0.4-3-0.6c-0.2-0.6-0.8-1-1.4-0.6c-2.2-1.2-4-3-5.4-5c0.2-0.8,0-1.6,0-2.4c-0.2-1-1.4-0.8-1.8,0
		l0,0c-0.6-1-1.8-0.2-1.4,0.8c0.2,0.4,0.4,0.8,0.6,1.2c-1.6,4-3.6,7.6-8.4,9c-5.6,1.4-11.2-1.6-13.8-6.6c0.2-0.8,0.2-1.6,0-2.4
		s-1.4-0.8-1.6,0c-1.4,5.6-5.2,8.2-10.8,8.2c-4.2,0-14.4-2.2-10.2-8.6c0.6-1-1-2-1.6-1c0,0,0,0.2-0.2,0.4c-0.4-0.2-1-0.2-1.4,0.2
		c-1,1.4-2.4,2.4-4,3.2l0,0c-0.4-0.6-1.4-0.2-1.2,0.4l0,0c-3,0.8-6.2,0.4-8.4-2.2c-3.8-4.6,0-11.8,5.4-13c1.2-0.2,0.8-2-0.2-2
		c-7.6,0.6-12.2,10.2-7.6,16.4c2.6,3.4,7.6,4.4,11.6,3.2c3.8,12.4,7.4,25.2,12.4,37c0.6,1.6,3,1,2.6-0.8c-2.6-12.6-7.8-25.4-13.4-37
		c1.2-0.6,2.4-1.4,3.2-2.6c0,4.4,6,7.4,10.4,8c0.2,0,0.6,0,0.8,0c1,9.2,3,18.4,6.4,27c0.4,0.8,1.6,0.6,1.4-0.4
		c-2.4-8.8-4.4-17.6-5.6-26.6c3.6-0.2,7.4-1.2,10-3.4c0.8,11.2,2,22.4,3.8,33.4c0.2,0.6,1,0.4,1-0.2c-0.4-11.6-1.6-23.4-3.2-35
		c0-0.2,0-0.2-0.2-0.4c0-0.2,0.2-0.4,0.4-0.6c2.8,4.6,7.6,7.6,13.2,7c-0.6,8.8-0.2,18,0.2,26.8c0,1,1.4,1,1.4,0
		c0.4-8.8,0.8-18.2,0.2-27l0,0c4-1,8-4.2,9.6-8.2c1.4,1.8,3.2,3.4,5.2,4.6c-3.2,10.2-4.8,20.2-4.6,30.2c0,1,1.4,1,1.4,0
		c0.8-9.8,2.4-19.2,4.8-28.6c1.8,0.8,3.8,1.2,6,0.8c1.8-0.2,3.8-1,5.6-2c-5,10.4-8.8,22.2-9.6,33.4c-17,5-33.8,5.8-51.4,3
		c-1-0.2-1.4,1.2-0.4,1.4c18,5.2,37.2,4.2,54.8-2c1.4-0.4,1.4-2.2,0.4-2.8c3.4-12.8,6-25.4,10.8-37.8c0.2-0.4,0-0.8-0.2-1
		c0-0.2,0-0.6,0-1c2.6,9,16,6.2,17-2.6C154.5,108.7,151.9,103.9,147.5,101.7z"/>
	<path fill="#1D1D1B" d="M69.9,55.1c-2.6-1-5.4,0.6-6.8,2.6c-2,2.8-1.2,6.4-0.2,9.6c-2.8,0-5.8,0.2-7.8,2.2
		c-1.8,1.8-2.4,4.4-1.4,6.6c2.8,5.4,11,4.2,16,2.4c0.6,0.6,1.8,0.4,2-0.6c1.4-5.2,1.6-11.4,1.6-16.8C73.1,58.7,72.5,56.1,69.9,55.1z
		 M59.3,76.7c-3-1-4.2-3.4-1.4-5.4c2-1.6,4-1.4,6.4-1.4c0.8,0,1.4-0.8,1.2-1.4c-1-3-2.2-6.8-0.2-9.6c1.6-2,4.4-0.4,5.2,1.6
		c0.4,0.8-0.2,2.4-0.2,3.2c-0.4,4.4-1.4,8.8-1.4,13.4C65.9,77.3,62.3,77.7,59.3,76.7z"/>
	<path fill="#1D1D1B" d="M104.5,62.5c-2.6-2-6.2-1.6-8.4,0.8c-1.6,1.6-2.2,3.8-2.2,6c-1.4-1.2-3.2-2-5.2-1.6c-2.4,0.6-3.6,2.8-3.8,5
		c-0.2,6.4,6.8,10.2,12.4,10.4c0.6,0,0.8-0.4,0.8-0.8c0.6,0.6,1.4,1,2.2,0.2C105.7,77.7,112.7,68.5,104.5,62.5z M98.5,80.3
		c-0.4,0.4-0.4,0.8-0.4,1.2c-0.2-0.2-0.4-0.2-0.6-0.2c-3.2-0.4-6.2-2-8-4.6c-0.6-1-1.8-2.8-1.4-4c1.6-0.4,3.2-0.8,5-1.2
		c0.6,0.6,1.2,1.2,1.6,1.8c0.6,0.8,2.2,0.2,2-0.8c-0.2-1.8-0.2-3.8,0.4-5.4c1.6-4,6.2-3.2,7.6,0.4C106.9,72.7,101.9,77.3,98.5,80.3z
		"/>
	<path fill="#1D1D1B" d="M140.5,59.9c-7.8-15-24.4-23.4-41-24c-16.4-0.4-36.6,5.8-45.4,20.8c-8,13.8-7.2,31.8,2.2,44.6
		c0.8,1,2.4,0.2,1.8-1c-7.6-12-9.2-28.2-2.2-40.8c6-10.8,17.6-16.8,29.8-19.2c-0.4,0.2-0.8,0.6-1.2,1c-1.8,2.2-2.2,5.4-0.8,7.8
		c1.6,3.4,5.4,4.8,9,5h0.2c0.2,0.2,0.4,0.2,0.6,0.2c6.8-0.4,14-8.6,8.8-15l-0.2-0.2c9.8,0.8,18.6,4.6,25.2,10.4
		c-2,1-3.4,2.6-3.8,4.6c-1.4-1.6-3.4-2.8-5.6-2.8c-2.8,0-4.6,2.2-4.8,5c-0.8,7.4,7.6,9,13.2,8.8c1.2,0,1.2-1.8,0-2
		c-3.6-0.4-9.4-0.6-10.4-5c-0.4-1.6,0-3.6,2-4c2.6-0.4,4.4,2.6,5.8,4.2c0.6,0.6,1.2,0.4,1.6,0c0.2-0.2,0.4-0.6,0.4-1
		c-0.2-2,0.6-4,2.4-5c3,4,2.4,9.4-0.8,13.2c-1,1.2,0.6,3,1.8,1.8c3.6-3.4,4.2-8.2,3-12.6c10,11.8,12.4,28.8,1.2,44.4
		c-1,1.4,1.2,2.8,2.2,1.8C145.9,90.3,147.1,72.9,140.5,59.9z M94.3,39.3c-0.8,0.8-1.4,1.6-1.6,2.8c-0.4-0.4-0.8-1-1.2-1.4
		c-0.6-0.4-1.2-0.8-1.8-1C91.3,39.5,92.9,39.3,94.3,39.3z M92.7,52.1C92.7,52.1,92.7,52.3,92.7,52.1c-3.6-0.6-7.4-2.6-7.2-6.6
		c0-1.6,0.8-3.4,2.4-3.8c2.4-0.6,4.4,2.2,3.4,4.2c-0.4,0.8,0.6,1.6,1.2,1s0.8-1.2,0.8-2c0.2,0.2,0.2,0.4,0.4,0.4
		c0.4,0.6,1.2-0.2,1-0.8c-1.4-2.2,0.8-5,3.2-4.8c2.4,0.2,3.6,2.8,3.4,5C101.1,49.5,96.3,50.7,92.7,52.1z"/>
	<path fill="#1D1D1B" d="M130.1,84.5c-3.4-2.8-7.8-0.8-9.2,2.2c-2.2-2.8-6.8-4-9.6-1.6c-2.6,2.2-2.8,6.2-1.6,9.2
		c1.6,3.8,5.6,5.8,9.4,6.8c0.8,0.2,1.6-1.2,0.6-1.6c-4-1.8-9-5-7.8-10c0.6-2.4,2.6-4,5-3.2s3.2,2.8,3.4,5.2c0,0.6,0.8,1,1.2,0.4
		c0-0.2,0.2-0.4,0.2-0.4c0.2,0.2,0.4,0.4,0.6,0.6c1,1,2.2-0.4,1.4-1.4c-3-3.8,3-6.2,5.6-3.6c2.2,2.2,1.6,5.4,0.2,7.8
		c-2,3.6-6,5.6-9.2,8c-1.4,1,0,3.4,1.4,2.4c4-2.8,8.8-5.8,10.8-10.6C133.7,91.1,133.1,87.1,130.1,84.5z"/>
	<path fill="#1D1D1B" d="M78.7,85.7c-2.6-0.4-4.6,1.4-5.2,3.4c-0.4-0.4-0.8-0.8-1-1c-2.6-1.8-6-0.4-7.6,2c-1.8,2.8-1.2,6.4,1,8.8
		c3,3.4,7.6,3.4,11.6,3.2c1.2,0,1.2-1.6,0-1.8c-4-0.2-10.2-0.8-11-5.8c-0.4-2,1-4.6,3.2-4.8c2.6-0.2,2.8,2.4,2.8,4.2
		c0,0.8,1,1.2,1.6,0.6c0.2-0.2,0.4-0.4,0.6-0.8l0.2,0.2c0.8,0.6,1.6-0.4,1-1c-1-1.2-0.8-3.2,0.2-4.4c1.6-1.6,3.8-0.6,5,1
		c2.2,3.4,0,7.2-1.2,10.4c-0.4,1.2,1.6,2.2,2.2,1C84.5,96.5,86.3,86.7,78.7,85.7z"/>
</g>
</svg>
