<?xml version="1.0" encoding="utf-8"?>
<!-- Generator: Adobe Illustrator 18.1.1, SVG Export Plug-In . SVG Version: 6.00 Build 0)  -->
<svg version="1.1" id="Capa_1" xmlns="http://www.w3.org/2000/svg" xmlns:xlink="http://www.w3.org/1999/xlink" x="0px" y="0px"
	 viewBox="0 0 200 200" enable-background="new 0 0 200 200" xml:space="preserve">
<path fill="#1D1D1B" d="M144.6,75.5c-2.8-8-7-15-12.8-21.4c0,0-0.2,0-0.2-0.2c-0.2-0.6-0.6-0.8-1.4-0.8c-9.6,1-19,0.8-28.6,0.6
	c-0.4-0.2-0.8-0.2-1.2,0c-8.2,0-16.4,0-24.4,1c-0.4-0.4-1-0.6-1.6-0.2c-8,4.8-14.6,11.4-19.6,19.4c0,0.2,0,0.2-0.2,0.4
	c-0.2,0.2-0.4,0.6-0.2,1c-0.2,0.2-0.4,0.4-0.2,0.8c4.4,11.8,11.8,23,18,33.8c7,12.2,13.6,24.4,21.6,36c0.4,0.6,1,0.6,1.4,0.4
	c0.4,0.6,1,0.8,1.6,0.2c19.6-19.4,35.4-45,48.8-69C146.2,76.5,145.4,75.5,144.6,75.5z M131,57.5c4.6,5.4,8.4,11.6,11.2,18.2
	c-0.6,0.2-1,0.4-1.6,0.4c-0.4,0-0.8,0-1.2,0c0-0.4-0.4-0.8-0.8-0.8c-6.2-0.2-12.6-0.4-18.8-0.4C123.4,69.1,127.2,63.3,131,57.5z
	 M128,56.1c-4.2,5.4-8,11.4-11,17.4c-3-5.4-7.4-13-12.4-17.6C112.6,56.1,120.4,56.7,128,56.1z M100.8,57.5c2.2-0.4,6.2,6.2,7.4,7.8
	c2.4,3,4.4,6.2,6.8,9.4c-9.2,0-18.2,0-27.4,0c1.6-2.6,3.2-5,5-7.4C93.6,65.7,98.4,57.9,100.8,57.5z M98,56.1
	c-5.2,5.4-9.6,11.4-12.8,18.2c-2.2-6.2-5.6-12.4-8.6-18.2C83.6,58.5,90.6,56.7,98,56.1z M74.6,57.5c2.4,5.6,4.8,11.8,8,17.2
	c-8.4,0-16.8-0.2-25.2-0.6C62.2,67.7,68,62.1,74.6,57.5z M75.2,108.3c-6.2-10.6-11.6-22.4-19-32.2C65,77.3,74,77.9,83,78.3v0.2
	c3.6,21,5.6,44.2,12.2,64.6C89,131.3,81.8,119.9,75.2,108.3z M96.8,141.1c-1.2-20.8-7-42.4-10.8-62.8c10.2,0.4,20.6,0.2,30.8-0.2
	C109,98.7,102,119.9,96.8,141.1z M122.8,110.9c-7.2,10.2-15.6,19.6-23.4,29.4c6.6-20.8,13.2-41.6,20.4-62.2c6-0.2,11.8-0.6,17.6-1
	c0.8,0.6,2,1.2,3,1.2c0.6,0,1.2,0,1.8,0C136.2,89.5,130.2,100.5,122.8,110.9z"/>
</svg>
