<?xml version="1.0" encoding="utf-8"?>
<!-- Generator: Adobe Illustrator 18.1.1, SVG Export Plug-In . SVG Version: 6.00 Build 0)  -->
<svg version="1.1" id="Capa_1" xmlns="http://www.w3.org/2000/svg" xmlns:xlink="http://www.w3.org/1999/xlink" x="0px" y="0px"
	 viewBox="0 0 200 200" enable-background="new 0 0 200 200" xml:space="preserve">
<g>
	<path fill="#1D1D1B" d="M147.4,79.5c-0.6-4.8-0.4-10.6-4.4-14c-5.8-4.8-20.8-4.6-25.2,1.8c-4,5.6-1.8,16.2-1.6,22.6
		c0.4,9,1.4,18.2,2.8,27.2c-3.2,0-6.6,0-10,0c3.8-10.4-5.6-22-16.2-22.8c5.4-6.2,9.8-13.6,12.8-21.2c0.4-1.2-0.8-2.2-2-2
		c-0.2-0.4-0.4-0.6-0.4-1l-1.4-3c0.6-0.2,0.6-1.2-0.2-1.2c-3-0.2-6-0.4-9-0.2c-0.4-0.2-0.8-0.2-1.2,0c-4,0.2-8,0.8-12,1.4
		c-0.4-0.2-0.8-0.2-1-0.2c-1.4,0-2.2,1.2-2.6,2.4c-1,2-1.6,4.2-2,6.4c-0.4,0.2-0.6,0.8-0.4,1.2l0,0c0,0.2,0.2,0.4,0.4,0.6
		c1.8,3.4,5,6.2,7.6,8.8c2.6,2.6,5.2,5.4,8,7.8c-11,1.4-15.2,12.2-12.6,22.8c-3.2,0-6.6,0.2-9.8,0.4c-1,0-1.4,1.6-0.2,1.8
		c17,3,36,2.6,53.2,1l0,0c-0.6,0.2-1.2,0.6-1.2,1.4c0.4,6.2,1,12.8-0.6,18.8c-2.4,9.8-13,11-21.8,10.6c-6.2-0.2-14.2-0.4-19.8-3
		c-12-5.6-9-17.2-9.8-27.6c0-1.2-1.8-1.6-2.2-0.2c-1.4,7.6-2.6,19.6,2.6,26.2c6,7.4,20.4,7.6,29.2,7.8c8.2,0.2,17.8,0.8,22.6-7
		c4.6-7.2,3.8-17.4,2.8-25.4c12.4,2.2,24.4-6.2,27.2-18.6C150.4,95.9,148.4,87.3,147.4,79.5z M92.2,90.9c1-2.4,1.6-4.8,2.2-7.2
		c0.8-2.4,1.4-4.8,2-7.2c1.4-0.2,2.8-0.4,4.2-0.6C98.2,80.9,95.4,85.9,92.2,90.9z M101.2,71.1c0.2,0.6,0.4,1.2,0.8,1.8
		c0,0,0,0.2-0.2,0.2c-1.4-0.2-2.8-0.2-4.2-0.2c0.8-1.4,1.6-2.6,2.6-4C100.6,69.7,101,70.5,101.2,71.1z M99,67.5
		c-0.8,1.2-1.6,2.6-2.2,3.8c-0.6-1.2-1.6-2.4-2.4-3.4C95.8,67.9,97.4,67.7,99,67.5z M91.8,68.3c0.8,1,1.6,2.2,2.4,3.4
		c0.2,0.4,0.6,1,0.8,1.4c-2.2,0.2-4.2,0.4-6.2,0.6c-0.4,0-0.8,0-1,0C88.6,71.7,90,69.9,91.8,68.3z M88.8,68.3
		c-1.4,1.6-2.4,3.4-3.2,5.4c-1-1.2-2.4-2.4-3.4-3.6c-0.4-0.4-0.8-1-1.4-1.4C83.6,68.5,86.2,68.3,88.8,68.3z M75.8,73.9
		c0.8-1.8,1.2-5.2,3.6-3.6c1.6,1,2.6,2.6,4,4c-2.8,0.2-5.6,0.6-8.4,1.4C75.4,75.1,75.6,74.5,75.8,73.9z M83.2,84.5
		c-2.2-2.4-4.4-5.4-7-7.4c3.2,0.4,6.6,0.2,9.8-0.2c0.8,4.6,1.6,9.2,2.8,13.6C86.8,88.5,85,86.5,83.2,84.5z M87.2,76.9
		c0.4,0,1,0,1.4-0.2c1.8-0.2,3.6-0.2,5.6-0.2c-0.8,2.2-1.4,4.2-1.8,6.4c-0.6,2.2-1.4,4.6-1.8,6.8C89.6,85.5,88.4,81.1,87.2,76.9z
		 M83.8,116.9v-0.2c-1-3.4-1.8-7.2-0.2-10.4c1.8-3.6,5.6-4.8,9.4-3.2c2.4,1,4.6,2.6,6.4,4.6c2.4,2.8,2.2,5.4,2,8.6
		c0,0.2,0,0.4,0.2,0.6C95.6,116.9,89.8,116.9,83.8,116.9z M106.6,116.9c-1,0-2,0-3.2,0c0,0,0,0,0.2,0c5.2-7-6.2-16.4-12.4-17.2
		c-10-1.4-12.6,10.6-8.4,17.4c-1.6,0-3.4,0-5,0c-0.6-9.6,2.2-20.2,14-20c4.2,0,8.2,2.2,11,5.2C106.8,106.5,106.6,111.5,106.6,116.9z
		 M123,120.1v-0.2c-1.6-11.2-3-22.6-3.2-33.8c-0.2-4.8-1.8-15,2.8-18.4c3-2.2,9.2-2.2,12.8-1.6c10.8,2.2,9.6,19.6,9.8,28.6
		C145.2,109.3,136.6,118.1,123,120.1z"/>
	<path fill="#1D1D1B" d="M72.6,87.7c-2.6,0.2-5,1-7.4,1.8c-2.4,0.8-5,1.6-7.2,3c-1.6,1-0.6,3.6,1.4,3c2.4-0.6,4.4-1.8,6.6-2.8
		c2.4-1,4.8-1.8,7-3C74.2,89.1,73.8,87.5,72.6,87.7z"/>
	<path fill="#1D1D1B" d="M65,72.5c-2.2,0.4-4.4,0.6-6.6,0.4c-2-0.2-4-1.4-6.2-1.2c-1.4,0.2-2.2,1.8-1.2,3c3.2,3.4,11,2.6,14.8,1
		C68,74.9,67.2,72.3,65,72.5z"/>
	<path fill="#1D1D1B" d="M74.6,59.1c-2.4-1.4-4.2-3.4-6-5.6c-1-1.2-3,0-2.6,1.4c1,3.4,4,5.8,7.4,7C75,62.3,76,59.9,74.6,59.1z"/>
	<path fill="#1D1D1B" d="M90.8,47.3c0-1.2-1.6-2-2.6-1c-2.2,2-2,6.4-1.2,9.2c0.4,1.6,3.2,1.4,3-0.4c0-1.4-0.2-2.6,0-4
		C90.2,49.7,90.8,48.5,90.8,47.3z"/>
	<path fill="#1D1D1B" d="M104.4,46.7c-1.2,1.2-1.8,2.8-2.4,4.4c-0.6,1.6-1.4,3-1.8,4.6c-0.2,1.2,1.4,2.4,2.2,1.4
		c1-1.2,1.8-2.8,2.6-4.2c0.8-1.4,1.8-3,2-4.6C107.2,46.7,105.4,45.5,104.4,46.7z"/>
	<path fill="#1D1D1B" d="M113.2,60.3c-0.8,0-1.4,0.4-2,0.6c-0.6,0.2-1.4,0.2-2,0.2c-1.6-0.2-1.8,2.4-0.4,2.6c1.8,0.4,5.2,0.2,5.6-2
		C114.6,61.1,114,60.5,113.2,60.3z"/>
	<path fill="#1D1D1B" d="M113.4,89.7c-0.8-1.2-2-1.8-3.2-2.4s-2.4-1.2-3.6-1.6s-1.8,1.2-0.8,2c1,0.6,2.2,1.4,3.2,2.2
		c1,0.8,1.8,1.6,3,2C113,92.1,114,90.7,113.4,89.7z"/>
</g>
</svg>
