<?xml version="1.0" encoding="utf-8"?>
<!-- Generator: Adobe Illustrator 18.1.1, SVG Export Plug-In . SVG Version: 6.00 Build 0)  -->
<svg version="1.1" id="Capa_1" xmlns="http://www.w3.org/2000/svg" xmlns:xlink="http://www.w3.org/1999/xlink" x="0px" y="0px"
	 viewBox="0 0 200 200" enable-background="new 0 0 200 200" xml:space="preserve">
<path fill="#1D1D1B" d="M140.9,63.3c-3.8-9-13.8-14.4-23.2-10.8c-7.8,2.8-13.8,9.6-17.8,16.8c-3.8-7.2-9.4-13.8-18-15
	c-10-1.4-18.8,6-22.4,14.8c-10,25,14.4,45.8,36.4,51.2c-1,4.2-1.6,8.4-2.2,12.8c0,0,0,0,0,0.2c-2.8,0-5.6,0-8.4,0.4
	c-2.8,0.2-4,5-0.8,5.4c2.8,0.4,5.4,0.6,8.2,0.8c-0.2,2.2-0.2,4.4,0.4,6.6c0.8,3,4.8,2.4,5.6,0c0.8-2,1-4,1.2-6.2
	c2.8,0.2,5.6,0.4,8.2-0.6c2.8-1,2.6-4.6,0-5.6c-2.4-0.8-5-0.8-7.8-0.8c0.6-4.2,1.2-8.4,1.6-12.8C121.9,111.7,150.7,86.3,140.9,63.3z
	 M65.3,84.3c-1.4-8.6,2-20.2,11.6-22.6c10.4-2.6,16.4,9.2,19.8,16.8c1.4,3.2,5.6,3.4,6.8,0c2.6-7,7.2-13.8,13.6-17.8
	c15.2-9.6,20.8,10.6,16.2,21.2c-6.2,13.8-21.4,27.2-35,32.8c-0.2,0-0.2,0.2-0.4,0.2C83.3,109.5,68.1,101.1,65.3,84.3z"/>
</svg>
