<?xml version="1.0" encoding="utf-8"?>
<!-- Generator: Adobe Illustrator 18.1.1, SVG Export Plug-In . SVG Version: 6.00 Build 0)  -->
<svg version="1.1" id="Capa_1" xmlns="http://www.w3.org/2000/svg" xmlns:xlink="http://www.w3.org/1999/xlink" x="0px" y="0px"
	 viewBox="0 0 200 200" enable-background="new 0 0 200 200" xml:space="preserve">
<g>
	<path fill="#1D1D1B" d="M148.7,67.1c0.6-0.4,0.6-1.2,0.4-1.8l0,0c0.6-2.2-2.6-3-3.2-1c0,0.2-0.2,0.4-0.2,0.6
		c-16.2,5.4-29.6-0.6-45.4-5c-11.6-3.2-23-3.6-33.6,2.4c0-0.8,0-1.6-0.2-2.4h0.2c4.4-1.6,6.8-6.6,5.8-11c-1.2-5-6.2-8.2-11.2-7.8
		c-5.2,0.4-9.6,5-10.4,10.2c-0.6,4.2,1.6,9.2,6,9.4c-0.2,0.6-0.2,1.4-0.2,2.2c-1.2,14.2,0,29-0.4,43.4c-0.2,15.6-1.2,31.4-1.2,47
		c0,0.6,0.2,1,0.6,1.2c0.2,1.4,0.4,2.2,1.6,3.2c1.2,0.8,2.6,1.2,4,1.2c2-0.2,5.8-2,4.8-4.6c1-11.2,1-22.6,0.8-34
		c26-7.8,48.8,13.4,74.6,8.6c0,0,0,0,0.2,0c0.4,0.2,1.2,0.2,1.4-0.4c2.4-9.6,3.2-19.6,3.6-29.4C147.1,88.1,146.1,77.3,148.7,67.1z
		 M65.5,57.1c-0.6,0.4-0.8,0.8-0.8,1.4c0,0.2,0,0.2,0,0.4c-1.6,15.6-1.2,31.8-1.4,47.6c-0.2,15.6-1.2,31.6,0,47.2
		c-0.8,0.6-1.4,1.4-2.4,1.4c-1,0.2-2.8-0.4-3.8-1.2c0.2-0.2,0.4-0.6,0.4-1c1.4-16.2,1.6-32.6,1.8-49c0.2-7.8,0.2-15.6,0.2-23.6
		c0-4,0-7.8-0.2-11.8c0-1.2-0.2-2.2-0.2-3c0-0.8,0-1.8,0-2.6c0-1.2,0.6-2.4-0.2-3.4l0,0c0-0.4,0-0.8-0.4-1.2
		c-0.2-0.4-0.8-0.6-1.2-0.4c-4.4-1-4.2-6.4-2.2-9.6c1.8-2.8,5-4.8,8.4-4C70.3,45.7,71.1,53.7,65.5,57.1z M141.5,125.7h-0.2
		c-16.2,0.2-29.8-5.4-45.4-9c-9.8-2.2-19.8-2.6-29,1.4c0-4,0-7.8,0-11.6c0-14.2,0.6-28.6-0.2-43c9.4-2.4,17.8-3.4,27.4-1.2
		c7.6,1.8,14.6,4.8,22.2,7c9.2,2.6,19.6,4,28.4,0.2c-1.4,7.8-1.2,15.8-1.2,23.6C143.1,103.9,141.9,114.9,141.5,125.7z"/>
	<path fill="#1D1D1B" d="M125.1,82.3c-1.4-5.6-7.2-8.4-12.6-7.8c-4.8,0.6-8.6,3.6-11,7.4c-3.4-8.8-16-13.6-20.6-2.6
		c-2.2,5.6,0.2,11.8,4.2,16c3.6,3.8,9.6,8.6,15.2,7.8C111.1,105.3,128.1,93.9,125.1,82.3z M119.9,88.1c-1.8,4.2-6.2,6.8-10.2,8.4
		c-3.8,1.6-8,1.2-11.8,2.4c0,0,0,0-0.2,0c-2.4-1.8-7.2-4.4-8.2-5.2c-3-2.6-5.4-5.8-5.4-10c0-5.6,5.8-9,10.2-4.8c2.4,2.2,3,5.6,5,8
		c0.8,1,2.4,0.2,2.4-1c0-0.2,0-0.2,0-0.4c2.4-2.8,5-5.8,8.8-7C116.9,77.3,122.7,81.7,119.9,88.1z"/>
</g>
</svg>
