<?xml version="1.0" encoding="utf-8"?>
<!-- Generator: Adobe Illustrator 18.1.1, SVG Export Plug-In . SVG Version: 6.00 Build 0)  -->
<svg version="1.1" id="Capa_1" xmlns="http://www.w3.org/2000/svg" xmlns:xlink="http://www.w3.org/1999/xlink" x="0px" y="0px"
	 viewBox="0 0 200 200" enable-background="new 0 0 200 200" xml:space="preserve">
<g>
	<path fill="#1D1D1B" d="M143.8,151c-8.2-1-15.2-2.2-22-7.2c-6.4-5-10.6-11.6-13.2-19.2c4-0.6,8-3.2,8.6-7.2c0-0.6-0.4-1.2-1-1.4
		c13.4-9,12.8-32,6-46.2c0-0.2-0.2-0.2-0.2-0.4v-0.2c0.2-0.8-0.6-1.8-1.4-1.2c-1.2,0.8-1.6,2.2-2.4,3.2c-0.8,1.4-1.6,2.6-2.4,4v0.2
		c-1.4-3.6-3.6-7-5.4-10.4c-0.2-0.4-1-0.4-1.2,0c-1.6,2.6-2.6,5.4-3.6,8l0,0c-0.2-4.8-0.4-9.6,0.2-14.4c1.2,0.8,2.8,0.8,4,0.4
		c2.2-0.8,3-3.4,2-5.4s-3.2-3.4-5.4-2.6c-2.2,0.6-4.4,3.4-3,5.8c0.4,0.6,1,0.6,1.4,0.4c0,0.2,0,0.4,0,0.6c0,0.2,0.2,0.2,0.2,0.2
		c-0.4,0-0.8,0.2-0.8,0.6c-0.6,4.2-0.8,8.4-0.2,12.6c-1.4-1.8-2.6-3.4-3.8-5.4c-0.4-0.8-1.6-0.8-2,0c-1,2.2-2,4.4-2.8,6.6
		c-2.8-6-3.6-12.4-2.4-19c1.6,1.2,3.8,1,5-0.8c1.6-2.2,0.4-5.2-2-6.2c-2-0.8-5.4-0.6-6.2,2c-0.4,1.6,0.4,3.2,1.6,4.2
		c-1.8,7.4-0.6,14.6,3.6,21c-2.2-2.2-4.2-4.6-6-7.2c-0.2-0.4-1-0.6-1.4-0.2c-1.8,2.2-3,4.8-4,7.4c-3.6-7.4-10.8-12.8-19-13.2l0,0
		c-0.6-1.6-2-3-3.8-3.4c-3-0.6-5.4,1.6-5.8,4.4c-0.4,2.8,1.2,5.4,4.2,5.6c2.2,0.2,4.2-1,5.2-2.8c0.2,0,0.2-0.2,0.4-0.4
		c0.2-0.6,0.4-1.2,0.4-1.8c7.4,2,13.2,5.8,17.4,12.2c-2.2-1.6-4.2-3.2-6.2-4.8c-1,0-1.2,0-1.6,0.2c-0.4-0.4-1.2-0.4-1.4,0.2
		c-4,18,2.2,43.2,21,48.8c3,3.6,7.2,6.4,12.2,6.2c0.2,0,0.4,0,0.6,0c0,0,0,0,0,0.2c0.8,5.8,3.4,11.2,7,15.8c-6-5.4-15-5.4-22.8-5.8
		c-2.8-0.2-5.6-0.2-8.4,0c-0.2,0-0.4,0-0.4,0c-7.4,0.4-14.8,2-21,6.2c-0.4,0.4-0.6,0.8-0.4,1.2c-0.4,0.2-0.4,0.6,0,1
		c16.6,10.2,38.8,9.6,55.6,0.4c0,0,0,0,0.2,0c7,7.2,17,11.4,27,9.8C145.6,153.2,145,151.2,143.8,151z M90.8,49.8c-0.2-2,2-2.4,3.4-2
		s2.4,1.8,2,3.2c-0.4,1.6-2.2,2.2-3.2,0.8c-0.2-0.2-0.6-0.2-0.8,0l0,0C91.4,51.4,90.8,50.6,90.8,49.8z M56.6,62.2
		c0.2-1.6,1.4-3.2,3-2.8c1.6,0.2,3,1.8,3,3.6C61.6,65.8,56.2,66.2,56.6,62.2z M106.8,53.8c1-0.4,2,0.2,2.4,1.2s0,1.6-0.8,2.2
		c-1,0.4-1.8,0.2-2.6-0.4c-0.2-0.2-0.4-0.2-0.6-0.2l0,0C105.4,55.4,105.6,54.4,106.8,53.8z M75,71.2c2.4,2.4,5,4.4,7.8,6.6
		c0.6,0.4,1.6,0.4,1.8-0.4c0.8-3.2,2-6,3.4-8.8c2,2.8,4,5.4,6.6,7.6c0.8,0.8,2-0.2,1.6-1c1.4-2,2.4-4,3.2-6.2c1.8,2.6,3.6,5,5.8,7.4
		c0.6,0.6,1.6,0.2,1.8-0.4c1-2.6,2.2-5.4,3-8.2c1.4,3,3,6,4.8,8.8c0.2,0.4,0.8,0.2,1,0c0.4,0.6,1.4,1,1.8,0.2
		c0.8-1.2,1.6-2.4,2.4-3.6c0.2-0.2,0.4-0.6,0.6-0.8c2.8,9,5.6,18,3.2,27.6c-3,11.2-12.6,18.6-24.4,16.8C77.4,113,74.2,89.2,75,71.2z
		 M106,122c-3,0-5.6-1-8-2.6c1.8,0.4,3.8,0.4,5.8,0.4c4.4-0.2,8-1.2,11.2-2.8C112.4,119.8,110.2,121.8,106,122z M109.2,140.2
		c-3-0.2-6-0.2-9-0.2c-0.2-0.2-0.6-0.4-0.8,0c0,0,0,0-0.2,0.2H99c-0.8-0.6-1.6-1.2-2.4-2l-1.2-0.8
		C100.4,137.6,105,138.6,109.2,140.2z M93.4,137.2c1,1,2,2,3.2,3c-1.8,0-3.4,0.2-5.2,0.2c0.2-0.4-0.2-1-0.6-0.6
		c-0.2,0.2-0.4,0.4-0.8,0.6c-1.4-1-2.6-1.8-3.8-3C88.4,137.2,90.8,137.2,93.4,137.2z M84.2,137.6c1.2,1.2,2.4,2.2,3.6,3
		c-2,0.2-4,0.2-6,0.4c0-0.2,0-0.4,0-0.6c-0.8-0.8-1.8-1-2.8-1.6c-0.2-0.2-0.4-0.4-0.6-0.4C80.2,138,82.2,137.8,84.2,137.6z
		 M77.2,138.6c0.4,0.4,0.8,0.6,1.2,1c0.6,0.6,1.4,1.2,2.2,1.6c-5,0.4-10,0.6-15,0.8C69,140.6,73,139.6,77.2,138.6z M75.8,146
		c1.8-0.8,3.4-2,4.8-3.4c0.4-0.4,0-1-0.6-0.8c-2.2,1.2-4.2,2.6-6.6,3.6c-3.4-0.6-6.8-1.6-10.4-2.8c0.4-0.2,0.8-0.2,1.2-0.4
		c8,0.6,16.2-0.8,24.2-1c-2,1.6-3.8,3.6-5.6,5.4C80.6,146.6,78.2,146.4,75.8,146z M84.6,147c2-1.8,3.8-3.8,5.8-5.6
		c2.4,0,4.8,0,7.2,0c0,0,0.2,0,0.2,0.2c-1.4,1.6-2.6,3.6-3.6,5.4C91,147,87.8,147,84.6,147z M95.6,146.6c0.6-1,1.4-2,2-2.8
		c0.4-0.6,0.8-1,1.2-1.4c0.6,0.2,1-0.4,1-0.8c4,0,8,0.2,12.2,0.4c0.2,0.2,0.6,0.2,0.8,0.4C107,144.4,101.4,145.8,95.6,146.6z"/>
	<path fill="#1D1D1B" d="M137.2,49.6c-1.2-2-3.8-3-6-2.8S126,48.4,127,51c0,0.2,0.2,0.4,0.2,0.4c-0.2,0.2-0.2,0.6,0,1l0,0
		c-7.6,3.8-12.8,12.4-11.8,21.2c0.2,1,1.6,1,1.6,0c0.8-8,4.4-14.8,11.4-19.2c0.2-0.2,0.2-0.2,0.4-0.4c1.6,1.4,3.8,2.2,5.8,1.6
		C136.8,54.6,138.4,52,137.2,49.6z M132.2,53.2c-1.2,0-2.4-0.8-3.4-1.6c0.2-0.2,0.6-0.6,0.6-1c0.2-2,5-1.4,5.4,0.4
		C135.2,52.4,133.2,53.4,132.2,53.2z"/>
</g>
</svg>
