<?xml version="1.0" encoding="utf-8"?>
<!-- Generator: Adobe Illustrator 18.1.1, SVG Export Plug-In . SVG Version: 6.00 Build 0)  -->
<svg version="1.1" id="Capa_1" xmlns="http://www.w3.org/2000/svg" xmlns:xlink="http://www.w3.org/1999/xlink" x="0px" y="0px"
	 viewBox="0 0 200 200" enable-background="new 0 0 200 200" xml:space="preserve">
<path fill="#1D1D1B" d="M137.5,90.9c8.6-4.8,12.2-14.4,5.2-23.2c-5.8-7-12.4-5.2-17.6-0.4c0.6-7-6.2-16-12-18
	c-8.6-2.8-15.8,2.8-18,10.2c-2.4-7.6-12.4-12-19.6-8.2c-3.8,2-6.6,5.8-6.6,10.2c0,1.2,0.2,3,0.6,4.8c-6.6-2-14.6,0-17.8,6.6
	c-2.8,5.8-0.6,15.8,4.6,20.8c-6.2,2.8-9.2,12.4-8.2,19.2c0.8,4.6,2.8,9.6,7.6,11.4c4,1.4,9.8,0.8,14.4-0.8c-6,8.8-2.2,22.8,8.2,26.4
	c5.8,2,13.4,2.6,18-2c3.6-3.4,5.8-7.6,5.6-11.8c5.6,7.4,16.8,9.8,24.8,4.8c7.6-4.8,8.8-13,5.4-20c8.8,2.2,17-3.2,19.6-13.4
	C154.1,98.3,146.5,90.5,137.5,90.9z M139.7,69.5c3.4,3.6,5.6,8.2,3.4,13c-1.2,2.8-3.6,4.8-6.2,6.4c0.2-1.2,0.2-2.2-0.2-3.4
	c-1.4-4-5-5.6-8.8-5.4c0.8-1.8,1.2-4,0-5.8c-1-1.6-2.6-2.2-4.2-2C128.1,67.3,133.9,63.5,139.7,69.5z M98.5,124.5
	c-15.8,0.8-27.2-10.6-27.6-26c-0.4-16.2,10.4-27.4,25.8-29.2c13.4,0.4,29.8,12.4,30.6,26.4C128.3,110.9,112.7,123.7,98.5,124.5z
	 M118.3,123.9c-1.2,0-2.4-0.4-3.4-1c3-1.8,5.8-4,8-6.4l0.2,0.2C123.5,121.7,121.9,124.1,118.3,123.9z M98.1,128.1
	c-0.4,3.6-4.6,6.6-7.8,4.6c-2.2-1.4-2.6-3.6-2.8-6C90.9,127.7,94.3,128.1,98.1,128.1z M85.9,126.1c-4.2,6.8-13.6,0.6-9.8-6.6l0,0
	C78.7,122.3,82.1,124.5,85.9,126.1z M76.3,74.7c-2,2.2-3.6,4.8-5,7.4c-1.6-2.2-4.8-6.4,0.8-8C73.3,73.9,74.9,74.7,76.3,74.7z
	 M69.9,84.1c0.2,0,0.4,0,0.6,0c-1.4,3.2-2.2,6.6-2.6,10c-2.2-0.8-4.2-2.4-4.4-5.2C63.5,85.5,66.9,83.5,69.9,84.1z M65.9,96.7
	c0.4-0.2,1-0.4,1.6-0.6c-0.2,3.4,0.2,6.8,1,9.8c-0.2,0-0.4,0-0.4,0c-3.2-0.8-3.4-0.8-4.2-4.4C63.1,97.7,63.1,98.1,65.9,96.7z
	 M69.5,109.1c1.2,3.4,3.2,6.6,5.4,9.2c-2.4,0.4-4.8,0-6.4-2C66.9,114.1,66.5,110.5,69.5,109.1z M77.9,67.9c2.2-3.6,4.6-1.2,6.2,0.8
	c-2.4,1.2-4.4,2.6-6.4,4.6C77.3,71.5,76.9,69.3,77.9,67.9z M93.1,66.9c-2.2-0.2-4.4,0.2-6.4,0.8c-0.2-1.4,0.2-2.8,1.6-3.6
	C90.9,62.5,92.3,64.9,93.1,66.9z M108.7,68.7c3.8-4.4,10.8-0.2,8.8,5C114.7,71.5,111.7,69.9,108.7,68.7z M124.5,80.7
	c-1.6-2-3.4-4-5.4-5.6c0.2-0.2,0.6-0.2,0.8-0.4c0.2,0.4,0.8,0.4,1,0c0.2-0.2,0.4-0.4,0.6-0.6c1.4-0.4,3-0.4,4,0.6
	C127.3,76.5,126.1,79.3,124.5,80.7z M133.7,84.9c1.8,3,0,5.6-3,6.4l0,0c-0.2,0-0.4,0-0.6,0.2l0,0c-0.8-3-2.2-6-4.2-9
	C128.7,81.9,131.9,82.3,133.7,84.9z M129.9,104.9c1.8,1.4,3.6,3.2,3.6,5.8c0,5.4-5.2,5.2-8.8,3.6
	C126.9,111.7,128.7,108.5,129.9,104.9z M130.7,101.7c0.4-2,0.4-3.8,0.4-6c0-0.6-0.2-1.2-0.2-1.8l0,0c0.6,0,1.2,0,1.6-0.2
	c2.6,1.6,5.8,5,2,7C133.7,101.5,131.9,101.5,130.7,101.7z M109.9,52.1c8.4,1.2,15.8,13.8,9.6,21c-0.2,0-0.2,0-0.4,0.2
	c1.4-6.6-6-11.2-11.2-6.8c-1.6-5.2-7.6-6.6-11.4-4C98.3,56.3,102.9,51.1,109.9,52.1z M99.5,63.7c1.4-1.2,2.8-1,4,0.4
	c2,0.6,2.8,1.8,3,3.8c-3.4-1-7-1.4-10.2-0.8C96.7,65.5,97.7,64.5,99.5,63.7z M72.5,59.5c1-3.2,4.2-5.2,7.4-5.8c6.2-1,9.4,3.4,12,8.2
	c-1-0.6-2.4-0.8-3.6-0.4c-2.2,0.6-3.6,2.2-4,4.2c-1.8-1.6-3.8-2.6-6.2-1.4c-2.4,1.2-3,3.4-2.8,5.6c-0.8-0.6-1.6-1.2-2.4-1.6
	C71.7,65.3,71.9,61.3,72.5,59.5z M55.1,74.1c4.2-7,10.8-5.2,16.6-2.4c-1.6,0-3.4,0.4-4.4,1.8c-2,2.4-1.2,5.4,0.4,8
	c-3.4,0.2-6.4,2.4-7,6.2c-0.4,2.2,0.6,4.4,2.2,6c-1-0.2-1.8-0.4-2.8-0.4C54.9,88.7,51.7,80.1,55.1,74.1z M62.3,121.7
	c-5.2,0-8.6-1.8-10.2-7c-2.2-7.4,0.8-16.2,8-18c0.4,0.2,0.8,0.2,1.2,0.4c-1,1-1.8,2.4-1.8,4c0,4,3.2,6,6.6,7
	c-4.2,3.8-0.8,12.2,4.8,12.8C68.1,121.5,65.3,121.7,62.3,121.7z M93.9,145.7c-4.2,3.8-12,2.8-16.6,0.2c-9-5.2-7.4-13.8-4.2-21.6
	c0,2.2,1.2,4.6,3.2,5.8c2.8,1.8,6.2,1.2,8.6-0.6c0.2,3.2,2.8,6.4,6,7c4,0.8,6.8-1.6,7.8-4.8C99.7,136.7,97.9,142.1,93.9,145.7z
	 M100.9,127.7c3.6-0.4,7.2-1.6,10.6-3.2c1,3.8,1,7.2-4.6,6.8C104.1,131.3,102.3,129.9,100.9,127.7z M122.9,139.1
	c-8.2,3.4-14.6-1.2-20.4-6.4c1.6,0.8,3.4,1.2,5.2,1c6.2-0.2,6.8-3,6.6-7.4c5.6,3,12.8-2.8,12.4-7.4c0.8,0.4,1.6,0.8,2.4,1.2
	C132.5,127.3,131.3,135.5,122.9,139.1z M147.3,110.9c-2,3.8-4.8,7-9.2,7.8c-2.4,0.4-4.8-0.2-7.2-0.8c1.4-0.6,2.6-1.4,3.6-2.8
	c2.8-4,1.4-8-1.6-11c3-0.8,5.8-1.2,5.6-5.4c0-2.2-1.2-4-2.8-5.4C145.7,92.3,151.9,102.1,147.3,110.9z"/>
</svg>
