<?xml version="1.0" encoding="utf-8"?>
<!-- Generator: Adobe Illustrator 18.1.1, SVG Export Plug-In . SVG Version: 6.00 Build 0)  -->
<svg version="1.1" id="Capa_1" xmlns="http://www.w3.org/2000/svg" xmlns:xlink="http://www.w3.org/1999/xlink" x="0px" y="0px"
	 viewBox="0 0 200 200" enable-background="new 0 0 200 200" xml:space="preserve">
<g>
	<path fill="#1D1D1B" d="M125.9,128.2c8.6-8.4-2-21.4-11.2-26.4c0-0.2,0-0.6-0.4-0.8c-1.6-0.8-3.4-1.4-5.2-2c-1.4-0.4-3-0.8-4.4-0.2
		c-0.8-0.6-1.8-1-2.8-1c-0.6,0-0.8,0.4-1,0.8c-0.2,0-0.6,0-0.8,0.2c0.4-2.4,0.2-4.8,0-7.2c0.4-0.4,0.4-1.2-0.2-1.6
		c-0.2-1.6-0.4-3-0.4-4.6c-0.2-4.2,0-8.6,0.2-12.8c1.8,4.2,7.2,7.6,11.2,4.6c1.8-1.4,2.4-3.8,2-5.8c-0.2-1.4-0.8-2.4-1.6-3.4
		c0.2,0,0.4,0,0.4,0c2.2-0.4,5.2-1.6,6.2-3.8c1-2-0.6-4.2-2-5.4c-1.2-1-2.4-1.6-3.8-2c2.8-2.2,4.4-6.6,1.2-9
		c-4-3.2-8.8,0.8-10.8,4.6c-0.4-1-0.8-2.2-1.2-3.2c-0.4-1-0.8-2.2-1.6-3c-1.8-1.6-4.6-1-6.2,0.4c-1.6,1.6-2.6,5-2,7.6
		c-3.6-0.6-7.4,0.4-8.4,4.6c-0.4,2.4,0.8,4.6,2.8,5.8c0.8,0.4,1.8,0.8,2.6,0.8c-3,2-5,5.4-2.4,8.6c3,3.6,8.2,1.2,11.4-1.8
		c-0.8,4.2-1.4,9.2-1.2,14c-2.6-1.6-5.6-2.4-8.6-2.4c-2.4,0-8.8,0-9.6,3.2c-0.8,3.4,5.6,5,7.6,5.4c3.4,0.8,7.8,1.2,11.4,0.2
		c0.4,2.2,1.2,4.4,2.2,6.2c-2.2,0.4-4.2,1.6-5.6,3.2c-11.2,2.4-29.6,15.6-20,27.8c3.8,5,11.2,4.4,15.8,0.8c-1.8,7.6-2.4,15-1.2,23
		c0.2,0.8,1.2,1.4,2,1.2c2-0.8,2.4-3,4-3.8c1.6-1,3,0.4,4.4,0.8c0,0.2,0.2,0.6,0.2,0.8c0.4,1.4,2.4,0.8,2.2-0.6c0-0.2,0-0.6-0.2-0.8
		c0.2-0.4,0.2-1-0.2-1.2c-1-6.4-2.2-14.4-2.2-22c0.4,9.6,3,19.4,9,26.2c0.8,0.8,1.8-0.2,1.4-1.2c-1.8-3.8-3.4-7.2-4.6-11
		c1.8,4.6,4.4,8.6,8.4,11.6c0.8,0.6,2.4,0.4,2.2-1c0-0.2,0-0.4,0-0.4c0.2,0,0.6-0.4,0.6-0.8c0.2-1.6,0.4-3.4,0.4-5c2,0.8,4,1,6.4,1
		c1.2,0,2-1.6,1-2.6c-4.4-4.4-6.8-9.4-7.6-15.4C119.3,131,123.1,131,125.9,128.2z M90.5,90.6c-1.4,0-8.2-1.2-8.8-2.6l0,0
		c4.4,1,8.8,1.8,13.4,2.2c0.8,0,0.8-1.2,0-1.2c-4.2-0.4-8.4-1-12.6-2c2-1,7-0.4,8.4-0.2c2,0.4,3.8,1.2,5.6,1.8c0,0.4,0,0.8,0.2,1.2
		C94.7,90.4,92.7,90.6,90.5,90.6z M108.7,101.6c0.6,0,1.4,0.2,2,0.4c6.2,4.8,15.8,11,15.2,19.6c-0.4,4.4-2.4,6-5,6.2
		c-1.4-8.8-6.2-17.6-13.2-23.2l-0.2-0.2c-0.2-1-0.4-2-0.8-3C107.3,101.4,107.9,101.4,108.7,101.6z M98.9,68.8
		c-1.4,0.8-2.8,2-4.2,2.6c-1.2,0.6-3.6,1.6-5,1c-1.8-0.6-1.2-2.8-0.4-4c1-1.4,3-2,4.4-3c0.2-0.2,0.2-0.2,0.4-0.4
		c0.2,0,0.2,0,0.4-0.2c1-0.2,0.8-1.6-0.2-1.6c-2.4,0-8.6,0-7.6-3.8c0.6-3,3.8-3.2,6.4-2.6c0.4,0.4,1,0.8,1.8,1
		c0.2,0,0.6-0.2,0.6-0.4c0.8,0,1.2-1.2,0.4-1.6c-0.4-0.2-0.6-0.4-1-0.6c-0.6-2-1-4,0.4-5.8c0.4-0.6,1.4-1.4,2.2-1.2
		c1.2,0.2,1.6,1.8,1.8,2.6c0.6,1.6,1.2,3.6,2.2,5.2c0.6,1,1.8,0.4,1.8-0.6c0.2,0,0.4-0.2,0.4-0.4c1-2.4,4.4-6.6,7.6-5.2
		c2,1,1,3.6-0.2,4.8c-1,1-2.4,1.6-3.2,2.8c-0.4,0.4,0,1.2,0.6,1.4c0.2,0.2,0.4,0.4,0.8,0.4c1.6,0,3.2,0.6,4.6,1.6
		c0.6,0.4,1.2,1.2,1.4,2c0.2,1-0.4,1-1.2,1.4c-1.4,0.8-3.2,1-4.8,1c-1.4,0-2.4-0.6-3.6,0c-0.6,0.2-0.6,1-0.4,1.6
		c0.6,1.2,1.8,1.6,3.2,1.8c1.6,2.4,3.4,6-0.2,6.6c-3.4,0.6-4.8-3.4-6.8-5.2c-0.6-0.6-1.2-0.6-1.8-0.2C99.7,68.8,99.3,68.6,98.9,68.8
		z M79.5,130.4c-1.8-0.4-3.4-1.8-4.4-4.6c-3.4-9.8,9-17.4,17.4-21.2c0,0.4-0.2,0.6-0.2,1c-0.2,1,0,2,0.4,2.8
		C85.1,112.8,78.9,121.6,79.5,130.4z M82.7,130.4c1.4-8.2,3.8-15.2,10.6-20.8c0.4,0.6,1,1.2,1.6,1.6c-0.8,4.4-1.4,9-3.6,12.8
		C89.5,127,86.1,129.6,82.7,130.4z M96.3,127.6c-0.4,7.2,0,14.2,1.4,21.2c-1-1-2-2.2-3.8-1.8c-1.6,0.4-2.2,2-3,3.2
		c-0.8-6.8-1-14-0.2-20.6c4.4-4.4,5.8-10.8,6.4-17c0.6,0.2,1.2,0.2,2,0.4C96.7,117,96.7,123,96.3,127.6z M97.5,108.6
		C97.5,108.4,97.5,108.4,97.5,108.6c0-0.8-0.6-1.2-1.2-1.2c-0.2-0.6-0.4-1.2-0.2-1.8c0.8-2.6,3.8-3.8,6-5c0.4,0.2,0.8,0.6,1,0.8
		c0.8,1,1.2,2.2,1.2,3.4c0,2.4-1.8,4-4,4.4C99.5,109.2,98.3,109,97.5,108.6z M118.9,144.6c-1-0.2-2.2-0.4-3.2-1
		c-0.8-0.4-2.2,0-2,1.2c0.2,1.6,0.2,3.4,0.4,5c-0.4,0-0.8,0.2-1,0.6c-9.8-9.8-9-25-11.2-38c0.8-0.2,1.6-0.6,2.2-1
		c0.6,5.8,2.8,11.6,7.2,15.4c0.6,0.4,1,0.8,1.6,1.2C112.9,134.2,115.1,140,118.9,144.6z M109.3,120.8c-2-3.2-3-7-3.6-10.6
		c1-1,1.6-2.2,1.8-3.6c5.6,6.2,8.8,12.8,10.6,20.8C114.5,126,110.7,123.2,109.3,120.8z"/>
	<path fill="#1D1D1B" d="M103.7,60.4c-1-0.6-2.6-0.8-3.6,0c-2.2,0.2-3,2.6-1.8,4.4c1.2,1.8,4,2,5.6,0.6
		C105.3,64,105.5,61.6,103.7,60.4z M102.5,63.6c-0.6,0.6-1.4,0.8-2.2,0.4c-0.6-0.4-0.8-1-0.6-1.6c0.4,0.2,0.8,0.2,1,0
		C101.7,61.4,103.5,62.4,102.5,63.6z"/>
</g>
</svg>
