<?xml version="1.0" encoding="utf-8"?>
<!-- Generator: Adobe Illustrator 18.1.1, SVG Export Plug-In . SVG Version: 6.00 Build 0)  -->
<svg version="1.1" id="Capa_1" xmlns="http://www.w3.org/2000/svg" xmlns:xlink="http://www.w3.org/1999/xlink" x="0px" y="0px"
	 viewBox="0 0 200 200" enable-background="new 0 0 200 200" xml:space="preserve">
<g>
	<path fill="#1D1D1B" d="M136.5,119.3c-0.6-0.2-1.2-0.6-1.8-0.8c-5.4-13.4-26-20-35-8.4c1-8.2,0.2-16.6-2.8-24.2
		c3.8,0.8,7.8,0.4,10.8-2c0.4,0,0.8-0.2,1-0.4c0.2-0.4,0.4-0.6,0.6-1c0,0,0,0,0.2-0.2s0.2-0.4,0-0.6c0.4-2.8-2.2-6-4.2-7.6
		c-1.8-1.2-3.6-2-5.6-2.2c1.8-1.2,3.2-2.8,4.4-4.2c1.8-2.4,3-6.8,0-8.4c0-0.2,0-0.4-0.2-0.6c-3.6-3.2-8-0.4-11.2,3.4
		c0.2-1.4,0.2-2.8,0-4.2c-0.4-3.2-2-5-4.4-6c0-0.4-0.2-1-0.8-1c-7.8-0.2-6.6,11.4-4.8,16.8c-2.6-3.6-7.8-5.4-12.2-5
		c-1.2,0-5.4,1.2-5.6,2.8c-3.6,2-1,8.2,1.2,10.4c2.4,2.2,5.2,3.4,8.4,3.6c-4.2,3.8-8.2,9.8-4.6,13c0,0.2,0,0.4,0,0.4
		c1.4,4,7.4,2.6,9.8,0.8c1-0.8,2-1.8,2.6-3c1.2,3.2,3.6,5.8,7,5.4c-0.2,0.8,0.6,2,1.6,1.6c3.2-1.2,5-4.8,5-8.2c0-1.6-0.4-3-0.8-4.2
		c0.2,0,0.4,0.2,0.6,0.2c3.2,23.8-1.8,43.2-18,61.4c-1.2,1.2,0.6,2.8,1.8,1.8c9-7,15.4-17.6,18.6-29.2c7.8,9.8,28.6,8.4,37.8,2.8
		c0.6-0.4,0.8-1,0.8-1.6C136.9,120.5,137.1,119.7,136.5,119.3z M102.1,60.1c0,0.2,0.2,0.2,0.4,0.2c2.8,1.2,0.8,4.6-0.6,6.2
		c-1,1-2.2,2.2-3.4,3c-1.8,1.2-3.6,2-5.6,2.8c-0.2-1.4-1.2-3-2.4-3.8C92.9,64.3,96.9,59.9,102.1,60.1z M87.3,52.9
		c4.8,3.6,2.4,9.8,1.4,14.8c0,0,0,0-0.2,0l-0.2-0.2c-1.2-0.2-2.4-0.2-3.6,0.2C83.3,63.5,81.9,53.3,87.3,52.9z M70.1,74.9
		c-3.2-2.2-3.8-4.8-3-8.4c0-0.2,0-0.4-0.2-0.6c1.8-0.6,7.2,0,7.6,0c2.6,0.8,4.2,2.2,6.4,3.6c-1,0.8-1.6,2-1.8,3.4
		c-0.2,1.2,0,2.2,0.2,3.4c-0.6,0.2-1,0.6-1.6,0.8C75.1,77.1,72.3,76.5,70.1,74.9z M81.3,86.5c-0.6,1.4-1.2,2.6-2.4,3.6
		c-1,1-2.6,1.8-4.2,1.8c-1.2,0-2-0.6-3-0.8c-2-5.2,5.8-9,8.8-12.6c0.4,0.6,1,1,1.6,1.4C81.5,81.9,81.1,84.1,81.3,86.5z M82.1,72.7
		c0.8-1.8,2.4-3,4.4-3.6c0,0.2,0.2,0.2,0.4,0.2c1,0.2,2,0.2,2.8,0.6c1.2,0.6,1.6,2,1.6,3.2c-0.2,0.2-0.2,0.6-0.2,1
		c-0.4,1-1.2,2-2.2,2.8c-0.6-0.4-1.2,0.2-1.4,0.8c-0.8,0.4-1.6,0.4-2.4,0.2c-0.2-0.2-0.4-0.4-0.8-0.2C82.1,76.9,81.3,74.5,82.1,72.7
		z M90.1,95.3C90.1,95.3,90.1,95.1,90.1,95.3c-3.6-0.4-5-4.6-5.6-7.4c-0.4-2.4,0.2-4.8,0.4-7l0,0c1,0,2.2-0.2,3-0.8
		c0.8,1.2,1.8,2.4,3,3.2C93.1,87.5,93.9,91.7,90.1,95.3z M90.7,78.3c0.8-0.8,1.6-2,2-3c0.8-0.2,1.6-0.4,2.6-0.6
		c2.6-0.4,5.4,0,7.6,1.4c1.2,0.8,2.4,1.8,3.2,3c0.6,1,0.8,2.2,0.8,3.4c-3,1.2-6.2,1.2-9.2,0.2C94.9,81.7,92.9,79.9,90.7,78.3z
		 M130.3,116.7c-1.6-0.6-3.4-1-5.2-1.4c0.8-0.6,1.6-1.4,2.2-2C128.3,114.3,129.3,115.5,130.3,116.7z M125.7,111.7c-1,1-2,2-3,3
		c-2-0.4-3.8-0.8-5.8-1c2-1.4,4-2.8,5.8-4.2C123.9,110.1,124.9,110.9,125.7,111.7z M116.7,107.3c1.4,0.2,2.8,0.6,4,1.2
		c-2.2,1.6-4.2,3.2-6.4,5c-1.6-0.2-3.4-0.4-5-0.4c1.8-1.2,3.4-2.6,4.8-4.2c0.6-0.6-0.2-1.8-1-1.2c-2.2,1.6-4.2,3.4-6.2,5.2
		c-2.2,0-4.4,0-6.6,0C104.7,108.3,110.3,106.1,116.7,107.3z M98.5,116.5c0-0.4,0.2-0.8,0.4-1.4c0.2-0.2,0.4-0.4,0.6-0.8
		c0.8,0,1.6,0.2,2.4,0.2c0,0.2,0,0.2,0,0.4c0.6,1.8,1.4,4,2.6,5.6C102.1,119.9,100.1,118.5,98.5,116.5z M106.7,121.7
		c-1.2-2.2-2.6-4.4-3.6-6.8c2.2,0.2,4.2,0.6,6.4,1c0.8,2.2,1.8,4.8,3.4,6.8C110.7,122.5,108.7,122.3,106.7,121.7z M115.1,122.7
		c-0.6-0.8-1.4-1.6-2-2.6c-0.8-1.2-1.6-2.6-2.2-4c2.2,0.4,4.4,0.8,6.6,1.2c1,1.2,2,2.2,3.2,3.4c0.4,0.4,0.8,1,1.2,1.4
		C119.5,122.5,117.3,122.7,115.1,122.7z M124.1,121.7c-0.6-0.8-1.6-1.6-2.2-2.2s-1.2-1-1.8-1.6c3.8,0.8,7.8,1.6,11.6,2.2
		C129.5,120.7,126.9,121.3,124.1,121.7z"/>
</g>
<g>
	<path fill="#1D1D1B" d="M165.2,70.4c-6-14.1-21.7-21.3-36.5-19.8c-15.8,1.6-28.1,12.9-34.4,26.9c-6-26.8-47-29.6-59.3-4.2
		c-16.8,34.6,27.7,69.8,57.1,75.7c0.5,0.4,1.2,0.6,2,0.3C124,138.9,183.4,112.8,165.2,70.4z M161.7,87.7
		c-3.9,34.5-44.1,43.3-69.4,57.2c-0.5,0.3-0.7,0.6-0.9,1c-22-11.8-45.7-22.2-52.8-48.9c-4.3-16.3,3.8-33.3,21.1-36.6
		c16.5-3.2,27.2,10.2,31.3,24.3c0.7,2.2,4.1,1.9,4.1-0.5c6.8-13.6,18.3-26.6,34.4-28C148.1,54.6,163.8,68.7,161.7,87.7z"/>
	<path fill="#1D1D1B" d="M80.5,120.9c-3.8-4.8-9.8-6.1-15.6-5.3c4.4-11.4,4.4-24.1-2.1-34.8c-0.4-0.6-1.4-0.2-1.1,0.5
		c4.5,12,5.1,24.1-1,35.8c-0.7,1.3,0.4,2.9,1.9,2.5c6.4-1.8,11.1,0.1,16.5,3.2C80.3,123.4,81.3,121.9,80.5,120.9z"/>
	<path fill="#1D1D1B" d="M102.8,104.1c-1.3-2.6-4.3-3.6-7-2.9c-2.9,0.8-4.6,3.4-5.7,6.1c-0.2-2.2-1.1-4.2-3.3-5.2
		c-2.5-1.1-5.2-0.1-6.3,2.4c-2.8,5.8,3.8,15.1,8.6,17.8c1.2,0.7,2.2-0.8,1.4-1.8c-1.9-2.4-4.2-4.3-5.7-7c-0.7-1.2-1.4-2.6-1.8-4
		c-0.4-1.2-0.5-2.4-0.3-3.6c3.9-1.6,5.9-0.7,5.9,2.9c0.1,1,1.5,1.1,1.6,0.1c0.5,0.4,1.4,0.5,1.7-0.2c0.9-2.1,2.3-4.5,4.7-4.9
		c3.9-0.8,4.5,3.5,2.8,6c-2.5,3.6-6.9,4.7-9.8,7.6c-1.1,1.1,0.1,2.6,1.4,2.4c3.7-0.6,7.9-4.2,10.3-7
		C103,110.3,104.2,107,102.8,104.1z"/>
	<path fill="#1D1D1B" d="M117.5,98.6c-5.2,3.4-3.2,11.8-5.3,17.6c-2.3-5.3-3.6-11-3.9-16.8c-0.1-1.4-2.1-1.4-2.2,0
		c-0.3,7.6,1.1,14.8,4.3,21.7c0.5,1,2.1,1.2,2.8,0.4c2.4-2.7,3.4-5.8,3.9-9.4c0.3-2.1,0.4-4.3,0.8-6.5c0.4-2,1.3-3.8,1.4-5.8
		C119.5,98.8,118.3,98.1,117.5,98.6z"/>
	<path fill="#1D1D1B" d="M138.3,97.2c-4.1-2.6-9.1-0.2-11.6,3.4c-2.7,3.9-4.8,10.6-2.1,15c2.1,3.4,7.4,4.3,9.8,0.8
		c1.3-1.9-1.4-3.5-2.9-2.3c-2.9,2.3-4-1.7-4-4.1c1.6,0.1,3.2,0.2,4.8,0.3c1.8,0.1,3.8,0.5,5.5-0.1c0.4-0.1,0.7-0.4,0.9-0.8
		c0,0,0.1-0.1,0.1-0.1C140.9,105.6,142.8,100.1,138.3,97.2z M132.1,107.3c-1.5,0.1-2.9,0.2-4.4,0.2c0.5-1.8,1.2-3.6,2.3-5.1
		c1.3-1.8,4.4-3.6,6.5-1.8c1.7,1.5,1,4.4,0.2,6.5C135.3,106.9,133.7,107.2,132.1,107.3z"/>
</g>
</svg>
