<?xml version="1.0" encoding="utf-8"?>
<!-- Generator: Adobe Illustrator 18.1.1, SVG Export Plug-In . SVG Version: 6.00 Build 0)  -->
<svg version="1.1" id="Capa_1" xmlns="http://www.w3.org/2000/svg" xmlns:xlink="http://www.w3.org/1999/xlink" x="0px" y="0px"
	 viewBox="0 0 200 200" enable-background="new 0 0 200 200" xml:space="preserve">
<path fill="#1D1D1B" d="M156.5,104.1c-2.2-0.6-4.2-1.4-6.2-2.6c2.4-1.6,4.6-4,6.8-5.8c0.4-0.4,0.2-1.2-0.4-1.4
	c-5.2-2-14.4-1.6-16.2,5c-3.6-0.2-7.2-0.2-10.6-0.2c3.4-6.6,2.6-14.2-1.6-20.6c-3.8-6-11-10-18.2-8c-6.6,1.8-10,7.4-12,13.6
	c-2.6-4.8-6.4-9-12.2-9.8c-6.8-1-12.6,3.8-15.4,9.6c-2.2,4.6-2.6,9.4-1.8,14c-4.2-0.2-8.4,0-12.6,0.4c1.6-1.4,3.2-2.8,4.6-4.2
	c1-1,0-3.4-1.6-2.6c-5.2,2.2-10.4,3.8-15.6,5.8c-1.4,0.6-2.2,3-0.4,3.8c5.4,2.4,11,4.6,17,6c2.2,0.4,3.2-2.2,1.4-3.4
	c-1.2-1-2.4-2-3.8-2.8c3.8,0.4,7.6,0.8,11.6,1c3.6,10.6,13.6,20.6,23.2,26.2c0.2,1.4,2.2,2.6,3.8,1.4c10.4-8,23.8-16.8,31.8-27.4
	c0.2-0.2,0.2-0.2,0.2-0.4c3.8,0.6,7.6,1,11.4,1.2c1,6,11.8,5.4,16,5.4C158.3,108.3,158.7,104.9,156.5,104.1z M121.9,102.1
	c-8.8,8.6-19,15.8-28,24c-7.8-6-15.2-13.6-19-22.6c-0.2-0.6-0.6-1.4-0.8-2c0.8,0,1.4,0,2.2-0.2c1.2-0.2,1.8-2.2,0.4-2.4
	c-1-0.2-2.2-0.4-3.4-0.4c-1-4.6-1-9.2,1.4-13.6c3.2-6.4,8.8-7.4,17-3.2c2.4,2.6,4,5.6,5,9c0.6,1.6,3.4,2,3.8,0
	c1.8-8.4,5.6-17,16.2-16c4.8,0.4,9.8,7.4,10.4,11.8C127.9,92.5,126.1,97.9,121.9,102.1z"/>
</svg>
