<?xml version="1.0" encoding="utf-8"?>
<!-- Generator: Adobe Illustrator 18.1.1, SVG Export Plug-In . SVG Version: 6.00 Build 0)  -->
<svg version="1.1" id="Capa_1" xmlns="http://www.w3.org/2000/svg" xmlns:xlink="http://www.w3.org/1999/xlink" x="0px" y="0px"
	 viewBox="0 0 200 200" enable-background="new 0 0 200 200" xml:space="preserve">
<g>
	<path fill="#1D1D1B" d="M145.3,67.1c-1.4-11.4-11.8-18.6-23-18.2c-10.6,0.4-18.6,7.6-22.6,16.8c-4-7.6-10.2-13.6-19.2-15
		c-10.4-1.6-19.4,4.4-23.4,14c-9,22,6.6,42,26.6,48.8c-2.4,1.8-3,5-1.8,8c0.2,0.4,0.4,0.6,0.6,1c-1.4,3.8-1.6,8.2,0.8,11.4
		c-4.8,6.8,0.4,16,8.4,17c4.2,0.6,8.4-1,11.2-3.8c2.8-2.8,5.2-7.4,4-11.4c-0.2-0.4-0.6-0.8-1-1c3-3.4,4.2-8.2,2-12.8
		c0.2-0.2,0.4-0.4,0.4-0.6c1.2-2.4,1.6-6.2,0-8.6c5.6-3.4,10.8-7.6,14.4-10C134.3,94.5,147.3,82.9,145.3,67.1z M101.5,142.3
		c-1.6,2.8-4.4,4.6-7.6,4.8c-6.6,0.6-10.8-5.4-9-11.2c3.2,2.6,8,3.6,12,3.4c2.4-0.2,4.8-1,6.6-2.2
		C102.9,138.7,102.5,140.5,101.5,142.3z M95.3,135.3c-3,0-7-0.8-9.2-3c-1.8-2-2-4.6-1.8-7.2c2.6,2.2,6.6,3,10,2.8
		c3.6,0,7.4-0.8,10.4-2.8C105.9,130.7,101.9,135.5,95.3,135.3z M104.3,119.9c-1.8,2.8-5.6,3.6-8.6,3.8c-2.6,0.2-5.4,0.2-7.8-1.2
		c-2.4-1.4-3.6-4.6-2.6-7c3.6,2.8,7.8,3.2,12,2.2c0,0.2,0.2,0.2,0.2,0.4c0.4,0.8,1.6,0.2,1.4-0.6v-0.2c1.8-0.6,3.8-1.4,5.6-2.4
		C105.3,116.5,105.7,117.9,104.3,119.9z M85.7,92.7c3.2-3.8,7.6-6.2,13-6.2c1.8,0,3.4,0.4,4.8,1c-1.2,2.2-2.2,4.4-3,6.6
		c-1.8,4.8-4.6,11.4-4.6,17.2c-0.6,0.2-1.2,0.4-1.6,0.6C92.5,105.5,89.7,98.5,85.7,92.7z M136.7,80.9c-4.4,8-12.8,13.6-20.2,18.4
		c-5,3.2-11.2,8.2-17.6,11c1-5.8,3.8-12.2,5.6-16.2c0.8-1.8,1.6-3.6,2.6-5.2c1.6,0.8,3.2,1.4,5,2c4.2,1,9-0.2,10-4.8
		c0.4-2-2.2-3.2-3.2-1.4c-2,3.2-6,2.4-9.8,1c2.4-3.8,5.4-7.4,8.6-10.6c1-1.2-0.4-3.2-1.8-2.2c-4.2,3.2-7.6,7.2-10.4,11.6
		c-1.4-0.6-2.8-1-3.8-1c-3.4-0.4-7,0.2-10,1.4c-3,1.2-5.6,3.2-7.4,5.6c-2.2-2.8-4.6-5.2-7.6-7.2c-0.8-0.6-2,0.6-1.4,1.4
		c2.2,3.2,4.6,6.4,6.8,9.6c-0.8,1.8-1.6,3.8-1.8,6c-0.2,1.2,1.6,1.8,1.8,0.6c0.4-1.4,1-2.8,1.6-4.2c3.4,5,6.2,10,8.4,16
		c-0.4,0-1,0-1.4,0.2c-15-5.4-29-17.6-29.6-34.6c-0.4-9.8,4.4-21.4,16-21.8c11-0.4,17.8,9.6,20.4,18.8c0.8,2.6,5,3,5.8,0
		c2.2-10.2,9.2-20.8,20.8-20.6C137.7,54.7,142.9,69.3,136.7,80.9z"/>
</g>
</svg>
