<?xml version="1.0" encoding="utf-8"?>
<!-- Generator: Adobe Illustrator 18.1.1, SVG Export Plug-In . SVG Version: 6.00 Build 0)  -->
<svg version="1.1" id="Capa_1" xmlns="http://www.w3.org/2000/svg" xmlns:xlink="http://www.w3.org/1999/xlink" x="0px" y="0px"
	 viewBox="0 0 200 200" enable-background="new 0 0 200 200" xml:space="preserve">
<g>
	<path fill="#1D1D1B" d="M148.4,58.4c-5.2,3-10.6,5.2-16.2,7.2c-2.4,0.8-2.2,5,0.6,4.6c0.6,0,1.2,0,1.8-0.2c-1,1-2,1.8-3,2.8
		c-2,2-4.4,4-6,6.4c-9.8-9.2-27.4-7.2-30.8,8.2C88.2,69.4,63,76,57.2,91.8c-4.6,12.4-0.4,23.2,7.4,32c-2.2,1.8-4.2,3.6-6.4,5.4
		c-0.4-0.2-0.6-0.2-1-0.4c-2.4-0.2-4.8-0.8-7.2-0.6c-2.2,0-2.4,2.8-0.4,3.6c1.6,0.6,3.2,1,4.8,1.4c-0.6,2.8-0.8,6.6,1.4,7.6
		c0.6,0.2,1.4,0.4,2,0c1.4-1.2,1.4-2.2,1.4-4c0-1.6,0.2-3,0.4-4.6c2.6-1.8,5.2-3.4,7.6-5.4l0.2-0.2c7,6.8,16.2,12,24.4,15.2
		c1,0.4,1.6-0.4,1.8-1.2c0.2,0,0.6,0,0.8-0.2c17.2-11,46.8-28.8,36.2-54c-0.8-2-2-3.8-3.2-5.4c2.4-1.2,4.6-3.4,6.6-5.2
		c2-1.6,4-3.2,6-4.6c0.6,2.2,1.4,4.4,2.4,6.4c0.8,1.8,2.4,3.4,4.4,2.4c2.4-1,2.2-4.6,2.6-6.6c0.8-4.2,1.6-8.2,2.4-12.4
		C152.2,59,150.2,57.2,148.4,58.4z M126.2,107.4c-6.8,14-21.4,21.4-33.4,30.2c-0.4,0.4-0.6,0.6-0.8,1c-13.8-6.4-28.2-14.6-32-30.4
		c-2.2-9.2,0.2-19.6,8.2-25c9.4-6.6,20.6-2.4,25.6,7.2c0.4,0.8,1.4,0.4,1.8-0.2c0.4,0,0.8-0.2,1-0.6c3.2-11,15.6-17.6,25.4-9.4
		C130.2,86.6,130.6,98.2,126.2,107.4z"/>
	<path fill="#1D1D1B" d="M79.6,86.4c-3-3.4-8.4,1.4-10.6,3.8c-3,3.2-6.2,9.2-3.8,13.4c0.8,1.6,2.8,1,3.4-0.4c1.2-3,0.8-6,2.8-8.8
		c1.4-1.8,5.2-6.6,7.6-6.4C79.8,88,80.2,86.8,79.6,86.4z"/>
</g>
</svg>
