<?xml version="1.0" encoding="utf-8"?>
<!-- Generator: Adobe Illustrator 18.1.1, SVG Export Plug-In . SVG Version: 6.00 Build 0)  -->
<svg version="1.1" id="Capa_1" xmlns="http://www.w3.org/2000/svg" xmlns:xlink="http://www.w3.org/1999/xlink" x="0px" y="0px"
	 viewBox="0 0 200 200" enable-background="new 0 0 200 200" xml:space="preserve">
<g>
	<path fill="#1D1D1B" d="M92.4,79c-1.6-0.6-3.4-0.6-5.4-0.6c0.2-0.2,0.4-0.6,0.4-1c-0.6-8.6-3.4-22.6-15-21.4
		c-11,1-13.8,13.8-13.2,23c-1.4,0-2.8,0-4.4,0c-1,0-1.4,0.8-1.2,1.6c-0.4,0-1,0.2-1,0.8c-0.6,9.6,0.2,19,1,28.6
		c0,0.8,0.6,1.4,1.4,1.4c6.2,0.2,12.6,0.2,18.8,0.4c5.2,0,11.4,1,16.4,0.2c7.2-1.2,5.2-9.2,5.2-14.8C95.4,91.8,98.2,80.8,92.4,79z
		 M71.6,59.4C82,56.6,84.4,70.2,84.8,77.2c0,0.6,0.4,0.8,0.6,1c-1.8,0-3.6,0.2-5.2,0.4c1.2-5.2-0.4-14-7.2-13.4
		c-6,0.6-8.8,8.2-6.4,13.4c-1.6,0-3.2,0-4.8,0C62.4,71.4,63,61.6,71.6,59.4z M77.6,78.8c-0.2,0-0.6,0-0.8,0c-3,0-5.8,0-8.8,0l0,0
		c1-3.6,0-8.6,4.6-10.2c5.6-1.8,5.6,6.8,5,10L77.6,78.8z M89.4,108.4c-3.4,1.4-10.2-0.2-14-0.2c-4.4,0-8.6-0.2-13-0.2
		c-7.2,0-6.4-3.4-7-9.8c-0.4-5.8-0.6-11.4-1-17.2c0.2,0.2,0.4,0.2,0.6,0.2c9.8,0,21.4-1.8,31,0c3.6,0.6,5.6,0.4,6.6,5
		c0.4,2,0,5.2,0,7.2C92.4,97.8,94.2,106.4,89.4,108.4z"/>
	<path fill="#1D1D1B" d="M128,77c-0.6-9.8-12-15.2-19.6-8.4c-8.6,8-3.2,21,5.6,26c-7.4,12.8-14.6,26.2-21,39.4
		c-0.2,0.6-0.2,1.2,0.2,1.4c-0.4,0.4-0.4,1,0.2,1.2c2.8,1,5.6,1.8,8.2,3c1.8,0.8,3.6,1.8,5.4,2.6c-0.6,1.2,1.2,2.4,2,1.4
		c1-1.4,2-2.8,3-4.2c0.4-0.6,0-1.6-0.8-1.8c-2.8-0.8-5.6-1.8-8.2-3l1.2-2.8c1.8,1.2,3.8,2.4,5.6,3.6c0.6,0.4,1.6,0.2,1.8-0.4
		c0.8-1.4,1.8-2.4,2.4-3.6c0.2-0.2,0.2-0.6,0-0.8c0.4-0.2,0.6-0.8,0.2-1.2c-0.6-1-1.6-1.2-2.6-1.4c-0.8-0.2-1.6-0.6-2.2-0.8l0,0
		c0.2-0.4,0.4-1,0.8-1.4c2.2,1.2,4.4,2.4,6.6,3.6c0.6,0.4,1.4,0.2,1.8-0.4c0.8-1.4,1.6-2.8,2.6-4.2c0.4-0.6,0.2-1.6-0.6-2
		c-2.8-1.4-5.6-2.6-8.6-3.4c5-5.6,10.2-12,11-19.6c8.8,1,24.4-4.4,24.6-14.2C148.4,74.2,135.6,72.2,128,77z M142.4,89.6
		c-5.6,5.2-13.6,5.6-20.4,7.2c-0.6,0.2-1,0.8-0.8,1.4c-0.2,0.2-0.2,0.2-0.4,0.4c-2.4,7.4-6.2,13.2-10.6,19.6c0,0.2-0.2,0.2-0.2,0.4
		c-1,0.6-1.2,2.2,0.2,2.6c2.6,1,5.4,1.8,8,3c-0.4,0.6-0.6,1.2-1,1.8c-2.2-1-4.4-2-6.8-2.8c-0.4-0.2-0.8,0.2-1,0.4
		c-0.6,1-1.2,2-1.4,3v0.2c-0.2,0.4-0.2,1,0.4,1.4c0.6,0.6,1.8,1,2.6,1.4c0.4,0.2,0.6,0.2,1,0.4c-0.8,0.6-1.4,1.4-1.8,2.2
		c-1.8-1-3.8-2.2-5.8-3.2c-0.6-0.4-1.4,0-1.8,0.6c-0.4,1.4-1,2.6-1.4,4c-0.8-0.2-1.4,0.8-0.6,1.2c0.2,0.2,0.4,0.2,0.6,0.4
		c0,0,0,0,0.2,0c2.4,1.6,5,2.8,7.8,4c-0.2,0.2-0.4,0.4-0.6,0.6c-1.8-1-3.8-1.6-5.8-2.4c-2.6-1-5.4-1.8-8-2.2L95,135
		c8.4-12.6,16.2-27.2,21.4-41.6c0.4-0.8-0.8-1.4-1.4-1c-5-4.4-9.2-10.4-6.8-17.6c1.2-3.6,4.8-6.6,8.8-6.4c5.4,0,7.2,5.2,8.8,9.4
		c0.2,0.4,0.4,0.6,0.6,0.6c0,0.8,0.8,1.6,1.8,1c3.6-2,8-3.4,11.8-1.6C144.8,80.4,146.2,86,142.4,89.6z"/>
	<path fill="#1D1D1B" d="M135.8,80.2c-1.4,0-2.8,0.4-4.2,1c-3.4,1.2-5.2,2.2-8.6,1.2v-0.2c1.4-7.4-8.6-11.2-12.4-4.6
		c-4.4,7.4,7.4,15.2,13.6,16c0.2,0,0.4,0,0.4,0c3.4,0.6,7.2-0.8,10.4-2c2.8-1.2,6.4-3.2,6.2-6.8C141.2,81.6,138.6,80.2,135.8,80.2z
		 M137.2,88c-1.2,1-3.2,1.6-4.6,2c-2.6,1-5.2,1.4-8,2c-4.2-1.8-8.4-3.6-11.2-7.6c-2.2-3.2-1.8-7.6,2.6-8.4c3.4-0.6,5.4,2.6,5.2,5.8
		c0,0.2,0,0.4,0.2,0.6c-0.2,0.4-0.2,0.8,0,1c4,4.2,8.6,0,12.8-1.2C138.2,81.2,140.8,85,137.2,88z"/>
	<path fill="#1D1D1B" d="M79.8,90.6c0.8-1,0.2-2.6-0.6-3.4c-1.2-0.8-2.4-0.6-3.4,0.2c-1.2,1-2.4,2-3.6,2.8c-0.6-0.6-1.4-1-2.2-1.4
		c-2-1-5.2,1.2-3.6,3.6c1,1.2,2.2,2.6,3.6,3.2c0.2,0.2,0.6,0.4,0.8,0.6c0,0.4,0.2,0.6,0.4,0.8c-0.6,1.4-1,2.8-1.4,4.4
		c-0.2,0.8,0.2,2,1,2.4c2.8,1.2,5.6-0.6,6.2-3.4c0.2-1.4,0-3-0.8-4.4l0.2-0.2C77.4,94,78.6,92.2,79.8,90.6z"/>
</g>
</svg>
