<?xml version="1.0" encoding="utf-8"?>
<!-- Generator: Adobe Illustrator 18.1.1, SVG Export Plug-In . SVG Version: 6.00 Build 0)  -->
<svg version="1.1" id="Capa_1" xmlns="http://www.w3.org/2000/svg" xmlns:xlink="http://www.w3.org/1999/xlink" x="0px" y="0px"
	 viewBox="0 0 200 200" enable-background="new 0 0 200 200" xml:space="preserve">
<g>
	<path fill="#1D1D1B" d="M126.2,144.8c3.2-2.2,4.6-7.8,2-10.6c-2-2.2-5.4,0.4-7,2c-1,1.2-1.6,2.8-1.4,4.2c-0.2-0.2-0.4-0.2-0.6-0.4
		c-2.4-1.4-4.8-2.8-7-4c1.4-0.8,2.4-1.8,3-3c1-2,1-5-1.2-6.2c-2-1.2-4.6,0.8-6,2.4c-0.8,0.8-1.4,2-1.8,3c-1.8-1.4-3.6-3.2-5-5
		c2.2-0.4,4.2-1.8,5.8-3.2c1.4-1.4,3.4-3.8,2.4-5.8c-1-2.2-4-1.6-5.8-1c-2.2,0.6-4.2,2-5.6,3.8c-0.8-2.6-1.2-5.6-1.2-9
		c1.2,0,2.4,0.2,3.4,0c0.8,0,1.8-0.8,1.6-1.6c-0.2-1.8-0.4-3.4-0.8-5c-0.2-0.8-0.4-1.6-0.8-2.2c21.2-6.4,48.4-22.8,38-48
		c-7.6-18-32.4-16.4-38.4-0.4C94,41.4,72,39.2,63.2,52.8C49.8,73.4,75.6,97.4,94,102.6c-1.6,1.8-2.6,4-3.4,6.2
		c-0.4,0.8,0.4,2,1.2,2.2c1.2,0.2,2.4,0.6,3.6,0.6c-0.8,3-0.8,6.2-0.4,9.2c-1.2-1-2.6-1.8-4.2-1.6c-1.6,0.2-3.2,1.6-3.4,3.4
		c-0.2,2,1.4,3.2,3.2,3.4c2,0.2,3.8-0.2,5.4-1c1.2,3.2,3,6.2,5.6,8.8c-2,0.8-4.6,3.2-4,5.8s4.4,2.4,6.4,1.8c1.4-0.6,2.8-1.6,3.6-2.8
		c3.2,2,6.6,3.6,9.8,5.4c-0.6,0.2-1.2,0.2-1.8,0.6c-2,1-4.6,3.2-4.2,5.6c0.2,2.4,2.8,3.2,4.8,2.4c2.6-1,4.4-3.8,4.8-6.4
		c4,2.6,7.6,5.8,9.8,10.8c0.8,1.6,3,0.4,2.8-1.2C132.2,151.2,129.6,147.6,126.2,144.8z M92.2,124.2c-0.8,0-3.2,0-3-1.4
		c0.2-1.2,1.8-1.4,2.8-1.2c1.2,0.4,2.2,1.2,3,1.8C94.2,123.8,93.2,124.2,92.2,124.2z M65.8,72c-3-9.6,0.6-20.4,11-23.4
		c11.4-3.2,18,6,21,15.4c0.6,1.8,3.2,1.4,3.4-0.4l0,0l0,0C103,53,112,43.8,123.6,47.8c10.8,3.6,13.6,16.4,10,26
		c-5.8,16-23.4,21.4-38,26.4c-0.2,0-0.6,0.2-0.8,0.4C83.2,93.6,70.2,85.2,65.8,72z M94.4,108c0.4-1.2,0.8-2.6,1.4-3.8
		c0.2,0,0.6,0,0.8,0c0.2,0,0.6-0.2,1-0.2c0.2,0.6,0.6,1.2,0.6,2c0.2,0.8,0.4,1.8,0.6,2.6C97.2,108.4,95.8,108.2,94.4,108z
		 M100.2,125.4c-0.6-1-1-1.8-1.4-2.8c1-1.2,2.4-2.4,3.8-3s6.2-2.2,5.2,1c-0.4,1.4-2.6,3-3.8,3.6C102.8,124.6,101.6,125,100.2,125.4z
		 M103.8,138.4c-0.8,0.6-4.2,1.4-3.2-0.6c0.4-1,1.8-1.8,3-2.2c0.6,0.6,1.2,1,1.8,1.4C104.8,137.6,104.4,138.2,103.8,138.4z
		 M108.2,133.4c0.2-0.8,0.6-1.8,1.2-2.6c0.8-1,2.2-2.6,3.6-2c1.8,0.6,0.8,3.4-0.2,4.4c-0.8,0.8-1.8,1.2-2.8,1.4
		C109.4,134.2,108.8,133.8,108.2,133.4z M116,149.2c-0.4,0.4-1.2,1.2-1.8,1c-1-0.4,0-1.6,0.4-2c0.8-1.2,2.2-1.8,3.6-2.2
		C117.6,147.2,117,148.4,116,149.2z M122.6,142c-1-1.6-0.6-3.2,0.8-4.4c1.2-1.2,3.4-2.4,3.6,0.2c0.2,2.6-1.4,4-3.2,5.2
		C123.4,142.8,123,142.4,122.6,142C122.6,142.2,122.6,142,122.6,142z"/>
</g>
</svg>
