<?xml version="1.0" encoding="utf-8"?>
<!-- Generator: Adobe Illustrator 18.1.1, SVG Export Plug-In . SVG Version: 6.00 Build 0)  -->
<svg version="1.1" id="Capa_1" xmlns="http://www.w3.org/2000/svg" xmlns:xlink="http://www.w3.org/1999/xlink" x="0px" y="0px"
	 viewBox="0 0 200 200" enable-background="new 0 0 200 200" xml:space="preserve">
<g>
	<path fill="#1D1D1B" d="M152.4,132.8L152.4,132.8c-1.4-5-3.8-10.2-7.2-14.2c0.2-0.6-0.4-1.2-1.2-1.2c-3.6-3.8-8.2-6.6-13.8-7.2
		c-11-1-22.2,5.6-28.4,14.4c-0.2,0-0.2,0-0.4,0c-0.2-7.2-1-14.4-2.4-21.2c1.6,1.2,3.6,1.8,5.8,0.8c1.6-0.8,2.6-2.6,2.8-4.2
		c1.4,2,4.4,2.6,6.8,1c1.4-0.8,3.4-3.6,4.2-6.2c2.2,0.8,4.8,0.6,6.8-1.4c1.6-1.8,1.8-4.2,1.2-6.4c3,1.4,6.6,1,8.6-2
		c2-2.8,1.2-5.8-0.8-8.2c3.6-0.6,6.8-3.2,6.6-7.6c-0.2-2.8-2.2-4.8-4.6-5.4c3.2-1.8,4.8-6.4,2.4-10c-1.4-2.2-4-2.8-6.2-2.2
		c0.6-2.8,0.4-5.6-2.2-7.6c-1.2-1-2.8-1.2-4.2-1c0-2.4-1.2-5-3.8-5.8c-3.4-1.2-6.6,0.8-7.8,3.8c-2.4-2.2-5.6-3.4-8.6-1.4
		c-1.2,0.8-2.2,2.2-2.4,3.8c-1.4-0.6-3-0.6-4.2,0.4c-0.8,0.8-1.2,2-1.2,3.2c-1.4-0.6-3-1-4.4-0.4c-0.6,0.2-1.2,0.4-1.8,0.8
		c0.2-2.2,0-4.6-2-6c-2.4-1.8-4.8-0.8-6.8,0.8c-0.8-2.4-2.8-4.2-5.6-4c-2.4,0.2-4.2,2-5,4.2c-1.4-1.8-3.8-2.8-6.2-2
		c-3,1-4.4,4.2-3.8,7.2c-3-0.4-6.2,0-7.8,2.6c-1.2,2-1.2,4.6,0.2,6.4c-3.2,0.8-6.2,3-6.8,6.6c-0.4,2.4,0.6,4.8,2.4,6.2
		c-2.8,1.6-5.2,3.8-4,7.2c1,2.8,3.6,3.4,6.2,3c-1.8,1.4-2.4,4-1.2,6.4c1.6,3,5,4.2,8.2,3.6C58.6,92,58.6,95.2,61,97
		c1.4,1,3.6,1.2,5.4,0.6c0,2,0.8,4,3.2,5c2.6,1.2,4.8,0,6.8-1.6c0.4,2.2,1.6,4.2,4.2,4.8c3.4,0.8,5.8-1,7.2-3.8
		c0.6,2.6,2.6,4.6,5.4,4.8c1.6,0,3.2-0.6,4.2-1.6c0,19,1.2,37.8-0.4,57c-0.2,1.2,2,1.4,2.2,0.2c1.6-9.8,2.6-19.8,2.8-30
		c9.2,16,38.2,18.6,50,4c0.8,0.2,1.8-0.6,1.6-1.4c0-0.2,0-0.4-0.2-0.6C153.2,134.2,153.2,133.4,152.4,132.8z M115,96.4
		c-0.2,0.8-0.8,1.6-1.4,2.2c-1.6,1.8-3.2,1.2-5-1.4c0-0.2,0-0.4-0.2-0.4c2.6-1,5-2.2,7.4-3.6l0,0C116,94,115.2,96,115,96.4z
		 M118.6,92c0-0.2-0.2-0.4-0.2-0.4c1.8-1.4,3.6-2.8,5.2-4.4C125.2,90.2,121.4,94,118.6,92z M136.8,57.8c0.2,2.6-1.4,4.8-3.8,5.4
		c0-0.6,0-1.2,0-1.8c-0.2-2.4-0.8-4.6-1.4-6.6C133.2,52.8,136.4,55.4,136.8,57.8z M133,66.8c4-2.4,7,3,4,6c-1.4,1.6-3.6,1.8-5.6,1.8
		C132.2,72.2,132.8,69.6,133,66.8z M130.8,77c3.2,1.2,3.6,5.6,1.4,7.6c-2,1.8-4.6,1.6-6.6,0.2c2-2.4,3.8-5,5-8L130.8,77z
		 M125.6,45.2c0.8-0.4,1.8,0,2.6,1.2c1.8,0.6,2.6,1.6,2.2,3.4c0,0.8-0.2,1.4-0.4,2.2c-1.2-2.2-3-4-5-5.6
		C125.2,46,125.4,45.6,125.6,45.2z M122,40.4c1.6,1.2,2,2.8,1.4,4.6c0,0.2-0.2,0.2-0.2,0.4c-1.4-0.6-2.8-1.2-4.6-1.6
		c-0.8-0.2-1.4-0.2-2.2-0.2C116.6,40.6,119.4,38.4,122,40.4z M113.2,43.4c-2.6,0.2-5.2,1-7.6,2.2C105.4,40.8,110.2,40.2,113.2,43.4z
		 M100.6,45.8c0.8-1,2.2-0.4,2.8,0.4c0,0.2,0.2,0.2,0.4,0.4l0,0c-1,0.6-1.8,1.2-2.8,2C100.6,47.8,99.8,46.8,100.6,45.8z M93.8,49.6
		c1.8-0.8,3.8-0.4,5.2,1c-1.6,1.6-3,3.2-4.4,5c-0.6-1.6-1.4-3-2.4-4.4C92.6,50.4,93,49.8,93.8,49.6z M89.2,44.4c0.8,1,0.6,2.6,0.4,4
		c-1.8-1.4-3.8-2.6-6-3.2C85,43.8,87.2,42,89.2,44.4z M75.4,41.6c2.4-2,5.6-0.2,5,2.8c-2-0.4-4.2-0.4-6.4,0
		C74.2,43.4,74.6,42.4,75.4,41.6z M71.8,44.8c-2.6,0.6-5,1.6-7.2,2.8C63.2,43.2,69.8,40.8,71.8,44.8z M57.4,50.2c1.4-1,3-1,4.4-0.6
		c-1.8,1.4-3.2,3-4.4,5c-0.2,0.4-0.6,1-0.8,1.4C55.2,54.2,55.2,51.6,57.4,50.2z M52.4,61c0.8-0.8,1.6-1.2,2.6-1.6
		c-1.2,2.8-1.6,5.6-1.8,8.4C50.4,66.6,50.2,63.2,52.4,61z M51.8,77.8c-0.8-1.8-1.6-3.6-2.4-5.4c1.2-1,2.6-1.8,4-2.2
		c0.2,2.4,0.8,5,1.6,7.2C54.2,77.8,52.2,78.2,51.8,77.8z M56.2,87c-3-1-4.4-5.8-0.4-6.8c0,0,0.2,0,0.2-0.2c1.2,2.6,2.8,4.8,4.6,7
		C59,87.4,57.6,87.6,56.2,87z M66.4,95.6c-1.4,1.2-3,1.6-4.8,0.2c-2.4-1.8-1.6-5.4,0.6-7c1.6,1.8,3.6,3.2,5.6,4.6
		c-0.2,0-0.4,0.2-0.4,0.2C66.8,94.4,66.6,95,66.4,95.6z M74.6,99.2c-2.6,2.6-7.8,2-7.2-2c0.8-0.6,1.4-1.6,1.4-2.8v-0.2
		c2.2,1.4,4.6,2.6,7,3.6C75.4,98.2,75,98.8,74.6,99.2z M83.2,103.2c-2,1.8-3.8,1.2-5.6-1.8c-0.2-1-0.2-2,0.2-2.8l0.2-0.2
		c1.6,0.4,3.2,0.8,4.8,1.2c1,0.2,2.2,0.2,3.2,0.4C85.6,101.4,85,102.4,83.2,103.2z M93.8,104.4c-2.8,1-5.4-1.4-5.2-4.2
		c2.6,0,5.2,0,8-0.4C96.6,101.8,95.8,103.6,93.8,104.4z M87.8,95.2C72,94.6,54.4,81.4,59.2,63.8c4.6-17,25.2-17.8,33.2-2.8
		c0.8,1.4,3,1,3.2-0.6c0.2,0,0.2-0.2,0.4-0.2c5-5.8,11.6-12.2,20-11.6c11.8,1,13.4,15,10.6,23.8C121.6,88.4,103.2,96,87.8,95.2z
		 M105,97.8c0.6,1.8,0.6,4-1.8,4.8c-2.2,0.6-4-1.4-4.6-3.2C100.8,99,103,98.4,105,97.8z M148.6,131.2c-3.8-1.6-7.8-2.6-11.6-3.4
		c1.4-1.4,2.6-3,4-4.4c0.6-0.6,1.4-1.2,2-2C145.4,124.4,147.2,127.8,148.6,131.2z M136.6,115.8c1.8,1,3.2,2.2,4.6,3.6
		c-0.6,0.8-1.4,1.6-2,2.2c-1.4,1.6-2.8,3.2-4.2,5c-0.2,0.2-0.2,0.4-0.2,0.6l-0.2-0.2c-0.4-0.4-0.8-0.2-1,0.2c-2.6-0.4-5-0.6-7.6-0.8
		c-0.2-0.2-0.2-0.4-0.4-0.6c1.8-1.8,3.6-3.8,5.6-5.4C132.8,119,135,117.6,136.6,115.8z M123.6,114c2-0.2,4.2-0.4,6.2,0
		c1.4,0.2,2.8,0.4,4,0.8c-1.6,1-3,2.4-4.2,3.6c-2,1.8-4,4-5.8,6c-0.6-0.2-1.2,0-1,0.8c0,0.2,0,0.2,0.2,0.4c0,0.2-0.2,0.4,0,0.6
		c-3-0.2-5.8-0.4-8.8-0.4c0.2,0,0.6-0.2,0.8-0.4c1.6-2.4,3.2-4.6,4.8-6.8C120.8,117,122.6,115.6,123.6,114z M119.4,114.8
		c-0.6,0.8-1,1.4-1.4,2.2c-1.8,2.4-3.2,4.8-4.4,7.4c-0.2,0.6,0.2,1.2,0.6,1.2c-3.2-0.2-6.6-0.4-10-0.8
		C108,120.4,113.4,116.8,119.4,114.8z M101.6,128c0.4-0.4,0.8-1,1.2-1.4c3.2,0.4,6.6,0.6,9.8,0.6c-0.2,0.2-0.2,0.6,0,0.8
		c1.4,2.8,3.4,5.2,5,7.8c1,1.8,2,3.6,2.8,5.4C112.2,139.8,105.4,135.4,101.6,128z M126,142c-1.4,0-2.6-0.2-4-0.4
		c-1.8-5-4.4-10.6-8.2-14.4c2.6,0,5.2,0.2,7.8,0.4c0.8,0,1.4,0.2,2.2,0.2c1,2,2.4,3.8,3.4,5.6c1.6,2.6,3,5.4,4.4,8
		C130,141.8,128.2,142,126,142z M134,141.2c-1.2-2.8-2.6-5.6-4.2-8.4c-0.8-1.4-1.6-3-2.4-4.4c2.4,0.4,4.8,0.8,7.2,1.4
		c1.8,3.2,4,6.2,6.2,9.2C138.4,139.8,136.2,140.6,134,141.2z M142.4,138.2c-1.6-2.6-3-5.2-4.8-7.6c4.2,1.2,8.2,2.4,12.2,4.2
		C147.2,135.8,144.8,137,142.4,138.2z"/>
</g>
</svg>
