<?xml version="1.0" encoding="utf-8"?>
<!-- Generator: Adobe Illustrator 18.1.1, SVG Export Plug-In . SVG Version: 6.00 Build 0)  -->
<svg version="1.1" id="Capa_1" xmlns="http://www.w3.org/2000/svg" xmlns:xlink="http://www.w3.org/1999/xlink" x="0px" y="0px"
	 viewBox="0 0 200 200" enable-background="new 0 0 200 200" xml:space="preserve">
<g>
	<path fill="#1D1D1B" d="M161.7,53.7c-10.4-23.4-37-10-42.8,9c-3.2-9-10.4-17-20-19c-9.4-2-20.4,2.4-24.8,11.2
		c-7.6,15.4,1.8,30.8,15.4,40.2c-5.6,1.8-9.6,8.8-10.8,15c-6.2-15.4-32.6-20.8-40.6-4c-11.8,24.6,19.2,46,39,52c0.4,0.2,0.8,0,1,0
		l0,0c7.8,3.6,21.4-11,26.4-15.6c10.6-9.4,19.6-21.8,17.8-36.6c0-0.2-0.2-0.4-0.2-0.6C144.9,99.7,173.5,80.7,161.7,53.7z
		 M119.1,105.7c-0.2,12.6-6.2,22.8-15,31.4c-2.4,2.4-22.8,21.2-25,18.4c-0.2-0.4-0.8-0.4-1-0.2c-12.4-7.6-29.6-15-36-29
		c-4.4-9.8-1.4-23.2,10.6-25.2c10.8-1.8,22.6,5.8,24.8,16.2c0.2,1.2,2,1,2.2,0.2c0.6,0,1-0.4,1.2-1c1.4-4.4,1.8-8.6,4.6-12.4
		c2.2-3.2,5.2-4.8,8.6-5.6c2.6,1.6,5.4,2.8,8.4,3.8c-0.4,0.8-0.4,1.8-0.8,2.6c-0.6,1.2-1.6,1.8-2.8,2c-2.8,0.2-4-2.8-2.4-4.8
		c0.8-1-0.8-2-1.6-1.2c-3.4,3-1,8.4,3.2,9c2.2,0.4,4.2-0.4,5.6-2.2c1-1,1.6-2.8,1.4-4.4c0.8,0.2,1.4,0.4,2.2,0.6
		c-1.4,1-2,2.8-1.8,4.8c0.4,2.4,2,4,4.2,4.4c-0.6,0.2-1,0.4-1.6,0.6c-0.6,0.4-0.6,1-0.4,1.4c-1.4,1-2.2,3-2,4.8c0.6,3,4.2,4.8,7,3.8
		s4.2-4.6,3-7.4c-0.6-1.6-2.2-2.6-3.8-3c2-0.4,3.8-1.6,4.6-3.6c0.4-1,0.6-2.6,0.4-3.8c0.4,0.4,1,0.6,1.6,0.4
		C119.1,105.7,119.1,105.7,119.1,105.7L119.1,105.7z M110.5,115.1L110.5,115.1c1.2,0,2.4,0.4,2.8,1.6c0.6,1.2,0.2,3.2-1.2,3.8
		c-1.2,0.6-3.2,0-3.8-1.4C107.7,117.5,109.1,115.7,110.5,115.1z M109.3,104.1C109.5,104.1,109.5,104.1,109.3,104.1
		c1.6,0.2,3,0.4,4.4,0.4c0.4,0.8,0.6,1.6,0.4,2.6c-0.2,1.6-1.4,2.8-3,2.8C107.7,110.3,106.9,106.1,109.3,104.1z M117.9,101.9
		c-0.2,0-0.2,0.2-0.4,0.2c-17.8-3.8-40-14.4-41.4-35c-0.8-12.8,9.2-22,21.8-19.4c10.6,2.2,16,11.2,18.6,21c0.6,2.2,3.6,1.4,3.6-0.6
		c2.8-8.6,7.4-16,15.6-20.4c14.4-7.8,24.6,7,23.8,19.6C158.3,88.7,135.5,97.5,117.9,101.9z"/>
	<path fill="#1D1D1B" d="M68.5,108.7h-0.2c0.2-0.4,0.6-0.6,0.8-0.8c0.6-0.6-0.2-1.4-0.8-1.2c-2.6,1.2-4.4,3.6-4,6.6
		c0.4,2.6,2.4,4.6,5.2,4.4c2.4-0.2,4.4-2.2,4.4-4.8C73.7,110.3,71.1,108.1,68.5,108.7z M71.1,113.9c-0.4,1-1.8,1.6-2.8,1.2
		c-1.2-0.4-1.8-1.8-1.6-3c0-1,0.6-2,1.2-2.8c-0.2,0.6,0.2,1.2,0.6,1.2C69.9,110.9,71.9,112.1,71.1,113.9z"/>
	<path fill="#1D1D1B" d="M62.7,107.9c-1.2-2-4-2.6-6-1.4c-2,0.8-3.4,3-2.6,5.4c0.8,2.6,4,4.2,6.6,3
		C63.1,113.7,64.1,110.3,62.7,107.9z M59.7,112.7c-1.2,0.6-2.8-0.2-3.4-1.4c-0.4-0.8-0.2-1.8,0.2-2.6c0.2,0,0.4,0,0.6,0
		c1-0.6,2.8-0.4,3.6,0.6C61.5,110.3,60.9,112.1,59.7,112.7z"/>
	<path fill="#1D1D1B" d="M52.1,110.1c-1.2-1.8-4-2.4-6-1.4c-2.6,0-4.2,2.8-3.6,5.2c0.8,3,4.4,4.8,7.4,3.6
		C52.5,116.5,53.9,112.7,52.1,110.1z M48.9,115.7c-1.6,0.8-3.8-0.4-4.4-2c-0.2-0.8-0.2-2,0.4-2.8c0.2,0.4,0.6,0.6,1,0.2
		c1.2-0.8,3-1.2,4,0C51.3,112.5,50.5,114.9,48.9,115.7z"/>
	<path fill="#1D1D1B" d="M55.3,122.1c-1.4-1.8-4.2-2.2-6-0.8c-2.8-0.2-4.6,2.8-3.6,5.4c1.2,3,5,4.4,7.8,2.8
		C56.1,128.3,57.3,124.5,55.3,122.1z M52.9,127.1c-1.2,1-3.2,0.8-4.4-0.2s-1.2-3,0-4c0.2,0.4,0.6,0.6,1,0.4c1-0.8,2.6-1,3.6-0.2
		C54.3,124.1,54.1,126.3,52.9,127.1z"/>
	<path fill="#1D1D1B" d="M65.1,119.3c-1.4-0.8-3.6-0.8-4.8,0.2c-1.2-0.8-2.4,0.2-2.8,1.2c-0.6,1.2-0.2,2.8,0.2,4
		c1.4,2.8,5,3.8,7.6,1.8C67.3,124.7,67.9,120.9,65.1,119.3z M64.3,124.1c-0.8,1.2-2.4,1.8-3.6,1c-0.6-0.4-1.2-1.2-1.4-1.8
		c0-0.2-0.2-0.6-0.2-1c0.4,0.4,1.2,0.6,1.6,0C61.9,119.9,65.7,121.5,64.3,124.1z"/>
	<path fill="#1D1D1B" d="M79.7,122.9c-0.8-1.2-2.8-2.2-4.4-2.2c-0.2-0.4-0.4-0.8-1-0.6c-2.6,0.8-3.8,3.6-3,6.2s3.6,3.6,6.2,2.6
		C79.7,128.1,81.3,125.3,79.7,122.9z M76.1,126.7c-2.4,0.6-3-1.6-2.4-3.4c0.2,0,0.2,0,0.4,0c1.2-0.2,2.4-0.2,3.2,1
		C77.9,125.3,77.1,126.3,76.1,126.7z"/>
	<path fill="#1D1D1B" d="M92.5,107.5c-2-1.6-5.2-1.6-6.4,0.8c0,0.2-0.2,0.4,0,0.6c-2.2,1-2.8,4-1,6c2,2.2,5.6,2,7.6,0
		C94.5,112.7,94.9,109.3,92.5,107.5z M91.1,112.3c-0.8,1.2-2.2,1.8-3.6,1.4c-1.8-0.6-2.2-2.8-0.6-4c0.2-0.2,0.2-0.4,0.4-0.6l0,0
		C89.5,107.9,92.5,109.9,91.1,112.3z"/>
	<path fill="#1D1D1B" d="M105.7,117.1c-0.4-2.6-3-4.4-5.4-4c0,0,0-0.2-0.2-0.2c-2.8-1.8-5.8,1.4-5.8,4.2c0,3.2,2.6,6.4,6,6.2
		C103.1,122.9,106.1,120.1,105.7,117.1z M100.3,120.5c-4.2,0.6-4.6-6-1.8-6.6c-0.2,0.4,0.4,1,1,1
		C103.3,114.1,104.1,119.7,100.3,120.5z"/>
	<path fill="#1D1D1B" d="M92.3,121.1c-0.6-1.2-1.6-2.2-3-2.4c-0.6,0-1.2,0-1.6,0.2c0-0.2-0.2-0.4-0.6-0.2c-2.8,0.4-4.8,3.2-4.2,6
		c0.6,2.8,4,4.2,6.6,3.4C92.3,127.1,93.5,123.7,92.3,121.1z M88.1,126.1c-3.6,0.2-4-4.2-1.6-5.8c0,0.4,0.6,1,1,0.4
		c1.4-1.6,3,0.8,3,2.2C90.7,124.5,89.7,126.1,88.1,126.1z"/>
	<path fill="#1D1D1B" d="M106.1,126.9c-2-2.2-6.8-2.6-8.6,0.2c-0.2,0.2-0.2,0.4-0.2,0.6c-1,1.6-1.4,3.6-0.6,5.4c1.4,3,5.4,3.8,8.2,2
		C107.7,133.5,108.1,129.3,106.1,126.9z M103.5,133.3c-1.4,1-4,0.4-4.6-1.2c-0.6-1.6,0.2-3.4,1.4-4.2c1.2-0.4,2.6-0.4,3.6,0.8
		C105.1,129.7,105.1,132.1,103.5,133.3z"/>
	<path fill="#1D1D1B" d="M94.3,131.9c-1-1.2-2.8-2-4.4-1.6c-0.2-0.2-0.4-0.4-0.6-0.2c-2.8,0.8-4.6,3.6-3.6,6.4c1,2.6,4.4,4,6.8,2.6
		C94.9,137.5,96.1,134.1,94.3,131.9z M91.3,137.1c-1.4,0.8-3.2-0.2-3.8-1.6c-0.4-1-0.2-2,0.2-2.8c0.2,0.2,0.6,0.4,1,0.2
		c1.2-0.6,2.4-0.6,3.4,0.4C93.5,134.5,92.7,136.3,91.3,137.1z"/>
	<path fill="#1D1D1B" d="M82.9,131.3c-2.2-2-6.4-1.6-7.8,1.2c0,0.2,0,0.2,0,0.4c-1,1.6-1.2,3.6-0.2,5.4c1.6,2.6,5.4,3,7.8,1.2
		C85.3,137.5,85.3,133.5,82.9,131.3z M81.3,137.7c-1.2,1-3.4,0.8-4.4-0.4c-1-1-0.8-2.6-0.2-4c1.2-1,3.2-1.4,4.4-0.4
		C82.5,134.1,82.5,136.5,81.3,137.7z"/>
	<path fill="#1D1D1B" d="M70.5,127.7c-1.8-0.8-4-0.4-5.4,1c-0.2-0.4-0.6-0.4-1,0c-1.6,2.2-1.6,5.4,0.6,7.2s6,1.4,7.4-1.2
		C73.9,132.3,73.1,128.9,70.5,127.7z M70.5,133.5c-0.8,1.4-3,1.6-4.2,0.6c-0.8-0.6-1.2-1.6-1.2-2.6c0.4,0.2,0.6,0,1-0.4
		c0.8-1.2,2.4-2,3.6-1.4C70.9,130.3,71.3,132.3,70.5,133.5z"/>
	<path fill="#1D1D1B" d="M61.5,131.7c-0.8-0.8-2.4-1-3.4-0.6c0-0.2-0.2-0.2-0.4-0.2c-2.6,0-4,3.2-3,5.4s4.2,3,6.2,1.6
		S63.3,133.3,61.5,131.7z M59.1,136.5c-1,0.4-2.4-0.2-2.6-1.4c-0.2-0.6,0-1.2,0.2-1.8c0.2,0.8,1.6,1.2,1.8,0c0.2-1,1.4-0.4,1.8,0.2
		C60.7,134.5,60.3,136.1,59.1,136.5z"/>
	<path fill="#1D1D1B" d="M76.7,142.1c-1.6-2.2-4.4-2.6-6.8-1.6c-0.2,0-0.2-0.2-0.4,0c-2.2,0.4-3.4,3-2.4,5.2
		c1.2,2.6,4.8,3.6,7.2,2.8C77.1,147.3,78.5,144.5,76.7,142.1z M73.3,146.1c-1.4,0.4-3,0-4-1c-0.6-0.6-0.6-1.6-0.4-2.2
		c0.2,0.2,0.6,0.2,0.8,0.2c1.2-0.6,2.8-1.2,4.2-0.4C75.7,143.7,75.1,145.7,73.3,146.1z"/>
	<path fill="#1D1D1B" d="M88.7,142.5c-1.6-1.6-5.2-2.2-6.4,0.4c0,0.2,0,0.4,0,0.4c-1.8,0.8-2.8,3.2-1.8,5c1.4,2.6,5.2,2.8,7.4,1.2
		C89.9,147.9,90.7,144.7,88.7,142.5z M86.5,147.1c-0.8,1-2.4,1.4-3.6,0.6c-1.2-0.8-0.6-2.6,0.4-3.2c0.2,0,0.2,0,0.4-0.2
		C85.9,143.1,88.5,144.9,86.5,147.1z"/>
</g>
</svg>
