<?xml version="1.0" encoding="utf-8"?>
<!-- Generator: Adobe Illustrator 18.1.1, SVG Export Plug-In . SVG Version: 6.00 Build 0)  -->
<svg version="1.1" id="Capa_1" xmlns="http://www.w3.org/2000/svg" xmlns:xlink="http://www.w3.org/1999/xlink" x="0px" y="0px"
	 viewBox="0 0 200 200" enable-background="new 0 0 200 200" xml:space="preserve">
<path fill="#1D1D1B" d="M138,51.7c-3.6-12.4-18.4-13-28.6-7c0,0-0.2,0-0.2,0.2c-3.8,1.8-6.6,4.8-9,8.2c-3.6-6-10.6-9.8-17.6-10.2
	c-3.4-0.2-13.8,1-16,5.2c-2.4,1.8-4.4,4.4-5.6,8.2c-5.8,17.4,13.4,36,30.2,37.2c-0.8,20.6-1.2,41.2-1.6,61.8c0,0.4,0.2,0.8,0.6,0.8
	c0,0.2,0,0.4,0.2,0.6c2.6,2.2,8.4,3.8,10.6,0.2c0.6-0.8-0.2-1.8-1.2-1.6c-0.6-19.8-0.8-39.8-1.2-59.6c12.2-0.8,25.4-5.8,33.6-15
	C138.8,72.7,142.8,61.1,138,51.7z M86.2,45.7c5.4,1.4,9.2,4.6,13.2,8.4c-1.4,2.2-2.6,4.4-3.8,6.6c-2-8.4-9.6-14.2-17.2-15.4
	C80.8,45.1,83.6,45.1,86.2,45.7z M95.6,156.5c-1.6,0.2-3,0-4.4-0.8c0-0.2,0.2-0.2,0.2-0.4c1.8-20.4,2.8-41.2,2.2-61.6h0.2
	c0,0.6,0.4,1.4,1,1.4c0,0.4,0.4,0.8,0.8,0.6c0.4,0,0.8,0,1,0c-0.6,20-0.2,40,0.6,60v0.2C96.8,156.1,96.2,156.3,95.6,156.5z
	 M95.8,92.1c-0.2-0.4-0.4-0.6-0.8-0.6c-13.2-1.6-25.4-8.6-30.2-21.8c-3.2-8.8-0.8-18.4,9-21c10-2.6,16.8,4,20.4,12.8
	c0.2,0.6,1,0.6,1.2,0.4c0.2,0.4,1,0.6,1.4,0c6.6-9.8,14-19,26.8-14.4h0.2c12,7.4,7.8,25.2-2.8,32.8C113.4,85.3,104,88.3,95.8,92.1z
	 M125.6,82.9c-6.8,5.2-14.6,7.4-22.6,9.2c12-4.2,25-9.6,29.6-21.8c4-10.2,1-21.6-9.2-25.4c-1.2-0.8-2.4-1.4-3.6-1.6
	c7-1.2,14,1,17,8.2C139,63.7,135.8,75.1,125.6,82.9z"/>
</svg>
