<?xml version="1.0" encoding="utf-8"?>
<!-- Generator: Adobe Illustrator 18.1.1, SVG Export Plug-In . SVG Version: 6.00 Build 0)  -->
<svg version="1.1" id="Capa_1" xmlns="http://www.w3.org/2000/svg" xmlns:xlink="http://www.w3.org/1999/xlink" x="0px" y="0px"
	 viewBox="0 0 200 200" enable-background="new 0 0 200 200" xml:space="preserve">
<g>
	<path fill="#1D1D1B" d="M151.4,68.9c-9-23-38.6-14.4-48.6,3c-0.8-3.2-3-6.2-5.4-8.2c-4.8-3.8-11.8-4-16.8-0.6
		c-1.6-0.6-3-1.2-3.6-3.4c-1-3.8-2.2-9.8-7.6-6.4c-4.6,3-5.2,9-4.2,13.8c-2,0.4-4,1.8-4.2,3.6c-0.2,0-0.4,0-0.6,0
		c-4.6-1-10-1.4-12.8,3.2c-2.4,4,0.4,8.8,4.4,10.4c2,0.8,3,1.2,4.4,3c0.4,0.6,0.6,1.2,1,1.6c-3.6,24.2,23.6,48.6,44.8,56.8
		c0.4,1.6,2.6,2.8,4,1.2c12.2-13.6,24.8-27.4,36-41.8C150.2,95.1,156.6,81.9,151.4,68.9z M69,57.5c1-2,2.6-2.2,4.6-0.6
		c0.2,0.6,0.4,1.4,0.4,2c0.2,1,0.4,2,0.8,3c0.8,1.6,1.6,2.6,3.4,3.4c0.4,0.2,0.8,0.4,1.2,0.4c0.2,0,0.4,0,0.4,0
		c0.2,0,0.4,0.2,0.4,0.2c1.6,0.6,1.4,2.4-0.4,5.4c-2.2,1-5.2-0.4-7.2-0.6c-0.6,0-1,0.2-1.4,0.6c-0.2-0.8-0.6-1.6-1.2-2.4
		c0.6-2.4,1-4.8,1-7.4c0-0.8-1.2-1-1.4-0.2c-0.6,2-1,4.2-1,6.4c-0.6-0.4-1.2-0.6-1.8-0.6C67,63.9,67,60.3,69,57.5z M80.2,77.7
		c-1,1-2,2-2.8,3.2c-2.2-2.2-4.4-3.6-7.4-4.4c1-0.8,1.6-2.2,1.6-3.6c0,0,0.2,0,0.2,0.2c1.4,0.8,3.4,1.4,5.2,1.6
		C78,75.7,79.2,76.7,80.2,77.7z M63,72.5c1-1.4,1.6-2.8,3.6-2.8c1.6,0,2.6,1.6,2.6,3c0,1.8-2,2.8-3.6,2.6c-0.6-0.2-1.2-0.4-1.8-0.8
		c0.2-0.4-0.2-1-0.8-1c-0.2-0.2-0.4-0.4-0.4-0.6C62.6,72.9,62.8,72.7,63,72.5z M66.4,77.9c0.4,0,0.6,0,1-0.2c0.6,3,1.4,6,2.6,8.8
		c-1,0.4-1.8,1-2.4,1.6c-0.4-1.2-1-2.4-1.6-3.6C66.4,82.5,66.4,79.9,66.4,77.9z M50.2,77.7c0-4.6,6-4.8,9.6-4.6
		c0.2,0.6,0.4,1,0.6,1.6c-1,0.6-2.2,1-3.2,1.6c-0.8,0.4-0.2,1.6,0.8,1.2c1.2-0.6,2.2-1,3.4-1.6c0.2,0.2,0.2,0.2,0.4,0.4
		c-0.8,1.4-0.8,3.2-0.6,4.8c0.2,0.8,1.2,0.6,1.2-0.2c0-1.4,0.4-2.4,0.8-3.6c0.2,0,0.2,0.2,0.4,0.2c-0.4,2.6,0,5.6-1,8
		c0,0.6-0.4,1.2-1,1.4c-0.2,0.4-0.6,0.6-0.8,0.6c-0.2-0.2-0.4-0.2-0.6-0.4c0,0-0.2-0.2-0.2-0.4c-1.2-0.8-0.6-0.8-1.2-1.8
		c-0.6-0.8-0.8-1.6-1.6-2.2C54.8,81.3,50.4,81.5,50.2,77.7z M144.6,92.1c-4.6,9.2-12,16.6-18.6,24.4c-7.6,8.8-15,17.4-22.4,26.2
		C85.2,131.1,61,113.9,61.4,90.1c0.4,0,0.6-0.2,1-0.4c0.8-0.4,1.4-1,2-1.8c0.4,1,0.8,2.2,1.2,3.2c0.4,1.2,1.8,1.4,2.6,0.4
		c1-1.4,2.4-2.4,4-3c0.8-0.2,1.4-1.4,0.8-2.2c-2.2-2.8-3.6-5.8-4.6-9.2l0.2-0.2l0,0c3.2,1,6.4,3.2,7.8,6.2c0.4,0.8,1.6,0.8,2,0
		c1-1.8,2.2-3.2,4-4.4c0.8-0.4,0.8-1.4,0.2-2c-0.8-1-1.6-1.8-2.4-2.8c2-0.4,3.6-1.6,4.4-3.6c0.6-1.6,0.6-3.8-0.4-5.2
		c-0.2-0.2-0.2-0.4-0.4-0.4c3.8-0.8,7.6-0.4,10.8,2c3.8,3,4,7,5.2,11.2c0.2,1,1.8,1.4,2.4,0.4c0,0,0-0.2,0.2-0.4
		c0.4,0,0.8-0.2,1-0.6c5-10.2,15.2-18,27.2-17.2C147.6,61.1,151,79.1,144.6,92.1z"/>
	<path fill="#1D1D1B" d="M74.2,65.9c-1.2,0.6-2.2,1.4-3.4,2.2c-0.6,0.4,0,1.6,0.6,1.2c1.2-0.6,2.4-1.2,3.6-2
		C75.8,66.7,75,65.5,74.2,65.9z"/>
</g>
</svg>
