<?xml version="1.0" encoding="utf-8"?>
<!-- Generator: Adobe Illustrator 18.1.1, SVG Export Plug-In . SVG Version: 6.00 Build 0)  -->
<svg version="1.1" id="Capa_1" xmlns="http://www.w3.org/2000/svg" xmlns:xlink="http://www.w3.org/1999/xlink" x="0px" y="0px"
	 viewBox="0 0 200 200" enable-background="new 0 0 200 200" xml:space="preserve">
<g>
	<path fill="#1D1D1B" d="M146.9,86.3c6.2-10.6,0-23-12.6-23.4c-2,0-3.8,0.2-5.8,0.6c-0.6-8.8-10.8-13-18.8-11.8
		c-7.6,1.2-13.8,6.6-16,13.8c-2.8-6.2-10.2-10.4-16.8-10.2c-7,0.2-16.8,6.4-14.6,14c-1.4,0-2.6,0-4,0.4c-13.2,3.4-6,20.2-1.8,28.2
		c0.4,7.6-4.2,13.4-4.4,21.2c-0.2,4.4,1.6,8.8,5.8,10.6c4.8,2,10.2-0.4,13.8-3.8l0,0c-1.8,6.6-2.2,14,0,20.2c0.4,1,1.6,1,2,0.4
		c0.2,0.4,1,0.6,1.4,0c1.6-2.8,3-5.8,4.8-8.6c2,2.4,4.4,4.6,7,6.2c1.2,0.8,2.2-0.8,1.6-1.8c0.2-0.2,0.2-0.4,0.2-0.6
		c0.4-4,0.8-8,1.4-12c1.2,2.2,2.8,4.2,4.4,6.2c0.6,0.8,1.8,1.2,2.6,0.4c1.6-1.8,3.6-3.6,5-5.6c0.6,5.6,0.4,11,0.2,16.2
		c0,0.6,0.2,1,0.6,1.2c0.2,0.4,0.8,0.6,1.4,0.2l0.2-0.2c0.2-0.2,0.4-0.2,0.4-0.4c1.8-2,5.2-6,6.8-6c1.6,0.2,3,2.2,4,3.2
		c1.2,1.2,2.4,2.2,3.8,3.4c1,0.8,2-0.2,2.2-1.2c0.2-0.2,0.2-0.4,0.2-0.6c0.8-6.8,0.2-13.8-2.2-20.4c5.4,4.8,11.4,7.4,18,3.8
		c5-2.6,4.6-7.4,3.6-12.2c-1.2-7-4.4-10.6-2.4-17.8C140.7,93.7,143.9,91.5,146.9,86.3z M81.5,59.1c6.4,1.8,8.8,7,10.8,12.8
		c0.4,1.4,2.4,1.2,2.6-0.4c0-0.6,0-1.2,0-1.8c2.4-6.4,5.6-11.8,12.8-13.8c7.6-2,15.6,0.8,17.6,8.8c-10.2,4.6-17.4,16.8-20.8,26.8
		c-1-0.6-2.2-0.4-3.6-0.4c-4,0-8.2,0-12.2,0.4c-4.2-8.4-13.6-20-24-21.8C64.1,61.1,74.5,56.9,81.5,59.1z M88.7,99.5
		c0-1.6-0.2-3.4-0.4-5c4.4,0,8.8-0.8,13.2-0.4c1.4,0.2,0.8-0.4,1.4,0.8c0.4,0.8,0.2,2.2,0.2,3c0,1.8,0.4,4.6-0.4,6.2
		c0,1-0.4,1.4-1.4,1.4c-0.8,0.6-1.6,0.8-2.6,0.8c-1,0-2,0.2-2.8,0.2c-2.2,0.2-5.2,1.2-6.8-1.2C88.3,104.1,88.7,100.9,88.7,99.5z
		 M70.5,122.1c-3.4,3.6-11.6,8.8-14.6,0.6c-2.2-5.8,2.8-12,3.6-17.6c0.4-2.4,0.4-4.4-0.2-6.4c0.2-0.2,0.2-0.6,0-0.8
		c-1.2-4.2-3.6-8-4.6-12.2c-2-8.4,3-14.8,11.8-12c8.6,2.8,14.4,12,20.2,18.6c0,0,0,0,0,0.2c-0.2,0-0.4,0.2-0.4,0.6
		c-0.2,0.8-0.2,1.6-0.2,2.6c0,0,0,0-0.2,0c-2-0.6-4-0.4-6-1.4s-3.8-2.6-5-4.4c-0.4-0.6-1.2,0-0.8,0.4c1.2,2.2,2.8,4.2,5,5.4
		c1.8,1.2,4.6,2.2,6.8,1.6c0,0.6-0.2,1.2-0.2,1.8c-2.2-0.6-5,0.6-6.8,1.6c-2.4,1.4-4.4,3.6-5,6.2c-0.2,0.8,0.8,1.2,1.2,0.6
		c1.4-2,3-3.8,5.2-5c1.8-0.8,3.6-0.8,5.2-1.2c0,0.8,0,1.6-0.2,2.4c0,1,0,2,0.2,3c-3.8,2-7,5.2-9.6,8.6
		C74.3,117.3,72.7,119.9,70.5,122.1z M86.3,140.5c-2-1.4-4-3.2-5.6-5.2c-0.6-0.6-1.6-0.8-2,0c-1.8,3-3.6,6.4-4.8,9.8
		c-0.2-4.2-0.8-8.4-0.6-12.6c0.2-3.6,1-7.2,1.8-10.8c0.8-1.2,1.8-2.4,2.6-3.6c2.6-3.6,5.8-6.2,9.2-9.2c0.2,0.2,0.2,0.4,0.4,0.4
		c1.8,1.6,4.2,1.4,6.2,1c0.4,0,0.6,0,1-0.2C88.3,118.3,84.7,130.3,86.3,140.5z M101.3,127.1c-2.2,1.2-4,3.4-5.6,5.6
		c-1.8-1.6-3.4-3.4-5.2-5.2c0.2-0.8,0.4-1.6,0.6-2.4c1.2-4.8,3.4-9.4,5.4-14c2.8,4.8,4.2,10.2,5,15.8
		C101.5,126.9,101.5,127.1,101.3,127.1z M114.7,139.5c-1-0.8-2-1.6-3.6-1.4c-1.6,0.4-2.6,2-3.6,3.2c-0.8,0.8-1.4,1.8-2,2.6
		c1-11-0.4-26-7.4-34.4c0.6,0,1-0.2,1.6-0.2c1.4-0.2,3-0.2,4.2-1c0.2-0.2,0.4-0.2,0.4-0.4c3,3.4,6.6,8.6,10.6,13.4
		c2.6,7.4,4,14.2,4,22C117.5,141.9,116.1,140.7,114.7,139.5z M134.3,96.9c-3.8,9.2,5.2,17,1.8,26c-0.4,5-3,6.4-8.2,3.8l-4.4-2.2
		c-2.8-1.8-4.8-4-7-6.6c-3.8-4.4-6.8-8.8-11-13c0.2-0.8,0.2-1.6,0.2-2.4c1.8,0.4,3.4,0.6,5,1.6s3,2.4,4.2,3.8c0.6,0.8,1.8-0.2,1.4-1
		c-1.8-3.4-6.4-6.2-10.6-5.6c0.2-2.8,0.4-6.2-0.6-8.8c6.8-10.4,12.8-26,27.4-26.6c6.8-0.2,10.4,3.2,11.6,9.4c1.6,7.2,0,9.2-4.4,14.6
		C137.7,92.1,135.5,94.1,134.3,96.9z"/>
	<path fill="#1D1D1B" d="M114.7,92.9c-1.2,0.6-2,1.8-3.2,2.4c-1.4,0.8-3,1-4.8,1c-0.6,0-0.8,1-0.2,1.2c1.8,0.4,3.6,0.4,5.4-0.4
		c1.4-0.6,3.6-1.6,3.8-3.2C116.1,93.5,115.5,92.7,114.7,92.9z"/>
</g>
</svg>
