<?xml version="1.0" encoding="utf-8"?>
<!-- Generator: Adobe Illustrator 18.1.1, SVG Export Plug-In . SVG Version: 6.00 Build 0)  -->
<svg version="1.1" id="Capa_1" xmlns="http://www.w3.org/2000/svg" xmlns:xlink="http://www.w3.org/1999/xlink" x="0px" y="0px"
	 viewBox="0 0 200 200" enable-background="new 0 0 200 200" xml:space="preserve">
<g>
	<path fill="#1D1D1B" d="M140.1,95.3c2.2-2.6,1.6-8-1.2-10.4c0.4-1.6-0.2-3.4-0.8-4.8c-1-1.8-2.8-3-4.6-3.4c0-1.4-0.4-2.8-1.2-3.8
		c-0.8-1.2-2-1.8-3.2-2c0.8-1.8,0.2-4.2-1-5.8c-1.6-1.8-4-2.4-6.2-2c-0.6-2-2.4-3.8-4.2-4.6c-2-0.8-4.2-0.6-6,0.6
		c-2.2-2.8-6.2-3-9.2-1.2c-2.8-3-8.6-2.4-11.4,0.2l-0.2,0.2c-0.8-0.6-1.8-1-2.8-1.2c-2-0.2-4.4,0.4-5.2,2.4
		c-3.2-1.8-7.6-1.2-9.2,2.2c-3.4,0-6.6,2.8-6,6.4c-3.6,0.6-6.6,4.4-5.6,8.6c0,0.2,0.2,0.4,0.4,0.6c-1,0.4-1.8,1.2-2.6,2
		c-1.6,2-2,5.4,0.6,7c0.6,0.4,1.4-0.2,1.2-0.8c-0.8-1.6-0.4-3.6,1-5c1-1,2.8-1.6,4.2-1c1.2,0.6,1.8,2,1.6,3.2
		c-0.2,1-0.8,1.6-1.2,2.2c-1.4-0.4-3-0.4-4.4,0.2c-4,2-5.8,10.2-0.4,11.2c-0.8,2-0.6,4.2,0.4,6c1,2,3.2,3.6,5.4,3.2
		c-0.2,1,0,1.8,0,2.8c0.4,1.8,2.4,5.6,4.6,4c-0.4,1.4-0.2,3,0.6,4.4c1.2,2.2,3.6,3.2,5.8,2.6c0,1.4,0.4,2.6,1.4,3.8
		c1.4,1.4,3,1.8,4.6,1.6c-0.4,7.2,6.4,12.4,13.4,15.4c0.6,0.4,1,0.8,1.6,1c3.6,2.2,7.2,4,11.4,2.2c2.6-1,4.8-3.2,5.4-5.8
		c1.4-1.6,2.4-3.4,3.6-5c3.4-4.8,7.8-11.2,4.8-17.2c-0.6-1.2-1.4-2-2.2-2.8c1.2-1.4,3.4-2.4,4.8-0.6c0.8,0.8,0.8,2.2,0.6,3.2
		c-0.4,1.2-1.6,1.6-2,2.8c0,0.4,0,0.8,0.4,1c2,0.8,3.6-1.6,4-3.2v-0.2l0.2,0.2c2.4,0.4,4.2-2,5-4c0.2-0.6,0.2-1,0.2-1.6
		c1.8-0.6,3.2-2.8,3.6-4.6c0.4-1.2,0.2-2.4-0.2-3.6c1.6-1.2,1.8-3.8,1.2-5.6C140.5,96.3,140.3,95.7,140.1,95.3z M131.7,79.5
		c1.6-0.2,3.4,0.4,4.2,2c0.4,0.8,0.6,1.6,0.4,2.2c-0.4,0-1,0-1.6,0.2c-1.8,0.4-3.8,1.4-5.4,2.8C127.7,83.9,128.1,80.1,131.7,79.5z
		 M130.5,74.7c0.6,0.8,0.6,1.4,0.4,2.2c-2.2,0.4-4,1.8-4.8,4c-1.2-2.2-2.2-5.4,0.2-6.8C127.7,73.1,129.5,73.3,130.5,74.7z
		 M121.1,66.3c1.4-0.8,3.2-1,4.6,0c1.6,1,1.8,2.8,1.4,4.6c-0.4,0-0.8,0.2-1,0.2c-1.8,0.6-3,2-3.4,3.6c-1.6-0.8-3.2-1.8-3.4-3.8
		C118.9,69.1,119.7,67.3,121.1,66.3z M111.5,62.9c1-1.6,2.8-2.6,4.8-2c1.8,0.4,2.6,1.8,3.2,3.2c-2,1.2-3,3.6-3,5.8
		C112.7,70.1,109.3,66.3,111.5,62.9z M109.9,60.3c-0.2,0.2-0.2,0.2-0.4,0.4c-1.4,1.8-1.8,4-1.2,5.8c-3,0.6-6.6,0.2-6.2-3.6
		c0.2-0.8,0.4-1.4,1-2l0.2-0.2c0.6-0.6,1.2-0.8,2-1C107.1,59.3,108.5,59.7,109.9,60.3z M97.5,58.7c1,0.2,1.8,0.6,2.6,1.2
		c-0.6,0.8-1,1.6-1.2,2.6c-0.2,1.2-0.2,2.4,0.2,3.4c-1,0.6-2,1.2-3.2,1.6c-1.4,0.2-2.8-0.2-3.6-1.2c0.8-1.6,1-3.4,0.4-5.2
		c-0.2-0.4-0.4-0.8-0.6-1.2c0,0,0,0,0.2,0C93.7,58.7,95.5,58.3,97.5,58.7z M87.5,60.1c1.4,0.2,2.4,1.2,2.8,2.6
		c0.2,0.6,0.2,1.2,0,1.8c-0.4,0.2-0.6,0.4-0.6,0.8c0,0.2,0,0.2,0,0.4c-0.8,1.2-2.2,2-3.6,2.4c0.6-2.2,0-4.6-1.2-6.4
		c-0.2-0.2-0.4-0.4-0.4-0.6C85.5,60.5,86.1,59.9,87.5,60.1z M82.7,62.9c0.8,1.4,1.4,3.4,0.4,4.8c-1,1.4-2.2,0.8-3.6,1.4
		c0.4-2.6-1-5.2-3.4-6.4c-0.4-0.2-0.6-0.4-1-0.4C77.3,59.9,80.9,59.9,82.7,62.9z M72.9,63.9c0.2,0.4,0.8,0.6,1,0.2
		c0.4,0.2,0.8,0.2,1.4,0.6c1.6,1,2.2,2.8,1.6,4.6c-0.4,1.2-1.2,1.8-2.2,2.4c-0.6-1.2-1.4-2-2.4-2.8c-1-0.6-2.2-1-3.2-1
		C69.3,65.9,70.9,64.1,72.9,63.9z M66.1,76.7c-0.8-0.2-1.6,0-2.4,0.2c0-0.2,0-0.2,0-0.4c-0.4-3.8,3.2-7.2,6.8-5.2
		c3.6,2,2.6,6.4-0.6,8C69.1,77.9,67.9,76.9,66.1,76.7z M63.1,95.3C62.9,95.1,62.9,95.1,63.1,95.3c-3.4-1.4-1.4-7.4,2-7.2
		c1.8,0.2,2.4,1.4,2.4,3c0,0.6,0,1.2,0,1.6c-1.2,0.2-2.4,0.6-3.2,1.4C63.5,94.5,63.3,94.9,63.1,95.3z M72.9,111.5
		c-0.2-0.4-0.4-0.6-0.8-0.4c-1.4,0.6-1.6-4.2-1.4-5c0.4-1.4,1.4-2.6,2.8-3s3,0,4,1.2s0.8,2.4,0.8,3.8c-1.4,0-3,0.6-4,1.8
		C73.7,110.3,73.1,110.9,72.9,111.5z M79.7,116.7c-0.2,0.4-0.4,0.8-0.6,1.2c-2.6-0.8-4.8-3.6-2.4-6c1.2-1,2.8-1,4,0
		c0.8,0.6,1,1.6,1.4,2.4C81.1,114.9,80.3,115.7,79.7,116.7z M85.5,121.7c-0.2,0.4-0.2,0.8-0.4,1.2c-2.2-0.2-4-2.8-2.6-4.8
		c0.8-1.2,2-1.6,3.4-1.2c0.8,0.4,1.2,0.8,1.6,1.4C86.7,119.3,85.9,120.5,85.5,121.7z M123.5,109.9c-1.2,0.4-2,1.2-2.8,2.2
		c-2.2-0.8-5-0.8-7.4,0c-4,1.4-6.8,4.6-8.6,8.2c-2.6-2.6-5.6-4.6-9.4-4.8c-2-0.2-4,0.4-5.6,1.4c-0.8-1.2-2.2-2.2-3.4-2.6
		c-0.6-0.2-1-0.2-1.6-0.2c0.2-1.8-1.6-4.2-2.8-5c-0.6-0.4-1.2-0.6-2-0.8c0.6-1.8-0.2-4.4-1.4-5.6c-1.8-2.2-5-2.6-7.4-1.2
		c-1,0.6-1.8,1.4-2.4,2.4c-3.2-0.2-4.4-5.2-1.8-7c1.2-1,3-0.8,4,0.4c0.6,1,0.2,2.2,0.8,3.2c0.2,0.4,1,0.6,1.4,0.4
		c2.2-1.4,0.6-5-1-6.4c-0.6-0.4-1.2-0.8-1.8-1c0.4-2.2,0.2-4.6-1-6.2c1.4-1.4,2-3.2,1.8-4.8c3.2-1,4.8-4.4,4.6-7.4
		c1.6-0.4,3-2,3.6-3.6c1.4,1.8,4.4,0.8,5.8-0.8c0.2,0,0.4,0.2,0.6,0.2c2,0,4-0.8,5.4-2.2c2.2,2.6,6.8,2.2,9.6,0
		c0.4,0.4,0.8,0.8,1.4,1c2.4,1.2,5,0.4,7.2-0.8c1.4,2.4,4.2,3.8,7.4,3c0.6,2.8,2.6,5.2,5.8,5.2c0.2,2.4,1.4,4.4,3.2,5.8
		c-0.2,2.2,0.6,4.4,2.2,5.6c0,0,0,0.2-0.2,0.2c-1.2,2-0.8,4.8,1.2,6.2c-1,1.6-1.6,3.6-1,5.4c0,0.2,0.2,0.4,0.4,0.4
		c-0.8,1-1.2,2.4-1,3.8C125.1,105.3,123.5,107.1,123.5,109.9z M132.5,111.9c-0.4,0.8-1.4,1.4-2,2c-0.2-1.4-0.6-2.6-1.6-3.4
		s-2-1.2-3.2-1.2c1-2.6,4.4-3.8,6.4-1.6C133.3,108.9,133.3,110.5,132.5,111.9z M136.5,106.1c-0.2,0.6-0.6,1.2-1.2,1.6
		c-0.4-0.8-1-1.6-1.8-2.2c-1.4-1.2-3-1.6-4.6-1.4c0.8-2.6,4-4.2,6.4-2.2C136.7,102.7,137.1,104.5,136.5,106.1z M137.9,100.1
		c-0.4-0.6-1-1-1.6-1.2c-2.4-1.4-5.2-1-7,0.4c-0.2-3.2,3.6-6.6,6.6-4.8c1.2,0.8,1.8,2,2.2,3.2C138.3,98.5,138.1,99.3,137.9,100.1z
		 M138.1,92.9c-0.6-0.4-1-0.8-1.6-1c-2.2-0.8-4.6-0.2-6.2,1.2c-2-3.2,2-5.6,4.6-6.4c0.6-0.2,1-0.2,1.4,0c0.2,0.2,0.4,0.6,0.8,0.6
		c0.6,0.6,1.2,1.6,1.2,2.6C138.7,90.9,138.5,91.9,138.1,92.9z"/>
</g>
</svg>
