<?xml version="1.0" encoding="utf-8"?>
<!-- Generator: Adobe Illustrator 18.1.1, SVG Export Plug-In . SVG Version: 6.00 Build 0)  -->
<svg version="1.1" id="Capa_1" xmlns="http://www.w3.org/2000/svg" xmlns:xlink="http://www.w3.org/1999/xlink" x="0px" y="0px"
	 viewBox="0 0 200 200" enable-background="new 0 0 200 200" xml:space="preserve">
<g>
	<path fill="#1D1D1B" d="M155.3,46.8c-6.8-13.8-22.6-8.8-29.4,1.6c-3.6-10.6-21.6-10.4-28.2-0.2c-1,1.6-1.8,3.4-2.4,5
		c-3.8-4.6-10.4-7-16.2-6c-5.6,1-11.4,6.2-10.8,11.8c-10.6-5.8-26.4-2.4-25.2,12.8c1.4,17.2,26.2,26,40.4,28c-1.6,2-4.4,5.8-2.4,7.6
		c1,0.8,2.6,0.6,3.8,0.6h2c-2.4,2.6-3.4,5.2-3.6,7.8c-1.4-0.4-3-0.4-4.4,0.4s-2.2,2.4-1.8,4.2c0.2,1.6,1.6,2.6,3,2.4
		c1.4,0,2.6-1,3.8-2c1,3.2,2.8,6.4,4.8,9.6c-1.8,0.2-3.6,1-5,2.2c-1.4,1.4-2.2,3.8-0.6,5.2c1.4,1.2,3.6,1.2,5,0.4s2.4-2.2,3.2-3.6
		c2.4,3.4,4.8,6.8,6.4,10c-0.4-0.2-1-0.4-1.4-0.4c-1.6,0-3.4,0.6-4.2,2.2c-0.8,1.6,0.2,3.6,1.8,4.4c1.8,1,4,0.4,5.8-0.6
		c0.4,2.8-0.6,5.6-3.4,7.8c-1,0.8,0,2.2,1.2,2c4.6-1.4,6-5.6,5.4-9.8c1-0.2,1.8-0.8,2.6-1.2c0.8-0.4,1.8-0.8,2.4-1.4
		c1.2-1.2,1.8-3,0.8-4.4c-1-1.2-2.8-1.6-4.2-1c-1.4,0.6-2.4,1.8-3,3c-1.6-3.8-4.6-7.6-7.6-11.4c1.4-0.4,2.6-1.2,3.4-2
		c1.2-1.2,1.8-3.2,1-4.8c-0.8-1.6-2.8-2-4.4-1.4c-1.8,0.8-2.6,2.4-3,4.2c-2-3-3.8-6-4.8-9c1.6,0,3.2-0.6,4.2-1.4c1.4-1,2-3,1.6-4.6
		c-0.6-1.8-2.6-2.4-4.2-1.8c-0.8,0.2-1.4,0.8-1.8,1.4c0.4-2,1.4-4.2,3.2-6.4h2c1,0,1.4-1,1-1.8c-1-1.8-1.8-3.6-2.8-5.2
		c-0.4-0.8-1-1.8-1.6-2.6c1.2-1.2,2-2.6,2.6-3.4c4.4-5.8,8.8-11.6,12.8-17.8c5.2,4.6,11.8,8,18,9.2c-0.8,2.2-1.4,4.6-2.2,6.8
		c-0.2,0.6,0.2,1.4,0.8,1.6c1.2,0.2,2.4,0.4,3.4,0.4c-1.4,1.6-2.4,3.2-3.4,5c-0.8-1-1.8-2-3-2.4c-1.8-0.8-4.2-0.4-5.6,1.2
		c-1.4,1.8-0.8,4.2,1,5.4c1.6,1.2,3.8,1.4,5.6,0.8c-1,3.6-1.2,7.6-1,11.4c-2.8-1-6,0.2-7.2,3.2c-1,2.4,0.6,4.2,3,4.6
		c1.8,0.4,3.8-0.2,5.4-1.4c1.4,5,4.2,10.6,6.2,16.2c-1-0.6-2-0.8-3-0.8c-2.8,0-4.8,2-5.2,4.6c-0.4,2.2,0.2,4.8,3,4.2
		c2.4-0.6,4.8-2.2,6.4-4.2c1.8,6,2.2,11.6-1.6,16c-1.2,1.4,0.2,3.2,1.8,2.4c7-3.8,6.8-11.6,4.6-18.2c1.2,0.2,2.6-0.6,3.6-1
		c2.2-1,3.8-3.2,3.4-5.8c-0.4-2.6-3-3.6-5.2-2.6c-1.8,0.6-3,1.8-4,3.4c-1.6-4.4-3.2-8.4-4.4-12.4c0.4,0,0.6,0,0.8,0
		c2.6-0.2,5.2-1.6,5.8-4.2c0.6-2.2-1.2-4.4-3.2-4.8s-3.8,0.4-5,1.6c-0.6-3.8-0.6-7.4,0.2-11.4c1.2,1.2,2.6,2.2,3.8,2.6
		c2.2,0.6,4.6-0.2,5.8-2.2c1.2-1.8,0.4-4.2-1.4-5c-2.4-1.2-4.8,0-7,0.6c0.6-2,1.4-4,2.4-6.2l0,0c0.2,0,0.2,0,0.4,0
		c1.6,0.2,3-0.4,3.6-2c0.6-1.4,0-2.8-0.6-4c-0.4-1-1.2-2.2-1.8-3.4C141.7,80.6,163.1,63,155.3,46.8z M81.5,120.8
		c-1,0.6-2.6,0.8-2.6-0.8c-0.2-2.6,2.4-3,4.6-2.8c0,0.6,0.2,1.4,0.2,2C82.9,119.8,82.3,120.4,81.5,120.8z M104.5,144
		c1-0.6,3-0.8,3.2,0.6c0.4,2-3,3-5,3.8v-0.2V148c0-0.2-0.2-0.6-0.2-0.8l0,0C102.9,145.8,103.5,144.8,104.5,144z M99.5,148.2
		c-1,0.4-2.4,1-3.6,0.8c-1.4-0.4-1.8-1.8-0.4-2.4c1.2-0.4,2.4,0.2,3.6,0.8C99.3,147.6,99.3,147.8,99.5,148.2z M94.1,127.4
		c1-0.8,2.8-0.6,2.8,1c0,2.4-2.6,2.4-4.2,3.2c-0.2-0.2-0.2-0.2-0.4-0.4C92.7,129.8,92.9,128.2,94.1,127.4z M90.1,132.4
		c-1.2,1.6-2.2,3.8-4,3.8c-1.6,0-0.8-1.4,0-2.2C87.3,133.2,88.7,132.6,90.1,132.4L90.1,132.4z M87.9,114.6c1.2-0.6,2.8-0.4,2.8,1.2
		c0,1.2-1,2-2.2,2.4c-0.8,0.2-1.8,0-2.6,0c0-0.2,0-0.4,0-0.6C86.3,116.4,86.9,115.2,87.9,114.6z M115.7,122
		c-1.2,0.4-3.8,0.6-2.8-1.4s3.2-2.2,5-1.4v0.2c0,0.4,0.2,1,0.2,1.4C117.3,121.2,116.5,121.6,115.7,122z M119.3,103
		c-1.4,0.2-2.6,0.6-4,0.2c-1.6-0.4-2.8-2.4-1-3.4c2.2-1.2,3.8,0.6,5.2,2.4C119.5,102.4,119.3,102.6,119.3,103z M121.3,143.6
		c-0.4,0.2-1.4,0.8-1.8,1s-0.6,0.2-0.2,0c0-0.4,0-0.8,0-1.4c0.4-2,1.8-2.8,3.6-2.4c0.4,0.2,1,0.2,1.4,0.6
		C123.3,142.2,122.5,143,121.3,143.6z M132.1,136.8c0.8-0.4,2.6-1.4,3.2-0.2c0.4,1-0.2,2-1,2.6c-0.6,0.4-2.6,1.4-3,1.2l0,0
		c0,0-0.2,0-0.2-0.2h-0.2c-0.4,0-0.8,0-1,0.2c0-0.2-0.2-0.4-0.2-0.8C130.3,138.6,131.1,137.6,132.1,136.8z M125.9,117.8
		c1.2-0.2,2.8,0.2,3,1.8c0,1.4-1.2,2.2-2.4,2.4c-0.2,0-1.6,0.2-2.6,0.2c-0.2-0.8-0.4-1.6-0.6-2.4C123.9,119,124.7,118.2,125.9,117.8
		z M127.3,102.8c1.6-0.2,5.4,0.4,3.4,2.6c-2.2,2.4-4.4-0.2-6-2.2C125.5,103.2,126.3,103,127.3,102.8z M89.3,105.6
		c-1.8,0-3.6,0-5.4,0.2c-1.6,0-0.6-1.2-0.2-2.2c0.6-1.2,1-2.4,1.8-3.6c0.2,0,0.4,0,0.6,0c0.4,0.8,1,1.8,1.4,2.6
		C88.1,103.4,88.7,104.4,89.3,105.6z M85.3,97C85.3,97,85.1,97,85.3,97c-9-4.2-18.8-6-27.2-11.6c-5.2-3.6-10.4-8.4-10-15.2
		c0.8-12.2,13.6-11,21.6-7.6c0,0,0,0,0,0.2c0.8,1.2,2.8,0.4,2.4-1C70.5,54,77.9,50,84.7,51.4c4,0.8,6.8,3,9.4,5.8
		c-0.6,6.4,2,12.4,6.4,17.2C96.9,80.2,86.5,95.2,85.3,97z M124.9,92.6c-1,0-1.8-0.2-2.8-0.2c0.4-2,0.8-4,1.2-6
		c0.2,0,0.2-0.2,0.4-0.2c0.4,0.6,0.8,1,1.4,1c0.8,1.6,2.2,3,2.6,4.8C128.1,93.2,125.9,92.6,124.9,92.6z M124.3,83
		c-0.6,0.2-0.8,0.6-1,1l-0.2-0.2c-9.6-3.8-20-9.2-22.8-20c-1.6-6.2,0-13.6,5.6-17.4c8-5.4,15.4,1,17.2,8.8c0.4,1.6,3.2,1.8,3.4,0
		c0-0.4,0-0.6,0.2-1c2.8-5.6,7.2-11,13.8-11.4c4.8-0.2,10,2.8,11.4,7.6c1.2,4-1.4,9.4-3.2,12.6C143.1,72.6,134.1,78.8,124.3,83z"/>
</g>
</svg>
