<?xml version="1.0" encoding="utf-8"?>
<!-- Generator: Adobe Illustrator 18.1.1, SVG Export Plug-In . SVG Version: 6.00 Build 0)  -->
<svg version="1.1" id="Capa_1" xmlns="http://www.w3.org/2000/svg" xmlns:xlink="http://www.w3.org/1999/xlink" x="0px" y="0px"
	 viewBox="0 0 200 200" enable-background="new 0 0 200 200" xml:space="preserve">
<g>
	<path fill="#1D1D1B" d="M163.5,86.6c-1.6-1.4-3.2-1.8-5.2-1.6c0-0.2-0.2-0.2-0.2-0.4c-0.6-5.2-2-10.2-4-15c0.4,0.2,1,0.4,1.4,0.4
		c1.8,0.4,4.8,0.8,6.4-0.6c1.8-1.8-0.8-4-2.2-4.8c-2.4-1.2-5.2-1.2-7.8-0.2c0,0,0,0-0.2,0h-0.2c-1.8-2.8-3.8-5.6-6-8
		c2.8,0.8,6.4,0.6,7.8-1.6c1.4-2.2-0.8-3.4-2.6-3.8c-2.6-0.6-5.4,0-7.8,1.4c-0.2,0-0.2-0.2-0.4-0.2c-0.6-0.4-1.2,0-1.4,0.4
		c-2.6-2.2-5.8-3.8-9-5.2c1.2-0.2,2.4-0.6,3.4-1.4c0.8-0.6,0.2-2-0.8-1.4c-2,1.2-4.2,1.2-6.4,0.8h-0.2c2.8-2.2,5.6-3,9.2-3.2
		c1.2,0,1.4-1.6,0.2-2c-4.4-1.4-10,1-12.2,4.8c0,0.2-0.2,0.2-0.2,0.4c-2.8-0.4-5.6-0.6-8.8-0.6c-1.2,0-1.2,1.8,0,2
		c2.2,0.2,4.2,0.6,6.2,1c0,0.2-0.2,0.4-0.2,0.6c0,2.6,1.2,4.8,3.2,6.6c1.6,1.4,4.8,3.4,6.8,2c1.8-1.4,1-4,0.2-5.8
		c1.2,0.6,2.4,1,3.4,1.6c-0.2,0.2-0.4,0.2-0.4,0.4c-0.8,3,0.2,5.6,2,7.6c1.2,1.4,3.8,4.4,5.8,4c1.8-0.4,2.2-2.8,2-4.6
		c1.6,1.6,3.2,3.4,4.4,5.4v0.2c0.2,0.4,0.4,0.8,0.6,1.2c0,0.8-0.2,1.4-0.6,2c-0.2,0.4-2,2.8-2.6,2.2c-0.6-0.6,0.6-2.4,0.8-2.8
		c0.4-1,0.6-2.2,0.2-3.2c-0.4-1-1.8-0.8-1.8,0.2c0,1.2-1,2-1.4,3c-0.4,0.8-0.6,1.6-0.6,2.4c0,1.8,1,3.4,3,3.4c2.4,0,4-2.2,4.6-4.6
		c1.8,3.8,3,7.8,3.6,12c-4,0.6-12,5.2-8.4,9.2c1.8,2,4.4,1,6.4,0c0.8-0.6,1.8-1.2,2.4-1.8c0,4.6-0.6,9.2-1.6,13.8
		c-2.6-0.6-5.2,0-7.6,1.2c-2,1-4.8,3.2-3.6,5.8c1,2.2,4,3,6.2,2.4c1-0.2,2-0.8,3-1.4c-1.2,3.6-2.4,6.8-4,9.8l0,0
		c-0.2,0-0.2,0.2-0.6,0.2c-1.6-1.8-4.8-2.4-7-2.2c-2.2,0.2-5.4,1.4-5.4,4.2c0.2,2.4,2.8,3.4,5,3.2c1.4-0.2,3-0.6,4.4-1.4
		c-0.2,0.8-0.2,1.4-0.2,2.2c-2.6,4-5.6,7.4-9,10.4c-1-1.4-2.8-2.6-4.4-3.2c-2-0.8-5.4-1-5.8,1.8c-0.4,2.4,1.8,4.4,3.8,5.2
		c0.4,0.2,0.8,0.2,1.2,0.4c-2.6,1.6-5.4,3.2-8.2,4.4c-1.2-3-6.2-8.2-9.4-4.6c-1.6,1.8-0.6,4.2,1,5.4c0.6,0.6,1.4,1,2.2,1.2
		c-4,1-8.2,1.8-12.6,2c-0.2-2.4-1.4-5.4-2.8-7.4c-1.2-1.6-3.6-2.4-5.2-0.6c-1.6,1.8,0,5.2,1,6.8c0.2,0.4,0.6,0.8,1,1.2
		c-0.8,0-1.4,0-2.2,0c-2.8-0.2-5.6-0.4-8.4-0.8c0.2-3.2-0.6-13-5.4-10.4c-2,1-1.8,3.8-1.4,5.6c0.2,1.4,0.6,2.6,1.2,3.8
		c-2.2-0.4-4.2-1-6.4-1.8c1.6-3.8,1.4-11.4-3.6-11c-2.4,0.2-3.4,2.8-3.4,4.8c0,1.2,0.2,2.4,0.6,3.6c-2.6-1.4-5.2-3-7.6-5l0,0
		c1.6-2.2,3-5,3-7.8c0-1.8-0.8-4.8-3-4.6c-2,0.2-3.2,3-3.6,4.6c-0.4,1.4-0.4,2.8-0.2,4.2c-2.6-2.8-4.8-6-6.6-9.2
		c3.8-1,8.2-5.6,6.2-8.8c-1.2-2.2-4-1.2-5.4,0.2c-1.4,1.4-2.2,3-2.8,4.8c-1.4-3.2-2.6-6.4-3.4-9.6c2.2,0,4.6-1.4,6.4-2.6
		c1.8-1.4,3.2-3.6,2.2-6c-1-2.2-3.4-2.6-5.4-1.2c-1.8,1.2-3.2,3.4-4,5.4c-0.4-2.6-0.6-5.2-0.6-8c0-0.4,0-0.8,0-1.2
		c2,0.2,4.4-0.8,5.8-1.8c1.6-1,4.4-3.4,3.8-5.6c-0.8-2-3.4-1.6-4.8-1c-1.6,0.6-3,1.6-4.2,2.6c0.4-3.4,1.2-6.8,2.4-9.8l0,0
		c4.2,2.4,11,1.4,11.8-4.2c0.2-0.8-1-1-1.2-0.4c-1,4.2-5,3.6-8.4,2.8c1.8-1.6,4-2.8,6.4-3.4c0.8-0.2,0.6-1.4-0.2-1.4
		c-2.8,0.2-5.2,1.4-7.2,3.2c1.4-3.4,3.2-6.4,5.4-9.4c3.6,2.6,9.2,3.4,11.8-1c0.2-0.4-0.4-1-0.8-0.6c-2.6,3-6,1.4-9,0.4
		c2.6-0.8,5.2-1.4,8-1.6c0.8,0,0.8-1.2,0-1.2c-2.6-0.2-5.2,0.2-7.6,1.4v-0.2c2.8-3.2,6-6.2,9.6-8.8c0,0,0,0.2,0.2,0.2
		c2.4,3,11.4,7.4,12.8,1c0.8-4-3.8-5-7.6-4.6c2.8-1.6,5.8-3,8.8-4c0.8,2.2,3.2,3.8,5.4,4.4c1.8,0.6,5,1,6.2-1.2c1-2-1.4-4.2-3-5.2
		c-0.2-0.2-0.6-0.2-0.8-0.4c2.2-0.4,4.4-0.8,6.6-1c1,3.6,4.8,6.6,8.6,6c1.6-0.2,2.8-1.6,1.8-3.2c-0.6-1-1.6-1.6-2.6-2.2
		c0.4,0,0.6-0.2,1-0.4c1.6-0.8,2.6-2.6,1.8-4.4c-0.8-1.6-2.6-2.4-4.2-2.4c-2.2,0-4,1.8-5.2,3.4l0,0c-0.2,0-0.2,0-0.4,0
		c-2.8,0-5.4,0.2-8,0.8c0.2-0.2,0.4-0.6,0.6-0.8c1.2-1.6,1.4-4.6-0.8-5.6c-2.2-1-4.4,1-5.6,2.6s-2,3.6-2,5.6c-3.2,1-6.2,2.4-9,4
		c0.2-0.8,0.4-1.8,0.4-2.6c0-1.8-0.4-4.4-2.4-4.8c-2-0.6-4.4,1.2-5,3.2c-0.8,2.6,0.2,5.6,1.6,7.8c-3,2.2-6,4.8-8.4,7.6
		c0-1.2-0.2-2.4-0.8-3.6c-1.2-2-4-3.2-6-1.4c-2.8,2.6-1.6,9.6,2,11.2c-1.8,2.6-3.4,5.2-4.6,8.2c0-0.6-0.2-1.2-0.2-1.6
		c-0.2-1.2-0.6-2.2-1.2-3.2c-1.4-1.6-3.6-2.4-5.2-1c-3.6,3.2,0.4,10,4.4,11.6c-1,2.6-1.6,5.2-2.2,7.8c-0.2-0.4-0.4-0.6-0.6-1
		c-1.2-1.6-3.8-3-5.6-1.8c-2.2,1.4-1,4.8,0,6.4c1.2,1.8,3,3.2,5.2,3.8c-0.2,1.8-0.2,3.6-0.2,5.6c-0.4-0.2-0.8-0.6-1.2-0.8
		c-2.2-1-4.4,0.4-4.6,2.8c-0.4,4,3.2,6.8,6.8,7c0.6,2.6,1.2,5.2,2.2,7.6c-1.8-0.6-4-0.8-4.4,1.2c-0.6,2.2,2,4,3.8,4.6
		c1.2,0.4,2.2,0.4,3.4,0.2c1.8,3.4,4,6.6,6.8,9.6c-0.4,0-0.8,0.2-1.2,0.4c-2.2,0.8-4.4,3.6-2.2,5.8c2,2,5.8,0.8,8.4-1.2
		c1.8,1.6,3.8,2.8,5.8,4.2c-0.8,0.2-1.4,0.6-2,1c-1.6,1.2-2.8,3.6-2,5.6c1,2.6,4,2,6.2,1.4c2.4-0.8,4.4-2.2,6-4c2.6,1,5.4,1.8,8,2.4
		c-4.2,2-9.6,6.4-4.4,8.8c5,2.4,11.6-2.2,10.6-7.6c2.6,0.4,5.4,0.6,8,0.8c-2,1.8-3.2,4-2.4,6.8c0.2,0.6,0.6,0.8,1.2,0.8
		c4.6,0.2,8.8-3.4,9.6-7.8c4.2-0.2,8.2-0.8,12-1.8c-1,1.2-1.8,2.4-2.6,3.8c-1.2,2-1.2,4.8,1.8,4.8c4.8,0.2,9.6-6.2,8.2-10.8
		c0.6-0.2,1.2-0.4,1.8-0.6c3-1.2,5.8-2.8,8.4-4.6c-0.6,2.6-0.2,5.4,0.6,7.6c0.4,1,1.4,1.4,2.4,0.6c3.4-2.8,3.8-7.8,1.2-11.2
		c0.4-0.2,0.4-0.4,0.4-0.8c3-2.8,5.8-6,8.2-9.4c0.2,0.6,0.6,1.4,1,2c1.2,2,3.6,4.4,6.2,3.6c2.8-1,2.2-4.6,1.6-6.8
		c-0.8-2.6-2.2-4.6-4.2-6.2c1.8-3.4,3.2-7,4.4-10.8c0.2,0.2,0.4,0.4,0.4,0.6c1.4,1.6,4.4,3.6,6.6,3c2.6-0.8,1.4-4.4,0.6-6.2
		c-1.2-2.4-3.2-4-5.6-5h-0.2c0.8-4,1.4-7.8,1.6-11.8c0-0.2,0-0.4,0-0.6c0.4,0.2,0.6,0.6,1,0.8c1.8,0.8,4.2,0.6,5.4-1.2
		C166.3,90.6,165.1,88,163.5,86.6z M129.7,51c0.2,0.4,1.8,3.6,1.6,3.8c-0.4,0.2-1.8-0.6-2-0.8c-0.6-0.4-1.2-0.8-1.8-1.4
		c-0.8-1-1.4-2.2-2-3.4c1.2,0.4,2.4,0.6,3.6,1.2C129.3,50.4,129.5,50.6,129.7,51z M142.5,61.6L142.5,61.6c-1-0.4-2.4-2.2-3.2-3
		c-1-1.2-1.2-2.4-1.2-4c1.2,0.8,2.4,1.6,3.4,2.4c0.2,0.4,0.6,1,0.8,1.4c0.2,0.6,0.4,1.4,0.4,2.2C142.7,60.8,142.7,61.2,142.5,61.6z
		 M143.9,53.2c1.2-0.2,2.4-0.4,3.6-0.4c0.8,0,5,0.8,2.2,1.6C147.5,55,145.7,54.2,143.9,53.2z M157.1,66.6c0.6,0.2,1.8,0.4,2.4,1
		c0.2,0.2,0.4,0.4,0.6,0.6c-0.4,0.2-1,0.2-1.4,0.4c-2.2,0.2-4-0.6-5.4-2C154.3,66.2,155.7,66.2,157.1,66.6z M153.1,88
		c-0.6,0.4-3.4,2-3.6,0.8c0-0.8,3-2.4,3.6-2.8c0.8-0.6,1.8-0.8,2.8-1.4c0,0.4,0,0.6,0,1C155.3,86.6,154.3,87.4,153.1,88z
		 M139.1,122.8c-0.2-1.4,3.6-1.2,4.4-1c0.4,0.2,0.8,0.2,1.2,0.4C142.3,123.4,139.3,124.2,139.1,122.8z M48.3,106.4
		c0.4-0.6,1-1.2,1.6-1.6c1-1,2.4-0.4,2,1.2c-0.6,2.4-3.4,3-5.6,3.6C46.7,108.4,47.5,107.2,48.3,106.4z M96.1,46.6
		C96.1,46.6,96.3,46.6,96.1,46.6c1.2-0.8,2-1.6,3-2.2c0.8-0.4,3-0.6,3,1c0,2-4,1.6-6,1.6C96.1,46.8,96.1,46.8,96.1,46.6z M97.7,48.6
		c0,0.2,0.2,0.2,0.2,0.4c1.2,0.6,2.2,1.4,3.4,2.2c0.2,0.2,0.6,0.4,0.8,0.6c0.4,0.4,0.4,0.4-0.2,0.4c-0.4,0.2-1.2-0.2-1.6-0.2
		c-2-0.6-3.6-2-4.6-3.6C96.3,48.2,97.1,48.4,97.7,48.6z M82.1,44.8c0.6-1,1.8-3,3-3.2c1.4-0.4,1.6,1,1.2,1.8c-0.4,0.6-1,1.2-1.6,1.6
		c-1,0.6-2,1-3,1.6C81.7,46,81.7,45.4,82.1,44.8z M83.5,50c1,0,2.2,0.2,3.2,0.8c0.8,0.4,3.2,2.4,1.8,3c-1.2,0.4-3.2-0.4-4.2-0.8
		c-1.2-0.6-2-1.4-3-2.2C82.1,50.4,82.9,50.2,83.5,50z M71.9,56.8c0.8,0,2.2,0.2,3,0.8s1.6,2,0.6,2.6c-2.4,1.2-6.2-1.4-8.4-2.6
		c0.2-0.2,0.6-0.4,0.8-0.6C69.1,56.8,70.5,56.6,71.9,56.8z M66.1,49.6c0.2-1,1-3.8,2.2-3.2s0.6,3.2,0.4,4.4c-0.4,1.2-1,2-1.6,3
		c0,0-0.2,0-0.2,0.2C66.5,52.4,65.9,51,66.1,49.6z M50.9,59.6c1.2-1.4,2.6,0.2,3,1.2s0,2.2-0.2,3.4c-0.2,0.8-0.4,1.6-0.4,2.4
		c-0.2,0.4-0.6,0.6-0.8,1C50.3,66.4,49.5,61.2,50.9,59.6z M42.7,78c-0.4-0.8-1-1.6-1.2-2.4c-0.2-0.4-0.4-1-0.4-1.6
		c0-1.4,0.8-1.8,2.6-1.4c2.2,1.4,1.4,4.6,2,7c-0.2,0.4-0.4,1-0.6,1.4C44.1,80.2,43.3,79.2,42.7,78z M43.9,95.6c1-1,2.2-2,3.4-2.6
		c0.8-0.4,1.6-1,2.4-1.2c1-0.2,2-0.2,1,1s-2.6,2.2-4.2,2.8c-0.8,0.2-1.8,0.4-2.8,0.6C43.9,96,43.9,95.8,43.9,95.6z M38.9,93.8
		c-0.6-0.8-2.6-4-1-4.2c1.4-0.2,2.6,1.8,3,3c0.2,0.6,0.4,1.2,0.6,1.6c0,0.4,0,1-0.2,1.4C40.5,95.2,39.7,94.6,38.9,93.8z M37.9,106.8
		c0-0.4-0.2-1.2,0.2-1.6c0.8-0.8,1.8,0.4,2.2,1c0.4,0.4,0.6,0.8,1,1.2c0,1,0.2,2,0.4,2.8C39.9,109.8,38.3,108.6,37.9,106.8z
		 M45.7,124.2c-1-0.2-3-0.8-3.2-1.8c-0.2-0.6,0.8-0.2,1.2-0.2c0.6,0.2,1.2,0.4,1.6,0.6c0.2,0.4,0.4,0.8,0.6,1.4
		C45.9,124.2,45.9,124.2,45.7,124.2z M51.7,120.6c0.4-0.8,1-1.4,1.6-2c0.8-0.8,2.2-1.2,2,0.4c-0.2,1.4-1.6,2.6-2.6,3.4
		c-0.6,0.4-1.4,0.8-2.2,1C50.7,122.4,51.1,121.4,51.7,120.6z M52.3,140.6c-2-1.2,1.8-2.8,2.8-2.8c0.2,0,0.2,0,0.2,0
		c0.6,0.6,1,1,1.6,1.6C55.3,140.2,53.3,141.2,52.3,140.6z M59.7,133.2c0-0.8,0.4-3.6,1.2-4c0.2-0.6,0.4-0.4,0.6,0.6c0,0.4,0,0.8,0,1
		c0,0.8-0.2,1.6-0.6,2.4c-0.4,0.8-0.8,1.6-1.2,2.4C59.7,134.8,59.7,134,59.7,133.2z M64.5,150.6c-2.8,0.2-1.2-2.6,0-3.4
		c0.8-0.4,1.6-0.8,2.4-0.8c1,0.6,2,1,3,1.4C68.5,149.2,66.3,150.6,64.5,150.6z M72.5,145.4c-0.4-0.2-0.8-0.4-1.2-0.6
		c-0.2-0.6-0.6-1.2-0.8-2c-0.2-1-1-4,0.2-4.8c0.6,0,1.2,0,1.8,0.2c0.2,0.4,0.4,0.8,0.6,1.2c0.2,0.8,0.2,1.6,0.2,2.6
		C73.3,143.2,72.7,144.2,72.5,145.4z M82.5,141.4c1-1.4,1.4,3,1.6,3.6c0.2,1.2,0.2,2.6,0.4,3.8l0,0c-0.4-0.8-0.8-1.6-1.2-2.4
		C83.1,145.4,81.9,142.2,82.5,141.4z M82.9,157c-1.4,1.2-3.4,2-5.2,1.4c-2.6-1,1-3.2,2-4c1.4-0.8,3-1.4,4.4-2.2c0.2,0,0.4,0,0.6,0.2
		c0,0.2-0.2,0.2-0.2,0.4l0,0c0.2,0,0.2,0,0.4,0C84.7,154.2,84.3,155.8,82.9,157z M94.7,158.6c-0.2-2.2,1.6-3.8,3.4-5.2
		c0.8,0,1.8,0,2.6,0C100.1,156,97.7,158.2,94.7,158.6z M100.5,150c-1.6-1.2-3-2.6-3.6-4.8c-0.2-1.2,0-3,1.6-1.6
		c0.6,0.6,1,1.4,1.2,2.2c0.6,1.4,1,2.8,1.4,4.2C101.1,150,100.9,150,100.5,150z M114.9,142.8c0.8-0.6,2.4,0.6,3,1.2
		c0.8,0.8,1.6,1.6,2.2,2.4c-1-0.2-2.2-0.4-3.2-1C116.5,145.2,113.9,143.6,114.9,142.8z M115.7,157c-1,0.4-1,0.4-0.6-0.6
		c0.6-1,1-1.8,1.6-2.6c0.8-1.2,1.8-2.2,2.6-3.4c0.4-0.2,0.8-0.2,1.2-0.4C120.3,153,119.1,155.8,115.7,157z M133.3,139.6
		c-1.8,0-3.6-0.4-4.6-1.8c-0.8-1-0.2-1.6,1-1.4c0.8,0,1.8,0.6,2.4,1c0.8,0.4,1.4,1,2,1.8C133.7,139.2,133.5,139.4,133.3,139.6z
		 M135.7,148.8c-0.2-1-0.2-1.8,0-2.8c0.2-1.2,0.6-2.2,0.8-3.4C137.5,144.6,137.1,147,135.7,148.8z M151.3,128.2
		c0.4,0.8,2.6,6.2-0.2,5.4c-1.4-0.4-2.6-3.2-3-4.6c-0.2-0.4-0.2-0.6-0.2-1c0.6-0.8,1-1.6,1.4-2.6
		C150.1,126.4,150.7,127.2,151.3,128.2z M153.7,106c-0.4,0-1,0.2-1,0.8c0,0.2,0,0.4,0,0.6c-0.4,0.4-1,0.8-1.4,1.2
		c-1.2,0.8-4.4,2-4.6-0.2c-0.2-2.8,5-3.4,7.6-3.4C153.9,105.4,153.9,105.8,153.7,106z M159.7,110c0.4,0.8,0.8,1.4,0.8,2.2
		c0,0.2,0.2,0.6,0.2,1c0-0.2-0.4-0.2-0.6-0.2c-1.4-0.6-2.6-1.4-3.4-2.6c-0.4-0.4-0.6-1-0.8-1.4c0.2-0.6,0.4-1.4,0.4-2
		C157.7,107.6,158.9,108.6,159.7,110z M162.1,90.6c-1.4,1.4-3.2-2.2-3.8-3.2c0-0.2,0-0.4,0-0.4c0.8,0.2,1.8,0.6,2.4,1.2
		C161.3,88.6,162.9,90,162.1,90.6z"/>
</g>
</svg>
