<?xml version="1.0" encoding="utf-8"?>
<!-- Generator: Adobe Illustrator 18.1.1, SVG Export Plug-In . SVG Version: 6.00 Build 0)  -->
<svg version="1.1" id="Capa_1" xmlns="http://www.w3.org/2000/svg" xmlns:xlink="http://www.w3.org/1999/xlink" x="0px" y="0px"
	 viewBox="0 0 200 200" enable-background="new 0 0 200 200" xml:space="preserve">
<g>
	<path fill="#1D1D1B" d="M136.9,48.7c-12-13.2-29.6,0.8-35.4,13.8c-1.8-7-5.8-12.8-13-15.6c-8.6-3.2-18.2-1-24.4,5.8
		c-13.8,15.4-3.8,40.6,15.8,44.2c0,0,0,0,0,0.2c3.6,19.6,9.4,41.2,18.6,58.8c0.4,0.8,1.6,0.8,2,0.2c0.4,0,0.8-0.2,0.8-0.8
		c6-19.4,13-40.2,15.4-60.4c0.2,0,0.2,0,0.4,0C133.7,89.5,151.3,64.5,136.9,48.7z M81.7,97.5c7.4-0.6,15.2-1,22.8-1.8
		c1.8,1.6,3.6,3,5.4,4.4c-1,1.4-2,2.8-2.8,4.4c-1-0.8-2-1.4-3.2-2.2c0,0,0,0,0-0.2c0.4-0.8-0.8-1.4-1.2-0.8l0,0
		c-1-0.8-2-1.4-3.2-2.2c-0.6-0.4-1,0.6-0.6,1c1,0.8,2,1.6,3,2.2c-1,1.6-1.8,3-2.8,4.4c-1.4-1-3-1.8-4.4-2.8c0.6-1,1.4-2,2-3
		c0.4-0.6-0.6-1.2-1-0.6c-0.8,1-1.4,2-2,2.8c-1.8-1.4-3.8-2.6-5.6-4.2c0,0-0.2,0-0.2,0.2c1.6,1.6,3.4,3.2,5.2,4.8
		c-1.2,1.8-2.2,3.6-3.2,5.4c-0.8-0.8-1.8-1.6-2.6-2.4c-0.4-0.4-1.2,0.2-0.8,0.8c0.8,1,1.8,1.8,2.8,2.8c-0.6,1-1,2-1.6,3
		c-0.2,0.6,0.6,1,0.8,0.4c0.6-0.8,1-1.8,1.6-2.6c1.2,1.2,2.6,2.4,3.8,3.6c-1.2,2-2.6,4-3.8,5.8C87.3,113.1,84.5,105.3,81.7,97.5z
		 M99.7,109.1c1,0.6,2,1.4,3,2c-1.2,2-2.4,4.2-3.6,6.2c-1-0.8-2.2-1.6-3.2-2.4C97.3,112.9,98.5,110.9,99.7,109.1z M94.9,113.9
		c-1.4-1-2.6-2.2-4-3.4c1.2-1.8,2.2-3.6,3.4-5.4c1.4,1.2,2.8,2.2,4.2,3.2C97.3,110.1,96.1,111.9,94.9,113.9z M100.5,107.9
		c1-1.4,1.8-3,2.6-4.4c1,0.8,2,1.4,3,2.2c-0.8,1.4-1.8,2.8-2.6,4.2C102.5,109.3,101.5,108.5,100.5,107.9z M90.5,122.1
		C90.5,122.1,90.7,122.1,90.5,122.1c1.8-2,3.2-4,4.6-6c1,1,2.2,1.8,3.2,2.6c-1,2-2.2,4-3.2,6c-0.8-0.8-1.6-1.6-2.4-2.4
		c-0.4-0.4-1.2,0.2-0.8,0.6c0.8,1,1.6,2.2,2.6,3c-0.6,1.2-1,2.2-1.6,3.4C92.1,127.1,91.3,124.7,90.5,122.1z M93.7,131.3
		c0.8-1.2,1.4-2.6,2.2-3.8c1.4,1.4,3,2.8,4.6,4c-1,1.8-2,3.6-2.8,5.4c-0.2-0.4-0.6-0.6-0.8-1c-0.6-0.8-1.8,0-1.2,0.8
		c0.4,0.6,0.8,1.2,1.4,1.8c-0.2,0.4-0.4,0.8-0.6,1.2C95.5,136.9,94.5,134.1,93.7,131.3z M99.9,151.7c-1-3.4-2-7-3-10.4
		c0.4-0.6,0.6-1.2,1-1.8c1,1.2,2.2,2.2,3.6,3c0.2,0,0.2,0.2,0.4,0.2C101.3,145.7,100.5,148.7,99.9,151.7z M102.1,141.1
		c-1.2-1-2.4-2-3.4-3c1-1.8,2-3.8,3-5.8c0.6,0.4,1.4,0.8,2,1.2C103.1,136.1,102.7,138.7,102.1,141.1z M104.1,132.1
		c-0.6-0.4-1-0.8-1.6-1.2c0.4-0.6,0.6-1.2,1-1.8c0.4-0.8-0.8-1.4-1.2-0.6c-0.4,0.6-0.6,1.2-1,1.6c-1.6-1.2-3.2-2.6-4.8-4
		c1.2-2,2.4-4,3.6-6c1.8,1.4,3.8,2.8,5.8,4C105.3,126.7,104.7,129.5,104.1,132.1z M106.3,122.3c-1.8-1.2-3.6-2.4-5.4-3.8
		c1.2-2.2,2.6-4.2,3.8-6.4c1.2,0.6,2.4,1.4,3.6,2C107.7,116.9,107.1,119.7,106.3,122.3z M108.9,112.9c-1-0.6-2.2-1.2-3.2-1.8
		c0.8-1.4,1.6-2.8,2.4-4.2c0.6,0.4,1,0.8,1.6,1.2c0.2,0.2,0.4,0.2,0.6,0C109.7,109.7,109.3,111.3,108.9,112.9z M110.5,107.1
		c0-0.2-0.2-0.2-0.2-0.2c-0.6-0.4-1-0.8-1.6-1.2c0.8-1.6,1.8-3.2,2.6-4.8c0.4,0.2,0.8,0.4,1,0.6
		C111.7,103.5,111.1,105.3,110.5,107.1z M111.9,99.9c0.2-0.6,0.6-1.2,0.8-1.6c0.4-0.8-0.6-1.4-1.2-0.6c-0.4,0.4-0.6,1-1,1.6
		c-1.6-1-3.2-2.2-4.8-3.4c3.2-0.4,6.4-0.8,9.4-1.6l0,0c-0.8,2-1.6,4.2-2.4,6.4C112.5,100.3,112.1,100.1,111.9,99.9z M115.7,91.3
		C115.7,91.3,115.7,91.5,115.7,91.3c-11-0.8-23.2,1.6-34,3.6l-0.2-0.2c-13-6.4-24.8-18.8-17-34.2c3.8-7.8,12-12,20.4-9.8
		c9.6,2.4,11.6,11,14,19.4c0.6,2,3.8,1.6,3.6-0.4c0-0.8-0.2-1.6-0.2-2.2c2.8-6.6,7-12.6,13.4-16.2c9.2-5.2,19.8-2.2,21.2,9.4
		C138.9,75.7,126.5,83.5,115.7,91.3z"/>
	<path fill="#1D1D1B" d="M133.1,63.5c-1.6-4.2-6.2-7.4-10.8-6.8c-1.2,0.2-1,2,0,2.2c3.2,1.2,6,3,6.4,6.8c0.4,3-2.2,5-2.2,7.8
		c0,1,1,2.4,2.2,2.2C133.9,75.1,134.7,67.5,133.1,63.5z"/>
</g>
</svg>
