<?xml version="1.0" encoding="utf-8"?>
<!-- Generator: Adobe Illustrator 18.1.1, SVG Export Plug-In . SVG Version: 6.00 Build 0)  -->
<svg version="1.1" id="Capa_1" xmlns="http://www.w3.org/2000/svg" xmlns:xlink="http://www.w3.org/1999/xlink" x="0px" y="0px"
	 viewBox="0 0 200 200" enable-background="new 0 0 200 200" xml:space="preserve">
<g>
	<path fill="#1D1D1B" d="M144.2,93.9c-3.2-23.4-30.8-30.8-47.8-17c-7.4-3.4-17.2-3-24.4,0.2c-14,6.2-19.8,22-14.6,36.2
		c5.8,16.2,21.2,20,36.2,14c2.8-1.2,5.2-2.6,7.2-4.4c0.2,0.2,0.4,0.4,0.6,0.6C120.8,132.9,147.2,116.5,144.2,93.9z M94.6,122.9
		c-13.2,7-29.6,3.6-34.4-11.6c-3.4-11,0.2-23,10-29.2c10.4-6.6,25.4-5.4,32.8,4.8l0,0C105,100.1,109.4,114.9,94.6,122.9z M106,88.1
		v-0.2l0,0c5.2-3.4,10.8-5.4,17-3.6c6.6,1.8,13.4,8.4,13,15.6c-0.4,5.8-7.2,12.2-12,15c-5.6,3.6-11.8,4-17.6,0.8
		C110.2,107.5,109.4,97.3,106,88.1z M102.8,120.7c1-1.2,1.8-2.4,2.6-3.6c11,10.6,33-3.8,33.6-17.4c0.8-17.4-22.2-24.6-34.4-15
		c-1.4-2.8-3.6-5-6.2-6.8c15.4-8.8,37-5.4,41.8,14.2C145.6,113.5,120.8,127.5,102.8,120.7z"/>
	<path fill="#1D1D1B" d="M98,87.7c-0.4-0.8-1.2-0.8-1.8-0.6c-12.4-14-41.8,7-26.4,24.4c6.6,7.4,16.4,9.4,24.6,3
		C102,108.3,102.6,96.3,98,87.7z M97,103.9c-0.8-1.8-1.4-3.4-1.4-5.4c0-1.8,0.4-3.8,1-5.4C97.6,96.7,97.8,100.5,97,103.9z
		 M75.2,112.5c-7.6-5.6-9-14.8-1.6-21.4c4.6-4,10.2-5.6,15.6-4.4c-5.2,6.8-3.8,20,2.4,25.6C86.8,115.9,80.4,116.3,75.2,112.5z
		 M95.4,107.9c-0.6,1-1.2,1.8-2,2.6c-5.4-5.8-5-16.2-2-23.2c1.4,0.4,2.6,1.2,4,2c0.2,0.4,0.4,0.8,0.4,1.4c-3.8,4.2-4.8,12,0.2,15.8
		C95.8,106.9,95.6,107.3,95.4,107.9z"/>
</g>
</svg>
