<?xml version="1.0" encoding="utf-8"?>
<!-- Generator: Adobe Illustrator 18.1.1, SVG Export Plug-In . SVG Version: 6.00 Build 0)  -->
<svg version="1.1" id="Capa_1" xmlns="http://www.w3.org/2000/svg" xmlns:xlink="http://www.w3.org/1999/xlink" x="0px" y="0px"
	 viewBox="0 0 200 200" enable-background="new 0 0 200 200" xml:space="preserve">
<g>
	<path fill="#1D1D1B" d="M144.9,137.3c-0.2-0.2-0.2-0.4-0.4-0.4c0-0.4-0.2-0.8-0.6-1c-11-17-25.4-32.4-39.8-46.6
		c6.4-7.6,6.8-19,0.6-27.4c-9-12.2-26.8-13.2-38.6-4.2c-10.4,8-14.6,22.4-8,34.2c5.8,10.4,19.8,15.4,29.6,7.8
		c8,12.2,17.2,23.6,26.4,34.8c3,3.6,6.6,10,11,12.4c4,2,10,1.2,14.2,1.2c0,0,0,0,0.2,0c0.6,0.4,1.4,0.4,1.8-0.4
		c1-2.8,2.2-5.8,2.8-8.8C144.9,138.5,145.3,137.9,144.9,137.3z M139.7,145.1L139.7,145.1c-7.4-0.8-13-1.6-18-7.4
		c-3.6-4.4-7.2-8.8-10.8-13.2c-7.2-8.8-14.2-17.6-21.8-26c0.2-0.4-0.4-1-0.8-0.8c-10.6,3.2-21.6,2.4-27.2-8.8
		c-4.6-9-2-19.6,5.2-26.6c20-18.8,53.4,6.4,31.8,28c-1.2,1.2,0.4,3.6,2,2.6c0.8-0.6,1.4-1,2-1.6c13.2,15,26,30.8,39.6,45.4
		c-0.6,1.4-1,3-1.4,4.4c-12.4-14.4-25.2-28.2-36.4-43.6c-0.4-0.6-1.4,0-1,0.6c10.4,16,22.4,31.8,37,44.2
		C140.1,143.3,139.9,144.3,139.7,145.1z"/>
	<path fill="#1D1D1B" d="M77.7,59.1c-2.8,0-4.2,2.4-4.8,5c-0.8-0.2-1.6-0.4-2.4-0.4c-2.2,0-4.6,1.6-4.8,4c-0.6,6.2,8,5.4,12,3.8
		c1.4,0.2,2.4-0.8,3-2.2C81.9,66.3,83.1,59.1,77.7,59.1z"/>
</g>
</svg>
