<?xml version="1.0" encoding="utf-8"?>
<!-- Generator: Adobe Illustrator 18.1.1, SVG Export Plug-In . SVG Version: 6.00 Build 0)  -->
<svg version="1.1" id="Capa_1" xmlns="http://www.w3.org/2000/svg" xmlns:xlink="http://www.w3.org/1999/xlink" x="0px" y="0px"
	 viewBox="0 0 200 200" enable-background="new 0 0 200 200" xml:space="preserve">
<g>
	<path fill="#1D1D1B" d="M149.9,127.4c-3.2-7.6-6.2-15-9.4-22.6c0.4-0.8,0-2-1.2-2c-6.8-0.6-13.8,0-20.6,1.4c6.8-10,12-21,10.6-32.8
		c-2-15.8-15.8-24.2-31-20.6c-14.8,3.4-26.8,16.4-27,32c0,7.8,2.4,15.4,6.6,22.2c-5-0.2-10.2,0.8-15.2,1.2c-0.6,0-0.8,0.6-0.8,1
		c-5.4,4.4-7.8,11.2-10.6,17.4c-3,6.6-8.4,14.8-9,22c0,1.2,1.6,2.2,2.6,1.4c0.2,0.4,0.4,0.6,1,0.6c36-0.2,71.8,0.8,108,1.4
		c1,0,1.6-0.6,1.8-1.4c1,0,1.8-0.8,2-2C158.3,141.6,151.9,132,149.9,127.4z M77.1,91.6c-4.4-16.2,5-31.8,21-36.4
		c19.8-5.8,30.8,12.6,25.4,29.8c-4.4,13.8-15.4,25.8-24,37.4C89.9,114,80.5,104.4,77.1,91.6z M46.1,146.6c3.6-5.4,5.8-12.4,8.2-18.4
		c3-7,6-13.8,9.6-20.4c5,0,10.2,0.2,15.2-0.8c5.4,8,12.8,15,20.8,19.2c0.4,0.2,0.8,0.2,1.2,0c0.6,0,1.2-0.4,1.6-1
		c4.2-5.8,9.6-12,14.2-18.4c7-0.8,13.8-0.8,20.8-1.2c2,7.4,4.6,14.6,7.4,21.6c1,2.6,2.2,5.2,3.2,8c1.4,3.2,4.2,7.4,5,10.8
		C118.3,142.4,81.3,143,46.1,146.6z"/>
	<path fill="#1D1D1B" d="M109.1,73c-4.8-3.2-9.8,1-12.6,5.8c-1.2-1-2.8-1.8-4.4-2c-3-0.4-5.8,1.6-6,4.8c-0.4,6.6,7.6,12,13.4,12.2
		c0.4,0,0.8-0.2,1.2-0.4c0.6,0,1.2-0.2,1.8-0.8C106.9,88.8,116.9,78,109.1,73z"/>
</g>
</svg>
