<?xml version="1.0" encoding="utf-8"?>
<!-- Generator: Adobe Illustrator 18.1.1, SVG Export Plug-In . SVG Version: 6.00 Build 0)  -->
<svg version="1.1" id="Capa_1" xmlns="http://www.w3.org/2000/svg" xmlns:xlink="http://www.w3.org/1999/xlink" x="0px" y="0px"
	 viewBox="0 0 200 200" enable-background="new 0 0 200 200" xml:space="preserve">
<g>
	<path fill="#1D1D1B" d="M137.6,108.1c0-5.2,0.8-12.2-4.6-15.2c-1.2-0.6-2.8-1-4.6-1c2.8-16.4-10-38.6-27.6-40
		C79.6,50.1,70,72.9,70,90.7c-1.4,0-2.8,0-4.2,0c-2.2,0-2.6,2.6-1.6,3.8l0,0c-1.2,12.2-1.2,24.8-1.4,37c-0.2,5.2-2.2,12,3,15
		c3,1.6,8.6,0.8,11.8,1c5.8,0.4,11.6,0.6,17.4,0.6c12.8,0.2,25.8,0.4,38.6-0.8c0.6,0,1-0.4,1.2-1c1,0,1.8-0.6,2-1.8
		C137.6,132.5,137.8,120.3,137.6,108.1z M96.8,55.7c17.6-1.2,30.8,20.2,28.2,36.2c-2,0-3.8,0.2-5.4,0.2c-5.6-0.2-11.4-0.4-17-0.6
		C96,91.3,89.4,91.1,83,90.9c0.8-9.4,6.4-22.6,17.2-23.8c13.2-1.4,15.4,13,14.8,23c-0.2,2.2,3.4,2.2,3.4,0
		c0.6-11.4-2.8-27.6-17.4-26.6c-12.6,1-21.2,15.6-20.2,27.4c-2.8,0-5.6-0.2-8.6,0C74,76.1,79.4,56.9,96.8,55.7z M133.4,144.3
		c-18,0.2-35.8,0.8-53.8,0c-5.8-0.4-10.8-0.8-13.6-6.8c-1.6-3.4,0.2-11.8,0.2-15.6c0-8.8,0.4-17.8-0.2-26.6
		c17.4-0.6,34.6,0.6,52,1.2c5.4,0.2,11.8,0.6,15,6c1.6,2.8,0.2,12,0.2,15.4C133.2,126.5,133.2,135.5,133.4,144.3z"/>
	<path fill="#1D1D1B" d="M109,129.9c-1.6-3-3.2-6.2-4.8-9.2c0.4-0.2,0.8-0.6,1.2-0.8c3.8-3.4,2.6-10.2-2.2-12
		c-1.8-0.6-3.6-0.4-5.2,0.2c-1.6-0.2-3.2,0.6-4.6,1.8c-1.8,1.8-2.4,4.4-1.6,6.8c0.6,2.2,2.4,3.8,4.4,4.6c-1.8,2.6-3,5.6-5,8
		c-1.4,2-0.6,5,2,5c4.4,0,8.8,0,13.2,0C108.6,134.5,110,131.9,109,129.9z"/>
</g>
</svg>
