<?xml version="1.0" encoding="utf-8"?>
<!-- Generator: Adobe Illustrator 18.1.1, SVG Export Plug-In . SVG Version: 6.00 Build 0)  -->
<svg version="1.1" id="Capa_1" xmlns="http://www.w3.org/2000/svg" xmlns:xlink="http://www.w3.org/1999/xlink" x="0px" y="0px"
	 viewBox="0 0 200 200" enable-background="new 0 0 200 200" xml:space="preserve">
<g>
	<path fill="#1D1D1B" d="M147.2,155.3c-0.2-0.6-0.6-0.8-1.2-1c0,0,0-0.2-0.2-0.2c-13.6-20.4-29-39.8-42.6-60.2c0-0.4,0-1-0.2-1.4
		c3.8,1.2,8.2,0.6,9-4c1-5.2-4.2-8.6-9-9.2c0.8-1,1.4-2,2-3.2c3.2-6.8,2.6-15.8,0-22.8c-5.4-14.6-22-18.6-35.6-12.8
		c-13.8,6-20.8,22.4-14.4,36.4c4.8,10.4,17.4,16.4,28.2,13c-2.8,4.6-4.2,11.6,1.8,14.2c4.4,1.8,8-1.8,9.2-5.8
		c0.2,0.2,0.6,0.6,0.8,0.8c13.4,21.2,28.8,42,44.8,61.4c0.2,0.2,0.4,0.2,0.6,0.2c-0.2,0.6-0.2,1.4,0.6,1.4c1.8,0.2,3.6-0.4,4.8-1.6
		C147,159.3,147.8,157.1,147.2,155.3z M59,72.9c-4.2-12.6,3.6-25.8,16.2-29.2c14.2-3.8,25.6,4.6,27.6,18.8c1.4,9.4-2.2,15.8-11,19.8
		c-2.2,1-3.2,1.4-4.6,2.8C76,88.1,63,85.1,59,72.9z M92.4,93.3c-1,2.6-2.4,11-7,7c-3.4-3-0.8-8.2,0.6-11.4l0,0
		c0.4-0.2,0.6-0.4,1-0.4c0.2,0,0.4,0.2,0.4,0.2c-0.2,2.2-0.6,4.2-1.2,6.4c-0.2,1,1.2,1.4,1.4,0.4c0.8-2.2,1-4.4,1-6.8l0,0
		c0.6-0.4,1.2-0.6,1.6-1c0,0.2,0,0.4,0.2,0.6c1.2,1.4,1.8,2.8,2.4,4.6C92.8,92.7,92.6,92.9,92.4,93.3z M95,94.5c0-0.4,0-0.6-0.2-0.8
		l0,0c0-0.2,0-0.2,0-0.4c0-0.2,0-0.2,0-0.4c-0.4-2.2-1.8-4.2-3.2-5.8c0,0,0,0-0.2,0c2-1,4-2,5.8-2.8c2,1.2,4,2.2,6.4,2.4
		c1,0,1.2-1.4,0.2-1.6c-1.6-0.4-3.2-1-4.8-1.8c0.6-0.4,1.2-0.8,1.8-1.4c3.2,1,7.4,1.6,8.2,5.2c1,4.4-4.6,4.2-7.2,3.2
		c-0.4-0.6-1-1-1.8-1.4s-2.2,0.4-1.4,1.4c1.2,1.8,2.8,3.8,1.4,5.8C98.6,98.1,94.6,97.5,95,94.5z M143.8,158.7
		c-0.6,0.8-1.4,1.4-2.6,1.4c-0.2,0-0.2,0-0.4,0c0-0.2,0-0.4,0-0.4c-13.8-20.4-28.2-40.6-43.2-60c1,0,2-0.2,3-0.6
		c1.2-0.6,2-1.8,2.4-3c11,20.8,24.6,42.6,41.4,59c0,0.2,0,0.4,0,0.6C144.4,156.7,144.4,157.7,143.8,158.7z"/>
	<path fill="#1D1D1B" d="M86.6,53.3c-4.8-1.2-8.8,2.2-10,6.4c-1.6-1-3.6-1.2-5.6-0.2c-3,1.6-3.8,5.4-2,8.2c3.6,6,14.4,7.6,19.2,2.4
		C92.2,65.9,94.6,55.3,86.6,53.3z"/>
</g>
</svg>
