<?xml version="1.0" encoding="utf-8"?>
<!-- Generator: Adobe Illustrator 18.1.1, SVG Export Plug-In . SVG Version: 6.00 Build 0)  -->
<svg version="1.1" id="Capa_1" xmlns="http://www.w3.org/2000/svg" xmlns:xlink="http://www.w3.org/1999/xlink" x="0px" y="0px"
	 viewBox="0 0 200 200" enable-background="new 0 0 200 200" xml:space="preserve">
<g>
	<path fill="#1D1D1B" d="M154.2,141.5c-0.2-0.8-0.6-1.4-1.4-1.6c0-0.2,0-0.2-0.2-0.4c-2-3.6-6.4-8.6-7.4-12.6c-1.2-5,1.8-8,3.2-12.4
		c2.2-6.8,1.8-14,0.2-20.8c-3.4-13.6-12.4-28.2-23.6-36.8c-21.6-16.4-53-11.2-69,10.2c-16.8,22.6-12.6,54,8.6,72.2
		c10.2,8.8,23.4,13.6,37,13.4c7.4,0,15-1.6,21.8-4.4c2.8-1.2,6.2-4,9-4.6c3.8-0.8,8,0.8,12,2c1.6,1.4,3.4,2.6,5.6,2
		C152.6,147.1,154.8,144.5,154.2,141.5z M133.2,135.3c-4.4,0.4-10.4,5.6-14.6,7c-12.6,4.4-26.8,4.2-38.8-1.6
		c-25.2-12.2-35.2-44.4-19.2-67.8c17.6-26.2,54.2-23.2,71.2,1.6c9,13.2,14.6,27.8,7.6,43c-4,8.8,0.4,14.8,5.2,22.4
		C140.8,137.9,136.2,135.1,133.2,135.3z"/>
	<path fill="#1D1D1B" d="M83.8,107.7c-2.6-0.8-5.2-0.2-7.6-0.4c-1.2-6.6,1-14.4,0.4-21c-0.2-2-3.2-3.4-4.2-1.2
		c-3,6.6-3.6,16.2-3,23.4c0.2,2.6,0.8,4.6,3.4,5.4c3.2,1,8,0.6,11-0.4C86.8,112.9,86.8,108.7,83.8,107.7z"/>
	<path fill="#1D1D1B" d="M97.4,95.5c-1.6-1-3.8-0.4-4.8,1.2c-0.2,0.4-0.4,0.8-0.6,1.2c-0.8-1.6-2.4-2.6-4.2-2
		c-1.6,0.4-3.2,2.6-2.4,4.4c0.2,0.2,0.2,0.6,0.4,0.8l0,0c0,0,0,0.2,0.2,0.2c0.8,1.8,1.8,3.2,3,4.6c0.6,0.8,1.2,1.4,2,2
		c2,1.6,4.8,0.2,4.8-1.8c1-1.8,2.2-3.8,3-5.8C99.4,98.7,99.2,96.5,97.4,95.5z"/>
	<path fill="#1D1D1B" d="M116.6,85.3c-0.4-3.4-5.8-4.8-6.6-0.8c-0.8,3.6-1.2,7.4-1.8,11c-1.2-3.4-2.4-6.6-3.8-9.8
		c-1.2-2.6-4.6-0.6-4.2,1.8c1.2,7.6,3.6,15.2,5.6,22.6c1,3.4,5.8,3.2,6.8,0C115,102.7,117.4,93.3,116.6,85.3z"/>
	<path fill="#1D1D1B" d="M132,100.5c2.6-0.6,3.6-2.8,3.4-5.2c-0.8-5.8-6.6-13.4-13-8.4c-5,3.8-3.8,12.8-2.4,18c0.8,3,2.6,5.8,5.6,7
		c3,1,6,0.2,7-2.8c0.4-1.4-0.6-3.2-2-3.4c-1.8-0.4-3,0.2-4-1.8c-0.4-0.8-0.6-1.8-0.8-3C128,101.1,130.4,100.9,132,100.5z
		 M126.8,92.5c1.2,0,1.4,1.6,1.6,2.4c-1,0-2.2,0-2.8,0.2C125.6,93.9,125.8,92.5,126.8,92.5z"/>
</g>
</svg>
