<?xml version="1.0" encoding="utf-8"?>
<!-- Generator: Adobe Illustrator 18.1.1, SVG Export Plug-In . SVG Version: 6.00 Build 0)  -->
<svg version="1.1" id="Capa_1" xmlns="http://www.w3.org/2000/svg" xmlns:xlink="http://www.w3.org/1999/xlink" x="0px" y="0px"
	 viewBox="0 0 200 200" enable-background="new 0 0 200 200" xml:space="preserve">
<g>
	<path fill="#1D1D1B" d="M92.3,60.1c-1.6-2.6-4.4-3.2-7-1.4c-1.8,1.2-2.4,3-3,5c-1.4,4.4-2,8.2-4.8,12.2v0.2
		c-4.8,0.6-9.8-4.6-14.6-1.4c-3.2,2-3.2,6.4-1.4,9.4c3.4,5.6,17.6,7.8,22.2,2C90.1,80.5,97.3,68.5,92.3,60.1z M72.3,85.7
		c-3.4-0.4-10.4-1.8-8.8-6.8c1.4-4.6,7.8-0.4,10.8-0.2c1.6,0.2,2.8-0.2,4-0.8c0.8,0.2,1.6,0,2-1c1.2-3,1.8-6.4,2.6-9.6
		c0.2-1.2,0.2-3.2,1-4.2c4.4-2.8,6.6-2.8,6.6,0.2c0.2,0.8,0.2,1.8,0,2.6c-0.2,6-2.6,11.6-6.4,16c-0.4-0.2-0.8-0.2-1,0.2
		C80.1,85.5,76.7,86.1,72.3,85.7z"/>
	<path fill="#1D1D1B" d="M148.7,131.9c0-0.4-0.2-0.6-0.4-1c-1.4-1.6-3.4-4.6-5.6-2.6c-1,1-2,2.4-2.8,3.6c-0.6,0.6-1,1.4-1.4,2
		c0,0,0-0.2-0.2-0.2c1-1.4,1.8-3,2.4-4.4c0.4-0.4,0.4-1.2,0-1.8c-1-1.2-2.4-3.6-4.2-3c-0.8,0.2-1.4,1-2.2,1.6
		c-0.8,0.8-1.8,1.6-2.6,2.2c-0.8-0.6-1.4-1.6-2.2-2.2c1-0.8,2-1.8,2.8-2.8c1.4-1.4,3-2.8,4.4-4.4c0.4-0.6,0.6-1.4,0-2
		c-1.4-1.2-2.4-2.6-4-3.6c-0.2-0.2-0.4-0.2-0.4-0.2c-0.4-0.4-1-0.6-1.6-0.4c-2.4,1-4.2,3.6-5.8,5.4c-1.8,1.8-3.4,3.4-5.2,5.2
		c-10-11.8-20-23.6-29.4-36c9.6-7,13.6-27.2,2.6-34.8c-4.6-3.2-10.6-2.4-14.8,1.4c-4,3.8-5,9-4.2,14c-8.8-6.8-22.6-0.6-23.6,11
		c-0.6,6.4,2.8,12.4,8.6,15.2c7,3.4,15,1.6,22-1.2c0,0,0,0.2,0.2,0.2c18,16.8,30,39,48.6,55c1,1,2.6-0.6,1.6-1.6
		c-16.8-17.6-29.4-39.2-48.6-54.4c0-0.2-0.2-0.4-0.4-0.2l0,0c-0.2,0-0.6,0-0.8,0.2c-9.6,1.8-24.6,2.8-27-9.6
		c-2.4-12.2,11.4-18,20-10.6c0.2,0.2,0.4,0.2,0.6,0.4c0.4,1,1.8,0.6,1.8-0.6c-0.8-5.2-0.6-10.6,3.2-14.6c6.6-7,14.6-1.2,15.6,6.6
		c1.2,8-1.6,16.4-7.8,21.6c-0.8,0.8-0.4,1.8,0.4,2.4c8.4,13.6,18.6,26.6,30.2,37.4c0,0,0.2,0,0.2,0.2c0.2,0.6,1.2,1,2,0.4
		c2.2-1.8,4.2-3.8,6.4-5.8c1.8-1.6,4.2-3.2,5.4-5.4c0.8,0.8,1.4,1.6,2,2.8c-1.4,1-2.6,2.2-3.8,3.4c-1.4,1.4-3,2.4-3.6,4.4
		c-0.2,0.8,0.6,1.8,1.4,1.6c0,0,0,0.2,0.2,0.2c0.8,1,1.8,2.2,2.2,3.4c0.4,1,1.4,1.2,2.2,0.6c1.2-1,2.4-2,3.6-3
		c0.6-0.6,0.4-0.8,1.2-0.2c0.4,0.4,0.8,1,1.2,1.4c-1,1.4-2.2,2.2-3.6,3.4c-0.6,0.6-0.6,1.8,0,2.2c0.6,0.6,1,1.2,1.6,1.8
		c0.8,0.6,1.8,0.4,2.4-0.4c1.2-0.6,2-1.6,2.8-2.6c0.4-0.4,0.8-1,1.4-1.4c0.2-0.4,0.6-1,1-1.2c0.6,0.6,1.2,1.6,1.8,2.2
		c-5.2,4.2-9.6,9.8-14,14.8c-0.8,1,0.4,2.2,1.4,1.4c5.4-4.8,11.6-9.6,15.8-15.6C149.7,132.9,149.3,132.1,148.7,131.9z"/>
</g>
</svg>
