<?xml version="1.0" encoding="utf-8"?>
<!-- Generator: Adobe Illustrator 18.1.1, SVG Export Plug-In . SVG Version: 6.00 Build 0)  -->
<svg version="1.1" id="Capa_1" xmlns="http://www.w3.org/2000/svg" xmlns:xlink="http://www.w3.org/1999/xlink" x="0px" y="0px"
	 viewBox="0 0 200 200" enable-background="new 0 0 200 200" xml:space="preserve">
<g>
	<path fill="#1D1D1B" d="M138.8,63.1c0-1.6-1.4-2.4-2.6-2.4c-2.4-2.2-6-3.2-8.8-4.4c-3.2-1.4-6.4-2.8-9.8-4.2c-0.4-0.2-0.8-0.2-1,0
		c-16.2-1.8-34,0.2-50,3c-1.2,0.2-1.4,1.6-1,2.4c-2.2,14.2-2,29-2.6,43.4c-0.2,8-0.6,16-0.8,24c-0.2,5.2-2.2,13.8-0.4,18.6
		c3.4,8.4,16.6,4.2,23.6,3.6c16-1,32-2,47.8-3c1.2,0,2-0.8,2.4-1.6c0.8,0,1.6-0.6,1.8-1.8C139.4,114.9,139,88.7,138.8,63.1z
		 M118.6,55.7c2.6,1.6,5.2,3.2,7.8,4.6c1.6,1,3.2,2,5,2.8c-2.2,1.4-4.4,2.6-6.6,4c-1.6,1-3.4,2.6-5.2,3.6c0-0.8,0-1.8,0-2.2
		c-0.2-1.8-0.4-3.6-0.6-5.2c-0.2-2.4-0.6-4.8-1-7.2C118.2,56.1,118.4,55.9,118.6,55.7z M133.4,138.5c-12.6,0.8-25.2,1.8-38,2.6
		c-6,0.4-12,0.8-18,1.2c-9.6,0.6-10.6-0.2-10.4-9.6c0.8-24.4,3.4-50,1.2-74.4c15.6-0.6,31.6-0.6,47.2-1.8c-0.2,3.4-0.2,7,0,10.4
		c0,0-0.2,0-0.4-0.2c-12.4-1.6-25-1.6-37.4-0.2c-0.8,0-0.8,1.2,0,1.2c12.6-0.6,25-0.2,37.4,0.8c0.2,0,0.2,0,0.4,0
		c0,1.6-0.2,3.4,0.2,5c-11.2-2-23.8-0.2-35,1.4c-0.6,0-0.6,1,0,1c11.6-0.6,23.6,0.6,35-0.8c0.2,0,0.4-0.2,0.4-0.2
		c0.2,0.2,0.4,0.4,0.4,0.6c0.6,0.6,1.4,0.8,2.2,0.6c2.6-0.8,5-2.6,7.2-4c2.6-1.6,5-3,7.6-4.6C132.8,91.1,132.2,114.9,133.4,138.5
		C133.6,138.5,133.4,138.5,133.4,138.5z"/>
	<path fill="#1D1D1B" d="M126.8,80.5c-15-1.8-31.4-0.8-46.2,1.6c-0.6,0.2-0.4,1.2,0.2,1.2c15.4-0.2,30.8,0.2,46.2-0.6
		C128.2,82.7,128.2,80.7,126.8,80.5z"/>
	<path fill="#1D1D1B" d="M122.4,90.7c-14.2-2.2-29.2-0.8-43.2,1c-0.6,0-0.6,1,0,1c14.4-1,28.6,0,43-0.2
		C123.2,92.5,123.6,90.7,122.4,90.7z"/>
	<path fill="#1D1D1B" d="M118.6,98.1c-12.2-1-25.2,0.4-37.4,1.6c-0.6,0-0.6,1,0,1c12.4-0.6,25,0.2,37.4-0.8
		C119.8,99.7,119.8,98.1,118.6,98.1z"/>
	<path fill="#1D1D1B" d="M124.8,106.7c-15.2-1-30.8-0.2-46.2,0.4c-0.8,0-0.8,1.2,0,1.2c15.2,0.8,30.8,1.6,46.2,0.8
		C126.2,108.9,126.2,106.7,124.8,106.7z"/>
	<path fill="#1D1D1B" d="M120.4,118.5c-6-1.6-12.4-1.6-18.6-1.6c-6.8,0.2-14,2.2-20.8,1.6c-0.8,0-1,1.2-0.2,1.4c6,1.2,12-0.2,18-0.4
		c7.2-0.2,14.2,0.8,21.2,1C121.4,120.9,121.6,118.9,120.4,118.5z"/>
	<path fill="#1D1D1B" d="M102.2,125.9c-2-1.2-3.6,0.6-4.8,2.6c-0.4-0.4-0.6-0.6-1-1c-1.8-2-5.4,0.4-3.8,2.8c1.2,1.8,2.6,3.4,4.4,4.4
		c1.2,0.8,3,0.2,3.6-1C102,131.9,105.4,127.7,102.2,125.9z"/>
</g>
</svg>
