<?xml version="1.0" encoding="utf-8"?>
<!-- Generator: Adobe Illustrator 18.1.1, SVG Export Plug-In . SVG Version: 6.00 Build 0)  -->
<svg version="1.1" id="Capa_1" xmlns="http://www.w3.org/2000/svg" xmlns:xlink="http://www.w3.org/1999/xlink" x="0px" y="0px"
	 viewBox="0 0 200 200" enable-background="new 0 0 200 200" xml:space="preserve">
<g>
	<path fill="#1D1D1B" d="M149.2,96.1c0-11.6-1.6-24.2-11.4-31.8c-9.4-7.2-22.4-7.8-33.8-7.8c-22.6,0.4-55.2,9.6-53,38.2v0.2
		c-0.4,0.2-0.6,0.8-0.2,1.2c2.2,1.8,5,3.2,7.8,4.2c-1.6,7.6-2.2,15.2-2.4,22.8c-0.2,5-1,10.4,3.2,14.2c7.8,7.2,27.8,5,37.4,5.4
		c8.6,0.4,17.2,0.8,25.8,0.8c4.6,0,10.6,0.6,14.4-2.6c3.4-2.6,3.4-6,3.8-9.8c0.8-9.6-0.6-19.8-1.4-29.2c3.6-0.4,6.8-1.8,9-4.2
		c0.4-0.2,0.6-0.4,0.6-0.8C149.4,96.9,149.4,96.5,149.2,96.1z M132.6,135.5c-4.2,4.4-4.6,4-10,4c-2.4,0-5,0-7.4-0.2
		c-5.6-0.2-11-0.4-16.6-0.6c-5-0.2-9.8-0.4-14.8-0.8c-5-0.2-13.4,0.8-17.6-2c-9.8-6.2-5.6-24.4-5.4-34.8c7.6,2,16.2,1.2,22.2-3.4
		c0.6-0.4,0.6-1,0.4-1.6c0.4,0.2,0.8,0.2,0.8-0.4c0.2-2.4-0.2-4.2-1.2-6.4c0-0.2-0.2-0.2-0.2-0.4c6.2-3.8,10-12.6,7.8-19.4
		c-0.2-0.4-0.4-0.6-0.6-0.6c1.6-0.4,3.2-0.8,4.8-1c0,0,0,0.2-0.2,0.2c-1,3-1.2,6.4,0.8,9.2c1.8,2.4,4.8,3.6,7.6,2.6
		c4.6-1.6,7.4-7.2,6.2-12c0.8,0,1.4,0.2,2.2,0.2c-0.8,3.8,0.2,7.8,2.2,11.2c1.2,1.8,3.2,4.4,5.6,5.8l-0.2,0.2
		c-1.8,3.2-2.6,6.4-2.2,10l0,0c-0.6-0.2-1,0.2-1.4,0.6c-3.8-3.2-8.4-4.8-12.6-2.6c-9.8-1.6-19.6,6-22.6,15.4
		c-4,12.8,7.6,22.8,19.8,22.2c11.2-0.4,25.4-8.4,23.4-21.6c-0.6-3.4-2.6-7.4-5.4-10.8c4.6,1.8,11,3.6,17,3.8
		c0.4,5.4,0.8,10.8,0.8,16c0,2.4,0.2,5,0.2,7.4C136.4,131.1,136.8,131.1,132.6,135.5z M80.6,86.3c-0.2-0.4-0.4-0.6-0.6-1
		c-1.8-4.6,0.2-11,4.4-13.6c1.4-1,3-1.6,4.6-2.2c0,0.2-0.2,0.2-0.2,0.6C88.6,77.1,86.2,82.1,80.6,86.3z M96,67.9
		c3.2-0.4,6.6-0.4,10,0c1,3.2,0,6.6-2.6,8.8c-1.8,1.4-4,1-5.6-0.6c-1.6-2-1.6-4.8-1.4-7.2C96.2,68.5,96.2,68.1,96,67.9z M113.2,68.7
		c2,0.2,4,0.6,5.8,1c0.2,0,0.4,0,0.6,0c3.4,1.6,5.6,4.8,4.4,9.2c-0.4,1.2-1.6,2.8-2.8,4.2c-2-1-5-5.2-5.4-6
		C114.4,74.3,113.6,71.7,113.2,68.7z M101,96.7c0.4,0.8,1.4,1.2,2.2,1.2c9.6-2,18.4,11.8,13.4,20c-4.6,7.2-16.8,10.2-24.2,7
		c-9.8-4.2-9.4-14.8-2.8-21.8C92.8,99.9,96.8,98.1,101,96.7z M119.6,96.5c0.4-4.2,1.6-7,3.4-10c0.8,0,1.4-0.4,1.6-1.2
		c0-0.2,0-0.4,0.2-0.6c0-0.4,0-0.6,0-1c0.4-0.6,0.8-1.2,1.2-1.8c1.4-2.2,2.6-4.4,2.2-7.2c-0.6-4.2-3.8-6.2-7.4-7
		c-0.2-0.2-0.4-0.4-0.8-0.6c-11.6-4-29.4-4.4-39.4,3.4c-3.4,2.6-6.4,6.6-5.8,11.2c0.8,5.6,6.2,9.2,8.2,14.2c-0.2-0.2-0.6-0.4-1-0.2
		c-5.2,1.6-9.8,3.4-15.4,3.4c-4.8-0.2-9.2-1.4-13.6-3.2c0.2-0.2,0.4-0.4,0.4-0.8c0.6-27,28.2-35,50.6-35c9,0,19.2,0.4,27.2,4.8
		c12.2,6.4,13.8,18.8,15.4,31C138.4,99.5,128.4,98.7,119.6,96.5z"/>
	<path fill="#1D1D1B" d="M103.6,106.7c-0.6,1.2-1.2,2.6-1.8,4c-1-1-1.8-2-2.8-2.8c-3-3.2-8,1.8-4.8,4.8c2.2,2.6,4.4,5,6.8,7.6
		c1.8,2,5.2,1,5.8-1.6c0.8-3.2,1.8-6,3-9C111.4,105.7,105.4,103.3,103.6,106.7z"/>
</g>
</svg>
