<?xml version="1.0" encoding="utf-8"?>
<!-- Generator: Adobe Illustrator 18.1.1, SVG Export Plug-In . SVG Version: 6.00 Build 0)  -->
<svg version="1.1" id="Capa_1" xmlns="http://www.w3.org/2000/svg" xmlns:xlink="http://www.w3.org/1999/xlink" x="0px" y="0px"
	 viewBox="0 0 200 200" enable-background="new 0 0 200 200" xml:space="preserve">
<g>
	<path fill="#1D1D1B" d="M126.5,54.9l-0.2-0.2c0.2-0.6,0-1.2-0.6-1.4c-12.4-5.8-31.4-4.8-44.6-2c-7.2,1.6-12.8,8.2-2.4,10.4
		c0.2,0,0.6,0,0.8-0.2c-2.6,19.2-5.4,40.2-3.4,59.4c1,10.8,5.4,27.4,18,29.8c14.6,2.8,19.8-14.6,22-25.4c4.4-21.4,5.4-43.2,3.2-64.8
		c2.4,0.4,5,0,6.8-1.6C127.1,57.9,127.5,56.3,126.5,54.9z M92.5,145.9c-14.6-6.6-14.2-27.8-13.8-41.4c0.2-8,0.8-16.2,1.2-24.2
		c0.8-0.2,1.4-0.4,2.2-0.8c10.8,3.8,23.6,4.8,34.2,0.2C116.3,108.7,112.7,155.3,92.5,145.9z M84.3,78.9c9.6-2.4,18.4-2,28.4-1
		C103.1,79.9,94.3,80.7,84.3,78.9z M122.9,57.1c-0.4,0.4-1,0.6-1.6,0.8c-1.4,0.6-2.8,0.6-4.2,0.4c-0.6,0-1.2,0.4-1,1
		c-0.2,0.2-0.2,0.4-0.2,0.8c0.2,3,0.4,9.4,0.4,17.4c-0.2-0.2-0.6-0.2-0.8-0.2c-0.2,0-0.4,0-0.6,0.2c0.2-0.6,0-1.4-0.6-1.8
		c-10.8-4-23.8-2-34.2,2.2c0.2-5.6,0.6-11.2,0.6-17c0-0.4-0.6-0.8-1-0.6c0-0.2-0.2-0.4-0.4-0.4c-8-4.8,7.8-6.4,9-6.6
		c4-0.4,8-0.6,12-0.6c7.8-0.2,15.2,0,22.6,2.2c0,0.2,0,0.6,0.4,0.8C123.7,56.5,123.5,56.5,122.9,57.1z"/>
	<path fill="#1D1D1B" d="M85.7,87.1C85.7,87.1,85.5,87.1,85.7,87.1c-0.6-0.4-1-0.8-1.6-1c-1.8-1.2-4,1.2-3,3c0.6,1,1.4,2,2.2,3.2
		c0.2,0.8,0.8,1.6,1.8,2s2.6,0.4,3.4-0.6c0.6-0.8,1.6-1.8,2-2.8C91.7,87.5,88.3,84.9,85.7,87.1z"/>
	<path fill="#1D1D1B" d="M108.5,86.9c-1.4-0.8-3-0.2-3.8,1c-0.2,0.2-0.4,0.6-0.6,0.8c-0.2-0.2-0.6-0.6-0.8-0.8
		c-1.6-1.6-4.6,0.6-3.2,2.6l1.2,1.6c0.4,0.4,0.8,1,1,1.4c0.2,1,1.2,1.8,2.2,2c1.2,0.2,2-0.4,2.8-1.4c0.8-1.2,1.6-2.4,2.4-3.6
		C110.3,89.5,109.7,87.7,108.5,86.9z"/>
	<path fill="#1D1D1B" d="M100.9,99.9c-0.4-0.6-1-1.2-1.8-1.4c-1-0.2-2,0-2.8,0.8c-0.4-0.4-0.8-0.8-1.4-1c-1.6-0.8-3.2,0.6-2.8,2.2
		c0.4,1.6,1.4,3,2.2,4.6c0.6,1.2,2.6,1.8,3.6,1c1.2-0.8,2-2,2.8-3C101.5,102.1,101.3,100.7,100.9,99.9z"/>
	<path fill="#1D1D1B" d="M111.5,105.1c-1-0.6-2.2-0.4-3.2,0.2c-1.2-1-3.4-0.4-3.2,1.4c0,1.6,0.8,3,1.2,4.6c0.2,1,1.2,1.8,2.2,1.8
		c1.2,0.2,2-0.4,2.6-1.2c0.6-0.8,1.2-2,1.6-3C113.1,107.5,112.9,105.9,111.5,105.1z"/>
	<path fill="#1D1D1B" d="M89.3,109.5c-1.4-0.2-2.4,0.2-3.2,1c-0.2-0.4-0.4-0.6-0.6-1c-0.8-1.2-3.2-0.8-3,0.8c0.2,1,0.4,1.8,0.8,2.8
		c0.4,0.8,0.8,1.4,1,2.2c0.4,2,3.6,2.6,4.6,0.6c0.2-0.6,0.4-1,0.8-1.4c0.8-0.8,1.2-1.4,1.4-2.6C91.3,110.9,90.3,109.5,89.3,109.5z"
		/>
	<path fill="#1D1D1B" d="M104.9,118.1c-1.2-1-2.6-0.8-3.6,0.2c-0.2-1.6-2.6-2.4-3.4-0.8c-1,2.2-1.2,5,1,6.8c2.2,2,5.4,0.6,6.6-1.8
		C105.9,120.9,106.1,119.3,104.9,118.1z"/>
	<path fill="#1D1D1B" d="M97.5,130.5c-1.6-0.4-3,0.6-3.6,2c-0.4-0.4-0.8-0.8-1.2-1.2c-1.2-0.8-2.8,0.2-2.6,1.6
		c0,1.4,0.6,2.6,1.2,3.8c0.6,1.4,1.2,2.6,2.8,2.8c2.8,0.4,4.8-3.2,5.4-5.4C99.9,132.7,98.9,130.9,97.5,130.5z"/>
</g>
</svg>
