<?xml version="1.0" encoding="utf-8"?>
<!-- Generator: Adobe Illustrator 18.1.1, SVG Export Plug-In . SVG Version: 6.00 Build 0)  -->
<svg version="1.1" id="Capa_1" xmlns="http://www.w3.org/2000/svg" xmlns:xlink="http://www.w3.org/1999/xlink" x="0px" y="0px"
	 viewBox="0 0 200 200" enable-background="new 0 0 200 200" xml:space="preserve">
<g>
	<g>
		<path fill="#1D1D1B" d="M31.8,193C31.8,193,31.8,193,31.8,193c-4.3,0-8.5-0.2-12.7-0.7c-2.2-0.2-4-1.1-5-2.6
			c-1.1-1.4-1.4-3.3-1.1-5.3c3.1-20.2,2.2-41.5,1.5-62.1c-0.3-7.3-0.6-14.9-0.7-22.2c-0.1-7.8-0.3-15.7-0.5-23.4
			c-0.4-19.4-0.9-39.5-0.3-59.3c0-3.9,3.1-6,5.9-5.9c0.6-0.2,1.4-0.4,2.2-0.4c0.4,0,0.8,0,1.3-0.1c1.1-0.1,2.4-0.1,3.4,0.1
			c2.2,0.5,4,2.7,4.3,5.3c0.2,1.2,0,2.3-0.2,3.3c-0.1,0.3-0.1,0.6-0.2,0.9c2,18.7,1.3,38.1,0.6,56.9c-0.3,7.1-0.5,14.5-0.6,21.7
			c-0.4,25.5-0.6,51.4-0.8,76.4c5.3-0.2,10.3-0.2,15.7-0.2c1.6,0,2.9,0.5,4.1,1.5c2.9,0.5,4.8,2.9,4.8,6v2.6
			c-0.2,3.5-2.6,5.9-6.3,6.5C41.7,192.7,36.7,193,31.8,193z M18.7,14.5c-1.4,0-2.7,1-2.7,2.9c-0.6,19.8-0.1,39.8,0.3,59.1
			c0.2,7.7,0.4,15.6,0.5,23.4c0.1,7.3,0.4,14.8,0.7,22.1c0.8,20.8,1.6,42.2-1.5,62.7c-0.2,0.9-0.2,2.1,0.5,3.1
			c0.6,0.8,1.6,1.3,3,1.4c4.1,0.4,8.1,0.6,12.3,0.6h0c4.8,0,9.7-0.3,14.9-0.8c1.3-0.2,3.5-0.9,3.7-3.6l0-2.5c0-1.8-1-3-2.6-3.1
			l-0.5,0l-0.4-0.4c-0.5-0.5-1.1-1-2.3-1c-5.8,0-11.4,0-17.1,0.2l-1.6,0.1l0-1.6c0.2-25.5,0.4-51.9,0.8-78
			c0.1-7.2,0.4-14.6,0.6-21.7c0.7-18.7,1.4-38.1-0.6-56.7l0-0.2l0-0.2c0.1-0.4,0.1-0.8,0.2-1.2c0.2-0.9,0.3-1.6,0.2-2.4
			c-0.1-1.2-0.9-2.5-2-2.7C24.6,14,24.3,14,23.9,14c-0.4,0-0.8,0-1.3,0.1c-0.5,0-1,0.1-1.5,0.1c-0.3,0-0.9,0.1-1.5,0.3l-0.3,0.1
			l-0.3,0C18.9,14.5,18.8,14.5,18.7,14.5z"/>
	</g>
	<g>
		<path fill="#1D1D1B" d="M54.2,172.5L54.2,172.5c-2.4,0-4.4-1.2-5.3-3.2c-0.9-0.6-1.6-1.4-2-2.5c-7.7-19.8-9.5-42-10.3-62.9
			l-0.2-5.4c-0.8-18.5-1.6-37.7,0.8-56l0.2-1.1c1.1-8.4,3.7-27.9,15.1-27.9c1.1,0,2.3,0.2,3.5,0.6c2.4,0.6,4.5,2.3,6.1,4.9
			c2.6-3.4,5.6-5.3,9-5.8c0.8-0.1,1.6-0.2,2.4-0.2c3,0,5.5,1.1,7.3,3.2c3.6,4.3,4.5,12.7,2.5,24.9c-2.4,22.7-5.2,45.4-8.4,67.6
			c-0.6,3.9-1,7.9-1.5,12.1c-1.9,16.4-4,35-13.1,48.7C58.9,171.3,56.6,172.5,54.2,172.5z M52.5,16.4c-8.7,0-11.2,18.4-12.1,25.3
			l-0.2,1.1c-2.4,18.1-1.6,37.1-0.8,55.5l0.2,5.4c0.8,20.7,2.6,42.5,10.1,61.9c0.2,0.6,0.5,0.9,1.1,1.2l0.6,0.3l0.2,0.6
			c0.5,1.5,2,1.7,2.7,1.7c1.4,0,2.8-0.7,3.5-1.7c8.7-13.1,10.7-30.5,12.7-47.4c0.5-4.3,0.9-8.3,1.5-12.2c3.2-22.1,6-44.8,8.4-67.5
			c2.3-14.2,0.3-20.1-1.8-22.6c-1.6-1.8-3.8-2.5-6.9-2c-3.2,0.5-5.9,2.6-8.4,6.5L61.6,25l-1.1-2.6c-1.4-3.1-3.1-4.9-5.4-5.6
			C54.1,16.6,53.3,16.4,52.5,16.4z"/>
	</g>
	<g>
		<path fill="#1D1D1B" d="M113.4,188.9L113.4,188.9c-3.2,0-5.7-1.9-6.2-4.8c-11-53.4-21-110.3-19.6-165c-0.8-2.1-0.6-4.6,0.6-6.8
			l0.1-0.1c1.7-2.5,4.6-4,8.3-4.3c0.1,0,0.3,0,0.5,0c2.1,0,3.9,1.3,4.8,3.2c0.9,0.8,1.4,1.6,1.6,2.8c3.7,17.8,4.7,36.2,5.7,54
			c0.2,3.8,0.4,7.6,0.7,11.4c0.6,8.4,1.5,16.8,2.5,25.2c0.2-3.6,0.4-7,0.7-10.2c2.4-26.7,6-53.5,10.8-79.7c0.7-3.1,2.8-4.9,5.7-4.9
			c0.2,0,0.4,0,0.6,0l2,0c0.6,0.1,1.2,0.2,1.7,0.3c0.5,0.1,1.1,0.2,1.7,0.3c1.5,0.2,2.8,1.1,3.6,2.4c1,1.5,1.2,3.6,0.6,5.4
			c-4.6,29.9-7,60.1-9.4,89.4c-1.2,14.6-2.4,29.6-4.2,44.3c-0.2,1.8-0.4,3.7-0.6,5.5c-1.1,9.5-2.2,19.2-6.3,28.2
			c-0.2,0.5-0.6,1.1-1.2,1.6C117,188.2,115.3,188.9,113.4,188.9z M90.8,13.8c-0.8,1.4-0.9,3.1-0.3,4.4l0.1,0.3l0,0.3
			c-1.4,54.5,8.6,111.3,19.6,164.7c0.4,1.8,2,2.4,3.3,2.4l0,0c1.1,0,2.1-0.4,2.7-1.1l0.2-0.2l0.2-0.1c0.1-0.1,0.1-0.2,0.2-0.4
			c3.9-8.4,5-18,6-27.2c0.2-1.8,0.4-3.7,0.6-5.5c1.8-14.6,3-29.6,4.2-44.1c2.3-29.3,4.8-59.7,9.4-89.7l0.1-0.2c0.3-1,0.2-2.2-0.3-3
			c-0.4-0.6-0.9-0.9-1.5-1c-0.6-0.1-1.2-0.2-1.8-0.3c-0.5-0.1-1-0.2-1.6-0.3l-1.8,0c-0.1,0-0.3,0-0.4,0c-1.5,0-2.4,0.8-2.8,2.4
			c-4.7,26.1-8.4,52.9-10.8,79.4c-0.7,8.3-1.2,17.7-1.4,28.7l-3,0.2c-0.3-2.4-0.6-4.9-0.9-7.3c-1.5-12-3.1-24.4-3.9-36.6
			c-0.2-3.8-0.5-7.6-0.7-11.5c-1-17.7-2.1-36-5.7-53.5c-0.1-0.6-0.3-0.9-0.8-1.3L99.4,13l-0.2-0.4c-0.4-1-1.4-1.7-2.4-1.6
			C94.8,11.1,92.2,11.7,90.8,13.8z"/>
	</g>
	<g>
		<path fill="#1D1D1B" d="M168.4,191.3C168.4,191.3,168.4,191.3,168.4,191.3c-4.3,0-8.6-0.4-12.1-0.7c-2-0.2-3.7-0.3-4.9-0.3
			c-3.6-0.3-6.2-2.8-6.5-6.4c-3-60.3-5.3-114.5-2-168.4c0-2.8,1.7-5,4.6-5.7c0.8-0.6,1.7-1.1,2.8-1.3c7.4-1.1,13.7-1.6,19.8-1.6
			c2.9,0,5.9,0.1,8.8,0.4c1.6,0.1,3.2,0.8,4.4,1.9c1.4,1.2,2.1,2.8,1.9,4.5c-0.1,0.9-0.1,1.7-0.2,2.5c-0.1,0.9-0.1,1.7-0.2,2.6
			c-0.2,3.2-2.8,6.6-6.6,6.3l-15.7-0.5c0,2.5,0,5-0.1,7.2c-0.1,1.7-0.1,3.2-0.1,4.6c0,16.4-0.8,33.1-1.6,49.3l0,0.2
			c-0.6,16.5-1.2,32.1-0.6,48.2c1.8-0.2,3.7-0.3,5.7-0.3c3.5,0,7.4,0.3,12.2,0.9c3.7,0.6,6.3,3.2,6.3,6.5c0,3.5-1,6.2-2.1,8.6
			l-0.1,0.1c-1.2,2-3.6,3.4-5.7,3.1c-3.9-0.3-9.7-1-15.6-2.6c0.3,5.1,1,9.5,2,13.1c2.3,7.8,5.4,8.3,10.3,8.3c1.1,0,2.3,0,3.6-0.1
			c1,0,2.1-0.1,3.2-0.1c2.8,0,5.1,1.7,6.2,4.5c1.5,4,1.3,7.2-0.4,9.7C183.4,189.6,177.6,191.3,168.4,191.3z M170.2,10
			c-6,0-12.1,0.5-19.3,1.5c-0.6,0.1-1.2,0.4-1.6,0.8l-0.3,0.3l-0.4,0.1c-1,0.2-2.6,0.8-2.6,2.9c-3.3,53.8-1,108,2,168.1
			c0.1,2,1.6,3.4,3.6,3.6c1.2,0,3,0.2,5,0.3c3.4,0.3,7.6,0.6,11.8,0.6c0,0,0,0,0,0c8.1,0,13.1-1.4,15-4.1c1.2-1.7,1.2-3.9,0.1-6.9
			c-0.4-1-1.4-2.6-3.4-2.6c-1.1,0-2.1,0.1-3.1,0.1c-1.3,0-2.5,0.1-3.7,0.1c-6.4,0-10.7-1.7-13.2-10.5c-1.3-4.4-2-9.6-2.3-16
			l-0.1-2.1l2,0.7c6.3,2,12.8,2.8,17,3.1c0.1,0,0.2,0,0.3,0c0.9,0,2-0.7,2.5-1.6c1.1-2.4,1.8-4.6,1.8-7.3c0-2-1.9-3.2-3.7-3.5
			c-4.6-0.6-8.4-0.9-11.8-0.9c-2.5,0-4.9,0.2-6.9,0.5l-1.7,0.3v-3c-0.6-16.3,0-32.8,0.6-48.8l0-0.3c0.8-16.1,1.6-32.8,1.6-49.1
			c0-1.5,0.1-3,0.1-4.7c0.1-2.8,0.2-5.7,0.1-8.6l-0.1-1.6l19,0.7c0.1,0,0.2,0,0.2,0c1.8,0,3.1-1.9,3.2-3.6c0.1-0.8,0.2-1.6,0.2-2.5
			c0.1-0.8,0.1-1.7,0.2-2.6c0.1-0.9-0.5-1.6-1-2c-0.7-0.6-1.7-1-2.7-1.1C175.9,10.1,173.1,10,170.2,10z"/>
	</g>
</g>
</svg>
