<?xml version="1.0" encoding="utf-8"?>
<!-- Generator: Adobe Illustrator 18.1.1, SVG Export Plug-In . SVG Version: 6.00 Build 0)  -->
<svg version="1.1" id="Capa_1" xmlns="http://www.w3.org/2000/svg" xmlns:xlink="http://www.w3.org/1999/xlink" x="0px" y="0px"
	 viewBox="0 0 200 200" enable-background="new 0 0 200 200" xml:space="preserve">
<g>
	<path fill="#1D1D1B" d="M161.7,124.5c3.4-1.2,5.8-4.6,5.8-8.2c0-2.8-2.4-6.6-5.4-8.2c3.6-1.2,6.4-4.8,6.2-8.8c-0.2-2.8-2.4-6-5-7.4
		c3-1.4,4.8-5.6,4.8-9c0-3.8-2.2-10.4-6.8-10.6c4-3,3.4-10.6-0.6-13.6c-3-2.4-7.4-3.2-10.8-1.4c-1,0.4-1.8,1-2.4,1.8
		c-1-2.8-4.4-4.4-7.2-4.2c-3.4,0.2-6,2.4-7.4,5.2c-1-3.2-4.2-5.4-7.8-5.2c-3.2,0.2-5.8,2.8-6.4,5.8c-1-2.4-3.6-4.4-6-4.8
		c-3.4-0.4-6.4,1.6-7.8,4.6c-1.2-3.2-4.4-5.8-7.6-5.6c-3.4,0.2-6.4,2.6-7.4,5.8c-1-2.2-3.4-4-5.8-4.2c-3.6-0.2-5.8,2-7,5
		c-0.4-0.8-0.8-1.4-1.2-2c-1.6-1.8-4-3-6.4-2.6c-3.4,0.4-5.6,3.4-6,6.4c-1-3.6-4-7.2-7.6-6.4c-3.2,0.8-6,3.2-7.2,6.2
		c-1-2-1.6-3.8-4.2-4.2c-2.8-0.4-5.6,1.2-7.2,3.4c-2.2,2.8-2.2,7.6,0,10.4c-2.8,0.2-5.2,1.8-5.6,4.8c-0.6,3.6,2.6,5.6,6,6.2
		c-2.6,1.8-4.6,4.4-4,7.6c0.2,1.8,1.6,3.4,3.2,4.2c-1.2,0.6-2.4,1.2-3.4,2.4c-1.2,1.6-1.4,3.6-0.8,5.4c0.6,2,2.2,3.4,4,4.2
		c-1,0.4-1.8,1-2.8,1.8c-1.6,1.6-2.4,4-1.8,6.4c0.4,1.8,1.8,3,3.2,3.8c-2,1.6-3.6,3.8-3.2,5.8c0.2,1.8,1.8,2.8,3.6,3.4
		c-3.8,4.4-5.6,11,0.4,14.6c4.8,2.8,10.4,0.6,13.6-3.6c0.6,2.2,2.6,4,5,4.6c3.8,0.6,7.4-1.6,9-4.8c0.6,2.2,3,4,5.6,4.2
		c4,0.4,9-1.8,11.2-5.4c0.6,2.8,3.2,5,6,5.4c3.6,0.6,7.8-1.4,9.8-4.6c1,2.8,3.4,5,6.6,5.8c4.4,0.8,9.6-2.2,11-6.4
		c1.4,3,4.4,5.2,7.6,5.4s6.4-1.4,8.2-3.8c1,2.2,3,3.8,5.6,4.4c4.8,0.8,9-2,10.8-6.2c3.2,6.2,14,7.6,19.2,3.2c3.6-3,3.4-7.6,1.8-11.6
		C165.7,127.3,163.9,125.3,161.7,124.5z M164.5,115.3c0.8,4-2.8,6.8-6.4,7.4c0.2-4.4,0.2-8.6,0.2-13c1,0.4,2,0.6,3,1
		C162.9,111.9,164.1,113.5,164.5,115.3z M165.3,99.3c0.2,3.8-3.4,6.6-6.8,6.4c0,0,0,0-0.2,0c0-4.2,0-8.6,0-12.8
		c0,0.2,0.2,0.2,0.2,0.2C161.5,94.5,165.1,95.3,165.3,99.3z M159.7,74.3c3,1.4,4.8,3.2,5.4,6.4c0.8,4-0.8,10-6,9.2
		c-0.2,0-0.4,0-0.6,0c0-5.4-0.2-11-0.2-16.4c0.4,0,0.8-0.2,1-0.2C159.1,73.7,159.3,74.1,159.7,74.3z M138.5,57.7
		c2.8-1,6.6,0.4,6.6,3.8c0,0.4,0.2,0.8,0.6,1c0,0.4,0,0.8,0,1c-4,0-8,0-12,0.2C134.1,61.1,135.9,58.7,138.5,57.7z M120.5,63.7
		c0-2.8,1.6-5.8,4.6-6c3-0.2,5.2,2.6,5.6,5.4c0,0.4,0.4,0.8,0.8,0.8C127.9,63.9,124.3,63.9,120.5,63.7
		C120.5,63.9,120.5,63.7,120.5,63.7z M112.7,58.5c2.6,0.8,3.4,3,3.8,5.4c-3.4,0-6.8,0-10.2,0C106.3,60.7,109.1,57.5,112.7,58.5z
		 M98.9,57.5c3,1,3,4.2,4.2,6.6c-4,0-8,0-12,0.2C91.7,60.3,94.3,55.9,98.9,57.5z M82.5,58.7c1.6-0.2,3.4,0.4,4.2,1.6
		c0.8,1.2,0.8,2.4,0.8,3.8c-3.2,0-6.4,0-9.6,0.2C78.7,61.9,79.7,59.1,82.5,58.7z M69.5,58.9c1.6-0.2,3.2,0.8,4.2,2
		c1,1.2,1,2.4,1.4,3.6c-3.4,0-6.6,0.2-10,0.4C64.9,62.1,66.7,59.1,69.5,58.9z M55.3,59.9c3.4-1,5.2,2,6.4,5
		c-3.8,0.2-7.6,0.4-11.4,0.6C50.7,63.1,52.9,60.7,55.3,59.9z M39.9,63.5c1.4-1.8,4-3.2,5.8-0.8c0.8,1,1,2,1.8,3
		c-1.2,0-2.4,0.2-3.6,0.2c-0.2,0-0.4,0.2-0.6,0.4c-0.4-0.4-1.2-0.4-1.2,0.4c-0.2,1.8-0.4,3.8-0.6,5.6C38.5,70.1,37.3,66.7,39.9,63.5
		z M34.5,77.3c0.6-2.8,4.2-2.6,6.8-2.6c-0.2,2-0.4,4.2-0.6,6.2C38.1,80.7,33.9,79.9,34.5,77.3z M35.9,89.1c0.4-2.4,2.2-4,4.2-5.4
		c0.2,0,0.4,0,0.4,0c-0.2,3.2-0.4,6.4-0.4,9.6C37.3,94.1,35.3,91.7,35.9,89.1z M34.7,101.7c-0.8-3.4,3-4.2,5-6.2c0,0,0,0,0.2,0
		c-0.2,3.2-0.2,6.4-0.2,9.8C37.5,105.1,35.3,104.3,34.7,101.7z M34.3,114.5c-0.6-3.4,2.6-5.2,5.4-6c0,2.6,0,5.4,0,8
		c-0.2,0-0.4,0-0.6,0c-0.4,0.2-1,0.6-1.4,1C35.9,117.3,34.7,116.3,34.3,114.5z M35.3,123.1c0.8-1.2,1.6-2.2,2.6-3.2
		c0.6,0,1.2-0.2,1.6-0.4c0,2,0,4,0,6c-0.2-0.2-0.6-0.2-0.8,0c-0.6,0.4-1,0.6-1.4,1c-0.2,0-0.4,0-0.6-0.2
		C34.9,125.9,34.1,124.9,35.3,123.1z M38.5,141.3c-6.2-2.2-3.4-8.4-0.4-12.2c0.6,0,1.2,0,1.6,0c0,1.6,0,3.4,0,5c0,0.6,0.2,1,0.6,1.2
		c-0.4,0.8,0,2,1,1.8c2.2-0.2,4.4-0.2,6.6-0.4C45.9,140.1,42.7,142.9,38.5,141.3z M56.9,141.9c-3.4,0.8-6.4-2-5.8-5.2
		c4-0.2,7.8-0.4,11.8-0.6C61.5,138.7,59.9,141.1,56.9,141.9z M80.1,135.7c-0.2,0-0.6,0-0.8,0.2c-2,1.8-3.6,3.8-6.4,4.8
		s-9.8,0.2-7.4-4.6v-0.2C70.5,135.7,75.3,135.7,80.1,135.7C80.1,135.5,80.1,135.5,80.1,135.7z M95.3,136.1c-0.4,0-0.6,0-0.8,0.2
		c-2,2-3.8,4.4-6.8,4.6c-3.2,0.2-5.6-2.4-5.4-5.6c4.4-0.2,8.8-0.2,13.2-0.2C95.3,135.5,95.3,135.7,95.3,136.1z M104.1,141.1
		c-3.4,0.2-5.8-2.8-6-6c4.4,0,8.8,0,13.2-0.2C109.7,137.7,107.9,140.9,104.1,141.1z M128.5,135.1c-1.2,3-3.8,5.6-7.2,5.4
		c-3.2-0.2-5-2.6-5.8-5.4C119.7,134.9,124.1,135.1,128.5,135.1L128.5,135.1z M137.5,140.9c-3.8,0.8-7.2-2.2-6.4-5.8
		c4.2,0,8.6,0.2,12.8,0.2C142.3,137.7,140.5,140.3,137.5,140.9z M42.5,134.5c0-0.2,0.2-0.2,0.2-0.4c2.2-21.6,3.6-45.4,1.2-67
		c0,0,0,0,0.2,0c36.6,1.4,73.4-0.4,110-1c1.8,0,1.8-2.8,0-2.8c-2,0-3.8,0-5.8,0c1-5,7.8-5,11-1.8c3.4,3.2,2.2,7.4-1.4,9.6
		c0-1.6,0-3.2,0-4.8c0-2-3-2-3,0c-0.6,21.8-1,43.8,0,65.6c-0.2,0-0.4-0.2-0.4-0.2C117.9,128.5,78.9,129.3,42.5,134.5z M159.5,140.1
		c-4.2,0.8-10.8-0.4-12.6-4.6c2.6,0,5,0.2,7.6,0.2c0.6,0,1.2-0.2,1.4-0.6c0.8,0.4,1.8,0,1.8-1.2c0.2-2.4,0.2-5,0.4-7.4
		c0,0,0,0,0.2,0C166.5,125.7,167.3,138.3,159.5,140.1z"/>
	<path fill="#1D1D1B" d="M76.7,116.3c0-0.2-0.2-0.4-0.2-0.4c-0.8-1.4-2.6-1.8-4-1c-0.8,0.4-4,0.4-6.4,0.2c-0.4-4,0.4-8.8,1-13
		c0-0.6,0-1,0-1.4c0,0,0,0,0-0.2c0.2-1,0.2-2,0.2-2.8c0.2-5.4-0.2-10.8-0.8-16.2l0,0l0,0c0-0.4,0-0.6-0.2-1c-0.6-4-6.6-2.8-6.8,1
		c-0.4,5.8-0.2,11.6,0.6,17.2c0,1.2,0,2.2-0.2,3.4c-0.4,5.4-1.8,11.6-0.6,17c0.2,1.2,1.4,2.2,2.6,2.6c3.4,0.8,9.4,1.2,12.6-0.2
		C76.7,120.7,77.9,118.5,76.7,116.3z"/>
	<path fill="#1D1D1B" d="M87.5,91.3l-0.2-0.2c-1-0.6-2.6-0.6-3.6,0c-2,1.4-3,3.6-4,6c-0.2-0.6-0.6-1.4-0.8-2c-0.6-1.8-2.4-3-4.4-2.4
		c-1.8,0.4-3,2.6-2.4,4.4c0.8,2.4,1.8,4.8,2.6,7.2c1,2.2,2.4,4,5,3.8s3.8-2.4,4.8-4.4s1.8-4.2,3-6.2C89.9,96.1,89.5,92.5,87.5,91.3z
		"/>
	<path fill="#1D1D1B" d="M116.3,80.5c0-0.2,0-0.2,0-0.4c0-3-4-4.8-6-2.6c-3.4,3.8-3.6,11-4.4,16c-0.6,3.6-0.8,7-1.4,10.6
		c-2-7.8-4.2-15.6-7.2-23c-0.6-1.4-2.8-0.6-2.8,0.8c0.8,12.2,4,24.6,6.4,36.6c0.6,2.8,5.2,3.6,6.4,0.8c2.6-5.2,3.8-10.6,4.6-16.4
		c0.4-3.4,0.8-6.8,1.4-10.2c0.4-2.2,0.6-7.4,1.8-9.6C115.7,82.5,116.3,81.7,116.3,80.5z"/>
	<path fill="#1D1D1B" d="M138.5,79.5c-9.4-4.2-14.6,4-16.6,12c-2.2,8-2.8,21,4.2,27.2c5,4.4,13.4,4,16-2.4c1-2.4-2.4-5.2-4.6-3.6
		c-7.8,5.8-9.8-4.8-9.8-12c5,0.6,10,0.4,14.8,0.6c1.6,0,2.8-1.2,3.4-2.6C148.9,91.5,145.7,82.7,138.5,79.5z M135.9,85.9
		c3.4,1,4.2,5,4,8.2c-3.8,0-7.6,0.2-11.4,0.6c0.2-1.6,0.6-3,1.2-4.4C130.5,87.9,132.7,84.9,135.9,85.9z"/>
</g>
</svg>
