<?xml version="1.0" encoding="utf-8"?>
<!-- Generator: Adobe Illustrator 18.1.1, SVG Export Plug-In . SVG Version: 6.00 Build 0)  -->
<svg version="1.1" id="Capa_1" xmlns="http://www.w3.org/2000/svg" xmlns:xlink="http://www.w3.org/1999/xlink" x="0px" y="0px"
	 viewBox="0 0 200 200" enable-background="new 0 0 200 200" xml:space="preserve">
<g>
	<path fill="#1D1D1B" d="M144.4,68.8c-5.6-2-13.4-0.8-19.2-0.6c-8.8,0.2-17.6,1-26.6,1C90,69.2,81.4,68.4,73,67
		c-6.6-1-12.2-2-18.8-0.6c-1,0.2-1.4,1-1.2,1.8c-0.4-0.6-1.6-0.4-1.6,0.4c-1.6,17-1,34.4-1.2,51.4c0,10,2,11.6,11.8,12.4
		c17,1.4,34.2,2,51.2,1.8c7.8,0,16,0.2,23.6-0.8c3.4-0.4,6.4-0.6,8.6-3.6c2.4-3,2.2-7.8,2.6-11.4c0.8-7.8,1.2-15.4,1.2-23.2
		C149.2,89.2,152,71.6,144.4,68.8z M140.4,127c-7.6,6.4-25,3.6-34.8,3.8c-11.8,0-23.6-0.2-35.4-1c-7-0.4-14.6,0.8-16.6-7.8
		c-1-4.6,0-11,0.2-15.8c0.2-12.6,0.8-25-0.2-37.6c0,0,0,0,0-0.2c0.4,0.6,1,1.2,1.8,1c11.8-2,24.2,2.6,36,3c10.8,0.4,21.4-0.6,32.2-1
		c4.2-0.2,13-2,17-0.6c7,2.6,5.4,13,5.4,18.8C145.6,99.4,147.8,120.8,140.4,127z"/>
	<path fill="#1D1D1B" d="M97.8,81.4c-0.2-1.2-2-1.4-2,0c-0.6,13.8,0,27.8,1.2,41.6c0.2,1.6,2.6,1.6,2.6,0
		C99.2,109.2,99,95.2,97.8,81.4z"/>
	<path fill="#1D1D1B" d="M135.6,91.6c-8.8-1-19.2,0.8-27.6,3.4c-1,0.2-0.8,2,0.2,1.8c9.2-1.2,18.6-1.8,27.6-3.4
		C137,93.2,136.6,91.6,135.6,91.6z"/>
	<path fill="#1D1D1B" d="M136.4,103.2c-7.4-1.4-16.8,1.4-23.8,3.4c-1,0.2-0.6,1.6,0.4,1.4c4.4-0.6,8.8-1.2,13.2-1.6
		c3.4-0.4,7-0.2,10.2-1.2C137.2,104.8,137.4,103.4,136.4,103.2z"/>
	<path fill="#1D1D1B" d="M136.6,114c-7.6-0.6-16,1.2-23.8,1.6c-1,0-1,1.6,0,1.6c7.6,0.4,16.8,1.2,24.2-0.8
		C138.4,116,138,114,136.6,114z"/>
	<path fill="#1D1D1B" d="M139.8,82.6c-0.2-2-0.4-4-0.6-6c0-0.6-0.6-1.2-1.2-1.2c-2.4,0.4-5,0.4-7.4,0.8c-0.4,0-0.8,0.4-1,0.6
		c-0.4,0-0.8,0.2-0.8,0.6c-0.2,2.8,0.2,5.6,0.2,8.6c0,0.6,0.6,1.2,1.2,1.2c1.8,0.2,3.8,0.2,5.6,0.2c1.2,0,2.8,0.2,3.6-0.8
		C140.4,85.4,139.8,83.8,139.8,82.6z M137.2,84.8c-0.2,0.2-2.4-0.2-2.8-0.2c-1.2,0-2.2,0-3.4,0c-0.6-2-0.8-4-0.8-6.2h0.2
		c2.2-0.2,4.2-0.6,6.4-0.8c0,1,0.2,2,0.2,2.8C137.2,81.2,137.6,84.6,137.2,84.8z"/>
	<path fill="#1D1D1B" d="M68.8,77.8c-1.6,0.4-3,1.2-4.2,2.2c-1-1-2.2-1.6-3.4-2c-1.6-0.4-2.8,1.2-2,2.8c0.8,1.6,2,2.8,3.6,3.6
		c0,0,0,0,0,0.2c0.2,0.8,0.6,1.2,1.2,1.4c0.4,0.6,1.2,0.8,2,0.6c2.6-0.6,4.4-4,5-6.6C71.2,78.6,70.2,77.4,68.8,77.8z"/>
</g>
</svg>
