<?xml version="1.0" encoding="utf-8"?>
<!-- Generator: Adobe Illustrator 18.1.1, SVG Export Plug-In . SVG Version: 6.00 Build 0)  -->
<svg version="1.1" id="Capa_1" xmlns="http://www.w3.org/2000/svg" xmlns:xlink="http://www.w3.org/1999/xlink" x="0px" y="0px"
	 viewBox="0 0 200 200" enable-background="new 0 0 200 200" xml:space="preserve">
<g>
	<path fill="#1D1D1B" d="M162.6,124.5c-1.6-2.2-6-3.4-8.2-4.4c-2.4-1.2-5-2.4-7.4-3.4c5.8-3.2,9.2-9.6,11.6-16.2
		c0.6-1.8-1.8-2.8-3-1.6c-0.2,0-0.6-0.2-1,0c-38.6,11.8-79.8-4-97.8-40.8c-0.6-1.2-3-1-3.2,0.4c-1.2,8.6-1.2,17.2,0,25.6
		c-6-4.4-9.8-10.4-13-17.4c-0.4-0.8-1.8-0.4-1.8,0.4c0,0.2,0,0.2,0,0.4c0,0-0.2,0-0.2,0.2c-10.4,24.4,20.8,52,39.4,61.8
		c20,10.4,58.2,21,78.6,4.8c1-0.6,1.8-1.4,2.6-2.2c0.2-0.2,0.4-0.4,0.6-0.6C162.8,129.9,164.6,127.5,162.6,124.5z M81.8,126.7
		c-20-10-42.2-31-42-55c2.2,8,8,14,15.6,18c1.6,0.8,3.2-0.6,2.8-2.2c-1.6-7.8-2-15.2-1.6-23c19.4,33.2,58.6,50,96,38.6
		c-3.2,5-7,9.4-13.4,10.6c-2,0.4-2.6,3.8-0.6,4.6c3.6,1.6,7.4,3.2,11,5c1.4,0.6,3,1.4,4.4,2c0.4,0.2,2.8,0.8,4,1.8
		c-1,1-2,2.4-2.8,3.4c-0.8,0.8-1.8,1.6-2.6,2.6l-0.2,0.2C130.6,143.1,102.2,136.9,81.8,126.7z"/>
	<path fill="#1D1D1B" d="M71,92.5c0.8-1.4-1-2.8-2.2-1.6c-3.6,3.2-7,6.8-10.8,9.8c-1,0.8-0.4,2.2,0.4,2.8c2.4,1.8,5.4,4.4,8.4,4.6
		c0.8,0,1.4-1,1-1.6c-1.2-1.8-3.4-3.2-5.4-4.4C65.6,99.3,68.8,96.1,71,92.5z"/>
	<path fill="#1D1D1B" d="M85.4,102.5c-0.2-0.6-0.8-0.6-1.2-0.4c0-0.2-0.2-0.6-0.4-0.8c-4-1.8-7,0.8-9.2,3.8s-4.4,8-1,11
		c3,2.6,7.2,1,9.6-1.8C85.2,111.3,87,106.1,85.4,102.5z M81.8,109.9c-0.8,1.8-3,5-5.2,4c-2.6-1.2-0.4-4.6,0.6-6.2
		c1.4-2.2,3-4.8,6-4.4h0.2C82.8,105.5,82.8,107.7,81.8,109.9z"/>
	<path fill="#1D1D1B" d="M104.6,111.9c-2.2,2-4.2,4-6,6.4c-0.8,1-4.2,5.6-4.2,5.6c-1-0.2-1-8.2-1.2-9.4c0-2.8,0.2-5.6,0-8.4
		c0-1-1.4-1.4-1.8-0.6c-1.6,3.6-2,7.8-1.8,11.8c0.2,2.6,0.2,8,2.8,9.8c2,1.4,3.6-0.2,4.8-1.8c3.2-4,6.2-8,8.4-12.6
		C106.2,112.1,105.2,111.3,104.6,111.9z"/>
	<path fill="#1D1D1B" d="M121.8,130.3c-2.8-1-6-1-9.2-1.2c0.2-1.6,0.2-3.2,0.4-4.8c1,0.4,2,0.6,3,0.6c1.2,0.2,2.6,0.6,3.6,0
		c0.8-0.4,1.2-1.6,0.2-2.2c-1.2-0.6-2.6-0.4-3.8-0.4c-1,0-2,0-3,0.4c0.2-3,0.6-6.2,0.8-9.2c2.2,0.8,4.8,1.2,6.6,0.2
		c1-0.6,0.6-2-0.2-2.2c-1.2-0.4-2.2-0.2-3.4-0.2c-1.2,0-2.4-0.4-3.8-0.6c-0.8-0.2-1.6,0.6-1.6,1.4c0,0.2-0.2,0.2-0.2,0.4
		c-1.6,6-2.2,12.4-2.4,18.4c0,1,0.8,1.6,1.8,1.8c3.6,0,7.4,0.8,11,0C122.8,132.1,122.8,130.5,121.8,130.3z"/>
</g>
</svg>
