<?xml version="1.0" encoding="utf-8"?>
<!-- Generator: Adobe Illustrator 18.1.1, SVG Export Plug-In . SVG Version: 6.00 Build 0)  -->
<svg version="1.1" id="Capa_1" xmlns="http://www.w3.org/2000/svg" xmlns:xlink="http://www.w3.org/1999/xlink" x="0px" y="0px"
	 viewBox="0 0 200 200" enable-background="new 0 0 200 200" xml:space="preserve">
<g>
	<path fill="#1D1D1B" d="M150.8,60.6c0.2-0.4,0.2-0.8-0.2-1.2C140.2,48.8,118,66,109.2,72c-8.4,5.6-16.6,11.8-25,17.6
		c-1.2,0.8-4,2.8-7.6,5c7.4-8.8,16-15.8,25.4-22.8c0.6-0.4,0.2-1.8-0.6-1.4h-0.2c0-0.2,0-0.4,0-0.6c-1-3.6-3.4-6.6-4.8-10
		c-1.2-2.8-2.2-5.8-3.2-8.6c0-1.2-0.4-2.6-1.4-3.8c0-0.2-0.2-0.4-0.2-0.4c-0.2-0.4-0.4-0.6-0.8-0.6c-0.4-0.2-0.6-0.6-1-0.8
		c0-0.4-0.2-0.6-0.6-0.6c-9-1.6-16.6,2.4-23.8,7.6c0.6-2.2,0.8-4.6,1.2-6.8c0.2-1-0.8-1.8-1.6-1.2c-2.6,1.2-4.8,3.4-7,5.2
		c-1.8,1.4-3.6,3-5.4,4.6c0.6-2.2,0.8-4.4,1.2-6.6c0.4-2.2,0.8-4.2,0.6-6.4v-0.2l0,0l0,0c-0.2-0.6-1-0.8-1.4-0.2
		c0,0.2-0.2,0.4-0.2,0.4c-2.2-0.6-3.4,1.2-4.6,2.8c-3,3.8-6.2,8.2-7.8,13c-1,2.8-0.6,7,1,9.8c0,0.2,0,0.4,0.2,0.8
		c2.4,2.4,4.8,4.8,7.2,7.2c2,2.2,4,5.2,6.6,6.6h0.2c-7.4,5.8-14,13.4-13.2,23.4c0,0.6,0.6,1,1,1c1.2,4.8,4.4,9.2,6.6,13.6
		c2.6,5.2,5,11.6,9.6,15.4c0.2,0.2,0.4,0.2,0.8,0.2c-0.4,0.6,0.2,1.4,1,1.2c15.2-3.2,30-10.4,43.2-18.6c5.8-3.6,11.4-7.4,16.8-11.6
		c1-0.8,2.6-2.4,4.4-4c0,0.2,0,0.4,0,0.6c0.8,2.4,2.2,4.6,3.2,6.8c0.6,1.2,1.2,2.4,1.6,3.6c-0.2,0-0.4,0-0.4,0.2
		c-7.4,3.8-13.4,10-18.2,16.6c-3.4,4.4-11,12.8-9.2,18.8c0.2,0.4,0.4,0.6,0.8,0.6l0,0c0,0.2,0.2,0.4,0.2,0.6c0.2,0.6,1,0.8,1.6,0.6
		c4.4-1.2,9.6-4,12.6-8c-1.2,5.2,0.2,12,3.4,15.8c0,0.2,0.2,0.2,0.4,0.2c0,0.8,1.2,1,1.4,0.2c3.2-9.6,9.6-16.4,17.6-22.4
		c4.2-3.2,9.8-5.6,13.4-9.6c3.8-4.4,4.8-11.6-1-13.8c0-0.4-0.2-0.6-0.6-0.8c-2.2-0.8-4.6-0.2-6.8,0.8c-1.6,0.6-3,1.6-4.4,2.4
		c-0.8,0.4-1.4,0.8-2.2,1.2c-1.8,1.4-3.4,1.4-5.2-0.2v-0.2c0-0.4-0.2-0.8-0.4-1.2c3.4-8.8,12-11.4,19.2-17c3.6-3,6.6-6.4,7.2-10.8
		c0,0,0,0,0-0.2C161.4,77.4,156.6,67.6,150.8,60.6z M75.2,91.2c-1.2-2-3-4-4.6-5.8c-1.8-2.2-3.6-4.6-5.2-7c1.2-1,2.4-1.8,3.8-2.6
		C69,76,68.8,76.2,69,76.4c2.8,4,5.4,8.2,8.4,12l0,0C76.6,89.2,75.8,90.2,75.2,91.2z M74.4,92c-1.2,1.6-2.2,3-3.2,4.6
		C68,91.6,64,86.8,60.4,82c1.4-1,2.8-2.2,4.2-3.2C67.2,83.4,70.4,88.8,74.4,92z M78.4,87.2c-2.6-4-5.8-7.6-8.6-11.4
		c-0.2-0.2-0.4-0.2-0.6-0.2c3.4-2.4,6.6-4.6,9.6-7c1,2.2,2.2,4.4,3.6,6.4c1,1.6,2.2,3.4,3.6,4.8C83.2,82,80.8,84.6,78.4,87.2z
		 M87.4,78.6c-1.2-1.8-2.8-3.4-4.2-5.2c-1.2-1.8-2.4-3.8-3.4-5.8c1-0.8,1.8-1.4,2.6-2.2c0,0,0,0,0.2,0c1.4,2,2.8,4.2,4.2,6.2
		c1,1.6,2,3.4,3,5C89,77.4,88.2,78,87.4,78.6z M91.6,75.4c-2-4-5.2-7.6-8-11c1-0.8,2.2-1.8,3.2-3c2,4.2,4.4,9,7.6,12.2
		C93.4,74.4,92.6,74.8,91.6,75.4z M91.8,55.6c0.6,1.6,1,3,1.6,4.6c1.4,3.6,3,8,5.8,10.8l0.2,0.2c-1.2,0.6-2.2,1.2-3.4,1.8
		c-1.2-2-2.8-4-4.2-6c-1.4-2-2.8-4.2-4-6.4C89.4,59,90.8,57.2,91.8,55.6z M45,53.2C45.6,52,49.8,44,51.8,43c-0.4,1.6-0.6,3.4-1,5
		c-0.4,2.6-1.2,5.2-1,7.6c0,0.6,0.4,0.8,0.6,1c0.2,0.4,0.8,0.8,1.2,0.4c2.6-1.8,5.2-3.6,7.8-5.4c1.4-1,2.8-2,4.2-3.2
		C63.4,50,63,51.6,63.2,53c0,0.4,0.2,0.6,0.4,0.8c-5.8,4.4-11.2,9.6-16.8,13C40.8,64.6,42.4,58.2,45,53.2z M50.6,72.8
		c-1.2-1.2-2.4-2.4-3.6-3.4c0.4,0,0.6-0.2,1-0.2c0.2,0,0.4-0.4,0.6-0.6c14-7.2,23-21.2,40-21.8l0,0C95.8,55,64,75.2,56.8,80.4
		c0-0.2,0-0.2,0-0.4C55.6,77.2,52.6,75,50.6,72.8z M54.4,87.4c3.2,4.2,6.2,8.6,9.8,12.6c0.4,0.6,1.4-0.2,1-0.8
		c-3-4.4-6.6-8.4-10.2-12.4c1.4-1.2,2.8-2.6,4.2-3.8c3.4,5.2,6.8,10.6,10.6,15.4c-2.8,1.6-5.6,3-8.4,4.2l0,0c-3.6-4-7-7.8-9.8-12.4
		C52.8,89.2,53.6,88.2,54.4,87.4z M51.2,91c2.2,4.4,5.4,8.8,9.2,12.2c-1,0.4-2,0.8-3,1c-1.4-1.6-3.2-3.2-4.6-4.8
		c-1.4-1.6-2.8-3.4-4-5C49.6,93,50.4,92,51.2,91z M48.2,95.2c2,3.4,4.8,6.8,7.8,9.2c-1.4,0.4-2.6,0.6-3.8,0.8
		c-0.8-1-1.8-1.8-2.6-2.8c-1.2-1.4-2.2-2.8-3-4.2C47.2,97.2,47.6,96.2,48.2,95.2z M45,102.6c0.2-1,0.6-2,0.8-2.8
		c1.2,2,2.6,4,4.2,5.6C48,105.2,46.2,104.4,45,102.6z M136,119.8c2.4,0,4.6-1.6,6.6-2.6c2.8-1.6,5.4-2.8,8.6-3.6
		c11,5.8-7,15.8-10,18c-3.2,2.2-6.2,4.6-8.8,7.4c-4.6,4.6-8,10-10,16c-0.6-2.2-1.2-4.2-1.6-6.4c-0.4-3.2,0-6.2-0.4-9.4
		c0-0.6-0.8-1-1.4-0.8c-0.2,0-0.4-0.2-0.4,0c-2.2,1.6-4,3.6-6.2,5c-2,1.4-4.4,2.4-6.8,3.2c-0.2-0.2-0.6-0.4-1-0.2
		c-0.2,0-0.2,0-0.4,0.2c-0.2,0-0.2,0-0.2,0.2c0.2-5.4,8.8-15,11.6-18.6c4.4-5.4,9.6-9.8,15.6-13.6l0.2-0.2c0,0.2,0.2,0.2,0.2,0.4
		c0,0.4-0.2,0.8-0.2,1.4c0,0.4,0.2,0.6,0.6,0.8C132.2,118.6,134,119.8,136,119.8z M132.6,111c-1.2-3.6-3-7.2-5.4-9.8
		c-0.2-0.2-0.6-0.4-1-0.2c1-1,2.2-2,3.4-3.2c1.2,3.2,2.6,7,5.2,9h0.2C134,108.2,133.2,109.6,132.6,111z M144.8,98.8
		c-0.8-1-1.8-2-2.6-3c-1-1.2-2-2.6-2.8-4c-0.4-0.8-1.8-0.2-1.4,0.8c1.2,2.4,2.8,5.4,5.2,7.2c-2.8,2-5.4,3.8-7.4,6.2
		c-0.8-1.6-2-2.8-2.8-4.2c-1-1.6-1.6-3.2-2.4-4.8c0.8-0.6,1.4-1.2,2.2-1.8c1.6,2.6,3,5.2,4.6,7.8c0.6,0.8,1.8,0,1.2-0.8
		c-1.6-2.8-3.2-5.4-5-8c2.8-2.4,5.8-4.4,8.6-5.6c0.8,1.6,1.6,3.2,2.6,4.6c0.8,1.2,1.8,2.6,3,3.4C147,97.4,146,98,144.8,98.8z
		 M146.4,91.8c-0.8-1.2-1.6-2.6-2.4-3.8c1-0.4,1.8-0.6,2.6-0.6c1.2,1.2,2.2,2.4,3.2,3.6c0.6,1,1.2,2,1.8,3c-0.8,0.6-1.4,1.2-2.2,1.8
		C148.6,94.2,147.2,93,146.4,91.8z M153,92.6c-1-2-2.6-3.8-4.4-5.4c0.8,0.2,1.8,0.4,2.4,1c0.8,0.6,1.4-0.6,0.6-1.2
		c-3.8-2.8-7.8-2-11.8,0c-8.8,4.6-16,13.4-24.4,19.2c-17,11.8-35,19.4-53.6,27.6c0.2-0.2,0.2-0.6-0.2-1c-2.8-4.4-5.6-8.6-8.2-13
		c-2-3.6-5-7.4-7-11.4c8.6,4,29.2-9.2,34-12.2c10-6.4,19.2-13.6,29-20.2c9.2-6.2,26.2-19.8,38.2-15.2c2.4,3.4,4.6,7.2,6.4,11
		c2,4.4,2.6,9.2,4,13.8C156.8,88.2,155,90.6,153,92.6z"/>
	<path fill="#1D1D1B" d="M82.2,82.4c-1-1.8-2.6-3.2-4-4.6c-1.6-1.6-3-3.2-4.6-4.8c-0.4-0.4-0.8,0.2-0.6,0.6c1.4,1.8,2.8,3.4,4.2,5.2
		c1.2,1.6,2.4,3.4,4,4.6C81.8,83.8,82.4,82.8,82.2,82.4z"/>
	<path fill="#1D1D1B" d="M82.4,105.2c-1.8,0-3,1.4-3.2,3.2c0,0.2,0,0.6-0.2,0.8c-1.4-0.8-3.2,0-4,1.2c-0.8,1.4-0.4,3.6,1.2,4.2
		c1.4,0.6,2.6,1.2,4,1.8c2.4,1,4.4-0.2,4.8-2.8c0.2-1.8,0.4-3.6,0.6-5.4C85.8,106.8,84,105.2,82.4,105.2z"/>
	<path fill="#1D1D1B" d="M98.8,105.6c-1.6-0.2-3,1-4,2.4c-2.2-2.8-4.2-6.2-5.8-9.4c-0.4-0.8-1.8-0.2-1.4,0.6c1.6,4.2,4,7.6,6.2,11.4
		c0.4,0.6,1.4,0.8,1.8,0.2c1.2-1.4,3-2.4,3.8-3.8C100,106.2,99.4,105.6,98.8,105.6z"/>
	<path fill="#1D1D1B" d="M105.6,99.8c-1.4-2.8-4.4-6.2-7.8-6c-0.4,0-0.8,0.2-0.8,0.6c-0.2-0.2-0.6-0.2-0.8,0
		C95,95,95.6,97.2,95.8,98c0.8,3,3,6.8,6.2,7.4C105.4,106,107.2,102.6,105.6,99.8z M103.2,103c-1.6,1-3.6-1.4-4.4-2.6
		c-0.4-0.6-0.8-1.4-1.2-2.2c-0.2-0.4-0.2-0.8-0.4-1.2C97,96.4,97,96,97,95.4l0.2,0.2c0.2,0,0.2,0.2,0.4,0.2c1.6,0.4,2.6,1,3.6,2.2
		C102,98.8,104.8,102,103.2,103z"/>
	<path fill="#1D1D1B" d="M111.8,97.2c-0.6-2.2-1.4-4.2-2.4-6.2c-0.8-1.8-1.4-4-2.8-5.4c-0.8-0.8-1.8,0-1.8,1c0.2,2,1.4,3.8,2,5.6
		c0.2,0.6,0.4,1.2,0.8,2c-2-1.4-3.8-3-5.6-4.6c-0.8-0.8-2.2,0.4-1.4,1.4c2.6,3,5.6,5.6,8.8,8C110.6,99.4,112,98.2,111.8,97.2z"/>
	<path fill="#1D1D1B" d="M119.4,89.2c-1.2,0.2-2,1-2.8,2c-0.8-0.6-1.4-1.4-2-2.2c1-0.6,1.8-1.2,2.6-2c0.8-0.8-0.2-2-1.2-1.4
		s-1.8,1.4-2.6,2.2c-0.6-1-1.2-2-1.8-3c0.8-0.4,1.6-1.2,2-2c0.4-1-0.8-2-1.6-1.2c-0.8,0.8-1.4,1.4-2.2,2c-0.6,0.4-0.6,1-0.2,1.4
		c0.8,1.6,1.6,3,2.6,4.6s2.2,3,3.2,4.4c0.6,1,1.8,0.8,2.4,0c0.8-1,2-1.8,2.6-3C121.2,90,120.4,89,119.4,89.2z"/>
	<path fill="#1D1D1B" d="M130.4,74.4c-1.2-0.4-2.4,0.2-3.2,1.2c-0.6,1-1.2,2-1.6,3.2c-1-0.6-2.2-1-3.4-1.4c-2.4-0.6-3.8,2.8-1.8,4
		c1.2,0.8,2.4,1.6,3.6,2.2c0.6,0.4,1.4,1,2,1.6c1,0.8,2,0.8,3,0.4c0.6,0,1-0.2,1.4-0.6c1.8-2,1.6-5.6,1.8-8.2
		C132.6,75.8,131.6,74.6,130.4,74.4z"/>
</g>
</svg>
