<?xml version="1.0" encoding="utf-8"?>
<!-- Generator: Adobe Illustrator 18.1.1, SVG Export Plug-In . SVG Version: 6.00 Build 0)  -->
<svg version="1.1" id="Capa_1" xmlns="http://www.w3.org/2000/svg" xmlns:xlink="http://www.w3.org/1999/xlink" x="0px" y="0px"
	 viewBox="0 0 200 200" enable-background="new 0 0 200 200" xml:space="preserve">
<g>
	<path fill="#1D1D1B" d="M129.2,49.4c-0.6-1-1.6-1-2.2-0.4h-0.2c-24.4,0.4-48.6,3.2-72.4,8.2c-0.8,0.2-1.6,1.4-1.2,2.2
		C63.4,87.8,68,117,69.8,147c0,0.8,0.8,1,1.2,0.6c0,0.4,0,0.8,0.4,0.8c10.4,2.8,22,1.6,32.8,2c12.2,0.4,24.2,1,36.4,1
		c0.8,0,1.2-0.4,1.4-0.8c0.6,0,1.2-0.4,1.4-1.2C151.4,116.6,145.6,79,129.2,49.4z M71.4,147.2C71.2,147.2,71.2,147.2,71.4,147.2
		C71.2,147.2,71.2,147,71.4,147.2C72,121.8,68,96.8,61,72.6c-0.8-2.8-2.6-6.2-2.8-9C58,59.2,59,60.4,62.6,59
		c6.6-2.4,15.4-2.6,22.2-3.4c14-1.8,28-2.6,42-3c0.2,0,0.2,0,0.4,0c13.6,31,17.6,61.6,13.2,95.2c-12-0.6-24.2-0.8-36.2-1
		C93.4,146.6,81.8,144.8,71.4,147.2z"/>
	<path fill="#1D1D1B" d="M119.2,60.4c-15.6,2.8-30.8,7-46.6,9.4C72,70,72.2,71,72.8,71c15.4,0.2,32.2-4.6,47-8.2
		C121.6,62.4,120.8,60.2,119.2,60.4z"/>
	<path fill="#1D1D1B" d="M123.2,72.6c-15.8,3-31.8,7-47.8,8.8c-0.6,0-0.6,1,0,1c15.8,0.6,33-4,48.4-7.2
		C125.6,75,125,72.4,123.2,72.6z"/>
	<path fill="#1D1D1B" d="M125.8,87.4c-15.8,1.8-31.6,4.4-47.4,7.2c-1,0.2-0.8,1.8,0.2,1.6c15.8-1.8,31.8-3.6,47.4-6.4
		C127.4,89.6,127.2,87.2,125.8,87.4z"/>
	<path fill="#1D1D1B" d="M126.8,102.8c-15.4-0.6-30.4,6.8-45.6,6c-1,0-0.8,1.4,0,1.4c6.8,0.8,13-1,19.6-2.4c8.8-1.6,17.6-2,26.4-3.4
		C128,104.6,127.8,103,126.8,102.8z"/>
	<path fill="#1D1D1B" d="M128.8,118c-14.8,1-29.6,3-44.4,5.8c-1.2,0.2-0.6,1.8,0.4,1.6c14.6-2.2,29.2-3.6,43.8-4.6
		C130.6,120.6,130.6,117.8,128.8,118z"/>
	<path fill="#1D1D1B" d="M125,127.8c-2.8-1.8-5.4,0.6-6.6,3.4c-0.4-0.4-0.8-0.6-1.4-0.8c-1.6-0.6-3.6,0.2-4.4,1.8
		c-0.8,2,0.8,4,2.2,5.2c1.4,1.2,2.8,2,4.6,2.4c0.4,1.6,3,2,3.4,0c0.6-2.6,3.4-4.2,4.2-6.8C127.4,131.2,126.8,128.8,125,127.8z"/>
</g>
</svg>
