<?xml version="1.0" encoding="utf-8"?>
<!-- Generator: Adobe Illustrator 18.1.1, SVG Export Plug-In . SVG Version: 6.00 Build 0)  -->
<svg version="1.1" id="Capa_1" xmlns="http://www.w3.org/2000/svg" xmlns:xlink="http://www.w3.org/1999/xlink" x="0px" y="0px"
	 viewBox="0 0 200 200" enable-background="new 0 0 200 200" xml:space="preserve">
<g>
	<path fill="#1D1D1B" d="M107.7,61.2c-7.2-16.6-31-20-45.8-12.2c-13.6,5-20,22.2-14.6,35.6c6.6,16.4,25.8,23.6,41.8,17
		C104.1,95.2,114.5,77.2,107.7,61.2z M84.1,100c-13.8,3.8-29-3-34-16.8c-4.8-12.8,1.2-24.4,11.4-31.8c0.4,0.2,0.8,0.2,1.2,0
		c12.2-6,33.2-3.8,40.6,8.8C112.3,75.8,100.1,95.6,84.1,100z"/>
	<path fill="#1D1D1B" d="M151.3,132.4c-12.4-13.4-26-26-41.4-36c9-11.2,13.6-25.8,8.6-39.2c-9.4-24.2-39.8-20.4-59.6-15
		c-0.8,0.2-1,1-0.8,1.8c-20.8,4.2-25.6,31.4-18.6,48.8c8.2,20,32.8,27.2,51.8,18.6c3-1.4,6-3.2,8.8-5.4c0,0.2,0,0.4,0.2,0.6
		c10.8,14.6,23,28.2,36,40.8c5.8,5.6,17.6,20.8,26,11.6c0.6-0.6,0.4-1.4,0-2C166.9,148,157.3,139,151.3,132.4z M94.1,106.6
		c-15.8,9.4-38.4,6.8-49-9.4c-12.4-18.8-4.8-43.6,15.6-52.4c0.2,0,0.4-0.2,0.4-0.4c17.6-4.4,42.8-7.8,53,11.4
		C123.9,73.8,109.7,97.2,94.1,106.6z M127.1,133.6c-8.8-9-17.2-18.6-25.4-28c-0.2-0.2-0.4-0.2-0.6-0.2c2.4-1.8,4.6-4,6.6-6.4l0,0
		c9.6,7.8,19.2,15.4,28.2,24c7,6.6,28.2,23,23.6,34.6C151.3,162.4,131.9,138.6,127.1,133.6z"/>
	<path fill="#1D1D1B" d="M84.1,57.6c-3.8-0.2-7.4,4-8.8,7.6L75.1,65c-1.6-1.8-3.4-3.4-5.8-4.2c-5.2-1.6-10.2,2-9.8,7.4
		c0.6,5.2,5,9.8,9.4,12.2c2,1.2,4.6,2.2,7,2.2c0.8,0,1.8-0.2,2.6-0.6c1.6-0.4,3-1.4,4-2.6c0.2-0.2,0.4-0.4,0.6-0.6
		c3.4-3.4,5.6-8.8,6.2-13.6C89.5,62.2,88.3,57.8,84.1,57.6z"/>
</g>
</svg>
