<?xml version="1.0" encoding="utf-8"?>
<!-- Generator: Adobe Illustrator 18.1.1, SVG Export Plug-In . SVG Version: 6.00 Build 0)  -->
<svg version="1.1" id="Capa_1" xmlns="http://www.w3.org/2000/svg" xmlns:xlink="http://www.w3.org/1999/xlink" x="0px" y="0px"
	 viewBox="0 0 200 200" enable-background="new 0 0 200 200" xml:space="preserve">
<path fill="#1D1D1B" d="M51.3,97.3c-2.8,12.2,2.6,24.4,14,29.8c10,4.6,20.6,2.8,29.8-2.4c-0.4,8.6,1.6,17.8,8.2,23.6
	c9,7.8,23.2,5.4,32.2-1c22.6-16.2,14.4-48.2-4.4-63.2c3.8-5.2,7-11.2,10.2-16.8c0.8,0.6,1.8,1,2.6,1.6c0.8,0.4,1.6,0.6,2.2,0.4
	c1.2,0.2,2.8-0.6,3-2.2c0.6-5.8,0.2-11.8-0.6-17.6c-0.4-2.8-4-3.6-5.8-1.8c-2.8,2.4-5.8,4.8-8.8,7.2c-1,0.6-1.2,1.6-1.2,2.6
	c-0.8,0.8-1,2.2-0.4,3.4c0.6,1.2,1.6,2.2,2.8,2.8c-3.2,5.4-6.6,10.8-9.4,16.4c-14.6-6.2-30.4-11.4-46.4-7.8
	C65.7,74.9,54.3,83.7,51.3,97.3z M123.1,86.5c0.4,1,1.6,1.6,2.8,1.6c12.4,11.6,22,29.6,11.8,46c-4.6,7.4-13.4,12.4-22,11.6
	c-13.4-1.4-15-17-12.8-27.4c0.8-3.4-3-6-5.8-3.8c-9.2,7.4-22,11.2-32.4,3.6c-10-7.4-8.4-22.2-0.6-30.6
	C79.7,71.1,104.7,78.7,123.1,86.5z"/>
</svg>
