<?xml version="1.0" encoding="utf-8"?>
<!-- Generator: Adobe Illustrator 18.1.1, SVG Export Plug-In . SVG Version: 6.00 Build 0)  -->
<svg version="1.1" id="Capa_1" xmlns="http://www.w3.org/2000/svg" xmlns:xlink="http://www.w3.org/1999/xlink" x="0px" y="0px"
	 viewBox="0 0 200 200" enable-background="new 0 0 200 200" xml:space="preserve">
<g>
	<path fill="#1D1D1B" d="M136.5,118.4c-0.4-5.6,1-19.2-3.8-23.4c-1.4-1.2-3-1.2-4.8-1.4c-6.8-1.2-14.8-0.6-21.8-0.6
		c-5.8,0-11.8-0.2-17.8-0.2c0.6-6.4,1.6-13.4,5-18.8c2.8-4.6,8.6-7.8,12-1.2c1.4,2.8,1.8,6.4,3,9.4c0.2,0.6,1,0.8,1.4,0.6
		c1.2,2.4,3.8,3.6,6.4,2.8c3.2-1,4.8-4.8,3.4-7.8c-0.2-0.2-0.4-0.6-0.8-0.6c-3-11.6-10.8-26.2-25-20.8C80.5,61.6,75.5,80,76.3,93
		c-4,0.2-8,0.6-11.8,1c-1.2,0.2-1.6,1.4-1.2,2.2c0,0,0,0,0,0.2c-0.8,12.2-1.6,25.6-0.6,37.8c0.6,6,2,8.8,8.4,9.6
		c11.6,1.6,24.6,0.2,36.2,0.2c7,0,20,2.8,26.2-1.8C140.3,137.6,137.1,125,136.5,118.4z M88.3,64.4c5.4-6,14-8.6,20.6-2.2
		c4.4,4.4,5.8,10.6,7.6,16.2c0,0.2,0.2,0.4,0.4,0.6c0,0.8,0,1.6-0.4,2.2c-1.2,2-4.2,1-5-0.6c-0.2-0.4-0.6-0.6-1-0.4
		c-1-7.2-4-17.2-13-13.8c-9.2,3.4-11,17.6-10.8,26.4c-2.6,0-5.2,0-7.8,0.2C79.5,82.8,81.5,72.2,88.3,64.4z M130.1,140.4
		c-6,3-17.8,0.6-24.4,0.6c-9.2,0-18.6,0.2-27.8,0.2c-6.2,0-10.2,1.6-12.2-7c-0.8-3,0-8.2,0-11.4c0-8.6,0-17.4-0.4-26
		c17,0.6,34-0.6,51-0.2c2.6,0,9.6-1.2,11.8,0.2c4.8,2.8,4.2,11.4,4.6,16C132.9,118.2,136.7,137.2,130.1,140.4z"/>
	<path fill="#1D1D1B" d="M109.9,108.6c-3.6-4.6-8.4,0.2-11.4,4.4c-3.2-3-7.8-5.4-10.2-1c-2.8,5,3.6,8.8,8,9
		c-0.8,2.8-1.6,5.6-2.8,8.2c-0.6,1.4,0.2,3.4,2,3.4c2.6,0,5,0,7.6,0c1.4,0,2.6-1.4,2.2-2.8c-1-3.4-1.8-6.8-2.8-10.2
		C107.1,117.2,113.3,112.8,109.9,108.6z"/>
</g>
</svg>
