<?xml version="1.0" encoding="utf-8"?>
<!-- Generator: Adobe Illustrator 18.1.1, SVG Export Plug-In . SVG Version: 6.00 Build 0)  -->
<svg version="1.1" id="Capa_1" xmlns="http://www.w3.org/2000/svg" xmlns:xlink="http://www.w3.org/1999/xlink" x="0px" y="0px"
	 viewBox="0 0 200 200" enable-background="new 0 0 200 200" xml:space="preserve">
<g>
	<path fill="#1D1D1B" d="M130.7,99.8c-0.2-5,0.2-11.2-1.8-15.8c-3.2-7.6-10-8-17.4-7.2c0.4-1.4,0.6-2.8,0.4-4.2
		c3.2-0.6,5.4-2.2,4.6-5c-0.4-1.8-1.8-2.8-3.6-3.4c0.8-2.2,1.2-4.6,1.8-7c0.4-2,2.2-5.6,0.6-7.4c-1.4-1.6-4.8-1.6-6.8-1.8
		c-4-0.6-8.2-0.8-12.4-1c-0.8,0-1.4,0.6-1.4,1.4c0,5.2-0.2,10.6,0.6,15.8c-2,0.6-3.8,1.8-4.6,3.8v0.2c-0.4,0.2-0.6,0.8-0.2,1.2
		c0.6,0.4,2,1,3.6,1.6c0,0,0,0,0,0.2c-0.4,1.2-0.2,2.4-0.2,3.6c0,0.8,0.2,1.8,0.4,2.6c-5.4,0.4-10.6,1.4-14.4,4.4
		c-7.4,6-7.8,20.4-9,29c-0.8,6.6-1.4,13.2-1.6,19.6c-0.2,4.4-1.2,10,1,14.2c4,7.4,15.6,6.4,22.4,7c7,0.4,14,0.8,21,1
		c3.8,0,10.6,1.4,14-1.6c1.8-1.6,1.8-3.8,2.2-6c1.4-7.2,0.8-15.2,1-22.6C131.1,114.8,131.1,107.4,130.7,99.8z M97.5,53.4
		c1.4,1.2,3.8,1,5-0.4c0.4-0.6-0.4-1.4-0.8-0.8c-1,1.2-2.6,1.4-3.8,0.2c-0.2,0-0.2-0.2-0.4-0.2c0-0.8,0-1.4,0-2.2
		c2.2,0.2,4.6,0.2,6.8,0.4c2.2,0.2,7.2,0,8,1.8c0.8,1.6-0.8,5.6-1.2,7.4c-0.2,1.2-0.6,2.6-0.8,3.8c-1.2-0.2-2.2-0.2-3.4-0.2
		c0-0.2,0-0.4,0-0.6c-0.2-0.4,0-1.2,0.2-1.6c0.4-0.6-0.4-1.4-1-1c-1.2,0.8-1.6,2-1.2,3.2c-0.8,0-1.4,0-2,0c-1.8,0-4,0.2-6,0.6
		C97.5,60.4,97.5,57,97.5,53.4z M92.1,68.8L92.1,68.8c2.2-3.4,8.8-2.8,12.2-2.8c1.6,0,3.2,0,4.6,0.2c0.6-0.2,1-0.2,1.4-0.2
		c0,0.2,0,0.4,0,0.6c0,0.8,1.2,1.2,1.4,0.4l0,0c0.2,0.2,0.2,0.6,0.2,1c1.2,1.6,0.6,2.2-1.6,1.8C105.3,70.4,97.3,71,92.1,68.8z
		 M96.1,71.6c3.8,1,8.8,1.6,12.8,1.4c-0.6,1.4-0.6,3.2-0.6,4.8c-3.6-0.2-8-0.4-12.2-0.4c0.2-1,0.2-1.8,0.2-2.6
		C96.5,73.6,96.5,72.6,96.1,71.6z M121.5,149.2c-2.8,1.2-8.2,0-11.4,0c-4.4-0.2-9-0.4-13.4-0.6c-3.8-0.2-7.6-0.4-11.4-0.8
		c-8.6-1-11.8-4.8-13-13.4c-1-8.2,0.8-18.6,2.2-26.6c1.2-8,2-19.4,9.2-24.6c5.6-4,19.6-2.8,26.6-3.4c0.2,0.2,0.4,0.2,0.8,0.2
		c15.2-1.8,15.8,11,16,21.8c0.2,8.2,0.4,16.2,0.2,24.4C127.1,133.2,129.5,146,121.5,149.2z"/>
	<path fill="#1D1D1B" d="M103.7,57.8c-0.8-0.8-1-2-0.2-3c0.4-0.6-0.4-1.2-1-0.8c-1.6,1.4-1.4,3.8,0.2,5.2
		C103.5,59.6,104.3,58.4,103.7,57.8z"/>
	<path fill="#1D1D1B" d="M106.5,52.2c-0.8,0.2-0.6,1.4,0.2,1.4c1.6,0,2.6,2,2,3.4c-0.4,1,1,1.4,1.6,0.6
		C112.1,55,109.5,51.6,106.5,52.2z"/>
	<path fill="#1D1D1B" d="M108.1,58.6c-0.8-0.4-1.6-0.8-1.6-1.8c0-0.8-1.2-0.8-1.2,0c0,1.4,1,3,2.4,3.2C108.5,60,108.9,59,108.1,58.6
		z"/>
	<path fill="#1D1D1B" d="M99.1,58.4c-0.8,0-1.4,1.2-0.4,1.6c0.6,0.2,1,0.6,1,1.2c0,1.2,1.8,1.4,2,0.2C102.1,60,100.9,58.2,99.1,58.4
		z"/>
	<path fill="#1D1D1B" d="M124.7,124.8c0-8.6,0-17-0.4-25.6c0-0.6-0.4-0.8-0.6-1c0-0.8-0.4-1.6-1.4-1.6c-13.4,1.4-27,2-40.6,2.2
		c-1.2,0-1.2,1.8,0,1.8c13.4,0.6,26.8,0.4,40.4-0.8c-0.4,9.6-0.2,19.2-0.2,28.8c0,5.6,1.2,12.6-6.2,15.6c-4,1.6-10.4,0.6-14.6,0.4
		c-10.4-0.6-22.8,1.8-24.8-11.4c-1.6-10.2,2.4-22,4.2-32c0.2-1-1-1.2-1.4-0.4c-2.6,7-4,14.2-4.6,21.6c-0.4,5.2-2,14.2,0.6,19.2
		c3.8,7.4,19.2,5,26,5.6c7.2,0.6,19.8,2.6,23-6.2C125.7,136,124.7,129.8,124.7,124.8z"/>
	<path fill="#1D1D1B" d="M87.1,105.6c-0.2,0.2-0.4,0.4-0.6,0.8c-0.2-0.2-0.4-0.4-0.6-0.6c-1.8-2-5.4,0.6-3.8,3
		c0.8,1.2,1.8,2.4,2.8,3.4c0.2,0.8,0.8,1.4,1.6,1.8c1.4,0.6,3.2,0.2,4-1.4s1.6-3.2,1.8-4.8C92.3,105,88.9,104,87.1,105.6z"/>
	<path fill="#1D1D1B" d="M107.9,106.4c-0.2,0.4-0.4,0.6-0.4,1c-0.2-0.2-0.4-0.4-0.6-0.6c-2.2-1.6-4.6,0.8-3,3c0.4,0.6,0.8,1,1.4,1.6
		c0.2,0.2,0.4,0.4,0.6,0.8c0.2,0.2,0.6,1,0.4,0.4c0.8,2.2,3.8,2.8,5,0.6c1-1.6,1.8-3.4,2-5.4C113.3,105.2,109.1,104,107.9,106.4z"/>
	<path fill="#1D1D1B" d="M100.5,116.8c-1,0-2,0.6-2.6,1.4c-0.2-0.4-0.4-0.6-0.6-1c-1.4-1.8-4-0.4-3.2,1.8c0.4,0.8,0.8,1.6,1.2,2.2
		c0.4,0.6,1,1.2,1.2,1.8c0.6,2,3.6,2.6,4.6,0.6c0.4-0.8,0.4-1.2,1-2s1.2-1.4,1.2-2.6C102.9,118,101.7,116.8,100.5,116.8z"/>
	<path fill="#1D1D1B" d="M115.3,121.4C115.3,121.4,115.5,121.4,115.3,121.4c-0.4-0.2-1.2-0.2-1.8,0.2c-0.2,0-0.4,0.2-0.6,0.4l0,0
		c-0.2,0.2-0.2,0.2-0.4,0.4c0,0,0-0.2-0.2-0.2c-1-1.6-3.6-1-3.6,1c0,1,0.4,2,0.8,3c0.4,0.8,1,1.4,1.4,2.2c0.8,1.8,3.6,1.6,4.4,0
		c0.6-1.2,1.4-2.4,1.8-3.6C117.9,123,116.7,121.8,115.3,121.4z"/>
	<path fill="#1D1D1B" d="M88.5,125c-1.2,0.4-1.8,1.2-2.4,2.2c-0.4-0.4-0.6-0.6-1-1c-1.2-1-3.2,0.2-2.2,1.8c0.4,0.8,1,1.4,1.4,2.2
		c0.4,0.8,0.8,1.6,1.2,2.4c1,1.8,3.8,1.4,4.4-0.6c0.2-0.6,0.4-1.4,0.8-2c0.4-0.8,1.2-1.6,1-2.8C91.3,125.8,90.1,124.4,88.5,125z"/>
	<path fill="#1D1D1B" d="M103.1,131.4c-1,0.4-1.6,1-2.2,1.8c-0.2-0.2-0.4-0.6-0.4-0.8c-1-2-4-0.6-3.6,1.6c0.4,1.4,0.8,2.6,1.6,3.8
		c0,0.4,0.2,0.6,0.4,1c0.8,1.4,3,1.6,4,0.6c1.4-1.4,3.4-3.4,3.4-5.4C105.9,132.4,104.7,130.8,103.1,131.4z"/>
</g>
</svg>
