<?xml version="1.0" encoding="utf-8"?>
<!-- Generator: Adobe Illustrator 18.1.1, SVG Export Plug-In . SVG Version: 6.00 Build 0)  -->
<svg version="1.1" id="Capa_1" xmlns="http://www.w3.org/2000/svg" xmlns:xlink="http://www.w3.org/1999/xlink" x="0px" y="0px"
	 viewBox="0 0 200 200" enable-background="new 0 0 200 200" xml:space="preserve">
<g>
	<path fill="#1D1D1B" d="M157,72.5c0-0.8-0.6-1.2-1.2-1.2c0.2-0.6-0.2-1.6-1.2-1.6c-24.8-2.2-50.4-3.4-75.6-3.2
		c0.2-0.8,0.4-1.8,0.2-2.8c0-0.6-0.4-1-1.2-1.2c-1.6-0.2-3.2-0.4-4.6-0.6c-1.2-0.2-2.6-0.4-3.6,0.6s-1,2.6-0.6,4c-1.6,0-3.2,0-4.8,0
		h0.2c0.4-0.2,0.8-0.4,0.8-0.8c1.4-5.8-8.4-4.6-11.4-4.6c-2.2,0-4.8,0.2-5.6,2.6c-0.6,1.2-0.2,2.6,0.8,3.4c-1.4,0-2.8,0-4.2,0.2
		c-0.6,0-0.8,0.4-0.8,0.8c-0.6,0-1.2,0.2-1.2,1c-0.8,13.6-0.2,27.4,0,41c0,6.6,0,13,0.2,19.6c0,3-0.8,5.6,1.4,7.6
		c0.2,0.2,0.4,0.2,0.8,0.2c0,0.4,0.2,0.6,0.8,0.6c16,1.4,32,0.8,48.2,0.8c1,0,2.2,0,3.2,0c0.4,0,0.8,0,1.4,0
		c17.6,0.2,35.2,0,52.6-1.4c0.6,0,1-0.6,1-1c0.6,0.4,1.6,0.4,1.8-0.4C158,115.1,157.8,93.9,157,72.5z M72.6,63.9
		c1.4,0.2,3,0.4,4.4,0.6c0,0.6-0.2,1.2-0.4,1.8c-2,0-3.8,0-5.8,0c-0.2-0.4-0.2-0.8-0.2-1.2C71,63.9,71.6,63.9,72.6,63.9z M53.6,63.5
		c0.6,0,1.2,0,1.8,0c1,0,2,0,2.8,0c1.8,0,5.4-0.6,5.2,2c0,0.4,0.2,0.8,0.6,0.8c-4.2,0-8.4,0.2-12.6,0.4c0.2-0.4,0-0.8-0.4-1.2
		C51.2,63.9,52,63.3,53.6,63.5z M61.8,136.5L61.8,136.5c0-1,0-1.8,0-2.6c0-1-1.6-1-1.6,0c0,0.8,0,1.6,0,2.6c0,0,0,0,0,0.2
		c-2,0-4.2,0-6.2,0c-0.2-1.4-0.4-2.8-0.4-4.2c0-0.8-1-0.8-1.2-0.2c-0.4,1.4-0.4,3,0.2,4.4c-1.8,0-3.8,0-5.6,0.2c0-0.4,0-0.8-0.4-0.8
		c-1.2-0.4-0.2-30.8-0.2-33.6c0-3.8,0-7.6,0-11.2c0.8,0,1.8,0.2,2.6,0.2c-0.4,1-0.2,2.2,0.4,3c0.6,0.6,1.6,0,1.2-0.6
		c-0.4-0.8-0.4-1.4-0.4-2.2l0,0c5.4,0.4,10.8,0.6,16.4,0.6c0,0,0,0,0,0.2c-0.4,1.8-0.4,3.4,0.2,5c0.4,1.2,2.2,0.8,1.8-0.6
		c-0.4-1.4-0.6-2.8-0.4-4.4c0-0.2,0-0.2,0-0.4c3,0,6.2,0,9.2-0.2c-1.6,1.8-3,3.6-4,5.8c0.2-1,0.2-2.2,0.2-3.2c0-0.6-1-0.8-1.2-0.2
		c-0.6,1.8-0.6,3.4-0.6,5.2c0,0.4,0.2,0.6,0.4,0.6c-0.6,1.4-1.2,2.8-1.6,4.4c-1.6,6.2-1.2,12.4,0.8,17.8c-0.2,0-0.6,0.2-0.6,0.6
		c-0.2,1.2,0,2.4,0,3.6c0,0.6,0.8,0.6,1,0c0-0.8,0-1.8,0-2.6c2.4,5.8,7,10.6,13,13.2C77,136.7,69.4,136.5,61.8,136.5z M90.8,88.7
		c0.4,0.6,0.8,1,1.2,1.6c-1.6,0.8-3.2,1.8-4.8,3c-1.6-1-3.2-2-4.6-3.2c2-1.4,4.2-2.6,6.6-3.4C89.8,87.3,90.2,88.1,90.8,88.7z
		 M90.6,86.1c2-0.6,4-1,6.2-1.4c0,0,0,0,0,0.2c0.4,1.2,0.6,2.4,1,3.6c-1.4,0.2-2.8,0.6-4.2,1.2c-0.4-0.6-1-1.2-1.4-1.8
		C91.6,87.3,91,86.7,90.6,86.1z M85.8,94.5c-1.6,1.4-3,3.2-4.2,5l0,0c-1.4-1.4-3.4-2.2-5.4-2.8c1.4-2.2,3.2-4,5-5.6
		C82.8,92.3,84.2,93.5,85.8,94.5z M78.8,107.5c-0.2,2-0.2,4.2,0,6.2c-2,0-4.2,0.2-6.2,0.2c-1,0-1,1.4,0,1.4c2.2,0,4.4,0.2,6.6,0.2
		c0.4,1.4,0.8,2.8,1.4,4.2c-2,0.6-4,1.4-6.2,1.8c-0.8,0.2-0.4,1.4,0.4,1.4c2.2-0.4,4.4-0.8,6.4-1.8c0.6,1,1.2,2,2,2.8
		c-1.8,1.6-3.4,3.4-5,5.2c-5.6-5.8-7.8-14.6-5.8-23.2C74.6,106.5,76.6,107.3,78.8,107.5z M72.8,104.5c0-0.4,0.2-0.6,0.2-1
		c0.6-2,1.6-4,2.6-5.8c0.8,0.4,1.6,0.8,2.4,1.2c1,0.6,1.8,1.2,3,1.6l0,0c-0.8,1.6-1.6,3.4-2,5.4v0.2C77,105.5,75,104.9,72.8,104.5z
		 M79,129.7c1.8-1.6,3.4-3.2,5-5c1.4,1.4,3,2.8,4.8,3.8c-1.2,1.8-1.8,3.8-2.4,5.8C83.6,133.5,81,131.7,79,129.7z M93.6,132.7
		c0,1.2-0.2,2.2-0.4,3.4c-0.2,0-0.4,0-0.6,0c-1.8-0.2-3.4-0.6-4.8-1c0.6-1.8,1.6-3.8,2.2-5.6c1.2,0.6,2.4,1,3.6,1.4
		C93.6,131.3,93.6,131.9,93.6,132.7z M93.2,127.5c-10.2-3.2-14-15.4-9.8-24.6c3.2-6.8,9-10.2,15.8-12c0.2,0,0.4,0,0.4-0.2
		c0.8-0.2,1.6-0.4,2.2-0.6c0.2,0.2,0.4,0.6,0.8,0.6c11,2.6,19.4,12,15.6,23.8C115,124.9,103.4,130.7,93.2,127.5z M98.2,84.5
		c2.6-0.2,5.4-0.2,8.2,0c-0.4,1.4-0.8,2.8-0.6,4.2c-0.2,0-0.4,0-0.4,0l0,0c-1.8-0.4-3.6-0.4-5.6-0.4C99.4,86.9,98.6,85.7,98.2,84.5z
		 M117,123.3c1-1.2,2-2.6,2.8-4c1.6,0.6,3.2,1.2,5,1.6c-1.2,1.8-2.6,3.6-4.2,5.2C119.8,124.7,118.4,123.9,117,123.3z M119.4,127.1
		c-1.4,1.2-2.8,2.2-4.2,3.2c-0.4-0.4-1-0.8-1.4-1.4c-0.4-0.4-1-1-1.4-1.6c1.2-0.8,2.4-1.8,3.4-2.8c0.4,0.2,1,0.6,1.4,0.8
		C118,125.9,118.6,126.7,119.4,127.1z M120.8,117.5c0.6-1.4,1-2.8,1.4-4.2c0-0.4,0-0.6,0.2-1c0.6,0,1.2,0,1.8,0.2
		c1.4,0.2,2.8,0.6,4.2,0.6c-0.4,1.8-1.2,3.6-2,5.4c-0.2,0.2-0.2,0.4-0.4,0.8C124.4,118.3,122.6,117.9,120.8,117.5z M122.4,110.5
		c0.2-2.2,0-4.2-0.4-6.2c2.2-0.8,4.4-1.4,6.8-2.2c0.6,2.8,0.6,6,0,9c0,0,0,0-0.2,0C126.8,110.5,124.6,110.5,122.4,110.5z
		 M121.4,102.3c-0.6-1.8-1.4-3.4-2.4-4.8l0,0c1-0.6,2.2-1.2,3.4-1.8c1-0.4,2.2-0.8,3.2-1.4c1.2,2,2.2,4,2.8,6.2
		C125.8,100.3,123.6,101.1,121.4,102.3z M118.2,96.1C118,96.1,118,96.1,118.2,96.1c-0.8-0.8-1.4-1.8-2.2-2.4c0.2,0,0.4,0,0.6-0.2
		c1-0.8,1.8-1.6,2.8-2.4c0.6-0.6,1.4-1.2,2-1.8c1.2,1,2.2,2,3.2,3.2C122,93.1,119.8,94.7,118.2,96.1z M117.6,89.3
		c-1,0.8-1.8,1.8-2.8,2.6c-0.2,0.2-0.2,0.4-0.2,0.6c-0.6-0.4-1-0.8-1.6-1.2v-0.2c0-1.2,0.4-2.2,1-3.2c0.4-0.8,1-1.6,1.4-2.4
		c1.4,0.6,2.8,1.4,4,2.2C118.8,88.3,118.2,88.9,117.6,89.3z M111.2,90.5c-1.2-0.6-2.4-1-3.6-1.4c0.2-1.6,0.8-3.2,1.6-4.8
		c0,0,0,0,0-0.2c1.4,0.2,2.8,0.4,4.2,0.8C111.8,86.3,111.2,88.5,111.2,90.5z M94.8,136.1c0.4-1.6,0.8-3.4,0.6-5h0.2
		c2,0.4,4,0.4,5.8,0.2c0.2,1.4,0.2,2.8,0.6,4C99.6,135.9,97.2,136.1,94.8,136.1z M103.6,135.1c0-0.8-0.2-1.4-0.4-2.2
		c-0.2-0.6-0.2-1.2-0.4-1.8c1.2-0.2,2.2-0.4,3.4-0.8c0.2,0.6,0.4,1.2,0.6,2c0.2,0.6,0.4,1.2,0.4,1.8
		C106.2,134.5,105,134.7,103.6,135.1z M108.4,131.9c-0.2-0.6-0.4-1.4-0.8-2c1.2-0.4,2.4-1,3.4-1.6c0.6,1,1.4,2.2,2.4,3
		c-1.4,0.8-3,1.6-4.6,2.2C108.8,132.9,108.6,132.3,108.4,131.9z M152.4,135.7c-0.2-0.2-0.4-0.2-0.8-0.2c-5.4,0-10.8,0.2-16,0.4
		c0.2-0.2,0.2-0.4,0-0.8c-0.6-0.6-0.6-1.6-0.2-2.4c0.2-0.6-0.4-1.2-1-0.6c-1.2,1-1.2,2.6-0.2,3.8c-1.4,0-2.6,0-4,0.2
		c0.4,0,0.6-0.2,0.8-0.6c0.2-0.6-0.4-1.2-1-0.8c0,0,0,0,0-0.2s0-0.4,0-0.6c0-0.2,0.2-0.6,0.2-0.8c0-0.6-0.2-1-0.6-1.6
		c-0.6-0.6-1.6,0.2-1.2,0.8c0.4,0.6-0.2,1.4,0,2c0,0.4,0.2,0.8,0.6,1.2c0.2,0.2,0.6,0.4,1,0.4c-6.8,0.2-13.6,0.4-20.4,0.6
		c5.4-2,10.2-5.2,14-9.2c0,0-0.2,0.2-0.2,0.4c-0.4,1.8,0,3.4,1.2,4.8c0.6,0.6,1.4-0.2,1-0.8c-0.6-1-1-2.4-0.8-3.6
		c0.2-0.8-1-1.2-1.4-0.8c4.4-4.4,7.4-10,8.4-16.4s-0.2-12.8-3.4-17.8c2.4,0.8,5.6,0.4,7.6,0.4c5.8,0.2,12,0.4,17.8-0.8
		C154,106.9,153,121.3,152.4,135.7z M154.4,90.5c-4.4-0.4-9,0-13.6,0.2c-3.2,0-10.4,1.2-13.2-0.6c-0.4-0.2-0.6-0.2-0.8,0
		c-4.8-5.8-12.2-9.4-21-8c-0.2,0-0.4,0.2-0.4,0.2C95.2,79.9,85,83.5,78,90.7c0-0.4-0.4-0.8-0.8-0.8c-10.2-1-20.8-1-31-0.6
		c0-6.8-0.2-13.8-0.6-20.6c0,0,0,0,0-0.2c36.2,1.8,72.8,2.6,109,3.2c0,0.2,0,0.4,0,0.6C154.4,78.5,154.4,84.5,154.4,90.5z"/>
	<path fill="#1D1D1B" d="M108.2,101.3c-5.2-3.8-9.8,0.8-11,5.8c-3.4-2-9-4.4-8.6,1c0.4,5.2,6.8,8.6,11.4,8.6c0.2,0,0.4-0.2,0.6-0.2
		c0.4,0.4,1.2,0.6,1.8,0.2C106.4,113.9,114.4,105.7,108.2,101.3z"/>
	<path fill="#1D1D1B" d="M148.2,83.3c0.8-2.4,1.2-7-0.8-8.2c-1.6-0.8-4.6-0.2-6.4-0.2c-2.8,0-5.6,0-8.4,0.2c-0.8,0-1.4,0.6-1.6,1.6
		c0,2.4,0.2,5,0.6,7.4c0.2,0.8,1,1,1.6,0.8c0,0.2,0.2,0.2,0.4,0.4c4,1,10.4,2,14.2,0.2C149,84.9,149,83.7,148.2,83.3z M140.8,83.7
		c-2.2,0.2-4.4,0-6.6,0v-0.2c-0.4-1.8-0.4-3.4-0.2-5.2c3.4,0,6.6,0,10-0.4c0.2,0,1.8-0.4,1.8-0.4c0.2,0.2,0,2.2,0,2.6c0,1,0,2,0.4,3
		C144.4,83.1,142.6,83.5,140.8,83.7z"/>
	<path fill="#1D1D1B" d="M50.4,129.7c-0.2,0.6-0.4,1.4-0.4,2c-0.2,0.4,0.6,0.6,0.6,0.2c0.2-0.6,0.4-1.4,0.6-2
		C51.2,129.5,50.6,129.3,50.4,129.7z"/>
	<path fill="#1D1D1B" d="M57.2,127.5c-0.2-0.8-1.6-0.8-1.8,0c-0.4,1.4,0,3,0,4.2c0,1,1.6,1,1.6,0C57.4,130.5,57.6,128.9,57.2,127.5z
		"/>
	<path fill="#1D1D1B" d="M65.2,129.3c0-0.8-1.2-0.8-1.2,0c0,1.4,0,2.6,0,4c0,0.8,1.2,0.8,1.2,0C65.2,131.9,65.2,130.7,65.2,129.3z"
		/>
	<path fill="#1D1D1B" d="M69.8,130.1c-0.4,1-0.4,2.2-0.6,3.2s1.4,1.2,1.6,0.2c0.2-1.2,0.4-2.2,0.6-3.2
		C71.6,129.3,70.2,129.1,69.8,130.1z"/>
	<path fill="#1D1D1B" d="M77.4,132.9c0-1-1.4-1-1.4,0c0,0.8,0,1.6,0,2.6s1.6,1,1.6,0C77.4,134.5,77.4,133.7,77.4,132.9z"/>
	<path fill="#1D1D1B" d="M47.6,124.5c-0.4,1.2-0.6,2.4-0.8,3.8c-0.2,1,1.4,1.2,1.6,0.2c0.2-1.2,0.4-2.4,0.4-3.8
		C48.8,123.9,47.8,123.9,47.6,124.5z"/>
	<path fill="#1D1D1B" d="M61.6,123.5c-0.8-1.4-3,0-2.2,1.2c0.4,0.4,0.6,1,0.4,1.6c-0.2,1.4,1.8,2,2.2,0.6
		C62.4,125.9,62.2,124.7,61.6,123.5z"/>
	<path fill="#1D1D1B" d="M53.2,121.9c-0.4,1-0.8,2-1.2,3.2c-0.2,0.8,1,1.2,1.2,0.4c0.4-1,0.8-2,1-3
		C54.6,121.7,53.6,121.1,53.2,121.9z"/>
	<path fill="#1D1D1B" d="M66.8,121.7c-0.8,1.4-0.8,3,0,4.4c0.4,1,1.8,0.2,1.6-0.6c-0.2-1-0.2-2,0.2-3
		C68.8,121.5,67.4,120.9,66.8,121.7z"/>
	<path fill="#1D1D1B" d="M64.2,117.7c0-0.8-1.2-0.8-1.2,0c0,1.4,0,2.6-0.4,3.8c-0.2,0.8,1,1,1.2,0.4C64,120.5,64.2,119.1,64.2,117.7
		z"/>
	<path fill="#1D1D1B" d="M57.8,117.1c-0.2,1.6-0.6,3-1.2,4.4c-0.2,0.4,0.4,1,0.6,0.6c1.2-1.4,1.8-3,1.8-4.8
		C59,116.5,58,116.5,57.8,117.1z"/>
	<path fill="#1D1D1B" d="M52,114.9c-0.2-0.6-1.2-0.6-1.4,0c-0.2,1.4-0.2,2.6-1,3.8c-0.4,0.8,0.6,1.4,1.2,0.6
		C51.8,118.1,52.4,116.5,52,114.9z"/>
	<path fill="#1D1D1B" d="M56,113.3c0.2-0.6-0.8-1-1-0.4c-0.8,1.4-0.8,3-0.2,4.6c0.2,0.6,1.2,0.4,1.2-0.4
		C55.6,115.7,55.8,114.5,56,113.3z"/>
	<path fill="#1D1D1B" d="M50.4,109.1c0-0.8-1-0.8-1.2,0c-0.2,1.6-0.4,3-1,4.4c-0.2,0.6,0.6,1,1,0.4
		C50.2,112.3,50.6,110.7,50.4,109.1z"/>
	<path fill="#1D1D1B" d="M60.6,109.9c0-0.6-1.2-0.6-1.2,0c-0.2,1.4,0,2.6,0.2,3.8c0,0.4,0.8,0.4,0.8,0
		C60.6,112.3,60.8,111.1,60.6,109.9z"/>
	<path fill="#1D1D1B" d="M68.8,108.9c0-0.6-1.2-0.6-1.2,0c-0.2,1.4-0.2,2.8,0,4.2c0,1,1.4,1,1.4,0C69,111.5,69,110.3,68.8,108.9z"/>
	<path fill="#1D1D1B" d="M65.6,106.9c-0.2-0.8-1.2-0.6-1.2,0.2c0,1.4-0.2,3-0.6,4.4c-0.2,1,1.2,1.4,1.6,0.4
		C66,110.1,66,108.5,65.6,106.9z"/>
	<path fill="#1D1D1B" d="M56.4,105.9c-0.4,1.2-0.4,2.4-0.6,3.6c0,0.6,1,0.8,1,0.2c0.2-1.2,0.4-2.4,0.6-3.6
		C57.4,105.3,56.4,105.3,56.4,105.9z"/>
	<path fill="#1D1D1B" d="M52.8,102.9c-0.2-0.6-1-0.4-1,0.2c0,1.6,0,3-0.6,4.4c-0.2,0.6,0.8,1,1,0.2C53,106.1,53.2,104.5,52.8,102.9z
		"/>
	<path fill="#1D1D1B" d="M48.8,98.3c-0.2,1.8-0.4,3.4-0.6,5.2c0,0.6,1,0.8,1.2,0.2c0.2-1.8,0.6-3.4,0.6-5.2
		C50,97.7,48.8,97.5,48.8,98.3z"/>
	<path fill="#1D1D1B" d="M56.6,99.1c-0.2-0.8-1.4-0.8-1.6,0c-0.2,1.2-0.2,2.4-0.2,3.8c0,1.2,1.6,1.2,1.8,0
		C56.8,101.7,56.8,100.5,56.6,99.1z"/>
	<path fill="#1D1D1B" d="M54.6,97.1c-0.4-1.2-0.4-2.6-0.6-3.8c0-0.8-1.2-1-1.4-0.2c-0.4,1.6-0.2,3,0.4,4.4
		C53.4,98.5,55,98.1,54.6,97.1z"/>
	<path fill="#1D1D1B" d="M57.4,92.3c-0.8,0.8-1,1.6-0.6,2.8c0.2,0.6,1.2,0.6,1.2-0.2c0-0.6,0.2-1.2,0.4-1.6
		C59,92.5,58,91.7,57.4,92.3z"/>
	<path fill="#1D1D1B" d="M61.2,96.7c0-0.6-1.2-0.6-1.4,0c-0.2,1.6,0,3.2,0,4.8c0,0.8,1.2,0.8,1.2,0C61.2,99.9,61.4,98.3,61.2,96.7z"
		/>
	<path fill="#1D1D1B" d="M61.6,103.3c-0.2,0.8-0.4,1.6-0.4,2.6c-0.2,1,1.4,1.4,1.6,0.4c0.2-0.8,0.4-1.6,0.6-2.6
		C63.6,102.5,61.8,102.1,61.6,103.3z"/>
	<path fill="#1D1D1B" d="M66.4,98.7c-0.4,1.4-0.8,2.6-1,4c-0.2,1,1.2,1.4,1.4,0.4c0.4-1.4,0.8-2.6,1-4C68,98.1,66.8,97.7,66.4,98.7z
		"/>
	<path fill="#1D1D1B" d="M62.8,92.5c-0.4,1-0.8,2-1,3s1.2,1.4,1.6,0.4c0.4-1,0.6-2,0.8-3.2C64.2,92.1,63,91.7,62.8,92.5z"/>
	<path fill="#1D1D1B" d="M135.6,95.1c-0.2-0.6-1.2-0.6-1.4,0c-0.4,1-0.2,2.2,0,3.2c0,1,1.4,1,1.4,0C135.8,97.3,136,96.1,135.6,95.1z
		"/>
	<path fill="#1D1D1B" d="M142,94.9c-0.4-0.4-1.2-0.2-1.2,0.6c0.2,1.6,0.6,2.8,0,4.4c-0.2,0.8,1,1.4,1.4,0.6
		C143.2,98.7,143.6,96.3,142,94.9z"/>
	<path fill="#1D1D1B" d="M149,96.1c-0.2-0.8-1.6-0.8-1.8,0c-0.4,1.4,0,2.6,0.2,4c0.2,0.6,1.2,0.6,1.4,0
		C149.2,98.7,149.4,97.5,149,96.1z"/>
	<path fill="#1D1D1B" d="M153.4,95.5c-0.6-0.8-1.8-0.4-1.6,0.6c0.2,0.8,0.2,1.8,0,2.6c-0.4,1,1.2,1.6,1.8,0.8
		C154.2,98.1,154.4,96.7,153.4,95.5z"/>
	<path fill="#1D1D1B" d="M152,103.7c-0.4-1.4-0.6-2.8-0.6-4.4c0-0.8-1.2-1-1.4-0.2c-0.4,1.8-0.4,3.2,0.2,5
		C150.6,105.3,152.4,104.9,152,103.7z"/>
	<path fill="#1D1D1B" d="M146.4,98.1c-0.2-0.8-1.6-0.8-1.8,0c-0.2,1.6,0,3.2,0,4.8c0,1.2,1.8,1.2,1.8,0
		C146.6,101.3,146.8,99.7,146.4,98.1z"/>
	<path fill="#1D1D1B" d="M139.6,97.1c-0.2-0.8-1.4-0.6-1.4,0.2c0,1.8,0.4,3.4,0.6,5.2c0,0.6,1.2,0.6,1.2-0.2
		C140,100.7,139.8,98.9,139.6,97.1z"/>
	<path fill="#1D1D1B" d="M135.8,102.9c0,1.2,0,2.4,0.2,3.6c0,0.8,1.2,0.8,1.2,0c0-1.2,0.2-2.4,0.2-3.6
		C137.2,101.9,135.8,101.9,135.8,102.9z"/>
	<path fill="#1D1D1B" d="M144.8,104.9c-0.2-1-1.4-1-1.4,0c-0.2,1.6-0.2,3.4-0.2,5c0,1.2,1.8,1.2,1.8,0
		C145,108.3,145,106.7,144.8,104.9z"/>
	<path fill="#1D1D1B" d="M150.4,106.5c-0.2-0.6-1.4-0.4-1.4,0.2c-0.2,1.4,0.2,2.6,0.4,4c0.2,1,1.8,0.8,1.8-0.2
		C151,109.1,151,107.7,150.4,106.5z"/>
	<path fill="#1D1D1B" d="M148,108.7c-0.2-0.8-1.6-0.8-1.6,0c-0.2,1.4-0.2,2.8-0.2,4.2c0,1.2,1.8,1.2,1.8,0
		C148.2,111.7,148.2,110.3,148,108.7z"/>
	<path fill="#1D1D1B" d="M140.2,107.9c0-0.8-1.2-0.8-1.2,0c0,1.2,0,2.4,0,3.6c0,0.8,1.2,0.8,1.2,0
		C140.2,110.3,140.2,109.1,140.2,107.9z"/>
	<path fill="#1D1D1B" d="M136.8,114.3c-0.4-1-0.4-2.2-0.4-3.4c0-1-1.4-1.2-1.6-0.2c-0.4,1.6-0.2,2.8,0.6,4.2
		C135.6,115.9,137,115.3,136.8,114.3z"/>
	<path fill="#1D1D1B" d="M141,113.9c-0.2,1-0.4,2-0.4,3c-0.2,0.8,1.2,1.2,1.2,0.4c0.2-1,0.4-2.2,0.6-3.2
		C142.4,113.3,141.2,113.1,141,113.9z"/>
	<path fill="#1D1D1B" d="M151,114.3c-0.4,1.4-0.4,2.6-0.4,3.8c0,0.8,1.2,1,1.6,0.2c0.4-1.2,0.6-2.4,0.6-3.8
		C152.8,113.7,151.2,113.5,151,114.3z"/>
	<path fill="#1D1D1B" d="M146.6,115.9c-0.4,1.2-0.4,2.4-0.6,3.8c0,0.6,1,0.8,1.2,0.2c0.2-1.2,0.6-2.4,0.6-3.8
		C147.8,115.5,146.8,115.3,146.6,115.9z"/>
	<path fill="#1D1D1B" d="M144.4,117.9c-0.2-0.8-1.2-0.8-1.4,0c-0.4,1.2-0.2,2.6-0.2,3.8c0,1.2,1.8,1.2,1.8,0
		C144.4,120.5,144.6,119.1,144.4,117.9z"/>
	<path fill="#1D1D1B" d="M137.6,118.9c-0.2-0.6-1.2-0.4-1.2,0.2c0,1.2-0.2,2.6-0.6,3.8c-0.4,0.8,1,1.2,1.4,0.4
		C137.8,121.9,138,120.5,137.6,118.9z"/>
	<path fill="#1D1D1B" d="M132.4,123.3c-0.6-0.8-0.8-1.8-0.4-2.6c0.4-0.6-0.6-1.4-1-0.8c-1.2,1.4-1,3.4,0.4,4.6
		C132,124.9,133,123.9,132.4,123.3z"/>
	<path fill="#1D1D1B" d="M141.2,122.3c0.2-0.8-0.8-1.2-1.2-0.4c-0.8,1.2-0.8,2.6-0.6,4c0.2,0.8,1.4,0.6,1.4-0.2
		C140.6,124.5,141,123.5,141.2,122.3z"/>
	<path fill="#1D1D1B" d="M134.6,125.1c-0.4,1.6-0.6,3.2-0.8,4.8c0,0.6,1,0.8,1.2,0.2c0.4-1.6,0.8-3.2,1-4.8
		C136,124.3,134.8,124.3,134.6,125.1z"/>
	<path fill="#1D1D1B" d="M131.4,125.1c-0.2-0.8-1.4-0.6-1.4,0.2c0,1.6,0.2,3,0.4,4.6c0.2,1,1.8,1,1.6,0
		C132,128.1,131.8,126.7,131.4,125.1z"/>
	<path fill="#1D1D1B" d="M120,132.3c0-1-1.4-1-1.4,0c0,0.8,0,1.6,0,2.6c0,0.8,1.4,0.8,1.4,0C120,133.9,120,133.1,120,132.3z"/>
	<path fill="#1D1D1B" d="M141.8,128.3c-0.2-0.8-1.2-0.8-1.4,0c-0.2,1.6,0,3,0,4.6c0,1,1.4,1,1.4,0
		C141.8,131.3,142,129.7,141.8,128.3z"/>
	<path fill="#1D1D1B" d="M145.6,128.7c-0.2-0.6-1.2-0.6-1.2,0.2c0,1.4,0,3-0.4,4.4c-0.2,0.8,1,1.2,1.2,0.4
		C145.8,131.9,146,130.3,145.6,128.7z"/>
	<path fill="#1D1D1B" d="M150,121.5c-0.4-1-1.8-0.8-1.8,0.2c-0.2,1,0,1.8-0.4,2.8s1.2,1.6,1.6,0.6C150,124.1,150.4,122.7,150,121.5z
		"/>
	<path fill="#1D1D1B" d="M152,127.5c-0.2-0.8-1.6-0.8-1.6,0c-0.2,1-0.2,2.2,0,3.2s1.6,1,1.6,0C152.2,129.7,152.2,128.5,152,127.5z"
		/>
</g>
</svg>
