<?xml version="1.0" encoding="utf-8"?>
<!-- Generator: Adobe Illustrator 18.1.1, SVG Export Plug-In . SVG Version: 6.00 Build 0)  -->
<svg version="1.1" id="Capa_1" xmlns="http://www.w3.org/2000/svg" xmlns:xlink="http://www.w3.org/1999/xlink" x="0px" y="0px"
	 viewBox="0 0 200 200" enable-background="new 0 0 200 200" xml:space="preserve">
<g>
	<path fill="#1D1D1B" d="M112,70.2c-0.2-4.4,0.4-9.2-0.4-13.4c-0.2-1.4-0.6-2.2-1.8-2.8c-2.6-1.2-7.4-0.4-10.2-0.4c-5,0-10,0-15,0.4
		c-1.8,0.2-1.8,2.6,0,2.8c4.2,0.4,8.6,0.2,13,0.2c1.6,0,9.8-1.2,10.8,0c1.6,1.6,0.6,8.8,0.8,11.2c0,1.8,0.2,3.6,0.2,5.4
		c0,1,0,2.2,0.2,3.2c0.6,2,0.2,2.8-1.2,2.4c-2.6,1.2-8.8,0.4-11.6,0.4c-2.8,0.2-9.4,1.6-11.6-0.4c-2-2-0.8-8.4-0.8-11.4
		c0-3.6,0.2-7-0.4-10.6c0-0.4-0.8-0.4-1,0c-1,4-1,8.4-1.2,12.6c-0.2,3.8-1,8.2-0.2,11.8c0.2,0.4,0.6,0.8,1,1c3.6,1,8.2,0.2,12,0
		c4.6-0.2,10.4,0.6,14.8-0.4C114.2,80.8,112,74.4,112,70.2z"/>
	<path fill="#1D1D1B" d="M151.8,113.4c0-0.6,0-1,0-1.6c0-0.2,0-0.4,0-0.6c0-6.2,0.2-12.6-4-17.6c-0.6-0.6-1.4-0.4-1.8,0
		c0-0.8-0.4-1.6-1.2-1.6c-14.4,0-28.8,0.2-43.2,0.6c0-0.6-0.4-1.4-0.4-2c-0.2-0.8-0.2-1.6-0.2-2.2c3.4,0,7-0.4,10.4-0.8
		c4-0.6,5.8-1.2,6.6-5.4c1-4.4,0.4-9.2,0.4-13.6c0.2-4.4,1.4-10.8,0.2-14.8c-1.4-4.8-5.8-4.6-10.2-5.4c-8.2-1.2-18-2.4-26.2-0.8
		c-3,0.6-5.2,1.4-5.4,4.6c-0.2,1.6,2.4,1.6,2.6,0c0.2-3.4,14.6-2.6,17.2-2.6c4.6,0.2,11.2,0,15.4,2c5.2,2.6,3.8,8.6,3.8,13.8
		c0,3.2,1.2,13-0.4,15.8c-4.6,7.4-22,4.8-29.2,4c-6-0.6-7.6-2.4-8.4-8.2c-0.2-2.4,0.2-5.2,0.4-7.6c0.2-5,0.4-10.2,0.2-15.2
		c0-0.6-0.8-0.6-1-0.2c-1.4,8.6-2.8,18.8-2.2,27.6c0.4,5,3.2,5.2,7.8,5.8c3.8,0.4,7.4,0.8,11.2,1c-0.2,1-0.2,1.8-0.4,2.8
		c0,0.6-0.2,1.2,0,1.6c-6.4,0.2-12.8,0.6-19.2,1c-1.8-0.2-3.4-0.4-5.2-0.4c0.2-2,0.6-4.8-1.6-5.6c-1.4-0.4-3.4-0.2-4.8-0.2
		c-2,0-4,0.2-6,0.2c-0.8,0-1.2,0.6-1,1.4c0.2,1.6,0.6,3.2,0.8,4.8c-1.4,0.2-3,0.6-4.4,0.8c-0.4,0-0.6,0.2-0.6,0.4
		C51.4,95,51,95,51,95.4c-2.2,10.4-2.2,21.2-2.4,31.8c-0.2,5.4-3,18,1.2,22.6s15.6,2.2,20.8,2.2c12.4,0,25,0.2,37.4,0.4
		c11,0,23.2,1.6,34.2,0.2c4.6-0.6,7.8-2.2,9-6.8C153.8,136.4,152,123.4,151.8,113.4z M149,124.8c-6.6,0.4-13,1.6-19.8,1.6
		c0.2-1.4,0.2-2.8,0.2-4.4c6.2,0.8,13.2,1.4,19-0.4c0.2,0,0.2-0.2,0.4-0.2C148.8,122.4,148.8,123.6,149,124.8z M148.8,119.8
		c-0.2-0.2-0.4-0.2-0.6-0.2c-6.4,0.2-12.4,1.2-18.8,0.8c0-1-0.2-1.8-0.4-2.6c6.4,0.6,13.4,1,19.8-0.2
		C148.8,118.4,148.8,119,148.8,119.8z M128,114.4c5.8,1.8,14.6,0.8,20.8-1c0,0.6,0,1.2,0,2c-6.8,0.2-13.4,1-20.2,1
		C128.4,115.6,128.2,115,128,114.4z M144.6,95c0.4,0,0.8-0.2,1-0.4c0,0.2,0,0.4,0.2,0.6c1,1.6,1.8,3.2,2.4,5
		c-4.4,0-9.2,0.6-13.4,1.8c-0.6-2-0.8-4.2-0.8-6.2c0-0.2,0-0.2-0.2-0.4C137.4,95.2,141,95,144.6,95z M99.4,88.6
		C99.2,89.4,99,90.2,99,91c0,0.6,0,1.4,0.2,2c-1,0-2.2,0-3.2,0.2c0-0.6,0-1,0-1.6c0-1-0.2-1.8-0.4-2.8C96.8,88.6,98,88.6,99.4,88.6z
		 M65,90.2c0.6,0,2.2-0.2,2.8,0.2c0.2,0.2,0,2.2,0,3.2c-3,0-6,0.2-9,0.6c-0.2-1.2-0.2-2.6-0.4-3.8C60.6,90.2,62.8,90.2,65,90.2z
		 M53.2,97.6c4.8-0.8,9.8-1.4,14.6-1.8c0,0,0,0,0.2,0c21.4,0.8,43,0.4,64.6-0.4c0,0,0,0,0,0.2c-0.8,2.8-0.6,5.6,0,8.4
		c0.2,0.8,1,1,1.6,0.8c4.8-0.6,9.6-1.2,14.6-1.4c0.2,2.4,0.4,4.8,0.2,7.2c-3.4,0.4-7,1-10.4,1.4c-3.6,0.4-7.4,0.2-10.8,1.4
		c-0.2,0-0.2,0.2-0.2,0.2c-4-9-13.6-15.2-23.2-12.8c-9.6-1.6-19,4.2-24.2,12.4c-9-1.8-18.6-1.6-27.8-1.6c0.2-4.8,0.2-9.6,0-14.2
		C52.6,97.6,53,97.6,53.2,97.6z M104,139.6c-0.2,1.6-0.4,3.2-0.4,4.8c0,0.6,0,1.2,0,1.8c-2.2,0.2-4.4,0.2-6.6,0
		c0.4-2.6,1-5.4,0.8-7.8c3.4,1.2,7.2,1.4,10.8,0.4c0.2,0.8,0.4,1.6,0.6,2.6c0.4,1,0.8,2.2,1.8,2.6c0.4,0.2,0.8-0.2,0.8-0.6
		c0-1-0.6-1.8-1-2.6s-0.6-1.6-0.8-2.6c0.2,0,0.4-0.2,0.4-0.2c1.2-0.6,2.4-1.2,3.4-2l0,0c0.4,1.6,1.4,3.6,2.8,4.6
		c-3.4,2.6-7.4,4.6-11.6,5.4c-0.2-0.6-0.2-1.2-0.4-1.8c-0.2-1.4-0.2-2.8,0-4.4C104.8,139.4,104.2,139.2,104,139.6z M98.4,106.6
		c-1,0.2-2,0.6-2.8,1c-0.6-1-1.4-1.8-2.2-2.6c1.2-0.6,2.4-1,3.6-1.6v0.2C97.4,104.6,97.8,105.6,98.4,106.6z M98,103
		c1-0.2,2-0.6,3-0.6c0,0.2,0.2,0.6,0.6,0.4c0.8,0,1.6-0.2,2.6-0.2c0.2,0.8,0.4,1.6,0.6,2.4c0,0.2,0.2,0.4,0.2,0.4
		c-1.8,0-3.6,0.2-5.4,0.6C99.2,105.2,98.6,104.2,98,103z M94.2,108.2c-0.6,0.2-1,0.4-1.6,0.8c-0.4,0.2-0.4,0.6-0.2,1
		c-0.8,0.6-1.4,1.2-2,2c-1-0.8-2.2-1.6-3-2.8l-0.2-0.2c1.4-1.4,3-2.4,4.8-3.4C92.8,106.4,93.4,107.4,94.2,108.2z M89.4,112.8
		c-1,1.2-1.8,2.6-2.4,4c-1.6-0.8-3.4-1.4-5.2-1.8c1.2-1.8,2.6-3.6,4.2-5.2C87,111.2,88,112.4,89.4,112.8z M86.6,118.6
		c-0.6,2-0.8,4-0.4,6.2c0,0,0,0-0.2-0.2c-2.2-0.6-4.8-0.2-7.2-0.2c0.4-2.8,1.2-5.6,2.4-8C83.2,117,84.8,117.8,86.6,118.6z M86,125.6
		c0.2,0,0.2-0.2,0.2-0.2c0.2,1.2,0.6,2.4,1,3.4c0,0.2,0.2,0.4,0.4,0.6c-2.4,1.8-4.6,4-6.8,6.2c-1.4-2.8-2.2-6.2-2-9.8
		C81,125.8,83.8,126.2,86,125.6z M81.4,136.4c2.4-1.8,4.8-3.6,6.8-5.6c1,1.6,2,2.8,3.4,4c-0.2,0-0.4,0-0.4,0.2
		c-1.8,2.2-3.4,4.8-4.8,7.4c-2.2-1.6-4-3.6-5.4-5.8C81.2,136.4,81.4,136.4,81.4,136.4z M92.2,135.6v-0.2c1.2,1,2.6,1.8,4.2,2.6
		c-0.8,2.4-0.8,5.2-0.8,8c-1.4-0.2-2.8-0.6-4-1c-0.2-0.2-0.4-0.2-0.6-0.4h-0.2c-1-0.4-2-1-3-1.6C89.4,140.8,91.2,138.2,92.2,135.6z
		 M89.8,128c-3.2-7.4,0.6-15.4,7.4-19.2c6.2-1.6,13-1.2,17.8,3.4c7.4,7,2.4,19.2-5.6,23C102.2,138.6,93,135.4,89.8,128z M107,102.8
		c1.6,0.2,3.2,0.4,4.8,0.8c-0.8,0.8-1.2,1.6-1.6,2.4c-1-0.2-2.2-0.4-3.2-0.6c0.4-0.2,0.6-0.6,0.4-1.2C107.2,104,107,103.4,107,102.8
		z M119.8,113L119.8,113c-0.6-1-1.4-2-2.2-2.8c1-0.4,1.8-1.2,2.4-2c1.2,1.2,2.4,2.4,3.2,4C122.2,112.6,121.2,113.2,119.8,113z
		 M124.2,113.8c0.6,1.4,1.2,2.8,1.6,4.4c-1.2-0.2-2.6-0.2-3.8,0c-0.2,0-0.2,0-0.4,0c-0.2-1-0.4-2.2-0.8-3.2
		C121.8,114.8,123.2,114.6,124.2,113.8z M115.8,108.8c-1.2-0.8-2.4-1.4-3.8-2c0.6-0.8,1.2-1.6,1.8-2.4c1.8,0.6,3.4,1.6,4.8,2.6
		C117.8,107.8,116.8,108.4,115.8,108.8z M116.6,138c-0.6-0.8-1-1.6-1.2-2.4c0-0.2-0.2-0.4-0.4-0.4c0.8-0.8,1.6-1.6,2.4-2.4
		c0.6,0.4,1.4,0.8,2,1.2c0.8,0.4,1.6,1,2.6,1.4c-1.2,1.6-2.4,3-3.8,4.2C117.6,139,117,138.6,116.6,138z M120.4,132
		c-0.6-0.4-1.2-0.8-2-1c0.8-1.2,1.6-2.6,2-4h0.2c0.8,0,1.6,0,2.4,0.2s1.4,0.6,2.2,0.6l0,0c-0.6,2-1.4,3.8-2.4,5.6
		C122.4,132.8,121.4,132.6,120.4,132z M121.2,125.2c0.4-1.6,0.6-3.4,0.6-5.2c0,0,0,0,0.2,0c1.4,0,2.8,0,4.2-0.2
		c0.2,2.2,0.2,4.4-0.2,6.4C124.6,125.4,122.6,125.2,121.2,125.2z M52.4,113c8.8,1,18.2,2,27,1.2c-0.8,1.4-1.4,2.6-1.8,4
		c-8.4-0.4-16.8-0.8-25.4-1.2C52.2,115.8,52.4,114.4,52.4,113z M51.8,123c8-0.6,16-0.2,23.8-1c0.6,0,0.8-1,0.2-1
		c-7.8-1.2-16.2,0.2-24,1.4c0-0.8,0.2-1.6,0.2-2.2s0-1.2,0-1.8c8.2,0.6,16.6,1.2,24.8,1.6c-0.4,1.4-0.8,3-1,4.4c0,0.6,0,1.2,0,1.8
		l-0.2-0.2c-7.8-0.8-16.2-0.4-24.2,0C51.8,125,51.8,124,51.8,123z M50.8,135.2c8.4,0.2,17,1.2,25.4,0.6c0.6,0,0.8-1,0.2-1.2
		c-8-1.6-17.2-1-25.4-0.2c0.2-2.4,0.4-4.8,0.6-7.2c8,0.4,16.4,0.8,24.2,0c0,0,0.2,0,0.2-0.2c0,1,0,1.8,0.2,2.8l-0.2-0.2
		c-7.6-1.8-16.2-0.8-24-0.4c-0.8,0-0.8,1.4,0,1.4c7.8-0.4,16,0.8,23.8,0.2c0.2,0,0.4-0.2,0.4-0.4c0.6,3.6,2,7,4,9.6
		c-9.6-0.8-19.4-0.4-29.2-0.4C50.8,138.2,50.8,136.6,50.8,135.2z M139.6,149.6c-1.4,0-2.6,0-4,0c-3.8,0.6-8,0-11.8,0
		c-8.6,0-17,0-25.6,0c-7.8,0-15.8,0.2-23.6,0.2c-8,0-21.2,2.8-23.4-7.2c-0.2-0.6-0.2-1.2-0.2-2c10,0.4,20.2,1.2,30.2,0.8
		c0.8,1,1.8,1.8,2.8,2.6c-10-0.4-20.2,0-30.2,0.2c-0.4,0-0.4,0.6,0,0.8c11,0.8,22.4,1.6,33.6,1.2c4.4,2.4,10,3.6,15.6,3
		c3-0.2,6-1,8.8-2.2c11.8,0.2,23.8-0.2,35.4-2C145.8,147.4,143.4,148.8,139.6,149.6z M148.2,142.8L148.2,142.8
		c-10.8,0.4-21.8,1.4-32.6,2.6c1.6-1,3.2-2,4.6-3.4c9.4-0.2,18.8-0.2,28.2-0.8C148.4,141.8,148.2,142.4,148.2,142.8z M148.4,138.6
		c-8.8,0.2-17.6,1-26.4,1.8c1.8-1.8,3.2-3.8,4.4-6c0.2,0.2,0.4,0.2,0.6,0.2c7.2,0,15,0.4,22-0.8C148.8,135.4,148.8,137,148.4,138.6z
		 M127,133.2c0.8-1.8,1.4-3.6,1.8-5.6c6.4,0.8,13.8,1.2,20.2-0.6c0,1.6,0,3.2,0,4.6C141.8,131.2,134.2,132.4,127,133.2z"/>
	<path fill="#1D1D1B" d="M99.4,60c-1.4,1.2-2.4,2.6-3.2,4.4c-1.4-1.2-2.8-2.2-4.8-2.4c-2.6-0.4-4.6,2-3.4,4.4c1.4,2.8,4,5,7,6
		c1.6,1.4,4.2,1,5-1.4l0,0c2.2-2.2,3.6-5,4.4-8C105,59.8,101.6,58,99.4,60z"/>
</g>
</svg>
