<?xml version="1.0" encoding="utf-8"?>
<!-- Generator: Adobe Illustrator 18.1.1, SVG Export Plug-In . SVG Version: 6.00 Build 0)  -->
<svg version="1.1" id="Capa_1" xmlns="http://www.w3.org/2000/svg" xmlns:xlink="http://www.w3.org/1999/xlink" x="0px" y="0px"
	 viewBox="0 0 200 200" enable-background="new 0 0 200 200" xml:space="preserve">
<g>
	<path fill="#1D1D1B" d="M96.7,97.4C96.5,97.4,96.5,97.4,96.7,97.4c-8.6-1.8-16.2,7.2-17.2,15.2c-1.2,10,7.6,18.2,17.2,17.6
		c9.6-0.4,17.8-8.4,18-18.2C114.7,102.8,105.9,94.8,96.7,97.4z M97.3,127.6c-8.6,1-16.8-5.8-15.6-14.8c1-7.4,6.8-12.6,14-14
		c0,0.6,0.4,1.2,1.2,1c7.6-1,14.8,4.2,14.6,12.4C111.5,119.8,104.9,126.6,97.3,127.6z"/>
	<path fill="#1D1D1B" d="M155.5,109c-0.8-9.6-1.4-19.4-2.6-29c0.2-0.2,0.4-0.4,0.4-0.8c-0.6-3.8-3.4-5.6-6.6-6.6
		c0.2-0.4,0.2-1,0-1.6c-2-3,0.2-7-4.4-8.2c-4.4-1-10.6,0.4-15,1.6c-0.6,0.2-1,0.6-1,1.2c0,1.6,0.2,3,0.2,4.6
		c-10.6-0.8-21.4-0.8-32.2-0.6c-12.2,0.4-26-0.6-38,2.2c-6,1.4-10.2,5.2-8.2,11.6c0.2,0.4,0.8,0.4,0.8,0c0-13,44.2-10.4,53-10.4
		c7.6,0,15.2,0,23,0.6c6,0.4,20.4-0.4,25.8,4.2c0.2,4.4,0.6,9,1,13.6c-14.8-1.2-29.8-1.6-45-1.4c-1.4-0.2-2.8-0.2-4.2,0
		c-18.4,0.4-37,1.8-55,4.2c0.6-3.6,1-6.8,1.2-9.4c0-1-1.4-1.2-1.6-0.2c-2,9.2-3,19-3.4,28.4c-0.2,4.8-2,16.6,2,20.8
		c3.2,3.4,11.6,2.2,15.6,2.6c10.4,0.8,21.4,1.6,32,0.6c3.2,0.4,6.6,0.6,9.8,0.2c2.6-0.2,4.8-0.8,7-1.6c10.8,1,21.4,1.2,32.2,0.8
		c5.6-0.2,10.8,0,13.4-5.6C158.3,124.6,155.9,115.6,155.5,109z M128.1,70.4c0-1.2,0.2-2.4,0.2-3.6c3.6-0.6,8-1.4,11.6-0.8
		c2.6,0.6,2,2,2.4,4c0.2,0.8,0.2,1.4,0.6,2c-1.8-0.2-3.6-0.4-5-0.6C134.7,71,131.5,70.6,128.1,70.4z M76.1,134
		c-3.8-0.2-7.4-0.4-11.2-0.6c-2.6-0.2-9,0.4-11.2-0.6c-11-5-8.6-23.2-6.4-37c12-0.2,24-0.8,36-1.4c-7.8,4-13.2,11.2-12.6,21.2
		c0.4,9.4,5.8,15.4,13,18.8C80.9,134.2,78.5,134,76.1,134z M96.9,134.6c-13.4-0.2-26.8-9-23.8-24.2c2-10.2,10-14.2,18.6-16.4
		c5-0.2,10-0.4,14.8-0.6c9.8,2.2,16.4,10.8,15.6,22.6C121.1,129.6,109.1,134.6,96.9,134.6z M152.9,122.2
		c-1.4,12.8-13.2,11-22.6,11.2c-5.6,0.2-11,0.4-16.4,0.6c8.2-4.4,12.8-12.8,11.2-24c-1-6.8-5-13.2-10.4-16.8c12.4-0.2,24.6,0,37,1.2
		C152.7,103.8,153.7,113.2,152.9,122.2z"/>
	<path fill="#1D1D1B" d="M100.5,105.2c-1.6,1.4-3,3-4.2,4.6c-1.6-1.6-3.4-2.6-5.6-3.2c-2-0.4-4.2,1.4-3.4,3.4c1.2,3.2,3.6,6.8,7,8.2
		c1,1,2.6,1,3.8,0.2l0,0c5-0.2,7.2-7,7.4-11C105.5,104.6,102.3,103.8,100.5,105.2z"/>
	<path fill="#1D1D1B" d="M67.5,80.6c0-0.8-0.6-1.2-1.4-1.2c-4,0.6-8.2,1.2-12.2,1.8l0,0c0-0.8-1.2-1-1.4-0.2c0,0.2,0,0.4-0.2,0.6
		c-0.4,0.4-0.6,1-0.4,1.4c-0.4,2-1,3.8-1.4,5.8c-0.2,0.8,0.4,1.4,1,1.4c5,0.4,10.2,0.2,15.2-0.4c0.6,0,1.2-0.4,1.2-1.2
		C67.9,86,67.7,83.2,67.5,80.6z M52.9,88.2c0.2-1.4,0.4-2.8,0.6-4.2c4-0.6,7.8-1.4,11.8-2.2c0,2,0.2,4,0.4,5.8
		C61.3,88.2,57.1,88.4,52.9,88.2z"/>
</g>
</svg>
