<?xml version="1.0" encoding="utf-8"?>
<!-- Generator: Adobe Illustrator 18.1.1, SVG Export Plug-In . SVG Version: 6.00 Build 0)  -->
<svg version="1.1" id="Capa_1" xmlns="http://www.w3.org/2000/svg" xmlns:xlink="http://www.w3.org/1999/xlink" x="0px" y="0px"
	 viewBox="0 0 200 200" enable-background="new 0 0 200 200" xml:space="preserve">
<g>
	<path fill="#1D1D1B" d="M159.4,80.1c0-0.2-0.2-0.6-0.6-0.8c-15-7.8-31.8-12.6-47.2-18.8c-1-0.4-2,0.4-2.2,1.2
		c-2,7.2-3.8,14.6-5.6,22c-3.2-12.8-6.6-25.8-9.8-38.6c-0.2-0.8-0.8-1-1.4-0.8c-0.2-0.4-0.8-0.8-1.4-0.6c-17.4,2.8-35,8.2-51.6,14.2
		c-0.2,0-0.2,0.2-0.4,0.2c-0.4-0.2-1,0-1,0.6c0.2,24.2,5,50,9.6,73.8c0.2,0.6,0.4,0.8,0.8,1c-0.2,0.6,0.2,1.2,1,1
		c13.6-2.4,26.6-6.8,39.8-10.2c-2.2,4.2-2.8,9.8-3.2,14.4c-0.2,1.2,1.8,1.4,2,0.2c0.6-2.6,1.2-5.2,1.8-7.8c0.6-2.4,1.6-4.6,2-7
		c0-0.2,0-0.2,0-0.4c2-0.4,3.8-1,5.8-1.4c-1,1.4-1.6,3-2.2,5c-0.2,0.8,0.4,1.6,1,1.8c13.2,5,28.2,7.8,42.4,6.2c0.6,0.2,1.6,0,2-0.8
		c6-15.2,11.6-31.2,13.6-47.6c0-0.6-0.4-1-0.8-1c0-0.2-0.2-0.2-0.4-0.2c-11.2-5.8-25.2-8.4-37.4-11.8c-0.4-0.2-1,0-1.4,0.4
		c-1.4,1.6-1.6,1.8-2,2.6l0,0c-3.2,4.4-5.2,11-6.6,16.6c-0.4-1.8-0.8-3.6-1.2-5.4c2.8-7.8,5-15.6,7.4-23.4
		c14.8,6.4,30,13.6,45.6,17.2c0.4,0,0.6,0,0.8,0c-0.8,13-4.8,25.8-8.6,38.2c-3.6,11.2-9,22.2-12,33.6c-0.2-0.2-0.2-0.2-0.4-0.4
		c-15.6-7.2-33.4-11.2-50.6-13c-0.8,0-0.8,1-0.2,1.2c16.6,4.6,33,10,49.4,14.8c0.6,0.2,1,0,1.4-0.4c0.4,0.4,1.2,0.6,1.6,0
		c15.2-21,16.8-49.6,22.6-74.2C162.2,80.3,160.6,79.5,159.4,80.1z M107.6,96.9c1.2-3.2,2.4-6.4,3.6-9.6c1-2.8,2.6-5.8,3.2-8.8
		c4.8-2.8,16.6,3.2,21,4.6c5.6,1.8,11.2,3.8,17,4.6c-4.8,15-8.6,30.2-13.6,45.2c-8.2-0.6-16.4-1-24.6-2.4c-3.4-0.6-7.2-1.2-10.6-2.4
		c-4.6-1.8-4.4-2-2.8-6.2c3.6-0.8,7.2-1.4,10.8-1.8c2-0.2,2.2-3.2,0-3.2c0,0,0,0-0.2,0c-1.4-6.4-2.8-12.8-4.2-19.4
		C107.4,97.3,107.6,97.1,107.6,96.9z M108.2,116.9c-19.4,0.6-39.8,8.2-57.6,15.4c0-0.2,0-0.4,0-0.6c-3.2-23.6-5.6-48.4-10.8-71.8H40
		c17.2-4.4,34.8-8.4,51.6-13.8C95.4,69.9,100.8,94.1,108.2,116.9z"/>
	<path fill="#1D1D1B" d="M100.4,96.9c-0.2,0-0.6,0.2-0.8,0.2c-2.6-14.6-6.8-29-11-43.2c-0.2-0.8-1.4-0.6-1.4,0
		c-0.2,0-0.4-0.2-0.6-0.2c-13.4,0.6-28,5.2-39.8,11.6v-0.2c0-0.4-0.6-0.6-0.8-0.2c-2.6,5,0.6,12.2,1.6,17.2
		c2,10.2,3.8,20.6,7.2,30.4c0.4,1,1.8,0.8,2,0c0.2,0.2,0.6,0.4,0.8,0.4c14.4-4.8,28.8-9.2,43.6-13C103,99.3,102.2,96.5,100.4,96.9z
		 M56.8,111.1c-0.2,0-0.2,0.2-0.4,0.4c-1.4-7.6-3.4-15.2-5.2-22.8c-1.4-6.4-4.6-14.8-4.6-21.6c13.4-3.8,26.8-7.2,40.2-11
		c0.2,0,0.4-0.2,0.4-0.2c1.4,13.8,6,28.6,10.4,41.6C83.8,101.1,69.8,104.7,56.8,111.1z"/>
	<path fill="#1D1D1B" d="M77,68.7c-4.4,0.6-7.8,3.6-9.6,7.4c-1.2-0.6-2.4-1.2-3.8-1c-2.6,0-5.4,2-6,4.6c-1,5.6,6.2,8.8,11.2,9.6
		c0.8,0.8,2,1,3.4,0.2c6-3.4,8.4-11.6,8.4-18C80.8,69.5,78.8,68.3,77,68.7z"/>
	<path fill="#1D1D1B" d="M135.2,91.5c-2.8-2.4-6.4-1-8.8,1c-0.4,0.4-0.8,0.8-1.2,1c-0.2-0.2-0.6-0.6-1-0.8c-2.4-1.6-5.8-1.4-7.6,1.2
		c-4,5.6,4.2,12.2,7.8,15.6c1,1,2.2,0.6,3-0.2c0.2,0,0.6,0,0.8,0c2.2-0.6,3.2-2,4.8-3.8c1.2-1.4,2.6-2.8,3.4-4.4
		C138,98.3,138.2,93.9,135.2,91.5z"/>
</g>
</svg>
