<?xml version="1.0" encoding="utf-8"?>
<!-- Generator: Adobe Illustrator 18.1.1, SVG Export Plug-In . SVG Version: 6.00 Build 0)  -->
<svg version="1.1" id="Capa_1" xmlns="http://www.w3.org/2000/svg" xmlns:xlink="http://www.w3.org/1999/xlink" x="0px" y="0px"
	 viewBox="0 0 200 200" enable-background="new 0 0 200 200" xml:space="preserve">
<path fill="#1D1D1B" d="M147.4,63.5c-6.2-12.8-25.2-13.4-32.6-2c-2-8.8-14-12-22.2-12.4c-6.8-0.4-17.2,5-15.2,12.6
	c-3-0.8-6.6,0.4-8.2,2.8c-0.8,1.2-1.4,3.2-1.2,5c-9-5-21.6,6.4-15.8,17.4c3.2,6.2,10.6,7.6,17.2,8c-0.2,2.8,0,5.8,0.4,8.8l-0.2-0.2
	c-2-2.2-5.8,0.2-5,2.8c0.8,2.4,2.2,4.6,4,6.6c1.2,1.4,3.8,1.2,5,0c1.6-1.6,2.8-3.6,3.4-5.6c0.6-1.8-0.6-3.8-2.4-4.4
	c-1-0.2-1.8-0.2-2.6,0.4c-0.4-2.8-0.8-5.6-1-8.4c0.8,0,1.8,0,2.6,0.2c4.6,0.2,9.2,0.2,13.6,0.2c-1.2,12.6-1.8,26.6,0.4,39.2
	c-0.2,0.2-0.4,0.6-0.4,0.8c-1-0.8-1.8-1.6-2.8-2.2c-1.8-1.2-4.4,1.2-3.2,3.2c1.4,1.8,3.2,3.6,4.2,5.6c1.2,2.4,4.6,2,5.8,0
	c1.2-2,2.4-4,3.6-6c2-3.4-2.4-6.4-5-4.4c0-12-0.8-24-0.8-36c6-0.2,11.8-0.4,17.8-0.8c-0.2,0-0.4,0.2-0.4,0.6
	c-0.2,4.2-0.6,8.6-0.4,12.8c-0.2-0.2-0.4-0.6-0.8-0.8c-0.8-1-2.6-1-3.4-0.2c-1,0.8-1.2,2.2-0.6,3.4c0.8,1.6,1.6,3,2.2,4.6
	c1,2.2,3.8,3.6,5.8,1.6c1.2-1.2,2.2-2.4,3.4-3.6c3-3.2-1.4-7.8-4.4-5.6c0.2-4-0.2-8-0.4-12c0-0.4-0.2-0.6-0.4-0.6
	c5.2-0.2,10.2-0.6,15.2-1c1.8-0.2,3.8-0.2,5.6-0.4c-0.6,15.2-0.6,31.4,1,46.6c-0.2-0.4-0.4-0.6-0.6-1c-1.6-2.6-5.6-1-5,2
	s2.6,5.4,4.4,8c1.6,2.4,4.4,2.2,6,0c1.2-1.6,3-3.6,3.2-5.8c0.2-1.4-0.2-3-1.6-3.8c-1.2-0.8-2.8-0.6-3.8,0.4
	c0.8-15.4-0.2-31.8-1.8-47c6.4-1,12.4-3.2,16.2-8.8C149.8,78.1,150.4,69.9,147.4,63.5z M118.6,89.5C106.8,90.1,95,90.7,83,90.9
	c-5.8,0-12.8,0.8-18.4-0.8c-3.4-1-7.8-4-9.4-7.2c-7.2-14,12.4-10,15.4-8.4c0.8,0.4,2-0.4,1.4-1.4c-0.2-0.2-0.4-0.4-0.4-0.6
	c0.4-0.2,0.8-1,0.6-1.4c-0.2-1.8-1-3.4,0.6-4.8c1.8-1.4,4-1,6-1.6c0.8,1,3,0.8,3-1c-1.6-16.6,28.8-10.6,30.8,1.4
	c0.2,1,1.4,1.2,2,0.6c0.4,0,0.6-0.2,0.8-0.4c7.6-9.2,24.6-12.8,29,1.8C149.8,84.5,131.4,88.9,118.6,89.5z"/>
</svg>
