<?xml version="1.0" encoding="utf-8"?>
<!-- Generator: Adobe Illustrator 18.1.1, SVG Export Plug-In . SVG Version: 6.00 Build 0)  -->
<svg version="1.1" id="Capa_1" xmlns="http://www.w3.org/2000/svg" xmlns:xlink="http://www.w3.org/1999/xlink" x="0px" y="0px"
	 viewBox="0 0 200 200" enable-background="new 0 0 200 200" xml:space="preserve">
<g>
	<path fill="#1D1D1B" d="M104.3,88.3c5.8-1.2,11.4-5.8,15.6-9.6c4-3.8,7.4-9.4,4-14.6c-2.8-4.4-8.4-5.8-13.2-4
		c-4.6,1.6-7.8,5.4-9.8,9.8c-1.4-5.2-4.2-10.4-9.4-12.4c-4.8-1.8-10.4-0.6-12.6,4.4c-4.4,9.8,5.4,20,14.8,24.8
		c-16.2,0.8-31.6,12-35,28.4c-4.2,20.4,10.2,36,30,38.4c19.8,2.4,39-9.6,41-30.2C131.5,107.1,120.1,91.1,104.3,88.3z M83.5,71.5
		c-3.2-6.4,0.8-14.6,8.4-10.2c4.6,2.6,5.6,7.6,7,12.2c0.6,1.8,3,1,2.8-0.8v-0.2c2-3.4,4.2-6.6,7.6-8.6c4.8-2.6,14.2-1.2,12,6.4
		c-1,4-6.2,7.2-9.2,9.4c-3.4,2.4-7,4.2-10.8,6.2c-0.2,0.2-0.4,0.4-0.6,0.6C93.9,83.1,87.1,78.7,83.5,71.5z M126.3,122.3
		c-1.6,17.8-17.2,28.8-34.4,27.8c-19-1-34.6-16-29.6-36c4.2-17.2,20.6-24,36.4-25.8c0,0.4,0,0.8,0.6,1
		C114.7,93.7,127.9,105.1,126.3,122.3z"/>
	<path fill="#1D1D1B" d="M100.1,95.3C99.9,95.3,99.9,95.3,100.1,95.3c-0.4-0.2-0.6-0.2-0.8-0.2c-0.4,0-0.6-0.2-1-0.2h-0.2
		c-30.2-3.2-44,45.4-10.6,50.8c14.6,2.4,28-5.4,30-20.4C119.3,112.3,113.7,97.9,100.1,95.3z M113.9,127.3
		c-2.6,12.2-14.6,17.4-26,15.4c-13.4-2.2-20.4-14-16.4-27c3.8-11.8,14-17.4,25.4-18.8c0.2,0.4,0.4,0.6,0.8,0.8
		C111.7,100.3,116.7,114.5,113.9,127.3z"/>
	<path fill="#1D1D1B" d="M79.7,81.7c-3.8,0.8-7.8,1.2-11.8,2.2c-1,0.2-0.8,1.6,0.2,1.8c4.2,0.4,8.2-0.8,12-2.4
		C81.1,82.9,80.9,81.5,79.7,81.7z"/>
	<path fill="#1D1D1B" d="M73.1,71.9c-3.8-1-7.8-2.4-11.6-3.2c-1.2-0.2-2,1.4-0.8,2c3.8,1.8,8,2.6,12.2,2.8
		C73.7,73.5,73.9,72.1,73.1,71.9z"/>
	<path fill="#1D1D1B" d="M76.5,58.7c-0.6-1.4-2-2.4-3.6-3.2c-1.4-0.6-3.2-1.2-3.8-2.8c-0.4-1-2-1-2,0.2c0.4,4.6,6,3.4,8.4,6.4
		C75.9,59.9,76.9,59.3,76.5,58.7z"/>
	<path fill="#1D1D1B" d="M95.5,52.1c-0.4-1.6-0.8-3.4-1.6-4.8c-0.6-1.2-2.2-0.2-2,0.8c0.2,1.6,1,3,1.6,4.6
		C94.1,53.9,95.9,53.3,95.5,52.1z"/>
	<path fill="#1D1D1B" d="M109.5,46.7c-1.4,2.6-2.2,5.2-2.8,8.2c-0.2,1,1,1.6,1.6,0.6c1.6-2.6,2.6-5.2,3.2-8
		C111.9,46.3,110.1,45.5,109.5,46.7z"/>
	<path fill="#1D1D1B" d="M131.5,49.3c-2.2,1.4-4,3.4-5.8,5.4c-1.2,1.2,0.6,3,1.8,1.8c2-1.6,4.2-3.2,5.8-5.2
		C134.1,49.9,132.5,48.5,131.5,49.3z"/>
	<path fill="#1D1D1B" d="M141.1,64.9c-2.6-0.4-5.2,0-7.8,1c-1.6,0.6-1,3.2,0.8,2.8c2.2-0.6,4.4-0.8,6.8-1
		C142.1,67.3,142.7,65.1,141.1,64.9z"/>
	<path fill="#1D1D1B" d="M139.5,83.1c-2.8-1.8-6.2-3-9.4-3.6c-1.6-0.4-2.4,2-0.8,2.6c3,1,5.8,2.4,8.6,3.6
		C139.7,86.5,141.1,84.1,139.5,83.1z"/>
</g>
</svg>
