<?xml version="1.0" encoding="utf-8"?>
<!-- Generator: Adobe Illustrator 18.1.1, SVG Export Plug-In . SVG Version: 6.00 Build 0)  -->
<svg version="1.1" id="Capa_1" xmlns="http://www.w3.org/2000/svg" xmlns:xlink="http://www.w3.org/1999/xlink" x="0px" y="0px"
	 viewBox="0 0 200 200" enable-background="new 0 0 200 200" xml:space="preserve">
<g>
	<path fill="#1D1D1B" d="M100,92.1c8.2-8.4,16.6-17.6,22.8-27.6c0-0.2,0.2-0.4,0.2-0.4c0.2-0.2,0.2-0.8-0.2-1h-0.2c0,0,0,0-0.2-0.2
		c0-0.2,0-0.2,0-0.4c-1.8-4.6-4.2-8.2-7-12c-0.4-0.6-1.2-0.8-1.6-0.2c-0.2,0.2-0.4,0.4-0.6,0.6c-3.2-1.4-6.8-0.8-10.2-0.8
		c-0.4,0-0.8,0-1.2,0l0,0c-0.2-0.4-1-0.4-1.2-0.2s-0.2,0.2-0.2,0.4c-4.2,0.2-8.6,0.6-12.8,1c-0.4-0.4-0.8-0.6-1.2-0.8
		c-1.6-0.2-2.8,1.8-3.6,2.8c-2,2.8-3.6,5.8-5,8.8c-0.2,0.4,0,0.8,0.2,1.2c-0.4,0.2-0.4,0.6-0.4,1c4.4,9.6,11.2,19,17.6,27.6
		c-14.8,1.4-26.4,18.4-24.8,32.6c1.8,16,16,27,32,25.6c14.8-1.4,27.8-13.8,27.4-29.2C129,107.5,114.4,90.9,100,92.1z M95.8,65.1
		c3.4,0.2,7,0.2,10.4,0.2c-3.2,6.8-5.4,14.4-7.6,21.6C98.2,79.7,97.4,72.3,95.8,65.1z M100.6,88.1c2.8-7.6,5.8-15.2,7.8-23
		c3.8,0,7.6-0.2,11.2-0.6C112.8,71.9,106.8,80.3,100.6,88.1z M114.8,53.1c2.4,2.8,4.4,6.4,5.8,9.8c-3.8-0.6-7.8-0.8-11.8-1
		C111,59.1,113.4,56.1,114.8,53.1z M112.2,51.9c-0.8,1.2-1.6,2.4-2.4,3.8c-1,1.6-2,3.2-3,5c-1.4-2.8-2.8-5.6-4-8.6
		C105.8,51.7,109.4,51.1,112.2,51.9z M101.2,52.5c1.4,3,2.6,6.2,4,9.2c-3.2,0-6.6,0-9.8,0C97.6,58.9,99.6,55.7,101.2,52.5z
		 M98.4,52.5c-2,2.6-4,5.8-5.4,8.8c-0.8-2.2-2.2-4.2-3.4-6.2c-0.4-0.6-0.6-1.4-1.2-2.2C91.8,52.7,95.2,52.7,98.4,52.5z M82.4,57.7
		c0.8-1.2,2.2-5.6,4.2-4.6c0.6,0.2,1.2,2.4,1.4,2.8c0.4,1,1,1.8,1.4,2.8c0.6,1,1.2,2.2,1.8,3.2c-3.8,0.2-7.8,0.2-11.4,0.4
		C80.6,60.7,81.4,59.3,82.4,57.7z M93.6,65.1c0.8,8,1.8,16.2,3,24c-5.2-8.6-10.8-17.4-17.4-24.8C84,64.5,88.8,64.9,93.6,65.1z
		 M99.4,147.1c-13.4,0-25.2-10-26-23.8c-0.8-15,10.8-23.6,23-28.8c0.2,0.4,0.6,0.6,1,0.6c14.4-0.4,29.6,13.4,28.6,28.4
		C124.8,137.1,112.4,147.1,99.4,147.1z"/>
	<path fill="#1D1D1B" d="M99.8,99.3c-1,0-1.4,0.6-1.4,1.4c-9.4-2.2-19.2,6-20.8,15.4c-2,12.4,6,26.4,18.8,28.2
		C125.4,148.5,128.6,101.7,99.8,99.3z M98.8,140.9c-10-0.2-16.2-8.4-17.8-17.6c-1-5.8,0.4-11.6,4.6-15.8c4.2-4,9.6-4.4,15-5
		c8.8,2.8,16,9,16.2,19C117.2,131.7,109,141.1,98.8,140.9z"/>
</g>
</svg>
