<?xml version="1.0" encoding="utf-8"?>
<!-- Generator: Adobe Illustrator 18.1.1, SVG Export Plug-In . SVG Version: 6.00 Build 0)  -->
<svg version="1.1" id="Capa_1" xmlns="http://www.w3.org/2000/svg" xmlns:xlink="http://www.w3.org/1999/xlink" x="0px" y="0px"
	 viewBox="0 0 200 200" enable-background="new 0 0 200 200" xml:space="preserve">
<g>
	<path fill="#1D1D1B" d="M136,57.4c-1.8-3.8-4.6-13.6-9.2-15.2c-4.4-1.6-11,1.6-15.2,2.6c-18.8,4.4-37.4,8.8-56.2,13.4
		c-1,0.2-1.8,1.6-1.4,2.6c11.4,27.2,17.2,55.6,20.6,84.6c0,0.2,0,0.4,0.2,0.4c-0.4,0.4-0.4,1.2,0.2,1.4c21.4,3,42.4,5.6,63.4,11
		c1,0.2,1.8-0.4,2-1c1.2,0.4,2.8-0.4,2.8-1.8C146.6,122.8,149.4,87.8,136,57.4z M138.8,154.8c-19.8-5.4-41.4-9.6-62-9.2v-0.2
		c-0.4-28.8-7.6-57.2-18.2-83.8c14.2-3.2,28.4-6.6,42.8-10c6.6-1.6,16-5.6,22.2-3c6.8,2.8,9.6,13.6,11.8,20.2
		C144.4,96.8,141.4,126.2,138.8,154.8z"/>
	<path fill="#1D1D1B" d="M118.8,56.2c-3.4-5.2-7.8-0.4-9,3.8c-1.2-2-3.2-3.6-5.2-3.8s-4,1-4.8,2.8c-1.4-1.2-3.4-1.6-5.2-0.8
		c-1.8,0.8-2.6,2.6-3,4.2c-3-2.4-8.8-2.4-10,1.8c-0.8,2.8,0.8,5.2,2.8,6.8c2.8,2.2,6.8,4.2,10.2,5c0.2,0,0.4,0,0.4,0
		c0.4,0.2,0.8,0,1.2-0.2c1.8-1.6,3.6-4.4,4.6-7.4c1.2,1.6,3.2,2.8,4.6,4c1.4,1,2.8,2.4,4.4,3.2c0.2,1.2,2,1.8,2.8,0.6
		c2.2-3.8,4.2-7.6,5.8-11.6C119.4,62,120.4,58.8,118.8,56.2z M98.2,67.2c-0.8,2.6-2.6,4.4-3.8,6.8c-2.8-2-6.4-3-9-5.4
		c-0.8-0.6-1.6-1.8-1.4-2.8c0.2-1.6,1.8-2,3-2c1.6,0,2.6,0.6,3.8,1.4c0,0.2,0.4,0.4,0.6,0.4s0.2,0.2,0.4,0.2c0.6,0.4,1.4-0.2,1.2-1
		c0-0.2-0.2-0.2-0.2-0.4c0.8-2,2.4-5.4,5-3.4C99.8,62.6,98.8,65.6,98.2,67.2z M116.4,61.4c-0.4,1.6-1.2,3.2-1.8,4.6
		c-1,2.4-2.4,4.8-3.6,7.2c-1-1.2-2.2-2.2-3.4-3.2c-1.6-1.6-3.6-3.8-5.8-4.4h-0.2c0.2-1.6,0-3.4-0.6-4.6c0.6-1.6,2.8-2.2,4.4-1.4
		s2.4,2.8,3.6,4c0.6,0.6,1.6,0.2,1.6-0.6c0-0.2,0-0.2,0-0.4c0.2,0,0.4-0.2,0.6-0.6c0.4-1.6,1-3,2.2-4.2
		C116.6,57.8,117.6,59,116.4,61.4z"/>
	<path fill="#1D1D1B" d="M124,87c-13.2-3.8-30-1-43.2,1.6c-0.4,0-0.2,0.6,0,0.6c7.2,0,14.2-0.4,21.4-0.6c7.2-0.2,14.4,0.8,21.4,0.4
		C125,89,125.2,87.2,124,87z"/>
	<path fill="#1D1D1B" d="M128.8,94.4c-13.8-1.6-28-1.8-42-0.2c-1,0-1,1.4,0,1.4c14,0.4,28,1,42,2.2C131,98,131,94.6,128.8,94.4z"/>
	<path fill="#1D1D1B" d="M131.6,102.2c-14.8-2.2-30.6-1.4-45.4-1c-1,0-1,1.6,0,1.6c15,0.6,30.2,2.6,45,2.2
		C132.8,105.2,133.2,102.6,131.6,102.2z"/>
	<path fill="#1D1D1B" d="M130.8,111c-14.8-2.2-30.2-2.2-45.2-1.6c-1,0-1,1.6,0,1.6c14.8,0.8,29.8,2.4,44.6,3.2
		C132.2,114.2,132.6,111.2,130.8,111z"/>
	<path fill="#1D1D1B" d="M130.8,118.8c-13.6-2-27.6-2.8-41.2-3.6c-1.2,0-1.2,1.8,0,1.8c13.6,1.8,27.2,3.8,40.8,4.8
		C132.2,122,132.6,119.2,130.8,118.8z"/>
	<path fill="#1D1D1B" d="M131.2,128c-7.2-0.8-14.6-1-21.8-1.6c-7-0.4-15.6,0.2-22.4-1.6c-0.8-0.2-1.2,1-0.6,1.2
		c5.4,2.6,12,2.2,17.8,2.8c9,0.8,18,1.8,26.8,2.2C133.2,131.2,133,128.2,131.2,128z"/>
	<path fill="#1D1D1B" d="M133.8,140.8c-0.6-0.6-1-1-1.6-1.4c-0.8-0.6-2.6-0.6-2.8,0.8c-0.2,0.8-2.2-1.8-2.2-1.8
		c-0.8-1.2-2.6-1-3,0.4c-0.2,0.4-0.4,1-0.4,1.4c-1.2-2-2.2-3.8-3.4-5.8c-0.6-1.4-2.4-0.6-2.6,0.6c-0.2,2.4-0.4,4.8-0.4,7
		c0,1.6,2.4,1.6,2.6,0c0-0.6,0.2-1.2,0.2-1.8c0.8,1.6,1.6,3,2.4,4.4c0.6,1,2.4,1.2,3,0c0.4-0.8,0.8-1.4,1-2.2c0.8,0.8,1.8,1.4,3,1.2
		c0.8,0,1.6-0.4,2.2-0.8c0.2,0,0.2,0.2,0.4,0.2C133.4,143.8,135,141.8,133.8,140.8z"/>
</g>
</svg>
