<?xml version="1.0" encoding="utf-8"?>
<!-- Generator: Adobe Illustrator 18.1.1, SVG Export Plug-In . SVG Version: 6.00 Build 0)  -->
<svg version="1.1" id="Capa_1" xmlns="http://www.w3.org/2000/svg" xmlns:xlink="http://www.w3.org/1999/xlink" x="0px" y="0px"
	 viewBox="0 0 200 200" enable-background="new 0 0 200 200" xml:space="preserve">
<g>
	<path fill="#1D1D1B" d="M151.3,69.5c-9.6-7.2-20.8-2.4-28,5.4c-2.8-10.4-10.4-16.8-22.2-15.2s-21.2,11-22.4,22.6c-2,2.8-3.6,6-4,10
		c-3-7.6-8.8-14.8-17.8-14.6c-9.8,0.2-16,9.6-17.2,18.6c-2.6,19.4,12.8,41.8,32.8,43.4c10,3.8,21-6,27.6-13.2
		c22.8,11.4,52.8-1.4,59.4-26.2C162.1,89.9,160.5,76.5,151.3,69.5z M96.3,125.1c-5.4,5.4-15.6,14.4-23.8,12.2c-0.2,0-0.4,0-0.4,0
		c-13-5.4-23.8-13.2-28-27.4c-2.4-7.8-2.2-18.8,4-24.8c12-11.8,21.6,3.6,26.2,13c0.6,1.2,2.2,0.4,2-0.8c0-0.2,0-0.2-0.2-0.4
		c0.2-0.2,0.4-0.4,0.4-0.8c1.2-12.4,12.4-24.8,25.8-17.4c9.4,5.2,9.2,18,6.4,27C106.5,113.1,101.9,119.7,96.3,125.1z M151.5,99.9
		c-7.8,17.8-27.2,20-45.2,19c5.6-8.4,9.2-18.6,7.6-28.6c-2.2-13.4-13-18-22.8-15.6c2.6-2.4,5.4-4.4,9.2-4.8
		c8.2-1.2,11.4,4.2,14.8,10.6c2,3.8,4.6,7,9.2,5.6c0.2,0,0.2-0.2,0.4-0.2c4.8-0.4,7.2-5.4,12.4-6.6c12.4-2.8,15.4,11.8,14.6,20.6
		C151.3,99.7,151.5,99.7,151.5,99.9z M150.5,111.9c-11.6,15.6-31.2,18.4-48.6,12.8c0.8-1,1.6-2,2.4-3c0.2,0.2,0.6,0.4,1,0.6
		c17.6,1.8,46.2-2,48.8-24c1.6-7.6-0.2-16.2-7.2-20.4c-3-1.8-6.4-2.6-9.8-2c-5.2,1-8.4,7.2-13.4,8c-5.8-0.2-7.6-10-11.4-13.4
		c-2.2-2-5.2-3-8-3.4c-7-0.8-13.2,3.2-16.8,8.8c-2.4,1-4.8,2.6-6.8,4.6c3-8,8.4-14.6,17.2-17c6.2-1.6,13.8-1.4,18.6,3.4
		c3.2,3.2,4.4,8,6,12.2c0.4,1.2,2,0.8,1.8-0.6c0-0.4-0.2-0.8-0.2-1.2c11.4-9.8,27.6-11,32.8,6.2C159.5,93.3,156.3,103.9,150.5,111.9
		z"/>
	<path fill="#1D1D1B" d="M98.9,81.7c0-0.4-0.4-0.8-0.8-0.8c-5.2-0.8-10.2,0.6-13.6,4.8c-1.6,2-2.4,4-3,6.4c-0.4,1.6-0.4,3.4-1,5
		c-1.2,3.4-6.2,9-9.2,3.2c0-0.2,0-0.2,0-0.4c-1.6-4.8-4-9.8-8.4-12.6c-3-1.8-6.8-2.8-10-1.4c-0.2-0.2-0.6,0-0.8,0.2
		c-10.6,9-6.4,21.8,0,31.8c5.8,9.4,13,17.2,24.4,16.2c0.2,0.2,0.6,0.2,1,0.2c0.2,0,0.6-0.2,1-0.4l0,0c0.2,0,0.4-0.2,0.6-0.2
		c10.8-4.4,23.2-16.8,27-27.2C109.1,97.5,107.9,86.1,98.9,81.7z M76.9,131.3c-11,0.6-17.2-6-22.6-14.8c-5.8-9.4-7.8-18-2.4-27.6
		c9.2-3,13.4,5,17.4,11.8l0,0c0.2,4.6,6.4,5.2,9.4,2.6c0.8-0.6,1.4-1.4,1.8-2.2c0.2,7.2,5.4,14.8,11,19
		C86.9,124.9,81.5,128.7,76.9,131.3z M93.1,118.9c-2.6-2.8-5-5.8-6.6-9.2c-2-4-2.4-8-3.8-12.2c0.4-1,0.8-2.2,1.2-3.2
		c0.4-1.4,1-2.6,1.6-3.6c-0.6,9.6,3.4,18.8,10.4,25.4C94.9,117.1,94.1,117.9,93.1,118.9z M96.9,114.9c-6.8-7.2-10.2-16.2-10.2-26.2
		c2.4-3,5.6-5,10-5.4C110.1,91.7,105.7,104.3,96.9,114.9z"/>
</g>
</svg>
