<?xml version="1.0" encoding="utf-8"?>
<!-- Generator: Adobe Illustrator 18.1.1, SVG Export Plug-In . SVG Version: 6.00 Build 0)  -->
<svg version="1.1" id="Capa_1" xmlns="http://www.w3.org/2000/svg" xmlns:xlink="http://www.w3.org/1999/xlink" x="0px" y="0px"
	 viewBox="0 0 200 200" enable-background="new 0 0 200 200" xml:space="preserve">
<g>
	<path fill="#1D1D1B" d="M131.7,95.8c-4.6-8.4-18.6-8.6-29-8c0.4-2.6,0.6-5.6,0.8-8.4c2.6-0.6,5.4-1.6,7-3.8
		c1.2-1.6,1.8-3.8,1.2-5.6c0.2,0,0.2,0,0.4,0c1.4-0.4,3.4-1.2,3.2-2.8c0-0.6-0.4-1-0.8-1c-1.2-0.4-2,0.4-3,0.8
		c-0.4,0.2-0.8,0.2-1.2,0.4c0.2-1.8,0.6-3.4,0.8-5.2c1.6-0.2,2.8-1.8,3-3.4c0.2-2-1.2-4-3-5h-0.2c-0.2-0.4-0.8-0.4-1.2-0.2
		c-1.4,1.4-2.8,3.4-2.4,5.4c0.2,1.2,0.8,2.2,1.8,2.8c-0.2,1.8-0.2,3.8-0.2,5.8c-0.2,0-0.6,0-0.8-0.2c-1.6-0.4-2.2,2-0.6,2.4
		c0.4,0.2,0.8,0.2,1.2,0.2c0,1.6,0,3-1.4,4.2c-1,0.8-2.2,1.4-3.6,1.8c-0.2-1.8-0.4-3.6-0.6-5.4c1-0.4,1.8-1.2,2-2.6
		c0-0.8-1-1.6-1.6-1.2c-0.4,0.2-0.6,0.4-1,0.6l0.2-0.2c0-1.6,0-3.2,0-5c0.4-0.2,0.8-0.6,1-0.8c1.2-1.6,1-4.6-0.4-6.2
		c0-0.2-0.2-0.6-0.6-0.6c-2-0.6-3.6,0.8-4.2,2.6c-0.8,1.6-1,4.2,0.8,5.4c0.4,0.2,0.8,0.4,1.4,0.4c-0.2,1.6,0,3.2,0.8,4.8
		c0,0.2,0.2,0.2,0.2,0.2c-0.4,0-1,0.2-1.4,0.4c-0.6,0-1-0.2-1.4-0.6c-1-0.8-2.2,0.8-1.4,1.8c0.6,0.6,1.4,1,2.2,1.4
		c0,1.8,0,3.8,0,5.8c-2.4-0.2-4.8-1.2-5.6-3.6c0.4-0.2,0.8-0.4,1-0.8c0.8-1,0.2-2.2-1-2.2c-0.4,0-0.6,0-1,0.2c0-1.2,0-2.4,0.2-3.4
		c0.2-1.2,0.6-2.4,0.4-3.4c0.8-0.4,1.6-1.4,2-2.2c0.8-2-0.4-4.4-1.6-6c-0.6-0.8-1.8-0.4-1.8,0.4c-1.4,1.2-3.2,2.4-3.2,4.4
		c0,1.4,0.8,3,2,3.4c-0.4,1-0.2,2.2-0.2,3.4s0.2,2.6,0.4,3.8c-0.6,0-1.2-0.2-1.6-0.4c-0.8-0.4-1.6,0.6-1,1.4s2,1.4,3.2,1.8
		c0.4,4,4,6.4,8,6.8c0.2,2.8,0.4,5.6,0.6,8.4c-1.4,0.2-2.8,0.2-4,0.4c-10.2,0.8-22,3.4-27.4,12.8c-6.8,11.8-5.6,29.8-1.6,42
		c0.2,0.4,0.8,0.6,1,0.2c1.4,1.2,1.2,1,3.8,1.2c0.8,0,1.8-0.4,2.6-0.6c5.2-0.6,7,0.8,12.4,1.6c6.4,1,8-3,14-4.2c4-0.8,7.2,2.6,11,3
		c2.6,0.2,3.2-0.8,5.6-1.2c6.2-1,13.8,4.2,18.8-1c0.2-0.2,0.4-0.4,0.6-0.8C138.1,127.8,138.7,108.4,131.7,95.8z M109.1,57.2
		c0.2-0.6,0.4-1.2,0.8-1.6c0.6,0.6,1.4,1.2,1.6,2.2c0.2,0.8-0.2,2-1,2c-0.2,0-0.4-0.2-0.6-0.2C109.1,59.2,108.9,58,109.1,57.2z
		 M91.5,61.2c-1.6-0.8-0.2-3.2,0.6-4.6c0.4,0.8,0.8,1.4,1,2.2C93.3,59.8,92.9,61.8,91.5,61.2z M100.1,60c-0.4-0.2,0-1.6,0.2-2
		c0.2-0.6,0.6-1.4,1.2-1.8c0.2,1,0.6,1.8,0.2,2.8C101.5,59.6,100.7,60.4,100.1,60z M68.7,109.8c3.4-14,16-17.6,29-18.2
		c5-0.2,10-0.2,14.8,0.2c9.8,0.8,16.4,4.4,18.8,14.2c0.8,3.6,1.4,7.2,1.8,11c-2,2-3.8,4.2-7,3.8c-3.6-0.4-6-3.8-6-7.4
		c0-1-1.4-1.2-1.8-0.6c-0.2,0-0.4,0.2-0.6,0.4c-1.6,2.6-1.4,6.6-5,7.8c-4,1.2-8.6-2.4-8.2-6.6c0-0.4-0.4-0.8-0.8-0.8
		c0-0.2,0-0.2,0-0.4c0-1-1.6-1.6-2-0.6c-1.8,3.6-2.6,7.4-6.4,9.4c-4.2,2.2-9.4,0.4-10.4-4c0.2-1,0.4-2.2,0.2-3.2
		c0-1.2-1.6-1.4-2-0.2c-1,3.6-2.2,7-5.6,9.2c-3.6,2.4-8.4,2.4-10.8-1.2C67.3,118.4,67.7,114.2,68.7,109.8z M134.5,140.4
		c-2.6,3-11.8,0-15.8,0c-3.2,2-6.8,2.2-10.6,0.4c-0.8-0.4-1.8-0.8-2.6-1.2c-2.6-0.4-2-0.6-4-0.2c-2.2,0.2-3.6,1.6-5.6,2.4
		c-3.8,1.4-6.8,1.4-10.6,0.8c-3.6-0.6-2-1.2-5.8-1.2c-3.6,0-8.2,2.6-11.8,0.8l0,0c-0.4-5.4-0.8-11-0.8-16.4c2.2,2,5.6,2.8,8.6,2
		c3.4-0.8,6.6-3.4,8.4-6.6c1.4,3,4.8,5.2,8.4,5c4.6-0.2,8.8-3.6,10.6-7.8c1,3.2,4.4,5.6,8,6c3.6,0.2,6.6-2,8-5.2
		c1.2,2.4,3.2,4.2,6,4.8c2.8,0.6,6.2-0.4,8.4-2.4c0.4,6.2,0.6,12.4,1.2,18.6C134.7,140.2,134.5,140.2,134.5,140.4z"/>
	<path fill="#1D1D1B" d="M55.1,127.2c-0.6-4-1.4-8.8-4.4-11.6c-1.8-1.6-6.6-2.8-9-1.2c-0.2-9.6-0.4-19.2-1.4-28.6
		c0-0.6-1.2-1-1.4-0.2c-2.6,18.8-1.2,38.6,0.2,57.4c0.2,2,3.2,2,3.2,0c-0.4-8.2-0.4-16.4-0.6-24.6c0.6,0,0.8-0.6,0.6-1
		c1.6-1.2,3.2-1.4,5-0.4c1.6,1.2,2.6,2.6,3,4.6c0.6,1.8,1,3.8,1.2,5.6c0.8,4.8,0.4,9.6,1.4,14.2c0.2,1.4,2.6,1.4,3,0
		C56.7,136.8,55.9,131.8,55.1,127.2z"/>
	<path fill="#1D1D1B" d="M160.1,82.2c-0.2-1.2-1.6-1.2-1.8,0c-0.8,8.8-1.4,18.4-1.2,28c-14.6-1.6-17.8,18.8-12.2,29.6
		c0.8,1.4,2.6,0.4,2.4-1c-0.8-5.8-1.8-10.8-0.2-16.4c1.6-5.8,4.6-8.4,10-9.2c0.2,9.2,1.2,18.2,2.8,26.8c0.2,1.4,2.4,1,2.4-0.4
		C163.3,120.8,161.7,100.6,160.1,82.2z"/>
</g>
</svg>
