<?xml version="1.0" encoding="utf-8"?>
<!-- Generator: Adobe Illustrator 18.1.1, SVG Export Plug-In . SVG Version: 6.00 Build 0)  -->
<svg version="1.1" id="Capa_1" xmlns="http://www.w3.org/2000/svg" xmlns:xlink="http://www.w3.org/1999/xlink" x="0px" y="0px"
	 viewBox="0 0 200 200" enable-background="new 0 0 200 200" xml:space="preserve">
<path fill="#1D1D1B" d="M128.4,71.6l0.2-0.2c1.8-3.6-1.6-8.4-4.8-10c-2.8-1.4-6.2-1.2-8.8,0.2c-1.6-4.2-7-7.6-11.4-6.8
	c-3.6,0.6-6.6,3.4-7.2,6.6c-1.2-1-2.6-1.6-4-2c-2.8-0.8-6,0-8.2,1.8c-2.4,2-3.8,5-3.8,8c0,1.8,0.4,4.4,2.4,4.8
	c-0.8,1.2-1.4,2.8-1.4,4.2c0.2,5.4,4.8,9,10.4,10.4l0,0c2.4,4,6.6,6.6,11,7.6c-0.4,6.4-0.2,13,0.2,19.6c-5.2-10.2-22.2-11.6-32-11.6
	c-1.6,0-1.8,2.2-0.6,2.8c4.6,13,20.8,19,33,12.8c0.2,2.8,0.4,5.6,0.8,8.2c0.8,6.2,2,12.4,6.4,17.2c0.6,0.6,1.4-0.2,1-0.8
	c-7.6-14.6-5.8-32-7.4-48c1,0.2,2,0.2,2.8,0.2c4.4-0.2,10.4-3.2,9-8.4c0.6-0.2,1-0.4,1.4-0.4c4.4-1.4,10-3.2,12.2-7.8
	C130.8,77.2,130.4,73.6,128.4,71.6z M92.8,110.6c0.2,1.2,0.6,2.4,1,3.6c-1.8-0.6-3.6-1-5.4-1.6c-0.2-1.4-0.6-2.6-1.2-3.8
	C89,109.2,91,109.8,92.8,110.6z M86.6,112c-2.2-0.6-4.2-1.4-6.4-2.2c0.2-0.8,0.2-1.6,0-2.2c1.8,0.2,3.4,0.4,5.2,0.8
	C85.8,109.6,86.2,110.8,86.6,112z M78.8,107.6c0.2,0.6,0.2,1.2,0.4,2c-2-0.6-3.8-1.4-5.8-2.2C75,107.2,76.8,107.4,78.8,107.6z
	 M73.6,108.4c2.8,1.6,5.6,3,8.6,4.4c-1.2,0.2-2.6,0.2-3.8,0.4C76.6,112,75,110.4,73.6,108.4z M80,114.4c1.6-0.2,3.2-0.2,4.8-0.4
	c1.4,0.6,2.8,1,4.2,1.6c-1.8,0.2-3.4,0.6-5.2,1C82.4,115.8,81.2,115.2,80,114.4z M86.4,117.2c1.6-0.2,3-0.4,4.6-0.8
	c0.2,0,0.2-0.2,0.4-0.2c2.2,0.6,4.4,1.2,6.6,1.6C93.6,118.4,89.8,118.4,86.4,117.2z M95.4,114.8c-0.2-1-0.4-2.2-0.8-3.2
	c2.4,1.2,4.4,2.8,6,4.8C99,115.8,97.2,115.2,95.4,114.8z M115.4,64.6c0-0.2,0-0.4,0-0.6c2.2-1.2,5-1.2,7.2,0
	c2.6,1.6,2.8,3.8,3.6,6.2c-2.6-1-5.4,0-7.8,1.4c-0.2-2.4-1.8-4.4-3.6-6C115.2,65.4,115.4,65,115.4,64.6z M116.8,72.6
	c-0.4,0.4-0.8,0.6-1.2,1c0,0,0,0-0.2,0.2c-2-2.8-6.4-3.8-9.8-4c-2.8-0.2-6.6,0.4-9.4,2.2c-0.4-0.6-0.8-1-1.4-1.4
	c1-2.2,5.8-4,7.8-4.6c2.2-0.6,4.6-0.8,6.6-0.2C113.2,66.6,115.4,69.4,116.8,72.6z M112.2,81c-2.2,2.2-4.6,3.8-7,5.8
	c-0.2,0-0.6,0-0.8,0c0-0.4-0.2-0.6-0.6-0.8c-2.6-1.4-6.2-4-7-7.2c-1.4-6.2,6.8-6.4,10.4-6C111.6,73.2,117,76.2,112.2,81z
	 M105.4,57.4c3.8,0.4,5.4,3,7,6c-0.2,0.2-0.2,0.4-0.2,0.6c-1.6-0.8-3.4-1.2-5.2-1.2c-1.8,0-5.6,0.8-8.6,2.2v-0.2
	c0-0.2-0.2-0.4-0.2-0.8C98.6,60.4,101.6,57.2,105.4,57.4z M83.2,72c0.2,0-0.2-2.6-0.2-3c0-1,0.4-2.2,1-3.2c0.8-1.6,2.2-3,4.2-3.6
	c1.6-0.6,3.4-0.4,5.2,0.2c1.2,0.4,2.2,1.2,3.2,2c0,0.4,0.2,0.8,0.4,1.2c-1.8,1-3,2.4-3.2,4c-3-1.2-7,0-9.6,2.6
	C83.8,72,83.4,71.8,83.2,72z M90.8,84.6c-2.4-1-6.4-3.2-6.6-6.2S86,73,88.6,72c1.6-0.6,3.8-1.2,5.4-0.4l0.2,0.2
	c0.4,0.2,0.8,0.6,1.2,1.2c-1,1-1.8,2.2-2,3.6c-0.6,4.2,3,7.8,6.8,10C97,86.2,93.8,85.8,90.8,84.6z M104.2,93.6
	c-4-0.4-7.2-2-10.2-4.4c3.8,0.6,7.8,0.6,10.8-0.4c0.4,0.6,0.8,0.8,1.4,0.6c1.8,1,4.8,0.4,7.4-0.4C111.6,92.4,108.8,94,104.2,93.6z
	 M122.2,82.4c-2.4,1.2-5,2.2-7.6,3c-1,0.4-3.4,1.4-5.4,1.8c3.6-2.8,8-6.4,7.4-10.8c0-0.8-0.2-1.4-0.6-2c0.2,0,0.2,0,0.4,0
	c0.4-0.2,0.8-0.6,1.4-0.8c0.2,0,0.6-0.2,0.8-0.4c1-0.6,2-1.2,3-1.6c0.8-0.2,1.4-0.2,2.2-0.4c1.4,1.2,2.6,2.4,4,3.6
	C128.6,78.2,124.4,81.4,122.2,82.4z"/>
</svg>
