<?xml version="1.0" encoding="utf-8"?>
<!-- Generator: Adobe Illustrator 18.1.1, SVG Export Plug-In . SVG Version: 6.00 Build 0)  -->
<svg version="1.1" id="Capa_1" xmlns="http://www.w3.org/2000/svg" xmlns:xlink="http://www.w3.org/1999/xlink" x="0px" y="0px"
	 viewBox="0 0 200 200" enable-background="new 0 0 200 200" xml:space="preserve">
<g>
	<path fill="#1D1D1B" d="M104.7,51.9c-25-2.2-50,19.4-52,44.2c-1,12.8,2.4,28.2,11.2,38c8.6,9.8,22.8,13.4,35.4,13.4
		c25.4-0.2,44-19.4,45.4-44.4C146.3,78.9,131.1,51.3,104.7,51.9z M141.3,103.1c-1.6,23.8-19.2,41.6-43.4,41.2
		c-12.4-0.2-25.8-4.2-33.4-14.4c-7.4-10.2-10.2-24.6-8.2-36.8c1.8-11.6,8.4-21.6,17.8-28.4c8.4-6.2,18-8.4,27.8-10.8
		c0.2,0,0.2,0,0.4,0C128.1,53.1,142.7,80.3,141.3,103.1z"/>
	<path fill="#1D1D1B" d="M154.5,102.5c3.6-3,2-9.6-3-9.8c5.6-3.2,3.8-12.2-2-14.8c2.6-3.8-0.8-8.6-5.4-9.2
		c3.6-5.2-1.2-12.8-7.6-12.4c-0.4-4.8-5.4-8-9.4-5c-0.2-2.2-1.6-4.6-3.6-5.6c-2.6-1.4-5.4-0.8-7.6,1c-1-2.4-2.4-5-5.2-5.2
		c-1-0.2-2,0.2-2.8,0.6c-0.8-1.8-3-3.2-5-3.4c-3.8-0.4-6.8,2-8.6,5c-5.8-4.6-15.4-2-15,6.6c-4.8-3.4-14,0.2-14.2,6
		c-6.8-0.2-13,7-8.8,13c-2.6-0.2-5,1-6.8,3c-2.6,3-2.6,6.6-1.8,10.2c-3.2,1.2-5.2,4-5.2,7.8c0,2.2,0.6,5.4,2.4,7.2
		c-1.4,1-2.2,2.6-2.6,4.4c-1,4.2,1.4,7.8,4.4,10.6c-2,3.4-3.4,7.6-1,11c1.4,1.8,3.2,2.8,5.2,2.8c-1.4,2.4-1.4,5.8-0.4,8
		c1.4,3,4,4.6,7.2,5c-1,1.6-1,3.8,0,5.6c1.6,3.2,5.8,3.6,9,2.8c0,2,1.2,4.2,2.6,5.4c2.6,2.2,5.8,2.4,8.6,1c-0.4,2.4,0.2,4.8,3.2,5.6
		c3.2,1,7-0.4,9-3c0.4,1.2,1.2,2.2,2.4,3c3.4,2.4,7.4,1.2,10.8-0.6c2.6,5.4,13.6,0.4,13.4-6.4c4.2,3.6,11.6,0.4,12.6-5
		c5.4,2,12-3.6,8-9.4c3.2,2.4,9.4-0.4,11.2-3.4c1.4-2.2,1.2-4.4,0.2-6.2c2-0.8,3.8-2.2,4.4-4.6c0.6-2.4-0.2-4.8-1.8-6.2
		C158.7,116.5,159.9,106.9,154.5,102.5z M149.5,114.5c-1.2,0.4-1.4,1.2-1.2,2c-0.6,0-0.8,1-0.2,1.4c3,1.6,2.6,5,0.4,7
		c-1.2,1.2-2.8,1.4-4.4,1.4c-0.2,0-0.4,0-0.4,0h-0.2l0,0c-0.2,0-0.2,0-0.4,0c-1.8,0.2-1.2,3,0.4,3.2c0.2,0,0.2,0,0.4,0
		c0.4,1.4,0.8,2.8,1.2,4.2c-0.6,0.8-1.4,1.2-2.4,1.4c-1.2,0.6-3.4,1-4.6,0.4c-1-0.6-2.6,0.6-1.8,1.8l0.2,0.2c-0.4,0-1,0.4-0.8,0.8
		c1.6,5-3.6,9.2-7.4,4.8c-1.2-1.4-3.6,0.4-2.6,2c2.4,3.4-2,5.6-4.4,5.6c-1.6,0.2-3-0.4-4.2-1.4c-0.6-0.6-1.6-0.4-2,0.2
		c-0.4,0-0.8,0.4-0.8,0.8c0.2,2-0.6,3.8-2.2,5.4c-0.8,0.8-6,4.8-6.4,0.6c0-1.2-1.4-2.4-2.6-1.4c-1.4,1-3.6,2.8-5.2,3
		c-3.6,0.4-6.4-1.4-6-5.2c0-0.6-1-1-1.4-0.6c-0.6,0.8-1,1.6-1,2.4c0,0-0.2,0-0.2,0.2c-1,1.2-3.4,2.6-5,2.4c-1.2,0.4-2-0.2-2.6-1.8
		c-1.8-1.2-2.2-2.6-0.6-4.2c0.6-1.4-1.2-2.6-2.2-1.2c-1.8,2.2-5,3.2-7.4,1.6c-1.4-1-3-3.6-1.8-5.6c0.4-0.6-0.2-1.6-1-1.4
		c-0.8,0.2-1.4,0.6-1.6,1c-1,0-2.2,0.2-3.2,0c-3.4-0.4-6.4-4.4-2.4-6.8c1.4-0.8,0.4-2.6-1-2.4c-3.8,0.6-7.6-2.2-7.6-6.2
		c0-2.2,1.6-3.8,2.4-5.8c0.2-0.8-0.6-1.4-1.2-1.2c-0.2,0-0.2,0.2-0.4,0.2s-0.4,0-0.6,0c-4.8-1.2-6.6-3.4-5-7
		c0.6-1.4,1.2-2.6,2.2-3.8c0.4-0.6,0.2-1.4-0.2-1.8c-4.4-3.8-6.4-9.2-0.6-12.8c0.6-0.4,0.6-1.6-0.2-1.6c-0.6,0-1,0-1.6,0
		c-3.4-3.2-2-10.8,2.8-11.4c0.8-0.2,1.4-1.2,1-2c-2.2-5.8,0.2-10.2,6.4-10.8c0.8,0,1.4-1,1.2-1.8c0.2-0.2,0.2-0.6,0.2-0.8
		c-1.8-5.4,1-11.8,7.6-9.6c1.6,0.6,2.6-1.4,2-2.6c-2.6-5,7.6-5.2,9.6-4.8c0.6,0.2,1.4-0.4,1.6-0.8c0.6,0.4,1.2,0.2,1.4-0.6
		c1-6.2,7.6-9.6,12.2-4c0.6,0.8,2.2,0.6,2.4-0.4c0.6-1.4,1.2-2.8,2.4-3.6c1-1.8,2.6-1.8,4.4,0c2.2-0.2,3.4,0.6,3.8,2.4
		c0.4,0.8,1.4,0.8,1.6,0c0.4-0.8,0.4-1.4,0.2-2.2c1.4-1,4,0.6,4.8,2c0.6,1,0.8,2.4,1.2,3.6c0.2,0.8,1.2,1.2,1.8,0.4
		c1.8-2,4.4-2.8,6.6-1c2,1.6,1.8,3.2,1.8,5.6c0,1,1.2,1.2,1.8,0.4c0,0,0,0,0-0.2c0.2,0,0.6,0,0.8-0.2c2.8-2.6,7.6-0.4,6.2,3.6
		c-0.4,1.2,0.8,2,1.8,1.8c2.6-0.6,5.6,0.4,6.6,3c1,2.4-0.2,4.4-1.6,6.4c-0.8,1,0.8,2.6,1.8,1.8c0,0,0,0,0.2,0
		c2.6,0.2,8.4,3.8,3.8,6.8c-1,0.6-1,2.4,0.4,2.6c3,0.6,5.6,2.6,5.6,5.8c0,2.8-2,4.2-4,5.6c-0.8,0.6-0.2,1.8,0.6,2
		c-0.2,0.6,0,1.4,0.8,1.4c2.6-0.6,3.2,1.2,1.4,5.8c-1.8,0.2-2,2.4-0.4,3.2C156.3,106.3,154.9,113.1,149.5,114.5z"/>
	<path fill="#1D1D1B" d="M129.9,81.1c-4.6-6.8-13.6-8.4-20.8-5c-6,2.8-9.4,8.2-11.2,14.2c-6-11.4-23.2-13.4-29.6,0.8
		c-8.4,19.4,15.2,33.2,31.4,32.8c1.2,0,1.6-1.8,0.2-2.2c-12-2.4-25.8-6-29.2-19.8c-1.8-7.2,2.6-16.4,10.4-18
		c8.6-1.6,13.4,6.2,16.4,12.8c0.6,1.4,2.4,0.4,2.2-1c-0.2-0.6-0.4-1.4-0.6-2c1.8-6.8,5.8-13.4,13.2-15.2c2.2,0,4.6-0.2,6.8-0.2
		c5,1,7.4,3.8,7.4,8.8c1.6,5.8,1,8-1.8,13.2c-5.2,10-14,17.8-23.8,23c-2,1-0.2,4,1.8,3C115.9,119.9,141.3,98.1,129.9,81.1z"/>
</g>
</svg>
