<?xml version="1.0" encoding="utf-8"?>
<!-- Generator: Adobe Illustrator 18.1.1, SVG Export Plug-In . SVG Version: 6.00 Build 0)  -->
<svg version="1.1" id="Capa_1" xmlns="http://www.w3.org/2000/svg" xmlns:xlink="http://www.w3.org/1999/xlink" x="0px" y="0px"
	 viewBox="0 0 200 200" enable-background="new 0 0 200 200" xml:space="preserve">
<g>
	<path fill="#1D1D1B" d="M149.1,79.6C142.3,57,114.3,53,99.3,69.2c-0.2,0.2-0.4,0.2-0.4,0.4c-0.2,0.2-0.4,0.4-0.6,0.8
		C84.7,51,55.5,71,50.7,88.6c-7.4,27.8,27.6,43.4,47.8,50.8c0.2,0,0.2,0,0.4,0c-0.4,0.6,0.4,1.6,1.2,1.2c5.2-2.2,10.8-5.2,16.2-8.6
		c0.2,0,0.2,0.2,0.4,0.2c0.4,0,0.8-0.4,0.6-0.8c2-1.4,4-2.6,6-4.2c0,0,0,0,0.2,0c0.6,0.4,1.2-0.4,1-0.8c5.8-4.2,11.2-9,15.6-13.8
		C147.9,103.6,152.9,91.6,149.1,79.6z M146.9,80.8c-3,1.4-6,2.8-9.2,3.8c-0.2,0-0.2,0.2-0.2,0.2c-0.2-1.8-0.8-3.8-1.8-5.6
		c3-1.4,5.8-3.2,8-5.4C145.1,75.8,146.1,78.2,146.9,80.8z M135.1,65.6c2.8,1.6,5.4,3.8,7.4,6.2c-2.6,1.8-5,3.8-7.6,5.6
		c-0.4-0.6-0.6-1.2-1-1.8c-0.8-1.2-1.6-2.2-2.6-3C132.7,70.4,134.1,68.2,135.1,65.6C135.1,65.8,135.1,65.8,135.1,65.6z M125.9,62.2
		c2.8,0.6,5.4,1.4,7.8,2.6l0,0c-1.6,2-2.8,4.2-4,6.4c-1.4-1.2-3-2-4.6-2.8C125.7,66.4,125.9,64.4,125.9,62.2z M124.3,62
		c-0.4,2-0.6,4-0.6,6c-2.2-0.8-4.4-1-6.6-1c0-0.8,0.2-1.6,0.2-2.4s0-1.8-0.4-2.4C119.3,61.8,121.7,61.8,124.3,62z M115.1,62.4
		c-0.4,0.6-0.4,1.4-0.4,2.2c0,0.8,0,1.8,0.2,2.6c-1.2,0.2-2.4,0.6-3.6,1.2c-1,0.4-1.8,1-2.6,1.6c0-0.4-0.2-0.6-0.2-1
		c-0.2-0.8-0.4-1.8-0.6-2.8s-1.6-0.8-1.8,0.2c-0.2,1.6,0.4,3.2,1.4,4.4c-3,2.6-5,6.4-6.4,10.4c0-3.6,0-7.2-0.2-10.8
		C104.9,66,109.9,63.4,115.1,62.4z M97.1,73.4C97.3,73.4,97.3,73.4,97.1,73.4c0.6,0.6,1,0.6,1.4,0.4c-0.2,3.8-0.2,7.6,0,11.2
		c-0.8-2.2-1.8-4.2-3-6c0-1.2,0.2-2.2,0.6-3.2C96.5,75,96.9,74.2,97.1,73.4z M92.7,69.4c1.2,0.8,2.4,1.8,3.4,2.8
		c-1.4,1-2,2.8-2.2,4.6c-1-1-2-1.8-3.2-2.6c0.6-1,1-2,1.4-3.2C92.3,70.6,92.5,70,92.7,69.4z M86.7,72.2c0.2-1.6,0.4-3.6,0.2-5.4
		c1.4,0.4,2.6,0.8,3.8,1.6c-0.4,0.6-0.6,1.4-0.8,2c-0.4,1-0.8,2-1.2,3C88.1,72.8,87.5,72.4,86.7,72.2L86.7,72.2z M84.3,66.2
		c-0.4,1.8-0.2,3.6,0,5.4c-1-0.2-2-0.4-3-0.4c0-0.6-0.4-1-0.6-1.6c-0.4-1-0.6-2-1-2.8c0-0.2-0.2-0.4-0.2-0.4
		C81.3,66,82.9,66,84.3,66.2z M77.5,66.4c-0.2,0.2-0.2,0.6,0,0.8c0.2,1,0.6,2.2,1.2,3.2c0.2,0.2,0.2,0.4,0.4,0.8
		c-2.4,0.2-4.6,0.8-6.6,1.6c-0.8-1.2-1.6-2.2-2.4-3.2c0,0-0.2,0-0.2-0.2C72.3,68,74.9,67,77.5,66.4z M68.5,70c0,0.2,0,0.2,0,0.4
		c0.6,1.2,1.2,2.2,1.8,3.2c-1.4,0.8-2.8,1.8-4,3.2c-0.8-1-1.8-2-2.6-3C65.3,72.4,66.9,71.2,68.5,70z M62.9,74.6c0.8,1,1.6,2,2.6,3
		c0,0,0.2,0,0.2,0.2c-0.8,1-1.8,2-2.4,3.2c-0.2,0.4-0.4,0.8-0.6,1.2c0,0,0,0,0-0.2c-0.6-0.8-1.6-1.2-2.4-1.6c-0.6-0.2-1-0.6-1.6-0.8
		C59.9,77.8,61.3,76,62.9,74.6z M58.1,80.2c0.6,0.4,1,0.6,1.6,1c0.8,0.6,1.6,1.2,2.6,1.4h0.2c-0.6,1.4-1.2,3-1.6,4.4
		c-2-0.4-4-0.4-6-0.4C55.7,84.4,56.7,82.4,58.1,80.2z M54.3,88c2,0.2,4.2,0.6,6.2,0.6c-0.2,1.6-0.4,3-0.2,4.6l0,0
		c-2.4,0.4-4.8,0.8-7.2,0.8C53.1,92,53.5,90,54.3,88z M59.3,113c2.4-0.6,4.4-2.2,6.2-3.6c0.8-0.6-0.2-2-1.2-1.4
		c-2,1.4-4.2,2.4-6.2,3.8c-1.4-2-2.6-4-3.6-6.2c2.6-0.4,5-1,7-2.6c0.8-0.6,0.2-2-0.8-1.4c-2.2,1.2-4.4,2.2-6.8,2.6
		c-1-2.6-1.4-5.4-1.2-8.2c2.6,0,5-0.2,7.4-1c0.8,6.4,4.4,12.6,9.4,17.8c-0.2-0.2-0.6-0.2-0.8,0.2c-1.4,1.8-3.2,3.6-5,5
		C62.1,116.2,60.5,114.6,59.3,113z M75.9,125.8c-1.4-0.8-2.8-1.6-4.2-2.4c1.6-1,3-2.2,3.8-3.8c0.4-0.8-0.6-1.4-1-0.6
		c-1,1.6-2.2,2.8-3.8,3.8c-2-1.4-4-2.6-5.8-4.2c2.2-1.2,3.8-2.8,5.2-5c0.2-0.2,0-0.4,0-0.8c3.2,3.2,6.8,6.2,10.6,8.6
		c-1,1.4-2.4,2.8-4,3.4C75.9,125,75.7,125.4,75.9,125.8z M76.7,126.2L76.7,126.2c2-0.8,4-2,5-4c1.6,1,3.4,2,5,3
		c-0.6,1.8-1.2,3.4-2.4,5C81.7,128.8,79.3,127.6,76.7,126.2z M90.7,133.2c-1.6-0.8-3-1.4-4.6-2.2c1.2-1.4,2.2-3.2,2.4-5
		c1.4,0.8,2.8,1.4,4.2,2C91.7,129.6,91.3,131.4,90.7,133.2L90.7,133.2z M97.9,133.6c0,1-0.2,2.2,0,3.2c-1.8-1-3.6-2-5.4-2.8
		c0,0,0,0,0-0.2c0.8-1.6,1.6-3.4,2.2-5.2c1,0.4,2.2,0.8,3.2,1.2c0,0.4,0,0.6,0.2,1C97.9,131.8,97.9,132.8,97.9,133.6z M98.9,128.4
		l-0.2-0.2c-1.2-0.6-2.6-1.4-3.8-2c-0.2-0.2-0.2-0.2-0.4-0.2c-11.4-5.8-22.6-12.4-28-24.8c-4.6-10.8-1.2-26.4,12.8-26.8
		c12.4-0.4,15.8,11,18.8,20.4c0.4,1.2,2.4,1.2,2.6,0c0.2-0.2,0.2-0.2,0.2-0.4c1.6-8,4.8-20.6,14-23c13.4-3.4,19.8,12.2,17.4,22.6
		C128.1,110,111.1,119.2,98.9,128.4z M100.5,138.2c0-0.2,0.2-0.2,0.2-0.4c0.4-1.4,0.2-2.8,0-4.2c0-0.8-0.2-1.6-0.2-2.4
		c1.4-0.6,2.6-1.4,4.2-2.4l0,0c0.6,1.2,1.2,2.4,1.8,3.4c0.2,0.4,0.4,1,0.8,1.4C104.9,135.4,102.5,136.8,100.5,138.2z M108.7,133
		c-0.2-0.4-0.6-0.8-0.8-1.2c-0.8-1-1.6-2.2-2.2-3.2l0,0c1.4-0.8,3-1.8,4.6-3c1.4,1.2,2.2,3,3.4,4.4C111.9,131,110.3,132,108.7,133z
		 M114.9,129.2c-1.2-1.6-2.2-3.2-3.6-4.4c1.6-1.2,3.4-2.4,5-3.6c0,0.2,0,0.6,0.2,0.8c1.4,1.2,2.6,2.4,4,3.6
		C118.5,126.6,116.7,128,114.9,129.2z M122.1,124.2c-1.4-1.2-3-2.4-4.4-3.6c-0.2-0.2-0.4-0.2-0.6-0.2c1.8-1.4,3.6-3,5.2-4.6
		c1,0.8,2,1.8,3,2.6c0.6,0.6,1.2,1.2,2,1.8C125.7,121.8,123.9,123,122.1,124.2z M135.3,113.6c-0.8-0.6-1.4-1-2.2-1.4
		c-1.2-0.8-2.6-1.6-3.8-2.4c-1-0.6-1.8,0.8-0.8,1.4c1.2,0.8,2.4,1.8,3.6,2.6c0.6,0.4,1.2,0.8,1.6,1.2c-1.6,1.4-3.2,3-5,4.4
		c-0.6-0.8-1.4-1.4-2.2-2c-1-0.8-2-1.8-3-2.6c2.8-2.6,5.4-5.6,7.6-8.6c0.2,0.2,0.2,0.2,0.4,0.2c2.8,0.6,5.4,1.6,8,2.4
		C138.1,110.4,136.7,112,135.3,113.6z M140.7,107c-2.6-1.4-5.6-2-8.6-2.4c1-1.4,1.8-3,2.6-4.6c3,0.6,6.2,1.2,9.4,1.2
		C143.1,103.4,142.1,105.2,140.7,107z M144.9,99.4c-3-0.8-6.2-1-9.4-1.2c0.6-1.4,1-3,1.4-4.4h0.2c2.2-0.2,4.2-0.4,6.2-0.8
		c1.2-0.2,2.4-0.2,3.4-0.4C146.7,95,145.9,97.2,144.9,99.4z M147.5,90c-3.4,0.2-7,1.2-10,2c0.2-2,0.4-3.8,0.2-5.8h0.2
		c3.2-0.2,6.6-1.2,9.4-3C147.7,85.2,147.7,87.6,147.5,90z"/>
</g>
</svg>
