<?xml version="1.0" encoding="utf-8"?>
<!-- Generator: Adobe Illustrator 18.1.1, SVG Export Plug-In . SVG Version: 6.00 Build 0)  -->
<svg version="1.1" id="Capa_1" xmlns="http://www.w3.org/2000/svg" xmlns:xlink="http://www.w3.org/1999/xlink" x="0px" y="0px"
	 viewBox="0 0 200 200" enable-background="new 0 0 200 200" xml:space="preserve">
<g>
	<path fill="#1D1D1B" d="M152.7,71.1c-2.4-0.4-5-0.6-7.4-1c-2.4-0.4-4.2,1-4.4,3.4c-0.6,6.2-1,12.2-1.2,18.4
		c-0.4-0.2-0.8-0.2-1.2-0.2c-30.2-1.4-59.8-5-89.2-12c-2-0.4-4.8,1-4.4,3.4c1.6,13.8,2.8,28,6.8,41.4c-1.6,2-0.6,5.8,2.8,5.8
		c2.2,0,4.2,0,6.4,0c-1.6,2-2.6,4.4-2.4,7c0.4,5.6,5.8,9.2,11.2,8.8c5.8-0.4,10.8-5.8,9.4-11.8c-0.2-1.2-1-2.2-1.8-3.2
		c16,1.4,31.8,3.4,47.6,3c-0.8,1.6-1.4,3.2-1.6,4.6c-0.4,5.6,5.2,9.4,10.4,8.4c5.2-1,9.8-7,8-12.4c-0.2-0.8-0.6-1.4-1.2-2
		c1.8-0.2,3.6-0.6,5.4-1c1.4-0.2,2.8-2,2.6-3.4c-2-17.2-2.2-34.4-0.8-51.8c1.6-0.2,3.4-0.4,5-0.6C155.9,75.9,155.9,71.5,152.7,71.1z
		 M139.7,107.5c0,2,0.2,3.8,0.4,5.8c-3.8-0.4-7.6-0.6-11.4-0.8c-0.2-1.8-0.4-3.6-0.6-5.4C131.9,107.1,135.7,107.3,139.7,107.5z
		 M138.5,98.7c0.4,0,0.8,0,1-0.2c0,2,0,4,0,6.2c-4-0.6-8-1-12-1.2c-0.2-1.6-0.4-3.4-0.6-5C130.7,98.7,134.5,98.7,138.5,98.7z
		 M125.5,112.3c-2.6-0.2-5.2-0.2-8-0.4c-0.2-2-0.6-4-0.8-6c2.8,0.2,5.8,0.6,8.6,0.8C125.5,108.5,125.5,110.5,125.5,112.3z
		 M125.3,98.3c0,1.6,0,3.2,0,5c-3-0.2-6.2-0.4-9.2-0.6c-0.4-1.6-0.6-3.4-1-5C118.5,97.9,121.9,98.1,125.3,98.3z M113.9,111.9
		c-4.2,0-8.4-0.2-12.8,0c-0.4-2.4-0.6-4.8-1-7.4c4.4,0.4,9,0.8,13.4,1.2C113.7,107.7,113.7,109.9,113.9,111.9z M113.5,97.5
		c0,1.6,0,3.2,0,4.8c-4.2-0.2-8.6-0.6-12.8-0.8c-0.4,0-0.6,0-1,0c-0.2-1.8-0.6-3.6-0.8-5.4C103.7,96.7,108.7,97.1,113.5,97.5z
		 M98.1,111.9c-4.6,0-9.2,0.2-13.8,0.4c-0.2-3-0.4-6-0.8-9c4.4,0.2,8.8,0.6,13,1c0.4,0,0.6,0,1,0C97.7,106.7,97.9,109.3,98.1,111.9z
		 M97.3,95.9c0,1.8,0,3.6,0.2,5.4c-4.8-0.4-9.4-0.8-14.2-1.2c-0.2-2.2-0.6-4.2-1-6.4C87.3,94.5,92.3,95.3,97.3,95.9z M81.7,112.3
		c-4.4,0.2-8.8,0.4-13.2,0.6c-0.4-3.6-1-7.4-1.6-11c4.8,0.6,9.6,1,14.4,1.2C81.1,106.1,81.3,109.1,81.7,112.3z M81.1,93.5
		c0,2.2,0,4.2,0,6.4c-5-0.4-9.8-0.8-14.8-1c-0.6-2.8-1-5.8-1.6-8.4C70.1,91.7,75.5,92.7,81.1,93.5z M52.3,87.9
		c3.6,0.8,7.4,1.6,11.2,2.4c0,2.8,0.2,5.8,0.4,8.6c-3,0-6,0-9.2,0c-0.4,0-0.6,0.8-0.2,0.8c3.2,0.6,6.2,1.2,9.4,1.6
		c0.4,3.8,0.8,7.8,1.4,11.6c-3.4,0.2-6.6,0.4-10,0.6C54.7,104.9,53.3,96.3,52.3,87.9z M56.5,123.3c-0.2-2.8-0.4-5.6-0.8-8.6
		c3.4,0,6.8,0.2,10.2,0.2c0.6,3,1.2,5.8,2,8.6C64.1,123.3,60.3,123.3,56.5,123.3z M68.1,140.9c-5.2-0.6-5.8-6.4-2.6-9.2
		c0.2,0.6,0.8,1,1.6,1c2.8,0.2,6.2,0,6.6,3.6C73.7,139.5,70.7,141.3,68.1,140.9z M69.3,123.7c-0.2-2.8-0.4-5.8-0.6-8.8
		c4.4,0.2,8.8,0.2,13.2,0.4c0.2,3.2,0.6,6.4,0.8,9.4C78.1,124.3,73.7,123.9,69.3,123.7z M85.3,125.1c-0.2-3.2-0.4-6.4-0.6-9.6
		c4.6,0.2,9.2,0.2,14,0.4c0.4,3,1,6,1.8,8.8c0.2,1,1.8,0.8,1.8-0.2c0-2.8-0.2-5.6-0.6-8.6c4.2,0,8.4,0.2,12.6,0.2
		c0.4,3.8,1,7.6,1.6,11.2C105.7,127.1,95.5,126.1,85.3,125.1z M118.5,127.3c0-3.6-0.2-7.4-0.6-11.2c2.6,0,5,0,7.6,0
		c0.2,3.6,0.6,7.2,1.4,10.6c0,0.2,0.2,0.4,0.2,0.4C124.3,127.3,121.5,127.3,118.5,127.3z M132.9,141.7c-2.2,0.8-4.4-0.4-4.6-2.8
		c0-1,0.4-2.4,1.2-3.8c0.4,0.2,0.8,0.4,1.2,0.4c1.4,0.2,4.2-0.6,5.2,0.8C137.3,138.3,134.5,141.1,132.9,141.7z M128.7,127.1
		c0.2-0.2,0.2-0.4,0.2-0.6c0.2-3.4,0.2-6.8,0-10.4c3.8,0,7.4,0,11.2-0.2c0.2,3.2,0.4,6.4,0.8,9.8
		C136.9,126.3,132.9,126.7,128.7,127.1z"/>
	<path fill="#1D1D1B" d="M71.9,64.3c-0.8,1.4-1.4,2.8-1.8,4.4c-1-0.4-1.8-1-2.8-1.2c-2.6-1-4,2.6-2.6,4.4c1.6,1.8,3.8,3.4,5.6,4.8
		c2.4,1.8,5.4,0.6,5.8-2.4c0-0.6,0.2-1.2,0.2-1.8c0.2-0.2,0.4-0.4,0.6-0.8c1-1.8,1.2-3.4,1.4-5.6C78.9,62.5,73.5,61.3,71.9,64.3z"/>
	<path fill="#1D1D1B" d="M101.7,62.3c-0.8,1.6-1.4,3.2-2,4.8c-1-1.4-2-2.8-3-4c-1.8-2-5.4,0-4.6,2.6c1.4,4.2,4,8.2,6.2,12.2
		c1,2,3,2,4.4,1.2c1.4-0.2,2.6-0.8,3.2-2.4c1.6-4,2.4-8.2,2.4-12.6C108.5,60.5,103.3,59.1,101.7,62.3z"/>
	<path fill="#1D1D1B" d="M126.3,72.1c-1.6-1-4-0.4-4.8,1.2c-0.2,0.4-0.4,1-0.8,1.4c-0.8-0.6-1.4-1.2-2.2-1.6
		c-2.2-1.4-5.2,1.4-3.6,3.6c0.6,0.8,1.2,1.6,2,2.4c0.4,0.4,1.6,1.2,1.8,1.8c0.6,1.4,1.4,2.4,3,2.6c1.4,0.2,2.8-0.4,3.4-1.6l2.6-4.8
		C128.5,75.3,128.1,73.1,126.3,72.1z"/>
	<path fill="#1D1D1B" d="M129.9,53.3c-1.6-1-4-0.4-4.8,1.2c-0.2,0.4-0.4,1-0.8,1.4c-0.8-0.8-1.4-1.8-2.4-2.4c-0.8-0.6-2-1-3-0.4
		c-0.8,0.6-1.4,1.8-1.2,2.8c0.6,1.4,1.2,2.6,2,3.8s1.4,2.6,2,3.8c1.2,2.6,4.6,2,6,0c1.2-1.8,2.2-3.6,3.2-5.4
		C131.9,56.5,131.7,54.5,129.9,53.3z"/>
</g>
</svg>
