<?xml version="1.0" encoding="utf-8"?>
<!-- Generator: Adobe Illustrator 18.1.1, SVG Export Plug-In . SVG Version: 6.00 Build 0)  -->
<svg version="1.1" id="Capa_1" xmlns="http://www.w3.org/2000/svg" xmlns:xlink="http://www.w3.org/1999/xlink" x="0px" y="0px"
	 viewBox="0 0 200 200" enable-background="new 0 0 200 200" xml:space="preserve">
<g>
	<path fill="#1D1D1B" d="M69.1,71.5c0-2.4-0.6-6-3.4-6.6c-4.6-0.8-7.8,3.4-8.4,7.8c-1.4-1.2-3.2-2-5.2-2.2c-2.8-0.2-6,1-5.8,4.2
		c0.6,7.2,10.4,11.6,16.6,10.2c0.2,0,0.4-0.2,0.4-0.2c0.2-0.2,0.4-0.2,0.4-0.4C66.5,80.7,68.9,76.1,69.1,71.5z M52.3,78.7
		c-0.6-0.6-1.4-1.4-1.8-2.2c-0.4-0.4-0.4-1-0.2-1.6c-0.4-1.2,0-1.6,1.2-1.2c2.4-0.4,5,2,6.2,3.8c0.8,1.4,3.2,0.4,2.6-1.2
		c-0.6-1.8-0.6-3.4,0.2-5.2c0.8-1.8,3.8-5,5.4-1.8c1,2-0.6,5.8-1.4,7.6c-1,2-2.2,3.8-3.4,5.8C57.9,82.3,54.9,81.1,52.3,78.7z"/>
	<path fill="#1D1D1B" d="M113.7,70.9c-10.6-5.8-18.2,6.6-19.8,16.4c-2.4-4-5.8-7.2-10.4-8c-6.4-1-11.8,4-12.8,10
		c-2.6,15.4,18.6,27,31.6,24.4c0.2,0,0.4-0.2,0.6-0.4c0.8,0.8,2.2,0.8,3-0.2C111.7,104.3,129.7,79.7,113.7,70.9z M115.5,85.5
		c-1,9.4-8.2,17.8-12.8,25.8c-0.2,0.2-0.2,0.4-0.2,0.6h-0.2c-9.2-1-21.2-5.8-25.8-14.2c-2.4-4.2-2.6-13.8,4.2-14.6
		c7.4-0.8,9.8,6.4,13.2,11.4c1,1.4,3.2,0.6,2.6-1.2c0-0.4-0.2-0.8-0.4-1.2c0.4-4.8,1.6-9.2,4.4-13.2c1.6-2.2,5.4-5.6,8.4-5.4
		C114.7,74.1,115.9,81.1,115.5,85.5z"/>
	<path fill="#1D1D1B" d="M146.3,55.1c-1.6-2.6-4.6-3.2-7.4-2.2c-2.2,0.8-3.6,2.6-4.4,4.6c-0.6-1.2-1.4-2-2.6-2.6
		c-2.4-1.2-4.8,0.2-6,2.4c-3,6,4.8,12,9.6,13.8c1,0.4,1.6-1.2,0.6-1.6c-2.8-1.4-5.2-3.4-6.8-6c-0.4-0.6-0.8-1.4-1-2.2
		c-0.4-0.8-0.2-1.8,0.2-2.6c0.8-0.2,1.6-0.2,2.4-0.4c1,0.4,1.4,3,1.8,3.8c0.6,1.4,3,1.4,2.8-0.4c0,0,0,0,0-0.2c0,0,0,0,0-0.2
		c0.8-2.2,2.2-5,4.6-5.4c3-0.6,4.2,2.2,3.2,4.8c-1.4,3.6-6.2,4.8-7.2,8.2c-0.2,0.8,0.6,1.8,1.6,1.6c1.6-0.4,2.8-1.8,4.2-3
		s2.8-2.4,3.6-4C147.3,60.7,147.9,57.5,146.3,55.1z"/>
	<path fill="#1D1D1B" d="M77.5,124.9c-0.4-3.8-1.4-7.8-5-9.6c-3.4-1.6-7.2,0-9.2,3c-1.6,2.6-1.6,5.4-0.8,8c-2-1.4-4.4-2.4-7-1.8
		c-4,0.8-6,4.4-5.6,8.2c1,10.8,15.6,15,24.4,12.4l0,0c0.4,0.2,1,0,1.2-0.4C78.3,139.1,78.1,131.1,77.5,124.9z M57.9,139.3
		c-2.4-1.6-5-4.8-4.6-7.8c1-8.6,9-2,11.6,0.6c0,0,0.2,0.2,0.4,0.2l0,0c0.6,0.8,1.8,0.4,1.6-0.6c0-0.2,0-0.2-0.2-0.4
		c0-0.2,0-0.4-0.2-0.4l0,0c-1.2-3.2-3-7.8-0.6-10.8c6.4-1.2,9.2,0.4,8.8,5c0,1.2,0,2.6,0,3.8c-0.2,4.8-1.2,9.8-0.8,14.6
		C68.3,142.1,62.7,142.7,57.9,139.3z"/>
	<path fill="#1D1D1B" d="M113.9,136.9c-0.2-2.6-0.4-6.2-2.6-8c-1.6-1.4-4-1.2-5.6,0c-1.4,1.2-2,2.6-2,4.2c-3.4-2.4-9.2-0.6-9.6,4.4
		c-0.2,3.4,2.4,5.8,5,7.4c3,2.2,6.8,3.6,10.2,1.8c0.8-0.4,0.2-1.6-0.6-1.2c-3.8,1.2-9-2.2-11-5.2c-1.2-1.8-1.2-4.2,0.8-5.6
		c2-1.4,4.4-0.4,5.6,1.4c0,0.2,0,0.2,0,0.4c0.2,0.4,0.4,0.6,0.8,0.6s0.8-0.2,0.8-0.8v-0.2c-0.4-1.6-0.2-3,0.4-4.4c3-0.8,4.6,0,4.8,2
		c0.4,1.4,0.4,3.6,0.4,5c0,2.6-1.4,5.2-0.8,7.8c0.2,0.6,1,0.8,1.4,0.4C114.3,144.5,114.1,139.9,113.9,136.9z"/>
	<path fill="#1D1D1B" d="M153.1,122.7c-0.4-1.2-1.8-2.2-2.6-3.2c0.2-0.4,0.2-0.8,0-1c-1.4-3.4-6.4-1.2-8.2,0.6
		c-1.6,1.6-3,3.6-3.8,5.8c-1.6-3.2-4-5.6-7.6-6c-4.4-0.4-7.2,2.8-7.2,7c-0.2,10,10,19.6,19.8,19.4c0.2,0,0.4,0,0.6-0.2
		c0.6,0.4,1.4,0.4,2,0c4.4-3.8,6.8-10.2,7.4-15.8C153.9,126.9,153.9,124.7,153.1,122.7z M150.3,129.3c-1.2,5.2-4,9.2-6.6,13.8
		c0,0.2-0.2,0.2-0.2,0.4c-6.2-1-11.4-4.6-14.4-10.2c-0.8-1.4-1.4-2.8-1.8-4.4c-0.8-3.2-1-4,1.8-5.8c1.6-1.8,3.2-1.8,4.8,0.2
		c0.8,0.8,1.4,1.6,1.8,2.6c0.8,1.4,1.2,3.2,2,4.6c0.4,0.8,1.2,0.8,1.8,0.4l0,0l0,0l0.2-0.2c0.2-0.2,0.2-0.4,0.2-0.6
		c0.6-2.8,1.4-5.2,3.2-7.6c0.8-1,1.6-2,3-2.6c0.8-0.4,1.6-0.4,2.4-0.2v0.2c0.4,1.4,2,2.8,2.2,4.6
		C151.1,126.1,150.7,127.7,150.3,129.3z"/>
</g>
</svg>
