<?xml version="1.0" encoding="utf-8"?>
<!-- Generator: Adobe Illustrator 18.1.1, SVG Export Plug-In . SVG Version: 6.00 Build 0)  -->
<svg version="1.1" id="Capa_1" xmlns="http://www.w3.org/2000/svg" xmlns:xlink="http://www.w3.org/1999/xlink" x="0px" y="0px"
	 viewBox="0 0 200 200" enable-background="new 0 0 200 200" xml:space="preserve">
<g>
	<path fill="#1D1D1B" d="M139.7,133.3c-0.2-8.6-0.4-17.2-0.6-25.6c-0.4-17.2-0.8-34.2-1.2-51.4c-0.2-9.6,1-19.2-10.8-20.2
		c-9-0.8-18.6,0.2-27.6,0.4c-8.6,0.2-17.6-0.2-26.2,0.4c-10.4,0.6-13.4,6.8-11.8,16.6c-1.8,13.4-1.4,27-1.8,40.2
		c-0.4,16.8-0.4,33.6,0,50.4c0.2,11.8,2.8,16.2,14.8,17.8c15,2,30.2,2.6,45.4,2c7.6-0.4,18.4,1,20-8.6
		C141.3,148.7,139.9,140.5,139.7,133.3z M133.5,151.1c-2.8,10.6-30.2,7-39.4,6.6c-6-0.4-17.4,0.4-22.6-2.2c-7.4-4-5.2-15.4-5.2-22.6
		c0-27,3-55.2,0.8-82.2c1.4-7.6,13-6.6,19.2-6.8c6.8-0.2,13.8-0.2,20.6-0.4c5.6,0,16.6-2.4,21.2,1.4c4.6,3.8,2.8,15.4,3,21.4
		c0.4,13.8,0.8,27.6,1.2,41.4c0.2,7.2,0.4,14.4,0.6,21.8C133.1,135.7,135.1,145.1,133.5,151.1z"/>
	<path fill="#1D1D1B" d="M103.7,49.1c-1.4-1.4-3.2-1.2-5-1.2c-1,0-2.2,0-3.2,0c-0.6,0-1.6,0.2-2.2,0.2c-0.8-1-2.4-0.6-3,0.6
		c-1,2.8,2.4,3.4,4.4,3.6c2.6,0.2,6.8,1.2,9-0.8C104.3,50.7,104.3,49.7,103.7,49.1z"/>
	<path fill="#1D1D1B" d="M127.7,61.5c0.2-1-0.6-1.6-1.4-1.6c0-0.4-0.4-0.8-1-1c-16-2-33.6-2.8-49.8-1.8l0,0c-0.2,0-0.2,0-0.4,0
		c-0.4,0-0.6,0.6-0.2,0.8c-4.6,25.8-3.4,53.6-1.2,79.6c0,0,0,0,0,0.2c-0.2,0.4,0,1,0.6,1.2c15.8,4.2,34.2,2.8,50.4,2
		c0.8,0,1.2-0.6,1.4-1.2c0.8,0.4,2,0,2-1C127.3,112.3,124.1,87.7,127.7,61.5z M76.5,137.1c-0.8-13-1.8-26-1.4-39.2
		c0.6-13,2.4-26.4,1.6-39.6c15.6,2.6,32.8,3.4,48.4,2.8c-5.4,25-2.8,51.6,0.6,76.8c-0.2-0.2-0.4-0.2-0.8-0.2
		C108.7,137.3,92.5,137.1,76.5,137.1z"/>
	<path fill="#1D1D1B" d="M100.9,145.5c-2.4,0.4-3.8,2.8-3.2,5c0,0.2,0,0.2,0,0.4c0,1.2,1.2,2,2.2,2.4c2.4,0.8,5-0.8,5.4-3.2
		C105.5,147.7,103.5,145.3,100.9,145.5z"/>
	<path fill="#1D1D1B" d="M105.5,88.5c-3.6-0.8-6,2.6-7.2,5.6c-0.2,0.4-0.2,0.8-0.4,1.2c-0.2-0.2-0.2-0.2-0.4-0.4
		c-2.2-1.8-5.8-2.2-7.6,0.4c-4.4,6.2,6,11.8,10.6,12.8c0.4,0,0.6,0,0.8,0c1.2,0.2,2.6-0.2,3.4-1.4c2-3.2,4-6.6,4.4-10.6
		C109.5,93.1,108.9,89.1,105.5,88.5z"/>
</g>
</svg>
