<?xml version="1.0" encoding="utf-8"?>
<!-- Generator: Adobe Illustrator 18.1.1, SVG Export Plug-In . SVG Version: 6.00 Build 0)  -->
<svg version="1.1" id="Capa_1" xmlns="http://www.w3.org/2000/svg" xmlns:xlink="http://www.w3.org/1999/xlink" x="0px" y="0px"
	 viewBox="0 0 200 200" enable-background="new 0 0 200 200" xml:space="preserve">
<g>
	<path fill="#1D1D1B" d="M153.9,86.2c-2.8-12.6-10-26-20.6-33.8c-11.8-8.4-27-8.6-40.6-7.2c-27.4,2.6-49.2,23.2-47.8,52
		c1.2,21.6,23.2,46.2,46.6,38.8c-0.8,11,10.2,19.6,20.8,19.4c1.8,0,2.6-2.2,1.4-3.4c-3.6-4.2-3-9.4-0.2-13.8
		C141.7,137.4,160.3,114.6,153.9,86.2z M94.3,134.8c0.6-0.8,0.4-2-0.8-2c-10,0.2-18.8-0.4-27.4-6c-10.4-7-16.2-18.6-16.6-31
		C49.3,84,53.5,72.6,61.3,64c9-10.2,21.6-13.6,34.8-14.4c10.8-0.6,22.8-0.4,32.2,5.6c9.8,6.2,16.6,18.2,19.8,29
		c3.6,12.4,2.8,26.8-6,37c-8.4,9.8-19.8,10.2-31.2,13.6c-0.8,0.2-1.2,0.8-1.2,1.6c-3.4,4.2-3.6,10-1.4,14.8
		c-3.4-0.6-6.6-2.2-9.2-4.8C96.1,142.8,95.1,139,94.3,134.8z"/>
	<path fill="#1D1D1B" d="M129.5,78.8c-2.6-3.2-7-3.8-10.6-2.2c-2.2,1-3.8,2.6-5,4.4c-1.6-2-3.8-3.8-6.6-4.2c-2.6-0.4-5,0.4-6.8,2
		c-2.2-0.6-4.8-0.2-6.4,0.6c-2.2,1-5,3.4-6.6,6c-1-2.8-2.2-5.2-5-6.4c-4.4-1.8-10.8,0.6-13.6,4.4c-7.4,10.8,13.4,23.2,19.6,28.2
		c0.8,0.6,1.6,0.6,2.4,0c5-4,9.4-8.6,12.8-14.2c3.8,3.8,8.8,6.8,12.8,8.2c1.2,0.4,2.2-0.2,2.6-1.2c0.2,0,0.6-0.2,0.8-0.4
		c4.4-2.8,7.2-9,9.4-13.4C131.1,87.2,132.3,82.4,129.5,78.8z M89.9,108.4c-5-4.2-10.6-8-15-12.6c-0.8-1-1.6-2-2.4-3
		c0.4-3,0.8-6,1.2-9c2.6-3,9.2,0.8,10.8,3c1.4,1.8,1.2,3.6,3,5.2c0.8,0.8,2.2,0,1.8-1c0-0.2-0.2-0.4-0.2-0.6c0.2-3,3.8-6.2,6.2-7.4
		c1-0.6,2.2-0.8,3.2-0.8c-0.2,0.4-0.2,0.6-0.4,1c-0.8,4.4,0.8,8.6,3.8,12.2C98.3,100.4,94.5,104.6,89.9,108.4z"/>
</g>
</svg>
