<?xml version="1.0" encoding="utf-8"?>
<!-- Generator: Adobe Illustrator 18.1.1, SVG Export Plug-In . SVG Version: 6.00 Build 0)  -->
<svg version="1.1" id="Capa_1" xmlns="http://www.w3.org/2000/svg" xmlns:xlink="http://www.w3.org/1999/xlink" x="0px" y="0px"
	 viewBox="0 0 200 200" enable-background="new 0 0 200 200" xml:space="preserve">
<g>
	<path fill="#1D1D1B" d="M156.2,83.3c-3.8-29.6-26.2-48-56-46.6C73.4,38.1,48,55.3,43.8,82.9c-3.4,21.6,13.4,50.6,37.8,48.4
		c1,10.6,5,20.8,9.2,30.4c1.2,2.6,4.8,2,6.2,0c6.4-9.4,11.2-19.4,15.4-29.8C138.6,128.9,160,111.9,156.2,83.3z M109.2,125.1
		c-2.4,0.2-3.6,2.4-3.4,4.2c0,0,0,0,0,0.2c-3,8-6.8,15.4-11.2,22.6c-3-8-5-16.2-7.8-24.4c-0.2-0.6-0.4-0.8-0.8-1.2
		c-0.4-0.4-0.8-0.8-1.4-1c-10.4-2.2-19-4.6-26.2-13.2c-6.8-8.2-9.2-18.4-7.4-29c4-23.8,26.2-38.2,49.2-39.6
		c25-1.4,43.8,12.6,48.6,37.2C154,108.3,133.8,122.5,109.2,125.1z"/>
	<path fill="#1D1D1B" d="M136,84.5c-1.6,0.8-3,1.6-4.6,2.2c-0.4,0-0.6,0.2-0.8,0.4c-2-0.4-4-0.8-6.2-0.8c2-4.2,2.2-8.6-0.6-13.2
		c-6.2-10-18-5.8-22.8,2.4c-2.2-3.8-5-7.2-9.8-7.6c-6-0.4-11,4-13,9.2c-1.2,2.8-1.4,5.4-1.2,8c-0.6,0-1.2,0-1.8,0
		c-0.6,0-1.2,0-1.8,0c0-0.8,0.2-1.4,0.2-2.2c0.2-1.6-1.8-3-3.2-2.4c-2.6,0.8-5.8,2.8-6.6,5.6c-0.4,1.6,0.4,3.2,1.8,4s3.2,1.6,4.8,2
		c2,0.4,3-1.4,2.6-2.8c0.2-0.8,0.2-1.6,0.4-2.4c1.4,0,3,0.2,4.2,0.4c2.4,9.8,13.6,16.8,23,19.2c0.4,0.2,0.8,0,1.2-0.2
		c0.6,0.6,1.4,1,2.2,0.4c5-3.8,13.6-9.8,18.6-16.8c0.4,0,0.8,0,1.4,0c2.4,0.2,4.6,0.8,7,1c1.4,1.6,2.8,2.8,4.2,4.2
		c2.6,2.2,5-1.6,3.2-3.2l0,0c-0.6-0.6-1.2-1.2-1.8-1.8c0.8-0.4,1.6-0.8,2.2-1.2C141.2,86.9,138.8,82.7,136,84.5z M119.8,86.3
		c-2.2,0.2-4.4,0.4-6.4,0.8c-1.6,0.2-1.2,2.6,0.4,2.6c1,0,2,0,3,0c-0.6,0.6-1.2,1.2-1.8,1.8c-4.4,4.2-9.4,8-13.8,12.2
		c-0.2,0.2-0.2,0.2-0.2,0.4l0,0c-8.2-3-17.4-7.2-20.2-16.2v-0.2c2.4,0,4.8,0.2,7.2-0.2c1-0.2,1-2,0-2.2c-2.6-0.4-5-0.4-7.6-0.2
		c-0.4-5.6,1.6-14,8-13.6c4.8,0.2,9.6,4.8,11.4,9c0.6,1.4,2.6,0.8,3-0.4c0.6-4.2,3-6.6,6.6-7.4c6-4.2,10-1,12.4,9.6
		C121.4,83.5,120.6,84.9,119.8,86.3z"/>
</g>
</svg>
