<?xml version="1.0" encoding="utf-8"?>
<!-- Generator: Adobe Illustrator 18.1.1, SVG Export Plug-In . SVG Version: 6.00 Build 0)  -->
<svg version="1.1" id="Capa_1" xmlns="http://www.w3.org/2000/svg" xmlns:xlink="http://www.w3.org/1999/xlink" x="0px" y="0px"
	 viewBox="0 0 200 200" enable-background="new 0 0 200 200" xml:space="preserve">
<g>
	<path fill="#1D1D1B" d="M122.1,44.4C72.7,23.8,27.7,80.2,46.3,126c10.4,25,41,33.4,64.4,21.2c0.4,10.6,12.6,12.4,21,12.8
		c1,0,2-1.2,1.6-2.2c-0.8-2.4-3-2.8-4.4-4.8c-1.6-2.2-1.6-5.2-2-7.8C177.1,134,160.1,60.2,122.1,44.4z M125.5,141.8
		c-0.8,0.2-1.2,0.8-1.2,1.6c-0.4,0.2-0.6,0.6-0.6,1.2c-0.2,2.8,0.2,5.8,1.4,8.4c0.4,1,1,2,1.6,2.8c0.2,0.2,0.2,0.2,0.4,0.4
		c-6.2-0.6-12.4-2.6-14.4-9.4c-0.2-0.4-0.6-0.8-1-0.8c0-0.4-0.4-0.6-0.8-0.6c-13.4,3-27.2,5.2-40.6,0.2c-15.2-5.8-22.4-20.8-24.4-36
		c-3.2-26,11.4-52,36-61.6c25-9.8,52,1,64.6,24.2C160.1,97,156.3,133,125.5,141.8z"/>
	<path fill="#1D1D1B" d="M121.9,106.8c0.4-0.4,0.6-1.2,0-1.8c-0.8-1-2-1.6-3-2.2c-0.8-0.6-1.8-1.2-2.6-2c1.2-10,3.2-19.4,6.2-29.2
		c0.4-1-0.6-2.2-1.6-2.2c-9.6,0.8-19.2,1.2-28.8,0.4c-3.6-0.4-12.6-4-15.8-1c-3,2.8-2.2,13.2-2.2,16.8c0,6.4,0.6,12.8,2,19
		c-2.4,0.2-4.6,2.4-5.8,4.4c-0.4,0-0.8,0.2-0.8,0.6c-1,5.6-2.2,16.8,2.6,21c5.4,5,20,2,26.2,1.6c5.4-0.4,20.4,0.4,24.6-3.8
		C126.5,124.8,123.1,112.6,121.9,106.8z M74.3,108.6c0.8-0.8,1.4-1.4,2-2.4c0.4,2,1,4,1.6,6c-1.6-1-3-1.8-4.6-2.8
		C73.7,109.2,73.9,108.8,74.3,108.6z M72.5,124.6c-1.8-2.4-1.6-9.2-1.6-13c0.2,0,0.4-0.2,0.6-0.2c0.2-0.2,0.4-0.4,0.6-0.6
		c1.6,1.2,3,2.2,4.6,3.4c2,1.4,4,3.4,6.4,3.6c0.6,0,1.4-0.6,1-1.2c-1-1.4-2.6-2.2-4.2-3c0,0,0,0,0-0.2c-1.6-7.4-3-14.8-3.2-22.4
		c0-3.2,0-6.6,0.2-9.8c0.2-3.2,0.6-6.2,1.2-9.4c1.8,0,3.6,0,5.4,0.4c11.8,1.2,23,2.2,34.8,1.2c-3.2,11-5.8,22.4-5.6,33.8
		c0,1.8,2.4,1.6,2.6,0c0.2-1.2,0.2-2.4,0.4-3.6c0.6,0.4,1,0.8,1.6,1.4c0.2,0.2,0.6,0.6,0.8,0.8c-1.8,1.2-3.4,2.8-5,4
		c-2.2,1.8-4.6,3.6-7,5.2c-2.8-2.4-8.2-7.4-11-7.4c-2.4,0-4.4,3.2-5.8,4.6c-5,4.8-9.8,9.8-14.6,14.8
		C74.1,126.2,73.3,125.4,72.5,124.6z M115.1,127.2c-3.6,1.4-9.2,1.2-13,1.6c-5.6,0.6-11.8,1.6-17.4,0.8c-2.4-0.4-5.4-0.8-8-2
		c2.8-2.8,5.6-5.4,8.4-8c4-3.8,5.6-7.4,11.4-6.4c7.2,1.4,13.8,8.2,19.6,13.6C115.9,126.8,115.5,127,115.1,127.2z M119.7,126.2
		c-3.8-3.6-7.8-7-11.8-10.2c3.8-2,8-4.6,11.2-7.8c0.6,3.8,1.4,7.8,1.4,11.6C120.3,124,120.3,125.6,119.7,126.2z"/>
	<path fill="#1D1D1B" d="M110.5,78.8c-9.2-1.2-19.6,0.4-28.8,0.6c-0.8,0-0.8,1,0,1c9.4,0.4,19.8,1.6,29-0.4
		C111.5,80,111.1,78.8,110.5,78.8z"/>
	<path fill="#1D1D1B" d="M106.9,85.8c-8-0.4-16,0.4-24,1.6c-0.6,0-0.4,1.2,0.2,1c8-0.8,15.8-0.8,23.8-1
		C107.9,87.6,107.9,86,106.9,85.8z"/>
	<path fill="#1D1D1B" d="M105.9,94.2c-8,0.2-16,1.2-23.8,2c-0.8,0-0.8,1.2,0,1.2c8-0.2,16-0.4,23.8-1.2
		C107.1,96,107.1,94.2,105.9,94.2z"/>
	<path fill="#1D1D1B" d="M105.1,102.8c-7-1-14.4-0.4-21.6,0c-0.8,0-0.8,1.4,0,1.4c7,0,14.2,0.8,21.2,0.4
		C105.7,104.4,106.1,103,105.1,102.8z"/>
	<path fill="#1D1D1B" d="M110.7,107c-0.4-0.8-1-1.4-2-1.4h-0.2c-0.8,0-1.6,0.4-2,1.2c-0.2,0.4-0.4,0.6-0.6,1c-0.2,0-0.2,0-0.4,0
		c-0.8-0.2-1.6,0.2-2,1c-0.2,0.6,0,1.6,0.6,2c0.4,0.2,0.8,0.4,1,0.6c0.2,0.8,0.8,1.4,1.6,1.6c1.4,0.4,2.8-0.8,2.8-2.2
		C110.1,109.2,111.3,108.4,110.7,107z"/>
</g>
</svg>
