<?xml version="1.0" encoding="utf-8"?>
<!-- Generator: Adobe Illustrator 18.1.1, SVG Export Plug-In . SVG Version: 6.00 Build 0)  -->
<svg version="1.1" id="Capa_1" xmlns="http://www.w3.org/2000/svg" xmlns:xlink="http://www.w3.org/1999/xlink" x="0px" y="0px"
	 viewBox="0 0 200 200" enable-background="new 0 0 200 200" xml:space="preserve">
<g>
	<path fill="#1D1D1B" d="M152.2,87.4C143,61,119.8,43.2,91.8,47c-24.6,3.6-49.2,21.8-46.2,49c2.6,23.6,25.8,41.2,49.2,37.4
		c1,10.8,10.4,18.8,21,20c1.2,0.2,2.4-1.4,2-2.6c-2-5.4-2.2-10.6-1.4-16.2c11.2-0.8,23.6-4,31.2-12.8
		C155.8,112.4,156,98.8,152.2,87.4z M144.2,119c-7.6,8.8-19,10-29.6,12c-1.2,0.2-1.6,1.4-1.4,2.2c-0.2,0.2-0.2,0.4-0.2,0.6
		c-1.6,5-1.4,10.2,0,15.2c-8.4-2.2-13.8-9.2-15.6-17.8c-0.2-1-1.6-1.2-2.2-0.6c-21.8-0.6-42.6-11-45.4-34.8
		C47,71.8,68,55.2,89.6,51.4c25.2-4.6,45,9,56,31.2C151.4,94,153,108.8,144.2,119z"/>
	<path fill="#1D1D1B" d="M93.4,89.4c1.2-2,2.4-3.8,3.2-6c0.6,0,1-0.6,1-1.2C94.8,67,72.8,65,66.2,78.6c-8.8,18.2,13,33.4,28,36.8
		c0.8,0.2,1.4-0.4,1.6-1.2c0.8-0.4,1.4-1.2,1-2c-0.6-1.6-1.4-3.2-2-4.8c-0.8-1.6-1.6-2.6-1-4c1-1.8,4-2.6,4.8-5
		C100,95,96,92,93.4,89.4z M92.4,99.8c-1,0.8-2.4,1.2-3,2.4c-1,2.8,1.6,6.8,3.4,9.8c-8.6-4.2-17.6-8.6-22-17.6
		c-3.2-6.8-2.6-14.4,3.4-19.2c8.6-7,16.6-0.4,21,6.8c-2.2,1.8-3.8,4-5.4,6.4c-0.6,0.8-0.8,1.8,0,2.6C92.4,93.8,96,96.4,92.4,99.8z"
		/>
	<path fill="#1D1D1B" d="M134,70.2c-11-13.8-30.6-4-32.6,11.2c-0.2,1.2,1.6,1.4,2.2,0.6l0,0c1.4,0,2.8,0.2,4.2,0.2
		c2.6,0.4,3.2,1.6,1.8,3.6c-0.4,3-3.2,6.8-4.8,9.2c-0.8,1.2,0.2,2.8,1.6,2.8c2-0.2,4-0.4,6-0.6c-2.8,6-5.4,12-7.6,18.2
		c-0.4,1,0.2,1.8,1,2c0.2,1,1.2,1.8,2.2,1C120,109.8,148,87.6,134,70.2z M130.8,91c-5,8.4-13.6,14.2-20.8,21c2.2-5.4,4.6-10.8,7-16
		c0.6-1.2,0-3-1.6-2.8c-1.8,0.2-3.6,0.4-5.6,0.6c2.2-3.8,5-8.8,4-12c-1.2-4-5.8-3-9.2-2.6c3-6.8,8.8-12.4,16.8-11.4
		C132.8,69.2,136,82,130.8,91z"/>
</g>
</svg>
