<?xml version="1.0" encoding="utf-8"?>
<!-- Generator: Adobe Illustrator 18.1.1, SVG Export Plug-In . SVG Version: 6.00 Build 0)  -->
<svg version="1.1" id="Capa_1" xmlns="http://www.w3.org/2000/svg" xmlns:xlink="http://www.w3.org/1999/xlink" x="0px" y="0px"
	 viewBox="0 0 200 200" enable-background="new 0 0 200 200" xml:space="preserve">
<g>
	<path fill="#1D1D1B" d="M152,89.8C148.8,63,123.6,50,98.4,52c-25.4,2-51,20.2-50.8,47.8c0.2,20.6,20.8,40,41.6,31.8
		c0.8,4.4,1,9.6-1,13.8c-0.6,1.2,0.4,3.2,2,2.6c6.6-2.4,14.8-6.2,16-13.8c0.2,0,0.4,0.2,0.6,0.2c12.4,0,25.8-1.6,34.8-10.8
		C150.4,114.8,153.4,101.6,152,89.8z M138.8,120.4c-8.2,8.6-20.6,9.2-31.8,10.2c-0.6,0-1.2,0.4-1.4,0.8c-0.2,0-0.6,0.2-0.6,0.6
		c-2.4,5.8-7.2,8.8-12.6,11.2c0.8-4.2,1.2-8.4,0.2-13c-0.2-1.2-1.4-1.4-2.2-1c-0.2-0.2-0.6-0.4-1-0.4C66.6,133.4,48.2,114,53,91.4
		c4.8-22.8,28-35.2,50-35.6c21.4-0.4,41.8,11.6,44.6,34C148.6,100.6,146.4,112.4,138.8,120.4z"/>
	<path fill="#1D1D1B" d="M124.4,98.8c-0.2-4.8-0.6-9.6-0.8-14.4c-0.2-2.8,0.2-7.4-1.2-10c-2-3.8-6.2-3.2-9.8-3
		c-10.6,1-20.4,1.8-31.2,0.6c-2-0.2-2.2,2.4-0.8,3.2c-1.2,9.6-1.4,19.6-1.8,29.2c-0.2,4.6-1.6,10.4,3,13c5.6,3.2,15.4,2,21.6,1.8
		c5.2-0.2,16.2,0.6,20-3.4C126.8,112.2,124.6,103.4,124.4,98.8z M118.4,112.2c-5.4,4.6-33.2,7.2-36-1c-1.4-4,0.4-12,0.6-16.4
		c0.2-6.4,0.4-12.6,0.2-19c5.2,0.4,10.2,0.6,15.4,0.4c3-0.2,13.8-3,16.4-1.6c6.2,3.2,5.2,13.6,5.4,19.2c0.2,3.2,0.4,6.4,0.4,9.6
		C121,107.6,121.8,109.4,118.4,112.2z"/>
	<path fill="#1D1D1B" d="M111.4,81.4c-8-1.8-15.6,2.6-23.6,1.8c-0.8,0-1,1.4-0.2,1.4c8,1.2,15.6-2,23.6-1.6
		C112.2,83.2,112.4,81.6,111.4,81.4z"/>
	<path fill="#1D1D1B" d="M114.8,86.8c-8.4,0.2-17.2,2.4-25.4,3.6c-0.6,0-0.4,1.2,0.2,1c8.4-0.8,17.4-1.2,25.6-3.2
		C115.8,88.2,115.6,86.8,114.8,86.8z"/>
	<path fill="#1D1D1B" d="M111.6,96c-7.4,0.6-14.8,1.8-22.2,1.8c-0.8,0-0.8,1.2,0,1.2c7.4,0.6,15.2,0.6,22.6-1.4
		C112.8,97.4,112.6,96,111.6,96z"/>
	<path fill="#1D1D1B" d="M111.2,102.4c-1.6,1.2-2.8,2.8-3.4,4.6c-1-0.4-2.2-1-3.2-1.4c-1.8-0.8-3.6,1.2-2.2,2.8
		c1.4,1.6,3.2,2.8,5.4,3.2c0.4,1,1.8,1.6,2.8,1c2.4-1.2,3.4-5.4,3.8-7.8C114.6,103.2,112.8,101.2,111.2,102.4z"/>
</g>
</svg>
