<?xml version="1.0" encoding="utf-8"?>
<!-- Generator: Adobe Illustrator 18.1.1, SVG Export Plug-In . SVG Version: 6.00 Build 0)  -->
<svg version="1.1" id="Capa_1" xmlns="http://www.w3.org/2000/svg" xmlns:xlink="http://www.w3.org/1999/xlink" x="0px" y="0px"
	 viewBox="0 0 200 200" enable-background="new 0 0 200 200" xml:space="preserve">
<g>
	<path fill="#1D1D1B" d="M145.1,126.3c0.6-0.4,1-1,1.2-1.6c8.4-20.8,2.6-46.2-15.2-60.4c-18.2-14.6-46.4-14.6-64.4,0.2
		c-18.4,15.2-22.8,41.6-7.4,60.4c17.2,21.2,47.2,23.6,71.6,15.4c0,0,0,0,0.2,0c3,1.6,6.2,3,9.2,4.4c2.4,1.2,5.6,3.2,8,1
		c2.4-2,1.2-5.2,0.4-7.8C147.5,133.9,146.3,130.1,145.1,126.3z M138.7,137.5c-2-0.8-4.2-1.6-6.2-2.2c-0.6-1-1.8-1.8-3.6-1.4
		c-20.8,5-44,6.4-60.6-9.6c-17.4-16.6-13.8-43.4,6-56.6c15.6-10.6,38.2-9.4,52.8,2.4c15.4,12.6,19.6,34.4,12.4,52.6
		c-0.2,0.2-0.2,0.6-0.2,0.8c-0.8,0.6-1.2,1.8-0.8,3c0.8,2.8,1.8,5.6,2.6,8.4c0.4,1,1,2.4,1.4,3.8
		C141.3,138.5,140.1,137.9,138.7,137.5z"/>
	<path fill="#1D1D1B" d="M117.1,89.7c-2.8-4.4-8-6.2-12.8-4.4c-3.2,1.2-5.2,3.6-6.6,6.4c-1.6-2-3.6-3.6-6-4.4
		c-5.2-1.6-9.6,1.8-11.4,6.6c-4.2,11.6,6,20.8,16.6,22.2c2.8,0.6,5.6,0.8,8,0.2C115.5,113.7,123.7,100.1,117.1,89.7z"/>
</g>
</svg>
