<?xml version="1.0" encoding="utf-8"?>
<!-- Generator: Adobe Illustrator 18.1.1, SVG Export Plug-In . SVG Version: 6.00 Build 0)  -->
<svg version="1.1" id="Capa_1" xmlns="http://www.w3.org/2000/svg" xmlns:xlink="http://www.w3.org/1999/xlink" x="0px" y="0px"
	 viewBox="0 0 200 200" enable-background="new 0 0 200 200" xml:space="preserve">
<g>
	<path fill="#1D1D1B" d="M79.8,60.8c1.4-1-0.4-2.8-1.8-2.2c-11.2,5.4-25,15-32.4,25.6c0,0-0.2,0-0.2-0.2c-0.2,0-0.6,0.2-0.6,0.4
		c-0.4,2.2,0.4,3.2,1.4,5.4c3,6.4,6.2,12.6,9.4,18.8c6.2,11.8,12.2,24,18.8,35.6c0.8,1.6,3.2,0.2,2.4-1.4
		c-9.4-19-18.8-39.6-30.6-57.2c5.8-3.4,10.8-8,16.2-12.2C68.2,69,74.2,65.2,79.8,60.8z"/>
	<path fill="#1D1D1B" d="M117.4,114.6C108,94.6,94.8,75,81.6,57.2c-0.6-1-2.2-0.2-1.6,1c10.8,19,22.2,39,34.8,56.8
		c-14.4,5.4-25.4,18-37.2,27.4c-0.8,0.8,0.2,1.8,1.2,1.4c14.4-6.2,23.2-21,38.4-26C119,117.4,118.8,115,117.4,114.6z"/>
	<path fill="#1D1D1B" d="M164.6,130.4c0-1-1.2-1.6-2-0.8s-2.6,0.8-3.2-0.2c-0.4-0.6-0.4-1.6,0-2.4c0.2-0.4,0.4-0.8,0.8-1.2
		c0.2-0.2,0.4-0.4,0.6-0.6c0,0,0,0.2,0.2,0.2c0.6,0.8,1.8,0.6,2-0.2c0.4-1.4,0-2.8,0-4.2c0-1.2,0.2-2.4,0.6-3.6
		c0.2-0.2,0.4-0.4,0.6-0.6c1-1-0.2-2.4-1.4-1.8c-1.4,0.6-3.4-0.2-3.6-1.8c-0.2-0.8,0.2-1.8,0.6-2.4c0.2-0.4,0.6-0.8,0.8-1
		s0.8-0.4,1-0.6c0.2,0.2,0.2,0.4,0.4,0.6c0.6,0.8,1.6,0,1.6-0.6c0-1.2-0.4-2.6-0.6-3.8c0-1.2,0-2.4-0.2-3.4c0-0.4-0.6-0.6-0.8-0.4
		c-0.2,0-0.4,0-0.6,0c-1.8,1-3.4-0.8-3-2.6c0.2-1,0.6-1.8,1.6-2.4c0.4-0.2,0.6-0.4,1-0.4c0,0.2,0.2,0.4,0.2,0.8
		c0.4,0.8,1.6,0.6,1.8-0.2c0,0,0,0,0-0.2l0,0l0,0c0.2-1.4-0.2-2.8-0.2-4.2c0-1.8,0.2-3.6,0.6-5.2c0.2-0.6-0.4-1.2-1-1
		c-0.2,0-0.2,0-0.4,0c-1.6,0-3.8-0.4-4-2.4c-0.2-0.8,0-1.8,0.6-2.4c0.2-0.2,0.8-0.6,1.2-0.8c0,0,0,0,0,0.2c0.4,1,1.8,1,2.2,0
		c0.4-1.2,0.2-2.4,0-3.6c0-1.2-0.2-2.4-0.2-3.6c0-0.2,0-0.2-0.2-0.4c0.2-0.8-0.4-1.4-1.2-1.2c-1.4,0.4-3.4,0.4-4-1.2s1.2-2.8,2.6-3
		l0,0c0.4,0.4,1.2,0.4,1.6-0.2l0,0c0-0.2,0-0.2,0-0.4c0.4-1.4,0-2.6-0.2-4c0-1.6,0-3.4,0.2-5V58c0.2-0.6-0.2-1.4-0.8-1.4
		c-2-0.2-4.2,1.6-6.2-0.2c-1-0.8-0.8-2.2-0.2-3.4l0,0c0.4-0.2,0.6-0.6,0.8-0.8c0.2,0,0.2-0.2,0.4-0.2c0.8-0.4,0.4-1.6-0.4-1.4
		c-0.4,0-1,0.2-1.4,0.4c-1-0.2-2,0-3,0c-1.2,0-2.6,0.2-3.8,0.2c-0.8,0-1,0.8-0.8,1.2c-1,1.4-2.4,3.4-4.4,3c-1.8-0.2-2.6-2.4-2-3.8
		c0.4-0.8-0.8-1.4-1.4-1c0-0.2-0.2-0.4-0.4-0.4c-0.8-0.4-1.6-0.2-2.4-0.2c-0.8,0-1.8,0.2-2.6,0.2c-0.4,0-0.6,0.2-0.6,0.4
		c-0.6-0.6-1.4,0-1.4,0.6c-0.2,2-1,4.4-3.4,4.2c-2-0.2-3.2-2.2-3.4-4.2c0.2-0.2,0.2-0.4,0-0.6v-0.2c0.2-0.6-0.6-1-1-0.6
		c-0.8-0.2-1.6,0-2.4,0c-1.2,0-2.6,0-3.8-0.2c-0.6,0-0.8,0.2-1,0.6c-0.8-0.4-1.4,0.4-1.4,1c0.2,1,0.4,1.8-0.2,2.8
		c-0.4,0.8-1.2,1.4-2.2,1.2c-1.8-0.2-2.6-2.4-2-4c0,0,0.2,0,0.2-0.2c0.2-0.2,0.2-0.6,0.2-0.8c0,0,0-0.2-0.2-0.2l0,0l0,0
		c0,0-0.2-0.2-0.4-0.2c-1.2-0.4-2.4,0.2-3.4,0.6c-1.4,0.4-2.6,0.8-4,1.2c-0.2,0-0.4,0.2-0.4,0.4c-0.4-0.2-0.8-0.4-1.4-0.2
		c-0.4,0-0.6,0.4-0.6,0.8c0,1.4,1.4,2.2,1.4,3.6c0,1.8-1.6,3.2-3.2,3.4h-0.2c-0.2,0-0.4,0-0.4,0l-0.2-0.2c0-0.2-0.2-0.4-0.4-0.6
		c-1.6-1-2.8-2-3.4-3.8c-0.2-0.6-1-0.8-1.4-0.6c-0.2-0.2-0.6-0.2-1-0.2c-1.2,0.6-2.4,2-4,1c-1.4-1-1-3,0.2-4c1-0.8-0.2-2.2-1.2-1.6
		l-0.2,0.2c0,0,0,0,0-0.2c-1-1.2-2.4-1.6-3.2-2.8c-0.4-0.6-1.2-1-2-0.6c-2,1-4,1.6-6,2.4c-0.4,0.2-0.6,0.4-0.6,0.8
		c-0.8-0.4-1.8,0.2-1.6,1.2c0.8,2,1.8,4.2-0.2,6c-1.8,1.6-4.4,0.8-4.6-1.6v-0.2v-0.2c0-0.6-1-0.8-1.2-0.4c-1.2,0.4-2,1.4-2.8,2.2
		c-1,0.8-2.2,1.4-3.4,2c-0.2,0-0.2,0.2-0.4,0.4c-0.2,0-0.4,0-0.6,0c-0.4,0-0.8,0.6-0.8,1c0,0.8,0.4,1.2,0.6,1.8
		c0.2,0.6-0.2,1.6-0.4,2c-0.4,0.8-0.8,1.4-1.4,1.8c-0.6,0.4-2.8,1.2-2.4-0.4c0.2-1-1-1.4-1.6-0.6c0,0.2-0.2,0.2-0.2,0.4
		c-0.8,0-1.4,0.6-2.2,1.2c-1,0.6-2,1.2-3,1.6L47,67.8c-0.4-0.2-0.8-0.4-1.4-0.4c-0.6,0-1.2,0.6-1,1.4c0.2,1,1,1.4,1.6,2.2
		c0.6,1,0.8,2,0.4,3c-1,2.4-4.2,2.4-5-0.2c0-0.4-0.4-0.6-0.8-0.6c-0.4-0.2-0.8-0.2-1.2,0c-1.4,0.8-2.2,2.4-3.2,3.8
		c-0.8,1.2-1.6,2.2-2,3.6C34,82.2,34,83.8,35,85c-0.2,0.2-0.4,0.4-0.4,0.6c-0.2,0.6-0.2,1,0.4,1.4c0.8,0.6,1.6,0.2,2.4,0.4
		c1.2,0.2,2.2,0.8,2.8,1.8c1,1.6,0.4,5.2-1.6,5.4l-0.2-0.2c-0.4-0.2-0.6-0.2-1,0c-0.6,0-1,1-0.6,1.4c0,0.8,0.4,1.8,0.8,2.4
		c0.4,1,1,2,1.8,2.8c-0.2,0.2-0.2,0.4-0.2,0.8c-0.2,0.8,0.8,1.6,1.4,1.2c1.8-1.2,4-2.8,5.8-0.8c2,2.2,0.2,5-2.6,4.8
		c-0.8,0-1,0.8-0.4,1.2c-0.2,0.2-0.2,0.2-0.4,0.4c-0.2,1.2,0.8,2,1.4,3c0.6,1.2,1,2.4,1.2,3.6c0,0.4,0.4,0.6,0.6,0.6
		c0,0.2,0,0.4,0.2,0.6c0.2,0.8,1.2,1.2,1.8,0.4c0.6-0.6,0.8-1.4,1.6-1.8c1-0.6,2-0.2,2.6,0.6c1.6,2,0,4.4-2.2,5.2
		c-0.4,0-1,0.2-1,0.6c-0.2,1.4,0.6,2.4,1.2,3.8c0.8,1.4,1.6,2.8,2.4,4.2c0,0.2,0.2,0.2,0.4,0.4c0,0.2,0.2,0.4,0.4,0.8
		c0.6,0.8,1.8,0.6,2-0.2s0.4-1.4,1.2-1.8c0.8-0.4,1.8,0,2.4,0.6c0.6,0.6,1,1.4,1.2,2.2c0.4,1.2-0.2,3.4-2,2.8
		c-0.6-0.2-0.8,0.4-0.8,0.8c-0.4,0.2-0.8,0.8-0.6,1.4c0.6,1.8,2.2,3.6,3.6,4.8l0,0c0.2,0.4,0.6,0.8,1.2,0.6c0.8-0.2,1.4-1,2.2-1.2
		c0.8-0.2,1.8,0,2.6,0.6c0.6,0.6,1,1.6,0.8,2.4c0,1-0.4,1.4-1.2,1.6c-0.2-0.4-0.8-0.4-0.8,0c0,0.2,0,0.4,0,0.6
		c0,0.2,0.2,0.4,0.4,0.6H66c-0.6,0-1.4,0.4-1.2,1c0.2,1.4,1.4,2.2,2.4,3s2,1.6,3.2,2.4c0,0.2,0.2,0.4,0.4,0.6c0.6,0.8,2,0.8,2.2-0.2
		c0.2-1.6,0.6-3.2,2.4-3.6c2-0.4,3.6,0.8,4.8,2.4c-0.2,1,1,2,2.2,1.6c1.4-0.6,2.8-1.8,4-3c0.2,0,0.6,0.2,1,0.2c0.6,0,1-0.6,0.8-1.2
		c-0.2-1-1-1.6-1.2-2.6c-0.2-0.8-0.2-1.6,0-2.4c2-0.2,4,0.4,5.8,1.4c0.2,0.2,0.2,0.4,0.4,0.4c0.4,0.2,1,0.4,1.4,0
		c0.8-0.6,1.6-1.4,2.4-2.2c0.4-0.4,0.6-0.8,1-1.2c0.6-0.2,1-0.6,0.8-1.2l0,0c0,0,0-0.2,0.2-0.2c0.2-0.4,0.2-0.8-0.2-1
		c-0.2-1.8-0.2-4.4,1.6-4c0.8,0.2,1.4,0.6,2,1c0.2,1.2,0.4,2.4,0.4,3.6c0,1.4-0.2,2.6-0.6,4c-0.2,0.8,0.4,1.8,1.2,1.6
		c1.2,0,2.4-0.2,3.8-0.4c0,0,0.2,0.2,0.4,0.2c0.4,0.2,0.8,0.2,1-0.2c0.6-0.6,0.4-1.4,0.8-2.2c0.4-1,1.4-2,2.6-2
		c2.4-0.2,3,2.4,3.4,4.2c0,0.2,0,0.4-0.2,0.4c0,0.4,0.2,0.6,0.4,1c0.2,0.4,1,0.6,1.4,0.4c1.4-0.6,2.8-1,4.4-1.2c0,0,0,0,0.2,0
		c0.6,0.2,1.4-0.4,1.4-1c0.2-1.6,1-3,2.8-2.6c1.2,0.2,2.2,1.2,3,2c-0.2,0.2-0.2,0.6,0,0.8c0.2,0.6,0.6,1,1.4,1c2,0,3.6-0.6,5-1.6
		c0.6,0,1.2-0.2,1.2-0.8c0.4-1.6,0-3.8,1.6-5c2.8-2,2.6,2.2,2.4,3.6c-0.2,1.2,1,2.4,2.2,1.8c1.4-0.8,2.8-1.6,4.4-2.2l0,0
		c0.6,0.6,1.4,0.8,1.8,0c1-1.6,0-4.2,1.8-5.4c1.6-1,2.6,1,3.4,2.2c-0.2,1,0.8,2.2,1.8,1.8c1.4-0.6,2.2-1.6,3.6-2.2
		c1.4-0.4,2.8-0.2,4.2-0.2c1.2,0,1.6-1,1.4-2c-0.2-2,0.2-4,0.8-5.8C165.2,131,164.8,130.6,164.6,130.4z M95.6,61.6
		c0.2,0.6,0.4,1.2,0.8,2c0.4,1,0.6,2,0.8,3l0,0H97c-1.2,0.4-2.6,0.2-3-1.2C93.6,64,94.6,62.6,95.6,61.6z M161.6,135.6
		c-2.4-0.4-5.6,0.4-7.4,2c-0.8-2-2.6-3.6-5-3c-1.4,0.4-2.6,1.6-3.2,3c-0.4,0.8-0.6,2-0.6,3.2c-1,0.2-2,0.6-2.8,0.8
		c0-2.8-1.2-5.8-4.8-5.4c-3.8,0.4-5.4,4.4-4.4,7.8c-1.4,0.4-2.8,0.4-4,0.2l0,0c-1-2.2-3.2-4.2-5.8-3.8c-2.2,0.4-4.4,2.8-3.8,4.8
		c-1.2-0.2-2.2-0.2-3.6,0c0.8-2.6-2.2-5.6-4.6-5.8c-1.8-0.2-3.6,1-4.6,2.4c-0.4,0.6-0.8,1.4-0.8,2.4c-0.4,0-1-0.2-1.4-0.2
		c0.4-2,0.6-4,0-6h0.2c0.4,0,0.6,0,0.8-0.2c1-0.8,2-1.8,3-2.6c0.6,0,1.2-0.6,1.2-1.2c0-1.4-1.2-2.6,0.4-3.6c1.4-1.2,3.6,0.2,4.4,1.4
		c0.4,0.8,1.4,0.6,1.8,0c0.2,0,0.2,0,0.4-0.2c0.8-0.4,0.8-1.2,1.2-1.8c0.4-0.6,1-0.8,1.6-0.8c1,0,1.4-1.6,0.2-1.8h-0.2
		c-0.2-1.6-0.6-3.2,1-4.4c1.4-1.2,3-0.8,4.4,0c0.4,0.6,1,0.8,1.8,0.6c1.4-0.6,2.2-1.8,3.2-2.8c1-1.2,2.2-2.2,3.2-3.4
		c0.4-0.4,0.6-1.2,0.2-1.6c-1.2-1.6-2.4-3.2-3.6-4.6c-0.4-0.6-1.2-0.4-1.6,0c-0.8,0-1.4,0.6-2.2,0.6c-1,0-2-0.2-2.8-1
		c-1.6-1.6,0-4.2,2-4.8c0.2,0,0.4,0,0.8,0c0,0,0,0,0.2-0.2l0,0c0.2,0,0.4,0,0.4-0.2c5,2,10.4-3.6,13.6-6.8c3.4-3.4,4.4-9.6-0.8-12
		c-3.4-1.6-6.4-0.2-8.6,2c-1.6-3.6-4.4-6.2-9-4.2c-2.8,1.2-3.6,4-3.4,7c-0.4-0.6-1.2-1-1.6-1.6c-0.8-0.8-1.4-1.8-2.2-2.8
		c-0.6-0.8-1.8,0-1.6,1c0.4,1.2,1.2,2.4,2,3.4c0.2,0.4,0.6,0.8,0.8,1c-2.6,1.2-4.4,4-2.8,7c0.8,1.6,2.4,2.6,4.2,2.6
		c1.2,0,2.6-0.6,3.4-1.8c0.4,1,0.8,2,1.6,3c0.2,0.2,0.4,0.6,0.6,0.8c-2.6,1.4-4.2,4.8-2.4,7.6c1,1.8,3,2.8,5,2.8
		c1,0,2.6-0.4,3.6-1.2c0.6,0.8,1,1.6,1.6,2.6c-0.8,0.8-1.8,1.6-2.6,2.4c-0.8,0.8-1.8,1.4-2.4,2.2c-1.8-1.4-4.6-1.6-6.6-0.4
		c-2.2,1.4-3.4,5-2.2,7.4c-0.2,0-0.4,0.2-0.4,0.2c-0.4,0.2-0.8,0.6-1.2,1c-1.8-2-4.6-2.8-7-1.2c-1.4,1-2.2,2.6-2.2,4.2
		c0,0.8,0.2,1.6,0.6,2.2c-0.8,0.4-1.8,0.8-2.6,1.2c-0.2,0.2-0.4,0.2-0.4,0.4c-1.8-1.6-3.8-3.4-6.4-2.2s-3,5.4-2,7.8
		c-0.2,0.2-0.4,0.2-0.6,0.4c-0.8,0.6-1.8,1.2-2.4,1.8c-0.8-0.8-1.8-1.4-3-1.8c-1.6-0.4-4.2-1-5.2,0.4s-1,4.2,0,6.2c-1,0.4-2,1-3,1.6
		c-1.4-2.4-4-4.4-6.8-3.8c-1.8,0.4-3.8,2-4.4,4c-0.4-0.6-1-1-1.4-1.6c-0.6-0.8-1.4-1.8-2.2-2.2c1.2,0.2,2.2-0.6,2.8-1.6
		c0.8-1.6,0.6-3.4-0.2-5c-1-1.4-2.6-2.4-4.4-2.2c-1,0-2.4,0.4-3.2,1.2c-0.4-0.4-0.6-1-1-1.4c-0.4-0.6-0.6-1.4-1-2.2
		c1.2,0,2.2-0.8,2.8-2c0.8-2,0.2-4.4-1.2-6s-3.4-2.4-5.4-1.6c-0.6,0.2-1.4,0.8-1.8,1.4c-0.4-0.8-0.6-1.8-1-2.6
		c-0.4-0.8-0.6-1.6-1-2.4c3.2-1.4,5-5.4,2.6-8.4c-1.2-1.6-3.2-2.2-5-1.6c-0.6,0.2-1.4,0.6-1.8,1.2c-0.2-1-0.4-1.8-0.8-2.6
		c-0.2-0.6-0.6-1.4-1.2-2c3.2-0.2,5.2-4.4,3.6-7.4c-1.6-3-6-3.6-8.4-1.6c-0.4-0.8-0.6-1.4-1-2.2c0-0.2-0.2-0.6-0.2-0.8
		c2.6-0.6,4.2-4,3.8-6.6c-0.4-2-1.6-3.6-3.6-4.6c-0.8-0.4-2-0.8-3.2-0.6c-1.4-2,2.2-5.6,3.8-8.2c1.4,2.4,5,3,7.2,0.8
		c1.4-1.4,2-3.4,1.6-5.2c-0.4-0.6-0.8-1.8-1.4-2.6c1,0,2-0.2,3-0.6c0.6-0.2,1.2-0.4,1.6-0.8c0.2,0.4,0.6,0.6,1,0.8
		c1.8,1,3.8,0,5-1.2s2.2-3,2.4-4.8c0-0.8-0.2-1.8-0.6-2.4c1.2-0.4,2.4-0.8,3.6-1.4c0.6-0.4,1.2-0.8,1.8-1.2c1,2.2,3.6,3.4,6,2.2
		c3.2-1.4,4.4-6,2.4-8.8c2,0,4-0.4,5.8-1.2c1,1,2.2,2,3.4,2.2c-1,1.8-0.6,4.2,1,5.6c1.2,1,2.8,1.2,4.4,0.8c0.8-0.2,1.8-0.8,2.4-1.6
		c0.6,1.4,1.6,2.8,2.8,3.6c-2,1.4-3.2,4-2,6.4c1.2,2.4,5.6,4,6.8,0.6c0-0.2,0-0.4,0-0.6c0.4,1,1,1.8,1.6,2.8
		c0.2,0.2,0.4,0.6,0.6,0.8c-0.8,0.4-1.6,1-2.2,1.8c-1,1.4-1.4,3.2-0.6,4.8c1.4,2.6,4.8,2.6,7.2,1.4v0.2c0.2,0.6,1,0.6,1,0
		c0.2,0.8,0.6,1.6,1.2,2.4c0.2,0.2,0.2,0.2,0.4,0.4c-2.2,1.2-3.6,3.6-2.4,6.2c0.6,1.6,2.2,2.8,4,2.8s3.4-1,3.8-2.8c0.2-1-1-2-2-1.2
		c-1,1-2.8,1.2-3-0.6c-0.4-1.4,0.6-2.4,1.6-3c0.4,0.2,0.8,0.2,1.2,0c0.4-0.2,1-0.6,0.8-1.2c0-1.4-1.4-1.8-2.2-2.6
		c-0.8-0.8-1.6-1.8-2-2.8c-0.2-0.4-0.8-0.6-1.2-0.4c0-0.2-0.2-0.4-0.4-0.4c-0.2-2-0.4-4.2-0.6-6.2s-0.4-4.4-1.2-6.4
		c15,2,30.2-1.4,45.4-0.8c0.2,0,0.4,0,0.4,0c-0.8,11.4,0,22.8,0.6,34.2c0.6,10,0.6,20.4,2.4,30.4c-14,4.4-27.4,6.2-42,7.2
		c-1,0-1.4,1.6-0.2,2c14.2,2.6,30-0.4,42.8-7.2c0.4,0.4,1.2,0,1.2-0.6c0,0,0,0,0-0.2c0.4-0.4,0.4-1,0-1.4
		c0.4-10.6-0.8-21.6-1.2-32.2c-0.4-11.2-0.4-22.6-1.4-33.8c-0.2-1-1.2-1.2-1.8-0.6c-0.2,0-0.2-0.2-0.4-0.2c-15.6-2-31.8,2.4-47.6,2
		c-0.8,0-1,1.2-0.6,1.6c-0.2,2.2,0.4,4.2,0.8,6.2c-0.4-0.2-0.6-0.6-1-0.8c-0.8-0.8-1.6-1.8-2.2-2.8c-0.2-0.2-0.6-0.4-0.8-0.4
		c0-0.8-0.2-1.8-0.4-2.6C98,62.2,98,61.6,97.6,61c2.2-0.2,4-1.6,4.6-3.8c0.2-1,0-2.8-0.6-4.2c1.4-0.2,2.6-0.4,4-0.6
		c0.6,0,1-0.2,1.6-0.2c-0.6,2.4,1,5.4,3.6,5.8c1.8,0.2,3.6-1,4.4-2.6c0.6-1.2,0.8-2.6,0.4-3.8c1.2,0.2,2.4,0.6,3.6,0.6
		c0.8,0,1.4,0.2,2.2,0c0,2.8,2,5.6,5,5.6c2.8,0,6.2-3.2,5.2-6l0,0c0.8,0,1.8,0.2,2.6,0.2c0.6,0,1.2,0.2,1.8,0
		c-0.8,2.2,1,5.2,3.2,5.8c3.4,1.2,7-1.6,7.6-4.8c0.8,0,1.8,0.2,2.6,0.2c0.2,0,0.4,0,0.6,0c-0.6,1.4-0.4,3.2,0.4,4.6
		c1,1.6,2.8,2.6,4.8,2.6c0.8,0,2,0,3-0.6c-0.2,1-0.4,2.2-0.6,3.4c0,1-0.2,2,0,2.8c-2.6-0.2-5,2.2-4.6,5c0.4,2.6,3.8,4.8,6.2,3.8
		c0,0.8-0.2,1.4-0.2,2.2c0,0.6-0.2,1.2-0.2,1.8h-0.2c-1.8-0.2-3.4,1.4-4,3.2c-1.2,3.6,2,7.6,5.6,6.8c-0.6,1.8-0.8,3.8-0.8,5.8
		c-0.2,0-0.4,0-0.6,0c-2,0.2-3.4,2-4,3.8c-0.6,2,0,4.2,1.8,5.4c1,0.6,2.2,0.8,3.4,0.6c-0.2,1-0.2,2,0,3h-0.2c-2.2,0.4-4,2.4-4.4,4.4
		c-0.8,3.2,2.2,6.4,5,6.4c-0.2,0.8-0.4,1.6-0.6,2.4c-0.2,0.6-0.2,1.4-0.2,2.2c-0.2,0-0.4,0-0.6,0.2c-2,0.8-3.4,3-3.4,5.2
		c0,3.2,3.4,5.2,6,4.4C162,133.8,161.8,134.8,161.6,135.6z M119.2,93.8c0.4,1.4,0.8,2.8,1.6,3.8c0,0-0.2,0-0.2,0.2
		c-0.4-0.2-0.8-0.2-1.2,0c-1,0.6-2.6,1.8-3.2-0.2C115.4,95.6,117.4,94.2,119.2,93.8L119.2,93.8z M100.8,73.8c0.4-0.6,1.2-1,1.8-1.4
		c0.2,0,0.2,0,0.4,0c0.2,0,0.2,0,0.4,0c0.4,1.4,0.6,2.6,1,4c-1.4,0.2-3,0.6-3.8-0.2C100,75.6,100.2,74.4,100.8,73.8z"/>
	<path fill="#1D1D1B" d="M84.4,84.6c-7.6-3.6-10.8,4.2-10.8,10.8c-4.4-0.2-9,1.4-9.8,6c-1,5.4,4,7.6,9,8.2c0.4,0.2,1,0.2,1.4,0.4
		c2.4,0.6,5.4,1.2,7.8,0.2c1.2,0.2,2.2-0.4,3-1.6C88.4,102.4,93,88.8,84.4,84.6z"/>
</g>
</svg>
