<?xml version="1.0" encoding="utf-8"?>
<!-- Generator: Adobe Illustrator 18.1.1, SVG Export Plug-In . SVG Version: 6.00 Build 0)  -->
<svg version="1.1" id="Capa_1" xmlns="http://www.w3.org/2000/svg" xmlns:xlink="http://www.w3.org/1999/xlink" x="0px" y="0px"
	 viewBox="0 0 200 200" enable-background="new 0 0 200 200" xml:space="preserve">
<g>
	<path fill="#1D1D1B" d="M128.3,59.9c-0.2-1.4-1.8-1.6-2.4-0.8c-0.2-0.2-0.6-0.4-1-0.4c-17-0.4-34.4-0.2-51.4,1.8c0-0.2,0-0.4,0-0.4
		c0-0.8-1.4-1-1.4,0c-1.8,25.8-0.8,52-1.2,77.8c0,1.2,1.2,1.6,2,1.2c-0.4,0.2-0.6,1,0,1.2c8.6,1.2,17.4,0.2,26.2-0.2
		c9.4-0.4,19-0.2,28.4-0.4c1.4,0,1.8-2.4,0.4-2.6c-17-2.6-38.2-2-54.8,2.2c0.4-0.2,0.6-0.6,0.6-1.2c0.4-13,0.4-26,0.4-39
		c0-5.8,0-11.6,0-17.6c0-5.2,1.2-14-1-19h0.2c17.2,0,34.4-0.6,51.6-0.6c0.4,0,0.6-0.2,0.8-0.2c1.6,25.4,2.2,50.8,3.2,76.2
		c0,1.4,2,1.4,2,0C132.3,112.1,130.9,85.5,128.3,59.9z"/>
	<path fill="#1D1D1B" d="M141.9,139.3C141.9,139.1,141.9,139.1,141.9,139.3c0.8-1,0.4-2.6-0.8-2.4c-1.6,0.2-3.6-0.4-3.2-2.6
		c0.4-2.2,2.8-2.6,4.4-3.4c0.2-0.2,0.4-0.4,0.4-0.6c0.2-0.2,0.4-0.6,0.4-1c0-1.2-0.4-2.4-0.6-3.6c0-1.2,0-2.4,0-3.6
		c0-0.2,0-0.2-0.2-0.4c0-0.6-0.6-1.2-1.2-1.2c-2,0.2-4,0.2-4.4-2.4c-0.2-2,1.2-4.2,3.2-4.6l0,0c0.4,0.4,1,0.4,1.4,0
		c0.6,0,1.2-0.8,0.8-1.4c0.2-1.2,0-2.4,0-3.6c0-1.8,0.4-3.4,0-5.2c0-0.6-0.8-0.8-1.4-0.6c-1-0.8-2.8,0.8-3.8-0.6
		c-1.8-2.2,1.6-4.6,3.2-5.4c0.8-0.4,0.6-1.4,0-1.8c0-0.6-0.2-1.4-0.4-2c-0.2-1.4-0.2-3-0.4-4.4c0.4-0.8,0.2-1.6-0.6-2
		c-0.8-0.2-1.6,0-2.4-0.4c-0.8-0.4-1.4-1.4-1.4-2.4c0.2-2.2,2.6-3.4,4.4-3.6c0.6,0,1-0.8,0.8-1.2c0.2-1.4,0.2-2.8,0-4.2
		c0-1.6,0-3.2-0.4-5c0-0.8-0.6-1-1.2-1c-0.2,0-0.4-0.2-0.6-0.2c-1.6,0-3.8,0-4.6-1.8c-0.8-2,0.8-3.6,2.4-4.2c0.6-0.2,0.6-1,0.2-1.6
		c0.2-1.2-0.2-2.6-0.4-3.8c-0.4-1.6-0.8-3.2-1.2-4.8c-0.2-0.6-1-0.6-1.4-0.2c-0.2,0-0.2-0.2-0.4-0.2c-1.8,0-3.4,1-5.2,1
		c-2.2,0-5.2-0.8-5.2-3.6c0-1-1.2-1.2-1.6-0.6c-0.8-0.4-1.6-0.2-2.6-0.2s-2-0.4-3-0.6c-0.8-0.2-1.2,0.4-1.2,1
		c-0.4,0.2-0.6,0.4-0.8,0.8c-0.6,1.6-1.6,3.4-3.4,3.6c-2,0.4-3.8-1.4-4-3.2c0-0.6-0.6-1-1.2-1c-1-0.4-2.2,0-3.4,0c-1,0-2,0-3,0l0,0
		c-0.4-0.6-1.4-0.6-1.8,0c-0.6,0-0.8,0.8-0.6,1.2c-0.4,1.2-0.8,2.6-2.4,3.2c-0.8,0.4-1.8,0.4-2.6,0.2c-0.4-0.2-1-0.2-1.4-0.6
		c-0.2,0-0.2-0.2-0.4-0.2c-0.2-0.4-0.2-0.6-0.4-0.6c0.4-0.4,0.4-1-0.2-1.2c-0.2-0.2-0.6-0.2-0.8-0.2l-0.2-0.2
		c-1-0.4-2.2-0.2-3.4-0.2c-1.2,0-2.4,0-3.6-0.2c-0.2,0-0.2,0-0.4,0c-0.4,0-0.8,0.2-1,0.6c-0.2,1.4-1,2.8-2.4,3.4
		c-0.6,0.2-1.4,0.4-2,0.2c-0.4,0-2-1-2-0.8c0.6-0.4,0.4-1.4-0.4-1.2c-0.6,0-1,0.4-1.2,1c0-0.2-0.2-0.2-0.2-0.4
		c-1.2-1-2.8-0.8-4.2-0.6c-1.4,0-3,0-3.8,1v0.2c-0.8-0.2-1.4,0-2,0.6c-0.4,0.6-0.4,1.2,0,1.8c0.8,0.8,2,0.6,2.8,1.4
		c0.8,0.8,1.4,2,1,3c-0.6,2.2-3.8,2.4-5.2,1.2c-0.8-0.6-1.8,0-1.6,0.8c-0.6,0.8-0.6,1.8-0.6,2.8c0,1.4,0.2,2.6,0.4,4v0.2
		c-0.8,0.8-0.4,2.6,1,2.4s3-0.6,4.4-0.4c0.8,0.2,2,1,1.8,2c-0.2,1.4-2.2,1.6-3.2,1.6s-2-0.6-3,0c-0.6,0.4-0.6,1.2,0,1.6
		c-0.2,0.8,0.2,1.8,0.2,2.8c0.2,1.4,0.2,3,0.8,4l0.2,0.2c-0.8,0.6-1.6,1.6-0.8,2.6c1,1.4,2.8-0.8,4.2-0.8c2.4,0,3,3,1.6,4.4
		c-0.8,0.6-1.8,1-2.8,1.4c1,0,0.8,0,0.8,0c0-0.2,0-0.2,0-0.4c-0.2-1-1.4-0.8-1.8-0.2c-0.8,1-0.8,2.8-0.8,4s0,2.6,0.2,3.8
		c0,0.2-0.2,0.2-0.2,0.4c-0.4,0.6,0.2,1.6,1,1.6c1.2,0,2-0.6,3-1c1.4-0.4,3.2,0,2.6,1.8c-0.6,2-2.6,4.4-4.8,4.6c-0.2,0-0.2,0-0.4,0
		c-0.4,0-0.8,0-1,0.4c-0.4,1-0.2,2-0.2,3.2s0.2,2.4,0.2,3.6c0,0.4,0.2,0.6,0.4,0.8v0.2c0,0.6,0.4,1.4,1.2,1.2c1.6-0.6,4-2,4.8,0.6
		c0.8,3-2.8,4-5,3.2c-0.8-0.2-1.6,0.4-1.6,1.2c0,2.2-1.2,6.6,1,7.8c0,0.2,0,0.4,0.2,0.8c0.2,0.8,1,1,1.6,0.4c0.4-0.4,1-1.2,1.6-1.4
		c1.6-0.6,2.6,1.4,2.2,2.6c-0.6,2.8-4,3.4-6.4,3.8c-0.8,0-1.2,0.6-1.2,1.2c0,2.4-0.4,4.8,0.8,7l0.2,0.2c-0.2,0.2-0.2,0.2-0.4,0.4
		c-0.8,1,0.2,2.6,1.6,2c2.4-1.2,4.6-2.2,7-0.8c2.4,1.4,3.4,4,3,6.6c0,0.6,0.6,1,1.2,1c0.4,0.2,0.8,0.4,1.2,0.2
		c1.4-0.4,2.8-0.8,4.2-1.2c0.2,0.2,0.2,0.2,0.4,0.4c0.6,0.4,1.4,0,1.4-0.8c0-1.4,0.4-2.8,1.2-4c0.6-0.8,2-2.6,2.8-1
		c0.4,0.8,0.4,2,0.8,2.8c0.4,1,0.8,2,1.6,2.6c0.2,0.2,0.2,0.2,0.4,0.2c0.2,0.6,0.6,1,1.4,0.8c1.4-0.2,2.8-0.8,3.8-1.8
		c0.2,0,0.2,0.2,0.4,0.2c0.6,0.2,1.2-0.4,1.2-1c0-0.8-0.4-1.6-0.2-2.4c0.2-1,1.2-1.6,2.2-1.6c2.4,0,3.8,2.2,4.4,4.2
		c0,0.2,0.2,0.4,0.4,0.6c0.4,0.6,1,1,1.6,1c1.2,0,2.6-0.2,3.8-0.6c1.2-0.2,2-0.4,2.6-1.2c0.2,0,0.6,0,0.8,0c1-0.2,1.2-1.4,1-2.2
		c-0.2-1-0.2-2,0.8-2.8s2.2-0.6,3.2,0c1,0.8,1.4,1.8,1.8,2.8c-0.2,0.4,0,0.8,0.2,1.2c1,1,2,0.6,3.4,0.2c0.6-0.2,1.2-0.4,1.8-0.6
		c0.6,0.4,1.8,0.2,2.4-0.6c1-1.4,1.4-3,3.4-3.4c2-0.4,3.8,1,4.8,2.6c0.2,0.2,0.4,0.4,0.6,0.4c0.4,0.6,1,0.8,1.8,0.6
		c1.2-0.4,2.2-1.2,3.4-1.6c1.2-0.4,2.6-0.6,3.8-0.6c1,0,1.8-1,1.4-2C142.3,142.5,142.1,140.9,141.9,139.3z M139.5,142.9
		c-2.4,0-4.8,0.8-6.8,2c-1.2-2.2-3.6-3.8-6.4-3.6c-2.6,0.2-5.4,2.2-5.8,4.8c-0.6,0-1.2,0-1.8,0c-0.4,0-1,0-1.4,0
		c-0.2-1-0.6-2.2-1.4-3c-1.2-1.6-3.2-2.4-5.2-2.2c-3,0.4-5,3.6-4.4,6.6c-0.6-0.2-1-0.2-1.8-0.2c-1.2,0-2.6,0-3.8,0.2
		c-1-3.2-4-5.6-7.4-4.8c-1.6,0.4-3,1.8-3.4,3.4c-0.2,0.6-0.2,1.2-0.2,2c-0.8,0.2-1.4,0.6-2.4,0.6c-0.2,0-0.4,0-0.6,0.2
		c-0.8-1.4-0.6-3.2-1-4.6c-0.6-1.6-2-2.6-3.8-2.4c-2.2,0.2-5.4,4-5.4,6.8c-1.2,0-2.4,0.2-3.6,0.4c0-2.8-1.4-5.8-3.8-7.2
		s-6-1.6-8.4,0c0.4-1.6,0.4-3.4,0.4-5c4.4-0.8,10-4.2,7.2-9.2c-1.2-2.2-5.2-2.6-7-1.4c0-1.2,0.4-3,0.6-4.4c4,0.4,8-2.4,6.8-6.8
		c-0.6-2-2-3.4-4-3.6c-1-0.2-2,0-3,0.6c0-0.8,0.2-1.6,0.2-2.6c0-0.4,0-1,0-1.4c3.6,0.2,7.2-4.8,7-7.8c-0.2-3.6-4.6-4.4-7.4-3
		c0-0.8,0-1.8,0.2-2.6c0-0.6,0.2-1,0.4-1.6c1.2,0,2.4-0.2,3.4-0.6c1.4-0.6,2.8-1.8,3.2-3.4c1.2-4-2.6-7.4-6.4-6.2
		c-0.2,0-0.2,0-0.4,0.2l0,0c0.2-1.2,0.2-2.4,0.2-3.6c0-0.6,0-1.4,0-2c0.4,0,0.8,0.2,0.8,0.2c1,0,1.8,0,2.6-0.4
		c1.6-0.8,2.8-2.4,2.8-4.2c-0.2-3.8-4.4-4.8-7.8-4.2c0-1.2,0-2.2,0.2-3.4c0-0.4,0.2-0.6,0.2-1c2.6,1,6.2-0.2,7.2-3
		c0.8-1.8,0.2-4-1-5.6c-0.2-0.2-0.4-0.6-0.8-0.8c0.4,0,0.8,0,1.2,0c1.4,0,3.2,0.4,4.2-0.6l0.2-0.2c0,0.2,0,0.2,0,0.4
		c0.6,1.4,2.4,2.2,3.6,2.4c3,0.4,5.6-1.8,6-4.6c1.6,0.6,3.4,1,5.2,0.8c0,0.2,0,0.2,0,0.4c0.4,2,2.8,3.2,4.6,3.4
		c2.2,0.4,4.4-0.2,5.8-1.8c1-1,1.8-2.4,1.8-4c0.8,0.2,1.6,0.2,2.6,0.4c0.8,0,1.6,0.2,2.2,0.2c0.6,2.8,3,5,6,5s6-2.8,5.6-5.8
		c1.4,0.8,3.2,1.2,4.8,0.8c0.2,4.4,10,7.2,13.2,3c0,1,0,2.2,0.2,3.2c0,1.2,0,2.4,0.4,3.4c-2.6,1-4,4.2-3.2,6.8
		c0.8,2.6,4.2,4.6,6.8,4c0,1-0.2,2-0.2,3c0,1.2-0.2,2.6,0,3.8c-2.8,0.4-5.6,2.2-5.6,5.4c0,1.8,1,3.8,2.4,4.8c0.8,0.6,2,1,3,1
		c-0.2,1.2-0.2,2.4-0.2,3.6c0,0.8,0,1.4,0.2,2.2c-2.8,1.2-4.8,3.6-4.2,7c0.4,2.6,3.6,5,6.2,4c-0.2,0.8-0.2,1.6-0.2,2.4
		s-0.2,1.6-0.2,2.4c-3,0.2-5.6,4-5.6,7c0,2.2,1.2,4.2,3.2,5.2c1,0.6,2.2,0.8,3.4,0.4c-0.4,1.6-0.4,3.6,0,5c-2.8,0.4-5.6,3.2-5.6,6
		c0,2.4,2.6,5.2,5,5.2C139.5,141.1,139.5,141.9,139.5,142.9z"/>
	<path fill="#1D1D1B" d="M118.9,81.3c-1.4-3.8-5-5.4-9-3.8c-4.8,2-8,8-10,13.2c-2-4.4-5-9.6-9.2-10.6c-4.8-1.4-8.8,3-9.8,7.2
		c-2.4,10.2,8.2,22.6,18.2,25.2c0,0,0,0,0.2,0.2l0,0c0.2,1,1.4,1.8,2.4,1.2C109.9,107.9,123.3,92.7,118.9,81.3z"/>
</g>
</svg>
