<?xml version="1.0" encoding="utf-8"?>
<!-- Generator: Adobe Illustrator 18.1.1, SVG Export Plug-In . SVG Version: 6.00 Build 0)  -->
<svg version="1.1" id="Capa_1" xmlns="http://www.w3.org/2000/svg" xmlns:xlink="http://www.w3.org/1999/xlink" x="0px" y="0px"
	 viewBox="0 0 200 200" enable-background="new 0 0 200 200" xml:space="preserve">
<g>
	<path fill="#1D1D1B" d="M156.2,65.9c-3,2.8-3,10.2-3.8,13.8c-1.2,5.8-2,11.4-2.4,17.2c-5-0.8-11.8,0-15.4,0c-9.6,0-19,0.8-28.4,2.2
		c-1.8,0.2-1.8,2.2-0.8,3.2c-0.4,0-0.8,0.2-0.8,0.6c-1.4-1.2-3-2-4.4-2.2c-3-0.6-6.4,0.8-8.2,3.2c-0.2-0.4-0.4-0.8-0.8-1
		c-4.4-4.6-18-3.6-23.6-3.6c-8.4,0-16.6,0.8-24.8,2c3.8-5.2,7.4-10.4,11.4-15.4c2.4-3,4.8-6,7.6-8.8c4-4.2,17-11.8,18.4-1.8
		c0.2,1.6,2.8,1.6,3,0c1.6-10.4-10.6-11.4-17.2-7c-11.2,7.4-19.4,21.8-26,33.4c-0.2,0-0.4,0-0.6,0c-0.4,0-0.6,0.2-0.8,0.4
		c-0.8,0-1.4,0.4-1.6,1.4c-1.6,7.8-5.4,28,5.6,31c7.6,2.2,18,0.6,25.8,0.4c5.2-0.2,15.8,1.2,20.2-2.6c3.6-3,5.8-15.8,4.8-23.8
		c0.2,0,0.4-0.2,0.6-0.4c1.4-1.6,3.2-3,5.4-2.4c2.2,0.8,2.4,3,3.8,4.8l0,0c-1.2,8.6-0.6,17.8,8.8,20c7.8,1.8,16.2,0,24.2-0.6
		c4.6-0.2,14.2,2.2,18.2-1c3.8-3,2.8-11.8,2.8-15.8c0-3.8,1-11.8-2.4-14.8c-0.6-0.4-1.2-0.8-1.8-1.2c1.2-5.6,2.2-11.4,3.4-17
		c0.6-2.6,0.8-6.8,2.2-9c0.2-3,0.8-3,2-0.2c0.6,1.6,0.8,3.4,1,5.2c0.2,1.6,2.8,2.4,3.2,0.4C165.4,73.3,162.4,60.1,156.2,65.9z
		 M87.6,123.1c-5,10-20.2,7.6-30,7.6c-5,0-11.2,1.2-14.8-2.2c-5-4.8-3-17.2-2-23.4c0,0,0,0,0-0.2c9.6-0.4,19.2-1.4,28.8-1.2
		c3.8,0,15.2-0.8,18,1.6C91.2,108.3,89.4,119.7,87.6,123.1z M145.6,125.9c-4,0.6-8.8-0.2-13,0.2c-4.6,0.4-9.2,1-13.8,0.8
		c-7.2-0.2-11.2-3.6-11.4-11c0-2-0.2-4.2-0.2-6.2c0.4-1.2,0.2-2.6-0.2-3.8c0-1-0.2-1.8-0.4-2.8c0,0,0,0,0-0.2c0.2,0,0.4,0,0.8,0
		c11-1.6,22-2.2,33-2c7,0.2,11.6,1.4,12.8,9.2C154,116.5,153.2,124.7,145.6,125.9z"/>
	<path fill="#1D1D1B" d="M64.2,111.9c-0.8,1.4-1.8,2.6-2.4,4c-1.4-1.2-2.6-2.8-3.8-4.2c-1.6-1.8-4.6,0.2-4,2.2
		c1.2,3.6,3.8,7,6.2,9.8c1.6,1.6,4.4,1.2,5.4-0.8c1.6-2.4,3.2-5,4.6-7.4C72.4,111.5,66.8,108.3,64.2,111.9z"/>
	<path fill="#1D1D1B" d="M134.8,107.7c-2,0.2-3.4,2-4.6,4c-1.4-1-2.8-2-4.2-2.8c-2.2-1-5,1.2-3.4,3.4c1.8,2.6,4.2,5,6.4,7.2
		c1.4,1.4,4.6,1.4,5.6-0.8c0.6-1.4,1.4-2.8,2.2-4c1-1.4,2-2.2,2-4.2C138.8,108.5,136.8,107.5,134.8,107.7z"/>
</g>
</svg>
