<?xml version="1.0" encoding="utf-8"?>
<!-- Generator: Adobe Illustrator 18.1.1, SVG Export Plug-In . SVG Version: 6.00 Build 0)  -->
<svg version="1.1" id="Capa_1" xmlns="http://www.w3.org/2000/svg" xmlns:xlink="http://www.w3.org/1999/xlink" x="0px" y="0px"
	 viewBox="0 0 200 200" enable-background="new 0 0 200 200" xml:space="preserve">
<g>
	<path fill="#1D1D1B" d="M146.4,89c-0.4-6.6-5.2-10.6-10.8-12.4c4.4-2.6,7.2-6.6,4.8-12.2c-0.8-2-2.2-3.4-3.6-4.6
		c-1-1.2-2.2-2.2-3.8-2.6c-0.8-0.2-1.6,0.2-2,0.6c-2.4-0.2-5.2,0.4-7.6,1.2c1.4-14.6-18.6-19.2-26.2-7c-8.8-10.4-21.6-8-26,4.8
		c-3.8-4.4-10.4-6-15.6-2.2c-6.6,4.8-6.4,12.6-2.4,18.6c-6.4,1.2-11.4,5.4-12,12.4c-0.4,5.6,2.8,12.6,8.6,13
		c-10.8,8,0.2,23.6,11.6,18.6c-0.8,4.6-0.2,9.8,4.4,11.8c4.6,2,12.2,0.2,16.4-3.4c-0.8,12.6,20.4,14.4,24.8,4.8
		c4.6,5.8,13.2,7.4,19.2,2.2c4.4-3.8,5.2-10,3.2-15c5,1.6,10.6,1.6,13.4-3.8c2.4-4.6,0.2-10.6-3.8-14
		C143.4,98.8,146.8,94.2,146.4,89z M136.2,115c-3.4,1.4-7.8-1-10.8-2.4c-1.6-0.6-2.6,1.6-1.6,2.8c4.2,4.4,4.6,12-1.2,15.6
		c-5.4,3.4-10.4,0-14.6-3.2c-0.2,0-0.2-0.2-0.4-0.2c0-0.6,0-1,0-1.6c0-0.8-1.4-1.2-1.4-0.2c-0.8,5.4-6.4,8.2-11.4,8
		c-5.8-0.2-8.6-4-10.4-9c-0.4-1-2-1.2-2.2,0l0,0c-3,0.4-5.8,1.4-8.8,1.6c-7.2,0.6-10.2-4-8.8-11c0.2-1-1-2.2-2-1.4
		c-4,3-9.2,2.8-12.4-1.2c-3.2-4.2-2.2-8.8,1.4-12.4c0.4-0.4,0.4-1,0-1.4c0.4-0.4,0.4-1.2-0.2-1.4c-14-4-6.2-20.6,4.4-21.2
		c1.4,0,2-1.6,1-2.6C47.4,63.4,61.4,48.4,70,60.6c0,0.2,0,0.2,0,0.2c-0.2,0.8,0.4,1.4,1.2,1.4c0,0.2,0.2,0.2,0.2,0.4
		c0.6,1.2,2.6,0.4,2.2-1c-0.2-0.6-0.4-1.4-0.8-2c1.2-3.4,2.6-5.2,5.8-7.8c2.4-3.4,5.2-3.8,8.8-1.2c4.2,0,7,2,8.6,6
		c0.8,1.2,2.6,1,3.2-0.4c5.4-14,22.2-6.4,21.6,6.2c0,1.2,1.8,1.4,2,0.2c0,0,0,0,0-0.2c0,0,0,0,0.2,0c3.4-1.4,5.8-1.4,9.4-0.2
		c0,0,0,0,0.2,0c1.2,1.2,1.8,2.4,2.2,4.4c0.4,3,0.2,8-3.8,8.4c-0.8,0-1.2,0.4-1.2,1c-1,1-0.4,2.6,1.2,2.8c4.4,0.4,9.2,2,11.2,6.4
		c2.4,5.8,0.2,11.8-6.8,12.6c-0.2,0-0.4,0.2-0.6,0.2c-1.2,0-1.6,1.8-0.2,2.4C139,102,143,112,136.2,115z"/>
	<path fill="#1D1D1B" d="M158.2,131c-2-3.8-6.6-4.4-9.6-2.4c0-3.2-2.2-6-5.8-6.2c-3.8-0.2-7.4,4.2-5.2,7.6c-3.4,0-7.2,2-7.8,5.6
		c-0.4,2.8,1,5.6,3.4,6.6c-2.8,3.6-5.8,9.2-1.4,12c3.8,2.4,7.6-0.8,9.2-4.4c2,2.4,5.4,3.6,8.4,2c3.4-1.8,4.4-5.8,3-9.2
		C156.6,141.4,160.4,135.4,158.2,131z M155,135.4c-0.6,1.8-3,4.6-5.4,4.4c-1.6-0.2-2.8,1.4-1.6,2.8c4.6,4.6-3.4,10-6.4,4.4
		c0-0.2-0.2-0.6-0.4-0.6c-0.4-0.8-2-0.8-1.8,0.2v0.2c-0.4,0.6-0.8,1.4-1.2,2c-1.4,2.2-2.2,4.4-4.4,1.6c-1.4-2-1.2-2.2,0-4
		c0.8-1.4,2-2.8,3-4c0.8-1,0.2-2.6-1-2.6c-4.8,0.2-3-5.8-0.8-7.2c1.2-0.8,2.8-1,4.2-1.2c0.2,0,0.4-0.2,0.4-0.6
		c0.4-0.2,0.6-0.8,0.4-1.2c-0.6-2,0.2-4.4,2.8-4c3,0.4,3.4,3.6,2.8,6c-0.2,0.6,0.2,1.2,0.6,1.4c0.4,0.8,1.4,0.8,2,0
		C151,128.8,157,130.2,155,135.4z"/>
	<path fill="#1D1D1B" d="M79.4,98.8c-2.2-0.6-4.4-0.6-6.6-0.6c0.2-3.4,0.4-7,0.6-10.4c0-2.2,0.2-4.2,0.2-6.4c0-0.2-0.4-2.6-0.2-3.2
		c0-0.2,0-0.4-0.2-0.6s-0.4-0.4-0.6-0.4c-0.4-0.4-1.2-0.2-1.6,0c-2.8,1.6-2.4,5.8-2.8,8.6C67.6,91,67,96,66.6,101.2
		c-0.2,1.8,1.6,3,3.2,3.2c3.4,0.2,6.8,0.4,9.8-0.8C81.6,102.8,82,99.6,79.4,98.8z"/>
	<path fill="#1D1D1B" d="M87.8,84.4c-1.4-0.6-2.6,0-3.4,1c-0.2,0.4-0.6,0.8-0.8,1.2c-0.2-0.4-0.6-1-0.8-1.4c-1.6-3-6.6,0-4.6,2.8
		c1,2,2.2,4,3.2,6.2c1,1.8,3.8,1.8,4.6,0c1-2,2.4-4.2,3-6.4C89.6,86.2,89,84.8,87.8,84.4z"/>
	<path fill="#1D1D1B" d="M103.2,78.4c-1.4,7-3.4,13.6-6,20c-1-6.4-1.8-12.8-2.6-19.2c-0.2-1.6-3-1.2-3,0.4c0.4,9,1.6,17.8,2.4,26.8
		c0.2,2.2,3.2,3.6,4.4,1.2c4.4-9,7.6-18.2,9.6-27.8C108.6,76.6,103.8,75.2,103.2,78.4z"/>
	<path fill="#1D1D1B" d="M122.6,83.2c-4.8-2.4-10.6,0.6-13,5s-3,10.8,0.2,15.2c2.8,3.6,9.2,5.4,12,1c1.2-1.6-0.8-3.4-2.4-3
		c-2.4,0.4-4.6,0.6-6-1.8c-1-1.6-1-3.8-0.6-5.6c1.6,0.4,3.4,0.6,5,1c1.8,0.4,4,1.2,5.8,0.4c0.8-0.4,1.4-1.2,1.4-2
		C128,90,126.2,85,122.6,83.2z M114.6,90c0.8-1.4,2-2.4,3.6-2.8c2.8-0.6,4.4,1.2,4.2,3.6c-1-0.2-2.2-0.2-3.2-0.4
		C117.4,90.2,116,90.2,114.6,90z"/>
</g>
</svg>
