<?xml version="1.0" encoding="utf-8"?>
<!-- Generator: Adobe Illustrator 18.1.1, SVG Export Plug-In . SVG Version: 6.00 Build 0)  -->
<svg version="1.1" id="Capa_1" xmlns="http://www.w3.org/2000/svg" xmlns:xlink="http://www.w3.org/1999/xlink" x="0px" y="0px"
	 viewBox="0 0 200 200" enable-background="new 0 0 200 200" xml:space="preserve">
<g>
	<g>
		<path fill="#1D1D1B" d="M134.6,90c10.4-4.6,10-20.4-0.8-20.6c4-6.8,5.8-14.6-0.8-21c-5.8-5.6-15-6-22-2.6c1.4-5.8-4.6-9.6-10-10.2
			c-5-0.6-9.6,2.6-11,7.2c-1.8-3.8-5.4-6.4-10-6c-2.2,0.2-4.4,1.4-6,3.2c0,0.2-2.4,3.2-2,3.6c-0.4-0.2-1.2-1-2.4-1.2
			c-7.6-0.8-13.2-2.2-18.8,4.4c-4,4.6-5,10.6-2,15.6c-5.4,0.2-11.4,3-11.4,9.2c0,3.8,2.6,6.6,5.8,7.2c-3.8,5.4-7,11.6-4,18.2
			c1.8,4,5.6,6.4,9.8,6.6c-3.6,4.4-4.4,12-1.4,16.4c4.2,6,11.4,5.6,17.2,2.6c0.2,5.8,4.8,9.6,10.8,11.2c8.2,2.2,14.6-1.2,18.8-8
			c8.4,8.4,22.2,4.8,25.6-6.4C135.8,129.8,150.6,95,134.6,90z M120.2,116.2c-0.8-0.6-1.8-0.4-2.2,0.6c-3,10.6-14.2,14-22.4,6.8
			c0.2-1-1.2-1.6-1.8-0.6l0,0c-0.2,0.2-0.4,0.4-0.4,0.6c-1.8,2.6-4,4.8-6.4,7c-9.4,3.6-15.6,0.2-18.8-10.2c0.4-1.2-1-2.2-2.2-1.6
			c-0.8,0.4-1.6,0.8-2.2,1.4c-7.8,3.8-12,2.4-12.8-4.4c-1.6-4.8-2.6-8.4,1.6-12.4c0.2,0,0.2,0,0.4,0c1-0.2,0.8-1.8-0.2-1.8l0,0
			c-0.2,0-0.4-0.2-0.8,0c-5.4-0.4-11.8-2.8-11.2-10.4c0.4-5,3.4-9.4,6.6-13c1-1.2,0-2.8-1.4-2.4c-3.8-5.8-3.6-9,0.6-9.8
			c1.2-0.6,2.6-0.8,4-1c1.2-0.2,1-1.8,0-2.2c-5.6-14,10.8-23,22-15.8c0.8,0.4,1.6-0.2,1.6-1c8.8-5.8,13.8-5,15.2,2
			c0.4,1,2.2,1,2-0.2c0,0,0,0,0-0.2c0.2-0.2,0.4-0.4,0.6-0.6c1.6-3.8,2.6-7.6,7.4-7.8c4.2-0.4,10.4,2.4,9,7.6c-0.2,0.6,0,1,0.4,1.4
			c-0.2,0.8,0.6,1.6,1.6,1.4c6-1.6,12-3.6,17.8,0c8.4,5.4,5.6,14.2,1,21.4c-0.8,1.2,0.6,3,2,2.6c8.4,4.6,10.2,8.4,5.2,11.8
			c-1.6,2-3.6,3.2-6.2,3.6c-0.4,0.2-0.6,0.4-0.8,0.6c0,0,0,0-0.2,0c-1.8,0-1.8,2.6,0,2.6C150.2,93.2,132.2,127,120.2,116.2z"/>
		<path fill="#1D1D1B" d="M74.2,40.2L74.2,40.2L74.2,40.2z"/>
	</g>
	<path fill="#1D1D1B" d="M119.8,67c-4.2-4-13.4-1.8-18.6-1.6c-12.2,0.2-24.4,1-36.6,2c-1.2,0.2-1.8,1.2-1.8,2.2
		c-0.2,0.2-0.4,0.4-0.4,0.8C61.8,76.2,61.2,82,61,87.8c-0.2,4.8-2,11.4-0.6,16c1,3.4,2.4,3.6,5.6,4c10.6,1.4,22.8-0.2,33.6-0.4
		c5.6,0,14.2,1.8,18.8-2.6c3.6-3.6,3.6-10.2,3.8-14.8C122.2,84.8,123.8,70.8,119.8,67z M107,68.6c3,0,5-0.4,6.8,0.4
		c-4.2,3.6-9.6,9.4-14.8,12.8c0-2-0.4-3.8-2.2-4.8c-3.6-2-5.2,1.2-6,5.2c0-0.2-0.2-0.2-0.2-0.4c-1.4-2.2-3.4-3.2-6-2.2
		c-1,0.4-1.4,1.8-1.2,2.8c0,0.2,0.2,0.6,0.2,0.8c-6.2-3-13-8.8-18-12C79.4,69.8,93.2,69,107,68.6z M63.4,93.4
		c0.4-6.8,0.8-13.6,0.8-20.2c6,4.4,12.2,8.6,18.2,12.8c0.2,0.2,0.4,0.2,0.6,0.4c-6.8,4.8-13.2,10.2-19.4,15.6
		C62.2,99.2,63.2,96.2,63.4,93.4z M94,104.2c-6.8,0.2-13.8,0.2-20.6,0.4c-3.4,0-6.2,1-8.6-1.2c6.8-5,14-9.8,20.4-15.4
		c0.2,0.2,0.6,0.4,0.8,0.6c1.2,1.8,2.6,3.4,4.2,4.8c0,0,0,0,0,0.2c0.8,2,3.8,2,4.4,0c1.4-1.8,2.4-3.8,3.2-6
		c4.2,5.2,9.2,10.8,14.8,14.8C107.2,105.2,100.2,104,94,104.2z M115.8,100.2c-2.6-2-5.2-4-7.8-6c-3.2-2.6-6.2-5.6-9.2-8.4
		c0.4-0.4,0.6-0.6,1-0.8c5.6-4.6,11.2-9,16.8-13.6l0,0c2.4,2.8,2,6.2,2.2,9.8C118.8,87.2,120,95.6,115.8,100.2z"/>
	<path fill="#1D1D1B" d="M148.4,132c-0.2-2.4-1.6-4.4-3.8-5.2c-1.2-0.4-2.6-0.4-3.6,0.2c0.2-3.2-3.2-5.4-6.2-5
		c-2.6,0.2-6.2,2.4-5.8,5.2c-2.2-0.8-4.4-1-6.8,0c-2,0.8-3.4,2.4-4,4.4c-0.8,2.8,1.2,6,4,6.4c-0.8,1.2-1.6,2.4-1.6,3.6
		c-0.2,2,1,3.4,2.6,4.4c2.4,1.2,5.4,1.2,7.8,0c0.2,4.2,6.6,5.2,9.6,3c3.2-2.4,3.6-6.2,2.4-9.6c0.8-0.2,1.8-0.4,2.4-0.8
		C147.4,137.4,148.6,134.6,148.4,132z M145.8,133.4c-0.4,1.4-1.4,2.6-2.8,3c-0.8,0.2-1.6,0.2-2.2,0l-0.2-0.2c-0.4-0.4-1-0.2-1.2,0.2
		c-0.2,0-0.4,0-0.6,0c-0.8,0.2-1,1.2-0.8,1.8c0.6,0.8,1.4,1.2,2.4,1.4c0.8,2.2,0.6,4.6-1.4,6.4c-2.6,2.2-4.6,0.6-6.6-1.2
		c0.2-0.2,0.6-0.6,0.8-0.8c0.6-0.8-0.6-1.8-1.4-1.4c-2.2,1.8-5.4,3-8.2,1.4c-2.2-1.2-1.2-2.8-0.4-4.4c0.2-0.6,0.4-1,0.4-1.6
		c0.2,0,0.4-0.2,0.4-0.2c1-0.4,0.4-1.6-0.4-1.8c-0.2-0.2-0.6-0.2-0.8,0c-1,0-2-0.8-2.4-1.8c-0.4-1.2,0.2-2.6,1-3.4
		c1.8-1.8,5-2,7.4-2c0.2,0,0.2,0,0.2,0c0.4,0.6,1.4,0.2,1.2-0.6c-1.6-4,9.2-6.4,8.6-0.2c0,0.2,0,0.4,0.2,0.6l0,0c-0.6,1,1,1.8,1.6,1
		c0.8-1.2,2.6-1,3.6-0.2C145.6,130,146.2,131.8,145.8,133.4z"/>
	<path fill="#1D1D1B" d="M162.4,157.6c-0.4-1-1-2-2-2.4c1.6-1.8,1.8-5.2-0.2-6.8c-2.2-1.8-5.4-0.6-6.2,1.8c-1-1.6-3.2-2.2-5-1.2
		c-1.4,0.8-2,2.4-1.6,4c-1.4,0-2.8,0.8-3.6,1.4c-1.8,1.6-2.4,4-1.4,6.2c0.8,2,2.6,3.6,5,3.4c1.6,0,3.2-1,4.2-2.4
		c1.2,3.4,6.2,3.6,9,1.4C162,161.8,163,159.6,162.4,157.6z M160,159.2c-0.4,1.2-1.4,2-2.4,2.2c-1.8,0.6-3.6,0-4.4-1.6
		c-0.4-0.8-1.6-0.6-2,0c-0.2,0-0.4,0-0.6,0.2c-1.6,2.2-5.2,2-6-0.8c-0.4-1.2,0.2-2.6,1.2-3.4c1-0.8,2.2-0.6,3.4-1
		c0.6-0.2,0.8-0.8,0.4-1.4c-0.2-0.2-0.4-0.4-0.6-0.4c-0.2-1,0-2.4,1-2.8c1.2-0.6,2.4,0,3.2,1c0.2,0.2,0.4,0.2,0.6,0.2
		c0,0.2,0,0.4,0.2,0.6c0.2,1.2,1.8,0.6,1.6-0.4c-0.4-2.2,2.6-3,3.6-1.2c0.4,0.8,0.4,1.6,0,2.4c-0.4,0.8-1.2,1-2,1.6s-0.6,2,0.6,2
		c0.2,0,0.4,0,0.4,0s0,0,0.2,0C159.8,156.4,160.4,158,160,159.2z"/>
</g>
</svg>
