<?xml version="1.0" encoding="utf-8"?>
<!-- Generator: Adobe Illustrator 18.1.1, SVG Export Plug-In . SVG Version: 6.00 Build 0)  -->
<svg version="1.1" id="Capa_1" xmlns="http://www.w3.org/2000/svg" xmlns:xlink="http://www.w3.org/1999/xlink" x="0px" y="0px"
	 viewBox="0 0 200 200" enable-background="new 0 0 200 200" xml:space="preserve">
<g>
	<path fill="#1D1D1B" d="M163.8,114.1c-14.8-0.4-29.6,0.2-44.4,0.8c-0.2-11-0.4-22-0.6-33c14,0,27.8,0.2,41.8,0.6c2,0,2-3,0-3
		c-13.8-1-27.8-1.6-42-1.8c-0.2-13-0.8-25.8-1.6-38.8c0-0.8-1.2-0.8-1.2,0c-0.8,12.8-1,25.6-1,38.6c-13.4-0.2-27,0.2-40.4,1
		c-0.6-13.2-1.4-26.4-2.6-39.6c0-1.2-1.8-1.2-1.8,0c-0.4,13.2-0.2,26.4,0,39.8c-11.8,0.8-23.4,1.8-35,3.2c-0.8,0.2-0.8,1.4,0,1.4
		c11.8-0.4,23.4-0.6,35.2-1c0.2,11.6,0.8,23.4,1.2,35c-9.6,0.6-19,1.6-28.4,3c-0.8,0.2-0.6,1.2,0.2,1.2c9.4,0,19-0.4,28.4-1
		c0.6,13.4,1.4,27,2,40.2c0,1.8,2.8,1.8,2.8,0c-0.2-13.4-0.4-27-0.6-40.6c9.2-0.6,18.6-1.2,27.8-1.4c4-0.2,8.2-0.2,12.2-0.4
		c0.4,12.6,1,25.2,1.6,37.8c0,1.8,3,2,3,0c-0.4-12.6-0.4-25.2-0.6-37.8c14.8-0.2,29.6-0.4,44.2-1
		C166.2,117.7,166.2,114.1,163.8,114.1z M101.4,115.7c-8.6,0.4-17.2,0.8-25.8,1.4c-0.2-11.6-0.6-23.2-1-34.8
		c13.4-0.2,26.8-0.4,40.2-0.4c0,11,0.4,22.2,0.6,33.2C110.8,115.3,106,115.5,101.4,115.7z"/>
	<path fill="#1D1D1B" d="M95,91.9c-0.6,1-1,2.2-1.6,3.2c-0.6-0.8-1.2-1.4-2-2.2c-2.6-2.8-7.6,1-5.4,4.2c2,3,4,6.2,7.2,7.6
		c0.6,0.2,1,0.2,1.4,0.2c1.2,0.2,2.4-0.4,3.2-1.8c1.4-2.8,2.6-5.6,3.6-8.6C102.6,90.9,96.8,88.3,95,91.9z"/>
	<path fill="#1D1D1B" d="M50.2,54.1c-0.4,1.2-0.8,2.4-1.2,3.4c-0.6-0.6-1.2-1.2-1.8-1.6c-3.6-3-7.8,1.8-4.8,4.8l0,0c2,2,4,3.8,6,5.8
		c1.8,1.8,5.2,1,6-1.6c0-0.2,0-0.2,0-0.4c0.6-0.4,1-1,1.2-1.8l1.6-7C58.4,51.3,52,49.9,50.2,54.1z"/>
	<path fill="#1D1D1B" d="M150.6,136.9c-1.6-0.8-4-0.4-4.8,1.2c-0.6,1.4-1.2,2.8-2,4.2c-1.2-1-2.2-2-3.4-3c-3.4-2.8-8.2,1.8-4.8,4.8
		c1.4,1.2,2.8,2.6,4.2,3.8c1,1,2,1.8,2.8,2.8c1.4,1.6,4.6,1.4,5.6-0.8c0.2-0.4,0.2-0.6,0.4-1c1.6-2,2.6-5.4,3.4-7.6
		C152.8,140.1,152.4,138.1,150.6,136.9z"/>
	<path fill="#1D1D1B" d="M96.6,131.3c-1.2,1-2.2,2.4-2,3.8v0.2c-0.4-0.4-0.8-0.8-1.2-1.2c-3-2.8-6.6,0.8-5,4l0,0
		c1.2,2.4,3.4,4.8,5.2,6.8c1.8,2,5.4,1,5.8-1.6c0.6-2.8,1.6-5.2,3-7.6C104.4,132.1,99.6,128.7,96.6,131.3z"/>
	<path fill="#1D1D1B" d="M65.6,132.9c-2.4,0.6-4.6,2-6.8,3.4c-0.2-0.2-0.2-0.2-0.4-0.4c-0.4-0.6-1-1.2-1.6-1.6c-0.4-0.4-1-1.8-1.2-1
		l0,0c0-0.2,0-0.6-0.2-0.8c-0.8-1-2.2-1-2.8,0c-1.4,2,0.8,4.6,2.4,6.4c-1.6,1-3,2.4-3.8,3.8c-0.4,0.8,0.2,1.6,1,1.4
		c1.8-0.4,3.4-1.6,4.8-2.6c1.8,2.4,4.2,5.6,7,6c1.4,0.2,2.6-0.8,2.2-2.2c-0.4-2.6-3.2-4.4-5-6.2c1.8-1,3.8-1.8,5.6-3.2
		C68.2,134.9,67.4,132.3,65.6,132.9z"/>
	<path fill="#1D1D1B" d="M61.4,92.3c-3.4,1-6.8,2.8-10,5.2c-1-0.8-2-1.6-3-2.2c-1.4-0.8-3.2,0.8-2.4,2.4c0.6,1,1.2,1.8,1.8,2.6
		c-1.6,1.2-3,2.6-4.2,3.8c-1.2,1-0.2,3.2,1.2,3c0.6,0,1,0,1.6-0.2c0.8,0,1.4-0.8,1.4-1.4c1-0.6,2.2-1.4,3.2-2
		c1.6,1.4,3.2,2.8,4.6,4.4c0,0.2,0,0.4,0.2,0.6c0.4,0.8,1,1.2,1.8,1.4c2,0.4,3.4-1.2,3.2-3.2c-0.4-2.4-4-4.2-5.8-5.6l0,0
		c2.8-1.8,5.6-3.2,8-5.6C64.6,93.9,63.2,91.7,61.4,92.3z"/>
	<path fill="#1D1D1B" d="M95.4,53.3c-2.4,0.8-4.4,2.8-6.2,4.4c-1.6-1.6-3.2-3.4-5.2-4.2c-1.4-0.6-2.6,0.6-2,2
		c0.8,1.8,2.4,3.4,3.8,4.8c-1.4,1-2.8,2.2-4,3.4c-1.4,1.2,0.4,3.2,1.8,2.4c1.6-0.8,3.2-2,4.8-3c1.4,1.8,3.2,4,5.2,4.6
		c1.4,0.4,2.4-0.8,2.2-2.2c-0.4-1.8-2.2-3.4-3.8-4.8c2-1.2,4-2.4,5.4-4.2C98.6,54.9,97,52.9,95.4,53.3z"/>
	<path fill="#1D1D1B" d="M146.4,51.7c-2.2,0.4-4,1.6-6,2.8c-1-1-2-2-3-3c0,0,0-0.2-0.2-0.2c-0.4-0.2-0.6-0.6-1-1
		c-1.2-1.4-3.6,0.4-2.6,2c1,1.4,2,3,3.2,4.4c-1.8,1-3.6,2.2-5,3.4c-1,0.8,0,2.6,1.2,2.2c2-0.8,4-1.8,6-2.8l0,0c1.6,2,3.2,5.2,6,6
		c1,0.4,2.4-0.6,2.2-1.8c-0.4-2.6-2.4-4.4-4.2-6.2c1.8-0.8,3.6-1.6,4.8-2.8C149.4,53.3,148,51.3,146.4,51.7z"/>
	<path fill="#1D1D1B" d="M150.6,90.9c-2.2-0.2-4.2,1-6.2,1.8l-0.2-0.2c-0.6-0.6-2.2-1.8-3-2.8c0-0.2,0-0.4-0.2-0.6
		c-0.2-0.4-0.6-0.6-1-1c-1-0.8-2.2,0.2-2.6,1c-0.8,1.8,1,4,2.6,5.6c-1.4,0.6-2.6,1.4-4,2.2c-1.6,1-0.6,4.2,1.4,3.4
		c1.8-0.6,3.6-1.4,5.2-2.2c1.6,2,3.2,4.4,5.2,5.2c1.6,0.8,3.8-0.4,3-2.4c-0.6-1.8-2.2-3.4-3.6-4.8c1.6-0.4,3-1,4.2-2
		C153.4,93.1,152.2,90.9,150.6,90.9z"/>
</g>
</svg>
