<?xml version="1.0" encoding="utf-8"?>
<!-- Generator: Adobe Illustrator 18.1.1, SVG Export Plug-In . SVG Version: 6.00 Build 0)  -->
<svg version="1.1" id="Capa_1" xmlns="http://www.w3.org/2000/svg" xmlns:xlink="http://www.w3.org/1999/xlink" x="0px" y="0px"
	 viewBox="0 0 200 200" enable-background="new 0 0 200 200" xml:space="preserve">
<g>
	<path fill="#1D1D1B" d="M152.9,89.5c-6.6-24.6-27.2-48-54.8-43.4c-0.6,0-0.8,0.4-0.8,1c-21.6-0.6-38.8,18.2-47,37
		c-9.6,21.4-6.8,44,12.4,59.2c19,14.8,46.2,13.6,67,3.4C152.1,135.3,159.1,113.3,152.9,89.5z M135.9,138.5
		c-10.4,7.6-24,11.8-36.8,12.2c-26.4,0.8-54.6-18.8-51.2-47.8c3.4-28.6,26.2-53.6,55.4-54.4c0.2,0,0.4-0.2,0.4-0.4
		c25.8,0.8,42.6,24,46.8,48.4C153.3,112.7,149.5,128.5,135.9,138.5z"/>
	<path fill="#1D1D1B" d="M108.1,54.1c-0.8-0.2-1.2,0.4-1.2,1c-25.2-0.6-46.4,19-49.2,43.8c-2.2,20.4,8.6,42.4,30.2,46
		c24.8,4.4,47.2-8,52.6-33.2C145.5,87.9,131.7,61.7,108.1,54.1z M138.3,104.7c-1.4,24.8-21.2,39.4-45.2,37.6
		c-24.2-1.8-35.8-25-31.6-47.2c4.2-22.6,23.8-36.4,45.6-39c0.2,0,0.4-0.2,0.4-0.2C126.3,65.9,139.5,82.3,138.3,104.7z"/>
	<path fill="#1D1D1B" d="M100.1,63.1c-0.6,0.4-1,1-1.4,1.6c-0.2-0.2-0.2-0.2-0.4-0.4c-1.2-1.4-3-2.2-4.6-0.8c-1.2,1-1.8,3.2-0.4,4.4
		c1.2,1.8,2.8,3.4,4.6,4.8c1.4,1,3.8,0.4,4.6-1.2c0.6-1.4,1.4-2.4,2.4-3.6C107.7,64.5,103.5,60.3,100.1,63.1z"/>
	<path fill="#1D1D1B" d="M74.3,96.1c-1.4-1-3.2-1-4.4,0.2c-0.8,0.8-1.4,1.6-1.8,2.4c-0.2,0-0.4-0.2-0.6-0.2c-1.8-0.6-3.4,1.2-3,3
		s2,3.2,3.4,4.2c1.2,1,3,1.4,4.4,0c0.8-0.8,1.2-2.2,1.6-3s1-1.4,1.6-2.2C76.1,99.3,75.5,97.1,74.3,96.1z"/>
	<path fill="#1D1D1B" d="M102.3,129.5c-0.4,0.6-0.8,1.2-1,2c-1-0.8-2-1.6-2.8-2.4c-2-1.8-5.2,0.6-3.8,3c1.4,2.4,3.8,4.2,5.6,6.4
		c1.4,1.8,3.8,0.8,5-0.6c1.2-1.6,2-3.2,3-5C109.9,129.1,104.5,125.7,102.3,129.5z"/>
	<path fill="#1D1D1B" d="M136.1,100.1c-0.4-0.8-1.6-1.6-2.6-1.4c-2,0.2-3,1-3.8,2.8c0,0.2-0.2,0.4-0.2,0.6c-0.8-0.6-1.4-1.4-2.2-2
		c-2-1.6-5.6,0.4-4,3c1.2,2,3,3.8,4.4,5.6c1.4,2,4.4,2.2,5.8,0C135.1,106.3,137.7,102.9,136.1,100.1z"/>
	<path fill="#1D1D1B" d="M119.7,118.7c-3.4-3.2-7.2-6-10.8-9c-3.2-2.8-6.2-5.6-9.2-8.6c0.6-0.8,0.6-2,0-2.8
		c4.2-3.4,7.4-7.6,9.4-12.6c0.6-1.4-1.6-2.2-2.2-1c-2.4,4.4-5.4,8.4-8.8,12c-0.2,0.2-0.2,0.4-0.4,0.6c-0.6,0-1.4,0.2-1.8,0.8
		c-1.2,0.4-1.8,2-1.2,3.4c0.6,1,1.6,1.2,2.6,1.2c6,6.6,12.6,14,20.4,18.4C119.3,122.1,121.1,120.1,119.7,118.7z"/>
</g>
</svg>
