<?xml version="1.0" encoding="utf-8"?>
<!-- Generator: Adobe Illustrator 18.1.1, SVG Export Plug-In . SVG Version: 6.00 Build 0)  -->
<svg version="1.1" id="Capa_1" xmlns="http://www.w3.org/2000/svg" xmlns:xlink="http://www.w3.org/1999/xlink" x="0px" y="0px"
	 viewBox="0 0 200 200" enable-background="new 0 0 200 200" xml:space="preserve">
<g>
	<path fill="#1D1D1B" d="M103.9,77.8c-1.4-1.2-3.4-1.8-5.2-1.4c0,0-0.2,0-0.2,0.2c-0.4-1.8-1.2-3.2-2-4.8c1.2,0.4,2.6,0.6,3.8,0.4
		c1.6-0.2,3.8-1.8,3-3.6c-0.8-1.8-4-2.4-5.6-2.4s-3.4,0.4-4.6,1.4c-2.4-2.2-5.2-3.8-8.2-5c1.8-0.8,3.2-2.2,4.2-4.2
		c0-0.2,0-0.6-0.2-0.8c-1.6-1.4-4-1.6-6-0.6c-1.6,0.8-2.8,2.6-3,4.4c-1.2-0.2-2.2-0.2-3.4-0.2c-2.6,0-5,0.6-7.2,1.4
		c1.2-2.8,1.8-6.8-0.6-7.6c-2-0.8-3.4,1.6-4,3.2c-0.6,2.2-0.2,4.4,1.2,6c-3.4,2-6.4,4.8-8.8,8c-0.4-1.4-0.8-3-1.8-4
		c-1.2-1.4-3.4-2-4.8-0.6c-1.4,1.6,0,4.2,1.2,5.6c0.8,1,1.8,1.8,3,2.4c-1,1.8-1.8,3.6-2.4,5.4c-0.6,2.2-1,4.2-1.4,6.4
		c-0.6-0.6-1.2-1-1.8-1.4c-1.6-0.8-4.4-1.4-5,0.8c-0.6,2.2,2,4.2,3.6,5.2c1,0.6,2,0.8,3,0.8c0.2,3.2,0.6,6.6,1.6,9.8
		c-0.6-0.2-1.2-0.4-1.8-0.4c-2-0.2-4.6,0.6-4.6,2.8c0,2.2,2.8,3.8,4.6,4.2c1.4,0.4,2.8,0.4,4,0.2c1.2,2.8,2.6,5.4,4.4,8
		c-1.4,0-2.8,0.4-4.2,0.8c-1.6,0.8-2.6,2.4-1.2,3.8c1.4,1.4,4.2,1.4,6,1c0.8-0.2,1.6-0.6,2.4-1.2c2.2,2.6,4.4,5.2,7,7.6
		c-0.6,0.2-1.2,0.4-1.8,0.6c-1.8,0.8-5.4,3-4.6,5.6c0.8,2.4,5.2,1.4,7,0.8c1.6-0.6,3.2-1.6,4-3c2.2,1.6,4.4,3,6.6,4.4
		c-0.8,0.4-1.6,1-2.2,1.4c-1.4,1-4.2,3.2-2.6,5c1.4,1.8,4.2,0.6,5.8-0.2c1.6-1,3-2.2,4-3.8c2.8,1.2,5.8,2.2,8.8,2.8
		c1.2,0.2,1.6-1.4,0.4-1.8c-2.6-1-5.2-2.2-7.8-3.6c1.4-2,1.2-5.8,0.4-8.2c-0.6-1.6-2.4-3.4-4-2c-1.6,1.2-1.2,4-1,5.8
		c0,0.6,0.2,1.4,0.4,2c-1.8-1.2-3.8-2.4-5.4-3.6c1.8-2.8,1.6-7,0.6-10c-0.2-0.8-1-1.2-1.8-0.8c-2.2,1.2-3.8,4-3.6,6.6
		c-2.4-2.2-4.4-4.4-6.4-6.8c1.2-1.2,2.4-2.8,3-4c0.8-1.6,1.4-4.4,0-5.8c-1.6-1.6-3.6,0.4-4.6,1.8c-0.8,1.2-1.2,2.6-1.4,4
		c-1.4-2-2.6-4-3.6-6.2c3.6-2,4.8-7,4.4-10.8c0-0.6-0.8-0.8-1.2-0.6c-2.8,0.8-4.8,3-5.6,5.8c-0.8-2-1.4-4.2-1.8-6.4
		c-0.2-1.2-0.4-2.4-0.6-3.6c1.6-0.2,3.2-0.8,4.6-1.6c1.6-1,3-2.4,3-4.4c0.2-2.4-2.2-2.6-4-2c-1.4,0.6-2.8,1.6-3.8,2.8
		c0.2-3.6,0.8-7,2.2-10.2c1.6,1.4,3.8,2.4,6,2c2-0.4,3.6-1.8,3.6-4c0-2-1.4-3.4-3.4-3.2c-1,0-2,0.4-2.8,0.8c-0.4,0.2-1,0.4-1.4,0.4
		c2-3.2,4.6-5.8,8-8c1,3,7.8,9,10,4.6c0.8-1.6,0.2-3.6-1.2-4.6c-1.6-1.2-3.6-1.2-5.6-1.6c3.4-1.4,7-1.6,10.2-1.2
		c-0.6,1-0.8,2.2-0.6,3.4c0.2,1.6,1.2,4.4,3.2,4.6c3,0.4,2.6-4.2,1-7.2c3,1,5.6,2.8,8,5c-1,0.6-2,1.4-2.8,2.4
		c-1.2,1.4-1.8,3.4,0.2,4.6c2.8,1.6,4.6-1,5.4-3.6c0.8,1.2,1.6,2.6,2.4,4c-2.8,2-2.6,6.4,0.2,8.2c0.4,0.2,0.8,0.2,1.2-0.2
		c1.4-1.2,2.2-3.2,2.2-5.2c0.6,0.4,1,0.8,1.8,1.2c1.2,0.6,3.2,1.2,4-0.4C106.1,80,105.1,78.6,103.9,77.8z M50.7,91.4
		c-0.4-0.2-1-0.2-1.4-0.4c-0.8-0.4-2.8-1.6-2.8-2.8c-0.2-1.2,3,0.8,3.4,1.2c0.2,0.2,0.6,0.6,0.8,0.8C50.7,90.6,50.7,91,50.7,91.4z
		 M84.5,130.8c0-0.6,0-1.2,0.4-0.4c0.2,0.8,0.4,1.6,0.4,2.4c0,1,0,2-0.2,3C84.5,134.2,84.3,132.4,84.5,130.8z M82.9,139.4
		c0.2,0,0.2,0.2,0.4,0.2c-0.6,0.6-1.2,1.2-2,1.6c-0.6,0.4-1.2,0.8-2,1c0,0-0.8,0.2-1.2,0.4c0,0,0.2-0.2,0.2-0.4
		c0.2-0.2,0.4-0.6,0.8-0.8c0.6-0.6,1.2-1,2-1.4C81.7,139.8,82.3,139.6,82.9,139.4z M75.9,124.4c0.4,1.8,0,3.6-0.6,5.2
		C74.5,128,74.7,126,75.9,124.4z M72.1,132.2c-0.8,1.2-2.2,1.8-3.6,2c-0.4,0-1.6,0-2.2,0.2c0-0.2,0.2-0.2,0.2-0.4
		c1.4-1.6,3.2-2,5-2.2C71.7,132,71.9,132.2,72.1,132.2z M65.3,115c0.2-0.4,0.8-1.4,1.2-1.8c1.4-1,1,0.8,0.8,1.6
		c-0.4,1.4-1.4,2.6-2.4,3.6c0,0-0.2,0-0.2,0.2l-0.2-0.2C64.5,117.2,64.7,116,65.3,115z M60.3,119.6c0.2,0.2,0.4,0.6,0.6,0.8
		c-1.2,0.4-2.4,0.8-3.6,0.6c-0.2,0-1.6-0.2-1.6-0.4c-0.2-0.2,2-1,2.2-1C58.7,119.6,59.5,119.6,60.3,119.6z M58.3,107.6
		c0-2.6,1.2-4.8,3.4-6c0,1.4-0.2,3-1,4.2c-0.6,1.2-1.6,2-2.6,2.8c0,0,0-0.2-0.2-0.4C58.1,108,58.3,107.8,58.3,107.6z M57.7,89.4
		c0.4-0.2,1.6-1,2-1c0.6,0.2,0.4,0.8,0.2,1.2c-0.2,0.4-0.4,0.6-0.6,0.8c-1.2,1.4-3,1.4-4.8,1.8C55.5,91,56.5,90.2,57.7,89.4z
		 M49.5,106.2c-1.6-1.8,1.6-1.2,2.4-0.8c0.4,0.2,0.8,0.4,1.2,0.8c0.2,0.6,0.4,1,0.6,1.6C52.3,107.8,50.5,107.2,49.5,106.2z
		 M52.3,70.2c-0.2-0.4-0.2-0.8,0-1.2c0.4-0.2,0.8,0,1,0.2c0.8,0.4,1,1.4,1.4,2c0.2,0.8,0.4,1.4,0.6,2.2
		C54.1,72.6,52.9,71.8,52.3,70.2z M63.3,76.2c0.8,0.2,1,1.4,0.6,2c-0.4,0.8-1.4,1-2.4,1c-1.6,0-3-1.2-4.4-2l0,0
		C58.9,78.6,61.7,75.8,63.3,76.2z M68.1,57.8c0.2,1-0.6,2.8-1,3.6c0,0.2-0.2,0.2-0.2,0.4c-0.2-0.6-0.2-1.2-0.2-2
		c0-0.6,0.2-1.4,0.4-2c0-0.4,0.2-0.6,0.6-0.6S68.1,57.2,68.1,57.8z M71.3,67.8c1.2,0.2,3.8,1,3.4,2.8c-0.4,2-3.8-1.2-5.8-3.2
		C69.7,67.6,70.5,67.6,71.3,67.8z M82.1,70c-0.8-1-1-2.6-0.6-3.8c0.2,0.4,0.6,0.8,0.8,1.2c0.2,0.6,0.4,1.2,0.4,2
		C82.7,70,82.9,70.8,82.1,70z M82.1,61.8c-0.2,0-0.4-0.2-0.6-0.2c0.4-1.2,0.6-2.2,1.6-3.2c1.2-1.2,3-1.4,4.2-0.4
		C85.9,59.8,84.3,61.2,82.1,61.8z M92.1,73.2C91.9,74,91.5,76,90.3,76c-1.6,0,0.4-2.2,0.8-2.6s0.8-0.8,1.2-1.2
		C92.3,72.4,92.1,72.8,92.1,73.2z M94.7,69L94.7,69L94.7,69c0.4-0.4,1-0.6,1.8-0.8c1-0.2,3.2-0.4,4,0.4c1.4,1.2-1.6,1.4-2.4,1.4
		C97.1,69.8,95.9,69.6,94.7,69z M96.9,84c-1.2-1.4-1.2-3.8,0-5.2c0.2,0,0.4,0.2,0.6,0.2c0.2,0.6,0.4,1.4,0.4,2.2
		C97.9,82.2,97.7,83,96.9,84z M103.9,80.6c-0.4,0.6-2.2-0.8-2.6-1c-0.6-0.4-1.2-1-1.6-1.6c0.8,0.2,1.4,0.2,2.2,0.6
		C102.1,78.8,104.3,80,103.9,80.6z"/>
	<path fill="#1D1D1B" d="M155.3,83.2c-1.6-1.6-4-0.4-5.4,1c-0.4,0.4-0.6,0.8-1,1c-0.2-4-1-8-2.6-11.4c1-3.2,1.6-13.4-3.2-13.2
		c-2.8,0.2-2.8,3.4-1.8,6.6c-0.6-0.6-1.4-1-2.2-1.4c-4-2-8-2-11.8-0.8c0-0.2,0-0.6-0.2-0.8c-1.6-1.6-3.6-2.8-6-2.8
		c-1.8,0-4,1-4.6,2.8c-0.6,2,1,3.4,2.6,4c0.4,0.2,1,0.2,1.4,0.4c-2.4,1.8-4.4,3.8-6,6c-2-0.8-4-1-6-0.4c-1.8,0.6-3.4,2-2.6,4
		c1.4,3.6,6.4,2.6,9.6,0.6c-0.2,1.2-0.4,2.4,0.2,3.6c0.6,1.8,2.2,3,4.2,3.4c0.4,0,0.8-0.2,1-0.6c1.2-2.2,1.4-4.6,0.6-6.8
		c-0.6-1.6-1.8-3.6-3.4-4.2c2-1.8,4-3.4,6.2-4.8c-0.4,0.8-0.8,1.6-1,2.4c-0.4,2-1,5,1.2,6.2c2,1,3.8-0.4,4.6-2.2
		c1-2.4,1.4-6,0.8-8.6c2-0.4,4-0.4,6,0.2c1.6,0.4,3,1.2,4,2c-2,0-4.2,0.8-5.2,2.2c-1.2,1.6-1.4,4.2,0.4,5.6c1.8,1.4,4.6,0.6,6.6-0.4
		c1-0.4,2-1,2.6-1.6c1.2,2.8,1.6,5.8,1.8,8.8c0.2,1,0.2,2,0.2,3c-0.6-0.6-1.2-1.4-2-2c-0.8-0.8-1.4-1.6-2.4-1.8
		c-2.2-0.8-3.6,1.6-3,3.6s2.4,3.6,4.2,4.4c1,0.4,2,0.6,3,0.4c-0.2,4.4-1,8.8-2.2,13c-0.2-2-1-4.4-2.2-5.6c-1-1.2-3-1.4-4,0
		c-2.2,3.2,1.4,8.4,4.4,10.8c-1.6,4-3.6,7.6-6,11c-0.4-2-1-4-2.2-5.4c-0.8-1.2-2.6-2.4-4-1.8c-2,1-0.8,3.8,0,5.4
		c1,1.8,2.4,3.4,4.2,4.6c-2.2,2.8-4.6,5.4-7.4,8c-0.2-1.6-0.6-3.4-1.4-4.6s-2.4-2.8-4-1.8c-1.4,1-1,3.6-0.4,5c0.6,1.6,1.4,3,2.8,4
		c-2.8,2.4-5.8,4.6-9,6.8c-0.4,0.4-0.2,1.2,0.4,1c3.4-1.2,6.6-2.8,9.6-4.8c2.6,3,10.4,5,12.4,1c1-2-0.6-3.8-2.4-4.6
		c-1.6-0.6-3.6-0.6-5.4,0c2.4-2,4.6-4.4,6.4-6.8c1.8,1.2,4.4,1.4,6.4,1s5.2-1.6,6-3.6c1.4-4.2-5.6-3.4-9.2-1.8
		c2.4-3.6,4.2-7.4,5.8-11.2c4.6,0.6,10.8-4,8.2-9c-0.2-0.4-0.8-0.8-1.4-0.6c-1.6,0.6-3.2,1.4-4.4,2.6c1.2-4.2,1.8-8.4,2-12.6
		c1.8,0,4.2-2.2,5.4-3.4C155.7,87.2,156.9,84.8,155.3,83.2z M109.3,78.2c-2.6-0.6,0.4-1.8,1.4-2c1.4-0.2,2.8,0,4,0.6
		C113.1,77.8,110.9,78.8,109.3,78.2z M117.5,77.2c0.6,0.6,1,1.2,1.4,2c0.4,1.4,0.4,3-0.2,4.4c-2-0.8-1.8-3.8-1.4-6.2
		C117.3,77.4,117.5,77.4,117.5,77.2C117.5,77.4,117.5,77.2,117.5,77.2z M119.1,64.8c1.2-2,5.2,0,6.4,1l0,0c-0.4,0.2-1,0.4-1.4,0.6
		C121.7,66.6,117.9,66.6,119.1,64.8z M127.3,70.8c0,1-0.2,1.8-0.4,2.8c-0.2,0.6-1.2,3.4-1.6,2c-0.4-1.2,0.4-3.2,0.8-4.4
		c0.4-0.8,0.8-1.6,1.4-2.4C127.3,69.4,127.3,70.2,127.3,70.8z M137.1,76.2c-2.2-0.2-1.8-2.4-0.4-3.4c1.2-1,3-0.8,4.4-1.2
		c0,0,0,0,0.2,0c0.6,0.8,1.2,1.6,1.8,2.6C141.7,75.4,138.9,76.2,137.1,76.2z M145.3,71.8c-0.2-0.4-0.6-0.8-0.8-1.2
		c-0.2-0.6-0.4-1.4-0.6-2c-0.2-1-0.4-2-0.6-3c0-0.4-0.4-1.8-0.2-2.2c0.6-1.6,1.6,1.2,1.8,1.8c0.4,1,0.4,2.2,0.4,3.4
		C145.5,69.8,145.5,70.8,145.3,71.8z M122.5,127.6c0.4-2.8,2.4,1.2,2.6,2c0.4,1,0.6,2,0.6,3c-0.2,0.2-0.6,0.6-0.8,0.8
		C123.5,131.8,122.1,129.6,122.5,127.6z M132.3,135.8c0.4,0,2,0.4,2.2,1c0.4,1.2-1.4,1-1.8,1c-1.6,0-2.8-0.6-4-1.2
		C129.5,135.8,130.9,135.6,132.3,135.8z M132.7,119.4c-0.6-0.6-2.2-2.8-2-3.6c0.6-1.6,2.4,1.4,2.6,2c0.6,1.2,1,2.4,1.2,3.6
		C133.9,120.6,133.3,120,132.7,119.4z M142.7,123.6c0.4,0,2.2-0.2,2.6,0c1,0.6-0.4,1.2-1,1.6c-2.4,1.4-4.8,1.2-7.4,0.2
		c0.2-0.2,0.2-0.4,0.4-0.6h0.2C139.5,124.6,140.9,123.6,142.7,123.6z M142.7,107.8c-1.4-1.6-2.6-3.2-3.2-5.4c0-0.4-0.4-1.4-0.2-1.8
		c1-1,1.8,1.6,2,1.8c0.6,1.6,0.8,3.2,1.2,4.8c0,0.2,0.2,0.2,0.2,0.4C142.9,107.6,142.9,107.6,142.7,107.8z M141.9,87.8
		c-0.2-0.2-1-1.2-1-1.6c0.4-1.2,1.8,0.4,2.2,0.6c1,0.8,1.8,1.6,2.8,2.4c0,0.2,0,0.4,0,0.8C144.3,89.6,142.7,88.8,141.9,87.8z
		 M151.3,104.8c0.2,1.2-0.6,2.6-1.8,3.2c-1,0.6-2.4,0.8-3.6,1.2C147.5,107.4,149.1,105.8,151.3,104.8z M151.3,88.6
		c-0.6,0.4-1.2,0.6-1.8,0.8c0.2-0.8,0.8-1.6,1.2-2.4c0.4-0.6,2.6-2.8,3-1.8C154.3,86.2,151.9,88,151.3,88.6z"/>
</g>
</svg>
