<?xml version="1.0" encoding="utf-8"?>
<!-- Generator: Adobe Illustrator 18.1.1, SVG Export Plug-In . SVG Version: 6.00 Build 0)  -->
<svg version="1.1" id="Capa_1" xmlns="http://www.w3.org/2000/svg" xmlns:xlink="http://www.w3.org/1999/xlink" x="0px" y="0px"
	 viewBox="0 0 200 200" enable-background="new 0 0 200 200" xml:space="preserve">
<g>
	<path fill="#1D1D1B" d="M98.7,53c-2.4-5.6-8-9.2-14.2-8.4c-4.8,0.6-8,3.6-10.4,7.4c-6.8-6.6-18.2-6.4-19.4,6.2
		c-1.4,12,8.6,22.4,20,23.8c-0.6,5.8-1,11.8-1.2,17.6c-4.8-5-11.2-7.8-18-9c-4.8-0.8-15.4-3.2-16.4,3.8c-2,14,22.4,19.2,34.2,14.6
		c-0.2,7.4-0.2,14.8,0.2,22.2c0.2,2.8,4,2.6,4.2,0c1.4-16,1.4-32.8,0.6-48.8C89.3,77.6,105.1,67.6,98.7,53z M60.7,97
		c2.2,0.8,4.4,1.6,6.4,2.8c-2.6-0.6-5.2-1-7.8-1.6c-0.4-0.6-0.6-1.2-0.8-1.8C59.1,96.4,59.9,96.6,60.7,97z M56.1,95.8
		c0.2,0.6,0.4,1.2,0.6,1.8c-0.8-0.2-1.8-0.4-2.6-0.6c-0.2-0.6-0.4-1-0.6-1.6C54.3,95.6,55.3,95.6,56.1,95.8z M45.5,95.2
		c0.6-0.4,4.6,0,6.2,0.2c0.2,0.4,0.4,1,0.6,1.4C49.9,96.2,47.7,95.8,45.5,95.2L45.5,95.2z M44.5,97c3,1,6,2,9.2,2.8
		c-1.6,0.4-3.2,0.8-5,1.4C46.1,100,44.3,98.6,44.5,97z M50.3,102.2c2-0.6,4.2-1,6.2-1.4c1.8,0.6,3.6,1,5.4,1.4c-2,0.6-4,1.2-5.8,2.2
		C54.5,103.8,52.3,103,50.3,102.2z M73.1,104.4c-4.8,1.2-8.8,1.6-14,0.6c2.2-0.6,4.4-1.2,6.6-2l0,0c2.4,0.4,4.8,0.8,7,1
		C72.9,104,73.1,104.2,73.1,104.4L73.1,104.4z M91.9,63.6c-3,6.8-10.6,9.6-17,12.4c-0.4,0.2-0.6,0.4-0.8,0.6
		c-4.4-1.6-8-4.2-10.6-8.4c-1.4-2.4-2.8-5.8-2.2-8.6c-0.4-3.4,2.2-4.6,7.6-3.6c1,1.2,2,2.6,2.6,4.2c1.2,2.2,4.8,2.2,6,0
		c1.8-3.8,4.4-9.6,10-8.4C93.5,52.8,93.7,59.4,91.9,63.6z"/>
	<path fill="#1D1D1B" d="M158.3,119.2c-8.4-7.6-20.4,0-27,7.8c-1-5.2-2.2-10.6-3-15.8h0.2c12.2-4.8,35.4-21.8,24-37.4
		c-3.8-5-10.4-6.4-16-4.4c-5.8,2-9.4,7-11.4,12.4c-6.6-7.4-18.4-12-24-1c-2.8,5.6-0.8,13.2,2.6,18c4.6,6.6,13.4,8.8,21,10
		c0,0,0,0,0,0.2c-0.6,14,0.6,31.6,5.6,44.8c1,2.4,5.2,2.4,5-0.6c-0.6-7-1.6-14.2-3-21.4c10.2,2.8,25.8,1.6,28.6-10.6
		C161.3,120,159.7,118.6,158.3,119.2z M125.7,106.8c-8.4-3-18.4-5.6-20.8-15.6c-1.8-7.4,4-14.6,12.2-10.2c3.2,1.8,5.2,5.4,6.6,8.6
		c1,2,4.4,1.6,4.8-0.6c0.6-2.6,1.6-7,3.8-10.4c0.2,0,0.4,0,0.6-0.2c4-2.4,9.6-2.4,12.6,1.6c1.2,1.6,1.8,3.6,1.8,5.8
		c0,1.8-1,3.4-1.4,5.2c-0.4,0.4-0.6,0.8-1,1.2c-5,6-11.8,10.4-18.6,14C126.1,106.4,125.9,106.6,125.7,106.8z M151.5,120.6
		c-3.2,1.2-6.4,2.4-9.6,3.8c0.6-1.2,1.2-2.4,1.6-3.6c0.2,0,0.2-0.2,0.4-0.2C146.7,119.8,149.1,120,151.5,120.6z M140.5,122.2
		c-0.6,1.2-1,2.2-1.6,3.4c-1.8,0.8-3.6,1.6-5.4,2.2C135.7,125.8,137.9,123.8,140.5,122.2z M134.7,129.8c2.6-0.6,5-1.4,7.6-2.2
		c0,0.2,0.2,0.2,0.4,0.4c1,0.4,2,1,3,1.2C142.1,130.4,138.3,130.4,134.7,129.8z M148.7,128.2c-1.6-0.2-3-0.6-4.6-1
		c3.8-1.2,7.6-2.6,11.2-4.4C153.5,124.8,151.5,126.8,148.7,128.2z"/>
</g>
</svg>
