<?xml version="1.0" encoding="utf-8"?>
<!-- Generator: Adobe Illustrator 18.1.1, SVG Export Plug-In . SVG Version: 6.00 Build 0)  -->
<svg version="1.1" id="Capa_1" xmlns="http://www.w3.org/2000/svg" xmlns:xlink="http://www.w3.org/1999/xlink" x="0px" y="0px"
	 viewBox="0 0 200 200" enable-background="new 0 0 200 200" xml:space="preserve">
<g>
	<path fill="#1D1D1B" d="M164.9,100.9c-1-1.4-2-2.8-3.2-4c-0.8-0.8-1.8-1.8-2.8-2.6c1.2-1,2.4-2.4,3.4-3.6s2.2-2.6,2.2-4.2
		c0-0.8-1-1.4-1.6-1c-0.2-0.2-0.4-0.6-0.6-0.6c-2.2-0.6-4.6-0.2-7,0c-2.2,0.2-4.6,0.6-6.8,1.2c-0.6,0.2-0.6,0.6-0.4,1
		c-0.4,0.6-0.6,1.4-1,2.2c-0.4,0.8-0.8,1.4-1.2,2c-1-0.2-2.2,0.2-3.4,0.2c-1.2,0.2-2.4,0.4-3.6,0.4c-0.2-0.8-0.4-1.6-0.6-2.4
		c-1.4-3.8-5.4-5.8-9.4-5.4c-4.4,0.4-7.6,3.4-10,7c-4-6-14.6-8.6-17.6-0.2c-0.4,1.2-0.4,2.4-0.4,3.8c-1.4,0-3,0.4-4.4,0.6
		c0-1.2-0.2-2.6-0.8-3.8c-3.8-8-14.2-3.6-16.8,3c-1.4-2.6-3.6-5.2-6.6-5.6c-3.8-0.6-7.4,2.2-8.8,5.6c0,0.2-0.2,0.4-0.2,0.6
		c-1.6-0.2-3.6,0-5.2,0.2c0.2-2,0.4-4,0.4-6c0-0.6-0.6-1-1-1c-3.4-0.2-6,1-9.2,2.4c-4.2,2-8.4,3.2-12.8,4.2c-1.8,0.4-1.4,2.6,0,3.2
		c7.2,3,13.8,6.6,19.8,11.4c1,0.8,2.6,0.4,2.6-1.2c0.2-2.2,0.2-4.4-0.2-6.6c0.8,0.2,1.8,0.2,2.8,0.2c0.8,0,1.6,0,2.4-0.2
		c2,6,9.4,10.4,15,12.8c0.4,0.6,1.2,1,2,0.4c4.4-3,12.2-8.2,15.2-14.2c0.2,0.2,0.4,0.2,0.6,0.2c1.8,0,3.4-0.2,5.2-0.2
		c0.6,0,1.2,0,1.8-0.2c0.8,1.4,1.6,2.8,2.6,4c4.2,5.2,10.4,8.2,16.8,10.2c0,0.8,0.4,1.6,1.4,1.2c6.2-2.6,13.2-9.8,15.2-17.4
		c2.4-0.2,4.8-0.2,7.2-0.4l0,0c1,1,2,2,3,3c0.6,0.6,1.2,1.4,2,2c0.2,0.4,0.4,0.8,1,1c2.4,0.2,4.8,0,7.2,0c2,0,4,0,6-0.8
		C165.9,102.5,165.7,101.3,164.9,100.9z M62.7,99.1c-0.6,0-1.2,0.2-1.8,0.4c-1,0.2-2.2,0.2-3.2,0.4c-0.6-0.8-2-0.4-2,0.6
		c-0.2,1.6-0.2,3-0.4,4.6c-4.4-3.2-9-6.2-14-8.4c1.8-0.6,3.8-1.2,5.6-2c3.2-1.4,6.2-3.4,9.6-4.2c-0.4,1.6-0.6,3.2-1,5
		c-0.2,1.2,0.8,2,1.8,1.8h0.2c1.8,0,3.8,0.2,5.8-0.2C62.5,97.7,62.5,98.5,62.7,99.1z M92.1,99.9c-3,4.8-9,8.8-13.6,12
		c-0.2,0-0.2,0.2-0.4,0.4c-4.4-2.8-9.4-5.4-11.8-10.2c-1.8-3.6-1.2-8,2.6-10.2c5-2.8,7.6,1.8,9.6,5.6c0.4,0.8,1.4,0.4,1.6-0.2
		c0.2,0,0.4-0.2,0.6-0.6c1.4-3.2,3.8-6.8,7.8-7C94.3,89.5,94.5,96.1,92.1,99.9z M100.7,98.1c-1.6,0.2-3.2,0.4-4.8,0.8
		c0.4-0.8,0.6-1.6,0.6-2.6c1.6,0.2,3.2,0.2,4.8,0c0.2,0.6,0.4,1.2,0.6,1.6C101.5,98.1,101.1,98.1,100.7,98.1z M135.3,98.1
		c-1.8,6.4-6.8,11.4-12,15.2c0,0,0,0-0.2-0.2c-5.4-3.2-11.4-5.8-15.4-10.8c-0.8-1-1.6-2-2.2-3.2c0-0.4-0.2-0.6-0.4-0.8
		c-1-2.4-1.6-5.8-0.2-8c0.8-1.4,4.2-2.2,5.8-2c3.4,0.2,5.8,2.6,7,5.6c0,0.4,0,0.6,0.4,1l0,0c0.4,1.4,2.6,0.8,2.2-0.6v-0.2
		c2-2.8,4.4-5.8,8-6.6C135.1,85.9,136.9,92.7,135.3,98.1z M158.1,100.7c-1.8,0.2-3.6,0.4-5.4,0.8c-0.4-1-1.4-1.8-2.2-2.4
		c-1-1-2.2-1.8-3.4-2.4h-0.2c0-0.2-0.2-0.2-0.4-0.2c-2.4-0.6-4.8-0.2-7.2,0.4c0.2-0.8,0.2-1.8,0.2-2.6c1.4,0,2.8,0,4.2,0
		c1.6,0,2.8,0,4-0.8c0.4-0.2,0.4-0.6,0.2-1c1-1.2,2-2.8,2.4-4.2c2.2,0.2,4.4,0.2,6.6,0c1.6,0,3.4,0,5-0.6c-0.4,0.6-0.6,1.2-1,1.8
		c-0.8,1.4-2,2.6-3,4c-0.2,0.4-0.4,0.8-0.2,1c-0.2,0.2-0.4,0.6-0.2,1c0.8,1.2,2.4,2,3.6,3c0.8,0.8,1.6,1.4,2.4,2.2
		C161.3,100.3,159.5,100.7,158.1,100.7z"/>
</g>
</svg>
