<?xml version="1.0" encoding="utf-8"?>
<!-- Generator: Adobe Illustrator 18.1.1, SVG Export Plug-In . SVG Version: 6.00 Build 0)  -->
<svg version="1.1" id="Capa_1" xmlns="http://www.w3.org/2000/svg" xmlns:xlink="http://www.w3.org/1999/xlink" x="0px" y="0px"
	 viewBox="0 0 200 200" enable-background="new 0 0 200 200" xml:space="preserve">
<path fill="#1D1D1B" d="M158.1,73.6c-4.8-6.8-13.8-9.2-21.4-5.4c-4.2,2-8.8,7.2-10.8,12.4c-5.8-10.6-20.2-16.2-28.6-7.2
	c-3.8-5.4-12.6-4.2-17.6-1c-3.6,2.4-6.4,6.2-7.8,10.4C68.1,75,60.7,69,51.3,70.4c-13.6,2.2-14.8,15.8-10.8,26.8
	c5,13,14,26.2,26.6,33c4,2.2,8.6,4.6,13,2.8c3.6-1.6,7-6.6,9.8-9.2c4.4-4.4,8.8-8.8,12.8-13.6c5.8,6,13,10.6,19.6,12.8
	c0.4,1.2,1.8,2,3.2,1.2C139.7,116.4,172.3,93.6,158.1,73.6z M72.1,127.6c-8-2-15.6-11.6-20-18c-4.8-7.2-13.2-21-8-29.6
	c4.4-7.4,14.4-6.4,20-1.4c4,3.6,5.6,8.4,6.8,13.2c0.6,2.6,4.4,1.4,4-1c0-0.4-0.2-0.6-0.2-1c0.6-4.8,2.4-9.2,6-12.4
	c4.2-4,10.2-5.2,15-1.2c-0.4,0.8-1,1.6-1.4,2.6c-4.6,10.4-0.6,21,6.6,29.4C93.3,114.4,82.1,130.2,72.1,127.6z M151.7,96.2
	c-7,10.2-18,18-28.4,24.2c-9.6-6.8-20.2-12.4-24.6-24.2c-2-5.2-3.8-13.6,0.4-18.4c4-4.6,11.8-6,17-3c5,3,6.8,8,8.6,13
	c0.4,1,1,1.4,1.8,1.2c1,0.2,2.2-0.4,2-1.6c-1-10.8,12.8-19.4,21.8-15.4C160.3,77,156.3,89.8,151.7,96.2z"/>
</svg>
