<?xml version="1.0" encoding="utf-8"?>
<!-- Generator: Adobe Illustrator 18.1.1, SVG Export Plug-In . SVG Version: 6.00 Build 0)  -->
<svg version="1.1" id="Capa_1" xmlns="http://www.w3.org/2000/svg" xmlns:xlink="http://www.w3.org/1999/xlink" x="0px" y="0px"
	 viewBox="0 0 200 200" enable-background="new 0 0 200 200" xml:space="preserve">
<g>
	<path fill="#1D1D1B" d="M153.7,83.4c-0.2-6.2,1.2-15.6-2-21.4c-1-2-2.6-3.4-4.6-4.4c-1-7.4-4.4-15-12.6-15.2c-2.4,0-3,3.6-0.6,4.2
		c4.4,0.8,6.4,4.8,7.2,9c-5-1-10.8-1.2-16-1c-1.6-5.8-5.2-10.6-11.4-11c-2.4-0.2-2.8,3.4-0.6,4c2.6,0.8,4.8,3.8,6.2,7.2
		c-1.8,0-3.4,0.2-4.8,0.2c-4.4,0-8.6-0.2-13-0.2c-1.6-7.6-8-17.2-16-10.4c-1.6,1.4,0.4,3.4,2.2,2.8c5-2.2,7.4,3.4,8,7.6
		c-7.6,0-15.2,0.2-22.8,0.4c-0.8-2.6-2-5.2-3.8-7c-2-2.2-6.2-4.8-9-2.2c-0.6,0.6-0.6,1.6,0,2.2c0.2,0.2,0.4,0.4,0.8,0.4
		c3.6,0,5.2,3.6,6,6.8c-5,0.2-9.8,0.6-14.8,1c-2.2,0.2-3,2.6-2,4c-2.8,18.6-2.2,38-3,56.6c-0.4,9.8-4.2,30.2,5.8,36.8
		c5.2,3.4,13.2,2.4,19,2.6c10.6,0.2,21.2,0.4,31.8,0.6c10,0.2,20.2,1,30.2,0.8c4.4-0.2,9.4-0.6,13-3.4c3.6-2.8,4.4-6.6,5.2-11
		c1.4-9.6,1.2-19.8,1.4-29.4C154.1,103.8,154.1,93.6,153.7,83.4z M148.7,125.4c-0.2,7.8,1,17.6-4.4,23.4c-5.4,6-13,4.4-20.4,4.4
		c-7.2,0-14.6-0.2-21.8-0.2c-7.2-0.2-14.6-0.2-21.8-0.4c-8.4-0.2-16.2,1.2-23.2-3.4c-5.8-3.8-5.6-5.8-6-12.6
		c-0.2-3.8-0.2-7.8,0-11.6c0.2-7,0.6-14,0.8-21c0.6-14,2-28.4,1-42.4c5.2-0.2,10.2-0.4,15.4-0.6c0,0.4,0,0.8,0,1.2
		c0,1.4-1,6-3.4,3.6c-1.2-1.4-3.8-0.8-4.2,1.2c-1,4.4,3,7.2,7.2,6.2c4.8-1.2,6.8-6.4,6.6-10.8c0-0.6,0-1-0.2-1.6
		c7.4-0.2,14.6-0.6,22-0.8c-0.2,3.4-1.2,7.8-5.2,6.2c-2.4-1-3.8,2-3,4c1.8,3.8,6.8,3.8,9.8,1.4c3.2-2.6,4.2-7.4,4.2-11.6
		c6.2,0,12.4,0,18.6,0.2c0.6,5-1,9.6-5.6,9.4c-1.2,0-2.4,1.2-2.4,2.4c0,0.2,0,0.6,0,0.8c0,1.6,1,2.4,2.4,3c7.4,3,11.6-6.2,11-15.6
		c4,0.2,8,0.4,11.8,0.6c1.4,0.2,2.8,0.4,3.8,0.8c0,0.6,0,1.2,0,1.8c0,2.6,0.4,12-3.8,10.4c-1.6-0.6-3,1-3.2,2.4c0,0.4,0,0.6-0.2,1
		c-0.2,1,0.8,2.2,1.6,2.8c8.2,5.4,10.6-5.4,11.2-11.8c1.6,4.6,1.2,10.6,1.4,15.6c0.2,6.4,0.2,12.8,0.2,19
		C149.3,110.2,149.1,117.8,148.7,125.4z"/>
	<path fill="#1D1D1B" d="M139.7,90.2c1-0.8,0.6-2.8-1-3c-23.4-2-48.4-0.2-71.8,2.2c-0.8-0.6-2.4-0.2-2.6,1.2
		c-2.2,16-2.2,32.2-3.2,48.4c0,1.2,1,2,2.2,2.2c13.2,0.6,26.4,1.2,39.6,1.8c6,0.2,11.8,0.6,17.8,0.8c3.8,0.2,11.4,2,15.2,0.4
		c5.2-2,3.6-8.2,3.6-13c0.2-13.4,0.2-26.6,0.4-40C139.9,90.8,139.9,90.4,139.7,90.2z M135.1,135.2c1.2,4-0.2,5.4-4.4,4.6
		c-2.6-0.2-5.2-0.2-8-0.4c-19-0.8-38-1.6-57-2.4c0.8-14.8,2.2-30,1.8-44.8c22.6-0.6,45.6-0.2,68-1.4c0,0.2,0,0.2,0,0.4
		c-0.2,10.6-0.2,21.4-0.4,32C135.1,126.6,135.9,131.8,135.1,135.2z"/>
	<path fill="#1D1D1B" d="M113.9,104.2c-5-4.4-11,3.2-14.4,9.6c-1.6-2.6-3.2-5.2-5.4-6.8c-2.4-2-6.6-2.6-8.4,0.6
		c-4.2,7.2,9,14.8,14,16.8c0.6,0.2,1.2,0.2,1.6,0c0.6,0,1.4,0,2.2-0.6C107.9,120.8,120.9,110.6,113.9,104.2z"/>
</g>
</svg>
