<?xml version="1.0" encoding="utf-8"?>
<!-- Generator: Adobe Illustrator 18.1.1, SVG Export Plug-In . SVG Version: 6.00 Build 0)  -->
<svg version="1.1" id="Capa_1" xmlns="http://www.w3.org/2000/svg" xmlns:xlink="http://www.w3.org/1999/xlink" x="0px" y="0px"
	 viewBox="0 0 200 200" enable-background="new 0 0 200 200" xml:space="preserve">
<g>
	<path fill="#1D1D1B" d="M120.3,126.7L120.3,126.7c7.8-5.8,15.6-14.2,13-24.6c-1.4-5.8-6-9-9-14c-4.4-7.6,0.6-13.8,0.8-20.6
		c0-0.6,0-1,0-1.6c0-0.4-0.2-0.8-0.2-1.4c-0.2,0-0.4,0-0.4,0c-0.4-1-1.2-2-2-2.8c-1.8-1.8-4-2.6-6.6-2.4c-1.6,0.2-3.2,1-4.4,2.4
		c-0.6-1.4-1.6-2.8-3.2-3.8c-3.2-2.2-7.8-1.2-10,1.6c-0.6-1-1.2-1.8-2.2-2.4c-2.4-1.4-5.4-1-7.6,0.8c-2,1.6-3.2,4-3.4,6.6
		c-1.6-1-3.6-1.4-5.2-1c-2.6,0.6-4.4,2.6-5,5c-0.4,0-1,0.4-1,1c0,5.6,3.4,6,6.2,10c6.6,10-6.4,15-9,22.6c-2.4,7,1.8,14,7.6,17.6
		c-4.4-0.2-8.6,0.2-11.4,0.8c-1.6,0.2-1.4,2.6,0,3c6.6,2,12.4,6,18.8,8.8c0,0-0.2,0.2-0.2,0.4c-2.2,5.6,1.8,11.8,8.4,11
		c3.6-0.6,5.8-3.4,8.4-5.6c6.6-5.6,15.8-3.2,23.6-2.4c1.4,0.2,1.8-1.6,1-2.6C125.3,130.3,122.9,128.3,120.3,126.7z M112.1,65.9
		C112.1,65.9,112.3,65.9,112.1,65.9c1.4-1.8,2-3.2,3.8-4.4c1.8-0.2,3.4,0.2,4.8,1.4c1.8,1.6,1.8,3.4,2.2,5.6c0,0.2,0.2,0.2,0.2,0.2
		c-1.6,3.8-4.8,6.8-5,11.2c-0.2,3.2,1.2,6,2.8,8.6c3.4,5.6,7.8,8.6,8.8,15.6c1.2,9.4-4,15-10.4,21.2c-0.2,0.2-0.2,0.6-0.2,0.8
		c-0.4-0.2-0.6-0.4-1-0.6c4-4.6,5.8-10,4.8-16.2c-1.4-8.8-16.4-21.2-12.8-29.8c0.4,0.2,1,0,1.4-0.4c1.8-2.6,0.6-5.8-1.8-7.6
		C111.1,69.9,111.9,67.9,112.1,65.9z M101.7,104.3c-3.6,0.8-7,6.6-8.2,9.6s-2,6.2-1.8,9.4c-2.2-1.8-5.2-2.8-8.6-3.2
		c-7.2-13,7.6-17.6,10.6-28.6c1.6-5.6-0.8-11.4-5.6-14.8c-0.2,0-0.2-0.2-0.4-0.2c-0.2-2,1.8-4.2,4-4c3.6,0.2,4.6,3.8,5,6.8
		c0.2,1.4,2.4,1,2.4-0.4c0-0.4,0-0.6,0-1c1-2.4,2.6-4.6,5.4-5.2c3.6-0.6,5.4,2.2,4.6,5.4l0,0c-2.8,2.8-3.2,6.6-1.6,10.6
		c1.4,3.6,4.6,6.4,7,9.6c6,8,8.4,17.8,1.6,26.4v0.2c-4.6-1.6-9.6-1.6-14.4,0C103.7,119.7,108.5,102.9,101.7,104.3z M89.1,62.1
		c0.8-1.6,2.6-2.8,4.4-2.8c2.4,0,3.2,2,3.6,4c0,0.2,0.2,0.4,0.2,0.4l0,0c0,0.8,1.2,1,1.4,0.2c1-3.8,5.4-6,8.6-3.2
		c3.2,2.6,2.2,6.8-0.4,9.4c-0.2,0-0.4,0-0.4,0c-3.8-0.6-6.8,1.6-8.4,4.6c-1.6-3-4.6-5-8.2-4C88.3,68.1,87.9,64.5,89.1,62.1z
		 M78.7,107.3c-1,2.8-1.2,5.8-0.6,8.4c-4.4-5.4-4.8-11.8,0.2-18.4c2.6-3.2,5.6-6.8,6.8-10.8c2.2-8-6-10-8.6-16.6
		c0.6-2,2.2-3.8,4.4-4.2c2.8-0.4,4.2,1.6,5.8,3.4l0,0c0.4,0.6,1,1.2,1.6,1.6c-2.2,1.4-3.2,4.4-2.2,6.6c0,0.4,0,0.8,0.4,1
		C98.1,90.3,82.3,97.1,78.7,107.3z M105.7,131.9c-1.6,0.6-2.6,1.4-4,2.6c-1,0.8-2,1.8-2.8,2.8c-3.6,4.4-7.4,3-11.2-4.4
		c0-0.4,0-0.6-0.2-0.8c0.2-0.4,0.4-1,0-1.4c-4-3.4-9-5.6-14-7.8c6.4-0.4,13.6,0,18.4,3.4c0,0.2,0,0.2,0,0.4c0.2,0.6,0.8,0.6,1.2,0.4
		c0.4,0,0.8-0.4,0.6-1c0-0.2-0.2-0.4-0.4-0.4c0.2-6,1.6-11.8,5.8-16.4c0.8-1,2-2.8,3.4-1.2c0.6,0.8-0.2,4.6-0.4,5.6
		c-0.6,3.8-2,7.6-3.8,11c-0.4,0.8,0,1.6,0.8,2c0,0.6,0.6,1,1.2,0.8c7.8-2.2,15.6-0.8,21.6,4.4C116.7,131.1,110.7,129.9,105.7,131.9z
		"/>
</g>
</svg>
