<?xml version="1.0" encoding="utf-8"?>
<!-- Generator: Adobe Illustrator 18.1.1, SVG Export Plug-In . SVG Version: 6.00 Build 0)  -->
<svg version="1.1" id="Capa_1" xmlns="http://www.w3.org/2000/svg" xmlns:xlink="http://www.w3.org/1999/xlink" x="0px" y="0px"
	 viewBox="0 0 200 200" enable-background="new 0 0 200 200" xml:space="preserve">
<g>
	<path fill="#1D1D1B" d="M146.7,128.7L146.7,128.7c-2.2,0-4.6,0.2-6.8,0.4c0-8,0.4-21.2-6.2-26c-1.6-1.2-3.4-1.6-5.4-1.8v-0.2
		c0-8,0.6-20.6-8.8-23c-0.2,0-0.2,0-0.4,0c0.4-5,1.2-12.8-1.6-16.4c-1.2-1.6-3.4-2.4-5.8-2.4c5.6-4.6,7.8-15.8,2.4-20.6
		c-6-5.2-12.4,0.2-14.4,6.2c-0.8-2.4-2.4-4.6-4.8-5.6c-4-1.8-9,0.8-11.4,4.2c-2.6,3.8-1.6,8.6,1.2,12c1.8,2.2,4.2,3.6,6.8,4.4
		c-3.6,0.2-7,1.2-9.2,3.4c-3.6,3.6-2,11-1.6,15.6v0.2c-1.8,0.4-3.6,0.8-5.6,1.2c-0.6,0-1.2,0.2-1.6,0.4c-0.2,0-0.2,0-0.4,0.2
		c-0.2,0-0.2,0.2-0.2,0.4c-3.4,3.8-2.2,16.8-2,19.4c0,0.2,0.2,0.6,0.2,0.6c-2.4,0.8-4.8,1.8-6.6,3.4c-7,6-5.8,18-4.8,26.2
		c-2.2,0-4.4,0-6.6,0c-4.4,0-4.2,6.4,0,6.8c14.4,1,29,1.2,43.6,1c-0.4,2.6-0.4,5.2-0.6,7.8c0,2.8-0.4,5.8,0,8.6
		c-6.8,0-13.4,0.2-19.4,2c-2.2,0.6-2.2,3.8,0,4.4c11.6,3.2,26,1.4,38,1.4c4.6,0,4.6-7.2,0-7.2c-3.8,0-7.8-0.2-11.8-0.4
		c0.4-2.8,0.2-6,0.2-8.8c0-2.6,0-5.4-0.2-8c14.6-0.4,29.4-1.4,43.8-2.4C151.5,135.5,151.1,129.1,146.7,128.7z M85.5,49.9
		c-0.8-3.4,2.8-9.4,7-8.8c5,0.6,5.4,5.6,6.6,9.4c0.2,0.8,1.6,0.8,1.6-0.2c0-0.2,0-0.4,0-0.6l0,0c0.6-2.8,1.4-6,3.6-8
		c3-2.8,7.8-2.4,9.4,1.8c2.2,5.8-2.4,10-4.6,14.8c0,0.2-0.2,0.4,0,0.6c-3.2,0.2-6.6,0.8-8.8,0.8c-0.8,0-1.8,0-2.8,0
		C92.9,57.5,86.7,55.5,85.5,49.9z M84.9,64.1c3.8-3.2,12-2,16.8-2.2c4.6-0.2,9.6-1.4,12.8,1.8c1,1,1.6,2.4,2,4l0,0
		c-1,1.8-3.4,2.4-4,0c-0.4-1.6-2.6-1-2.6,0.4c-0.2,1.6-1.4,2.4-2.8,1.8c-1.2-0.4-1.6-1-2-2.2c-0.2-0.6-1-0.6-1.2-0.2
		c-0.4-0.2-1-0.2-1.4,0.4c-0.6,1-1,2-2.2,2.2c-1.6,0.2-2.4-0.8-2.6-2.2c-0.2-1.2-2.2-1.2-2.4,0c-0.2,0.6-0.2,1.2-0.6,1.8
		c-0.2,0.4-0.4,0.8-0.8,1c-0.8,1.2-1.6,0.6-2.6-1.2c0.2-0.8-0.6-1.2-1.2-1c0-0.2,0-0.4-0.2-0.4c-0.4-0.8-1.6-0.6-1.8,0.2
		c-0.4,0.8-0.4,1.8-1,2.6c-0.8,0.8-1.8,1-2.8,0.8c-0.8-0.2-1.2-0.8-1.8-1.4C82.5,67.7,83.3,65.5,84.9,64.1z M85.7,73.9
		c1.4,0,3-1,3.8-2.4c0.4,1,1.4,1.8,2.8,2c1.8,0.2,3.2-0.8,4-2.2c1,1,2.2,1.6,3.6,1.6c1.6,0,3.4-1,4-2.4c1.4,2.6,5.4,2.8,7.4,0.6
		c1.6,1.4,4,1.6,5.6,0.8c0,1.8,0,3.8-0.2,5.4c-6-1-12.6-0.2-18.4,0c-5.4,0.2-10.8,0.4-16,1.2c0-1.6-0.2-3.8-0.2-5.8
		C83.1,73.5,84.3,73.9,85.7,73.9z M76.5,81.3c9.2-0.2,18.4-1.4,27.8-1.4c4.2,0,9.2-0.6,13.4,0.8c0,0,0,0,0.2,0
		c2.4,0.8,4.8,2.4,6.4,5c0.2,0.4,0.6,1,0.8,1.6c0,0-0.2,0-0.2,0.2c-0.4,0.4-2.2,2.4-2.4,2.4c-2.4,0.8-4.4-0.4-4.8-3
		c-0.4-2-3-1.2-3.2,0.4c-2.6,3.4-4.4,3.2-5.4-0.6c0-0.8-1-1.2-1.6-0.6c-0.6,0-1,0.4-1.2,0.8c-0.4,1-0.4,1.8-1.2,2.6
		c-1.4,1.6-4.4,1.4-4.8-1.6c-0.2-1.6-2.8-2.2-3-0.4c-0.2,1-0.4,2-1.2,2.8c-1.6,1.2-4.6,0.6-4.4-2c0-0.6-0.6-1-1-0.8
		c-0.6-0.4-1.6-0.2-1.8,0.6c-0.4,1.4-0.8,2.4-2.2,3c-1.8,0.8-3.8-0.2-4.2-2.6c-0.2-1.4-2.2-2-2.8-0.4c-0.2,1-0.6,1.8-1.2,2.4
		c-2.4,1.2-3.8,0.8-4.2-1.2c0-0.2-0.2-0.4-0.2-0.4C73.7,85.9,74.1,82.5,76.5,81.3z M73.7,93.3c0.6,0.4,1.4,0.8,2.4,0.8
		c2,0.2,3.6-0.8,4.6-2.4c1.2,1.6,2.8,2.6,5,2.4c1.8-0.2,3.4-1.2,4.2-2.6c0.6,1.2,1.8,2.2,3.4,2.4c2.2,0.4,4-0.6,5.2-2.2
		c1.2,1.4,3,2.4,5,2c1.8-0.2,3.6-1.4,4.4-3c1.8,2.4,5.4,2.6,7.8,0.4c1.2,1.6,3,2.6,5,2.6c1.8,0,3.6-0.8,4.8-2.2
		c0.4,3.2,0.2,7,0.2,9.6l0,0c-0.8,0-1.6,0-2.4-0.2c-8.2-0.4-16.2-0.8-24.4-0.8c-7-0.2-17-1.4-25.2,0.4l0,0
		C73.7,98.1,73.5,95.7,73.7,93.3z M72.7,104.3c8.8-2.2,19.2-1.2,28.2-1c9.6,0.2,21.2-1.4,29.2,4.2c4.6,3.2,5.4,5.8,5.8,9.8
		c-0.2,0-0.4,0.2-0.6,0.4c-2,2-2.8-0.4-3.4-2.2c-0.6-1.6-3-1.8-3.4,0c-0.2,1-0.4,1.8-1.2,2.6c-1.2,1.2-3.2,0.6-3.2-1.4
		c0-1-1-1.4-1.8-1c-0.2-0.4-0.6-0.6-1-0.8c-0.6-0.4-1.4-0.2-1.6,0.4c-0.2,0.2-0.4,1.2-0.6,1.4c-2,2.8-4.4,2.2-5.6-1
		c-0.8-2-3.4-1.6-3.6,0.4c-0.4,4.4-5.6,3.4-6.6,0.2c-0.2-0.8-0.8-1-1.4-0.8c-0.6-1-2-1.2-2.6,0c-0.4,0.8-0.6,1.4-1.2,2
		c-0.8,1.2-1.6,1.2-2.6,0.4c-1.4,0-2-0.6-2-1.8c-0.4-1.8-3-1.6-3.4,0c-1.2,4.4-6.2,4.4-8.4,0.6c-0.2-0.2-0.4-0.4-0.6-0.4
		c-0.6-0.4-1.2-0.2-1.6,0.4c-0.8,1.4-0.6,1.2-2.6,2.2c-1.4,1.6-2.4,1.4-2.8-0.2c-0.6-0.6-0.8-1-0.8-1.8l0,0l0,0c0-0.2,0-0.2,0-0.4
		c0.2-1.6-2-1.6-2.6-0.4s-1.4,2.8-2.4,3.6c-2,1.6-5.6,1.6-6.4-1.4C62.9,111.9,65.3,106.1,72.7,104.3z M62.1,130.9c0-3-0.2-6.2,0-9.6
		c1,1,2.4,1.8,4,1.8c2.4,0,4.4-1.2,5.6-3c0.8,1.6,2.2,2.8,4.2,3c2.4,0.2,5-1.2,5.8-3.4c2.6,3.2,7.2,3,10,0.4c1,1.4,2.8,2.4,4.8,2.2
		c2-0.2,3.8-1.4,4.8-3c2,4.2,7.6,4,10.4,0.8c1.8,2.2,4.4,3.4,7.4,2.2c1-0.4,2.2-1.4,2.8-2.6c0.8,1.4,2.4,2.4,4.2,2.4
		c1.6,0,3-0.8,4-2c0.8,1,1.8,1.8,3.2,2c1,0.2,2.2,0,3-0.6c0,0,0,0,0,0.2c0.2,2.6,0.6,5,1,7.6C112.3,130.9,87.1,130.9,62.1,130.9z"/>
</g>
</svg>
