<?xml version="1.0" encoding="utf-8"?>
<!-- Generator: Adobe Illustrator 18.1.1, SVG Export Plug-In . SVG Version: 6.00 Build 0)  -->
<svg version="1.1" id="Capa_1" xmlns="http://www.w3.org/2000/svg" xmlns:xlink="http://www.w3.org/1999/xlink" x="0px" y="0px"
	 viewBox="0 0 200 200" enable-background="new 0 0 200 200" xml:space="preserve">
<g>
	<path fill="#1D1D1B" d="M76.1,127c-2.2-2.8-6.4-3.6-9.8-2.2c-2.6,1-4.2,2.8-5.4,5.2c-1.8-1.6-4.2-2.8-6.8-3.2
		c-4-0.4-7.8,1.4-8.2,5.8l0,0c-3.6,8.2,15.4,22,22.8,14.6c0,0,0,0,0.2,0C75.7,144.8,81.1,133.4,76.1,127z"/>
	<path fill="#1D1D1B" d="M88.3,108.8c-7.4-5.4-26-10-32,0c-2,3,2,5.2,4.4,3.4c6.4-5,19-1.2,24.4,3.2c8,6.6,9.2,17.2,6.4,26.6
		c-1.6,3.8,4.8,6.8,6.6,2.2C103.1,131.8,98.9,116.6,88.3,108.8z"/>
	<path fill="#1D1D1B" d="M104.9,87.8c-13.8-12.4-39.4-16.4-52.8-0.6c-1.8,2.2,0.4,5.2,3,4c16-8,31.6-10.4,45.8,2.8
		c13.8,13,21.8,32.6,13.4,50.8c-2,4,4,7.6,6.2,3.6C131.1,127,121.9,103,104.9,87.8z"/>
	<path fill="#1D1D1B" d="M136.1,65.6c-20.6-20.8-58.6-25-82.2-7c-1.8,1.4-1,5,1.8,4c12.4-4,24-8.6,37.4-8.2c13.6,0.4,27,5.6,37,15
		c20,18.8,22.4,55,9,78c-2.4,4,3.8,7.6,6.2,3.6C159.9,125.8,157.3,87,136.1,65.6z"/>
</g>
</svg>
