<?xml version="1.0" encoding="utf-8"?>
<!-- Generator: Adobe Illustrator 18.1.1, SVG Export Plug-In . SVG Version: 6.00 Build 0)  -->
<svg version="1.1" id="Capa_1" xmlns="http://www.w3.org/2000/svg" xmlns:xlink="http://www.w3.org/1999/xlink" x="0px" y="0px"
	 viewBox="0 0 200 200" enable-background="new 0 0 200 200" xml:space="preserve">
<path fill="#1D1D1B" d="M130.7,81.2c-0.6-1.8-1.6-3.4-2.8-5c-11-14.6-24.2,0.8-28,13.8c-1.4-7.2-5.2-14-12.2-16.6
	c-6.6-2.4-12.4,0.6-16,6c-8.4-7-23.2-4.4-30.2,3.4c-3.6,4-5.6,10-2.8,15c1.6,3,5,4.6,8,2.8l0,0c0.4,0,0.8,0,1.4-0.2
	c-0.6,2.8,1.8,5.4,4.8,5.6c1.8,0,3.4-0.6,4.6-1.6c0.6,1.8,3.6,2.4,5.6,2c2-0.4,4.4-1.6,6.2-3.2c4.8,12.8,19,22.6,32.2,25.6
	c0.2,0,0.6,0,0.8-0.2c0.4,1,1.8,1.6,2.8,0.8c5.8-4.8,14.2-13,20-22c0.8,1,2,1.8,3,2.2c3.6,1.6,7.4,0.4,10.8-1.2
	c3.8,2.6,9.2,2.6,11.8-1.6c2.8,1.6,6,1.4,8.6-0.2c0.4-0.2,0.6-0.8,0.4-1.2C171.7,89.8,144.1,72.6,130.7,81.2z M69.9,82.8
	c-2.8,6.2-3.2,12-1.6,17.6c-0.6,0.8-1.2,1.6-2.2,2.2s-2,1.2-3,1.6c-0.8,0.2-5,1.2-4.2-1.4c1-1.4,1.8-3,2-4.6c0.2-1.2-1.2-1.8-2-0.8
	c-1.2,1.8-2,4.2-3.8,5.4c-2.2,1.4-6,0.6-5.4-2.6V100c0.2,0,0.2-0.2,0.4-0.2c2-1.2,4-4,3.2-6.6c-0.4-1-1.8-1-2.2,0
	c-0.6,1.8-0.8,3.4-2.4,4.6c-1,0.8-2.4,1-3.6,0.8c-1.4-1-2.8-2.2-4.4-3.2c0-1.6,0-3.2,0-5c0.6-2.2,2-4.4,3.6-5.8
	c2.8-2.8,6.8-4.6,10.6-5.2c5.6-1,10.4,0.8,15.4,2.6C70.3,82,70.1,82.4,69.9,82.8z M102.5,126.8l-0.2,0.2l-0.2-0.2
	c-12.6-5.8-26-12-30-26.6c-0.2-0.4-0.2-1-0.4-1.4v-0.2c0-0.4,0-0.6-0.2-0.8c-1.2-9.8,2.6-27,16.8-20.4c8,3.8,8.2,14,10,21.2
	c0.4,1.2,2.2,1,2.2-0.4c0-0.6,0-1.4,0-2.2c1.2-6.2,3-12.6,7.4-17.2c5.4-5.8,16.8-4,19.2,3.8c1.4,4.4,0.2,9.4-1.2,13.6
	C121.5,108.4,111.7,118.2,102.5,126.8z M157.5,104.6L157.5,104.6c-2,0.4-4,0-5.6-1.2s-2.2-3-3-5c-0.4-1.2-2.4-1.4-2.6,0
	c-0.4,2.6,0.6,5,2.4,6.8c-2,1.2-4,2-6.4,1.2s-4-2.8-5-5c-0.6-1.4-3-1.4-2.8,0.4s1,3.2,2,4.6c-2.2,0.6-4.4,0.8-6.6,0
	c-1.6-0.6-2.2-1.8-3-2.8c3.6-6.8,5.8-13.8,4.2-20.4c6.6-2,13.6-1.2,19.8,2.2C157.9,89,162.9,97.4,157.5,104.6z"/>
</svg>
