<?xml version="1.0" encoding="utf-8"?>
<!-- Generator: Adobe Illustrator 18.1.1, SVG Export Plug-In . SVG Version: 6.00 Build 0)  -->
<svg version="1.1" id="Capa_1" xmlns="http://www.w3.org/2000/svg" xmlns:xlink="http://www.w3.org/1999/xlink" x="0px" y="0px"
	 viewBox="0 0 200 200" enable-background="new 0 0 200 200" xml:space="preserve">
<g>
	<g>
		<path fill="#1D1D1B" d="M61.6,152.1L61.6,152.1c-3,0-6.1-0.8-9.1-2.4c-1.9-0.8-3.5-2.1-5-3.4c-0.4-0.3-0.8-0.7-1.2-1
			c-4.1,3-9.2,4.7-13.8,4.7c-7.9,0-13-4.9-13.8-13.1c0-1,0.5-1.6,1-1.9c0.8-2.7,3.4-4.7,6.8-5.4c1-0.2,2.1-0.3,3.1-0.3
			c6.3,0,11.5,3.8,15.7,7.2c0,0,0,0,0,0c0.2-0.2,0.3-0.3,0.4-0.4l0.1-0.2c3-3.8,3.4-10,3.4-15.6c0-7.3-1.8-15-3.5-22.5
			c-0.4-1.8-0.8-3.6-1.2-5.3l-0.9-4c-2.4-10.5-4.9-21.3-5.7-32.3c-5.2,0.9-10.3,0.4-14.6-1.7c-0.9-0.4-1.5-1.3-1.3-2.4
			c0.3-1.3,1.6-2.2,2.9-1.7c1.8,0.6,3.7,1,5.7,1c2,0,4-0.3,6.4-1C35,44,36.5,35.9,43.3,32.7c1.3-0.6,2.6-0.9,4-0.9
			c2.6,0,5,1,6.6,2.9c1.5,1.6,2.2,3.7,2,5.9c0.9,5.8-5.3,10.7-9.8,12.7c-0.8,0.5-1.6,0.9-2.4,1.2c1.6,8.6,3.7,17.3,5.6,25.7
			c1.8,7.5,3.6,15.2,5.1,23c2.3,11.1,4.2,23.9-1.5,34.6c-0.4,0.8-1.1,1.6-1.7,2.4c-0.1,0.1-0.2,0.2-0.3,0.3
			c3.4,2.6,7.2,4.8,11.7,4.8c1.6,0,3.3-0.3,5-0.9c0.3-0.1,0.5-0.1,0.8-0.1c1.2,0,2.3,0.9,2.7,2.2c0.4,1.4-0.2,2.9-1.5,3.7l-0.1,0.1
			C67,151.4,64.3,152.1,61.6,152.1z M46.2,142.7l0.6,0.5c0.6,0.5,1.3,1,1.9,1.5c1.5,1.2,3,2.4,4.7,3.2c2.8,1.5,5.5,2.2,8.3,2.2h0
			c2.4,0,4.7-0.5,7.1-1.6c0.7-0.5,0.7-1.1,0.6-1.4c-0.1-0.4-0.5-0.8-0.9-0.7c-1.9,0.6-3.8,0.9-5.6,0.9c-5.6,0-10.1-3-13.8-5.9
			l-0.8-0.6l0.6-0.8c0.3-0.4,0.6-0.8,0.9-1.2c0.6-0.7,1.2-1.4,1.5-2c5.4-10.1,3.5-22.4,1.3-33.3c-1.5-7.7-3.4-15.5-5.1-22.9
			c-2-8.7-4.2-17.7-5.8-26.7L41.5,53l0.9-0.2c0.9-0.2,1.9-0.7,2.8-1.3l0.2-0.1c3.8-1.6,9.4-6,8.7-10.7l0-0.1l0-0.1
			c0.2-2.2-0.7-3.7-1.5-4.5c-1.2-1.4-3.2-2.2-5.1-2.2c-1.1,0-2.2,0.2-3.2,0.7c-5.8,2.8-7.2,10.4-5.1,16.1l0.4,1l-1,0.3
			c-3,0.9-5.5,1.4-8,1.4c-2.2,0-4.3-0.4-6.4-1.1l-0.1,0c0,0-0.1,0.1-0.1,0.3c0,0.1,0,0.1,0.1,0.1c2.8,1.3,5.8,2,9.1,2
			c1.8,0,3.6-0.2,5.5-0.6l1.1-0.3l0.1,1.2C40.4,66,43,77.1,45.5,87.9l0.9,4c0.4,1.7,0.8,3.5,1.2,5.3c1.8,7.6,3.6,15.4,3.6,22.9
			c0,5.9-0.5,12.5-3.8,16.8c-0.2,0.4-0.5,0.6-0.7,0.9c-0.2,0.2-0.3,0.3-0.4,0.4l-0.6,1.1l-1-0.8c-5.2-4.2-9.6-7.3-15.2-7.3
			c-0.9,0-1.8,0.1-2.7,0.3c-2.8,0.5-4.9,2.2-5.4,4.3l-0.1,0.5l-0.4,0.2c-0.2,0.1-0.3,0.2-0.3,0.2c0.7,7.2,5,11.3,11.8,11.3
			c4.4,0,9.3-1.8,13.2-4.8L46.2,142.7z M33.7,144.3c-3.8,0-7.1-1.6-9.8-4.7l-0.7-0.8l0.9-0.6c1.1-0.8,2.3-1.7,3.5-2.6
			c1.2-0.9,2.4-1.8,3.5-2.7l0.5-0.4l0.6,0.3c0.8,0.4,1.6,0.7,2.5,1.1c0.8,0.4,1.7,0.7,2.6,1.1c1.4,0.8,2.8,1.8,4.1,2.8
			c0.6,0.5,1.3,1,1.9,1.4l1.1,0.8l-1.1,0.8C40.3,143.1,36.9,144.3,33.7,144.3z M26.2,139.1c2.1,2.1,4.7,3.2,7.5,3.2
			c2.4,0,4.9-0.8,7.2-2.3c-0.3-0.2-0.6-0.4-0.8-0.6c-1.3-1-2.6-2-3.8-2.7c-0.8-0.4-1.6-0.7-2.4-1.1c-0.7-0.3-1.3-0.6-2-0.9
			c-1,0.7-2,1.5-3,2.3C27.9,137.8,27,138.4,26.2,139.1z M41,50.6v-2.1c0-2.9,0-6.1,1.8-8.9c1-1.9,2.8-3.2,4.9-3.6l0.2,0
			c0.9,0,3,0.2,3.9,1.6l0.2,0.4L52,38.3c-1.4,6-4,9.2-9.5,11.6L41,50.6z M48,38c-1.4,0.3-2.8,1.3-3.4,2.5l-0.1,0.1
			c-1.3,2-1.5,4.4-1.5,6.8c3.8-2,5.7-4.5,6.9-9C49.5,38.1,48.8,38,48,38z"/>
	</g>
	<g>
		<path fill="#1D1D1B" d="M165.4,168.2C165.4,168.2,165.4,168.2,165.4,168.2c-6.3,0-13.4-5.3-14.8-15.4c-1.4-8.9-2.2-22.9-0.4-36.1
			h-3c0.9,6.4,0.4,13.4-1.3,20.3c-0.7,2.5-7.1,24.4-19.7,25.4c-0.4,0-0.7,0-1.1,0c-3.6,0-6.5-1.4-8.9-4.2c-7.3-8.8-6.8-30-4-46.9
			c-1.8,1.7-3.8,3.2-6,4.3c3,14.5-4,34.4-17.9,39.1c-2.3,0.8-4.5,1.2-6.5,1.2c-8.4,0-13.9-7.1-14.7-18.9
			c-1.4-17.1,4.6-30.5,16.5-36.8c1.2-0.6,2.3-0.3,3,0.6c0.2-0.8,0.9-1.3,1.7-1.3c7.1,0.5,12.3,3.7,15.5,9.4c3.3-2.3,5.3-5.2,7.5-8.6
			c0.6-0.9,1.3-1.9,1.9-2.8l0.1-0.1c1-1,2.2-1.4,3.3-1c0.3-0.2,0.7-0.3,1.1-0.3c1.2,0,2,0.9,2,2c-0.1,3-0.2,6-0.3,8.9
			c-0.2,6-0.5,12.2-0.5,18.2c0,1.3-0.1,2.8-0.1,4.4c-0.3,8.6-0.8,20.3,6.9,22c0.9,0.2,1.7,0.3,2.4,0.3c4.3,0,6.2-4.2,8.3-9l0.5-1.1
			c1.6-3.2,2.7-6.7,3.3-10.4c0.9-4.7,1-9.7,0.1-15.6c-5.7-1.4-9.4-4.4-11-8.9c-1.1-2.9-0.8-6.3,1-8.9c1.4-2.1,3.6-3.3,5.8-3.3
			c1.3,0,2.5,0.4,3.7,1.1c0.6,0,1.5,0.2,2.2,1.3l0.1,0.1c1.7,3.5,3.2,7.4,4.4,12.1h2.9c0.9,0,1.9,0,2.8-0.1
			c1.9-9.4,5.6-16.7,10.7-21.1c1.4-2.9,4-4.5,7.4-4.5c4,0,8.8,2.5,10.4,7.4c1.9,5.3,0.5,10.6-4,15.3c-4.7,4.8-11,7.5-13.6,8.4
			c-1,0.5-2,0.8-3.1,1c-0.6,4.5-0.9,8.8-1.2,12.2l-0.1,1.9c-0.6,6.1-0.6,12,0,18c0.1,1.3,0.3,2.6,0.4,4c0.1,1.1,0.2,2.3,0.4,3.4
			c6.5,4.4,11.1,4.3,13.9-0.8l0.1-0.2c0.6-0.7,1.5-1.2,2.5-1.2c1.2,0,2.4,0.7,3,1.7c0.4,0.8,0.4,1.7-0.2,2.5
			C175.9,164.2,171.2,168.2,165.4,168.2z M144.8,114.7h7.7l-0.2,1.1c-1.9,13.3-1.1,27.7,0.3,36.7c1.3,9,7.4,13.7,12.8,13.7
			c0,0,0,0,0,0c4.9,0,9-3.5,11.3-9.7l0.1-0.2c0.2-0.3,0.2-0.5,0.1-0.6c-0.2-0.3-0.6-0.6-1.2-0.6c-0.4,0-0.7,0.1-0.9,0.4
			c-3.4,6-9.3,6.5-17.1,1.1l-0.4-0.3l-0.1-0.5c-0.1-1.2-0.3-2.5-0.4-3.9c-0.1-1.4-0.3-2.7-0.4-4c-0.6-6.2-0.6-12.2,0-18.4l0.1-1.8
			c0.2-3.7,0.6-8.3,1.3-13.1l0.1-0.7l0.7-0.1c1.4-0.3,2.4-0.5,3.4-1l0.1,0c7.9-2.8,20.2-10.4,16.5-21.1c-1.3-3.9-5.3-6-8.5-6
			c-1.5,0-4.3,0.5-5.6,3.6l-0.1,0.2l-0.2,0.1c-4.9,4.2-8.5,11.4-10.3,20.7l-0.1,0.6l-0.6,0.2c-1.2,0.3-2.7,0.3-3.9,0.3h-4.4
			l-0.2-0.8c-1.2-4.8-2.6-8.8-4.4-12.3c-0.2-0.3-0.4-0.3-0.8-0.3h-0.3l-0.3-0.2c-2.5-1.7-5.3-1-7,1.5c-1.4,2-1.7,4.8-0.8,7.1
			c1.4,4,4.8,6.6,10.2,7.8l0.7,0.1l0.1,0.7c1,6.3,1,11.9,0,16.9c-0.6,3.8-1.8,7.5-3.4,10.9l-0.5,1.1c-2.3,5-4.6,10.2-10.2,10.2
			c-0.9,0-1.8-0.1-2.8-0.4c-9.3-2.1-8.8-14.8-8.4-24.1c0.1-1.6,0.1-3.1,0.1-4.4c0-6,0.3-12.3,0.5-18.3c0.1-3,0.2-6,0.3-8.9l-0.6,0.8
			l-1-0.5c-0.4-0.3-1-0.1-1.5,0.4c-0.6,0.9-1.3,1.8-1.8,2.7c-2.5,3.7-4.8,7.2-9,9.8l-0.9,0.6l-0.5-1c-2.7-5.4-7-8.4-13.1-9.1
			c4.6,1.8,8.3,5.4,10.4,10.3l0.4,1l-1,0.3c-1.7,0.6-3.5,1.2-5.6,1.2c-0.2,0-0.6,0-0.9,0c-2.8,0-8.1-0.8-10.4-3.7
			c-1-1.3-1.3-2.9-0.9-4.6l0.1-0.3l0.2-0.2c0.8-0.8,2-2,3.2-2.9c0.3-0.2,0.2-0.5,0.2-0.7c0-0.1-0.2-0.3-0.6-0.2
			c-15.8,8.4-16,27.2-15.4,34.9c0.4,5.1,2.3,17,12.7,17c1.8,0,3.8-0.4,5.9-1.1c13-4.3,19.6-24,16.4-37.5l-0.2-0.8l0.7-0.4
			c3.2-1.6,6.2-4,8.4-6.7l2.5-3.1l-0.7,3.9c-2.6,13.6-4.8,39.2,3,48.6c2.2,2.6,4.8,3.7,8.3,3.5c9.1-0.8,15.5-15.4,17.9-23.9
			c1.7-7,2.1-14.1,1.1-20.6L144.8,114.7z M83.3,107c-0.2,1,0,1.8,0.6,2.6c1.6,2,5.7,3,8.8,3c0.3,0,0.6,0,0.9,0c1.5,0,2.7-0.3,4-0.7
			c-2.1-4.2-5.6-7.2-9.8-8.5c-0.2-0.1-0.5-0.2-0.6-0.4c-0.1,0.6-0.4,1.2-1,1.6C85.1,105.2,84.1,106.2,83.3,107z M85,150.1
			c-5.3,0-10.1-4.1-11.7-10c-0.9-3.4-0.8-7.4-0.6-10.2c0.3-7.6,2.2-14,5.8-19.5l1.1-1.7l0.7,1.9c1.6,4.2,8.5,7,14.1,7
			c0.7,0,1.3,0,1.9-0.1c1.7-0.3,3-0.6,4.6-1.1l1.1-0.4l0.2,1.1c2.2,10.8-1.6,25.5-11.7,31.3C88.7,149.6,86.9,150.1,85,150.1z
			 M79.2,113c-2.8,4.9-4.3,10.5-4.5,17.1c-0.2,2.6-0.3,6.3,0.5,9.5c1.4,5,5.4,8.6,9.7,8.6c1.5,0,3-0.4,4.5-1.3
			c9-5.2,12.5-18.1,10.9-28.1c-1.3,0.4-2.4,0.6-3.8,0.8C90.8,120.3,82.4,117.7,79.2,113z M159.3,110.6l0.3-1.8
			c0.9-5.3,2.9-12.7,7.2-18.1l0.3-0.3l0.4,0c4.2-0.5,6.8,0.1,7.8,1.9c0.8,1.4,0.5,3.2-0.8,5.5c-0.1,3-1.7,5.6-4.6,7.6
			c-2.5,2-5.9,3.4-8.9,4.6L159.3,110.6z M168.1,92.3c-2.8,3.6-5,8.8-6.2,15.1c2.4-1,4.9-2.2,6.8-3.7c2.6-1.7,3.8-3.7,3.8-6.2v-0.3
			l0.1-0.2c1-1.7,1.3-3.1,0.9-3.8C173,92.3,171,92,168.1,92.3z"/>
	</g>
</g>
</svg>
