<?xml version="1.0" encoding="utf-8"?>
<!-- Generator: Adobe Illustrator 16.0.0, SVG Export Plug-In . SVG Version: 6.00 Build 0)  -->
<!DOCTYPE svg PUBLIC "-//W3C//DTD SVG 1.1//EN" "http://www.w3.org/Graphics/SVG/1.1/DTD/svg11.dtd">
<svg version="1.1" id="Layer_1" xmlns="http://www.w3.org/2000/svg" xmlns:xlink="http://www.w3.org/1999/xlink" x="0px" y="0px"
	 width="200.667px" height="40px" viewBox="0 0 200.667 40" enable-background="new 0 0 200.667 40" xml:space="preserve">
<path fill="#FFFFFF" stroke="#FFFFFF" stroke-miterlimit="10" d="M169.135,28.614c-3.162,0-5.371-1.55-5.371-3.771
	c0-0.293-0.237-0.53-0.531-0.53c-0.293,0-0.529,0.237-0.529,0.53c0,2.8,2.705,4.831,6.432,4.831c3.9,0,6.005-3.227,6.005-6.261
	c0-1.814-0.702-3.491-1.979-4.722c-1.461-1.408-3.594-2.151-6.172-2.151c-4.107,0-9.654,1.821-15.592,4.214
	c-0.01,0.004-0.02,0.008-0.029,0.013c-2.99,1.205-6.077,2.554-9.131,3.889c-8.594,3.755-17.48,7.638-22.875,7.638
	c-9.451,0-10.186-5.592-10.186-7.306c0-6.173,4.393-7.818,6.988-7.818c3.093,0,4.939,1.631,4.939,4.363
	c0,0.293,0.238,0.53,0.531,0.53s0.529-0.237,0.529-0.53c0-3.295-2.355-5.425-6-5.425c-5.53,0-8.049,4.604-8.049,8.88
	c0,1.225,0.294,3.567,2.261,5.494c1.946,1.906,4.97,2.872,8.985,2.872c5.615,0,14.205-3.753,23.3-7.728
	c2.083-0.911,4.185-1.828,6.255-2.7c-0.668,0.867-1.138,1.84-1.373,2.875c-0.373,1.637-0.13,3.348,0.652,4.574
	c0.727,1.141,1.766,1.874,3.006,2.123c0.303,0.061,0.611,0.091,0.918,0.091c0.961,0,1.916-0.293,2.717-0.849
	c3.129-2.17,1.453-5.054,1.436-5.082c-0.15-0.251-0.477-0.333-0.728-0.182c-0.251,0.15-0.333,0.475-0.183,0.727
	c0.051,0.084,1.193,2.054-1.129,3.666c-0.811,0.562-1.865,0.782-2.822,0.59c-0.951-0.19-1.752-0.764-2.32-1.654
	c-0.633-0.993-0.825-2.401-0.514-3.77c0.276-1.213,1.063-2.943,3.234-4.306c5.824-2.347,11.238-4.13,15.178-4.13
	c2.298,0,4.177,0.643,5.436,1.855c1.067,1.029,1.656,2.435,1.656,3.958C174.081,25.935,172.346,28.614,169.135,28.614z"/>
<path fill="#FFFFFF" stroke="#FFFFFF" stroke-miterlimit="10" d="M81.598,33.354c4.016,0,7.039-0.966,8.985-2.872
	c1.966-1.927,2.26-4.27,2.26-5.494c0-4.276-2.518-8.88-8.048-8.88c-3.645,0-6,2.13-6,5.425c0,0.293,0.237,0.53,0.53,0.53
	c0.292,0,0.529-0.237,0.529-0.53c0-2.732,1.847-4.363,4.94-4.363c2.596,0,6.989,1.646,6.989,7.818c0,6.78-7.796,7.306-10.186,7.306
	c-5.395,0-14.281-3.883-22.876-7.638c-3.052-1.335-6.14-2.684-9.128-3.889c-0.01-0.004-0.021-0.009-0.032-0.013
	c-5.937-2.393-11.483-4.214-15.591-4.214c-2.576,0-4.71,0.743-6.171,2.151c-1.276,1.23-1.98,2.907-1.98,4.722
	c0,1.621,0.558,3.151,1.571,4.308c1.104,1.26,2.679,1.953,4.434,1.953c3.727,0,6.433-2.031,6.433-4.831
	c0-0.293-0.238-0.53-0.531-0.53c-0.292,0-0.53,0.237-0.53,0.53c0,2.221-2.209,3.771-5.372,3.771c-3.211,0-4.945-2.679-4.945-5.2
	c0-1.523,0.588-2.929,1.655-3.958c1.259-1.213,3.139-1.855,5.436-1.855c3.94,0,9.354,1.783,15.178,4.13
	c2.171,1.362,2.958,3.093,3.234,4.306c0.312,1.368,0.12,2.776-0.513,3.77c-0.568,0.891-1.37,1.464-2.32,1.654
	c-0.956,0.192-2.012-0.028-2.822-0.59c-0.973-0.676-1.46-1.486-1.449-2.413c0.008-0.707,0.31-1.238,0.319-1.255
	c0.149-0.251,0.067-0.575-0.183-0.725c-0.251-0.151-0.577-0.069-0.728,0.182c-0.018,0.028-1.693,2.912,1.436,5.082
	c0.801,0.556,1.756,0.849,2.716,0.849c0.308,0,0.616-0.03,0.918-0.091c1.239-0.249,2.279-0.982,3.005-2.123
	c0.782-1.227,1.026-2.938,0.653-4.574c-0.235-1.035-0.706-2.008-1.374-2.875c2.071,0.873,4.171,1.789,6.255,2.7
	C67.393,29.601,75.983,33.354,81.598,33.354z"/>
<path fill="#FFFFFF" stroke="#FFFFFF" stroke-miterlimit="10" d="M8.637,14.167h77.83c0.293,0,0.53-0.207,0.53-0.5
	s-0.237-0.5-0.53-0.5H8.637c-0.292,0-0.53,0.207-0.53,0.5S8.345,14.167,8.637,14.167z"/>
<circle fill="#FFFFFF" stroke="#FFFFFF" stroke-miterlimit="10" cx="2.074" cy="12.849" r="1.022"/>
<circle fill="#FFFFFF" stroke="#FFFFFF" stroke-miterlimit="10" cx="5.287" cy="12.849" r="1.022"/>
<path fill="#FFFFFF" stroke="#FFFFFF" stroke-miterlimit="10" d="M193.032,13.667c0-0.293-0.238-0.5-0.531-0.5h-78.041
	c-0.293,0-0.53,0.207-0.53,0.5s0.237,0.5,0.53,0.5H192.5C192.793,14.167,193.032,13.959,193.032,13.667z"/>
<circle fill="#FFFFFF" stroke="#FFFFFF" stroke-miterlimit="10" cx="198.795" cy="12.849" r="1.023"/>
<circle fill="#FFFFFF" stroke="#FFFFFF" stroke-miterlimit="10" cx="195.583" cy="12.849" r="1.022"/>
<path fill="#FFFFFF" stroke="#FFFFFF" stroke-miterlimit="10" d="M107.28,10.368c1.013-0.077,1.876,0.258,2.641,1.021
	c1.029,1.03,0.676,2.41,0.661,2.465c-0.079,0.283,0.087,0.575,0.368,0.654c0.283,0.078,0.574-0.087,0.653-0.369
	c0.022-0.082,0.542-2.025-0.933-3.5c-0.982-0.981-2.147-1.429-3.469-1.33c-2.563,0.193-5.159,2.444-6.803,4.184
	c-1.651-1.725-4.191-3.885-6.698-4.073c-1.321-0.101-2.487,0.349-3.468,1.33c-1.475,1.475-0.957,3.419-0.934,3.5
	c0.078,0.281,0.369,0.444,0.649,0.368c0.282-0.076,0.448-0.368,0.373-0.65c-0.016-0.058-0.369-1.438,0.661-2.468
	c0.764-0.765,1.624-1.1,2.638-1.022c2.186,0.164,4.525,2.193,6.059,3.807c-0.592,0.681-0.957,1.17-1.003,1.234
	c-0.113,0.143-2.774,3.538-2.774,6.876c0,1.544,0.729,3.731,1.572,6.264c0.983,2.948,2.096,6.291,2.357,9.47
	c0.023,0.275,0.253,0.488,0.529,0.488c0.275,0,0.505-0.213,0.528-0.488c0.261-3.179,1.375-6.526,2.356-9.48
	c0.845-2.537,1.573-4.729,1.573-6.273c0-3.334-2.482-6.602-2.582-6.73c-0.053-0.071-0.46-0.621-1.116-1.364
	C102.649,12.653,105.043,10.536,107.28,10.368z M101.39,16.28c0.024,0.031,2.369,3.124,2.369,6.094c0,1.372-0.703,3.489-1.518,5.938
	c-0.666,2-1.39,4.177-1.88,6.382c-0.491-2.203-1.214-4.375-1.879-6.371c-0.814-2.445-1.518-4.557-1.518-5.929
	c0-2.966,2.52-6.186,2.556-6.231c0.012-0.017,0.338-0.455,0.884-1.086C101.009,15.768,101.376,16.261,101.39,16.28z"/>
<path fill="#FFFFFF" stroke="#FFFFFF" stroke-miterlimit="10" d="M100.189,0.872l-2.584,2.59c-0.15,0.149-0.196,0.388-0.116,0.585
	l2.658,6.681c0.08,0.201,0.274,0.438,0.489,0.438c0.001,0,0.002,0,0.002,0c0.215,0,0.409-0.234,0.491-0.434l2.659-6.529
	c0.082-0.197,0.035-0.439-0.115-0.59l-2.734-2.738C100.731,0.669,100.396,0.665,100.189,0.872z M100.644,9.022l-2.041-5.071
	l1.961-1.96l2.108,2.108L100.644,9.022z"/>
</svg>
