<?xml version="1.0" encoding="utf-8"?>
<!-- Generator: Adobe Illustrator 18.1.1, SVG Export Plug-In . SVG Version: 6.00 Build 0)  -->
<svg version="1.1" id="Layer_1" xmlns="http://www.w3.org/2000/svg" xmlns:xlink="http://www.w3.org/1999/xlink" x="0px" y="0px"
	 viewBox="0 0 294.7 190.7" enable-background="new 0 0 294.7 190.7" xml:space="preserve">
<g>
	<ellipse fill="#B8AAA0" cx="153.2" cy="185" rx="78" ry="2.6"/>
	<g>
		<polygon fill="#FFFFFF" points="233.8,158.9 247.5,159.5 243.7,150.1 		"/>
		<polygon fill="#FFFFFF" points="193.7,175.3 201.9,185.8 208,171.5 		"/>
	</g>
	<path opacity="0.7" fill="#F8F2E8" d="M182.7,23.8c0,0-33.5-0.5-31.3,54.4c0,0,49.5,15.4,84.6-8.2c0,0-7.7-37.9-34.6-42.9
		L182.7,23.8z"/>
	<path fill="#EABB98" d="M199.1,67.1c4.7-1.3,8.7-3.6,11.4-6.5c1.6,0,3.6-1.7,4.8-4.3c1.4-3.1,1.2-6.2-0.4-7
		c-0.4-0.2-0.8-0.2-1.3-0.1c-2.1-7.5-11.9-13.2-23.8-13.2c-10.5,0-19.5,4.5-22.8,10.8c-0.6-0.5-1.2-0.7-1.9-0.6
		c-1.8,0.3-2.9,3.1-2.5,6.4c0.5,3.3,2.4,5.7,4.2,5.4c0.1,0,0.2,0,0.3-0.1c2.3,4,6.9,7.3,12.7,9.1l-36.8,27.2l35.2-18.7h19.2
		l49.6,8.5L199.1,67.1z"/>
	<path fill="#FFFFFF" d="M184.9,100.2l-6.6-24.7c0,0,6.7-3.3,9.1-3.3c2.7,0,10.2,3.3,10.2,3.3l-1.1,21.6L184.9,100.2z"/>
	<path fill="#352013" d="M201.9,26.5c2.6-3.1,13.6-17.4-5.5-20.8c-19.1-3.4-14.8,14.4-13.9,17.6c-21.5,2.3-16.9,25.5-16.9,25.5
		s15.9,1.4,24.2-12.9c0,0,5.1,15.5,24.3,16.6C214.1,52.5,217,34.3,201.9,26.5z"/>
	<ellipse fill="#352013" cx="180.3" cy="49.8" rx="2.1" ry="2.3"/>
	<ellipse fill="#352013" cx="198.4" cy="50.8" rx="2.1" ry="2.3"/>
	<path fill="#FFFFFF" d="M203.1,26c1.1-0.7,4.7-3.6,2.7-5.1c-1.5-1.2-5.4,2.1-5.2,3.4c0-1.7-0.6-5.5-2.8-4.2
		c-1.6,0.9-0.9,5.3,0.2,6.7c-1.2-1.9-5.7-1.7-6.1,0.3c-0.6,3.4,4.6,3.5,6.6,2.3c-1.4,1.6-3.5,4.3-1.5,5.8c0.2,0.1,2.2,0.2,2.5,0
		c0.6-0.3,1.2-1.3,1.5-2.3c0.2,1.6,0.9,3.3,2.3,3.2c2.9-0.3,1.8-5.8,0.8-7c1.4,1.3,4,1.1,4.4-0.7C209.1,25.2,205,24.7,203.1,26z"/>
	<g>
		<path fill="#FFF8EA" d="M175,179.3c0,0-23.1-69.2,13.2-80.8c36.3-11.5,67,29.7,67,29.7S245.3,177.1,175,179.3z"/>
		<g>
			<path fill="#352013" d="M108.6,128.6l-4.5-44.9L145.3,94l-41.6-25.1l-39.2,5.8l-41.8,28.5l41.4-13.3l-1.2,36.7l2.8,0.1
				l-20.5,36.6l-16.5,5.4l21.8,5.8v-8.7c0,0,33.8-35,33.8-33.8s0,51.9,0,51.9l21-1.2L92.6,176l11.3-47.6L108.6,128.6z"/>
			<polygon fill="#E2D4C0" points="68.6,65.4 85.8,111.7 93.3,64.6 			"/>
			<g>
				<path fill="#EABB98" d="M111.9,37.2c-0.6-4.1-3.5-7-6.4-6.6c-1.2,0.2-2.2,0.9-2.9,1.9c-5.7-5.1-16.3-6.7-27.1-3.3
					C64,32.8,55.8,41,54.9,49.1c-1.8-0.8-3.6-0.8-5,0.2c-2.4,1.7-2.4,5.8,0,9.2c2.4,3.3,6.3,4.6,8.7,2.9c0.4-0.3,0.7-0.6,0.9-1
					c5.8,4.9,16.2,6.4,26.8,3c10.7-3.4,18.4-10.6,20.3-18.1c0.4,0.1,0.8,0.1,1.2,0C110.6,44.9,112.5,41.2,111.9,37.2z"/>
				<g>
					<ellipse fill="#352013" cx="71.5" cy="45.2" rx="2.1" ry="2.3"/>
					<ellipse fill="#352013" cx="89.2" cy="40.4" rx="2.1" ry="2.3"/>
				</g>
				<path fill="#352013" d="M55,52.4c0,0,2.1-14.8,19.4-21.4c17.3-6.6,33,8.2,33,8.2s-2.6-27.4-36.3-31.3C71.1,7.9,39,31.4,55,52.4z
					"/>
			</g>
			<path fill="#675F5B" d="M69.5,65.2l-8.3,8.2c0,0,8.6,29.6,24.2,37.9L69.5,65.2z"/>
			<path fill="#675F5B" d="M90.7,61.7l-4.8,50c0,0,13.7-23.5,17.9-42.8L90.7,61.7z"/>
			<polygon fill="#FFFFFF" points="82.8,63.9 68.2,59 71.9,76.3 83.5,67.2 97.5,73 95,55.6 			"/>
		</g>
	</g>
	<g>
		<path fill="#FFFFFF" d="M252.4,85c0,0,2.7,9.4,7.7,13.3l2.7-1.4c0,0-8.9-10.1-9.4-13.3L252.4,85z"/>
		<path fill="#FFF8EA" d="M250.6,83.4l-1.6-1.4c-0.5,0-5.4,16.1,3.4,25.4l4.6-2.9C257,104.5,248.6,93.1,250.6,83.4z"/>
		<path fill="#FFFFFF" d="M267.3,67.3c3.6-2.9-3.4-3.7-5.3-3.4c1.1-0.1,0.5-3.1-0.1-3.5c-1.2-1-3.5,0-4.6,0.7
			c0.7-1.6,0.7-3.5-1.5-3.6c-2.2-0.1-3.8,2.3-4.8,4c0.1-1.5-0.3-3.8-2.3-3.4c-2.2,0.4-2.3,3.3-2,5c-0.4-1.4-1.4-3.5-3.1-2.3
			c-1.8,1.3-0.9,4-0.1,5.6c-1.1-0.5-3.4-1.6-4.5-0.4c-1.1,1.1,0.2,3.1,1,4c-2.1,1.6-3.1,4.2-0.1,5.4c-1.1,0.9-1.9,2.5-0.7,3.7
			c1.4,1.4,3.7,0.4,5.3,0.1c-1.7,1.2-2.9,4-0.3,4.9c1.8,0.7,4-0.2,5.3-1.4c-0.7,1.3-1.5,4.3,0.7,4.4c1.5,0,2.8-1.6,3.8-2.6
			c-0.4,1.4-0.5,4,1.5,4.2c1.8,0.1,3-2.6,3.5-4c3.1,3.2,4.5-0.9,5.1-3.8c0.7,2.4,3.4,1.4,4.4-0.3c1.2-2.3-0.6-5.4-1.6-7.4
			c1.5,0.7,2.8,0.4,3-1.4C270.1,69.7,268.8,68.2,267.3,67.3z"/>
	</g>
</g>
</svg>
