<?xml version="1.0" encoding="utf-8"?>
<!-- Generator: Adobe Illustrator 18.1.1, SVG Export Plug-In . SVG Version: 6.00 Build 0)  -->
<svg version="1.1" id="Layer_1" xmlns="http://www.w3.org/2000/svg" xmlns:xlink="http://www.w3.org/1999/xlink" x="0px" y="0px"
	 viewBox="0 0 297.3 305" enable-background="new 0 0 297.3 305" xml:space="preserve">
<g>
	<path fill="#45AB6C" d="M134.5,106.7c-1.3,3.1-1.8,6.3-1.6,9.6h2.5c-0.2-4.1,0.9-7.7,2.8-11.1h-3
		C134.9,105.7,134.7,106.2,134.5,106.7z"/>
	<path fill="#45AB6C" d="M139.5,45.3c0.5-0.7,0.8-1.4,1-2.3C140.1,43.8,139.8,44.6,139.5,45.3z"/>
	<path fill="#45AB6C" d="M108.7,143.1l0.3-0.3v-2.2c-3.4-0.3-6.8,0.2-9.9,1.5c-0.4,0.2-0.8,0.4-1.2,0.5v3
		C101.2,143.9,104.7,142.8,108.7,143.1z"/>
	<path fill="#45AB6C" d="M37.7,147.1c-0.7,0.3-1.5,0.7-2.3,1C36.2,147.9,37,147.6,37.7,147.1z"/>
	<path fill="#45AB6C" d="M74.1,70.6c0.7,0.5,1.5,0.8,2.3,0.9C75.6,71.2,74.8,70.9,74.1,70.6z"/>
	<path fill="#45AB6C" d="M123.3,111.3c-0.4-0.2-0.9-0.3-1.3-0.5l-2.1,2.1c3.5,1.1,6.7,2.7,9.4,5.6h0.7l1.4-1.4
		C129.1,114.7,126.4,112.6,123.3,111.3z"/>
	<path fill="#45AB6C" d="M62.4,82.2c0.3,0.7,0.6,1.5,0.9,2.3C63.2,83.6,62.9,82.9,62.4,82.2z"/>
	<path fill="#45AB6C" d="M109.1,139.5c0.1-0.1,0.2-0.3,0.3-0.4l1.4-1.4c-3.1-2.7-4.9-6.1-6-9.7l-2.1,2.1c0.1,0.4,0.3,0.9,0.5,1.3
		C104.5,134.6,106.6,137.3,109.1,139.5z"/>
	<path fill="#45AB6C" d="M120.1,128.4l0.3-0.3l1.5-1.5c0,0,0,0,0,0c-1.2-1.8-2-3.7-2.4-5.5h-2.7c0.6,2.3,1.5,4.4,2.8,6.4
		c-1.8-1.1-3.7-1.9-5.7-2.5v2.7c1.6,0.5,3.2,1.2,4.8,2.2L120.1,128.4z"/>
	<path fill="#45AB6C" d="M47.1,105.4c0.8,0.2,1.7,0.2,2.5,0C48.7,105.4,47.9,105.4,47.1,105.4z"/>
	<path fill="#45AB6C" d="M105.7,127.1c1.9-0.2,3.7-0.2,5.5,0.1v-2.7c-0.9-0.1-1.8-0.2-2.7-0.2L105.7,127.1z"/>
	<path fill="#45AB6C" d="M101.3,150.5c-1.3-1-2.4-2.1-3.4-3.3v3.9c0.5,0.5,1,0.9,1.5,1.3L101.3,150.5z"/>
	<path fill="#45AB6C" d="M40.8,120.6c0.6,0.6,1.2,1.1,1.7,1.7C42.1,121.6,41.5,121,40.8,120.6z"/>
	<path fill="#45AB6C" d="M114.3,50.3c-0.6-0.6-1.2-1.1-1.7-1.7C113,49.3,113.6,49.9,114.3,50.3z"/>
	<path fill="#45AB6C" d="M143.8,111.5c0.8,1.4,1.4,3,1.8,4.8h2.6c-0.5-2.4-1.3-4.6-2.5-6.7L143.8,111.5z"/>
	<path fill="#45AB6C" d="M142.4,109.4l1.9-1.9c-0.6-0.8-1.2-1.5-1.9-2.2h-4.1C139.8,106.5,141.2,107.8,142.4,109.4z"/>
	<path fill="#45AB6C" d="M119,118.6c-0.2-1.5-0.2-3.1,0-4.7l-2.8,2.8c0,0.6,0.1,1.3,0.1,1.9H119z"/>
	<path fill="#45AB6C" d="M97.3,57.3c0.2-0.8,0.2-1.6,0-2.5C97.3,55.7,97.3,56.5,97.3,57.3z"/>
	<path fill="#45AB6C" d="M162.1,105.2L162.1,105.2h-3c1.8,3.4,3,7,2.8,11.1h2.5h0c0.2-3.3-0.3-6.5-1.6-9.6
		C162.6,106.2,162.4,105.7,162.1,105.2z"/>
	<path fill="#45AB6C" d="M156.9,43.1c0.2,0.8,0.5,1.6,0.9,2.2C157.5,44.6,157.2,43.8,156.9,43.1z"/>
	<path fill="#45AB6C" d="M294.3,155h-8.8c-2.7-1.3-5.5-2.4-8.3-3.3c-1.7-0.5-3.5-0.8-5.3-1.2c-1.9,0.4-3.9,0.7-6,0.7
		c-1.2,0-2.4-0.1-3.6-0.4c3.2,1.1,6.4,1.6,9.7,2.2c2.4,0.4,4.7,1.1,7,1.9h-28.7c-0.4-2.6-2.2-4.8-4.5-5.8h11.9c0.1,0,0.2,0,0.3,0
		c0.3,0.1,0.7,0.3,1,0.4c-0.9-0.5-1.7-1.2-2.4-2.1c-0.6-0.7-0.9-1.5-1-2.4c-2.5-1.5-5-3.5-5-6.4c-0.3,0.2-0.6,0.5-0.8,0.7
		c-0.3,0.3-0.6,0.6-1,0.8c0,0,0,0,0,0c0.2,0.4,0.4,0.7,0.5,1c-0.7,0-1.3,0-2,0c0,0,0,0,0,0c-1.9,1.3-4.1,2.1-6.5,2.3
		c-0.3,0-0.7,0-1,0c-0.3,0-0.7,0-1-0.1c-0.9,0.6-1.7,1.2-2.5,2.1c-1.9,2.1-3.6,4.1-6,5.7c-1.5,0.9-3.1,1.6-4.7,2
		c0.2-0.3,0.5-0.6,0.7-1c2.2-3.9-0.3-9.1-4.3-10.4c3.3-2.7,3.7-8.6,0.1-11.4c-0.3-0.3-0.7-0.5-1-0.7c1.7-0.3,3.4-0.3,5.1,0
		c2.8,0.5,5.2,1.7,7.7,2.9c1,0.5,2.1,0.8,3.1,1c0.6-0.3,1.2-0.6,1.8-0.8c1.2-0.3,2.3-0.5,3.5-0.6c1.2-0.1,2.3,0,3.4,0.2
		c0.6-0.2,1.2-0.5,1.8-0.7c0,0.3,0,0.7-0.1,1.1c0,0,0,0,0,0c0.4,0.1,0.8,0.3,1.2,0.4c0.3,0.1,0.7,0.2,1,0.3
		c-1.2-2.7,0.4-5.5,2.2-7.9c-0.2-0.9-0.2-1.8,0-2.7c0.3-1.1,0.8-2.1,1.4-2.9c-0.2,0.3-0.5,0.5-0.7,0.8c-0.1,0-0.2,0-0.3,0.1l-11,4.6
		c1.8-1.8,2.6-4.5,2-7.1l26.5-11c-1.8,1.6-3.7,3.1-5.8,4.4c-2.8,1.8-5.6,3.6-8.1,5.8c2.6-1.8,5.9-2.8,8.9-3.3c1.5-1,3-2,4.4-3.1
		c2.3-1.9,4.5-4,6.4-6.2l8.1-3.4c0.8-0.3,0.9-1.1,0.6-1.7c-0.2-0.6-0.9-1-1.6-0.7l-8.1,3.4c-3-0.2-6-0.1-8.9,0.2
		c-1.8,0.2-3.5,0.6-5.3,1c0,0,0,0,0,0c-2.5,1.8-5.6,3.4-8.7,4c3.3-0.2,6.5-0.9,9.8-1.7c2.4-0.5,4.8-0.8,7.2-1l-26.5,11
		c-1.4-2.2-3.8-3.6-6.4-3.6l11-4.6c0.1,0,0.2-0.1,0.3-0.1c0.4,0,0.7,0,1.1,0c-1.1-0.2-2.1-0.5-3.1-1c-0.8-0.4-1.4-1.1-1.9-1.9
		c-2.9-0.4-6-1.3-7.1-4c-0.2,0.3-0.3,0.6-0.5,1c-0.2,0.4-0.4,0.8-0.6,1.1c0,0,0,0,0,0c0.4,0.3,0.7,0.5,0.9,0.7
		c-0.6,0.3-1.2,0.5-1.8,0.8c0,0,0,0,0,0c-1.3,1.9-3,3.5-5.2,4.6c-0.6,0.3-1.2,0.6-1.9,0.8c0,0,0,0,0,0c-0.6,0.8-1.1,1.8-1.5,2.8
		c-1,2.7-1.7,5.2-3.4,7.6c-1,1.4-2.2,2.6-3.6,3.6c0.1-0.4,0.2-0.8,0.2-1.2c0.5-4.4-3.7-8.2-7.8-8c1.9-3.7,0-9.2-4.3-10.4
		c-0.4-0.1-0.8-0.2-1.2-0.2c1.5-0.9,3.1-1.6,4.8-1.9c2.8-0.6,5.4-0.4,8.3-0.2c1.1,0.1,2.2-0.1,3.2-0.3c0.4-0.6,0.9-1,1.4-1.4
		c1.9-1.5,4-2.5,6.3-3c0.5-0.4,1-0.9,1.4-1.4c0.1,0.2,0.2,0.6,0.3,1.1c0.4,0,0.8-0.1,1.3-0.1c0.4,0,0.7,0,1.1-0.1
		c-2.1-2.1-1.8-5.3-1-8.1c-0.5-0.7-0.9-1.6-1-2.5c-0.1-1.1,0-2.2,0.2-3.2c-0.1,0.3-0.3,0.7-0.4,1c-0.1,0.1-0.2,0.1-0.2,0.2l-8.4,8.4
		c0.4-0.9,0.5-1.9,0.5-2.8c0-1.6-0.5-3.2-1.4-4.4l20.3-20.3c-1,2.2-2.2,4.3-3.6,6.3c-1.9,2.7-3.8,5.4-5.3,8.4c1.7-2.6,4.4-4.8,7-6.5
		c1-1.5,2-3,2.9-4.5c1.4-2.6,2.6-5.4,3.6-8.2l6.2-6.2c0.6-0.6,0.4-1.3-0.1-1.8c-0.4-0.5-1.2-0.6-1.8-0.1l-6.2,6.2
		c-2.8,1-5.6,2.1-8.2,3.6c-1.6,0.9-3.1,1.9-4.5,2.9c0,0,0,0,0,0c-1.6,2.6-3.8,5.3-6.5,7c3-1.5,5.7-3.4,8.4-5.3
		c2-1.4,4.1-2.6,6.3-3.6L220,83.6c-1.3-0.9-2.8-1.4-4.4-1.4c-1,0-1.9,0.2-2.8,0.5l8.4-8.4c0.1-0.1,0.1-0.1,0.2-0.2
		c0.3-0.1,0.7-0.3,1-0.4c-0.8,0.2-1.6,0.3-2.4,0.3c-0.3,0-0.6,0-0.8-0.1c-0.9-0.1-1.7-0.5-2.5-1c-2.8,0.8-6,1.1-8.1-1
		c0,0.4-0.1,0.7-0.1,1.1c0,0.4,0,0.8-0.1,1.3c0,0,0,0,0,0c0.4,0.1,0.8,0.2,1.1,0.3c-0.5,0.5-0.9,0.9-1.4,1.4c0,0,0,0,0,0
		c-0.5,2.3-1.5,4.4-3,6.3c-0.4,0.5-0.9,1-1.4,1.4c0,0,0,0,0,0c-0.2,1-0.3,2.1-0.3,3.2c0.1,2.8,0.4,5.5-0.2,8.3
		c-0.4,1.7-1.1,3.3-1.9,4.8c-0.1-0.4-0.1-0.8-0.2-1.2c-1.2-4.3-6.7-6.3-10.4-4.3c0.5-4.2-3.5-8.7-8-8.1c-0.4,0.1-0.8,0.1-1.2,0.2
		c1-1.4,2.2-2.6,3.6-3.6c2.4-1.6,4.9-2.4,7.5-3.4c1.1-0.4,2-0.9,2.8-1.5c0.2-0.7,0.4-1.3,0.8-1.9c1.2-2.1,2.7-3.8,4.6-5.2
		c0.3-0.6,0.5-1.2,0.8-1.8c0.2,0.2,0.5,0.5,0.7,0.9c0.4-0.2,0.7-0.4,1.1-0.6c0.3-0.2,0.7-0.3,1-0.5c-2.8-1.1-3.7-4.2-4-7.1
		c-0.8-0.5-1.4-1.1-1.9-1.9c-0.6-1-0.9-2-1-3.1c0,0.4,0,0.7,0,1.1c-0.1,0.1-0.1,0.2-0.1,0.3l-4.6,11c0-2.6-1.4-5-3.6-6.4l11-26.6
		c-0.1,2.4-0.4,4.8-1,7.2c-0.7,3.3-1.5,6.5-1.7,9.8c0.5-3.1,2.2-6.1,4-8.7c0.4-1.8,0.8-3.5,0.9-5.3c0.3-3,0.4-6,0.2-8.9l3.4-8.1
		c0.3-0.8-0.1-1.4-0.7-1.6c-0.6-0.3-1.3-0.1-1.7,0.6l-3.4,8.1c-2.2,2-4.3,4.1-6.2,6.5c-1.1,1.4-2.1,2.9-3.1,4.4c0,0,0,0,0,0
		c-0.5,3-1.5,6.3-3.3,8.9c2.2-2.5,3.9-5.3,5.7-8.1c1.3-2.1,2.8-4,4.4-5.8l-11,26.6c-0.6-0.1-1.1-0.2-1.7-0.2c-2.1,0-4,0.8-5.4,2.2
		l4.6-11.1c0-0.1,0.1-0.2,0.1-0.3c0.3-0.2,0.5-0.5,0.8-0.7c-0.9,0.6-1.8,1.1-2.9,1.4c-0.4,0.1-0.9,0.2-1.3,0.2c-0.4,0-0.9,0-1.3-0.2
		c-2.3,1.8-5.1,3.4-7.9,2.2c0.1,0.4,0.2,0.7,0.4,1c0.2,0.4,0.3,0.8,0.4,1.2c0.4-0.1,0.8-0.1,1.1-0.1c-0.2,0.6-0.5,1.2-0.7,1.8
		c0,0,0,0,0,0c0.4,2.3,0.3,4.6-0.4,6.9c-0.2,0.6-0.5,1.3-0.8,1.9c0,0,0,0,0,0c0.2,1,0.5,2,1,3c1.2,2.6,2.4,4.9,3,7.7
		c0.3,1.7,0.3,3.4,0,5.1c-0.2-0.3-0.4-0.7-0.7-1c-2.9-3.7-9.2-3.2-11.7,0.5c-0.9-4.4-6.5-7.3-10.6-5c-0.4,0.2-0.7,0.4-1,0.7
		c0.4-1.7,1.1-3.3,2-4.7c1.5-2.4,3.6-4.1,5.7-6c0.8-0.8,1.5-1.6,2.1-2.4c-0.1-0.7-0.1-1.4,0-2c0.3-2.4,1-4.6,2.3-6.5
		c0-0.7,0-1.3,0-2c0.3,0.1,0.6,0.3,1,0.5c0.3-0.3,0.5-0.6,0.8-1c0.3-0.3,0.5-0.5,0.7-0.8c-3,0-5-2.5-6.5-5c-0.9-0.2-1.7-0.5-2.4-1
		c-0.9-0.7-1.6-1.5-2.1-2.4c0.1,0.3,0.3,0.6,0.4,1c0,0.1,0,0.2,0,0.3v11.9c-1-2.4-3.2-4.1-5.8-4.5V25.8c0.8,2.3,1.5,4.6,1.9,7
		c0.6,3.3,1.1,6.6,2.2,9.7c-0.7-3.1-0.3-6.5,0.3-9.5c-0.3-1.8-0.6-3.5-1.2-5.3c-0.8-2.9-1.9-5.6-3.3-8.3v0.2c0-0.2,0-0.3-0.1-0.4
		c-0.1-0.6-0.6-1-1.2-1v0c0,0,0,0,0,0s0,0,0,0l0,0c-0.6,0-1.1,0.3-1.2,1c-0.1,0.1-0.1,0.2-0.1,0.4v-0.2c-1.3,2.7-2.4,5.5-3.3,8.3
		c-0.5,1.7-0.8,3.5-1.2,5.3c0.7,3,1,6.5,0.3,9.5c1.1-3.2,1.6-6.4,2.2-9.7c0.4-2.4,1.1-4.7,1.9-7v28.7c-2.6,0.4-4.8,2.2-5.8,4.5V47.2
		c0-0.1,0-0.2,0-0.3c0.1-0.3,0.3-0.7,0.4-1c-0.5,0.9-1.2,1.7-2.1,2.4c-0.7,0.6-1.5,0.9-2.4,1c-1.5,2.5-3.5,5.1-6.5,5
		c0.2,0.3,0.5,0.6,0.7,0.8c0.3,0.3,0.6,0.6,0.8,1c0.4-0.2,0.7-0.4,1-0.5c0,0.7,0,1.3,0,2c1.3,1.9,2.1,4.1,2.3,6.5
		c0.1,0.7,0.1,1.4,0,2c0.6,0.9,1.2,1.7,2.1,2.4c2.1,1.9,4.1,3.6,5.7,6c0.9,1.5,1.6,3.1,2,4.7c-0.3-0.2-0.6-0.5-1-0.7
		c-4.1-2.3-9.7,0.6-10.6,5c-2.5-3.7-8.7-4.3-11.7-0.5c-0.3,0.3-0.5,0.7-0.7,1c-0.3-1.7-0.3-3.4,0-5.1c0.5-2.8,1.8-5.2,3-7.7
		c0.5-1,0.8-2,1-3c-0.3-0.6-0.6-1.2-0.8-1.9c-0.7-2.3-0.8-4.6-0.4-6.9c-0.2-0.6-0.5-1.2-0.7-1.8c0.3,0,0.7,0,1.1,0.1
		c0.1-0.4,0.3-0.8,0.4-1.2c0.1-0.3,0.3-0.7,0.4-1.1c-2.8,1.2-5.6-0.4-7.9-2.2c-0.9,0.2-1.8,0.2-2.7,0c-1.1-0.3-2.1-0.8-2.9-1.4
		c0.3,0.2,0.5,0.5,0.8,0.7c0,0.1,0,0.2,0.1,0.3l4.6,11.1c-1.4-1.4-3.3-2.2-5.4-2.2c-0.6,0-1.1,0.1-1.7,0.2l-11-26.6
		c1.6,1.8,3.1,3.7,4.4,5.8c1.8,2.8,3.5,5.6,5.7,8.1c-1.8-2.6-2.8-5.9-3.3-8.9c-1-1.5-1.9-3-3.1-4.4c-1.9-2.3-3.9-4.5-6.2-6.5
		l-3.4-8.1c-0.3-0.8-1.1-0.9-1.7-0.6c-0.6,0.2-1,0.9-0.7,1.6l3.4,8.1c-0.2,3-0.1,6,0.2,8.9c0.2,1.8,0.6,3.6,0.9,5.3
		c1.8,2.5,3.4,5.6,4,8.7c-0.2-3.3-0.9-6.6-1.7-9.8c-0.5-2.4-0.8-4.8-1-7.2l11,26.6c-2.2,1.4-3.6,3.8-3.6,6.4l-4.6-11
		c0-0.1-0.1-0.2-0.1-0.3c0-0.4,0-0.7,0-1.1c-0.2,1.1-0.5,2.1-1,3.1c-0.4,0.8-1.1,1.4-1.9,1.9c-0.4,2.9-1.3,6-4,7.1
		c0.3,0.2,0.6,0.3,1,0.5c0.4,0.2,0.8,0.4,1.1,0.6c0.3-0.4,0.5-0.7,0.7-0.9c0.3,0.6,0.5,1.2,0.8,1.8c1.9,1.3,3.5,3,4.6,5.2
		c0.3,0.6,0.6,1.2,0.8,1.9c0.8,0.6,1.8,1.1,2.8,1.5c2.7,1,5.2,1.7,7.5,3.4c1.4,1,2.6,2.2,3.6,3.6c-0.4-0.1-0.8-0.2-1.2-0.2
		c-4.5-0.6-8.4,3.9-8,8.1c-3.7-1.9-9.2,0-10.4,4.3c-0.1,0.4-0.2,0.8-0.2,1.2c-0.9-1.5-1.6-3.1-1.9-4.8c-0.6-2.8-0.4-5.4-0.2-8.3
		c0.1-1.1-0.1-2.2-0.3-3.2c-0.5-0.4-1-0.9-1.4-1.4c-1.5-1.9-2.5-4-3-6.3c-0.4-0.5-0.9-1-1.4-1.4c0.2-0.1,0.6-0.2,1.1-0.3
		c0-0.4-0.1-0.8-0.1-1.3c0-0.4,0-0.7-0.1-1.1c-2.1,2.1-5.3,1.8-8.1,1c-0.7,0.5-1.6,0.9-2.5,1c-1.1,0.1-2.2,0-3.2-0.2
		c0.3,0.1,0.7,0.3,1,0.4c0.1,0.1,0.1,0.2,0.2,0.2l8.4,8.4c-0.9-0.4-1.9-0.5-2.8-0.5c-1.6,0-3.2,0.5-4.4,1.4L57,63.3
		c2.2,1,4.3,2.2,6.3,3.6c2.7,1.9,5.4,3.8,8.4,5.3c-2.6-1.7-4.8-4.4-6.5-7c-1.5-1-3-2-4.5-2.9c-2.6-1.4-5.4-2.6-8.2-3.6l-6.2-6.2
		c-0.6-0.6-1.3-0.4-1.8,0.1c-0.5,0.4-0.6,1.2-0.1,1.8l6.2,6.2c1,2.8,2.1,5.6,3.6,8.2c0.9,1.6,1.9,3.1,2.9,4.5c2.6,1.7,5.3,3.8,7,6.5
		c-1.5-3-3.4-5.7-5.3-8.4c-1.4-2-2.6-4.1-3.6-6.3l20.3,20.3c-0.9,1.3-1.4,2.8-1.4,4.4c0,1,0.2,1.9,0.5,2.8l-8.4-8.4
		c-0.1-0.1-0.1-0.1-0.2-0.2c-0.1-0.3-0.3-0.7-0.4-1c0.3,1,0.3,2.1,0.2,3.2c-0.1,0.9-0.5,1.7-1,2.5c0.8,2.8,1.1,6-1,8.1
		c0.4,0,0.7,0.1,1.1,0.1c0.4,0,0.8,0,1.3,0.1c0.1-0.4,0.2-0.8,0.3-1.1c0.5,0.5,0.9,0.9,1.4,1.4c2.3,0.5,4.4,1.5,6.3,3
		c0.5,0.4,1,0.9,1.4,1.4c1,0.2,2.1,0.3,3.2,0.3c2.8-0.1,5.5-0.4,8.3,0.2c1.7,0.4,3.3,1.1,4.8,1.9c-0.4,0.1-0.8,0.1-1.2,0.2
		c-4.3,1.2-6.3,6.7-4.3,10.4c-4.2-0.3-8.4,3.6-7.8,8c0.1,0.4,0.1,0.8,0.2,1.2c-1.4-1-2.6-2.2-3.6-3.6c-1.6-2.4-2.4-4.9-3.4-7.6
		c-0.4-1.1-0.9-2-1.5-2.8c-0.7-0.2-1.3-0.5-1.9-0.8c-2.1-1.2-3.8-2.7-5.2-4.6c-0.6-0.3-1.2-0.5-1.8-0.8c0.2-0.2,0.5-0.5,0.9-0.7
		c-0.2-0.4-0.4-0.7-0.6-1.1c-0.2-0.3-0.3-0.7-0.5-1c-1.1,2.8-4.2,3.7-7.1,4c-0.5,0.8-1.1,1.4-1.9,1.9c-1,0.5-2,0.9-3.1,1
		c0.4,0,0.7,0,1.1,0c0.1,0.1,0.2,0.1,0.3,0.1l11,4.6c-2.6,0-5,1.4-6.4,3.6l-26.5-11c2.4,0.1,4.8,0.4,7.2,1c3.3,0.7,6.5,1.5,9.8,1.7
		c-3.1-0.5-6.1-2.2-8.7-4c-1.8-0.4-3.5-0.8-5.3-1c-3-0.3-6-0.4-8.9-0.2l-8.1-3.4c-0.8-0.3-1.4,0.1-1.6,0.7c-0.3,0.6-0.1,1.3,0.6,1.7
		l8.1,3.4c2,2.2,4.1,4.3,6.4,6.2c1.4,1.1,2.9,2.1,4.4,3.1c3,0.5,6.4,1.5,8.9,3.3c-2.5-2.2-5.3-4-8.1-5.8c-2.1-1.3-4-2.8-5.8-4.4
		l26.5,11c-0.6,2.6,0.2,5.2,2,7.1l-11-4.6c-0.1,0-0.2-0.1-0.3-0.1c-0.3-0.3-0.5-0.5-0.7-0.8c0.6,0.9,1.1,1.8,1.4,2.9
		c0.2,0.9,0.2,1.8,0,2.7c1.8,2.3,3.3,5.1,2.2,7.9c0.3-0.1,0.7-0.2,1-0.4c0.4-0.2,0.8-0.3,1.2-0.4c-0.1-0.4-0.1-0.8-0.1-1.1
		c0.6,0.3,1.2,0.5,1.8,0.7c2.3-0.4,4.6-0.3,6.9,0.4c0.6,0.2,1.2,0.5,1.8,0.8c1-0.2,2-0.5,3.1-1c2.6-1.2,4.9-2.4,7.7-2.9
		c1.7-0.3,3.4-0.3,5.1,0c-0.3,0.2-0.7,0.4-1,0.7c-3.6,2.8-3.2,8.7,0.1,11.4c-4,1.3-6.5,6.5-4.3,10.4c0.2,0.4,0.4,0.7,0.7,1
		c-1.7-0.4-3.3-1.1-4.7-2c-2.4-1.5-4.1-3.6-6-5.7c-0.8-0.8-1.6-1.5-2.5-2.1c-0.7,0.1-1.4,0.1-2,0c-2.4-0.3-4.6-1-6.5-2.3
		c-0.7,0-1.3,0-2,0c0.1-0.3,0.3-0.6,0.5-1c-0.3-0.3-0.6-0.5-1-0.8c-0.3-0.3-0.6-0.5-0.8-0.7c0,3-2.5,5-5,6.4c-0.2,0.9-0.5,1.7-1,2.4
		c-0.7,0.9-1.5,1.6-2.4,2.1c0.3-0.1,0.6-0.3,1-0.4c0.1,0,0.2,0,0.3,0h11.9c-2.4,1-4.1,3.2-4.5,5.8H18.2c2.3-0.8,4.6-1.5,7-1.9
		c3.3-0.6,6.6-1.1,9.7-2.2c-3.1,0.7-6.5,0.3-9.5-0.3c-1.8,0.3-3.5,0.6-5.3,1.2c-2.9,0.8-5.6,1.9-8.3,3.3H3c-0.8,0-1.2,0.6-1.2,1.3
		c0,0.6,0.4,1.3,1.2,1.3h8.8c2.7,1.3,5.5,2.4,8.3,3.3c1.7,0.5,3.5,0.8,5.3,1.2c3-0.7,6.5-1,9.5-0.3c-3.2-1.1-6.4-1.6-9.7-2.2
		c-2.4-0.4-4.7-1.1-7-1.9h28.7c0.4,2.6,2.2,4.8,4.5,5.8H39.5c-0.1,0-0.2,0-0.3,0c-0.3-0.1-0.7-0.3-1-0.4c0.9,0.5,1.7,1.2,2.4,2.1
		c0.6,0.7,0.9,1.5,1,2.4c2.5,1.5,5,3.5,5,6.4c0.3-0.2,0.6-0.5,0.8-0.7c0.3-0.3,0.6-0.6,1-0.8c-0.2-0.4-0.4-0.7-0.5-1
		c0.7,0,1.3,0,2,0c1.9-1.3,4.1-2.1,6.5-2.3c0.6-0.1,1.3-0.1,2,0c0.9-0.6,1.7-1.2,2.5-2.1c1.9-2.1,3.6-4.1,6-5.7
		c1.5-0.9,3.1-1.6,4.7-2c-0.2,0.3-0.5,0.6-0.7,1c-2.2,3.9,0.3,9.1,4.3,10.4c-3.3,2.7-3.7,8.6-0.1,11.4c0.3,0.3,0.7,0.5,1,0.7
		c-1.7,0.3-3.4,0.3-5.1,0c-2.8-0.5-5.2-1.7-7.7-2.9c-1-0.5-2.1-0.8-3.1-1c-0.6,0.3-1.2,0.6-1.8,0.8c-2.3,0.7-4.6,0.8-6.9,0.4
		c-0.6,0.2-1.2,0.5-1.8,0.7c0-0.3,0-0.7,0.1-1.1c-0.4-0.1-0.8-0.3-1.2-0.4c-0.3-0.1-0.7-0.2-1-0.4c1.2,2.7-0.4,5.6-2.2,7.9
		c0.2,0.9,0.2,1.8,0,2.7c-0.3,1.1-0.8,2.1-1.4,2.9c0.2-0.3,0.5-0.5,0.7-0.8c0.1,0,0.2,0,0.3-0.1l11-4.6c-1.8,1.8-2.6,4.5-2,7.1
		l-26.5,11c1.8-1.6,3.7-3.1,5.8-4.4c2.8-1.8,5.6-3.6,8.1-5.8c-2.6,1.8-5.9,2.8-8.9,3.3c-1.5,1-3,2-4.4,3.1c-2.3,1.9-4.5,4-6.4,6.2
		l-8.1,3.4c-0.8,0.3-0.9,1.1-0.6,1.7c0.2,0.6,0.9,1,1.6,0.7l8.1-3.4c3,0.2,6,0.1,8.9-0.2c1.8-0.2,3.6-0.6,5.3-1
		c2.5-1.8,5.6-3.4,8.7-4c-3.3,0.2-6.6,0.9-9.8,1.7c-2.4,0.5-4.8,0.8-7.2,1l26.5-11c1.4,2.2,3.8,3.6,6.4,3.6l-11,4.6
		c-0.1,0-0.2,0.1-0.3,0.1c-0.4,0-0.7,0-1.1,0c1.1,0.2,2.1,0.5,3.1,1c0.8,0.4,1.4,1.1,1.9,1.9c2.9,0.4,6,1.3,7.1,4
		c0.2-0.3,0.3-0.7,0.5-1c0.2-0.4,0.4-0.8,0.6-1.1c-0.4-0.3-0.7-0.5-0.9-0.7c0.6-0.3,1.2-0.5,1.8-0.8c1.3-1.9,3-3.5,5.2-4.6
		c0.6-0.3,1.2-0.6,1.9-0.8c0.6-0.8,1.1-1.8,1.5-2.8c1-2.7,1.7-5.2,3.4-7.6c1-1.4,2.2-2.6,3.6-3.6c-0.1,0.4-0.2,0.8-0.2,1.2
		c-0.5,4.4,3.7,8.2,7.8,8c-1.9,3.7,0,9.2,4.3,10.4c0.4,0.1,0.8,0.2,1.2,0.2c-1.5,0.9-3.1,1.6-4.8,1.9c-2.8,0.6-5.4,0.4-8.3,0.2
		c-1.1-0.1-2.2,0.1-3.2,0.3c-0.4,0.6-0.9,1-1.4,1.4c-1.9,1.5-4,2.5-6.3,3c-0.5,0.4-1,0.9-1.4,1.4c-0.1-0.2-0.2-0.6-0.3-1.1
		c-0.4,0-0.8,0.1-1.3,0.1c-0.4,0-0.7,0-1.1,0.1c2.1,2.1,1.8,5.3,1,8.1c0.5,0.7,0.9,1.6,1,2.5c0.1,1.1,0,2.2-0.2,3.2
		c0.1-0.3,0.3-0.7,0.4-1c0.1-0.1,0.2-0.1,0.2-0.2l8.4-8.4c-0.4,0.9-0.5,1.9-0.5,2.8c0,1.6,0.5,3.2,1.4,4.4l-20.3,20.3
		c1-2.2,2.2-4.3,3.6-6.3c1.9-2.7,3.8-5.4,5.3-8.4c-1.7,2.6-4.4,4.8-7,6.5c-1,1.5-2,3-2.9,4.5c-1.4,2.6-2.6,5.4-3.6,8.2l-6.2,6.2
		c-0.6,0.6-0.4,1.3,0.1,1.8c0.4,0.5,1.2,0.6,1.8,0.1l6.2-6.2c2.8-1,5.6-2.1,8.2-3.6c1.6-0.9,3.1-1.9,4.5-2.9c1.7-2.6,3.8-5.3,6.5-7
		c-3,1.5-5.7,3.4-8.4,5.3c-2,1.4-4.1,2.6-6.3,3.6L77.3,229c1.3,0.9,2.8,1.4,4.4,1.4c1,0,1.9-0.2,2.8-0.5l-8.4,8.4
		c-0.1,0.1-0.1,0.1-0.2,0.2c-0.3,0.1-0.7,0.3-1,0.4c1-0.3,2.1-0.3,3.2-0.2c0.9,0.1,1.7,0.5,2.5,1c2.8-0.8,6-1.1,8.1,1
		c0-0.4,0.1-0.7,0.1-1.1c0-0.4,0-0.8,0.1-1.3c-0.4-0.1-0.8-0.2-1.1-0.3c0.5-0.5,0.9-0.9,1.4-1.4c0.5-2.3,1.5-4.4,3-6.3
		c0.4-0.5,0.9-1,1.4-1.4c0.2-1,0.3-2.1,0.3-3.2c-0.1-2.8-0.4-5.5,0.2-8.3c0.4-1.7,1.1-3.3,1.9-4.8c0.1,0.4,0.1,0.8,0.2,1.2
		c1.2,4.3,6.7,6.3,10.4,4.3c-0.5,4.2,3.5,8.7,8,8.1c0.4-0.1,0.8-0.1,1.2-0.2c-1,1.4-2.2,2.6-3.6,3.6c-2.4,1.6-4.9,2.4-7.5,3.4
		c-1.1,0.4-2,0.9-2.8,1.5c-0.2,0.7-0.4,1.3-0.8,1.9c-1.2,2.1-2.7,3.8-4.6,5.2c-0.3,0.6-0.5,1.2-0.8,1.8c-0.2-0.2-0.5-0.5-0.7-0.9
		c-0.4,0.2-0.7,0.4-1.1,0.6c-0.3,0.2-0.7,0.3-1,0.5c2.8,1.1,3.7,4.2,4,7.1c0.8,0.5,1.4,1.1,1.9,1.9c0.6,1,0.9,2,1,3.1
		c0-0.4,0-0.7,0-1.1c0.1-0.1,0.1-0.2,0.1-0.3l4.6-11c0,2.6,1.4,5,3.6,6.4l-11,26.6c0.1-2.4,0.4-4.8,1-7.2c0.7-3.3,1.5-6.5,1.7-9.8
		c-0.5,3.1-2.2,6.1-4,8.7c-0.4,1.8-0.8,3.5-0.9,5.3c-0.3,3-0.4,6-0.2,8.9l-3.4,8.1c-0.3,0.8,0.1,1.4,0.7,1.6
		c0.6,0.3,1.3,0.1,1.7-0.6l3.4-8.1c2.2-2,4.3-4.1,6.2-6.5c1.1-1.4,2.1-2.9,3.1-4.4c0.5-3,1.5-6.4,3.3-8.9c-2.2,2.5-4,5.3-5.7,8.1
		c-1.3,2.1-2.8,4-4.4,5.8l11-26.6c0.6,0.1,1.1,0.2,1.7,0.2c2.1,0,4-0.8,5.4-2.2l-4.6,11.1c0,0.1-0.1,0.2-0.1,0.3
		c-0.3,0.3-0.5,0.5-0.8,0.7c0.9-0.6,1.8-1.1,2.9-1.4c0.9-0.2,1.8-0.2,2.7,0c2.3-1.8,5.1-3.4,7.9-2.2c-0.1-0.4-0.2-0.7-0.4-1.1
		c-0.2-0.4-0.3-0.8-0.4-1.2c-0.4,0.1-0.8,0.1-1.1,0.1c0.2-0.6,0.5-1.2,0.7-1.8c-0.4-2.3-0.3-4.6,0.4-6.9c0.2-0.6,0.5-1.3,0.8-1.9
		c-0.2-1-0.5-2-1-3c-1.2-2.6-2.4-4.9-3-7.7c-0.3-1.7-0.3-3.4,0-5.1c0.2,0.3,0.4,0.7,0.7,1c2.9,3.7,9.2,3.2,11.7-0.5
		c0.9,4.4,6.5,7.3,10.6,5c0.4-0.2,0.7-0.4,1-0.7c-0.4,1.7-1.1,3.3-2,4.7c-1.5,2.4-3.6,4.1-5.7,6c-0.8,0.8-1.5,1.6-2.1,2.4
		c0.1,0.7,0.1,1.4,0,2c-0.3,2.4-1,4.6-2.3,6.5c0,0.7,0,1.3,0,2c-0.3-0.1-0.6-0.3-1-0.5c-0.3,0.3-0.5,0.6-0.8,1
		c-0.3,0.3-0.5,0.5-0.7,0.8c3,0,5,2.5,6.5,5c0.9,0.2,1.7,0.5,2.4,1c0.9,0.7,1.6,1.5,2.1,2.4c-0.1-0.3-0.3-0.6-0.4-1
		c0-0.1,0-0.2,0-0.3v-11.9c1,2.4,3.2,4.1,5.8,4.5v28.7c-0.8-2.3-1.5-4.6-1.9-7c-0.6-3.3-1.1-6.6-2.2-9.7c0.7,3.1,0.3,6.5-0.3,9.5
		c0.3,1.8,0.6,3.5,1.2,5.3c0.8,2.9,1.9,5.6,3.3,8.3V293c0,0.2,0,0.3,0.1,0.4c0.1,0.6,0.6,1,1.2,1v0c0,0,0,0,0,0s0,0,0,0v0
		c0.6,0,1.1-0.3,1.2-1c0.1-0.1,0.1-0.2,0.1-0.4v0.2c1.3-2.7,2.4-5.5,3.3-8.3c0.5-1.7,0.8-3.5,1.2-5.3c-0.7-3-1-6.5-0.3-9.5
		c-1.1,3.2-1.6,6.4-2.2,9.7c-0.4,2.4-1.1,4.7-1.9,7V258c2.6-0.4,4.8-2.2,5.8-4.5v11.9c0,0.1,0,0.2,0,0.3c-0.1,0.3-0.3,0.7-0.4,1
		c0.5-0.9,1.2-1.7,2.1-2.4c0.7-0.6,1.5-0.9,2.4-1c1.5-2.5,3.5-5.1,6.5-5c-0.2-0.3-0.5-0.6-0.7-0.8c-0.3-0.3-0.6-0.6-0.8-1
		c-0.4,0.2-0.7,0.4-1,0.5c0-0.7,0-1.3,0-2c-1.3-1.9-2.1-4.1-2.3-6.5c-0.1-0.7-0.1-1.4,0-2c-0.6-0.9-1.2-1.7-2.1-2.4
		c-2.1-1.9-4.1-3.6-5.7-6c-0.9-1.5-1.6-3.1-2-4.7c0.3,0.2,0.6,0.5,1,0.7c4.1,2.3,9.7-0.6,10.6-5c2.5,3.7,8.7,4.3,11.7,0.5
		c0.3-0.3,0.5-0.7,0.7-1c0.3,1.7,0.3,3.4,0,5.1c-0.5,2.8-1.8,5.2-3,7.7c-0.5,1-0.8,2-1,3c0,0,0,0,0,0c0.3,0.6,0.6,1.2,0.8,1.9
		c0.7,2.3,0.8,4.6,0.4,6.9c0,0,0,0,0,0c0.2,0.6,0.5,1.2,0.7,1.8c-0.3,0-0.7,0-1.1-0.1c-0.1,0.4-0.3,0.8-0.4,1.2
		c-0.1,0.3-0.3,0.7-0.4,1c2.8-1.2,5.6,0.4,7.9,2.2c0.4-0.1,0.9-0.2,1.3-0.2c0.4,0,0.9,0.1,1.3,0.2c1.1,0.3,2,0.8,2.9,1.4
		c-0.2-0.2-0.5-0.5-0.8-0.7c0-0.1,0-0.2-0.1-0.3l-4.6-11.1c1.4,1.4,3.3,2.2,5.4,2.2c0.6,0,1.1-0.1,1.7-0.2l11,26.6
		c-1.6-1.8-3.1-3.7-4.4-5.8c-1.8-2.8-3.5-5.6-5.7-8.1c1.8,2.6,2.8,5.9,3.3,8.9c0,0,0,0,0,0c1,1.5,1.9,3,3.1,4.4
		c1.9,2.3,3.9,4.5,6.2,6.5l3.4,8.1c0.3,0.8,1.1,0.9,1.7,0.6c0.6-0.2,1-0.9,0.7-1.6l-3.4-8.1c0.2-3,0.1-6-0.2-8.9
		c-0.2-1.8-0.6-3.6-0.9-5.3c-1.8-2.5-3.4-5.6-4-8.7c0.2,3.3,0.9,6.6,1.7,9.8c0.5,2.4,0.8,4.8,1,7.2l-11-26.6
		c2.2-1.4,3.6-3.8,3.6-6.4l4.6,11c0,0.1,0.1,0.2,0.1,0.3c0,0.4,0,0.7,0,1.1c0.2-1.1,0.5-2.1,1-3.1c0.4-0.8,1.1-1.4,1.9-1.9
		c0.4-2.9,1.3-6,4-7.1c-0.3-0.2-0.6-0.3-1-0.5c-0.4-0.2-0.8-0.4-1.1-0.6c-0.3,0.4-0.5,0.7-0.7,0.9c-0.3-0.6-0.5-1.2-0.8-1.8
		c-1.9-1.3-3.5-3-4.6-5.2c-0.3-0.6-0.6-1.2-0.8-1.9c-0.8-0.6-1.8-1.1-2.8-1.5c-2.7-1-5.2-1.7-7.5-3.4c-1.4-1-2.6-2.2-3.6-3.6
		c0.4,0.1,0.8,0.2,1.2,0.2c4.5,0.6,8.4-3.9,8-8.1c3.7,1.9,9.2,0,10.4-4.3c0.1-0.4,0.2-0.8,0.2-1.2c0.9,1.5,1.6,3.1,1.9,4.8
		c0.6,2.8,0.4,5.4,0.2,8.3c-0.1,1.1,0.1,2.2,0.3,3.2c0,0,0,0,0,0c0.5,0.4,1,0.9,1.4,1.4c1.5,1.9,2.5,4,3,6.3c0,0,0,0,0,0
		c0.4,0.5,0.9,1,1.4,1.4c-0.2,0.1-0.6,0.2-1.1,0.3l0,0c0,0.4,0.1,0.8,0.1,1.3c0,0.4,0,0.7,0.1,1.1c2.1-2.1,5.3-1.8,8.1-1
		c0.7-0.5,1.6-0.9,2.5-1c0.3,0,0.6,0,0.8-0.1c0.8,0,1.6,0.1,2.4,0.3c-0.3-0.1-0.6-0.3-1-0.4c-0.1-0.1-0.1-0.2-0.2-0.2l-8.4-8.4
		c0.9,0.4,1.9,0.5,2.8,0.5c1.6,0,3.2-0.5,4.4-1.4l20.3,20.3c-2.2-1-4.3-2.2-6.3-3.6c-2.7-1.9-5.4-3.8-8.4-5.3c2.6,1.7,4.8,4.4,6.5,7
		c0,0,0,0,0,0c1.5,1,3,2,4.5,2.9c2.6,1.4,5.4,2.6,8.2,3.6l6.2,6.2c0.6,0.6,1.3,0.4,1.8-0.1c0.5-0.4,0.6-1.2,0.1-1.8l-6.2-6.2
		c-1-2.8-2.1-5.6-3.6-8.2c-0.9-1.6-1.9-3.1-2.9-4.5c-2.6-1.6-5.3-3.8-7-6.5c1.5,3,3.4,5.7,5.3,8.4c1.4,2,2.6,4.1,3.6,6.3l-20.3-20.3
		c0.9-1.3,1.4-2.8,1.4-4.4c0-1-0.2-1.9-0.5-2.8l8.4,8.4c0.1,0.1,0.1,0.1,0.2,0.2c0.1,0.3,0.3,0.7,0.4,1c-0.3-1-0.3-2.1-0.2-3.2
		c0.1-0.9,0.5-1.7,1-2.5c-0.8-2.8-1.1-6,1-8.1c-0.4,0-0.7-0.1-1.1-0.1c-0.4,0-0.8,0-1.3-0.1c-0.1,0.4-0.2,0.8-0.3,1.1
		c-0.5-0.5-0.9-0.9-1.4-1.4c-2.3-0.5-4.4-1.5-6.3-3c-0.5-0.4-1-0.9-1.4-1.4c-1-0.2-2.1-0.3-3.2-0.3c-2.8,0.1-5.5,0.4-8.3-0.2
		c-1.7-0.4-3.3-1.1-4.8-1.9c0.4-0.1,0.8-0.1,1.2-0.2c4.3-1.2,6.3-6.7,4.3-10.4c4.2,0.3,8.4-3.6,7.8-8c-0.1-0.4-0.1-0.8-0.2-1.2
		c1.4,1,2.6,2.2,3.6,3.6c1.6,2.4,2.4,4.9,3.4,7.6c0.4,1.1,0.9,2,1.5,2.8c0,0,0,0,0,0c0.7,0.2,1.3,0.5,1.9,0.8
		c2.1,1.2,3.8,2.7,5.2,4.6c0,0,0,0,0,0c0.6,0.3,1.2,0.5,1.8,0.8c-0.2,0.2-0.5,0.5-0.9,0.7c0,0,0,0,0,0c0.2,0.4,0.4,0.7,0.6,1.1
		c0.2,0.3,0.3,0.7,0.5,1c1.1-2.8,4.2-3.7,7.1-4c0.5-0.8,1.1-1.4,1.9-1.9c1-0.5,2-0.9,3.1-1c-0.4,0-0.7,0-1.1,0
		c-0.1-0.1-0.2-0.1-0.3-0.1l-11-4.6c2.6,0,5-1.4,6.4-3.6l26.5,11c-2.4-0.1-4.8-0.4-7.2-1c-3.3-0.7-6.5-1.5-9.8-1.7
		c3.1,0.5,6.1,2.2,8.7,4c0,0,0,0,0,0c1.8,0.4,3.5,0.8,5.3,1c3,0.3,6,0.4,8.9,0.2l8.1,3.4c0.8,0.3,1.4-0.1,1.6-0.7
		c0.3-0.6,0.1-1.3-0.6-1.7l-8.1-3.4c-2-2.2-4.1-4.3-6.4-6.2c-1.4-1.1-2.9-2.1-4.4-3.1c-3-0.5-6.4-1.5-8.9-3.3c2.5,2.2,5.3,4,8.1,5.8
		c2.1,1.3,4,2.8,5.8,4.4l-26.5-11c0.6-2.6-0.2-5.2-2-7.1l11,4.6c0.1,0,0.2,0.1,0.3,0.1c0.3,0.3,0.5,0.5,0.7,0.8
		c-0.6-0.9-1.1-1.8-1.4-2.9c-0.2-0.9-0.2-1.8,0-2.7c-1.8-2.3-3.3-5.1-2.2-7.9c-0.3,0.1-0.7,0.2-1,0.3c-0.4,0.2-0.8,0.3-1.2,0.4
		c0,0,0,0,0,0c0.1,0.4,0.1,0.8,0.1,1.1c-0.6-0.3-1.2-0.5-1.8-0.7c-1.1,0.2-2.3,0.3-3.4,0.2c-1.2-0.1-2.3-0.3-3.5-0.6
		c-0.6-0.2-1.2-0.5-1.8-0.8c-1,0.2-2,0.5-3.1,1c-2.6,1.2-4.9,2.4-7.7,2.9c-1.7,0.3-3.4,0.3-5.1,0c0.3-0.2,0.7-0.4,1-0.7
		c3.6-2.8,3.2-8.7-0.1-11.4c4-1.3,6.5-6.5,4.3-10.4c-0.2-0.4-0.4-0.7-0.7-1c1.7,0.4,3.3,1.1,4.7,2c2.4,1.5,4.1,3.6,6,5.7
		c0.8,0.8,1.6,1.5,2.5,2.1c0.3,0,0.7-0.1,1-0.1c0.3,0,0.7,0,1,0c2.4,0.3,4.6,1,6.5,2.3l0,0c0.7,0,1.3,0,2,0c-0.1,0.3-0.3,0.6-0.5,1
		c0,0,0,0,0,0c0.3,0.3,0.6,0.5,1,0.8c0.3,0.3,0.5,0.5,0.8,0.7c0-3,2.5-5,5-6.4c0.2-0.9,0.5-1.7,1-2.4c0.7-0.9,1.5-1.6,2.4-2.1
		c-0.3,0.1-0.6,0.3-1,0.4c-0.1,0-0.2,0-0.3,0h-11.9c2.4-1,4.1-3.2,4.5-5.8h28.7c-2.3,0.8-4.6,1.5-7,1.9c-3.3,0.6-6.6,1.1-9.7,2.2
		c1.1-0.3,2.4-0.4,3.6-0.4c2,0,4.1,0.3,6,0.7c1.8-0.3,3.5-0.6,5.3-1.2c2.9-0.8,5.6-1.9,8.3-3.3h8.8c0.8,0,1.2-0.6,1.2-1.3
		C295.5,155.7,295.1,155,294.3,155z M198,63.3c0.3,1.8,0.9,3.5,1.8,4.9c-1.1,2.9-2.2,6-5,7.6c-0.8,0.4-1.6,0.8-2.4,1.1L198,63.3z
		 M158.2,51.6c1,1.5,2.2,2.9,3.5,3.9c0.1,3,0.2,6.4-1.7,8.9c-0.5,0.7-1.2,1.3-1.8,1.9V51.6z M139.1,66.3c-0.6-0.6-1.3-1.2-1.8-1.9
		c-2-2.5-1.9-5.9-1.7-8.9c1.4-1,2.5-2.3,3.5-3.9V66.3z M102.6,75.8c-2.8-1.6-4-4.7-5-7.6c0.9-1.4,1.5-3.1,1.8-4.9l5.6,13.6
		C104.1,76.6,103.3,76.2,102.6,75.8z M99.3,249.3c-0.3-1.8-0.9-3.5-1.8-4.9c1.1-2.9,2.2-6,5-7.6c0.8-0.4,1.6-0.8,2.4-1.1L99.3,249.3
		z M139.1,261c-1-1.5-2.2-2.9-3.5-3.9c-0.1-3-0.2-6.4,1.7-8.9c0.5-0.7,1.2-1.3,1.8-1.9V261z M158.2,246.3c0.6,0.6,1.3,1.2,1.8,1.9
		c2,2.5,1.9,5.9,1.7,8.9c-1.4,1-2.5,2.3-3.5,3.9V246.3z M194.7,236.8c2.8,1.6,4,4.7,5,7.6c-0.9,1.4-1.5,3.1-1.8,4.9l-5.6-13.6
		C193.2,236,194,236.4,194.7,236.8z M240.6,144.9c2.5-2,5.9-1.9,8.9-1.7c1,1.4,2.3,2.5,3.9,3.5h-14.7
		C239.2,146.1,239.9,145.5,240.6,144.9z M221,139c-0.7,0.8-3.3,3-4.4,1.2c-1.2-2,0.7-3.5,2.4-3.9c1.6-0.4,1.3-2.8-0.3-2.5
		c-2.5,0.6-5.5,2.5-5,5.5c0.3,1.8,1.2,3,2.5,3.5c-1.1,1-1.5,2.5-1.1,4.3c0.7,3,4.3,3.6,6.8,3.2c1.6-0.3,0.9-2.7-0.7-2.4
		c-1.8,0.3-4.1-0.3-3.7-2.6c0.3-2.1,3.5-1.1,4.5-0.6c2.6,1.3,3,4.5,1.6,6.8c-3,5.3-10.5,0.4-13.7-1.8c-2-1.4-4-2.9-6-4.3
		c1.4-2.1,2.6-4.3,4-6.4c2.1-3.3,7.2-10.7,12-6.9C222,133.7,223,136.7,221,139z M249.2,125.1c-1,1.5-1.9,3.1-2.2,4.8
		c-2.8,1.3-5.8,2.6-8.9,1.8c-0.9-0.2-1.7-0.6-2.5-0.9L249.2,125.1z M240.5,118.3c1.1,2.6-0.2,5.7-2.8,6.8c-0.6,0.3-1.3,0.4-2,0.4
		c-2.1,0-4-1.3-4.8-3.2c-0.5-1.3-0.5-2.7,0-4c0.5-1.3,1.5-2.3,2.8-2.8c0.6-0.3,1.3-0.4,2-0.4C237.8,115.1,239.7,116.4,240.5,118.3z
		 M229.3,110.7c1.6-2.8,4.7-4,7.6-5c1.4,0.9,3.1,1.4,4.9,1.8l-13.6,5.6C228.5,112.2,228.9,111.4,229.3,110.7z M209.1,112.7
		c-0.4,1-1.9,4-3.6,2.8c-1.9-1.4-0.7-3.5,0.8-4.5c1.3-0.9,0.1-3.1-1.2-2.2c-2.1,1.5-4.1,4.5-2.5,7c0.9,1.5,2.2,2.2,3.6,2.3
		c-0.6,1.3-0.3,2.8,0.7,4.3c1.7,2.5,5.3,1.7,7.5,0.4c1.4-0.9-0.2-2.8-1.5-2c-1.5,1-3.9,1.2-4.5-1c-0.5-2.1,2.9-2.4,4-2.3
		c2.9,0.2,4.5,3,4.1,5.7c-0.7,6-9.6,4.4-13.4,3.6c-2.4-0.5-4.7-1.2-7.1-1.7c0.5-2.4,0.8-4.9,1.2-7.4c0.7-3.9,2.6-12.6,8.4-11
		C208,107.5,210,109.9,209.1,112.7z M229.8,89.2c-0.4,1.8-0.5,3.6-0.2,5.2c-2.1,2.2-4.4,4.7-7.5,5.1c-0.9,0.1-1.8,0.1-2.6,0.1
		L229.8,89.2z M215.5,84.7c1.4,0,2.7,0.5,3.7,1.5c1,1,1.5,2.3,1.5,3.7c0,1.4-0.5,2.7-1.5,3.7c-1,1-2.3,1.5-3.7,1.5
		c-1.4,0-2.7-0.5-3.7-1.5c-2-2-2-5.3,0-7.3C212.9,85.2,214.2,84.7,215.5,84.7z M205.9,83.4c0.4-3.2,2.8-5.5,5.1-7.5
		c1.7,0.3,3.5,0.1,5.2-0.2L205.8,86C205.8,85.2,205.8,84.3,205.9,83.4z M182.2,88.9c2.7-0.3,5.5,1.2,5.7,4.1c0.1,1.1-0.2,4.5-2.3,4
		c-2.2-0.6-2-3-1-4.5c0.9-1.4-1.1-2.9-2-1.5c-1.3,2.1-2.1,5.7,0.4,7.5c1.5,1,3,1.3,4.3,0.7c-0.1,1.5,0.7,2.8,2.3,3.8
		c2.6,1.6,5.6-0.4,7-2.5c0.9-1.3-1.3-2.6-2.2-1.2c-1,1.5-3.1,2.6-4.5,0.8c-1.3-1.7,1.7-3.3,2.8-3.6c2.8-1,5.3,1.1,6,3.7
		c1.6,5.8-7.1,7.8-11,8.4c-2.4,0.4-4.9,0.7-7.3,1.2c-0.5-2.5-1.2-4.9-1.7-7.3C177.8,98.4,176.2,89.6,182.2,88.9z M180.3,67.4
		c0.8-1.9,2.7-3.2,4.8-3.2c0.7,0,1.3,0.1,2,0.4c2.6,1.1,3.9,4.1,2.8,6.8c-0.8,1.9-2.7,3.2-4.8,3.2c-0.7,0-1.3-0.1-2-0.4
		C180.5,73.1,179.2,70,180.3,67.4z M174.7,69.6c-0.4-0.8-0.7-1.6-0.9-2.5c-0.8-3.1,0.5-6.1,1.8-8.9c1.6-0.4,3.2-1.2,4.8-2.2
		L174.7,69.6z M153.4,81.3c2.3-1.3,5.5-1,6.8,1.6c0.5,1,1.5,4.2-0.6,4.5c-2.3,0.3-2.9-2-2.6-3.7c0.3-1.6-2.1-2.3-2.4-0.7
		c-0.4,2.5,0.2,6.1,3.2,6.8c2,0.4,3.6-0.1,4.6-1.4c0.4,1.6,1.7,2.7,3.7,3.1c3,0.5,5-2.6,5.5-5c0.4-1.6-2.1-1.9-2.5-0.3
		c-0.4,1.7-1.9,3.6-3.9,2.4c-1.8-1.1,0.4-3.7,1.2-4.4c2.2-1.9,5.3-1,6.9,1.1c3.7,4.8-3.6,9.9-6.9,12c-2.2,1.4-4.5,2.7-6.6,4.1
		c-1.5-2.2-3.1-4.2-4.6-6.4C153,91.8,148.1,84.2,153.4,81.3z M148.6,57c2.9,0,5.2,2.3,5.2,5.2s-2.3,5.2-5.2,5.2
		c-2.9,0-5.2-2.3-5.2-5.2S145.8,57,148.6,57z M123.9,85.2c1.7-2.1,4.7-3,6.9-1.1c0.8,0.7,3,3.3,1.2,4.4c-2,1.2-3.5-0.7-3.9-2.4
		c-0.4-1.6-2.8-1.3-2.5,0.3c0.6,2.5,2.5,5.5,5.5,5c2-0.3,3.3-1.5,3.7-3.1c1,1.4,2.6,1.9,4.6,1.4c3-0.7,3.6-4.3,3.2-6.8
		c-0.3-1.6-2.7-0.9-2.4,0.7c0.3,1.8-0.3,4.1-2.6,3.7c-2.1-0.3-1.1-3.5-0.6-4.5c1.3-2.6,4.5-3,6.8-1.6c5.3,3,0.4,10.5-1.8,13.7
		c-1.5,2.1-3.1,4.2-4.6,6.4c-2.2-1.4-4.4-2.7-6.6-4.1C127.5,95.1,120.2,90,123.9,85.2z M117,56c1.5,1,3.1,1.9,4.8,2.2
		c1.3,2.8,2.6,5.8,1.8,8.9c-0.2,0.9-0.6,1.7-0.9,2.5L117,56z M110.2,64.6c0.6-0.3,1.3-0.4,2-0.4c2.1,0,4,1.3,4.8,3.2
		c1.1,2.6-0.2,5.7-2.8,6.8c-0.6,0.3-1.3,0.4-2,0.4c-2.1,0-4-1.3-4.8-3.2C106.3,68.7,107.6,65.7,110.2,64.6z M98.6,100
		c0.7-2.6,3.2-4.6,6-3.7c1,0.4,4,1.9,2.8,3.6c-1.4,1.9-3.5,0.7-4.5-0.8c-0.9-1.3-3.1-0.1-2.2,1.2c1.5,2.1,4.5,4.1,7,2.5
		c1.6-1,2.3-2.3,2.3-3.8c1.3,0.6,2.8,0.3,4.3-0.7c2.5-1.7,1.7-5.3,0.4-7.5c-0.9-1.4-2.8,0.2-2,1.5c0.9,1.5,1.2,3.9-1,4.5
		c-2.1,0.5-2.4-2.9-2.3-4c0.2-2.9,3-4.4,5.7-4.1c6,0.7,4.4,9.6,3.6,13.4c-0.6,2.5-1.2,4.9-1.7,7.3c-2.4-0.5-4.8-0.8-7.3-1.2
		C105.8,107.8,97,105.8,98.6,100z M81.1,75.6c1.8,0.4,3.6,0.5,5.2,0.2c2.2,2.1,4.7,4.4,5.1,7.5c0.1,0.9,0.1,1.8,0.1,2.6L81.1,75.6z
		 M75.3,99.5c-3.2-0.4-5.5-2.8-7.5-5.1c0.3-1.7,0.1-3.5-0.2-5.2l10.4,10.4C77.1,99.6,76.2,99.6,75.3,99.5z M78.1,93.5
		c-1-1-1.5-2.3-1.5-3.7c0-1.4,0.5-2.7,1.5-3.7c1-1,2.3-1.5,3.7-1.5c1.4,0,2.7,0.5,3.7,1.5c2,2,2,5.3,0,7.3c-1,1-2.3,1.5-3.7,1.5
		C80.4,95,79.1,94.5,78.1,93.5z M85.2,117.5c1.1-0.1,4.5,0.2,4,2.3c-0.6,2.2-3,2-4.5,1c-1.4-0.9-2.9,1.1-1.5,2
		c2.1,1.4,5.7,2.1,7.5-0.4c1-1.5,1.3-3,0.7-4.3c1.4,0,2.6-0.8,3.6-2.3c1.6-2.6-0.4-5.6-2.5-7c-1.3-0.9-2.6,1.3-1.2,2.2
		c1.5,1,2.6,3.1,0.8,4.5c-1.7,1.3-3.3-1.7-3.6-2.8c-1-2.8,1.1-5.3,3.7-6c5.8-1.6,7.8,7.1,8.4,11c0.4,2.5,0.7,4.9,1.2,7.4
		c-2.4,0.5-4.7,1.1-7.1,1.7c-3.8,0.9-12.7,2.4-13.4-3.6C80.7,120.5,82.2,117.7,85.2,117.5z M55.5,107.4c1.8-0.3,3.5-0.9,4.9-1.8
		c2.8,1.1,6,2.3,7.6,5c0.4,0.8,0.8,1.6,1.1,2.4L55.5,107.4z M56.8,118.3c0.8-1.9,2.7-3.2,4.8-3.2c0.7,0,1.3,0.1,2,0.4
		c1.3,0.5,2.3,1.5,2.8,2.8c0.5,1.3,0.5,2.7,0,4c-0.8,1.9-2.7,3.2-4.8,3.2c-0.7,0-1.3-0.1-2-0.4C56.9,124,55.7,120.9,56.8,118.3z
		 M59.3,131.6c-3.1,0.8-6.1-0.5-8.9-1.8c-0.4-1.6-1.2-3.2-2.2-4.8l13.6,5.6C60.9,131.1,60.1,131.4,59.3,131.6z M75.2,144.7
		c1-0.5,4.2-1.5,4.5,0.6c0.3,2.3-2,2.9-3.7,2.6c-1.6-0.3-2.3,2.1-0.7,2.4c2.5,0.4,6.1-0.2,6.8-3.2c0.4-1.8,0-3.3-1.1-4.3
		c1.3-0.5,2.2-1.8,2.5-3.5c0.5-3-2.5-5-5-5.5c-1.6-0.4-1.9,2.1-0.3,2.5c1.7,0.4,3.6,1.9,2.4,3.9c-1.1,1.8-3.7-0.4-4.4-1.2
		c-1.9-2.2-1-5.3,1.1-6.9c4.8-3.7,9.9,3.6,12,6.9c1.3,2.1,2.6,4.3,4,6.4c-2,1.4-4,2.9-6,4.3c-3.2,2.3-10.8,7.1-13.7,1.8
		C72.3,149.2,72.6,146,75.2,144.7z M44,146.7c1.5-1,2.9-2.2,3.9-3.5c3-0.1,6.4-0.2,8.9,1.7c0.7,0.5,1.3,1.2,1.9,1.8H44z M49.3,156.3
		c0-2.9,2.3-5.2,5.2-5.2c2.9,0,5.2,2.3,5.2,5.2c0,2.9-2.3,5.2-5.2,5.2C51.6,161.5,49.3,159.2,49.3,156.3z M56.7,167.7
		c-2.5,2-5.9,1.9-8.9,1.7c-1-1.4-2.3-2.5-3.9-3.5h14.7C58.1,166.5,57.4,167.1,56.7,167.7z M76.3,173.7c0.7-0.8,3.3-3,4.4-1.2
		c1.2,2-0.7,3.5-2.4,3.9c-1.6,0.4-1.3,2.8,0.3,2.5c2.5-0.6,5.5-2.5,5-5.5c-0.3-1.8-1.2-3-2.5-3.5c1.1-1,1.5-2.5,1.1-4.3
		c-0.7-3-4.3-3.6-6.8-3.2c-1.6,0.3-0.9,2.7,0.7,2.4c1.8-0.3,4.1,0.3,3.7,2.6c-0.3,2.1-3.5,1.1-4.5,0.6c-2.6-1.3-3-4.5-1.6-6.8
		c3-5.3,10.5-0.4,13.7,1.8c2,1.4,4,2.9,6,4.3c-1.4,2.1-2.6,4.3-4,6.4c-2.1,3.3-7.2,10.7-12,6.9C75.2,178.9,74.3,175.9,76.3,173.7z
		 M48.1,187.5c1-1.5,1.9-3.1,2.2-4.8c2.8-1.3,5.8-2.6,8.9-1.8c0.9,0.2,1.7,0.6,2.5,0.9L48.1,187.5z M56.8,194.3
		c-1.1-2.6,0.2-5.7,2.8-6.8c0.6-0.3,1.3-0.4,2-0.4c2.1,0,4,1.3,4.8,3.2c0.5,1.3,0.5,2.7,0,4c-0.5,1.3-1.5,2.3-2.8,2.8
		c-0.6,0.3-1.3,0.4-2,0.4C59.5,197.5,57.6,196.2,56.8,194.3z M68,202c-1.6,2.8-4.7,4-7.6,5c-1.4-0.9-3.1-1.4-4.9-1.8l13.6-5.6
		C68.8,200.4,68.4,201.2,68,202z M88.2,199.9c0.4-1,1.9-4,3.6-2.8c1.9,1.4,0.7,3.5-0.8,4.5c-1.3,0.9-0.1,3.1,1.2,2.2
		c2.1-1.5,4.1-4.5,2.5-7c-0.9-1.5-2.2-2.2-3.6-2.3c0.6-1.3,0.3-2.8-0.7-4.3c-1.7-2.5-5.3-1.7-7.5-0.4c-1.4,0.9,0.2,2.8,1.5,2
		c1.5-1,3.9-1.2,4.5,1c0.5,2.1-2.9,2.4-4,2.3c-2.9-0.2-4.5-3-4.1-5.7c0.7-6,9.6-4.4,13.4-3.6c2.4,0.5,4.7,1.2,7.1,1.7
		c-0.5,2.4-0.8,4.9-1.2,7.4c-0.7,3.9-2.6,12.6-8.4,11C89.3,205.1,87.3,202.7,88.2,199.9z M67.5,223.4c0.4-1.8,0.5-3.6,0.2-5.2
		c2.1-2.2,4.4-4.7,7.5-5.1c0.9-0.1,1.8-0.1,2.6-0.1L67.5,223.4z M81.8,227.9c-1.4,0-2.7-0.5-3.7-1.5c-1-1-1.5-2.3-1.5-3.7
		c0-1.4,0.5-2.7,1.5-3.7c1-1,2.3-1.5,3.7-1.5c1.4,0,2.7,0.5,3.7,1.5c2,2,2,5.3,0,7.3C84.4,227.4,83.1,227.9,81.8,227.9z M91.4,229.2
		c-0.4,3.2-2.8,5.5-5.1,7.5c-1.7-0.3-3.5-0.1-5.2,0.2l10.4-10.4C91.5,227.4,91.5,228.3,91.4,229.2z M115.1,223.7
		c-2.7,0.3-5.5-1.2-5.7-4.1c-0.1-1.1,0.2-4.5,2.3-4c2.2,0.6,2,3,1,4.5c-0.9,1.4,1.1,2.9,2,1.5c1.3-2.1,2.1-5.7-0.4-7.5
		c-1.5-1-3-1.3-4.3-0.7c0.1-1.5-0.7-2.8-2.3-3.8c-2.6-1.6-5.6,0.4-7,2.5c-0.9,1.3,1.3,2.6,2.2,1.2c1-1.5,3.1-2.6,4.5-0.8
		c1.3,1.7-1.7,3.3-2.8,3.6c-2.8,1-5.3-1.1-6-3.7c-1.6-5.8,7.1-7.8,11-8.4c2.4-0.4,4.9-0.7,7.3-1.2c0.5,2.5,1.2,4.9,1.7,7.3
		C119.5,214.2,121.1,223,115.1,223.7z M117,245.2c-0.8,1.9-2.7,3.2-4.8,3.2c-0.7,0-1.3-0.1-2-0.4c-2.6-1.1-3.9-4.1-2.8-6.8
		c0.8-1.9,2.7-3.2,4.8-3.2c0.7,0,1.3,0.1,2,0.4C116.8,239.5,118.1,242.6,117,245.2z M122.6,243c0.4,0.8,0.7,1.6,0.9,2.5
		c0.8,3.1-0.5,6.1-1.8,8.9c-1.6,0.4-3.2,1.2-4.8,2.2L122.6,243z M143.9,231.4c-2.3,1.3-5.5,1-6.8-1.6c-0.5-1-1.5-4.2,0.6-4.5
		c2.3-0.3,2.9,2,2.6,3.7c-0.3,1.6,2.1,2.3,2.4,0.7c0.4-2.5-0.2-6.1-3.2-6.8c-2-0.4-3.6,0.1-4.6,1.4c-0.4-1.6-1.7-2.7-3.7-3.1
		c-3-0.5-5,2.6-5.5,5c-0.4,1.6,2.1,1.9,2.5,0.3c0.4-1.7,1.9-3.6,3.9-2.4c1.8,1.1-0.4,3.7-1.2,4.4c-2.2,1.9-5.3,1-6.9-1.1
		c-3.7-4.8,3.6-9.9,6.9-12c2.2-1.4,4.5-2.7,6.6-4.1c1.5,2.2,3.1,4.2,4.6,6.4C144.3,220.8,149.2,228.4,143.9,231.4z M148.6,255.6
		c-2.9,0-5.2-2.3-5.2-5.2c0-2.9,2.3-5.2,5.2-5.2c2.9,0,5.2,2.3,5.2,5.2C153.8,253.3,151.5,255.6,148.6,255.6z M173.4,227.4
		c-1.7,2.1-4.7,3-6.9,1.1c-0.8-0.7-3-3.3-1.2-4.4c2-1.2,3.5,0.7,3.9,2.4c0.4,1.6,2.8,1.3,2.5-0.3c-0.6-2.5-2.5-5.5-5.5-5
		c-2,0.3-3.3,1.5-3.7,3.1c-1-1.4-2.6-1.9-4.6-1.4c-3,0.7-3.6,4.3-3.2,6.8c0.3,1.6,2.7,0.9,2.4-0.7c-0.3-1.8,0.3-4.1,2.6-3.7
		c2.1,0.3,1.1,3.5,0.6,4.5c-1.3,2.6-4.5,3-6.8,1.6c-5.3-3-0.4-10.5,1.8-13.7c1.5-2.1,3.1-4.2,4.6-6.4c2.2,1.4,4.4,2.7,6.6,4.1
		C169.8,217.5,177.1,222.6,173.4,227.4z M180.3,256.6c-1.5-1-3.1-1.9-4.8-2.2c-1.3-2.8-2.6-5.8-1.8-8.9c0.2-0.9,0.6-1.7,0.9-2.5
		L180.3,256.6z M187.1,248c-0.6,0.3-1.3,0.4-2,0.4c-2.1,0-4-1.3-4.8-3.2c-1.1-2.6,0.2-5.7,2.8-6.8c0.6-0.3,1.3-0.4,2-0.4
		c2.1,0,4,1.3,4.8,3.2C191,243.9,189.7,246.9,187.1,248z M198.7,212.6c-0.7,2.6-3.2,4.6-6,3.7c-1-0.4-4-1.9-2.8-3.6
		c1.4-1.9,3.5-0.7,4.5,0.8c0.9,1.3,3.1,0.1,2.2-1.2c-1.5-2.1-4.5-4.1-7-2.5c-1.6,1-2.3,2.3-2.3,3.8c-1.3-0.6-2.8-0.3-4.3,0.7
		c-2.5,1.7-1.7,5.3-0.4,7.5c0.9,1.4,2.8-0.2,2-1.5c-0.9-1.5-1.2-3.9,1-4.5c2.1-0.5,2.4,2.9,2.3,4c-0.2,2.9-3,4.4-5.7,4.1
		c-6-0.7-4.4-9.6-3.6-13.4c0.6-2.5,1.2-4.9,1.7-7.3c2.4,0.5,4.8,0.8,7.3,1.2C191.5,204.9,200.3,206.8,198.7,212.6z M216.2,237
		c-1.8-0.4-3.6-0.5-5.2-0.2c-2.2-2.1-4.7-4.4-5.1-7.5c-0.1-0.9-0.1-1.8-0.1-2.6L216.2,237z M222,213.1c3.2,0.4,5.5,2.8,7.5,5.1
		c-0.3,1.7-0.1,3.5,0.2,5.2L219.4,213C220.2,213,221.1,213,222,213.1z M219.2,219.1c1,1,1.5,2.3,1.5,3.7c0,1.4-0.5,2.7-1.5,3.7
		c-1,1-2.3,1.5-3.7,1.5c-1.4,0-2.7-0.5-3.7-1.5c-2-2-2-5.3,0-7.3c1-1,2.3-1.5,3.7-1.5C216.9,217.6,218.2,218.1,219.2,219.1z
		 M212.1,195.1c-1.1,0.1-4.5-0.2-4-2.3c0.6-2.2,3-2,4.5-1c1.4,0.9,2.9-1.1,1.5-2c-2.1-1.4-5.7-2.1-7.5,0.4c-1,1.5-1.3,3-0.7,4.3
		c-1.4,0-2.6,0.8-3.6,2.3c-1.6,2.6,0.4,5.6,2.5,7c1.3,0.9,2.6-1.3,1.2-2.2c-1.5-1-2.6-3.1-0.8-4.5c1.7-1.3,3.3,1.7,3.6,2.8
		c1,2.8-1.1,5.3-3.7,6c-5.8,1.6-7.8-7.1-8.4-11c-0.4-2.5-0.7-4.9-1.2-7.4c2.4-0.5,4.7-1.1,7.1-1.7c3.8-0.9,12.7-2.4,13.4,3.6
		C216.6,192.1,215.1,194.9,212.1,195.1z M241.8,205.2c-1.8,0.3-3.5,0.9-4.9,1.8c-2.8-1.1-6-2.3-7.6-5c-0.4-0.8-0.8-1.6-1.1-2.4
		L241.8,205.2z M240.5,194.3c-0.8,1.9-2.7,3.2-4.8,3.2c-0.7,0-1.3-0.1-2-0.4c-1.3-0.5-2.3-1.5-2.8-2.8c-0.5-1.3-0.5-2.7,0-4
		c0.8-1.9,2.7-3.2,4.8-3.2c0.7,0,1.3,0.1,2,0.4C240.4,188.6,241.6,191.7,240.5,194.3z M238,181c3.1-0.8,6.1,0.5,8.9,1.8
		c0.4,1.6,1.2,3.2,2.2,4.8l-13.6-5.6C236.4,181.5,237.2,181.2,238,181z M222,167.9c-1,0.5-4.2,1.5-4.5-0.6c-0.3-2.3,2-2.9,3.7-2.6
		c1.6,0.3,2.3-2.1,0.7-2.4c-2.5-0.4-6.1,0.2-6.8,3.2c-0.4,1.8,0,3.3,1.1,4.3c-1.3,0.5-2.2,1.8-2.5,3.5c-0.5,3,2.5,5,5,5.5
		c1.6,0.4,1.9-2.1,0.3-2.5c-1.7-0.4-3.6-1.9-2.4-3.9c1.1-1.8,3.7,0.4,4.4,1.2c1.9,2.2,1,5.3-1.1,6.9c-4.8,3.7-9.9-3.6-12-6.9
		c-1.3-2.1-2.6-4.3-4-6.4c2-1.4,4-2.9,6-4.3c3.2-2.3,10.8-7.1,13.7-1.8C225,163.4,224.7,166.6,222,167.9z M236.4,163.4
		c-0.5-0.5-1-1.1-1.5-1.5c-7.1-6.6-17.7-7.1-25.6-1.6c-2.3,1.6-4.6,3.3-6.9,4.8c-0.2-0.3-0.4-0.5-0.6-0.8v1.1v3.1v0.2
		c1.5,2.3,3,4.7,4.5,7.1c5.1,8.1,15.1,11.7,24.2,8.4c0.7-0.2,1.3-0.5,2-0.8l3.1,1.3c-3.1,0-5.8,1.9-7,4.7c-0.8,1.9-0.8,4,0,5.9
		c0.4,0.9,0.9,1.7,1.6,2.4l-3.1-1.3c-0.2-0.7-0.5-1.3-0.8-2c-4-8.8-13.6-13.4-23-11.3c-2.6,0.6-5.1,1.2-7.6,1.7l-0.4,0.4l-2.2,2.2
		l-0.6,0.6c0.2,0,0.5-0.1,0.7-0.1c0.6,2.7,1,5.5,1.5,8.4c1.6,9.5,9.5,16.6,19.2,17c0.7,0,1.4,0,2.1,0l2.4,2.4
		c-0.9-0.4-1.9-0.5-2.8-0.5c-2.1,0-4,0.8-5.4,2.3c-2.2,2.2-2.8,5.5-1.7,8.3l-2.4-2.4c0-0.7,0.1-1.4,0-2.1c-0.4-9.7-7.5-17.6-17-19.2
		c-2.8-0.5-5.6-0.9-8.3-1.4c0-0.3,0.1-0.5,0.1-0.8l-0.7,0.7l-2.2,2.2l-0.3,0.3c-0.5,2.6-1.2,5.3-1.8,8c-2.1,9.4,2.4,19,11.2,23
		c0.6,0.3,1.3,0.5,2,0.8l1.3,3.1c-1.4-1.4-3.3-2.2-5.4-2.2h0c-1,0-2,0.2-2.9,0.6c-2.9,1.2-4.7,4-4.7,7l-1.3-3.1
		c0.3-0.6,0.6-1.3,0.9-2c3.4-9.1-0.2-19.1-8.3-24.2c-2.1-1.3-4.2-2.6-6.3-3.9h0h-1.7h0h-2.8h0h-0.3c-1.5,2.4-3.3,4.7-5,7.1
		c-5.5,7.8-5,18.5,1.6,25.6c0.5,0.5,1,1,1.5,1.5v3.3c-1.2-2.7-3.9-4.6-7.1-4.7v0c0,0,0,0,0,0s0,0,0,0l0,0c-3.2,0-5.9,1.9-7.1,4.7
		v-3.3c0.5-0.5,1.1-1,1.5-1.5c6.6-7.1,7.1-17.7,1.6-25.6c-1.7-2.4-3.5-4.7-5-7.1h-0.3h-2.8h-1.7c-2,1.3-4.1,2.6-6.3,3.9
		c-8.1,5.1-11.7,15.2-8.3,24.2c0.2,0.7,0.5,1.3,0.9,2l-1.3,3.1c0-3-1.8-5.8-4.7-7c-0.9-0.4-1.9-0.6-2.9-0.6h0c-2.1,0-4,0.8-5.4,2.2
		l1.3-3.1c0.7-0.2,1.3-0.5,2-0.8c8.8-4,13.3-13.7,11.2-23c-0.6-2.7-1.3-5.4-1.8-8l-0.3-0.3l-2.2-2.2l-0.7-0.7c0,0.3,0.1,0.5,0.1,0.8
		c-2.7,0.6-5.5,1-8.3,1.4c-9.5,1.6-16.6,9.5-17,19.2c0,0.7,0,1.4,0,2.1l-2.4,2.4c1.1-2.8,0.5-6-1.7-8.3c-1.5-1.5-3.4-2.3-5.4-2.3
		c-1,0-1.9,0.2-2.8,0.5l2.4-2.4c0.7,0,1.4,0.1,2.1,0c9.7-0.4,17.6-7.5,19.2-17c0.5-2.8,0.9-5.6,1.5-8.4c0.2,0,0.5,0.1,0.7,0.1
		l-0.6-0.6l-2.2-2.2l-0.4-0.4c-2.5-0.5-5-1.1-7.6-1.7c-9.4-2.1-19,2.5-23,11.3c-0.3,0.6-0.5,1.3-0.8,2l-3.1,1.3
		c0.7-0.7,1.2-1.5,1.6-2.4c0.8-1.9,0.8-4,0-5.9c-1.2-2.9-3.9-4.7-7-4.7l3.1-1.3c0.6,0.3,1.3,0.6,2,0.8c9.1,3.4,19.1-0.2,24.2-8.4
		c1.5-2.4,2.9-4.8,4.5-7.1v-0.2v-3.1v-1.1c-0.2,0.3-0.4,0.5-0.6,0.8c-2.3-1.5-4.6-3.2-6.9-4.8c-7.8-5.5-18.5-5-25.6,1.6
		c-0.5,0.5-1,1-1.5,1.5h-3.3c2.7-1.2,4.7-3.9,4.7-7.1c0-3.2-1.9-5.9-4.7-7.1h3.3c0.5,0.5,1,1.1,1.5,1.5c7.1,6.6,17.7,7.1,25.6,1.6
		c2.3-1.6,4.6-3.3,6.9-4.8c0.2,0.3,0.4,0.5,0.6,0.8v-1.1v-3.1v-0.2c-1.5-2.3-3-4.7-4.5-7.1c-5.1-8.1-15.1-11.7-24.2-8.4
		c-0.7,0.2-1.3,0.5-2,0.8l-3.1-1.3c3.1,0,5.8-1.9,7-4.7c0.8-1.9,0.8-4,0-5.9c-0.4-0.9-0.9-1.7-1.6-2.4l3.1,1.3
		c0.2,0.7,0.5,1.3,0.8,2c4,8.8,13.6,13.4,23,11.3c2.6-0.6,5.1-1.2,7.6-1.7l0.4-0.4l2.2-2.2l0.6-0.6c-0.2,0-0.5,0.1-0.7,0.1
		c-0.6-2.7-1-5.5-1.5-8.4c-1.6-9.5-9.5-16.6-19.2-17c-0.7,0-1.4,0-2.1,0L78.9,97c0.9,0.4,1.9,0.5,2.8,0.5c2.1,0,4-0.8,5.4-2.3
		c2.2-2.2,2.8-5.5,1.7-8.3l2.4,2.4c0,0.7-0.1,1.4,0,2.1c0.4,9.7,7.5,17.6,17,19.2c2.8,0.5,5.6,0.9,8.3,1.4c0,0.3-0.1,0.5-0.1,0.8
		l0.7-0.7l2.2-2.2l0.3-0.3c0.5-2.6,1.2-5.3,1.8-8c2.1-9.4-2.4-19-11.2-23c-0.6-0.3-1.3-0.5-2-0.8l-1.3-3.1c1.4,1.4,3.3,2.2,5.4,2.2
		h0c1,0,2-0.2,2.9-0.6c2.9-1.2,4.7-4,4.7-7l1.3,3.1c-0.3,0.6-0.6,1.3-0.9,2c-3.4,9.1,0.2,19.1,8.3,24.2c2.1,1.3,4.2,2.6,6.3,3.9h1.7
		h2.8h0.3c1.5-2.4,3.3-4.7,5-7.1c5.5-7.8,5-18.5-1.6-25.6c-0.5-0.5-1-1-1.5-1.5v-3.3c1.2,2.7,3.9,4.6,7.1,4.7v0c0,0,0,0,0,0s0,0,0,0
		v0c3.2,0,5.9-1.9,7.1-4.7v3.3c-0.5,0.5-1.1,1-1.5,1.5c-6.6,7.1-7.1,17.7-1.6,25.6c1.7,2.4,3.5,4.7,5,7.1h0.3h0h2.8h0h1.7h0
		c2-1.3,4.1-2.6,6.3-3.9c8.1-5.1,11.7-15.2,8.3-24.2c-0.2-0.7-0.5-1.3-0.9-2l1.3-3.1c0,3,1.8,5.8,4.7,7c0.9,0.4,1.9,0.6,2.9,0.6h0
		c2.1,0,4-0.8,5.4-2.2l-1.3,3.1c-0.7,0.2-1.3,0.5-2,0.8c-8.8,4-13.3,13.7-11.2,23c0.6,2.7,1.3,5.4,1.8,8l0.3,0.3l2.2,2.2l0.7,0.7
		c0-0.3-0.1-0.5-0.1-0.8c2.7-0.6,5.5-1,8.3-1.4c9.5-1.6,16.6-9.5,17-19.2c0-0.7,0-1.4,0-2.1l2.4-2.4c-1.1,2.8-0.5,6,1.7,8.3
		c1.5,1.5,3.4,2.3,5.4,2.3c1,0,1.9-0.2,2.8-0.5l-2.4,2.4c-0.7,0-1.4-0.1-2.1,0c-9.7,0.4-17.6,7.5-19.2,17c-0.5,2.8-0.9,5.6-1.5,8.4
		c-0.2,0-0.5-0.1-0.7-0.1l0.6,0.6l2.2,2.2l0.4,0.4c2.5,0.5,5,1.1,7.6,1.7c9.4,2.1,19-2.5,23-11.3c0.3-0.6,0.5-1.3,0.8-2l3.1-1.3
		c-0.7,0.7-1.2,1.5-1.6,2.4c-0.8,1.9-0.8,4,0,5.9c1.2,2.9,3.9,4.7,7,4.7l-3.1,1.3c-0.6-0.3-1.3-0.6-2-0.8
		c-9.1-3.4-19.1,0.2-24.2,8.4c-1.5,2.4-2.9,4.8-4.5,7.1v0.2v3.1v1.1c0.2-0.3,0.4-0.5,0.6-0.8c2.3,1.5,4.6,3.2,6.9,4.8
		c7.8,5.5,18.5,5,25.6-1.6c0.5-0.5,1-1,1.5-1.5h3.3c-2.7,1.2-4.7,3.9-4.7,7.1c0,3.2,1.9,5.9,4.7,7.1H236.4z M253.3,165.9
		c-1.5,1-2.9,2.2-3.9,3.5c-3,0.1-6.4,0.2-8.9-1.7c-0.7-0.5-1.3-1.2-1.9-1.8H253.3z M242.8,161.5c-2.9,0-5.2-2.3-5.2-5.2
		c0-2.9,2.3-5.2,5.2-5.2c2.9,0,5.2,2.3,5.2,5.2C248,159.2,245.6,161.5,242.8,161.5z"/>
	<path fill="#45AB6C" d="M188.3,140.6v2.2l0.3,0.3c4-0.2,7.5,0.9,10.8,2.6v-3v0c-0.4-0.2-0.8-0.4-1.1-0.5
		C195.1,140.8,191.7,140.3,188.3,140.6z"/>
	<path fill="#45AB6C" d="M259.6,147.1c0.7,0.5,1.4,0.8,2.2,0.9C261.1,147.8,260.4,147.5,259.6,147.1z"/>
	<path fill="#45AB6C" d="M221,71.5c0.8-0.1,1.6-0.5,2.3-0.9C222.5,70.9,221.7,71.2,221,71.5z"/>
	<path fill="#45AB6C" d="M168.1,118.6L168.1,118.6c2.7-2.9,5.9-4.5,9.4-5.6l0,0l-2.1-2.1c-0.4,0.1-0.9,0.3-1.3,0.5
		c-3.2,1.3-5.9,3.3-8.1,5.9l1.4,1.4H168.1z"/>
	<path fill="#45AB6C" d="M233.9,84.4c0.3-0.7,0.6-1.5,0.9-2.2C234.4,82.9,234.1,83.6,233.9,84.4z"/>
	<path fill="#45AB6C" d="M186.4,137.7l1.4,1.4c0.1,0.1,0.2,0.2,0.3,0.4c2.6-2.2,4.6-4.9,5.9-8.1c0.2-0.4,0.3-0.9,0.5-1.3l0,0
		l-2.1-2.1C191.3,131.6,189.6,134.9,186.4,137.7z"/>
	<path fill="#45AB6C" d="M180.6,121.1L180.6,121.1h-2.7c-0.5,1.9-1.2,3.7-2.4,5.5c0,0,0,0,0,0l1.5,1.5l0.3,0.3l1.5,1.5
		c1.6-1,3.2-1.7,4.8-2.2v0v-2.7c-2,0.6-3.9,1.4-5.7,2.5C179,125.5,180,123.4,180.6,121.1z"/>
	<path fill="#45AB6C" d="M250.2,105.4c-0.8,0-1.6,0-2.4,0c0.4,0.1,0.8,0.1,1.2,0.1C249.4,105.5,249.8,105.5,250.2,105.4z"/>
	<path fill="#45AB6C" d="M191.6,127.1l-2.8-2.8c-0.9,0-1.8,0.1-2.7,0.2v2.7C187.9,126.9,189.7,127,191.6,127.1z"/>
	<path fill="#45AB6C" d="M196,150.5l1.9,1.9c0.5-0.4,1-0.8,1.5-1.3v0v-3.9C198.4,148.4,197.2,149.5,196,150.5z"/>
	<path fill="#45AB6C" d="M254.8,122.3c0.5-0.6,1.1-1.2,1.7-1.7C255.8,121,255.2,121.6,254.8,122.3z"/>
	<path fill="#45AB6C" d="M195.8,153.8l-1.9-1.9c-1.6,0.9-3.4,1.6-5.4,2.1c0,0-0.1,0-0.1,0v1.4v0.9v0.9v1.4c0,0,0.1,0,0.1,0
		c2,0.4,3.8,1.2,5.4,2.1l1.9-1.9l0,0c-1.6-0.9-3.3-2-5-2.5c0,0,0,0,0.1,0c0,0,0,0-0.1,0C192.5,155.8,194.2,154.7,195.8,153.8
		L195.8,153.8z"/>
	<path fill="#45AB6C" d="M184.8,48.6c-0.6,0.6-1.1,1.2-1.7,1.7C183.7,49.9,184.3,49.3,184.8,48.6z"/>
	<path fill="#45AB6C" d="M151.6,116.3c0.4-1.8,1-3.4,1.8-4.8l0,0l-1.9-1.9c-1.2,2.1-2,4.3-2.5,6.7H151.6L151.6,116.3z"/>
	<path fill="#45AB6C" d="M154.9,105.2c-0.7,0.7-1.3,1.4-1.9,2.2l1.9,1.9c1.2-1.5,2.6-2.9,4.1-4.1h0H154.9z"/>
	<path fill="#45AB6C" d="M181,118.6L181,118.6c0.1-0.6,0.1-1.2,0.1-1.9l0,0l-2.8-2.8c0.1,1.6,0.1,3.1,0,4.7H181z"/>
	<path fill="#45AB6C" d="M200,57.3c0-0.8,0-1.6,0-2.4C199.8,55.7,199.8,56.5,200,57.3z"/>
	<path fill="#45AB6C" d="M135.4,196.3h-2.5c-0.2,3.3,0.3,6.5,1.6,9.6c0.2,0.5,0.5,1,0.7,1.5h3C136.4,204,135.2,200.4,135.4,196.3z"
		/>
	<path fill="#45AB6C" d="M140.4,269.5c-0.2-0.8-0.5-1.6-1-2.3C139.8,268,140.1,268.8,140.4,269.5z"/>
	<path fill="#45AB6C" d="M109,172v-2.2l-0.3-0.3c-4,0.2-7.5-0.9-10.8-2.6v3c0.4,0.2,0.8,0.4,1.2,0.5
		C102.2,171.8,105.6,172.3,109,172z"/>
	<path fill="#45AB6C" d="M37.7,165.5c-0.7-0.5-1.4-0.8-2.3-1C36.2,164.8,36.9,165.1,37.7,165.5z"/>
	<path fill="#45AB6C" d="M76.3,241.1c-0.8,0.1-1.6,0.5-2.3,0.9C74.8,241.7,75.6,241.4,76.3,241.1z"/>
	<path fill="#45AB6C" d="M129.2,194c-2.7,2.9-5.9,4.5-9.4,5.6l2.1,2.1c0.4-0.1,0.9-0.3,1.3-0.5c3.2-1.3,5.9-3.3,8.1-5.9l-1.4-1.4
		H129.2z"/>
	<path fill="#45AB6C" d="M63.4,228.2c-0.3,0.8-0.6,1.5-0.9,2.3C62.9,229.7,63.2,229,63.4,228.2z"/>
	<path fill="#45AB6C" d="M110.9,174.9l-1.4-1.4c-0.1-0.1-0.2-0.2-0.3-0.4c-2.6,2.2-4.6,4.9-5.9,8.1c-0.2,0.4-0.3,0.9-0.5,1.3
		l2.1,2.1C106,181,107.7,177.7,110.9,174.9z"/>
	<path fill="#45AB6C" d="M121.9,185.9l-1.5-1.5l-0.3-0.3l-1.5-1.5c-1.6,1-3.2,1.7-4.8,2.2v2.7c2-0.6,3.9-1.4,5.7-2.5
		c-1.2,2-2.2,4.2-2.8,6.4h2.7C119.9,189.6,120.7,187.8,121.9,185.9C121.9,186,121.9,186,121.9,185.9z"/>
	<path fill="#45AB6C" d="M47.1,207.2c0.8,0,1.6,0,2.5,0C48.7,207.1,47.9,207.1,47.1,207.2z"/>
	<path fill="#45AB6C" d="M105.7,185.5l2.8,2.8c0.9,0,1.8-0.1,2.7-0.2v-2.7C109.4,185.7,107.6,185.6,105.7,185.5z"/>
	<path fill="#45AB6C" d="M101.3,162.2l-1.9-1.9c-0.5,0.4-1,0.8-1.5,1.3v3.9C98.9,164.2,100.1,163.1,101.3,162.2z"/>
	<path fill="#45AB6C" d="M42.5,190.3c-0.6,0.6-1.1,1.2-1.7,1.7C41.5,191.6,42.1,191,42.5,190.3z"/>
	<path fill="#45AB6C" d="M103.4,160.7c1.6-0.9,3.4-1.6,5.4-2.1c0,0,0.1,0,0.1,0v-1.4v-0.9v-0.9V154c0,0-0.1,0-0.1,0
		c-2-0.4-3.8-1.2-5.4-2.1l-1.9,1.9c1.6,0.9,3.3,2,5,2.5c-1.8,0.5-3.5,1.6-5,2.5L103.4,160.7z"/>
	<path fill="#45AB6C" d="M112.5,264c0.6-0.6,1.1-1.2,1.7-1.7C113.6,262.7,113,263.3,112.5,264z"/>
	<path fill="#45AB6C" d="M143.8,201.1l1.9,1.9c1.2-2.1,2-4.3,2.5-6.7h-2.6C145.2,198.1,144.6,199.7,143.8,201.1z"/>
	<path fill="#45AB6C" d="M138.3,207.4h4.1c0.7-0.7,1.3-1.4,1.9-2.2l-1.9-1.9C141.2,204.8,139.8,206.1,138.3,207.4z"/>
	<path fill="#45AB6C" d="M116.3,194c-0.1,0.6-0.1,1.2-0.1,1.9l2.8,2.8c-0.1-1.6-0.1-3.1,0-4.7H116.3z"/>
	<path fill="#45AB6C" d="M97.3,255.3c0,0.8,0,1.6,0,2.5C97.5,256.9,97.5,256.1,97.3,255.3z"/>
	<path fill="#45AB6C" d="M164.4,196.3h-2.5c0.2,4.1-0.9,7.7-2.8,11.1h3h0c0.2-0.5,0.5-1,0.7-1.5
		C164.1,202.8,164.6,199.6,164.4,196.3L164.4,196.3z"/>
	<path fill="#45AB6C" d="M157.8,267.3c-0.5,0.6-0.8,1.4-0.9,2.2C157.2,268.8,157.5,268,157.8,267.3z"/>
	<path fill="#45AB6C" d="M188.6,169.5l-0.3,0.3v2.2c3.4,0.3,6.8-0.2,9.9-1.5c0.4-0.2,0.8-0.4,1.1-0.5v0v-3
		C196.1,168.7,192.6,169.8,188.6,169.5z"/>
	<path fill="#45AB6C" d="M259.6,165.5c0.7-0.3,1.5-0.6,2.2-0.9C261.1,164.7,260.3,165,259.6,165.5z"/>
	<path fill="#45AB6C" d="M223.2,242c-0.7-0.5-1.5-0.8-2.3-0.9C221.7,241.4,222.5,241.7,223.2,242z"/>
	<path fill="#45AB6C" d="M168.1,194L168.1,194h-0.7l-1.4,1.4c2.2,2.5,4.9,4.6,8.1,5.9c0.4,0.2,0.9,0.3,1.3,0.5l2.1-2.1l0,0
		C173.9,198.5,170.7,196.9,168.1,194z"/>
	<path fill="#45AB6C" d="M234.8,230.4c-0.3-0.7-0.6-1.5-0.9-2.2C234.1,229,234.4,229.7,234.8,230.4z"/>
	<path fill="#45AB6C" d="M188.1,173.1c-0.1,0.1-0.2,0.3-0.3,0.4l-1.4,1.4c3.1,2.7,4.9,6.1,6,9.7l2.1-2.1l0,0
		c-0.1-0.4-0.3-0.9-0.5-1.3C192.8,178,190.7,175.3,188.1,173.1z"/>
	<path fill="#45AB6C" d="M177.2,184.2l-0.3,0.3l-1.5,1.5c0,0,0,0,0,0c1.2,1.8,2,3.7,2.4,5.5h2.7h0c-0.6-2.3-1.5-4.4-2.8-6.4
		c1.8,1.1,3.7,1.9,5.7,2.5v-2.7v0c-1.6-0.5-3.2-1.2-4.8-2.2L177.2,184.2z"/>
	<path fill="#45AB6C" d="M250.2,207.2c-0.4-0.1-0.8-0.1-1.2-0.1c-0.4,0-0.8,0-1.2,0.1C248.6,207.2,249.4,207.2,250.2,207.2z"/>
	<path fill="#45AB6C" d="M186,185.4v2.7c0.9,0.1,1.8,0.2,2.7,0.2l2.8-2.8C189.7,185.6,187.9,185.7,186,185.4z"/>
	<path fill="#45AB6C" d="M196,162.2c1.3,1,2.4,2.1,3.4,3.3v-3.9v0c-0.5-0.5-1-0.9-1.5-1.3L196,162.2z"/>
	<path fill="#45AB6C" d="M256.5,192c-0.6-0.6-1.1-1.1-1.7-1.7C255.2,191,255.8,191.6,256.5,192z"/>
	<path fill="#45AB6C" d="M183,262.3c0.6,0.6,1.2,1.1,1.7,1.7C184.3,263.3,183.7,262.7,183,262.3z"/>
	<path fill="#45AB6C" d="M153.5,201.1c-0.8-1.4-1.4-3-1.8-4.8h0h-2.6c0.5,2.4,1.3,4.6,2.5,6.7L153.5,201.1L153.5,201.1z"/>
	<path fill="#45AB6C" d="M154.9,203.3l-1.9,1.9c0.6,0.8,1.2,1.5,1.9,2.2h4.1h0C157.4,206.1,156.1,204.8,154.9,203.3z"/>
	<path fill="#45AB6C" d="M181,194h-2.7c0.2,1.5,0.2,3.1,0,4.7l2.8-2.8l0,0C181.1,195.3,181.1,194.6,181,194L181,194z"/>
	<path fill="#45AB6C" d="M200,255.3c-0.2,0.8-0.2,1.6,0,2.4C200,256.9,200,256.1,200,255.3z"/>
</g>
<g>
	<circle fill="#009BDB" cx="132.8" cy="76.5" r="3.3"/>
	<circle fill="#009BDB" cx="68.8" cy="140.4" r="3.3"/>
	<circle fill="#009BDB" cx="81.1" cy="110.8" r="3.3"/>
	<circle fill="#009BDB" cx="103.1" cy="88.8" r="3.3"/>
	<circle fill="#009BDB" cx="164.5" cy="76.5" r="3.3"/>
	<circle fill="#009BDB" cx="228.5" cy="140.4" r="3.3"/>
	<circle fill="#009BDB" cx="216.2" cy="110.8" r="3.3"/>
	<circle fill="#009BDB" cx="194.2" cy="88.8" r="3.3"/>
	<path fill="#009BDB" d="M183.5,152.8L183.5,152.8l-7.9-7.9v-11.2l0,0l-4.5-4.5h-11.2l-7.9-7.9h0h-3.2h0h-3.2l-7.9,7.9h-11.2
		l-4.5,4.5v11.2l-7.9,7.9v3.5h0v3.5v0l7.9,7.9V179l0,0l4.5,4.5h11.2l7.9,7.9h0h3.2h0h3.2l7.9-7.9H171l4.5-4.5v-11.2l7.9-7.9v-3.5h0
		V152.8z M173.1,131.6v10.7l-10.7-10.7H173.1z M148.6,121.5l7.6,7.6h-7.6H141L148.6,121.5z M124.2,131.6H135l-10.7,10.7V131.6z
		 M121.7,156.3v7.9l-7.6-7.9l0,0h0l0,0l7.6-7.9V156.3L121.7,156.3z M124.2,181v-10.7L135,181H124.2z M148.6,191.2l-7.6-7.6h7.6h7.6
		L148.6,191.2z M173.1,181h-10.7l10.7-10.7V181z M173.1,166.7L158.8,181h-10.1h-10.1l-14.3-14.3v-10.4v-10.4l14.3-14.3h10.1h10.1
		l14.3,14.3v10.4V166.7z M183.2,156.3l-7.6,7.9v-7.9l0,0v-7.9L183.2,156.3L183.2,156.3L183.2,156.3L183.2,156.3z"/>
	<circle fill="#009BDB" cx="164.5" cy="236.1" r="3.3"/>
	<circle fill="#009BDB" cx="228.5" cy="172.2" r="3.3"/>
	<circle fill="#009BDB" cx="216.2" cy="201.8" r="3.3"/>
	<circle fill="#009BDB" cx="194.2" cy="223.8" r="3.3"/>
	<circle fill="#009BDB" cx="132.8" cy="236.1" r="3.3"/>
	<circle fill="#009BDB" cx="68.8" cy="172.2" r="3.3"/>
	<circle fill="#009BDB" cx="81.1" cy="201.8" r="3.3"/>
	<circle fill="#009BDB" cx="103.1" cy="223.8" r="3.3"/>
</g>
<path fill="#24A29A" d="M195.7,127.7l-0.4-0.4l-2.2-2.2l-0.6-0.6L180.9,113l-0.7-0.7l-2.2-2.2l-0.3-0.3l-7.1-7.1h-8.3h0h-1.7h0h-2.8
	h0h-0.3h0h-8.9h0h-8.9h-0.3h-2.8h-1.7h-8.3l-7.1,7.1l-0.3,0.3l-2.2,2.2l-0.7,0.7l-11.6,11.6l-0.6,0.6l-2.2,2.2l-0.4,0.4l-6.2,6.2
	v9.9v0.2v3.1v1.1v8v8v1.1v3.1v0.2v9.9l6.2,6.2l0.4,0.4l2.2,2.2l0.6,0.6l11.6,11.6l0.7,0.7l2.2,2.2l0.3,0.3l7.1,7.1h8.3h1.7h2.8h0.3
	h8.9h0h8.9h0h0.3h0h2.8h0h1.7h0h8.3l7.1-7.1l0.3-0.3l2.2-2.2l0.7-0.7l11.6-11.6l0.6-0.6l2.2-2.2l0.4-0.4l6.2-6.2v-9.9v-0.2v-3.1
	v-1.1v-8v-8v-1.1v-3.1v-0.2v-9.9L195.7,127.7z M186,127.2v-2.7v-2.9l2.7,2.7l0,0c0,0,0,0,0,0l2.8,2.8c0,0,0,0,0,0l0,0l0.8,0.8l0,0
	c0,0,0,0,0,0l2.1,2.1c0,0,0,0,0,0l4.9,4.9v7.7c0,0,0,0,0,0v3c0,0,0,0,0,0v0v1.4v0c0,0,0,0,0,0v3.9c0,0,0,0,0,0v2.8l-1.5-1.5
	l-1.9-1.9l-7.4-7.4l-0.3-0.3v-2.2v-0.4c0-0.2-0.1-0.5-0.2-0.7c-0.1-0.1-0.2-0.3-0.3-0.4l-1.4-1.4l-0.4-0.4V127.2z M183.5,125.1v2.7
	c0,0,0,0,0,0v7l-4.8-4.8l-1.5-1.5l-0.3-0.3l-1.5-1.5l-5.6-5.6h8h0h2.7h0h2.9L183.5,125.1L183.5,125.1
	C183.5,125.1,183.5,125.1,183.5,125.1z M154.9,105.2L154.9,105.2h4.1h0h0.1h0h3h0h7.5l5.7,5.7l0,0c0,0,0,0,0,0l2.1,2.1c0,0,0,0,0,0
	l0.9,0.9l0,0c0,0,0,0,0,0l2.8,2.8c0,0,0,0,0,0l1.9,1.9h-2h0h-2.7h0h-10.2h0h-0.7h0l-1.4-1.4l-0.4-0.4c-0.3-0.3-0.7-0.4-1.1-0.4h-0.1
	h0h-2.5h0h0l-7-7l-1.9-1.9l-2.2-2.2H154.9z M148.6,106.7l2.9,2.9l0,0c0,0,0,0,0,0l1.9,1.9c0,0,0,0,0,0l4.8,4.8h-6.6h0h-2.6h0h-0.8
	h-2.6H139l4.8-4.8l1.9-1.9L148.6,106.7z M116.1,116.7l2.8-2.8l0.9-0.9l2.1-2.1l5.7-5.7h7.5h3h0.1h4.1h4.2l-2.2,2.2l-1.9,1.9l-7,7h0
	h-2.5h-0.1c-0.4,0-0.8,0.2-1.1,0.4l-0.4,0.4l-1.4,1.4h-0.7H119h-2.7h-2L116.1,116.7z M113.8,127.7v-2.7v-4h3h2.7h8l-5.6,5.6
	l-1.5,1.5l-0.3,0.3l-1.5,1.5l-4.8,4.8V127.7z M97.9,151.1v-3.9v-1.4v-3V135l4.9-4.9l2.1-2.1l0.8-0.8l2.8-2.8l2.7-2.7v2.9v2.7v10.1
	l-0.4,0.4l-1.4,1.4c-0.1,0.1-0.2,0.2-0.3,0.4c-0.1,0.2-0.2,0.4-0.2,0.7v0.4v2.2l-0.3,0.3l-7.4,7.4l-1.9,1.9l-1.5,1.5V151.1z
	 M99.3,156.3l2.2-2.5l1.9-1.9l5.5-5.5v7.7v1.4v0.9v0.9v1.4v7.7l-5.5-5.5l-1.9-1.9L99.3,156.3L99.3,156.3L99.3,156.3z M111.3,185.4
	v2.7v2.9l-2.7-2.7l-2.8-2.8l-0.8-0.8l-2.1-2.1l-4.9-4.9v-7.7v-3v-1.4v-3.9v-2.8l1.5,1.5l1.9,1.9l7.4,7.4l0.3,0.3v2.2v0.4
	c0,0.2,0.1,0.5,0.2,0.7c0.1,0.1,0.2,0.3,0.3,0.4l1.4,1.4l0.4,0.4V185.4z M113.8,187.5v-2.7v-7l4.8,4.8l1.5,1.5l0.3,0.3l1.5,1.5
	l5.6,5.6h-8h-2.7h-3V187.5z M142.4,207.4h-4.1h-0.1h-3h-7.5l-5.7-5.7l-2.1-2.1l-0.9-0.9l-2.8-2.8l-1.9-1.9h2h2.7h10.2h0.7l1.4,1.4
	l0.4,0.4c0.3,0.3,0.7,0.4,1.1,0.4h0.1h2.5h0l7,7l1.9,1.9l2.2,2.2H142.4z M148.6,205.9l-2.9-2.9l-1.9-1.9l-4.8-4.8h6.7h2.6h0.8h0h2.6
	h0h6.6l-4.8,4.8c0,0,0,0,0,0l-1.9,1.9c0,0,0,0,0,0l0,0L148.6,205.9z M181.2,195.9l-2.8,2.8c0,0,0,0,0,0l0,0l-0.9,0.9c0,0,0,0,0,0
	l-2.1,2.1c0,0,0,0,0,0l0,0l-5.7,5.7h-7.5h0h-3h0H159h0h-4.1h0h-4.2l2.2-2.2l1.9-1.9l7-7h0h0h2.5h0h0.1c0.4,0,0.8-0.2,1.1-0.4
	l0.4-0.4l1.4-1.4h0h0.7h0h10.2h0h2.7h0h2L181.2,195.9C181.2,195.9,181.2,195.9,181.2,195.9z M183.5,187.5
	C183.5,187.5,183.5,187.5,183.5,187.5L183.5,187.5l0,4h-2.9h0h-2.7h0h-8l5.6-5.6l1.5-1.5l0.3-0.3l1.5-1.5l4.8-4.8v7c0,0,0,0,0,0
	V187.5z M183.5,159.8L183.5,159.8l0,11.2l-7.9,7.9v0l-4.5,4.5h0l-7.9,7.9h-11.2h0h-3.2h0h-3.2h-11.2l-7.9-7.9l-4.5-4.5l-7.9-7.9
	v-11.2v-3.5v-3.5v-11.2l7.9-7.9l4.5-4.5l7.9-7.9h11.2h3.2h0h3.2h0h11.2l7.9,7.9h0l4.5,4.5v0l7.9,7.9v11.2l0,0v3.5V159.8z
	 M199.4,165.5C199.4,165.5,199.4,165.5,199.4,165.5L199.4,165.5l0,1.4v0c0,0,0,0,0,0v3c0,0,0,0,0,0v7.7l-4.9,4.9c0,0,0,0,0,0
	l-2.1,2.1c0,0,0,0,0,0l0,0l-0.8,0.8l0,0c0,0,0,0,0,0l-2.8,2.8c0,0,0,0,0,0l0,0L186,191v-2.9v-2.7v-10.1l0.4-0.4l1.4-1.4
	c0.1-0.1,0.2-0.2,0.3-0.4c0.1-0.2,0.2-0.4,0.2-0.7V172v-2.2l0.3-0.3l7.4-7.4l1.9-1.9l1.5-1.5v2.8c0,0,0,0,0,0V165.5z M198,156.3
	l-2.2,2.5c0,0,0,0,0,0l-1.9,1.9c0,0,0,0,0,0l0,0l-5.5,5.5v-7.7v-1.4v-0.9v-0.9V154v-7.7l5.5,5.5l0,0c0,0,0,0,0,0l1.9,1.9
	c0,0,0,0,0,0L198,156.3L198,156.3L198,156.3z"/>
<polygon fill="#24A29A" points="199.4,145.7 199.4,145.7 199.4,142.7 199.4,142.7 199.4,142.7 "/>
<polygon fill="#24A29A" points="177.5,113 177.5,113 175.3,110.9 175.3,110.9 177.4,113 "/>
<polygon fill="#24A29A" points="194.5,130.1 194.5,130.1 192.4,128 192.4,128 194.5,130.1 "/>
<polygon fill="#24A29A" points="183.5,127.7 183.5,127.7 183.5,125.1 183.5,125.1 183.5,127.7 "/>
<polygon fill="#24A29A" points="191.6,127.1 188.7,124.3 188.7,124.3 191.6,127.1 "/>
<polygon fill="#24A29A" points="199.4,151.1 199.4,151.1 199.4,147.1 199.4,147.1 199.4,151.1 "/>
<polygon fill="#24A29A" points="195.8,153.8 195.8,153.8 193.9,151.9 193.9,151.9 195.8,153.8 "/>
<polygon fill="#24A29A" points="153.5,111.5 153.5,111.5 151.6,109.6 151.6,109.6 153.5,111.5 "/>
<polygon fill="#24A29A" points="181.2,116.7 181.2,116.7 178.4,113.9 178.4,113.9 181.2,116.7 "/>
<polygon fill="#24A29A" points="183.5,152.8 183.5,152.8 183.5,156.3 183.5,156.3 183.5,152.8 "/>
<polygon fill="#24A29A" points="175.6,133.6 175.6,133.6 171,129.1 171,129.1 175.6,133.6 "/>
<path fill="#88A63D" d="M157.8,45.3C157.8,45.3,157.8,45.3,157.8,45.3c-0.5-0.7-0.8-1.4-0.9-2.2c0,0,0,0,0,0
	C157,43.9,157.3,44.7,157.8,45.3z"/>
<path fill="#88A63D" d="M172.5,66.4c0.7-2.3,0.8-4.6,0.4-6.9c0,0,0,0,0,0c0,0,0,0,0,0C173.3,61.8,173.2,64.1,172.5,66.4
	c-0.2,0.6-0.5,1.3-0.8,1.9c0,0,0,0,0,0c0,0,0,0,0,0C172,67.7,172.3,67,172.5,66.4z"/>
<path fill="#88A63D" d="M172,56.5c0.2,0.4,0.3,0.8,0.4,1.2c0,0,0,0,0,0C172.3,57.3,172.2,56.9,172,56.5c-0.1-0.3-0.3-0.7-0.4-1
	c0,0,0,0,0,0C171.8,55.8,171.9,56.2,172,56.5z"/>
<path fill="#88A63D" d="M187.6,49.2C187.6,49.2,187.6,49.2,187.6,49.2c1.8-2.6,2.8-5.9,3.3-8.9c0,0,0,0,0,0c0,0,0,0,0,0
	C190.4,43.4,189.4,46.7,187.6,49.2z"/>
<path fill="#88A63D" d="M182.2,53.3c-0.4,0.1-0.9,0.2-1.3,0.2C181.4,53.5,181.8,53.4,182.2,53.3c1.1-0.3,2-0.8,2.9-1.4c0,0,0,0,0,0
	C184.3,52.5,183.3,53,182.2,53.3z"/>
<path fill="#88A63D" d="M208.4,73c0,0.4,0,0.8-0.1,1.3c0,0,0,0,0,0c0,0,0,0,0,0C208.4,73.8,208.4,73.4,208.4,73
	c0-0.4,0.1-0.7,0.1-1.1c0,0,0,0,0,0C208.5,72.3,208.4,72.6,208.4,73z"/>
<path fill="#88A63D" d="M205.1,82.3c1.5-1.9,2.5-4,3-6.3c0,0,0,0,0,0c0,0,0,0,0,0C207.6,78.3,206.6,80.4,205.1,82.3
	c-0.4,0.5-0.9,1-1.4,1.4c0,0,0,0,0,0c0,0,0,0,0,0C204.2,83.3,204.6,82.8,205.1,82.3z"/>
<path fill="#88A63D" d="M200,57.3C200,57.3,200,57.3,200,57.3c-0.2-0.8-0.2-1.6,0-2.4c0,0,0,0,0,0C199.8,55.7,199.8,56.5,200,57.3z"
	/>
<g>
	<path fill="#88A63D" d="M15.8,94.1c7.8-3.2,14.1,4.3,19.6,8.7c0.5,0.4,1,0.8,1.5,1.1c2.5,1.8,5.6,3.4,8.7,4
		c1.2,0.2,2.4,0.2,3.6,0.1c1.1-0.2,2.1-0.5,3.1-1c0.8-0.4,1.4-1.1,1.9-1.9c1.3-2.1,1.5-5.1,0.1-7.1c-2.4-3.3-8.8-1.7-8.8,2.6
		c0,1.6,1.3,3.4,3,3.3c0.5,0,1-0.2,1.3-0.7c1.1-1.7-3.1-2.7-1-4.3c0.4-0.3,1-0.4,1.6-0.3c2.4,0.4,3.1,3.5,1.6,5.3
		c-0.6,0.8-1.5,1.2-2.4,1.4c-0.8,0.2-1.6,0.2-2.5,0c-1.3-0.3-2.4-0.9-3.2-1.9c-1.7-2.3-1.7-5.8,0.2-7.9c1.7-1.9,4.2-2.8,6.7-2.7
		c2,3.1,5.4,5.1,9,6c0.1,0,0.2,0,0.3,0.1c0.4,0.6,0.8,1.3,1.1,2c0.2,0.3,0.3,0.7,0.5,1c0.2,0.4,0.4,0.8,0.6,1.1
		c0.3,0.5,0.6,1,0.9,1.5c1.3,1.9,3,3.5,5.2,4.6c0.6,0.3,1.2,0.6,1.9,0.8c1.3,0.4,2.7,0.5,4,0.1c0,0,0.1,0,0.1,0
		c2.2-0.8,3.5-3.1,2.9-5.3c-0.3-1.1-0.9-2.1-1.6-3c-0.4-0.6-0.9-1-1.4-1.4c-1.9-1.5-4-2.5-6.3-3c-0.6-0.1-1.2-0.2-1.8-0.3
		c-0.4,0-0.8-0.1-1.3-0.1c-0.4,0-0.7,0-1.1-0.1c-0.7-0.1-1.5-0.1-2.2-0.3c0,0-0.1-0.1-0.1-0.1c-2.3-3-5.5-5.4-9.2-6
		c-1.1-2.3-1.2-5-0.1-7.3c1.2-2.6,4.5-3.9,7.2-3.2c1.2,0.3,2.3,1.1,3,2.2c0.5,0.7,0.8,1.5,0.9,2.3c0.1,0.9,0,1.9-0.4,2.8
		c-1.1,2-4.2,2.5-5.5,0.5c-0.3-0.5-0.5-1-0.3-1.6c0.6-2.6,3.2,0.9,4.3-0.7c0.3-0.4,0.3-1,0.1-1.4c-0.6-1.6-2.7-2.1-4.2-1.5
		c-4,1.6-3,8.2,1,9.1c2.4,0.5,5.1-0.7,6.5-2.8c0.5-0.7,0.9-1.6,1-2.5c0.1-1.1,0-2.2-0.2-3.2c-0.3-1.2-0.8-2.3-1.4-3.3
		c-1.7-2.6-4.4-4.8-7-6.5c-0.5-0.3-1.1-0.7-1.6-1C49.4,68.9,40.1,66,40,57.6c0-1.6-2.5-1.6-2.5,0c0,7.6,6.6,11.8,12.6,14.9
		c2.9,1.4,5.8,2.8,8.2,4.8c-1.6-0.1-3.3,0.2-4.9,1c-4,2.2-5.2,7.2-4.1,11.4c0.1,0.2,0.1,0.5,0.2,0.7c-0.2,0-0.4,0-0.6,0.1
		c-4.3,0.6-8.5,3.5-9,8.1c-0.2,1.8,0.2,3.5,0.9,4.9c-2.8-1.5-5.2-3.6-7.6-5.7c-5.1-4.4-11.6-8.8-18.6-6
		C13.3,92.4,14.3,94.7,15.8,94.1z M68.5,99.9c1.7,0.4,3,1.5,4.2,2.7l-2.9,4.5c-1.5-0.6-3.1-1.5-4.1-2.9c-1.1-1.5-1.7-3.2-2.6-4.9
		C65,99.5,66.8,99.5,68.5,99.9z"/>
	<path fill="#88A63D" d="M2.1,149.6c6-5.9,14.7-1.4,21.4,0.5c0.6,0.2,1.2,0.3,1.8,0.5c3,0.7,6.5,1,9.5,0.3c1.2-0.3,2.3-0.7,3.3-1.3
		c0.9-0.5,1.7-1.2,2.4-2.1c0.6-0.7,0.9-1.5,1-2.4c0.4-2.4-0.6-5.3-2.7-6.6c-3.5-2.2-8.8,1.8-7.1,5.7c0.6,1.5,2.5,2.6,4.1,1.9
		c0.5-0.2,0.8-0.6,0.9-1.1c0.4-2-3.9-1.4-2.5-3.6c0.3-0.5,0.8-0.7,1.3-0.9c2.4-0.5,4.2,2,3.5,4.2c-0.3,0.9-0.9,1.7-1.7,2.3
		c-0.7,0.5-1.4,0.8-2.3,1c-1.3,0.2-2.6,0.1-3.7-0.5c-2.5-1.4-3.8-4.7-2.8-7.4c0.9-2.5,3-4.3,5.4-5.2c3,2,6.8,2.5,10.4,2
		c0.7,0.5,1.4,1,2.1,1.6c0.3,0.2,0.6,0.5,0.8,0.7c0.3,0.3,0.6,0.6,1,0.8c0.5,0.4,1,0.7,1.5,1.1c1.9,1.3,4.1,2.1,6.5,2.3
		c0.6,0.1,1.3,0.1,2,0c2.5-0.3,5-1.6,5.3-4.3c0.1-1.1-0.1-2-0.6-2.9c-0.7-1.1-1.7-2-2.9-2.6c-0.6-0.3-1.2-0.6-1.8-0.8
		c-2.3-0.7-4.6-0.8-6.9-0.4c-0.6,0.1-1.2,0.2-1.8,0.4c-0.4,0.1-0.8,0.3-1.2,0.4c-0.3,0.1-0.7,0.2-1,0.4c-0.8,0.3-1.6,0.5-2.4,0.7
		c-3.2-1.8-6.9-2.7-10.4-2c-2-1.7-3.2-4.2-3.1-6.9c0.1-2.9,2.6-5.3,5.5-5.7c1.2-0.2,2.5,0.2,3.6,0.9c0.7,0.5,1.3,1.1,1.7,1.7
		c0.5,0.8,0.8,1.7,0.7,2.7c-0.2,2.3-2.9,3.9-4.9,2.5c-0.4-0.3-0.8-0.8-0.9-1.3c-0.4-2.6,3.3-0.4,3.7-2.3c0.1-0.5-0.1-1-0.4-1.4
		c-1.2-1.2-3.3-0.9-4.5,0.2c-3.1,3,0.3,8.7,4.4,8c2.4-0.4,4.4-2.6,5-5c0.2-0.9,0.2-1.8,0-2.7c-0.3-1.1-0.8-2.1-1.4-2.9
		c-0.7-1-1.6-1.8-2.6-2.5c-2.6-1.8-5.9-2.8-8.9-3.3c-0.6-0.1-1.3-0.2-1.9-0.3c-6.9-0.8-16.7,0-20-7.8c-0.6-1.5-2.9-0.5-2.3,1
		c2.9,7,10.6,8.4,17.4,8.9c3.2,0.2,6.4,0.4,9.4,1.3c-1.6,0.5-3,1.4-4.1,2.8c-2.9,3.5-2,8.6,0.6,12.1c0.2,0.3,0.4,0.5,0.6,0.7
		c-0.2,0.1-0.5,0.2-0.7,0.4c-3.7,2.2-6.5,6.5-5.2,10.9c0.5,1.7,1.5,3.2,2.7,4.2c-3.1-0.3-6.2-1.4-9.2-2.4
		c-6.4-2.1-14.1-3.7-19.5,1.6C-0.8,149,1,150.8,2.1,149.6z M53.2,134.6c1.7-0.3,3.4,0.3,4.9,0.9l-1,5.5c-1.6,0-3.4-0.2-4.9-1.1
		c-1.6-1-2.9-2.4-4.4-3.7C49.6,135.6,51.3,134.9,53.2,134.6z"/>
	<path fill="#88A63D" d="M98.4,18.5c7.8,3.3,6.9,13.1,7.7,20c0.1,0.6,0.2,1.2,0.3,1.9c0.5,3,1.5,6.4,3.3,8.9c0.7,1,1.5,1.9,2.5,2.6
		c0.9,0.6,1.8,1.1,2.9,1.4c0.9,0.2,1.8,0.2,2.7,0c2.4-0.6,4.6-2.6,5-5c0.7-4-5-7.4-8-4.4c-1.1,1.2-1.5,3.3-0.2,4.5
		c0.4,0.3,0.9,0.5,1.4,0.4c2-0.4-0.2-4.1,2.3-3.7c0.5,0.1,1,0.5,1.3,0.9c1.4,2-0.3,4.7-2.6,4.9c-1,0.1-1.9-0.2-2.7-0.7
		c-0.7-0.4-1.3-1-1.7-1.7c-0.7-1.1-1.1-2.4-0.9-3.6c0.4-2.8,2.8-5.3,5.7-5.5c2.9-0.1,5.5,1.2,7.2,3.5c-0.5,3.2,0.3,6.5,1.9,9.4
		c-0.2,1-0.4,2-0.8,3.1c-0.1,0.4-0.2,0.7-0.4,1.1c-0.2,0.4-0.3,0.8-0.4,1.2c-0.2,0.6-0.3,1.2-0.4,1.8c-0.4,2.3-0.3,4.6,0.4,6.9
		c0.2,0.6,0.5,1.3,0.8,1.9c0.7,1.2,1.6,2.2,2.8,2.9c1,0.5,2.2,0.6,3.2,0.4c1.1-0.2,2.1-0.7,2.8-1.6c0.9-1,1.3-2.3,1.5-3.7
		c0.1-0.7,0.1-1.4,0-2c-0.3-2.4-1-4.6-2.3-6.5c-0.3-0.5-0.7-1-1.1-1.5c-0.3-0.3-0.5-0.6-0.8-1c-0.3-0.3-0.5-0.5-0.7-0.8
		c-0.7-0.8-1.3-1.7-1.9-2.5c0.3-3.3-0.2-6.6-1.9-9.4c0.7-2.7,2.6-5,5.3-6c2.7-1,6,0.4,7.4,2.8c0.6,1.1,0.8,2.4,0.5,3.7
		c-0.2,0.8-0.5,1.6-1,2.3c-0.6,0.8-1.3,1.4-2.3,1.7c-2.2,0.7-4.7-1.2-4.2-3.5c0.1-0.5,0.4-1.1,0.9-1.3c2.2-1.4,1.6,2.9,3.6,2.5
		c0.5-0.1,0.9-0.5,1.1-0.9c0.7-1.6-0.4-3.4-1.9-4.1c-3.9-1.7-7.9,3.7-5.7,7.1c1.3,2.1,4.1,3.1,6.6,2.7c0.9-0.2,1.7-0.5,2.4-1
		c0.9-0.7,1.6-1.5,2.1-2.4c0.6-1,1-2.2,1.3-3.3c0.7-3.1,0.3-6.5-0.3-9.5c-0.1-0.6-0.3-1.3-0.5-1.8c-1.9-6.7-6.4-15.4-0.5-21.4
		c1.1-1.2-0.6-2.9-1.8-1.8c-5.3,5.4-3.7,13-1.6,19.5c1,3,2.1,6.1,2.4,9.2c-1.1-1.3-2.5-2.2-4.2-2.7c-4.4-1.3-8.8,1.4-10.9,5.2
		c-0.2,0.4-0.4,0.7-0.5,1.1c-0.3-0.3-0.6-0.6-0.9-0.8c-3.4-2.6-8.5-3.5-12.1-0.6c-1.4,1.1-2.4,2.6-2.8,4.1c-0.9-3-1.1-6.2-1.3-9.4
		c-0.5-6.8-1.9-14.4-8.9-17.4C97.8,15.5,96.9,17.8,98.4,18.5z M126.5,61c0.3-2,1.2-3.9,1.8-5.8c1.3,1.5,2.8,2.9,3.9,4.7
		c0.9,1.4,1.1,3.2,1.1,4.9l-5.9,1.2C126.8,64.4,126.2,62.7,126.5,61z"/>
	<path fill="#88A63D" d="M49.4,48.1c8.4,0.1,11.4,9.4,14.8,15.5c0.3,0.5,0.6,1.1,1,1.6c1.7,2.6,3.8,5.3,6.5,7c1,0.7,2.1,1.1,3.3,1.4
		c1,0.3,2.1,0.3,3.2,0.2c0.9-0.1,1.7-0.5,2.5-1c2-1.4,3.3-4.2,2.8-6.5c-0.9-4-7.5-4.9-9.1-1c-0.6,1.5-0.1,3.6,1.5,4.2
		c0.5,0.2,1,0.2,1.4-0.1c1.7-1.1-1.8-3.7,0.7-4.3c0.5-0.1,1.1,0,1.6,0.3c2,1.3,1.5,4.4-0.5,5.5c-0.9,0.5-1.8,0.6-2.8,0.4
		c-0.8-0.1-1.6-0.5-2.3-0.9c-1.1-0.7-1.9-1.8-2.2-3c-0.7-2.8,0.6-6,3.2-7.2c2.4-1.1,5.2-1,7.5,0.2c0.7,3.5,3,6.6,5.9,8.8
		c0,0,0,0,0,0c0.2,0.8,0.3,1.7,0.3,2.6c0,0.4,0.1,0.7,0.1,1.1c0,0.4,0,0.8,0.1,1.3c0.1,0.6,0.2,1.2,0.3,1.8c0.5,2.3,1.5,4.4,3,6.3
		c0.4,0.5,0.9,1,1.4,1.4c1.1,0.9,2.3,1.5,3.7,1.6c2.2,0.2,4.6-1.5,4.7-3.4c0.4-1.2,0.3-2.6-0.1-3.8c-0.2-0.7-0.4-1.3-0.8-1.9
		c-1.2-2.1-2.7-3.8-4.6-5.2c-0.5-0.3-1-0.7-1.5-0.9c-0.4-0.2-0.7-0.4-1.1-0.6c-0.3-0.2-0.7-0.3-1-0.5c-0.7-0.4-1.5-0.8-2.2-1.2
		c-1-3.5-3-6.8-5.9-8.8c-0.2-2.6,0.7-5.3,2.7-7.1c2.1-1.9,5.7-1.9,7.9-0.2c1,0.8,1.6,1.9,1.9,3.2c0.2,0.8,0.2,1.7,0,2.5
		c-0.2,0.9-0.7,1.8-1.5,2.4c-1.8,1.5-4.8,0.7-5.3-1.6c-0.1-0.5,0-1.1,0.3-1.6c1.5-2.1,2.6,2,4.2,1c0.4-0.3,0.6-0.8,0.7-1.3
		c0-1.7-1.7-3-3.3-3c-4.3,0-5.9,6.4-2.6,8.8c2,1.4,5,1.3,7.1-0.1c0.8-0.5,1.4-1.1,1.9-1.9c0.6-1,0.9-2,1-3.1
		c0.2-1.2,0.1-2.4-0.1-3.6c-0.5-3.1-2.2-6.1-4-8.7c-0.4-0.5-0.8-1-1.1-1.5c-4.3-5.5-11.8-11.8-8.6-19.6c0.6-1.5-1.7-2.5-2.3-1
		c-2.9,7,1.5,13.5,6,18.6c2.1,2.4,4.2,4.8,5.7,7.6c-1.4-0.8-3.1-1.1-4.9-0.9c-4.6,0.4-7.5,4.7-8.1,9c0,0.3-0.1,0.6-0.1,0.9
		c-0.2-0.1-0.5-0.2-0.7-0.2c-4.2-1.1-9.2,0-11.4,4.1c-0.8,1.6-1.2,3.3-1,4.9c-2-2.5-3.4-5.3-4.8-8.2c-3-6.1-7.3-12.6-14.9-12.6
		C47.8,45.6,47.8,48.1,49.4,48.1z M96.2,73.6c1.4,1,2.2,2.6,2.8,4.1l-4.6,3.2c-1.2-1.2-2.3-2.5-2.7-4.2c-0.4-1.9-0.4-3.8-0.5-5.7
		C92.9,71.8,94.6,72.5,96.2,73.6z"/>
	<path fill="#88A63D" d="M240.2,73.3c-2.6,1.7-5.3,3.8-7,6.5c-0.7,1-1.1,2.1-1.4,3.3c-0.3,1-0.3,2.1-0.2,3.2c0.1,0.9,0.5,1.7,1,2.5
		c1.4,2,4.2,3.3,6.5,2.8c4-0.9,4.9-7.5,1-9.1c-1.5-0.6-3.6-0.1-4.2,1.5c-0.2,0.5-0.2,1,0.1,1.4c1.1,1.7,3.7-1.8,4.3,0.7
		c0.1,0.5,0,1.1-0.3,1.6c-1.3,2-4.4,1.5-5.5-0.5c-0.5-0.9-0.6-1.8-0.4-2.8c0,0,0,0,0,0c0,0,0,0,0,0c0.1-0.8,0.5-1.6,0.9-2.3
		c0,0,0,0,0,0c0,0,0,0,0,0c0.7-1.1,1.8-1.9,3-2.2c2.8-0.7,6,0.6,7.2,3.2c1.1,2.4,1,5.1-0.1,7.3c-3.7,0.6-6.9,3-9.2,6
		c0,0-0.1,0.1-0.1,0.1c-0.7,0.1-1.4,0.2-2.2,0.3c-0.4,0-0.7,0.1-1.1,0.1c-0.4,0-0.8,0-1.3,0.1c-0.6,0.1-1.2,0.2-1.8,0.3
		c-2.3,0.5-4.4,1.5-6.3,3c-0.5,0.4-1,0.9-1.4,1.4c-0.7,0.9-1.3,1.9-1.6,3c-0.6,2.2,0.7,4.6,2.9,5.3c0,0,0.1,0,0.1,0
		c1.3,0.4,2.7,0.3,4-0.1c0,0,0,0,0,0c0.7-0.2,1.3-0.5,1.9-0.8c2.1-1.2,3.8-2.7,5.2-4.6c0,0,0,0,0,0c0.3-0.5,0.7-1,0.9-1.5
		c0,0,0,0,0,0c0.2-0.4,0.4-0.7,0.6-1.1c0.2-0.3,0.3-0.7,0.5-1c0,0,0,0,0,0c0,0,0,0,0,0c0.4-0.7,0.7-1.4,1.1-2c0.1,0,0.2,0,0.3-0.1
		c3.6-1,7-3,9-6c2.5-0.1,5,0.8,6.7,2.7c1.9,2.1,1.9,5.6,0.2,7.9c-0.8,1-1.9,1.6-3.2,1.9c-0.4,0.1-0.8,0.1-1.2,0.1
		c-0.4,0-0.8,0-1.2-0.1c0,0,0,0,0,0c-0.9-0.2-1.8-0.7-2.4-1.4c-1.5-1.8-0.7-4.8,1.6-5.3c0.5-0.1,1.1,0,1.6,0.3c2.1,1.5-2,2.6-1,4.3
		c0.3,0.4,0.8,0.6,1.3,0.7c1.7,0,3-1.7,3-3.3c0-4.3-6.4-5.9-8.8-2.6c-1.4,2-1.3,5,0.1,7.1c0.5,0.8,1.1,1.4,1.9,1.9
		c1,0.5,2,0.9,3.1,1c1.2,0.2,2.4,0.1,3.6-0.1c0,0,0,0,0,0c0,0,0,0,0,0c3.1-0.5,6.1-2.2,8.7-4c0,0,0,0,0,0c0.5-0.4,1-0.8,1.5-1.1
		c5.5-4.3,11.8-11.8,19.6-8.7c1.5,0.6,2.5-1.7,1-2.3c-7-2.8-13.5,1.6-18.6,6c-2.4,2.1-4.8,4.2-7.6,5.7c0.8-1.4,1.1-3.1,0.9-4.9
		c-0.5-4.6-4.7-7.5-9-8.1c-0.2,0-0.4,0-0.6-0.1c0.1-0.2,0.2-0.5,0.2-0.7c1.1-4.2,0-9.2-4.1-11.4c-1.6-0.8-3.3-1.2-4.9-1
		c2.5-2,5.3-3.4,8.2-4.8c6.1-3,12.6-7.3,12.6-14.9c0-1.6-2.5-1.6-2.5,0c-0.1,8.4-9.4,11.4-15.5,14.8C241.3,72.6,240.7,73,240.2,73.3
		z M231.5,104.3c-1,1.4-2.6,2.2-4.1,2.9l-2.9-4.5c1.2-1.2,2.5-2.3,4.2-2.7c1.8-0.4,3.5-0.4,5.3-0.5
		C233.3,101,232.6,102.8,231.5,104.3z"/>
	<path fill="#88A63D" d="M264.8,114.4c-3,0.5-6.4,1.5-8.9,3.3c-1,0.7-1.9,1.5-2.6,2.5c-0.6,0.9-1.1,1.8-1.4,2.9
		c-0.2,0.9-0.2,1.8,0,2.7c0.6,2.4,2.6,4.6,5,5c4,0.7,7.4-5,4.4-8c-1.2-1.1-3.3-1.5-4.5-0.2c-0.3,0.4-0.5,0.9-0.4,1.4
		c0.4,2,4.1-0.3,3.7,2.3c-0.1,0.5-0.5,1-0.9,1.3c-2,1.4-4.7-0.3-4.9-2.5c-0.1-1,0.2-1.9,0.7-2.7c0,0,0,0,0,0c0,0,0,0,0,0
		c0.4-0.7,1-1.3,1.7-1.7c0,0,0,0,0,0c0,0,0,0,0,0c1.1-0.7,2.4-1.1,3.6-0.9c2.8,0.4,5.3,2.8,5.5,5.7c0.1,2.7-1.1,5.2-3.1,6.9
		c-3.5-0.7-7.3,0.2-10.4,2c-0.8-0.2-1.6-0.4-2.4-0.7c0,0,0,0,0,0c0,0,0,0,0,0c-0.3-0.1-0.7-0.2-1-0.4c-0.4-0.2-0.8-0.3-1.2-0.4l0,0
		c-0.6-0.2-1.2-0.3-1.7-0.4c0,0,0,0,0,0c0,0,0,0,0,0c-1.1-0.2-2.3-0.3-3.4-0.2c-1.2,0.1-2.3,0.3-3.5,0.6c-0.6,0.2-1.2,0.5-1.8,0.8
		c-1.1,0.6-2.2,1.5-2.9,2.6c-0.5,0.9-0.8,1.8-0.6,2.9c0.4,2.7,2.8,4,5.3,4.3c0.3,0,0.7,0.1,1,0.1c0.3,0,0.7,0,1,0
		c2.4-0.3,4.6-1,6.5-2.3c0,0,0,0,0,0c0.5-0.3,1-0.7,1.5-1c0,0,0,0,0,0c0.3-0.3,0.6-0.5,1-0.8c0.3-0.3,0.6-0.5,0.8-0.7c0,0,0,0,0,0
		c0,0,0,0,0,0c0.7-0.6,1.3-1.1,2.1-1.6c3.6,0.5,7.4-0.1,10.4-2c2.5,0.8,4.5,2.6,5.4,5.2c1,2.7-0.4,6-2.8,7.4
		c-1.1,0.6-2.4,0.8-3.7,0.5c0,0,0,0,0,0c0,0,0,0,0,0c-0.8-0.2-1.6-0.5-2.3-1c0,0,0,0,0,0c0,0,0,0,0,0c-0.8-0.6-1.4-1.3-1.7-2.3
		c-0.7-2.2,1.2-4.7,3.5-4.2c0.5,0.1,1.1,0.4,1.3,0.9c1.4,2.2-2.9,1.6-2.5,3.6c0.1,0.5,0.5,0.9,0.9,1.1c1.6,0.7,3.4-0.4,4.1-1.9
		c1.7-3.9-3.7-7.9-7.1-5.7c-2.1,1.3-3.1,4.1-2.7,6.6c0.2,0.9,0.5,1.7,1,2.4c0.7,0.9,1.5,1.6,2.4,2.1c1,0.6,2.2,1,3.3,1.3
		c1.1,0.3,2.3,0.4,3.6,0.4c2,0,4.1-0.3,6-0.7c0,0,0,0,0,0c0,0,0,0,0,0c0.6-0.1,1.3-0.3,1.8-0.5c6.7-1.9,15.4-6.4,21.4-0.5
		c1.2,1.1,2.9-0.6,1.8-1.8c-5.4-5.3-13-3.7-19.5-1.6c-3,1-6.1,2.1-9.2,2.4c1.3-1.1,2.2-2.5,2.7-4.2c1.3-4.4-1.4-8.8-5.2-10.9
		c-0.2-0.1-0.5-0.2-0.7-0.4c0.2-0.2,0.4-0.5,0.6-0.7c2.6-3.4,3.5-8.5,0.6-12.1c-1.1-1.4-2.6-2.4-4.1-2.8c3-0.9,6.2-1.1,9.4-1.3
		c6.8-0.5,14.4-2,17.4-8.9c0.6-1.5-1.7-2.5-2.3-1c-3.3,7.8-13.1,6.9-20,7.8C266.1,114.2,265.4,114.3,264.8,114.4z M245.1,139.9
		c-1.4,0.9-3.2,1.1-4.9,1.1l-1-5.5c1.5-0.6,3.2-1.2,4.9-0.9c1.8,0.3,3.6,1.1,5.3,1.7C248,137.5,246.7,138.9,245.1,139.9z"/>
	<path fill="#88A63D" d="M155.3,45.9c0.5,0.9,1.2,1.7,2.1,2.4c0.7,0.6,1.5,0.9,2.4,1c2.4,0.4,5.3-0.6,6.6-2.7
		c2.2-3.5-1.8-8.8-5.7-7.1c-1.5,0.6-2.6,2.5-1.9,4.1c0.2,0.5,0.6,0.8,1.1,0.9c2,0.4,1.4-3.9,3.6-2.5c0.5,0.3,0.7,0.8,0.9,1.3
		c0.5,2.4-2,4.2-4.2,3.5c-0.9-0.3-1.7-0.9-2.3-1.7c0,0,0,0,0,0c0,0,0,0,0,0c-0.5-0.7-0.8-1.4-1-2.3c0,0,0,0,0,0c0,0,0,0,0,0
		c-0.2-1.3-0.1-2.6,0.5-3.7c1.4-2.5,4.7-3.8,7.4-2.8c2.7,1,4.6,3.3,5.3,6c-1.7,2.7-2.2,6.1-1.9,9.4c-0.6,0.9-1.2,1.7-1.9,2.5
		c-0.2,0.3-0.5,0.6-0.7,0.8c-0.3,0.3-0.6,0.6-0.8,1c-0.4,0.5-0.7,1-1.1,1.5c-1.3,1.9-2.1,4.1-2.3,6.5c-0.1,0.7-0.1,1.4,0,2
		c0.1,1.4,0.6,2.7,1.5,3.7c0.7,0.8,1.8,1.4,2.8,1.6c1.1,0.2,2.2,0.1,3.2-0.4c1.2-0.6,2.1-1.7,2.8-2.9c0,0,0,0,0,0
		c0.3-0.6,0.6-1.2,0.8-1.9c0.7-2.3,0.8-4.6,0.4-6.9c0,0,0,0,0,0c-0.1-0.6-0.2-1.2-0.4-1.7l0,0c0,0,0,0,0,0c-0.1-0.4-0.3-0.8-0.4-1.2
		c-0.1-0.3-0.3-0.7-0.4-1.1c0,0,0,0,0,0c0,0,0,0,0,0c-0.3-1-0.6-2-0.8-3.1c1.5-2.9,2.3-6.2,1.9-9.4c1.7-2.2,4.3-3.6,7.2-3.5
		c2.9,0.1,5.4,2.6,5.7,5.5c0.2,1.2-0.2,2.5-0.9,3.6c-0.5,0.7-1,1.3-1.7,1.7c-0.8,0.5-1.7,0.8-2.7,0.7c-2.3-0.2-3.9-2.9-2.6-4.9
		c0.3-0.4,0.8-0.8,1.3-0.9c2.6-0.4,0.4,3.3,2.3,3.7c0.5,0.1,1-0.1,1.4-0.4c1.2-1.2,0.9-3.3-0.2-4.5c-3-3-8.7,0.4-8,4.4
		c0.4,2.4,2.6,4.4,5,5c0.4,0.1,0.9,0.2,1.3,0.2c0.4,0,0.9-0.1,1.3-0.2c1.1-0.3,2.1-0.8,2.9-1.4c0,0,0,0,0,0c0,0,0,0,0,0
		c1-0.7,1.8-1.6,2.5-2.6c0,0,0,0,0,0c0,0,0,0,0,0c1.8-2.6,2.8-5.9,3.3-8.9c0,0,0,0,0,0c0.1-0.6,0.2-1.3,0.3-1.9
		c0.8-6.9,0-16.7,7.7-20c1.5-0.6,0.5-2.9-1-2.3c-7,2.9-8.4,10.6-8.9,17.4c-0.2,3.2-0.4,6.4-1.3,9.4c-0.5-1.6-1.5-3-2.8-4.1
		c-3.6-2.9-8.6-2-12.1,0.6c-0.3,0.3-0.6,0.5-0.9,0.8c-0.2-0.4-0.3-0.7-0.5-1.1c-2.2-3.7-6.5-6.5-10.9-5.2c-1.7,0.5-3.2,1.5-4.2,2.7
		c0.3-3.1,1.4-6.2,2.4-9.2c2.1-6.4,3.7-14.1-1.6-19.5c-1.1-1.2-2.9,0.6-1.8,1.8c5.9,6,1.4,14.7-0.5,21.4c-0.2,0.6-0.3,1.2-0.5,1.8
		c-0.7,3-1,6.5-0.3,9.5C154.3,43.8,154.7,44.9,155.3,45.9z M169.9,65.9l-5.9-1.2c0-1.6,0.2-3.4,1.1-4.9c1.1-1.7,2.6-3.1,3.9-4.7
		c0.6,1.9,1.5,3.8,1.8,5.8C171.1,62.7,170.5,64.4,169.9,65.9z"/>
	<path fill="#88A63D" d="M197.5,56.9c0.2,1.1,0.5,2.1,1,3.1c0.4,0.8,1.1,1.4,1.9,1.9c2.1,1.3,5.1,1.5,7.1,0.1
		c3.3-2.4,1.7-8.8-2.6-8.8c-1.6,0-3.4,1.3-3.3,3c0,0.5,0.2,1,0.7,1.3c1.7,1.1,2.7-3.1,4.2-1c0.3,0.4,0.4,1,0.3,1.6
		c-0.4,2.4-3.5,3.1-5.3,1.6c-0.8-0.6-1.2-1.5-1.5-2.4c0,0,0,0,0,0c0,0,0,0,0,0c-0.2-0.8-0.2-1.6,0-2.5c0,0,0,0,0,0c0,0,0,0,0,0
		c0.3-1.3,0.9-2.4,1.9-3.2c2.3-1.7,5.8-1.8,7.9,0.2c2,1.8,2.9,4.5,2.7,7.1c-3,2-5,5.3-5.9,8.8c-0.7,0.4-1.4,0.8-2.2,1.2
		c-0.3,0.2-0.6,0.3-1,0.5c-0.4,0.2-0.8,0.4-1.1,0.6c-0.5,0.3-1,0.6-1.5,0.9c-1.9,1.3-3.5,3-4.6,5.2c-0.3,0.6-0.6,1.2-0.8,1.9
		c-0.4,1.3-0.5,2.6-0.1,3.8c0.1,1.9,2.5,3.6,4.7,3.4c1.3-0.1,2.6-0.7,3.6-1.6c0,0,0,0,0,0c0.5-0.4,1-0.9,1.4-1.4
		c1.5-1.9,2.5-4,3-6.3c0,0,0,0,0,0c0.1-0.6,0.2-1.2,0.3-1.8c0,0,0,0,0,0c0-0.4,0.1-0.8,0.1-1.3c0-0.4,0-0.7,0.1-1.1c0,0,0,0,0,0
		c0,0,0,0,0,0c0.1-0.9,0.2-1.7,0.3-2.6c0,0,0,0,0,0c2.9-2.2,5.2-5.3,5.9-8.8c2.3-1.2,5-1.3,7.5-0.2c2.6,1.2,3.9,4.5,3.2,7.2
		c-0.3,1.2-1.1,2.3-2.2,3c-0.7,0.5-1.5,0.8-2.3,0.9c-0.9,0.1-1.9,0-2.8-0.4c-2-1.1-2.5-4.2-0.5-5.5c0.5-0.3,1-0.5,1.6-0.3
		c2.6,0.6-0.9,3.2,0.7,4.3c0.4,0.3,1,0.3,1.4,0.1c1.6-0.6,2.1-2.7,1.5-4.2c-1.6-4-8.2-3-9.1,1c-0.5,2.4,0.7,5.1,2.8,6.5
		c0.7,0.5,1.6,0.9,2.5,1c0.3,0,0.6,0,0.8,0.1c0.8,0,1.6-0.1,2.4-0.3c0,0,0,0,0,0c0,0,0,0,0,0c1.2-0.3,2.3-0.8,3.3-1.4c0,0,0,0,0,0
		c0,0,0,0,0,0c2.6-1.7,4.8-4.4,6.5-7c0,0,0,0,0,0c0.3-0.5,0.7-1.1,1-1.6c3.4-6.1,6.4-15.4,14.8-15.5c1.6,0,1.6-2.5,0-2.5
		c-7.6,0-11.8,6.6-14.9,12.6c-1.4,2.9-2.8,5.8-4.8,8.2c0.1-1.6-0.2-3.3-1-4.9c-2.2-4-7.2-5.2-11.4-4.1c-0.3,0.1-0.5,0.2-0.7,0.2
		c0-0.3,0-0.6-0.1-0.9c-0.6-4.3-3.5-8.5-8.1-9c-1.8-0.2-3.5,0.2-4.9,0.9c1.5-2.8,3.6-5.2,5.7-7.6c4.4-5.1,8.8-11.6,6-18.6
		c-0.6-1.5-2.9-0.5-2.3,1c3.2,7.8-4.3,14.1-8.6,19.6c-0.4,0.5-0.8,1-1.1,1.5c-1.8,2.5-3.4,5.6-4,8.7
		C197.3,54.5,197.3,55.7,197.5,56.9z M205.5,76.7c-0.4,1.7-1.5,3-2.7,4.2l-4.6-3.2c0.6-1.5,1.5-3.1,2.8-4.1c1.5-1.1,3.3-1.8,4.9-2.6
		C205.9,72.9,206,74.8,205.5,76.7z"/>
	<path fill="#88A63D" d="M57.1,239.3c2.6-1.6,5.3-3.8,7-6.5c0.7-1,1.1-2.1,1.4-3.3c0.3-1,0.3-2.1,0.2-3.2c-0.1-0.9-0.5-1.7-1-2.5
		c-1.4-2-4.2-3.3-6.5-2.8c-4,0.9-4.9,7.5-1,9.1c1.5,0.6,3.6,0.1,4.2-1.5c0.2-0.5,0.2-1-0.1-1.4c-1.1-1.7-3.7,1.8-4.3-0.7
		c-0.1-0.5,0-1.1,0.3-1.6c1.3-2,4.4-1.5,5.5,0.5c0.5,0.9,0.6,1.8,0.4,2.8c-0.1,0.8-0.5,1.6-0.9,2.3c-0.7,1.1-1.8,1.9-3,2.2
		c-2.8,0.7-6-0.6-7.2-3.2c-1.1-2.4-1-5.1,0.1-7.3c3.7-0.6,6.9-3,9.2-6c0,0,0.1-0.1,0.1-0.1c0.7-0.1,1.4-0.2,2.2-0.3
		c0.4,0,0.7-0.1,1.1-0.1c0.4,0,0.8,0,1.3-0.1c0.6-0.1,1.2-0.2,1.8-0.3c2.3-0.5,4.4-1.5,6.3-3c0.5-0.4,1-0.9,1.4-1.4
		c0.7-0.9,1.3-1.9,1.6-3c0.6-2.2-0.7-4.6-2.9-5.3c0,0-0.1,0-0.1,0c-1.3-0.4-2.7-0.3-4,0.1c-0.7,0.2-1.3,0.5-1.9,0.8
		c-2.1,1.2-3.8,2.7-5.2,4.6c-0.3,0.5-0.7,1-0.9,1.5c-0.2,0.4-0.4,0.7-0.6,1.1c-0.2,0.3-0.3,0.7-0.5,1c-0.4,0.7-0.7,1.4-1.1,2
		c-0.1,0-0.2,0-0.3,0.1c-3.6,1-7,3-9,6c-2.5,0.1-5-0.8-6.7-2.7c-1.9-2.1-1.9-5.6-0.2-7.9c0.8-1,1.9-1.6,3.2-1.9
		c0.8-0.2,1.7-0.2,2.5,0c0.9,0.2,1.8,0.7,2.4,1.4c1.5,1.8,0.7,4.8-1.6,5.3c-0.5,0.1-1.1,0-1.6-0.3c-2.1-1.5,2-2.6,1-4.3
		c-0.3-0.4-0.8-0.6-1.3-0.7c-1.7,0-3,1.7-3,3.3c0,4.3,6.4,5.9,8.8,2.6c1.4-2,1.3-5-0.1-7.1c-0.5-0.8-1.1-1.4-1.9-1.9
		c-1-0.5-2-0.9-3.1-1c-1.2-0.2-2.4-0.1-3.6,0.1c-3.1,0.5-6.1,2.2-8.7,4c-0.5,0.4-1,0.8-1.5,1.1c-5.5,4.3-11.8,11.8-19.6,8.7
		c-1.5-0.6-2.5,1.7-1,2.3c7,2.8,13.5-1.6,18.6-6c2.4-2.1,4.8-4.2,7.6-5.7c-0.8,1.4-1.1,3.1-0.9,4.9c0.5,4.6,4.7,7.5,9,8.1
		c0.2,0,0.4,0,0.6,0.1c-0.1,0.2-0.2,0.5-0.2,0.7c-1.1,4.2,0,9.2,4.1,11.4c1.6,0.8,3.3,1.2,4.9,1c-2.5,2-5.3,3.4-8.2,4.8
		c-6.1,3-12.6,7.3-12.6,14.9c0,1.6,2.5,1.6,2.5,0c0.1-8.4,9.4-11.4,15.5-14.8C56,240,56.6,239.6,57.1,239.3z M65.8,208.3
		c1-1.4,2.6-2.2,4.1-2.9l2.9,4.5c-1.2,1.2-2.5,2.3-4.2,2.7c-1.8,0.4-3.5,0.4-5.3,0.5C64,211.6,64.7,209.9,65.8,208.3z"/>
	<path fill="#88A63D" d="M32.5,198.2c3-0.5,6.4-1.5,8.9-3.3c1-0.7,1.9-1.5,2.6-2.5c0.6-0.9,1.1-1.8,1.4-2.9c0.2-0.9,0.2-1.8,0-2.7
		c-0.6-2.4-2.6-4.6-5-5c-4-0.7-7.4,5-4.4,8c1.2,1.1,3.3,1.5,4.5,0.2c0.3-0.4,0.5-0.9,0.4-1.4c-0.4-2-4.1,0.3-3.7-2.3
		c0.1-0.5,0.5-1,0.9-1.3c2-1.4,4.7,0.3,4.9,2.5c0.1,1-0.2,1.9-0.7,2.7c-0.4,0.7-1,1.3-1.7,1.7c-1.1,0.7-2.4,1.1-3.6,0.9
		c-2.8-0.4-5.3-2.8-5.5-5.7c-0.1-2.7,1.1-5.2,3.1-6.9c3.5,0.7,7.3-0.2,10.4-2c0.8,0.2,1.6,0.4,2.4,0.7c0.3,0.1,0.7,0.2,1,0.4
		c0.4,0.2,0.8,0.3,1.2,0.4c0.6,0.2,1.2,0.3,1.8,0.4c2.3,0.4,4.6,0.3,6.9-0.4c0.6-0.2,1.2-0.5,1.8-0.8c1.1-0.6,2.2-1.5,2.9-2.6
		c0.5-0.9,0.8-1.8,0.6-2.9c-0.4-2.7-2.8-4-5.3-4.3c-0.7-0.1-1.4-0.1-2,0c-2.4,0.3-4.6,1-6.5,2.3c-0.5,0.3-1,0.7-1.5,1.1
		c-0.3,0.3-0.6,0.5-1,0.8c-0.3,0.3-0.6,0.5-0.8,0.7c-0.7,0.6-1.3,1.1-2.1,1.6c-3.6-0.5-7.4,0.1-10.4,2c-2.5-0.8-4.5-2.6-5.4-5.2
		c-1-2.7,0.4-6,2.8-7.4c1.1-0.6,2.4-0.8,3.7-0.5c0.8,0.2,1.6,0.5,2.3,1c0.8,0.6,1.4,1.3,1.7,2.3c0.7,2.2-1.2,4.7-3.5,4.2
		c-0.5-0.1-1.1-0.4-1.3-0.9c-1.4-2.2,2.9-1.6,2.5-3.6c-0.1-0.5-0.5-0.9-0.9-1.1c-1.6-0.7-3.4,0.4-4.1,1.9c-1.7,3.9,3.7,7.9,7.1,5.7
		c2.1-1.3,3.1-4.1,2.7-6.6c-0.2-0.9-0.5-1.7-1-2.4c-0.7-0.9-1.5-1.6-2.4-2.1c-1-0.6-2.2-1-3.3-1.3c-3.1-0.7-6.5-0.3-9.5,0.3
		c-0.6,0.1-1.3,0.3-1.8,0.5c-6.7,1.9-15.4,6.4-21.4,0.5c-1.2-1.1-2.9,0.6-1.8,1.8c5.4,5.3,13,3.7,19.5,1.6c3-1,6.1-2.1,9.2-2.4
		c-1.3,1.1-2.2,2.5-2.7,4.2c-1.3,4.4,1.4,8.8,5.2,10.9c0.2,0.1,0.5,0.2,0.7,0.4c-0.2,0.2-0.4,0.5-0.6,0.7c-2.6,3.4-3.5,8.5-0.6,12.1
		c1.1,1.4,2.6,2.4,4.1,2.8c-3,0.9-6.2,1.1-9.4,1.3c-6.8,0.5-14.4,2-17.4,8.9c-0.6,1.5,1.7,2.5,2.3,1c3.3-7.8,13.1-6.9,20-7.8
		C31.2,198.4,31.9,198.3,32.5,198.2z M52.2,172.7c1.4-0.9,3.2-1.1,4.9-1.1l1,5.5c-1.5,0.6-3.2,1.2-4.9,0.9c-1.8-0.3-3.6-1.1-5.3-1.7
		C49.3,175.1,50.6,173.7,52.2,172.7z"/>
	<path fill="#88A63D" d="M142,266.7c-0.5-0.9-1.2-1.7-2.1-2.4c-0.7-0.6-1.5-0.9-2.4-1c-2.4-0.4-5.3,0.6-6.6,2.7
		c-2.2,3.5,1.8,8.8,5.7,7.1c1.5-0.6,2.6-2.5,1.9-4.1c-0.2-0.5-0.6-0.8-1.1-0.9c-2-0.4-1.4,3.9-3.6,2.5c-0.5-0.3-0.7-0.8-0.9-1.3
		c-0.5-2.4,2-4.2,4.2-3.5c0.9,0.3,1.7,0.9,2.3,1.7c0.5,0.7,0.8,1.4,1,2.3c0.2,1.3,0.1,2.6-0.5,3.7c-1.4,2.5-4.7,3.8-7.4,2.8
		c-2.7-1-4.6-3.3-5.3-6c1.7-2.7,2.2-6.1,1.9-9.4c0.6-0.9,1.2-1.7,1.9-2.5c0.2-0.3,0.5-0.6,0.7-0.8c0.3-0.3,0.6-0.6,0.8-1
		c0.4-0.5,0.7-1,1.1-1.5c1.3-1.9,2.1-4.1,2.3-6.5c0.1-0.7,0.1-1.4,0-2c-0.1-1.4-0.6-2.7-1.5-3.7c-0.7-0.8-1.8-1.4-2.8-1.6
		c-1.1-0.2-2.2-0.1-3.2,0.4c-1.2,0.6-2.1,1.7-2.8,2.9c-0.3,0.6-0.6,1.2-0.8,1.9c-0.7,2.3-0.8,4.6-0.4,6.9c0.1,0.6,0.2,1.2,0.4,1.8
		c0.1,0.4,0.3,0.8,0.4,1.2c0.1,0.3,0.3,0.7,0.4,1.1c0.3,1,0.6,2,0.8,3.1c-1.5,2.9-2.3,6.2-1.9,9.4c-1.7,2.2-4.3,3.6-7.2,3.5
		c-2.9-0.1-5.4-2.6-5.7-5.5c-0.2-1.2,0.2-2.5,0.9-3.6c0.5-0.7,1-1.3,1.7-1.7c0.8-0.5,1.7-0.8,2.7-0.7c2.3,0.2,3.9,2.9,2.6,4.9
		c-0.3,0.4-0.8,0.8-1.3,0.9c-2.6,0.4-0.4-3.3-2.3-3.7c-0.5-0.1-1,0.1-1.4,0.4c-1.2,1.2-0.9,3.3,0.2,4.5c3,3,8.7-0.4,8-4.4
		c-0.4-2.4-2.6-4.4-5-5c-0.9-0.2-1.8-0.2-2.7,0c-1.1,0.3-2.1,0.8-2.9,1.4c-1,0.7-1.8,1.6-2.5,2.6c-1.8,2.6-2.8,5.9-3.3,8.9
		c-0.1,0.6-0.2,1.3-0.3,1.9c-0.8,6.9,0,16.7-7.7,20c-1.5,0.6-0.5,2.9,1,2.3c7-2.9,8.4-10.6,8.9-17.4c0.2-3.2,0.4-6.4,1.3-9.4
		c0.5,1.6,1.5,3,2.8,4.1c3.6,2.9,8.6,2,12.1-0.6c0.3-0.3,0.6-0.5,0.9-0.8c0.2,0.4,0.3,0.7,0.5,1.1c2.2,3.7,6.5,6.5,10.9,5.2
		c1.7-0.5,3.2-1.5,4.2-2.7c-0.3,3.1-1.4,6.2-2.4,9.2c-2.1,6.4-3.7,14.1,1.6,19.5c1.1,1.2,2.9-0.6,1.8-1.8c-5.9-6-1.4-14.7,0.5-21.4
		c0.2-0.6,0.3-1.2,0.5-1.8c0.7-3,1-6.5,0.3-9.5C143,268.8,142.6,267.7,142,266.7z M127.4,246.7l5.9,1.2c0,1.6-0.2,3.4-1.1,4.9
		c-1.1,1.7-2.6,3.1-3.9,4.7c-0.6-1.9-1.5-3.8-1.8-5.8C126.2,249.9,126.8,248.2,127.4,246.7z"/>
	<path fill="#88A63D" d="M99.8,255.7c-0.2-1.1-0.5-2.1-1-3.1c-0.4-0.8-1.1-1.4-1.9-1.9c-2.1-1.3-5.1-1.5-7.1-0.1
		c-3.3,2.4-1.7,8.8,2.6,8.8c1.6,0,3.4-1.3,3.3-3c0-0.5-0.2-1-0.7-1.3c-1.7-1.1-2.7,3.1-4.2,1c-0.3-0.4-0.4-1-0.3-1.6
		c0.4-2.4,3.5-3.1,5.3-1.6c0.8,0.6,1.2,1.5,1.5,2.4c0.2,0.8,0.2,1.6,0,2.5c-0.3,1.3-0.9,2.4-1.9,3.2c-2.3,1.7-5.8,1.8-7.9-0.2
		c-2-1.8-2.9-4.5-2.7-7.1c3-2,5-5.3,5.9-8.8c0.7-0.4,1.4-0.8,2.2-1.2c0.3-0.2,0.6-0.3,1-0.5c0.4-0.2,0.8-0.4,1.1-0.6
		c0.5-0.3,1-0.6,1.5-0.9c1.9-1.3,3.5-3,4.6-5.2c0.3-0.6,0.6-1.2,0.8-1.9c0.4-1.3,0.5-2.6,0.1-3.8c-0.1-1.9-2.5-3.6-4.7-3.4
		c-1.3,0.1-2.6,0.7-3.7,1.6c-0.5,0.4-1,0.9-1.4,1.4c-1.5,1.9-2.5,4-3,6.3c-0.1,0.6-0.2,1.2-0.3,1.8c0,0.4-0.1,0.8-0.1,1.3
		c0,0.4,0,0.7-0.1,1.1c-0.1,0.9-0.2,1.7-0.3,2.6c0,0,0,0,0,0c-2.9,2.2-5.2,5.3-5.9,8.8c-2.3,1.2-5,1.3-7.5,0.2
		c-2.6-1.2-3.9-4.5-3.2-7.2c0.3-1.2,1.1-2.3,2.2-3c0.7-0.5,1.5-0.8,2.3-0.9c0.9-0.1,1.9,0,2.8,0.4c2,1.1,2.5,4.2,0.5,5.5
		c-0.5,0.3-1,0.5-1.6,0.3c-2.6-0.6,0.9-3.2-0.7-4.3c-0.4-0.3-1-0.3-1.4-0.1c-1.6,0.6-2.1,2.7-1.5,4.2c1.6,4,8.2,3,9.1-1
		c0.5-2.4-0.7-5.1-2.8-6.5c-0.7-0.5-1.6-0.9-2.5-1c-1.1-0.1-2.2,0-3.2,0.2c-1.2,0.3-2.3,0.8-3.3,1.4c-2.6,1.7-4.8,4.4-6.5,7
		c-0.3,0.5-0.7,1.1-1,1.6c-3.4,6.1-6.4,15.4-14.8,15.5c-1.6,0-1.6,2.5,0,2.5c7.6,0,11.8-6.6,14.9-12.6c1.4-2.9,2.8-5.8,4.8-8.2
		c-0.1,1.6,0.2,3.3,1,4.9c2.2,4,7.2,5.2,11.4,4.1c0.3-0.1,0.5-0.2,0.7-0.2c0,0.3,0,0.6,0.1,0.9c0.6,4.3,3.5,8.5,8.1,9
		c1.8,0.2,3.5-0.2,4.9-0.9c-1.5,2.8-3.6,5.2-5.7,7.6c-4.4,5.1-8.8,11.6-6,18.6c0.6,1.5,2.9,0.5,2.3-1c-3.2-7.8,4.3-14.1,8.6-19.6
		c0.4-0.5,0.8-1,1.1-1.5c1.8-2.5,3.4-5.6,4-8.7C100,258.1,100,256.9,99.8,255.7z M91.8,235.9c0.4-1.7,1.5-3,2.7-4.2l4.6,3.2
		c-0.6,1.5-1.5,3.1-2.8,4.1c-1.5,1.1-3.3,1.8-4.9,2.6C91.4,239.7,91.3,237.8,91.8,235.9z"/>
	<path fill="#88A63D" d="M173.1,166.7v-10.4v-10.4l-14.3-14.3h-10.1h-10.1l-14.3,14.3v10.4v10.4l14.3,14.3h10.1h10.1L173.1,166.7z
		 M148.6,179L148.6,179c-12.3,0-22.4-10-22.4-22.4c0-0.1,0-0.2,0-0.3c0-0.1,0-0.2,0-0.3c0-12.3,10-22.4,22.4-22.4h0l0,0
		c12.3,0,22.4,10,22.4,22.4c0,0.1,0,0.2,0,0.3c0,0.1,0,0.2,0,0.3C171,169,161,179,148.6,179L148.6,179z"/>
	<path fill="#88A63D" d="M281.5,218.5c-7.8,3.2-14.1-4.3-19.6-8.7c-0.5-0.4-1-0.8-1.5-1.1c0,0,0,0,0,0c-2.5-1.8-5.6-3.4-8.7-4
		c0,0,0,0,0,0c-1.2-0.2-2.4-0.2-3.6-0.1c-1.1,0.2-2.1,0.5-3.1,1c-0.8,0.4-1.4,1.1-1.9,1.9c-1.3,2.1-1.5,5.1-0.1,7.1
		c2.4,3.3,8.8,1.7,8.8-2.6c0-1.6-1.3-3.4-3-3.3c-0.5,0-1,0.2-1.3,0.7c-1.1,1.7,3.1,2.7,1,4.3c-0.4,0.3-1,0.4-1.6,0.3
		c-2.4-0.4-3.1-3.5-1.6-5.3c0.6-0.8,1.5-1.2,2.4-1.4h0c0.4-0.1,0.8-0.1,1.2-0.1c0.4,0,0.8,0,1.2,0.1c1.3,0.3,2.4,0.9,3.2,1.9
		c1.7,2.3,1.7,5.8-0.2,7.9c-1.7,1.9-4.2,2.8-6.7,2.7c-2-3.1-5.4-5.1-9-6c-0.1,0-0.2,0-0.3-0.1c-0.4-0.6-0.8-1.3-1.1-2c0,0,0,0,0,0
		c-0.2-0.3-0.3-0.6-0.5-1c-0.2-0.4-0.4-0.8-0.6-1.1c0,0,0,0,0,0c-0.3-0.5-0.6-1-0.9-1.5c0,0,0,0,0,0c-1.3-1.9-3-3.5-5.2-4.6
		c-0.6-0.3-1.2-0.6-1.9-0.8c0,0,0,0,0,0c-1.3-0.4-2.7-0.5-4-0.1c0,0-0.1,0-0.1,0c-2.2,0.8-3.5,3.1-2.9,5.3c0.3,1.1,0.9,2.1,1.6,3
		c0.4,0.6,0.9,1,1.4,1.4c1.9,1.5,4,2.5,6.3,3c0.6,0.1,1.2,0.2,1.8,0.3c0.4,0,0.8,0.1,1.3,0.1c0.4,0,0.7,0,1.1,0.1
		c0.7,0.1,1.5,0.1,2.2,0.3c0,0,0.1,0.1,0.1,0.1c2.3,3,5.5,5.4,9.2,6c1.1,2.3,1.2,5,0.1,7.3c-1.2,2.6-4.5,3.9-7.2,3.2
		c-1.2-0.3-2.3-1.1-3-2.2c0,0,0,0,0,0c-0.5-0.7-0.8-1.4-0.9-2.2c0,0,0,0,0,0c-0.1-0.9,0-1.9,0.4-2.8c1.1-2,4.2-2.5,5.5-0.5
		c0.3,0.5,0.5,1,0.3,1.6c-0.6,2.6-3.2-0.9-4.3,0.7c-0.3,0.4-0.3,1-0.1,1.4c0.6,1.6,2.7,2.1,4.2,1.5c4-1.6,3-8.2-1-9.1
		c-2.4-0.5-5.1,0.7-6.5,2.8c-0.5,0.7-0.9,1.6-1,2.5c-0.1,1.1,0,2.2,0.2,3.2c0.3,1.2,0.8,2.3,1.4,3.3c1.7,2.6,4.4,4.8,7,6.5
		c0.5,0.3,1.1,0.7,1.6,1c6.1,3.4,15.4,6.4,15.5,14.8c0,1.6,2.5,1.6,2.5,0c0-7.6-6.6-11.8-12.6-14.9c-2.9-1.4-5.8-2.8-8.2-4.8
		c1.6,0.1,3.3-0.2,4.9-1c4-2.2,5.2-7.2,4.1-11.4c-0.1-0.2-0.1-0.5-0.2-0.7c0.2,0,0.4,0,0.6-0.1c4.3-0.6,8.5-3.5,9-8.1
		c0.2-1.8-0.2-3.5-0.9-4.9c2.8,1.5,5.2,3.6,7.6,5.7c5.1,4.4,11.6,8.8,18.6,6C284,220.3,283,217.9,281.5,218.5z M228.8,212.7
		c-1.7-0.4-3-1.5-4.2-2.7l2.9-4.5c1.5,0.6,3.1,1.5,4.1,2.9c1.1,1.5,1.7,3.2,2.6,4.9C232.3,213.1,230.5,213.1,228.8,212.7z"/>
	<path fill="#88A63D" d="M295.1,163c-6,5.9-14.7,1.4-21.4-0.5c-0.6-0.2-1.2-0.3-1.8-0.5c0,0,0,0,0,0c-1.9-0.4-3.9-0.7-6-0.7
		c-1.2,0-2.4,0.1-3.6,0.4c-1.2,0.3-2.3,0.7-3.3,1.3c-0.9,0.5-1.7,1.2-2.4,2.1c-0.6,0.7-0.9,1.5-1,2.4c-0.4,2.4,0.6,5.3,2.7,6.6
		c3.5,2.2,8.8-1.8,7.1-5.7c-0.6-1.5-2.5-2.6-4.1-1.9c-0.5,0.2-0.8,0.6-0.9,1.1c-0.4,2,3.9,1.4,2.5,3.6c-0.3,0.5-0.8,0.7-1.3,0.9
		c-2.4,0.5-4.2-2-3.5-4.2c0.3-0.9,0.9-1.7,1.7-2.3c0,0,0,0,0,0c0.7-0.5,1.4-0.8,2.2-0.9c0,0,0,0,0,0c1.3-0.2,2.6-0.1,3.7,0.5
		c2.5,1.4,3.8,4.7,2.8,7.4c-0.9,2.5-3,4.3-5.4,5.2c-3-2-6.8-2.5-10.4-2c-0.7-0.5-1.4-1-2.1-1.6c0,0,0,0,0,0
		c-0.3-0.2-0.6-0.5-0.8-0.7c-0.3-0.3-0.6-0.6-1-0.8c0,0,0,0,0,0c-0.5-0.4-1-0.7-1.5-1l0,0c-1.9-1.3-4.1-2.1-6.5-2.3
		c-0.3,0-0.7,0-1,0c-0.3,0-0.7,0-1,0.1c-2.5,0.3-5,1.6-5.3,4.3c-0.1,1.1,0.1,2,0.6,2.9c0.7,1.1,1.7,2,2.9,2.6
		c0.6,0.3,1.2,0.6,1.8,0.8c1.2,0.3,2.3,0.5,3.5,0.6c1.2,0.1,2.3,0,3.4-0.2c0,0,0,0,0,0c0.6-0.1,1.2-0.2,1.7-0.4c0,0,0,0,0,0
		c0.4-0.1,0.8-0.3,1.2-0.4c0.3-0.1,0.7-0.2,1-0.3c0,0,0,0,0,0c0.8-0.3,1.6-0.5,2.4-0.7c3.2,1.8,6.9,2.7,10.4,2
		c2,1.7,3.2,4.2,3.1,6.9c-0.1,2.9-2.6,5.3-5.5,5.7c-1.2,0.2-2.5-0.2-3.6-0.9c0,0,0,0,0,0c-0.7-0.4-1.3-1-1.7-1.7c0,0,0,0,0,0
		c-0.5-0.8-0.8-1.7-0.7-2.7c0.2-2.3,2.9-3.9,4.9-2.5c0.4,0.3,0.8,0.8,0.9,1.3c0.4,2.6-3.3,0.4-3.7,2.3c-0.1,0.5,0.1,1,0.4,1.4
		c1.2,1.2,3.3,0.9,4.5-0.2c3.1-3-0.3-8.7-4.4-8c-2.4,0.4-4.4,2.6-5,5c-0.2,0.9-0.2,1.8,0,2.7c0.3,1.1,0.8,2.1,1.4,2.9
		c0.7,1,1.6,1.8,2.6,2.5c2.6,1.8,5.9,2.8,8.9,3.3c0.6,0.1,1.3,0.2,1.9,0.3c6.9,0.8,16.7,0,20,7.8c0.6,1.5,2.9,0.5,2.3-1
		c-2.9-7-10.6-8.4-17.4-8.9c-3.2-0.2-6.4-0.4-9.4-1.3c1.6-0.5,3-1.4,4.1-2.8c2.9-3.5,2-8.6-0.6-12.1c-0.2-0.3-0.4-0.5-0.6-0.7
		c0.2-0.1,0.5-0.2,0.7-0.4c3.7-2.2,6.5-6.5,5.2-10.9c-0.5-1.7-1.5-3.2-2.7-4.2c3.1,0.3,6.2,1.4,9.2,2.4c6.4,2.1,14.1,3.7,19.5-1.6
		C298.1,163.6,296.3,161.8,295.1,163z M244.1,178c-1.7,0.3-3.4-0.3-4.9-0.9l1-5.5c1.6,0,3.4,0.2,4.9,1.1c1.6,1,2.9,2.4,4.4,3.7
		C247.7,177,246,177.7,244.1,178z"/>
	<path fill="#88A63D" d="M198.9,294.1c-7.8-3.3-6.9-13.1-7.7-20c-0.1-0.6-0.2-1.2-0.3-1.9c0,0,0,0,0,0c-0.5-3-1.5-6.3-3.3-8.9
		c0,0,0,0,0,0c-0.7-1-1.5-1.9-2.5-2.6c0,0,0,0,0,0c-0.9-0.6-1.8-1.1-2.9-1.4c-0.4-0.1-0.9-0.2-1.3-0.2c-0.4,0-0.9,0.1-1.3,0.2
		c-2.4,0.6-4.6,2.6-5,5c-0.7,4,5,7.4,8,4.4c1.1-1.2,1.5-3.3,0.2-4.5c-0.4-0.3-0.9-0.5-1.4-0.4c-2,0.4,0.2,4.1-2.3,3.7
		c-0.5-0.1-1-0.5-1.3-0.9c-1.4-2,0.3-4.7,2.6-4.9c1-0.1,1.9,0.2,2.7,0.7c0.7,0.4,1.3,1,1.7,1.7c0.7,1.1,1.1,2.4,0.9,3.6
		c-0.4,2.8-2.8,5.3-5.7,5.5c-2.9,0.1-5.5-1.2-7.2-3.5c0.5-3.2-0.3-6.5-1.9-9.4c0.2-1,0.4-2,0.8-3.1c0,0,0,0,0,0
		c0.1-0.4,0.2-0.7,0.4-1c0.2-0.4,0.3-0.8,0.4-1.2l0,0c0.2-0.6,0.3-1.2,0.4-1.7c0,0,0,0,0,0c0.4-2.3,0.3-4.6-0.4-6.9
		c-0.2-0.6-0.5-1.3-0.8-1.9c0,0,0,0,0,0c-0.7-1.2-1.6-2.2-2.8-2.9c-1-0.5-2.2-0.6-3.2-0.4c-1.1,0.2-2.1,0.7-2.8,1.6
		c-0.9,1-1.3,2.3-1.5,3.7c-0.1,0.7-0.1,1.4,0,2c0.3,2.4,1,4.6,2.3,6.5c0.3,0.5,0.7,1,1.1,1.5c0.3,0.3,0.5,0.6,0.8,1
		c0.3,0.3,0.5,0.5,0.7,0.8c0.7,0.8,1.3,1.7,1.9,2.5c-0.3,3.3,0.2,6.6,1.9,9.4c-0.7,2.7-2.6,5-5.3,6c-2.7,1-6-0.4-7.4-2.8
		c-0.6-1.1-0.8-2.4-0.5-3.7c0,0,0,0,0,0c0.2-0.8,0.5-1.6,0.9-2.2c0,0,0,0,0,0c0.6-0.8,1.3-1.4,2.3-1.7c2.2-0.7,4.7,1.2,4.2,3.5
		c-0.1,0.5-0.4,1.1-0.9,1.3c-2.2,1.4-1.6-2.9-3.6-2.5c-0.5,0.1-0.9,0.5-1.1,0.9c-0.7,1.6,0.4,3.4,1.9,4.1c3.9,1.7,7.9-3.7,5.7-7.1
		c-1.3-2.1-4.1-3.1-6.6-2.7c-0.9,0.2-1.7,0.5-2.4,1c-0.9,0.7-1.6,1.5-2.1,2.4c-0.6,1-1,2.2-1.3,3.3c-0.7,3.1-0.3,6.5,0.3,9.5
		c0.1,0.6,0.3,1.3,0.5,1.8c1.9,6.7,6.4,15.4,0.5,21.4c-1.1,1.2,0.6,2.9,1.8,1.8c5.3-5.4,3.7-13,1.6-19.5c-1-3-2.1-6.1-2.4-9.2
		c1.1,1.3,2.5,2.2,4.2,2.7c4.4,1.3,8.8-1.4,10.9-5.2c0.2-0.4,0.4-0.7,0.5-1.1c0.3,0.3,0.6,0.6,0.9,0.8c3.4,2.6,8.5,3.5,12.1,0.6
		c1.4-1.1,2.4-2.6,2.8-4.1c0.9,3,1.1,6.2,1.3,9.4c0.5,6.8,1.9,14.4,8.9,17.4C199.5,297.1,200.4,294.8,198.9,294.1z M170.8,251.6
		c-0.3,2-1.2,3.9-1.8,5.8c-1.3-1.5-2.8-2.9-3.9-4.7c-0.9-1.4-1.1-3.2-1.1-4.9l5.9-1.2C170.5,248.2,171.1,249.9,170.8,251.6z"/>
	<path fill="#88A63D" d="M247.9,264.5c-8.4-0.1-11.4-9.4-14.8-15.5c-0.3-0.5-0.6-1.1-1-1.6c0,0,0,0,0,0c-1.6-2.6-3.8-5.3-6.5-7
		c0,0,0,0,0,0c-1-0.7-2.1-1.1-3.3-1.4c0,0,0,0,0,0c-0.8-0.2-1.6-0.3-2.4-0.3c-0.3,0-0.6,0-0.8,0.1c-0.9,0.1-1.7,0.5-2.5,1
		c-2,1.4-3.3,4.2-2.8,6.5c0.9,4,7.5,4.9,9.1,1c0.6-1.5,0.1-3.6-1.5-4.2c-0.5-0.2-1-0.2-1.4,0.1c-1.7,1.1,1.8,3.7-0.7,4.3
		c-0.5,0.1-1.1,0-1.6-0.3c-2-1.3-1.5-4.4,0.5-5.5c0.9-0.5,1.8-0.6,2.8-0.4c0.8,0.1,1.6,0.5,2.3,0.9c1.1,0.7,1.9,1.8,2.2,3
		c0.7,2.8-0.6,6-3.2,7.2c-2.4,1.1-5.2,1-7.5-0.2c-0.7-3.5-3-6.6-5.9-8.8c0,0,0,0,0,0c-0.2-0.8-0.3-1.7-0.3-2.6c0,0,0,0,0,0
		c0-0.4-0.1-0.7-0.1-1.1c0-0.4,0-0.8-0.1-1.3l0,0c-0.1-0.6-0.2-1.2-0.3-1.8c0,0,0,0,0,0c-0.5-2.3-1.5-4.4-3-6.3
		c-0.4-0.5-0.9-1-1.4-1.4c0,0,0,0,0,0c-1.1-0.9-2.3-1.5-3.6-1.6c-2.2-0.2-4.6,1.5-4.7,3.4c-0.4,1.2-0.3,2.6,0.1,3.8
		c0.2,0.7,0.4,1.3,0.8,1.9c1.2,2.1,2.7,3.8,4.6,5.2c0.5,0.3,1,0.7,1.5,0.9c0.4,0.2,0.7,0.4,1.1,0.6c0.3,0.2,0.7,0.3,1,0.5
		c0.7,0.4,1.5,0.8,2.2,1.2c1,3.5,3,6.8,5.9,8.8c0.2,2.6-0.7,5.3-2.7,7.1c-2.1,1.9-5.7,1.9-7.9,0.2c-1-0.8-1.6-1.9-1.9-3.2
		c0,0,0,0,0,0c-0.2-0.8-0.2-1.6,0-2.4c0,0,0,0,0,0c0.2-0.9,0.7-1.8,1.5-2.4c1.8-1.5,4.8-0.7,5.3,1.6c0.1,0.5,0,1.1-0.3,1.6
		c-1.5,2.1-2.6-2-4.2-1c-0.4,0.3-0.6,0.8-0.7,1.3c0,1.7,1.7,3,3.3,3c4.3,0,5.9-6.4,2.6-8.8c-2-1.4-5-1.3-7.1,0.1
		c-0.8,0.5-1.4,1.1-1.9,1.9c-0.6,1-0.9,2-1,3.1c-0.2,1.2-0.1,2.4,0.1,3.6c0.5,3.1,2.2,6.1,4,8.7c0.4,0.5,0.8,1,1.1,1.5
		c4.3,5.5,11.8,11.8,8.6,19.6c-0.6,1.5,1.7,2.5,2.3,1c2.9-7-1.5-13.5-6-18.6c-2.1-2.4-4.2-4.8-5.7-7.6c1.4,0.8,3.1,1.1,4.9,0.9
		c4.6-0.4,7.5-4.7,8.1-9c0-0.3,0.1-0.6,0.1-0.9c0.2,0.1,0.5,0.2,0.7,0.2c4.2,1.1,9.2,0,11.4-4.1c0.8-1.6,1.2-3.3,1-4.9
		c2,2.5,3.4,5.3,4.8,8.2c3,6.1,7.3,12.6,14.9,12.6C249.5,267,249.5,264.5,247.9,264.5z M201.1,239c-1.4-1-2.2-2.6-2.8-4.1l4.6-3.2
		c1.2,1.2,2.3,2.5,2.7,4.2c0.4,1.9,0.4,3.8,0.5,5.7C204.4,240.8,202.6,240.1,201.1,239z"/>
	<path fill="#88A63D" d="M168.5,156.3c0-0.1,0-0.2,0-0.3c0-11-8.9-19.9-19.9-19.9l0,0h0c-11,0-19.9,8.9-19.9,19.9c0,0.1,0,0.2,0,0.3
		c0,0.1,0,0.2,0,0.3c0,11,8.9,19.9,19.9,19.9h0l0,0c11,0,19.9-8.9,19.9-19.9C168.6,156.5,168.5,156.4,168.5,156.3z M148.8,173.5
		c-0.1,0-0.1,0-0.2,0l0,0h0c-0.1,0-0.1,0-0.2,0c-9.2-0.1-16.7-7.6-16.7-16.9c0-0.1,0-0.2,0-0.3c0-0.1,0-0.2,0-0.3
		c0-9.2,7.5-16.8,16.7-16.9c0.1,0,0.1,0,0.2,0h0l0,0c0.1,0,0.1,0,0.2,0c9.2,0.1,16.7,7.6,16.7,16.9c0,0.1,0,0.2,0,0.3
		c0,0.1,0,0.2,0,0.3C165.5,165.9,158,173.4,148.8,173.5z"/>
</g>
</svg>
